<svg width="82" height="84" viewBox="0 0 82 84" fill="none" xmlns="http://www.w3.org/2000/svg">
<path d="M56.374 53.1249C55.7248 53.1249 55.0757 52.881 54.5632 52.3585L42.4342 39.9917L38.7101 45.7048C38.3002 46.3667 37.5827 46.7847 36.831 46.8544C36.0452 46.9241 35.2935 46.6454 34.7811 46.088L23.8479 34.9405C22.8571 33.9303 22.8571 32.2581 23.8479 31.2479C24.8387 30.2376 26.4787 30.2376 27.4695 31.2479L36.1819 40.1311L39.906 34.418C40.316 33.7909 40.9993 33.3729 41.7851 33.2684C42.5709 33.1987 43.3226 33.4774 43.8351 34.0348L58.1848 48.6659C59.1756 49.6761 59.1756 51.3483 58.1848 52.3585C57.6723 52.881 57.0232 53.1249 56.374 53.1249Z" fill="#3ADCC9"/>
<path d="M56.374 53.1249H49.5408C48.14 53.1249 46.9783 51.9405 46.9783 50.5122C46.9783 49.0839 48.14 47.8995 49.5408 47.8995H53.8115V43.545C53.8115 42.1167 54.9732 40.9323 56.374 40.9323C57.7748 40.9323 58.9365 42.1167 58.9365 43.545V50.5122C58.9365 51.9405 57.7748 53.1249 56.374 53.1249Z" fill="#3ADCC9"/>
<path d="M51.2491 79.2519H30.7495C12.1973 79.2519 4.27075 71.1699 4.27075 52.254V31.3524C4.27075 12.4365 12.1973 4.35452 30.7495 4.35452H51.2491C69.8013 4.35452 77.7278 12.4365 77.7278 31.3524V52.254C77.7278 71.1699 69.8013 79.2519 51.2491 79.2519ZM30.7495 9.57992C14.9989 9.57992 9.39566 15.293 9.39566 31.3524V52.254C9.39566 68.3134 14.9989 74.0265 30.7495 74.0265H51.2491C66.9996 74.0265 72.6029 68.3134 72.6029 52.254V31.3524C72.6029 15.293 66.9996 9.57992 51.2491 9.57992H30.7495Z" fill="#3ADCC9"/>
</svg>
