<svg width="123" height="117" viewBox="0 0 123 117" fill="none" xmlns="http://www.w3.org/2000/svg">
<g filter="url(#filter0_f_121_28640)">
<path d="M77.6764 43.5073H46.1247C44.8388 43.5073 43.8013 44.5504 43.8013 45.8308V64.5234C43.8013 65.8093 44.8444 66.8468 46.1247 66.8468H49.6072V72.0236C49.6072 73.5689 51.4726 74.3415 52.5653 73.2488L58.9673 66.8468H77.6764C78.9623 66.8468 79.9999 65.8038 79.9999 64.5234V45.8308C79.9999 44.5449 78.9568 43.5073 77.6764 43.5073Z" fill="url(#paint0_linear_121_28640)"/>
</g>
<path d="M77.24 44H39.76C38.2325 44 37 45.2067 37 46.688V68.3134C37 69.8011 38.2391 71.0014 39.76 71.0014H43.8968V76.9904C43.8968 78.7782 46.1127 79.672 47.4107 78.4078L55.0156 71.0014H77.24C78.7675 71.0014 80 69.7947 80 68.3134V46.688C80 45.2003 78.7609 44 77.24 44Z" fill="url(#paint1_linear_121_28640)"/>
<g filter="url(#filter1_b_121_28640)">
<path d="M61.2632 51.9897H35.4512C32.7028 51.9897 30.4731 54.2194 30.4731 56.9623V98.6301C30.4731 101.379 32.7028 103.603 35.4512 103.603H61.2632C64.0116 103.603 66.2413 101.379 66.2413 98.6301V56.9623C66.2413 54.2194 64.0116 51.9897 61.2632 51.9897ZM59.2543 100.026C59.0501 100.231 58.7631 100.358 58.4541 100.358H38.2603C37.6367 100.358 37.129 99.8553 37.129 99.2317C37.129 98.9226 37.2559 98.6356 37.4601 98.4314C37.6643 98.2272 37.9458 98.1003 38.2603 98.1003H58.4541C59.0777 98.1003 59.5854 98.608 59.5854 99.2317C59.5854 99.5407 59.4585 99.8277 59.2543 100.026Z" fill="url(#paint2_linear_121_28640)"/>
<path d="M35.4512 52.2397H61.2632C63.8737 52.2397 65.9913 54.3576 65.9913 56.9623V98.6301C65.9913 101.24 63.8739 103.353 61.2632 103.353H35.4512C32.8405 103.353 30.7231 101.24 30.7231 98.6301V56.9623C30.7231 54.3576 32.8407 52.2397 35.4512 52.2397ZM58.4541 100.608C58.831 100.608 59.1804 100.453 59.4299 100.204C59.6814 99.959 59.8354 99.608 59.8354 99.2317C59.8354 98.47 59.2158 97.8503 58.4541 97.8503H38.2603C37.8766 97.8503 37.5324 98.0056 37.2833 98.2547C37.0338 98.5042 36.879 98.8542 36.879 99.2317C36.879 99.995 37.5002 100.608 38.2603 100.608H58.4541Z" stroke="url(#paint3_linear_121_28640)" stroke-width="0.5"/>
</g>
<path d="M59.5859 99.2315C59.5859 99.5405 59.4589 99.8275 59.2547 100.026C59.0505 100.23 58.7636 100.357 58.4545 100.357H38.2608C37.6371 100.357 37.1294 99.8551 37.1294 99.2315C37.1294 98.9224 37.2563 98.6354 37.4605 98.4312C37.6647 98.227 37.9462 98.1001 38.2608 98.1001H58.4545C59.0781 98.1001 59.5859 98.6078 59.5859 99.2315Z" fill="white"/>
<defs>
<filter id="filter0_f_121_28640" x="0.80127" y="0.507324" width="122.199" height="116.253" filterUnits="userSpaceOnUse" color-interpolation-filters="sRGB">
<feFlood flood-opacity="0" result="BackgroundImageFix"/>
<feBlend mode="normal" in="SourceGraphic" in2="BackgroundImageFix" result="shape"/>
<feGaussianBlur stdDeviation="21.5" result="effect1_foregroundBlur_121_28640"/>
</filter>
<filter id="filter1_b_121_28640" x="12.4731" y="33.9897" width="71.7681" height="87.613" filterUnits="userSpaceOnUse" color-interpolation-filters="sRGB">
<feFlood flood-opacity="0" result="BackgroundImageFix"/>
<feGaussianBlur in="BackgroundImageFix" stdDeviation="9"/>
<feComposite in2="SourceAlpha" operator="in" result="effect1_backgroundBlur_121_28640"/>
<feBlend mode="normal" in="SourceGraphic" in2="effect1_backgroundBlur_121_28640" result="shape"/>
</filter>
<linearGradient id="paint0_linear_121_28640" x1="42.8355" y1="70.9032" x2="78.1234" y2="41.802" gradientUnits="userSpaceOnUse">
<stop stop-color="#00B1FF"/>
<stop offset="1" stop-color="#00FF79"/>
</linearGradient>
<linearGradient id="paint1_linear_121_28640" x1="35.8527" y1="75.6943" x2="76.8695" y2="40.9624" gradientUnits="userSpaceOnUse">
<stop stop-color="#00B1FF"/>
<stop offset="1" stop-color="#00FF79"/>
</linearGradient>
<linearGradient id="paint2_linear_121_28640" x1="32.4925" y1="100.689" x2="75.3627" y2="70.9795" gradientUnits="userSpaceOnUse">
<stop stop-color="white" stop-opacity="0.2"/>
<stop offset="1" stop-color="white" stop-opacity="0.49"/>
</linearGradient>
<linearGradient id="paint3_linear_121_28640" x1="32.998" y1="56.049" x2="74.3655" y2="86.7017" gradientUnits="userSpaceOnUse">
<stop stop-color="white"/>
<stop offset="1" stop-color="white" stop-opacity="0"/>
</linearGradient>
</defs>
</svg>
