<svg width="24" height="28" viewBox="0 0 24 28" fill="none" xmlns="http://www.w3.org/2000/svg">
<path d="M23.998 6.99803L20.6593 5.05018L20.04 5.41133V4.68903L16.3282 2.5241V7.57626L15.7089 7.93741V2.16295L12.3702 0.217085L11.999 0L8.66032 1.94784V2.67014L8.04103 2.30899L4.32918 4.47392L8.66032 7V7.7223L3.70989 4.83507L0.371184 6.78094L0 6.99803V10.8917L0.619292 11.2529L0 11.614V15.9419L4.33114 13.4158L4.95043 13.777L0 16.6682V20.9961L3.33871 22.9439L3.95995 22.5827V23.307L7.6718 25.4719V20.4198L8.29109 20.0586V25.8351L11.6298 27.7829L12.001 28L15.3397 26.0522V25.3299L15.959 25.691L19.6708 23.5261L15.3397 21V20.2757L20.2901 23.163L23.6288 21.2151L24 20.998V17.1043L23.3807 16.7432L24 16.382V12.0541L19.6689 14.5802L19.0496 14.2191L24 11.3318V7.00395L23.998 6.99803ZM16.6994 3.17339L19.6689 4.90414V5.62644L16.6994 7.3572V3.17141V3.17339ZM16.6994 7.79335L19.6689 6.06259V9.5241L18.3912 10.2701L16.7013 11.2568V7.79532L16.6994 7.79335ZM15.3377 15.9439L11.999 17.8917L8.66032 15.9439V12.0502L11.999 10.1023L15.3377 12.0502V15.9439ZM14.9665 16.5932V19.6225L12.3702 18.1088L13.9624 17.1813L14.9665 16.5951V16.5932ZM8.66032 16.3761L10.2505 17.3036L11.2547 17.8898L8.65836 19.4034V16.3741L8.66032 16.3761ZM8.28913 19.6205L7.66984 19.9817V16.5202L8.28913 16.159V19.6205ZM12.7414 10.1023L15.3377 8.58867V11.618L12.7414 10.1043V10.1023ZM10.0376 10.8148L9.03346 11.4009V8.37355L11.6298 9.88723L10.0376 10.8148ZM15.7089 8.37158L16.3282 8.01043V11.4719L15.7089 11.8331V8.37158ZM15.3377 2.38004V8.1545L12.3702 9.88525V0.649281L15.3377 2.38004ZM9.0315 2.16295L11.999 0.432196V4.61601L9.0315 2.88525V2.16295ZM5.07155 4.47195L8.04103 2.74119L8.66032 3.10234V6.56583L5.07155 4.47195ZM9.0315 6.78094V3.31745L11.999 5.04821V8.5117L9.0315 6.78094ZM9.0315 7.21314L11.999 8.9439V9.66817L9.0315 7.93741V7.21511V7.21314ZM3.70989 5.26529L8.66032 8.15252V11.614L0.742369 6.99803L3.70989 5.26727V5.26529ZM0.371184 10.6766V7.21511L3.958 9.30702L0.990476 11.0378L0.371184 10.6766ZM1.36166 11.2549L4.32918 9.5241L7.29866 11.2549L4.33114 12.9856L1.36166 11.2549ZM0.371184 15.2966V11.8331L0.990476 11.4719L3.95995 13.2027L0.371184 15.2946V15.2966ZM4.70232 13.2027L7.66984 11.4719L8.28913 11.8331L5.32161 13.5639L4.70232 13.2027ZM8.28913 12.2673V15.2946L5.6928 13.7809L8.28913 12.2673ZM0.371184 16.8833L5.32161 13.9961L8.28913 15.7268L0.371184 20.3448V16.8833ZM0.371184 20.777L3.958 18.6851V22.1466L3.33675 22.5078L0.369231 20.777H0.371184ZM7.29866 24.8167L4.32918 23.086V22.3637L7.29866 20.6329V24.8187V24.8167ZM7.29866 20.1968L4.32918 21.9275V18.466L7.29866 16.7353V20.1968ZM8.66032 25.6101V19.8356L11.6278 18.1049V27.3408L8.66032 25.6101ZM14.9665 25.8272L11.999 27.5579V23.3741L14.9665 25.1049V25.8292V25.8272ZM18.9265 23.5182L15.957 25.2489L15.3377 24.8878V21.4243L18.9265 23.5182ZM14.9665 21.2092V24.6727L11.999 22.9419V19.4784L14.9665 21.2092ZM14.9665 20.777L11.999 19.0462V18.3239L14.9665 20.0547V20.777ZM20.2882 22.7248L15.3377 19.8376V16.3761L23.2557 20.9941L20.2882 22.7248ZM23.6269 17.3155V20.777L20.04 18.6851L23.0076 16.9543L23.6269 17.3155ZM19.6689 18.468L16.6994 16.7372L19.6669 15.0065L22.6364 16.7372L19.6689 18.468ZM23.6269 12.6955V16.159L23.0076 16.5202L20.0381 14.7894L23.6269 12.6955ZM19.2957 14.7894L16.3282 16.5202L15.7089 16.159L18.6764 14.4282L19.2957 14.7894ZM15.7089 15.7248V12.6975L18.3053 14.2112L15.7089 15.7248ZM23.6269 11.1068L18.6764 13.9941L15.7089 12.2633L22.904 8.06766L23.6288 7.64533V11.1068H23.6269ZM23.6269 7.21314L20.04 9.30505V5.84353L20.6593 5.48238L23.6269 7.21314Z" fill="url(#paint0_linear_251_635)"/>
<defs>
<linearGradient id="paint0_linear_251_635" x1="4.35804" y1="4.56425" x2="22.0214" y2="23.3647" gradientUnits="userSpaceOnUse">
<stop stop-color="#809BFF"/>
<stop offset="1" stop-color="#3ADCC9"/>
</linearGradient>
</defs>
</svg>
