<svg width="25" height="29" viewBox="0 0 25 29" fill="none" xmlns="http://www.w3.org/2000/svg">
<path d="M19.65 14.45L24.4 11.68V7.17L24.36 7.1L20.86 5.06L20.44 5.3V4.81L16.33 2.41V7.7L16.11 7.83V2.28L12.2 0L8.66 2.06V2.55L8.24 2.31L4.13 4.71L8.66 7.35V7.61L3.91 4.84L0 7.11V11.23L0.42 11.48L0 11.73V16.52L4.53 13.88L4.75 14.01L0 16.79V21.35L3.54 23.41L3.96 23.16V23.65L8.07 26.05V20.76L8.29 20.63V26.17L12.2 28.45L15.74 26.39V25.9L16.16 26.14L20.27 23.74L15.74 21.1V20.84L20.49 23.61L24.4 21.33V17.21L23.98 16.96L24.4 16.71V11.92L19.87 14.56L19.65 14.43V14.45ZM18.73 23.75L16.16 25.25L15.74 25.01V22.01L18.73 23.76V23.75ZM14.97 25.45V25.94L12.4 27.44V23.95L14.97 25.45ZM14.97 21.55V24.55L12.4 23.05V20.05L14.97 21.55ZM14.97 20.4V20.66L12.4 19.16V18.9L14.97 20.4ZM14.97 17.17V19.5L12.97 18.33L14.97 17.16V17.17ZM12.2 17.89L9.06 16.06V12.4L12.2 10.57L15.34 12.4V16.06L12.2 17.89ZM15.74 19.95V16.95L23.06 21.22L20.49 22.72L15.74 19.95ZM12.77 9.76V1.23L15.34 2.73V8.27L12.77 9.77V9.76ZM15.34 9.16V11.49L13.34 10.32L15.34 9.15V9.16ZM23.63 11.22L18.88 13.99L16.31 12.49L23.63 8.22V11.22ZM19.87 18.46L17.3 16.96L19.87 15.46L22.44 16.96L19.87 18.46ZM16.31 16.38L18.88 14.88L19.1 15.01L16.53 16.51L16.31 16.38ZM16.11 15.6V13.27L18.11 14.44L16.11 15.61V15.6ZM20.64 18.91L23.21 17.41L23.63 17.66V20.66L20.64 18.92V18.91ZM20.64 15.01L23.63 13.26V16.26L23.21 16.51L20.64 15.01ZM20.86 5.93L23.43 7.43L20.44 9.17V6.17L20.86 5.93ZM19.67 6.63V9.63L17.1 11.13V8.13L19.67 6.63ZM19.67 5.24V5.73L17.1 7.23V3.74L19.67 5.24ZM16.11 11.71V8.71L16.33 8.58V11.58L16.11 11.71ZM11.43 10.11L9.43 11.28V8.95L11.43 10.12V10.11ZM9.43 2.99V2.5L12 1V4.49L9.43 2.99ZM9.43 6.89V3.89L12 5.39V8.39L9.43 6.89ZM12 9.28V9.54L9.43 8.04V7.78L12 9.28ZM9.06 19.28V16.95L11.06 18.12L9.06 19.29V19.28ZM9.06 25.72V20.18L11.63 18.68V27.22L9.06 25.72ZM8.29 16.73V19.73L8.07 19.86V16.86L8.29 16.73ZM7.3 21.2V24.69L4.73 23.19V22.7L7.3 21.2ZM7.3 17.3V20.3L4.73 21.8V18.8L7.3 17.3ZM3.96 19.25V22.25L3.54 22.5L0.97 21L3.96 19.26V19.25ZM4.53 9.97L7.1 11.47L4.53 12.97L1.96 11.47L4.53 9.97ZM8.09 12.05L5.52 13.55L5.3 13.42L7.87 11.92L8.09 12.05ZM8.09 15.94L0.77 20.23V17.23L5.52 14.46L8.09 15.96V15.94ZM8.29 12.83V15.16L6.29 13.99L8.29 12.82V12.83ZM3.91 5.73L8.66 8.5V11.5L1.34 7.23L3.91 5.73ZM8.24 3.21L8.66 3.45V6.45L5.67 4.7L8.24 3.2V3.21ZM0.77 15.18V12.18L1.19 11.94L3.76 13.44L0.77 15.19V15.18ZM0.77 10.79V7.79L3.76 9.53L1.19 11.03L0.77 10.79Z" fill="url(#paint0_linear_251_640)"/>
<defs>
<linearGradient id="paint0_linear_251_640" x1="3.77" y1="23.2" x2="21.72" y2="4.1" gradientUnits="userSpaceOnUse">
<stop stop-color="#809BFF"/>
<stop offset="1" stop-color="#3ADCC9"/>
</linearGradient>
</defs>
</svg>
