<svg width="150" height="150" viewBox="0 0 150 150" fill="none" xmlns="http://www.w3.org/2000/svg">
<path d="M71.2947 61.7255C71.4065 60.4147 72.4937 58.948 73.6721 58.5982C74.2011 58.4413 74.5544 58.7778 74.4708 59.3995C74.3054 60.6229 73.7557 61.6362 72.7718 62.3833C72.489 62.5982 72.1394 62.8871 71.8068 62.6124C71.5615 62.409 71.4601 62.0269 71.2947 61.7246V61.7255Z" fill="white"/>
<path d="M47.5972 77.8786C48.2418 77.9755 48.8056 78.0611 49.4568 78.159C48.8554 78.4423 48.3217 78.6932 47.7315 78.9698C47.6827 78.5763 47.6432 78.2502 47.5972 77.8786Z" fill="white"/>
<path d="M89.4004 98.0582C89.0818 98.2588 88.8121 98.4299 88.4832 98.6371C88.3883 98.2902 88.3103 98.0078 88.2333 97.7246C88.1553 97.4394 88.0782 97.1533 87.9814 96.793C88.4785 97.2369 88.9183 97.6276 89.4004 98.0573V98.0582Z" fill="white"/>
<path d="M69.7143 102.149C69.7115 102.63 69.4522 102.945 69.0491 102.953C68.6215 102.961 68.3368 102.679 68.3462 102.254C68.3565 101.784 68.6328 101.455 69.0227 101.447C69.4597 101.439 69.7162 101.699 69.7143 102.148V102.149Z" fill="white"/>
<path d="M81.2628 102.08C81.2703 102.525 81.0203 102.789 80.5872 102.793C80.1728 102.797 79.905 102.501 79.889 102.024C79.8749 101.591 80.1324 101.303 80.5496 101.286C80.9762 101.269 81.2543 101.578 81.2628 102.081V102.08Z" fill="white"/>
<path d="M63.9906 100.165C63.9831 100.635 63.6617 100.995 63.2624 100.981C62.8639 100.967 62.5858 100.676 62.5952 100.282C62.6055 99.8139 62.9269 99.4613 63.331 99.4727C63.7501 99.4841 63.9963 99.7436 63.9906 100.164V100.165Z" fill="white"/>
<path d="M101.89 81.217C101.899 81.6314 101.601 81.9575 101.211 81.9594C100.771 81.9613 100.42 81.6685 100.402 81.2826C100.382 80.8596 100.661 80.5259 101.049 80.5098C101.486 80.4917 101.881 80.8234 101.89 81.217Z" fill="white"/>
<path d="M55.9179 94.4736C55.9151 94.8909 55.5101 95.3301 55.1803 95.3424C54.8777 95.3529 54.5441 95.0116 54.5544 94.7018C54.5676 94.3453 54.9763 93.9308 55.324 93.9461C55.6886 93.9622 55.8841 94.1742 55.917 94.4736H55.9179Z" fill="white"/>
<path d="M50.4885 88.8938C50.1841 88.8938 49.858 88.5544 49.8702 88.2493C49.8824 87.9347 50.3325 87.544 50.6934 87.5345C50.9959 87.5259 51.3154 87.8681 51.3042 88.1875C51.2919 88.5212 50.8616 88.8947 50.4885 88.8947V88.8938Z" fill="white"/>
<path d="M73.3978 102.155H72.4036C72.3829 102.11 72.3622 102.064 72.3416 102.019C72.5126 101.907 72.6892 101.698 72.8537 101.707C73.0689 101.72 73.2737 101.905 73.4833 102.016C73.4551 102.063 73.4259 102.11 73.3978 102.156V102.155Z" fill="white"/>
<path d="M95.5037 91.7331C95.5347 91.5297 95.5018 91.274 95.6127 91.1371C95.7508 90.967 96.0073 90.8947 96.2122 90.7807C96.2554 90.8358 96.2986 90.89 96.3428 90.9451C96.1257 91.2236 95.9096 91.5012 95.6925 91.7797C95.6296 91.7645 95.5676 91.7493 95.5046 91.7331H95.5037Z" fill="white"/>
<path d="M56.5213 55.929C56.3305 56.0744 56.1576 56.2816 55.9434 56.3491C55.6859 56.4299 55.2555 56.0373 55.3326 55.7854C55.3974 55.5753 55.6145 55.3482 55.8193 55.2626C56.0561 55.1637 56.4329 55.5516 56.5213 55.929Z" fill="white"/>
<path d="M98.5699 64.3681C98.4684 64.2122 98.2251 64.0059 98.2222 63.7959C98.2166 63.4347 98.5258 63.275 98.8716 63.2845C99.1873 63.293 99.3583 63.5012 99.348 63.8025C99.3358 64.1913 99.0548 64.3139 98.5699 64.3681Z" fill="white"/>
<path d="M94.8824 56.7483C95.0243 56.9413 95.2273 57.1153 95.2931 57.332C95.372 57.5915 94.9256 58.024 94.6607 57.9271C94.4577 57.8529 94.2406 57.6172 94.1758 57.408C94.094 57.1428 94.4718 56.8272 94.8824 56.7493V56.7483Z" fill="white"/>
<path d="M58.5829 54.1181C58.2174 54.0668 57.8265 53.7255 57.897 53.448C57.9515 53.2341 58.162 52.9964 58.364 52.9023C58.6008 52.7921 59.049 53.2303 58.9814 53.5155C58.9287 53.736 58.722 53.9185 58.5829 54.1181Z" fill="white"/>
<path d="M65.5928 49.9337C65.4181 50.0611 65.2489 50.2826 65.0657 50.2949C64.733 50.3168 64.6006 50.0364 64.5808 49.7227C64.5611 49.409 64.7415 49.1932 65.0178 49.2597C65.2348 49.312 65.4068 49.5563 65.5985 49.7151C65.5966 49.7883 65.5947 49.8615 65.5919 49.9337H65.5928Z" fill="white"/>
<path d="M85.7648 50.0658C85.5618 49.9651 85.3589 49.8643 85.1568 49.7635C85.1559 49.7236 85.154 49.6837 85.1531 49.6438C85.2931 49.6248 85.4566 49.5516 85.5665 49.601C85.699 49.6609 85.7855 49.8244 85.8917 49.9432L85.7648 50.0649V50.0658Z" fill="white"/>
<path d="M74.5113 44.0001C91.3193 43.9488 105.294 58.0933 104.995 75.5638C104.711 92.1903 91.2723 105.983 74.5113 105.999C57.8706 106.015 44.0188 92.2511 44 75.0192C43.9812 57.8034 57.8367 43.9479 74.5113 44.0001ZM97.5174 86.7425C96.963 87.0886 97.0006 87.6104 97.1377 88.1808C96.9799 88.1304 96.8568 88.0905 96.7111 88.0439C96.526 88.3756 96.3531 88.6846 96.153 89.042C97.1293 89.6152 98.0633 90.1636 99.0321 90.7321C99.2567 90.3338 99.4456 90.0002 99.6467 89.6437C99.1768 89.3614 98.753 89.1275 98.3518 88.8604C97.9149 88.5695 97.8293 88.1979 98.0643 87.7682C98.13 87.6484 98.2118 87.5372 98.2964 87.406C98.0201 87.1713 97.7617 86.9507 97.5033 86.7302C98.4693 87.1798 99.4362 87.6285 100.428 88.0895C100.58 87.7701 100.694 87.4973 100.835 87.2378C100.962 87.004 100.865 86.8956 100.662 86.8053C100.406 86.6912 100.156 86.5629 99.9032 86.4441C99.2605 86.1418 98.6168 85.8424 97.8857 85.5001C97.7485 85.9602 97.633 86.3519 97.5164 86.7435L97.5174 86.7425ZM73.0971 76.8519C73.16 79.4697 73.3827 82.1884 73.8958 84.8804C74.3807 87.427 75.0572 89.9175 75.9415 92.3519C76.0589 92.6751 76.2055 92.8129 76.5495 92.7482C77.2232 92.6209 77.911 92.5562 78.5754 92.3937C83.2409 91.254 86.8765 88.6446 89.4803 84.5581C91.215 81.8357 92.1236 78.8452 92.2477 75.6294C92.3877 72.0001 91.5035 68.6199 89.5818 65.5353C86.8934 61.2197 83.0877 58.4906 78.1911 57.2939C77.7278 57.1808 77.4628 57.2701 77.3087 57.7378C77.2157 58.0201 77.0512 58.2777 76.9253 58.5486C74.2585 64.311 73.1037 70.4003 73.0971 76.8538V76.8519ZM78.6431 99.8043C78.5397 99.6142 78.4673 99.464 78.3799 99.3224C76.7177 96.6085 75.4115 93.7264 74.3891 90.7083C73.2249 87.2701 72.5709 83.715 71.9507 80.1484C71.7862 79.2026 71.5335 78.2701 71.2741 77.3452C71.183 77.0211 70.98 76.6969 70.5581 76.6922C70.1315 76.6874 69.796 76.8671 69.609 77.2625C69.4681 77.56 69.2923 77.8642 69.2491 78.1817C69.0678 79.5239 68.8319 80.869 68.7971 82.2178C68.7163 85.3481 68.9559 88.4688 69.3149 91.579C69.3713 92.0676 69.4042 92.56 69.453 93.1085C67.677 92.5543 66.0749 91.8338 64.5799 90.8699C62.0521 89.2416 60.0112 87.1237 58.55 84.4859C56.3605 80.5315 55.5289 76.2986 56.229 71.7882C56.8943 67.502 58.7454 63.8528 61.914 60.9108C64.0452 58.9317 66.5287 57.5705 69.2867 56.7245C70.0507 56.4897 70.4651 56.1256 70.6765 55.2711C71.1501 53.3595 71.8013 51.4916 72.3857 49.6085C72.4346 49.4526 72.5239 49.3091 72.5417 49.2701C73.1666 49.3034 73.69 49.3718 74.2097 49.35C74.8449 49.3224 75.3382 48.8975 75.3673 48.3129C75.4134 47.388 75.3796 46.4593 75.3796 45.502C75.1794 45.4878 75.0262 45.4792 74.8731 45.464C74.4436 45.4222 74.2548 45.579 74.2905 46.0505C74.3337 46.6171 74.2999 47.1884 74.313 47.7578C74.3215 48.1446 74.1909 48.4346 73.7783 48.4384C73.3752 48.4422 73.2108 48.1693 73.2117 47.7787C73.2145 47.042 73.2117 46.3043 73.2117 45.5144C72.9063 45.5144 72.7362 45.5325 72.5718 45.5106C72.1668 45.4574 72.0071 45.6028 72.0399 46.0325C72.0954 46.7406 72.1161 47.4526 72.1292 48.1627C72.1339 48.4089 72.1161 48.6713 72.0381 48.9003C71.7223 49.8262 71.3662 50.7387 71.0514 51.6646C70.9424 51.9849 70.7827 52.1522 70.4406 52.2131C67.9721 52.6532 65.6417 53.4963 63.4569 54.7416C59.3045 57.1095 56.1481 60.4526 54.0611 64.7796C51.6499 69.7796 51.0824 75.0249 52.3716 80.4336C53.7736 86.3195 57.0192 90.9498 61.976 94.3214C66.2515 97.2292 71.0091 98.3918 76.1322 98.1009C76.8736 98.0591 77.148 98.292 77.2965 99.1275C76.7628 99.0638 76.5476 99.2606 76.6406 99.8424C76.8163 100.948 76.9178 102.065 77.0569 103.177C77.1029 103.545 77.1659 103.91 77.2251 104.301C77.6573 104.239 78.02 104.186 78.426 104.128C78.2634 102.725 78.1074 101.383 77.9505 100.029C78.177 99.9545 78.3781 99.8889 78.6402 99.8024L78.6431 99.8043ZM76.4094 93.772C77.0606 95.0173 77.6724 96.1665 78.2615 97.3271C78.4438 97.6855 78.675 97.7749 79.0574 97.6922C84.2595 96.5667 88.6046 93.9678 91.9789 89.8157C96.3014 84.4983 97.9806 78.3747 97.0137 71.5629C96.1755 65.6532 93.3969 60.7844 88.8423 57.022C84.2426 53.2226 78.9259 51.5201 72.9759 51.8975C72.6094 51.9203 72.4581 52.0667 72.3688 52.4051C72.0089 53.7587 71.5955 55.099 71.2647 56.4593C70.8578 58.1313 70.5167 59.8243 70.5656 61.5572C70.5825 62.1589 70.7047 62.7891 70.9255 63.3462C71.2788 64.2349 72.0738 64.4108 72.8312 63.83C73.114 63.6133 73.4006 63.3557 73.5782 63.0524C74.3111 61.8053 75.0272 60.5448 75.7037 59.2654C76.152 58.4155 76.5156 57.5201 76.931 56.6522C77.0738 56.3528 77.2288 56.0924 77.6695 56.1846C80.1578 56.7026 82.5145 57.5648 84.6081 59.0315C90.5318 63.1808 93.5275 68.8528 93.1714 76.2064C93.0126 79.4963 91.9949 82.5258 90.1973 85.2654C87.4018 89.5268 83.5397 92.2568 78.5876 93.368C77.9223 93.5173 77.2476 93.618 76.4094 93.7711V93.772ZM68.3677 91.5857C67.7964 85.9041 67.5925 80.2321 67.8997 74.5401C68.207 68.8604 69.001 63.2482 70.0976 57.6399C65.1315 58.4944 57.3951 63.8005 56.9074 74.1218C56.4817 83.1275 62.4017 89.849 68.3686 91.5857H68.3677ZM57.8057 94.8481C57.7061 94.9117 57.6714 94.9232 57.6544 94.946C57.2307 95.5524 56.8069 96.1589 56.3859 96.7663C55.9831 97.3481 56.0855 97.8265 56.6932 98.2017C56.7298 98.2245 56.7806 98.2216 56.8444 98.2349C57.2015 97.7397 57.552 97.2378 57.9204 96.7492C58.1093 96.4992 58.3498 96.2853 58.6702 96.5401C58.9841 96.7891 58.7858 97.0515 58.6289 97.2872C58.2906 97.7958 57.9411 98.2967 57.5746 98.8329C57.9157 99.0733 58.2173 99.2872 58.5547 99.5249C58.7407 99.2654 58.9023 99.0372 59.0668 98.811C59.2989 98.4935 59.5235 98.1703 59.7706 97.8652C59.9548 97.637 60.1878 97.6019 60.4321 97.7891C60.6661 97.9688 60.5909 98.1712 60.466 98.3709C60.357 98.5448 60.2433 98.714 60.1277 98.8832C59.8655 99.2682 59.6005 99.6522 59.3177 100.065C59.6757 100.32 59.9764 100.535 60.3438 100.797C60.839 100.038 61.337 99.3338 61.7683 98.5905C62.0108 98.1722 61.9027 97.6713 61.5005 97.407C61.1331 97.1665 60.6802 97.0591 60.1859 96.8614C60.06 96.1152 59.4793 95.7796 58.6759 95.8005C58.642 95.1941 58.067 95.1817 57.8057 94.8462V94.8481ZM93.8085 96.9574C94.0284 96.7587 94.2172 96.5743 94.4193 96.4089C94.6523 96.2178 94.6608 96.0524 94.4428 95.83C94.0913 95.4716 93.7559 95.0952 93.4335 94.7093C93.2353 94.4726 93.0746 94.2055 93.3894 93.9251C93.7145 93.6351 93.9034 93.9222 94.0904 94.1133C94.5161 94.5486 94.9229 95.003 95.3796 95.4935C95.6878 95.196 95.9622 94.9308 96.2864 94.619C95.67 93.9754 95.1005 93.3509 94.4954 92.7625C94.2201 92.4954 93.8526 92.4441 93.4909 92.619C92.9318 92.8899 92.6395 93.3385 92.6724 93.9735C91.6801 93.9925 91.2573 94.3775 91.1586 95.329C90.7968 95.1446 90.4736 95.3386 90.0329 96.0287C90.7649 96.8214 91.5034 97.6218 92.2627 98.446C92.585 98.1342 92.8491 97.8794 93.13 97.6076C92.7025 97.1285 92.3078 96.7026 91.9338 96.2587C91.7158 96.0001 91.5016 95.6903 91.8558 95.3956C92.1866 95.1199 92.3961 95.4317 92.5954 95.6418C92.9947 96.0619 93.3819 96.4935 93.8075 96.9564L93.8085 96.9574ZM45.4828 76.1751C45.5383 76.6228 45.5618 76.9973 45.6445 77.3576C45.6698 77.4669 45.8643 77.6152 45.9762 77.6104C46.4949 77.5886 46.5813 77.9175 46.617 78.3224C46.6358 78.542 46.6715 78.7597 46.7091 78.9773C46.7645 79.2958 46.6922 79.5125 46.3501 79.6275C46.2064 79.676 46.0043 79.8623 46.0062 79.9821C46.0128 80.3538 46.1049 80.7235 46.1716 81.1418C46.3605 81.06 46.5043 81.0068 46.6405 80.9365C47.6272 80.4279 48.6138 79.9213 49.5958 79.4051C50.6877 78.8309 50.6858 78.8271 50.5016 77.6C50.4969 77.5686 50.4885 77.5382 50.4857 77.5068C50.4584 77.2568 50.3363 77.1389 50.076 77.0886C48.5781 76.8024 47.084 76.4954 45.4828 76.1741V76.1751ZM91.9329 98.6693C91.9103 98.5828 91.9132 98.541 91.8934 98.5249C90.6869 97.5268 89.5142 96.4792 88.2512 95.5591C87.7748 95.2121 87.4196 95.9289 86.9893 96.1142C86.8662 96.1674 86.806 96.4136 86.76 96.5828C86.7337 96.6779 86.7919 96.7967 86.8164 96.9041C86.9949 97.7017 87.1725 98.5001 87.3548 99.2967C87.5004 99.9346 87.6527 100.571 87.8209 101.289C88.1996 101.049 88.5219 100.865 88.816 100.643C88.8921 100.585 88.9381 100.38 88.8977 100.288C88.6807 99.7939 88.9053 99.5315 89.3215 99.3309C89.5029 99.2435 89.6824 99.1361 89.8355 99.0049C90.1099 98.7692 90.3157 98.8281 90.5544 99.0695C90.6634 99.1798 90.9049 99.2939 91.012 99.2435C91.3428 99.0905 91.6388 98.8595 91.9329 98.6684V98.6693ZM69.937 100.93C69.2679 100.25 68.5321 100.124 67.9185 100.544C67.2016 101.035 66.8821 102.226 67.2401 103.052C67.5229 103.705 68.2916 104.164 69.298 103.738C69.3581 104.16 69.7321 104.046 69.9811 104.15C70.3015 104.284 70.4538 104.209 70.5224 103.839C70.6436 103.174 70.8221 102.52 70.9715 101.86C71.1651 101.007 71.354 100.153 71.5551 99.253C71.1407 99.1617 70.7836 99.0838 70.3965 98.9982C70.2395 99.6579 70.0958 100.265 69.9379 100.93H69.937ZM80.8344 100.454C80.5271 100.42 80.249 100.344 79.9793 100.368C79.173 100.439 78.6431 101.068 78.6327 101.911C78.6214 102.907 79.2012 103.823 79.9342 103.935C80.4209 104.008 80.8673 103.9 81.2272 103.533C81.3005 103.458 81.3709 103.381 81.4076 103.343C81.8671 103.69 82.2383 103.352 82.6865 103.333C82.4497 102.201 82.227 101.131 81.9958 100.023C81.556 100.181 81.0824 100.023 80.8334 100.454H80.8344ZM64.3619 99.1579C64.1185 98.5819 63.6618 98.3243 63.0745 98.2939C62.3773 98.2587 61.9356 98.6665 61.6349 99.2416C61.2929 99.8975 61.1294 100.597 61.5964 101.25C62.0023 101.819 62.5971 101.962 63.2624 101.743C63.2925 102.117 63.5566 102.3 64.2933 102.457C64.7264 101.467 65.1634 100.467 65.6332 99.3927C65.1643 99.3433 64.8834 98.8443 64.3619 99.157V99.1579ZM99.9248 80.3309C99.4061 80.7264 99.1797 81.254 99.3234 81.8994C99.532 82.8367 100.723 83.4403 101.764 83.1589C102.655 82.9184 102.992 82.1228 102.664 81.0372C103.137 80.8519 103.035 80.3785 103.123 80.0163C103.136 79.9621 102.781 79.7825 102.58 79.7178C102.196 79.5952 101.799 79.5106 101.406 79.4146C100.942 79.3015 100.477 79.1941 99.9493 79.0695C99.9502 79.5315 99.5057 79.8937 99.9248 80.33V80.3309ZM52.9232 89.042C51.9797 89.8205 51.1434 90.5106 50.2836 91.2197C50.5693 91.5714 50.8023 91.8595 51.056 92.1713C51.5381 91.7891 51.9657 91.4241 52.4205 91.0971C52.8151 90.8129 53.1844 90.8433 53.3742 91.1399C53.6308 91.541 53.316 91.7482 53.0707 91.9593C52.646 92.3243 52.21 92.6751 51.7486 93.0562C52.0239 93.3946 52.2663 93.6931 52.5473 94.0382C53.1553 93.5277 53.751 93.0705 54.297 92.5591C55.0262 91.8766 54.7969 90.8072 53.8629 90.4241C53.6965 90.3557 53.5142 90.3252 53.3479 90.2796C53.7849 89.6589 53.0294 89.5429 52.9232 89.042ZM55.3062 96.4498C56.3117 96.4498 57.0709 95.7017 57.0709 94.7102C57.0709 93.677 56.2158 92.7958 55.2075 92.7882C54.1946 92.7815 53.4165 93.56 53.425 94.5724C53.4334 95.6256 54.2594 96.4488 55.3062 96.4488V96.4498ZM52.3913 88.2844C52.3932 87.2454 51.5325 86.3443 50.5411 86.3471C49.562 86.35 48.7689 87.1779 48.7802 88.1827C48.7924 89.2188 49.6559 90.0876 50.6689 90.0838C51.6443 90.08 52.3885 89.3024 52.3913 88.2844ZM72.2965 102.921C72.9702 102.972 73.6083 103.006 74.2425 103.071C74.5771 103.106 74.6889 102.988 74.6795 102.655C74.6513 101.694 74.1138 101.053 73.1732 100.891C72.335 100.746 71.5015 101.209 71.198 101.99C70.8776 102.813 71.1115 103.686 71.7768 104.148C72.491 104.644 73.6543 104.635 74.1918 104.122C74.2895 104.029 74.36 103.907 74.4615 103.775C74.0349 103.544 73.7361 103.194 73.1911 103.565C72.7513 103.864 72.2955 103.506 72.2965 102.921ZM96.2244 92.3395C96.7403 91.6827 97.2298 91.0591 97.7156 90.4412C96.901 89.6732 95.9209 89.6294 95.234 90.2872C94.4897 91.0011 94.3723 92.0752 94.9586 92.8091C95.6004 93.6123 96.5937 93.7758 97.3698 93.2036C98.0333 92.714 98.6356 91.6389 98.1141 91.0059C97.7232 91.2093 97.2693 91.2825 97.2721 91.9384C97.2749 92.4251 96.7628 92.6057 96.2244 92.3395ZM49.4445 80.4241C48.814 80.6066 48.2445 80.7616 47.6817 80.9365C46.7617 81.2226 46.4798 81.638 46.523 82.6076C46.5832 83.9564 47.4496 84.6142 48.7219 84.2739C49.0226 84.1931 49.3195 84.0971 49.6174 84.0078C50.4293 83.7654 50.4171 83.7682 50.1596 82.9251C50.0807 82.6684 49.9858 82.5933 49.7292 82.6789C49.3308 82.8119 48.923 82.9175 48.518 83.0306C47.8762 83.2102 47.6309 83.1456 47.5313 82.7768C47.4327 82.4117 47.6197 82.2169 48.2436 82.0325C48.7444 81.8842 49.2453 81.7368 49.7706 81.5809C49.654 81.1694 49.5573 80.8262 49.4426 80.4241H49.4445ZM55.4255 54.6846C54.8025 54.7682 54.4802 55.1076 54.3496 55.6218C54.1955 56.2264 54.7612 57.0867 55.4349 57.3186C56.0636 57.5353 56.6612 57.2387 56.8999 56.6C56.9337 56.5087 56.9835 56.4079 57.0559 56.3509C57.2908 56.1693 57.5389 56.0059 57.8405 55.7948C56.8745 54.7815 55.9743 53.8366 55.0487 52.8661C54.8007 53.1313 54.6033 53.3414 54.3947 53.5629C54.7471 53.9469 55.0638 54.291 55.4255 54.6846ZM82.9562 101.966C82.9768 102.147 83.0116 102.271 83.0022 102.392C82.959 102.931 83.27 103.051 83.6994 102.973C84.08 102.903 84.469 102.822 84.8214 102.668C85.4651 102.387 85.7536 101.791 85.5882 101.218C85.4275 100.661 84.9295 100.411 84.1815 100.513C84.0734 100.527 83.9635 100.567 83.8583 100.556C83.7521 100.545 83.6506 100.486 83.5463 100.448C83.5435 100.382 83.5416 100.317 83.5388 100.252C83.925 100.176 84.3112 100.099 84.7547 100.012C84.7547 99.8699 84.7848 99.6475 84.7425 99.4403C84.7209 99.3376 84.5639 99.1827 84.4747 99.1874C83.831 99.2207 83.1892 99.3034 82.709 99.8081C82.4196 100.113 82.3115 100.474 82.4703 100.896C82.6235 101.301 82.9242 101.487 83.3311 101.508C83.5632 101.519 83.8 101.466 84.0302 101.486C84.1721 101.498 84.3065 101.594 84.4446 101.652C84.3234 101.757 84.2116 101.936 84.0791 101.953C83.7305 101.995 83.3734 101.967 82.9562 101.967V101.966ZM101.177 76.5876C100.988 76.5021 100.797 76.3937 100.592 76.3348C100.505 76.31 100.328 76.3585 100.294 76.426C99.984 77.0458 99.7952 77.6941 100.041 78.3851C100.179 78.772 100.474 79.004 100.881 79.0515C101.301 79.1009 101.612 78.9013 101.81 78.542C101.931 78.3233 101.993 78.0714 102.113 77.8528C102.178 77.7349 102.312 77.656 102.415 77.56C102.459 77.6979 102.571 77.8557 102.536 77.9688C102.424 78.3348 102.259 78.6846 102.103 79.0695C102.198 79.1152 102.305 79.1741 102.418 79.2178C102.955 79.4289 103.045 79.4089 103.247 78.8557C103.38 78.4897 103.473 78.0971 103.506 77.7093C103.56 77.0524 103.151 76.4735 102.623 76.3671C102.015 76.2435 101.659 76.4802 101.353 77.2102C101.26 77.4327 101.16 77.6522 101.02 77.9669C100.617 77.3747 101.063 77.0268 101.176 76.5895L101.177 76.5876ZM48.8112 63.4507C48.9653 63.0667 49.109 62.7093 49.2697 62.311C48.9775 62.1865 48.7294 62.0809 48.4513 61.9631C48.1271 62.7055 47.8273 63.3899 47.5106 64.1161C48.6711 64.6399 49.7734 65.137 50.9217 65.6551C51.0767 65.2996 51.2102 64.9935 51.3511 64.6684C50.9104 64.4574 50.5204 64.2701 50.0957 64.0667C50.2413 63.6941 50.3757 63.35 50.527 62.964C50.2498 62.8481 50.0027 62.7444 49.733 62.6323C49.6052 62.9136 49.4877 63.1361 49.4013 63.3699C49.2697 63.7283 49.079 63.6912 48.8112 63.4536V63.4507ZM100.552 64.5809C100.265 63.984 100.01 63.4203 99.8271 62.8233C99.6918 62.3813 99.144 62.1798 98.6957 62.2482C98.0023 62.3538 97.4112 62.8129 97.289 63.3414C97.1659 63.8766 97.367 64.2948 97.8115 64.7169C97.913 65.0163 98.0145 65.3148 98.1357 65.6722C98.9682 65.2958 99.7294 64.9517 100.551 64.5809H100.552ZM101.05 83.5258C101.193 84.0876 101.122 84.4811 100.67 84.6665C100.288 84.8233 99.9455 84.6513 99.7256 84.3386C99.362 83.8233 99.7745 83.5087 100.135 83.1617C99.8731 83.0458 99.6561 82.9136 99.4221 82.8604C99.2877 82.83 99.0791 82.8823 98.9823 82.9783C98.4505 83.5059 98.3734 84.4155 98.7747 85.0752C99.1862 85.7511 100.142 86.1209 100.898 85.8956C101.566 85.696 102.094 84.9716 102.064 84.2416C102.058 84.1066 101.938 83.9308 101.82 83.8557C101.617 83.7254 101.374 83.6589 101.051 83.5249L101.05 83.5258ZM96.636 57.6323C96.2328 57.1408 95.7527 56.7806 95.5375 56.2036C95.4802 56.0505 95.2321 55.9412 95.0498 55.869C94.5395 55.6684 93.8479 55.9669 93.4335 56.5391C92.9289 57.2359 93.1338 58.0201 93.9081 58.3766C93.987 58.4127 94.0594 58.4878 94.1082 58.5629C94.2717 58.81 94.423 59.0648 94.6025 59.3547C95.312 58.753 95.9444 58.2178 96.635 57.6323H96.636ZM49.7273 84.6713C48.9765 84.9906 48.268 85.292 47.5454 85.6C47.7117 86.0144 47.8489 86.3566 48.0012 86.7359C48.7698 86.4251 49.4877 86.1351 50.2038 85.8452C50.2977 85.9963 50.3701 86.1123 50.4594 86.2559C50.7178 86.1484 50.9574 86.0486 51.212 85.9422C51.181 85.7625 51.1557 85.6161 51.1303 85.4707C51.4094 85.3433 51.6612 85.2273 51.9619 85.0905C51.8068 84.7026 51.664 84.3462 51.5165 83.9773C51.1961 84.0876 50.9217 84.1817 50.6529 84.2749C50.3212 83.6019 49.9867 84.156 49.6334 84.1922C49.6663 84.3614 49.6926 84.4954 49.7264 84.6713H49.7273ZM60.3823 53.6342C59.7903 52.8899 59.266 52.2302 58.6778 51.4906C58.4428 51.7711 58.2822 52.0334 58.0557 52.2112C57.8227 52.3946 57.5248 52.4944 57.2579 52.6351C57.2184 52.656 57.1912 52.7007 57.1602 52.7368C56.6969 53.2882 56.8191 54.0477 57.4684 54.6655C58.2352 55.3946 59.1983 55.1 59.4098 54.2559C59.7932 54.0097 60.0534 53.8433 60.3804 53.6342H60.3823ZM70.0027 49.638C69.8684 49.0439 69.7603 48.4735 69.6081 47.9165C69.4399 47.2986 69.0461 47.0638 68.4344 47.2368C68.1647 47.3138 67.9289 47.5135 67.678 47.657C67.6827 47.6304 67.6883 47.6038 67.693 47.5771C67.3688 47.6142 67.0456 47.6513 66.6847 47.6931C66.8999 48.6171 67.0916 49.4384 67.2908 50.292C67.6385 50.2045 67.9157 50.1351 68.2004 50.0638C68.114 49.5429 68.0285 49.0809 67.9636 48.6161C67.9279 48.3604 67.9965 48.0809 68.2869 48.1038C68.4447 48.1161 68.6477 48.3471 68.7173 48.5249C68.8432 48.8424 68.892 49.1931 68.9569 49.5325C69.0048 49.7853 69.1288 49.8918 69.3807 49.8195C69.5714 49.7654 69.7622 49.7083 70.0037 49.638H70.0027ZM77.2824 46.9193C77.1057 46.5981 76.7477 46.6789 76.3841 46.6846C76.2657 47.5562 76.1538 48.3794 76.0411 49.2159C76.1773 49.2578 76.2629 49.2891 76.3512 49.31C76.9554 49.4517 76.9996 49.4155 77.0794 48.7834C77.1133 48.5182 77.1574 48.2539 77.2194 47.9935C77.2815 47.7311 77.4102 47.4963 77.7287 47.5629C78.0623 47.6323 78.0323 47.9003 77.9984 48.1646C77.9421 48.6085 77.8979 49.0553 77.8481 49.502C78.1234 49.5543 78.3217 49.619 78.52 49.619C78.6261 49.619 78.8141 49.5182 78.8253 49.4422C78.9156 48.8357 79.0001 48.2254 79.0302 47.6142C79.0509 47.1969 78.7661 46.9184 78.3828 46.8623C78.0482 46.8138 77.6949 46.8918 77.2815 46.9184L77.2824 46.9193ZM51.6415 58.7007C52.365 59.273 53.0237 59.7939 53.7163 60.3414C53.9296 60.0553 54.1109 59.8129 54.3007 59.5572C53.9305 59.2511 53.5988 58.9906 53.2831 58.7112C53.0585 58.5116 52.8875 58.2578 53.1374 57.9783C53.3705 57.7178 53.5904 57.9241 53.7877 58.0771C54.1297 58.3414 54.4671 58.6123 54.827 58.8965C55.0478 58.6076 55.2273 58.3747 55.45 58.0838C54.9012 57.6703 54.3919 57.2587 53.8535 56.8918C53.533 56.6732 53.1478 56.7302 52.9119 57.0116C52.6676 57.3034 52.5295 57.6865 52.3293 58.0572C51.9553 57.9574 51.9525 58.4669 51.6424 58.6998L51.6415 58.7007ZM65.1033 48.3576C64.266 48.3547 63.6092 48.9773 63.6035 49.7796C63.5979 50.5733 64.1974 51.1846 64.9914 51.1969C65.8146 51.2093 66.4677 50.5771 66.4742 49.7606C66.4818 48.9384 65.917 48.3604 65.1033 48.3585V48.3576ZM84.8036 50.3205C85.3899 50.5886 85.9349 50.8376 86.4752 51.0838C86.9188 50.2654 86.775 49.5467 86.1248 49.1313C85.4491 48.7007 84.6335 48.8129 84.1918 49.3975C83.7173 50.0268 83.7756 50.8015 84.3365 51.3157C84.9126 51.8443 85.6944 51.9251 86.1398 51.4868C85.9349 51.2007 85.7789 50.9089 85.3082 51.003C84.9304 51.079 84.765 50.8243 84.8036 50.3205ZM49.8326 61.8509C49.9331 61.9298 49.9773 61.9745 50.0299 62.004C50.4124 62.2188 50.7901 62.4431 51.181 62.6399C51.8501 62.9764 52.4223 62.7654 52.8151 62.0562C53.237 61.2958 53.1393 60.6998 52.5097 60.2777C52.2889 60.1294 52.0521 60.0068 51.82 59.8756C51.3157 59.5898 50.9474 59.7185 50.7149 60.2616C50.7046 60.2853 50.7206 60.3195 50.729 60.3937C51.0448 60.5714 51.3878 60.7568 51.7223 60.9564C51.9722 61.1057 52.3246 61.2406 52.1282 61.6266C51.9224 62.0315 51.6255 61.7853 51.3699 61.6494C51.0147 61.4602 50.6651 61.2597 50.278 61.0448C50.1173 61.3338 49.9829 61.5762 49.8307 61.8519L49.8326 61.8509ZM88.9428 52.6332C88.2531 53.042 88.2174 53.2026 88.7333 53.7416C88.9353 53.9526 89.1796 54.1427 89.439 54.2739C89.8214 54.4688 90.2011 54.4155 90.4989 54.0686C90.7949 53.7245 90.7179 53.3718 90.5018 53.023C90.3843 52.8328 90.2631 52.6456 90.1437 52.4574C90.1888 52.4213 90.234 52.3851 90.28 52.3481C90.4886 52.5695 90.6972 52.792 90.9396 53.0505C91.0909 52.9317 91.2676 52.7939 91.5269 52.5914C91.1783 52.2597 90.903 51.9365 90.5694 51.6979C90.2105 51.4403 89.8036 51.4251 89.4615 51.773C89.1618 52.0771 89.174 52.4298 89.4775 52.8908C89.5903 53.0629 89.6983 53.2387 89.8553 53.4859C89.237 53.446 89.1684 52.9802 88.9438 52.6342L88.9428 52.6332ZM81.26 47.5078C81.3625 48.3785 81.4395 49.2083 81.5748 50.0296C81.6002 50.1846 81.8351 50.3633 82.008 50.4174C82.1565 50.464 82.414 50.4051 82.5211 50.2939C83.0295 49.7587 83.5049 49.1922 83.987 48.6313C84.0499 48.5572 84.0781 48.4526 84.1232 48.3604C83.5557 48.1076 83.0993 48.2064 82.7541 48.657C82.6367 48.81 82.5155 48.9612 82.3529 49.1684C82.2953 48.1069 81.931 47.5537 81.26 47.5087V47.5078ZM61.5654 50.6912C61.3953 50.2131 61.2948 50.0924 60.9734 50.1798C60.4453 50.3233 60.0534 50.6332 59.9313 51.2102C59.7941 51.8566 60.0572 52.3509 60.5261 52.7473C60.8973 53.0619 61.5062 53.0762 61.9356 52.8205C62.5314 52.4659 62.553 52.119 62.1142 51.7368C61.7759 51.8481 61.4855 52.0401 61.2459 51.9897C61.0767 51.9545 60.8183 51.5211 60.8766 51.387C60.9912 51.1228 61.2966 50.9441 61.5654 50.6903V50.6912ZM93.4899 54.0752C92.9881 53.8899 92.7983 54.0695 92.8444 54.6399C92.8509 54.7254 92.7636 54.8328 92.6959 54.9079C92.3529 55.2872 92.0024 55.6598 91.6266 56.0657C91.8746 56.2977 92.0861 56.4963 92.3285 56.7235C92.694 56.349 93.0285 56.0011 93.3696 55.6608C93.4542 55.5762 93.5613 55.4593 93.6619 55.4564C94.2633 55.4374 94.3817 55.3043 94.2248 54.7625C94.3563 54.6123 94.4879 54.4631 94.6147 54.3186C94.0603 53.5429 94.018 53.5334 93.4909 54.0752H93.4899ZM86.3907 52.253C86.6998 52.4279 86.9611 52.5762 87.2383 52.7321C87.4046 52.4574 87.5361 52.2444 87.663 52.0287C88.0896 51.3024 88.2014 51.2682 88.9917 51.6579C89.1467 51.4412 89.3046 51.2178 89.5424 50.8851C89.1261 50.7796 88.8009 50.6979 88.4551 50.6104C88.4598 50.1779 88.0069 50.1798 87.6762 49.9764C87.243 50.7435 86.8276 51.4783 86.3907 52.252V52.253ZM97.5785 60.4479C97.834 60.3034 98.0615 60.1751 98.4204 59.9716C98.0746 59.696 97.803 59.4783 97.523 59.2549C97.6884 58.9973 97.6583 58.9079 97.1058 58.3585C96.4217 58.8281 95.7292 59.3043 94.999 59.8062C95.1964 60.1009 95.3665 60.3538 95.5535 60.6332C95.8184 60.4555 96.0393 60.3091 96.2582 60.1608C96.9103 59.7207 97.1049 59.7568 97.5785 60.4488V60.4479ZM63.8272 51.6912C63.41 50.8956 63.0134 50.1399 62.6018 49.3538C62.2805 49.5344 62.0268 49.677 61.7308 49.8433C62.148 50.637 62.5455 51.3927 62.958 52.1779C63.2775 51.9992 63.5312 51.8566 63.8262 51.6922L63.8272 51.6912ZM79.3544 49.6969C79.6861 49.7863 79.9774 49.8642 80.3213 49.9564C80.5356 49.0762 80.7366 48.2454 80.9471 47.3794C80.5995 47.2967 80.3176 47.2302 79.984 47.1503C79.7716 48.0087 79.5696 48.8262 79.3544 49.6969ZM96.7017 62.6399C97.4995 62.2064 98.2334 61.8072 98.9992 61.3899C98.8216 61.061 98.6769 60.7939 98.5191 60.503C97.7307 60.9327 96.9959 61.3328 96.2319 61.7482C96.3963 62.061 96.5335 62.3205 96.7017 62.6399ZM91.105 55.5686C91.7083 54.8861 92.2721 54.2482 92.8566 53.5857C92.5841 53.3414 92.3576 53.1389 92.1077 52.9155C91.5157 53.5866 90.9613 54.2159 90.3777 54.8775C90.623 55.1104 90.8344 55.311 91.105 55.5686ZM96.8305 85.0021C96.4452 84.9954 96.1671 85.2777 96.1624 85.6827C96.1567 86.0762 96.4433 86.3804 96.8183 86.3794C97.1894 86.3785 97.507 86.0638 97.5089 85.6969C97.5108 85.33 97.1979 85.0097 96.8305 85.003V85.0021ZM94.4475 90.7967C94.8421 90.4802 94.859 89.6437 94.485 88.9545C93.7934 89.5249 93.7869 89.8462 94.4475 90.7967ZM53.7679 87.387C53.5095 86.5467 53.067 86.3671 52.1122 86.715C52.272 87.2036 52.9579 87.4821 53.7679 87.387ZM61.6687 49.4992C62.147 49.465 62.335 49.31 62.3444 48.9612C62.3538 48.6133 62.164 48.4374 61.8529 48.3946C61.572 48.3557 61.2233 48.6741 61.2976 48.945C61.3596 49.1722 61.5691 49.3576 61.6678 49.4992H61.6687ZM99.5602 61.1541C99.6617 61.0173 99.907 60.83 99.9352 60.6142C99.9774 60.292 99.7425 60.0439 99.3949 60.0562C99.0819 60.0667 98.8827 60.2635 98.8865 60.6047C98.8912 60.9441 99.0801 61.1123 99.5602 61.1551V61.1541ZM80.5186 47.1617C80.5929 47.1636 80.6671 47.1655 80.7413 47.1665C80.8908 46.9669 81.1022 46.7872 81.1745 46.5619C81.2629 46.2853 80.9462 45.9773 80.6436 45.9982C80.3241 46.0211 80.0817 46.2093 80.1362 46.5334C80.1738 46.7578 80.3852 46.9526 80.5186 47.1608V47.1617ZM93.5773 52.8386C93.5792 52.7625 93.5811 52.6855 93.583 52.6095C93.3884 52.4602 93.2108 52.2264 92.9957 52.1817C92.6461 52.1095 92.445 52.3775 92.4441 52.714C92.4431 53.0306 92.6433 53.2863 92.9656 53.2311C93.1845 53.1941 93.3743 52.9764 93.5773 52.8386ZM64.7716 47.1608C64.0405 47.3718 63.9305 47.5743 64.0546 48.4117C64.4803 48.3443 64.703 47.965 64.7716 47.1608Z" fill="white"/>
</svg>
