<svg width="150" height="150" viewBox="0 0 150 150" fill="none" xmlns="http://www.w3.org/2000/svg">
<rect width="150" height="150" rx="22.1192" fill="#1E266A"/>
<path d="M29.8409 121.415H24.4385L23.5445 124H20.6879L25.5656 110.416H28.7332L33.611 124H30.7349L29.8409 121.415ZM29.1025 119.239L27.1397 113.564L25.1769 119.239H29.1025ZM45.5978 113.234V124H42.8577V122.64C42.5079 123.106 42.048 123.475 41.478 123.747C40.9209 124.006 40.312 124.136 39.6512 124.136C38.8091 124.136 38.0642 123.961 37.4164 123.611C36.7686 123.249 36.2569 122.724 35.8812 122.037C35.5184 121.338 35.3371 120.508 35.3371 119.55V113.234H38.0577V119.161C38.0577 120.016 38.2715 120.677 38.699 121.143C39.1265 121.597 39.7095 121.823 40.448 121.823C41.1994 121.823 41.7889 121.597 42.2164 121.143C42.644 120.677 42.8577 120.016 42.8577 119.161V113.234H45.5978ZM51.4498 115.469V120.677C51.4498 121.04 51.534 121.305 51.7025 121.474C51.8838 121.629 52.1818 121.707 52.5964 121.707H53.8596V124H52.1494C49.8563 124 48.7097 122.886 48.7097 120.657V115.469H47.4271V113.234H48.7097V110.572H51.4498V113.234H53.8596V115.469H51.4498ZM60.597 124.175C59.5605 124.175 58.6277 123.948 57.7986 123.495C56.9694 123.028 56.3152 122.374 55.8358 121.532C55.3694 120.69 55.1362 119.718 55.1362 118.617C55.1362 117.516 55.3759 116.544 55.8553 115.702C56.3476 114.86 57.0148 114.212 57.8569 113.759C58.699 113.292 59.6383 113.059 60.6747 113.059C61.7112 113.059 62.6504 113.292 63.4925 113.759C64.3346 114.212 64.9954 114.86 65.4747 115.702C65.967 116.544 66.2132 117.516 66.2132 118.617C66.2132 119.718 65.9606 120.69 65.4553 121.532C64.963 122.374 64.2893 123.028 63.4342 123.495C62.5921 123.948 61.6464 124.175 60.597 124.175ZM60.597 121.804C61.0893 121.804 61.5492 121.687 61.9767 121.454C62.4172 121.208 62.767 120.845 63.0261 120.366C63.2852 119.887 63.4148 119.304 63.4148 118.617C63.4148 117.593 63.1427 116.81 62.5986 116.266C62.0674 115.708 61.4132 115.43 60.6358 115.43C59.8585 115.43 59.2043 115.708 58.6731 116.266C58.1549 116.81 57.8958 117.593 57.8958 118.617C57.8958 119.64 58.1484 120.431 58.6536 120.988C59.1719 121.532 59.8196 121.804 60.597 121.804ZM81.579 113.078C82.9005 113.078 83.9628 113.487 84.7661 114.303C85.5823 115.106 85.9904 116.233 85.9904 117.684V124H83.2697V118.053C83.2697 117.211 83.0559 116.57 82.6284 116.13C82.2009 115.676 81.6179 115.449 80.8794 115.449C80.1409 115.449 79.5515 115.676 79.111 116.13C78.6834 116.57 78.4697 117.211 78.4697 118.053V124H75.749V118.053C75.749 117.211 75.5353 116.57 75.1077 116.13C74.6802 115.676 74.0972 115.449 73.3587 115.449C72.6073 115.449 72.0113 115.676 71.5709 116.13C71.1433 116.57 70.9296 117.211 70.9296 118.053V124H68.2089V113.234H70.9296V114.536C71.2794 114.083 71.7263 113.726 72.2705 113.467C72.8275 113.208 73.4365 113.078 74.0972 113.078C74.9393 113.078 75.6907 113.26 76.3514 113.623C77.0122 113.972 77.5239 114.478 77.8867 115.138C78.2365 114.517 78.7417 114.018 79.4025 113.642C80.0762 113.266 80.8017 113.078 81.579 113.078ZM93.3527 124.175C92.3162 124.175 91.3834 123.948 90.5543 123.495C89.7251 123.028 89.0709 122.374 88.5915 121.532C88.1251 120.69 87.8919 119.718 87.8919 118.617C87.8919 117.516 88.1316 116.544 88.611 115.702C89.1033 114.86 89.7705 114.212 90.6126 113.759C91.4547 113.292 92.394 113.059 93.4304 113.059C94.4669 113.059 95.4061 113.292 96.2482 113.759C97.0904 114.212 97.7511 114.86 98.2304 115.702C98.7227 116.544 98.9689 117.516 98.9689 118.617C98.9689 119.718 98.7163 120.69 98.211 121.532C97.7187 122.374 97.045 123.028 96.1899 123.495C95.3478 123.948 94.4021 124.175 93.3527 124.175ZM93.3527 121.804C93.845 121.804 94.3049 121.687 94.7324 121.454C95.1729 121.208 95.5227 120.845 95.7818 120.366C96.041 119.887 96.1705 119.304 96.1705 118.617C96.1705 117.593 95.8984 116.81 95.3543 116.266C94.8231 115.708 94.1689 115.43 93.3916 115.43C92.6142 115.43 91.96 115.708 91.4288 116.266C90.9106 116.81 90.6515 117.593 90.6515 118.617C90.6515 119.64 90.9041 120.431 91.4094 120.988C91.9276 121.532 92.5754 121.804 93.3527 121.804ZM104.132 115.469V120.677C104.132 121.04 104.216 121.305 104.385 121.474C104.566 121.629 104.864 121.707 105.279 121.707H106.542V124H104.832C102.539 124 101.392 122.886 101.392 120.657V115.469H100.11V113.234H101.392V110.572H104.132V113.234H106.542V115.469H104.132ZM111.219 114.905C111.569 114.335 112.023 113.888 112.58 113.564C113.15 113.24 113.798 113.078 114.523 113.078V115.935H113.804C112.949 115.935 112.301 116.136 111.861 116.538C111.433 116.939 111.219 117.639 111.219 118.636V124H108.499V113.234H111.219V114.905ZM117.735 111.951C117.256 111.951 116.854 111.802 116.531 111.504C116.22 111.193 116.064 110.811 116.064 110.358C116.064 109.904 116.22 109.529 116.531 109.231C116.854 108.92 117.256 108.764 117.735 108.764C118.215 108.764 118.61 108.92 118.921 109.231C119.245 109.529 119.407 109.904 119.407 110.358C119.407 110.811 119.245 111.193 118.921 111.504C118.61 111.802 118.215 111.951 117.735 111.951ZM119.076 113.234V124H116.356V113.234H119.076ZM124.252 121.765H129.052V124H121.162V121.804L125.865 115.469H121.181V113.234H128.993V115.43L124.252 121.765Z" fill="#3ADCC9"/>
<g filter="url(#filter0_d_270_31656)">
<path d="M91.6658 68.4793H58.3325C57.8533 68.4793 57.4158 68.271 57.1242 67.896C56.8325 67.5418 56.7075 67.0418 56.8117 66.5835L59.1658 55.3335C59.9367 51.6877 61.4992 48.3335 67.6867 48.3335H82.3325C88.52 48.3335 90.0825 51.7085 90.8533 55.3335L93.2075 66.6043C93.3117 67.0627 93.1867 67.5418 92.895 67.9168C92.5825 68.271 92.145 68.4793 91.6658 68.4793ZM60.2492 65.3543H89.7283L87.77 55.9793C87.1867 53.2502 86.4992 51.4585 82.3117 51.4585H67.6867C63.4992 51.4585 62.8117 53.2502 62.2283 55.9793L60.2492 65.3543Z" fill="#3ADCC9"/>
<path d="M91.5825 91.396H87.6658C84.2908 91.396 83.645 89.4585 83.2283 88.1877L82.8117 86.9377C82.27 85.3543 82.2075 85.146 80.3325 85.146H69.6658C67.7908 85.146 67.6658 85.5002 67.1867 86.9377L66.77 88.1877C66.3325 89.4793 65.7075 91.396 62.3325 91.396H58.4158C56.77 91.396 55.1867 90.7085 54.0825 89.5002C52.9992 88.3127 52.4783 86.7293 52.6242 85.146L53.7908 72.4585C54.1033 69.021 55.02 65.3543 61.7075 65.3543H88.2908C94.9783 65.3543 95.8742 69.021 96.2075 72.4585L97.3742 85.146C97.52 86.7293 96.9992 88.3127 95.9158 89.5002C94.8117 90.7085 93.2283 91.396 91.5825 91.396ZM69.6658 82.021H80.3325C84.1242 82.021 85.02 83.7085 85.77 85.9168L86.2075 87.2085C86.5617 88.271 86.5617 88.2918 87.6867 88.2918H91.6033C92.3742 88.2918 93.1033 87.9793 93.6242 87.4168C94.1242 86.8752 94.3533 86.1877 94.2908 85.4585L93.1242 72.771C92.8533 69.9585 92.52 68.5002 88.3325 68.5002H61.7075C57.4992 68.5002 57.1658 69.9585 56.9158 72.771L55.7492 85.4585C55.6867 86.1877 55.9158 86.8752 56.4158 87.4168C56.9158 87.9793 57.6658 88.2918 58.4367 88.2918H62.3533C63.4783 88.2918 63.4783 88.271 63.8325 87.2293L64.2492 85.9585C64.77 84.2918 65.5408 82.021 69.6658 82.021Z" fill="#3ADCC9"/>
<path d="M58.3326 62.2293H56.2493C55.3951 62.2293 54.6868 61.521 54.6868 60.6668C54.6868 59.8127 55.3951 59.1043 56.2493 59.1043H58.3326C59.1868 59.1043 59.8951 59.8127 59.8951 60.6668C59.8951 61.521 59.1868 62.2293 58.3326 62.2293Z" fill="#3ADCC9"/>
<path d="M93.7491 62.2293H91.6658C90.8116 62.2293 90.1033 61.521 90.1033 60.6668C90.1033 59.8127 90.8116 59.1043 91.6658 59.1043H93.7491C94.6033 59.1043 95.3116 59.8127 95.3116 60.6668C95.3116 61.521 94.6033 62.2293 93.7491 62.2293Z" fill="#3ADCC9"/>
<path d="M74.9993 55.9793C74.1451 55.9793 73.4368 55.271 73.4368 54.4168V50.2502C73.4368 49.396 74.1451 48.6877 74.9993 48.6877C75.8534 48.6877 76.5618 49.396 76.5618 50.2502V54.4168C76.5618 55.271 75.8534 55.9793 74.9993 55.9793Z" fill="#3ADCC9"/>
<path d="M78.1243 55.9793H71.8743C71.0201 55.9793 70.3118 55.271 70.3118 54.4168C70.3118 53.5627 71.0201 52.8543 71.8743 52.8543H78.1243C78.9784 52.8543 79.6868 53.5627 79.6868 54.4168C79.6868 55.271 78.9784 55.9793 78.1243 55.9793Z" fill="#3ADCC9"/>
<path d="M68.7493 76.8127H62.4993C61.6451 76.8127 60.9368 76.1043 60.9368 75.2502C60.9368 74.396 61.6451 73.6877 62.4993 73.6877H68.7493C69.6034 73.6877 70.3118 74.396 70.3118 75.2502C70.3118 76.1043 69.6034 76.8127 68.7493 76.8127Z" fill="#3ADCC9"/>
<path d="M87.4993 76.8127H81.2493C80.3951 76.8127 79.6868 76.1043 79.6868 75.2502C79.6868 74.396 80.3951 73.6877 81.2493 73.6877H87.4993C88.3534 73.6877 89.0618 74.396 89.0618 75.2502C89.0618 76.1043 88.3534 76.8127 87.4993 76.8127Z" fill="#3ADCC9"/>
</g>
<defs>
<filter id="filter0_d_270_31656" x="48.6001" y="48.3335" width="52.7981" height="51.0625" filterUnits="userSpaceOnUse" color-interpolation-filters="sRGB">
<feFlood flood-opacity="0" result="BackgroundImageFix"/>
<feColorMatrix in="SourceAlpha" type="matrix" values="0 0 0 0 0 0 0 0 0 0 0 0 0 0 0 0 0 0 127 0" result="hardAlpha"/>
<feOffset dy="4"/>
<feGaussianBlur stdDeviation="2"/>
<feComposite in2="hardAlpha" operator="out"/>
<feColorMatrix type="matrix" values="0 0 0 0 0 0 0 0 0 0 0 0 0 0 0 0 0 0 0.25 0"/>
<feBlend mode="normal" in2="BackgroundImageFix" result="effect1_dropShadow_270_31656"/>
<feBlend mode="normal" in="SourceGraphic" in2="effect1_dropShadow_270_31656" result="shape"/>
</filter>
</defs>
</svg>
