<svg width="65" height="74" viewBox="0 0 65 74" fill="none" xmlns="http://www.w3.org/2000/svg">
<path fill-rule="evenodd" clip-rule="evenodd" d="M4.13409 72.4321C5.32991 73.1154 6.66238 73.457 8.09736 73.457C9.87399 73.457 11.7531 72.9104 13.5981 71.8854L30.2711 62.6264C31.262 62.0797 33.2094 62.0797 34.2002 62.6264L50.8733 71.8854C54.2557 73.7645 57.7065 73.9354 60.3373 72.3979C62.9681 70.8604 64.4714 67.7513 64.4714 63.8905V15.7506C64.4714 7.07238 57.399 0 48.7208 0H15.7506C7.07238 0 0 7.07238 0 15.7506V63.9247C0 67.7855 1.50331 70.8946 4.13409 72.4321ZM5.15908 15.7506C5.15908 9.90816 9.94232 5.12491 15.7847 5.12491H48.7208C54.5632 5.12491 59.3465 9.90816 59.3465 15.7506V63.8905C59.3465 65.8722 58.7656 67.3755 57.7406 67.9905C56.7157 68.6055 55.1099 68.4005 53.3674 67.4096L36.6944 58.1506C34.1661 56.7498 30.3395 56.7498 27.8112 58.1506L11.1381 67.4096C9.39567 68.4005 7.78986 68.5713 6.76488 67.9905C5.7399 67.4096 5.15908 65.9063 5.15908 63.8905V15.7506ZM27.3328 40.2476C27.8453 40.7601 28.4945 40.9993 29.1436 40.9993C29.7928 40.9993 30.4419 40.7601 30.9544 40.2476L44.6209 26.5812C45.6117 25.5904 45.6117 23.9504 44.6209 22.9596C43.63 21.9688 41.9901 21.9688 40.9993 22.9596L29.1436 34.8152L25.8295 31.5011C24.8387 30.5103 23.1987 30.5103 22.2079 31.5011C21.2171 32.4919 21.2171 34.1319 22.2079 35.1227L27.3328 40.2476Z" fill="#3ADCC9"/>
</svg>
