<svg width="52" height="52" viewBox="0 0 52 52" fill="none" xmlns="http://www.w3.org/2000/svg">
<path d="M17.333 4.3335V10.8335" stroke="#15FF70" stroke-width="3.25" stroke-miterlimit="10" stroke-linecap="round" stroke-linejoin="round"/>
<path d="M34.667 4.3335V10.8335" stroke="#15FF70" stroke-width="3.25" stroke-miterlimit="10" stroke-linecap="round" stroke-linejoin="round"/>
<path d="M39.4333 46.3667C43.2625 46.3667 46.3667 43.2625 46.3667 39.4334C46.3667 35.6042 43.2625 32.5 39.4333 32.5C35.6042 32.5 32.5 35.6042 32.5 39.4334C32.5 43.2625 35.6042 46.3667 39.4333 46.3667Z" stroke="#15FF70" stroke-width="3.25" stroke-linecap="round" stroke-linejoin="round"/>
<path d="M47.6667 47.6667L45.5 45.5" stroke="#15FF70" stroke-width="3.25" stroke-linecap="round" stroke-linejoin="round"/>
<path opacity="0.4" d="M7.58301 19.6953H44.4163" stroke="#15FF70" stroke-width="3.25" stroke-miterlimit="10" stroke-linecap="round" stroke-linejoin="round"/>
<path d="M28.9683 47.6668H17.3333C9.75 47.6668 6.5 43.3335 6.5 36.8335V18.4168C6.5 11.9168 9.75 7.5835 17.3333 7.5835H34.6667C42.25 7.5835 45.5 11.9168 45.5 18.4168V28.1668" stroke="#15FF70" stroke-width="3.25" stroke-miterlimit="10" stroke-linecap="round" stroke-linejoin="round"/>
<path opacity="0.4" d="M25.9884 29.6834H26.0079" stroke="#15FF70" stroke-width="4.33333" stroke-linecap="round" stroke-linejoin="round"/>
<path opacity="0.4" d="M17.9728 29.6834H17.9923" stroke="#15FF70" stroke-width="4.33333" stroke-linecap="round" stroke-linejoin="round"/>
<path opacity="0.4" d="M17.9727 36.1831H17.9921" stroke="#15FF70" stroke-width="4.33333" stroke-linecap="round" stroke-linejoin="round"/>
</svg>
