<svg width="52" height="52" viewBox="0 0 52 52" fill="none" xmlns="http://www.w3.org/2000/svg">
<path d="M36.833 39.9314H28.1663L18.5246 46.3447C17.0946 47.298 15.1663 46.2798 15.1663 44.5465V39.9314C8.66634 39.9314 4.33301 35.5981 4.33301 29.0981V16.098C4.33301 9.59798 8.66634 5.26465 15.1663 5.26465H36.833C43.333 5.26465 47.6663 9.59798 47.6663 16.098V29.0981C47.6663 35.5981 43.333 39.9314 36.833 39.9314Z" stroke="#15FF70" stroke-width="3.25" stroke-miterlimit="10" stroke-linecap="round" stroke-linejoin="round"/>
<path opacity="0.4" d="M25.9999 24.6133V24.1584C25.9999 22.685 26.91 21.905 27.82 21.2767C28.7083 20.67 29.5965 19.89 29.5965 18.46C29.5965 16.4667 27.9933 14.8633 25.9999 14.8633C24.0066 14.8633 22.4033 16.4667 22.4033 18.46" stroke="#15FF70" stroke-width="3.25" stroke-linecap="round" stroke-linejoin="round"/>
<path opacity="0.4" d="M25.9906 29.7918H26.0101" stroke="#15FF70" stroke-width="3.25" stroke-linecap="round" stroke-linejoin="round"/>
</svg>
