<svg width="75" height="75" viewBox="0 0 75 75" fill="none" xmlns="http://www.w3.org/2000/svg">
<path fill-rule="evenodd" clip-rule="evenodd" d="M31.335 72.7027C33.0419 74.1658 35.2366 74.8974 37.4313 74.8974C39.6259 74.8974 41.8206 74.1658 43.5276 72.6679L49.0317 67.9302C49.589 67.4773 50.9825 66.9548 51.714 66.9548H57.6361C62.7919 66.9548 66.9722 62.7745 66.9722 57.6187V51.6966C66.9722 50.9651 67.4947 49.5716 67.9824 49.0142L72.7201 43.5102C75.6463 40.0962 75.6463 34.7663 72.7201 31.3524L67.9824 25.8483C67.4947 25.2909 66.9722 23.8975 66.9722 23.1659V17.2438C66.9722 12.0881 62.7919 7.90778 57.6361 7.90778H51.714C50.9825 7.90778 49.589 7.42007 49.0317 6.93237L43.5276 2.19467C40.1136 -0.731548 34.7837 -0.731548 31.3698 2.19467L25.8657 6.93237C25.3083 7.38524 23.9149 7.90778 23.1833 7.90778H17.1567C12.001 7.90778 7.82068 12.0881 7.82068 17.2438V23.2356C7.82068 23.9672 7.33298 25.3258 6.84527 25.8831L2.14241 31.4221C-0.714138 34.8012 -0.714138 40.1311 2.14241 43.5102L6.84527 49.0491C7.33298 49.6064 7.82068 50.9651 7.82068 51.6966V57.6536C7.82068 62.8093 12.001 66.9896 17.1567 66.9896H23.1485C23.8801 66.9896 25.2735 67.4773 25.8309 67.965L31.335 72.7027ZM13.0461 17.2438C13.0461 14.9795 14.8924 13.1332 17.1567 13.1332H23.1833C25.169 13.1332 27.7469 12.1926 29.2796 10.9037L34.7837 6.13114C36.212 4.91188 38.7202 4.91188 40.1485 6.13114L45.6526 10.8688C47.1853 12.1926 49.7284 13.1332 51.7489 13.1332H57.671C59.9353 13.1332 61.7816 14.9795 61.7816 17.2438V23.1311C61.7816 25.1516 62.7222 27.6946 64.046 29.2274L68.7837 34.7315C70.0029 36.1598 70.0029 38.6679 68.7837 40.0962L64.046 45.6003C62.7222 47.1331 61.7816 49.6761 61.7816 51.6966V57.6187C61.7816 59.8831 59.9353 61.7294 57.671 61.7294H51.7489C49.7284 61.7294 47.1853 62.7048 45.6526 63.9937L40.1485 68.7314C38.7202 69.9507 36.212 69.9507 34.7837 68.7314L29.2796 63.9937C27.7469 62.6699 25.2038 61.7294 23.1833 61.7294H17.1567C14.8924 61.7294 13.0461 59.8831 13.0461 57.6187V51.6618C13.0461 49.6761 12.1055 47.1679 10.8166 45.6351L6.11372 40.0962C4.89446 38.6679 4.89446 36.1946 6.11372 34.7663L10.8166 29.2274C12.1055 27.7295 13.0461 25.1864 13.0461 23.2008V17.2438ZM31.3698 47.7253C31.8575 48.213 32.5193 48.4917 33.2161 48.4917C33.9128 48.4917 34.5747 48.213 35.0624 47.7253L51.8881 30.8995C52.8984 29.8892 52.8984 28.2171 51.8881 27.2069C50.8779 26.1966 49.2058 26.1966 48.1955 27.2069L33.2161 42.1864L26.6321 35.6024C25.6218 34.5921 23.9497 34.5921 22.9394 35.6024C21.9292 36.6126 21.9292 38.2847 22.9394 39.295L31.3698 47.7253Z" fill="#3ADCC9"/>
</svg>
