<svg width="52" height="52" viewBox="0 0 52 52" fill="none" xmlns="http://www.w3.org/2000/svg">
<path d="M15.1663 17.3335H8.66634C6.28301 17.3335 4.33301 15.3835 4.33301 13.0002V8.66683C4.33301 6.2835 6.28301 4.3335 8.66634 4.3335H15.1663C17.5497 4.3335 19.4997 6.2835 19.4997 8.66683V13.0002C19.4997 15.3835 17.5497 17.3335 15.1663 17.3335Z" stroke="#15FF70" stroke-width="3.25" stroke-linecap="round" stroke-linejoin="round"/>
<path d="M45.067 15.1667H37.267C35.837 15.1667 34.667 13.9966 34.667 12.5666V9.10003C34.667 7.67003 35.837 6.5 37.267 6.5H45.067C46.497 6.5 47.667 7.67003 47.667 9.10003V12.5666C47.667 13.9966 46.497 15.1667 45.067 15.1667Z" stroke="#15FF70" stroke-width="3.25" stroke-linecap="round" stroke-linejoin="round"/>
<path d="M45.067 31.4167H37.267C35.837 31.4167 34.667 30.2466 34.667 28.8166V25.35C34.667 23.92 35.837 22.75 37.267 22.75H45.067C46.497 22.75 47.667 23.92 47.667 25.35V28.8166C47.667 30.2466 46.497 31.4167 45.067 31.4167Z" stroke="#15FF70" stroke-width="3.25" stroke-linecap="round" stroke-linejoin="round"/>
<g opacity="0.4">
<path d="M19.5 10.8335H34.6667" stroke="#15FF70" stroke-width="3.25" stroke-miterlimit="10" stroke-linecap="round" stroke-linejoin="round"/>
<path d="M27.083 10.8335V39.0002C27.083 41.3835 29.033 43.3335 31.4163 43.3335H34.6663" stroke="#15FF70" stroke-width="3.25" stroke-miterlimit="10" stroke-linecap="round" stroke-linejoin="round"/>
<path d="M27.083 27.0835H34.6663" stroke="#15FF70" stroke-width="3.25" stroke-miterlimit="10" stroke-linecap="round" stroke-linejoin="round"/>
</g>
<path d="M45.067 47.6667H37.267C35.837 47.6667 34.667 46.4966 34.667 45.0666V41.6C34.667 40.17 35.837 39 37.267 39H45.067C46.497 39 47.667 40.17 47.667 41.6V45.0666C47.667 46.4966 46.497 47.6667 45.067 47.6667Z" stroke="#15FF70" stroke-width="3.25" stroke-linecap="round" stroke-linejoin="round"/>
</svg>
