<svg width="52" height="52" viewBox="0 0 52 52" fill="none" xmlns="http://www.w3.org/2000/svg">
<path d="M41.167 47.667C44.7568 47.667 47.667 44.7568 47.667 41.167C47.667 37.5771 44.7568 34.667 41.167 34.667C37.5771 34.667 34.667 37.5771 34.667 41.167C34.667 44.7568 37.5771 47.667 41.167 47.667Z" stroke="#15FF70" stroke-width="3.25" stroke-linecap="round" stroke-linejoin="round"/>
<g opacity="0.4">
<path d="M41.168 34.6676V14.0843C41.168 11.701 39.218 9.75098 36.8346 9.75098H24.918" stroke="#15FF70" stroke-width="3.25" stroke-linecap="round" stroke-linejoin="round"/>
<path d="M30.335 4.33398L23.835 9.75065L30.335 15.1673" stroke="#15FF70" stroke-width="3.25" stroke-linecap="round" stroke-linejoin="round"/>
<path d="M10.835 17.334V37.9173C10.835 40.3007 12.785 42.2507 15.1683 42.2507H27.085" stroke="#15FF70" stroke-width="3.25" stroke-linecap="round" stroke-linejoin="round"/>
<path d="M21.668 47.6673L28.168 42.2507L21.668 36.834" stroke="#15FF70" stroke-width="3.25" stroke-linecap="round" stroke-linejoin="round"/>
</g>
<path d="M10.833 17.333C14.4229 17.333 17.333 14.4229 17.333 10.833C17.333 7.24316 14.4229 4.33301 10.833 4.33301C7.24316 4.33301 4.33301 7.24316 4.33301 10.833C4.33301 14.4229 7.24316 17.333 10.833 17.333Z" stroke="#15FF70" stroke-width="3.25" stroke-linecap="round" stroke-linejoin="round"/>
</svg>
