<svg width="74" height="76" viewBox="0 0 74 76" fill="none" xmlns="http://www.w3.org/2000/svg">
<path fill-rule="evenodd" clip-rule="evenodd" d="M26.7495 75.2519H47.2491C65.8013 75.2519 73.7278 67.17 73.7278 48.254V27.3524C73.7278 8.43647 65.8013 0.354523 47.2491 0.354523H26.7495C8.19728 0.354523 0.270752 8.43647 0.270752 27.3524V48.254C0.270752 67.17 8.19728 75.2519 26.7495 75.2519ZM5.39566 27.3524C5.39566 11.293 10.9989 5.57992 26.7495 5.57992H47.2491C62.9996 5.57992 68.6029 11.293 68.6029 27.3524V48.254C68.6029 64.3134 62.9996 70.0265 47.2491 70.0265H26.7495C10.9989 70.0265 5.39566 64.3134 5.39566 48.254V27.3524ZM45.5408 49.1249L52.374 49.1249C52.3898 49.1249 52.4056 49.1247 52.4214 49.1245C53.0547 49.1129 53.6848 48.8683 54.1848 48.3585C54.4035 48.1355 54.5739 47.8803 54.6961 47.607C54.8501 47.2729 54.9365 46.9016 54.9365 46.5122V39.545C54.9365 38.1167 53.7748 36.9323 52.374 36.9323C50.9732 36.9323 49.8115 38.1167 49.8115 39.545V40.2069L39.8351 30.0348C39.3226 29.4774 38.5709 29.1987 37.7851 29.2684C36.9993 29.3729 36.316 29.7909 35.906 30.418L32.1819 36.1311L23.4695 27.2479C22.4787 26.2376 20.8387 26.2376 19.8479 27.2479C18.8571 28.2581 18.8571 29.9303 19.8479 30.9405L30.7811 42.088C31.2935 42.6454 32.0452 42.9241 32.831 42.8544C33.5827 42.7847 34.3002 42.3667 34.7101 41.7048L38.4342 35.9917L46.19 43.8995H45.5408C44.14 43.8995 42.9783 45.0839 42.9783 46.5122C42.9783 47.9405 44.14 49.1249 45.5408 49.1249Z" fill="#3ADCC9"/>
</svg>
