<svg width="52" height="52" viewBox="0 0 52 52" fill="none" xmlns="http://www.w3.org/2000/svg">
<path d="M15.1667 26C6.5 26 6.5 29.8783 6.5 34.6667V36.8333C6.5 42.8133 6.5 47.6667 17.3333 47.6667H34.6667C43.3333 47.6667 45.5 42.8133 45.5 36.8333V34.6667C45.5 29.8783 45.5 26 36.8333 26C34.6667 26 34.06 26.455 32.9333 27.3L30.7233 29.64C28.1667 32.37 23.8333 32.37 21.255 29.64L19.0667 27.3C17.94 26.455 17.3333 26 15.1667 26Z" stroke="#3ADCC9" stroke-width="3.25" stroke-miterlimit="10" stroke-linecap="round" stroke-linejoin="round"/>
<path d="M41.1663 26.0002V13.0002C41.1663 8.21183 41.1663 4.3335 32.4997 4.3335H19.4997C10.833 4.3335 10.833 8.21183 10.833 13.0002V26.0002" stroke="#3ADCC9" stroke-width="3.25" stroke-miterlimit="10" stroke-linecap="round" stroke-linejoin="round"/>
<path opacity="0.4" d="M22.8574 19.998H30.0724" stroke="#3ADCC9" stroke-width="3.25" stroke-linecap="round" stroke-linejoin="round"/>
<path opacity="0.4" d="M21.0596 13.498H31.8929" stroke="#3ADCC9" stroke-width="3.25" stroke-linecap="round" stroke-linejoin="round"/>
</svg>
