<svg width="52" height="52" viewBox="0 0 52 52" fill="none" xmlns="http://www.w3.org/2000/svg">
<path d="M26.0003 26.0002C31.9834 26.0002 36.8337 21.1499 36.8337 15.1668C36.8337 9.18374 31.9834 4.3335 26.0003 4.3335C20.0172 4.3335 15.167 9.18374 15.167 15.1668C15.167 21.1499 20.0172 26.0002 26.0003 26.0002Z" stroke="#3ADCC9" stroke-width="3.25" stroke-linecap="round" stroke-linejoin="round"/>
<path opacity="0.4" d="M7.38867 47.6667C7.38867 39.2817 15.7303 32.5 26.0003 32.5C28.0803 32.5 30.0954 32.7817 31.9804 33.3017" stroke="#3ADCC9" stroke-width="3.25" stroke-linecap="round" stroke-linejoin="round"/>
<path d="M47.6673 38.9997C47.6673 40.6247 47.2123 42.163 46.4107 43.463C45.9557 44.243 45.3707 44.9363 44.699 45.4997C43.1823 46.8647 41.189 47.6663 39.0007 47.6663C35.8373 47.6663 33.0856 45.9763 31.5906 43.463C30.789 42.163 30.334 40.6247 30.334 38.9997C30.334 36.2697 31.5907 33.8214 33.584 32.2397C35.079 31.048 36.964 30.333 39.0007 30.333C43.789 30.333 47.6673 34.2113 47.6673 38.9997Z" stroke="#3ADCC9" stroke-width="3.25" stroke-miterlimit="10" stroke-linecap="round" stroke-linejoin="round"/>
<path d="M35.6211 38.9998L37.7661 41.1447L42.3811 36.8765" stroke="#3ADCC9" stroke-width="3.25" stroke-linecap="round" stroke-linejoin="round"/>
</svg>
