<svg width="52" height="52" viewBox="0 0 52 52" fill="none" xmlns="http://www.w3.org/2000/svg">
<path opacity="0.4" d="M20.042 19.6079C23.8987 21.0162 28.102 21.0162 31.9587 19.6079" stroke="#3ADCC9" stroke-width="3.25" stroke-linecap="round" stroke-linejoin="round"/>
<path d="M36.4443 4.3335H15.5577C10.9427 4.3335 7.19434 8.1035 7.19434 12.6968V43.2252C7.19434 47.1252 9.98934 48.7718 13.4127 46.8868L23.986 41.0152C25.1127 40.3868 26.9327 40.3868 28.0377 41.0152L38.611 46.8868C42.0343 48.7935 44.8293 47.1468 44.8293 43.2252V12.6968C44.8077 8.1035 41.0593 4.3335 36.4443 4.3335Z" stroke="#3ADCC9" stroke-width="3.25" stroke-linecap="round" stroke-linejoin="round"/>
<path d="M36.4443 4.3335H15.5577C10.9427 4.3335 7.19434 8.1035 7.19434 12.6968V43.2252C7.19434 47.1252 9.98934 48.7718 13.4127 46.8868L23.986 41.0152C25.1127 40.3868 26.9327 40.3868 28.0377 41.0152L38.611 46.8868C42.0343 48.7935 44.8293 47.1468 44.8293 43.2252V12.6968C44.8077 8.1035 41.0593 4.3335 36.4443 4.3335Z" stroke="#3ADCC9" stroke-width="3.25" stroke-linecap="round" stroke-linejoin="round"/>
</svg>
