<svg width="52" height="52" viewBox="0 0 52 52" fill="none" xmlns="http://www.w3.org/2000/svg">
<path opacity="0.34" d="M18.1562 26.0002L23.3779 31.2435L33.8429 20.7568" stroke="#3ADCC9" stroke-width="3.25" stroke-linecap="round" stroke-linejoin="round"/>
<path d="M23.2913 5.30787C24.7863 4.02954 27.2346 4.02954 28.7513 5.30787L32.1746 8.25454C32.8246 8.81787 34.0379 9.27287 34.9046 9.27287H38.5879C40.8846 9.27287 42.7696 11.1579 42.7696 13.4545V17.1379C42.7696 17.9829 43.2246 19.2179 43.7879 19.8679L46.7346 23.2912C48.0129 24.7862 48.0129 27.2345 46.7346 28.7512L43.7879 32.1745C43.2246 32.8245 42.7696 34.0379 42.7696 34.9045V38.5879C42.7696 40.8845 40.8846 42.7695 38.5879 42.7695H34.9046C34.0596 42.7695 32.8246 43.2245 32.1746 43.7879L28.7513 46.7345C27.2563 48.0129 24.8079 48.0129 23.2913 46.7345L19.8679 43.7879C19.2179 43.2245 18.0046 42.7695 17.1379 42.7695H13.3896C11.0929 42.7695 9.20792 40.8845 9.20792 38.5879V34.8829C9.20792 34.0379 8.75292 32.8245 8.21125 32.1745L5.28625 28.7295C4.02958 27.2345 4.02958 24.8079 5.28625 23.3129L8.21125 19.8679C8.75292 19.2179 9.20792 18.0045 9.20792 17.1595V13.4329C9.20792 11.1362 11.0929 9.2512 13.3896 9.2512H17.1379C17.9829 9.2512 19.2179 8.7962 19.8679 8.23287L23.2913 5.30787Z" stroke="#3ADCC9" stroke-width="3.25" stroke-linecap="round" stroke-linejoin="round"/>
</svg>
