<svg width="113" height="108" viewBox="0 0 113 108" fill="none" xmlns="http://www.w3.org/2000/svg">
<g filter="url(#filter0_f_342_4398)">
<g filter="url(#filter1_f_342_4398)">
<path d="M68.0268 43H45.0827C44.1475 43 43.393 43.7585 43.393 44.6896V58.2827C43.393 59.2178 44.1516 59.9723 45.0827 59.9723H47.6151V63.7368C47.6151 64.8606 48.9716 65.4224 49.7662 64.6278L54.4217 59.9723H68.0268C68.9619 59.9723 69.7164 59.2138 69.7164 58.2827V44.6896C69.7164 43.7545 68.9579 43 68.0268 43Z" fill="url(#paint0_linear_342_4398)"/>
</g>
</g>
<path d="M64.8751 30.6872H40.354C36.1098 30.6872 32.6693 34.1278 32.6693 38.3719V62.8931C32.6693 67.1372 36.1098 70.5777 40.354 70.5777H64.8751C69.1193 70.5777 72.5598 67.1372 72.5598 62.8931V38.3719C72.5598 34.1278 69.1193 30.6872 64.8751 30.6872Z" fill="url(#paint1_linear_342_4398)"/>
<g filter="url(#filter2_b_342_4398)">
<path d="M77.3154 42.4222H52.7942C48.55 42.4222 45.1095 45.8628 45.1095 50.1069V74.6281C45.1095 78.8722 48.55 82.3127 52.7942 82.3127H77.3154C81.5595 82.3127 85 78.8722 85 74.6281V50.1069C85 45.8628 81.5595 42.4222 77.3154 42.4222Z" fill="url(#paint2_linear_342_4398)"/>
<path d="M77.3154 42.1722H52.7942C48.412 42.1722 44.8595 45.7247 44.8595 50.1069V74.6281C44.8595 79.0103 48.412 82.5627 52.7942 82.5627H77.3154C81.6976 82.5627 85.25 79.0103 85.25 74.6281V50.1069C85.25 45.7247 81.6976 42.1722 77.3154 42.1722Z" stroke="url(#paint3_linear_342_4398)" stroke-width="0.5"/>
</g>
<defs>
<filter id="filter0_f_342_4398" x="39.393" y="39" width="34.3234" height="30" filterUnits="userSpaceOnUse" color-interpolation-filters="sRGB">
<feFlood flood-opacity="0" result="BackgroundImageFix"/>
<feBlend mode="normal" in="SourceGraphic" in2="BackgroundImageFix" result="shape"/>
<feGaussianBlur stdDeviation="2" result="effect1_foregroundBlur_342_4398"/>
</filter>
<filter id="filter1_f_342_4398" x="0.393036" y="0" width="112.323" height="108" filterUnits="userSpaceOnUse" color-interpolation-filters="sRGB">
<feFlood flood-opacity="0" result="BackgroundImageFix"/>
<feBlend mode="normal" in="SourceGraphic" in2="BackgroundImageFix" result="shape"/>
<feGaussianBlur stdDeviation="21.5" result="effect1_foregroundBlur_342_4398"/>
</filter>
<filter id="filter2_b_342_4398" x="26.6095" y="23.9222" width="76.8905" height="76.8905" filterUnits="userSpaceOnUse" color-interpolation-filters="sRGB">
<feFlood flood-opacity="0" result="BackgroundImageFix"/>
<feGaussianBlur in="BackgroundImageFix" stdDeviation="9"/>
<feComposite in2="SourceAlpha" operator="in" result="effect1_backgroundBlur_342_4398"/>
<feBlend mode="normal" in="SourceGraphic" in2="effect1_backgroundBlur_342_4398" result="shape"/>
</filter>
<linearGradient id="paint0_linear_342_4398" x1="67.8342" y1="65.8742" x2="50.2226" y2="39.3316" gradientUnits="userSpaceOnUse">
<stop stop-color="#AA83FF"/>
<stop offset="1" stop-color="#FF3FA4"/>
</linearGradient>
<linearGradient id="paint1_linear_342_4398" x1="69.7076" y1="72.1629" x2="35.9525" y2="29.6458" gradientUnits="userSpaceOnUse">
<stop stop-color="#AA83FF"/>
<stop offset="1" stop-color="#8F6EF7"/>
</linearGradient>
<linearGradient id="paint2_linear_342_4398" x1="47.3615" y1="80.0607" x2="82.748" y2="44.6743" gradientUnits="userSpaceOnUse">
<stop stop-color="white" stop-opacity="0.2"/>
<stop offset="1" stop-color="white" stop-opacity="0.49"/>
</linearGradient>
<linearGradient id="paint3_linear_342_4398" x1="47.9253" y1="45.5595" x2="81.27" y2="81.2127" gradientUnits="userSpaceOnUse">
<stop stop-color="white"/>
<stop offset="1" stop-color="white" stop-opacity="0"/>
</linearGradient>
</defs>
</svg>
