<svg width="150" height="150" viewBox="0 0 150 150" fill="none" xmlns="http://www.w3.org/2000/svg">
<path d="M92.4214 33.7882C92.4214 33.9954 92.4214 34.1801 92.4214 34.3609C92.4214 40.9766 92.5309 47.596 92.3912 54.2117C92.2402 61.2945 88.8842 66.5238 82.5157 69.7789C79.926 71.1013 77.1249 71.6438 74.2332 71.5082C70.311 71.3273 66.8153 69.9748 63.7915 67.4506C60.4581 64.6627 58.5064 61.1062 57.808 56.8678C57.6306 55.7978 57.608 54.6977 57.6042 53.6089C57.5815 47.1816 57.5966 40.7505 57.574 34.3195C57.574 33.7619 57.8571 33.8447 58.2195 33.8447C61.4207 33.8523 64.622 33.8447 67.8194 33.8447C75.7282 33.8447 83.6331 33.8447 91.5418 33.8447C91.8174 33.8447 92.0968 33.8071 92.4214 33.7845V33.7882ZM58.933 35.2952C58.933 35.4233 58.933 35.5137 58.933 35.6042C58.9254 41.8619 58.899 48.1235 58.933 54.3812C58.9405 55.5228 59.084 56.6869 59.3445 57.8021C60.4732 62.6132 63.2932 66.1583 67.6873 68.4603C71.1339 70.2687 74.8184 70.4683 78.533 69.7412C85.532 68.3698 90.9001 61.9463 90.9907 54.8635C91.0699 48.5416 91.0171 42.2198 91.0209 35.9018C91.0209 35.7059 91.0209 35.51 91.0209 35.2952H58.933Z" fill="white"/>
<path d="M85.2527 60.59C85.4528 59.9985 85.2565 59.0868 86.3702 59.1772V62.3946C85.7624 62.3946 85.1735 62.3946 84.5846 62.3946C84.2561 62.3946 83.9239 62.3946 83.5955 62.372C83.452 62.3607 83.2293 62.308 83.2029 62.2213C83.1651 62.1045 83.2331 61.8672 83.335 61.8069C83.6635 61.6035 84.0296 61.4603 84.4487 61.2568C84.2259 61.0308 83.9617 60.7445 83.6823 60.4732C82.9424 59.7574 83.0896 59.6368 82.1761 60.3376C80.3112 61.7692 78.1896 62.5152 75.8604 62.7412C72.7234 63.0426 70.0053 62.0216 67.5629 60.1454C66.94 59.6707 67.0646 59.6971 66.555 60.1831C66.2265 60.4958 65.8905 60.801 65.5583 61.1099C65.5395 61.1288 65.5357 61.1664 65.5017 61.2606C66.0793 61.3774 66.7286 61.4452 66.8268 62.2854H63.6029C63.6029 61.3623 63.6029 60.4318 63.6029 59.505C63.6029 59.1885 63.7954 59.0792 64.0143 59.2865C64.2371 59.4974 64.4032 59.7838 64.5353 60.0626C64.607 60.217 64.5655 60.428 64.5806 60.7595C65.2073 60.1605 65.7546 59.6331 66.336 59.0755C66.0453 58.6837 65.7395 58.2768 65.4375 57.8661C63.4443 55.1761 62.9007 52.1358 63.4405 48.9146C63.7765 46.9066 64.6863 45.1095 66.0831 43.5836C66.1699 43.4895 66.2605 43.2483 66.2152 43.2031C65.7395 42.7021 65.2337 42.2236 64.6448 41.6472C64.6335 42.3931 64.4636 42.9168 63.7048 43.1014V39.8614C64.6184 39.8614 65.5244 39.8576 66.4304 39.8651C66.5399 39.8651 66.7097 39.9141 66.7475 39.9932C66.7852 40.0724 66.7324 40.2645 66.6569 40.3172C66.3549 40.5207 66.0378 40.7015 65.7131 40.8673C65.5999 40.9238 65.4526 40.9125 65.3922 40.92C65.8717 41.44 66.3435 41.9712 66.8456 42.4722C66.8985 42.525 67.159 42.4496 67.2609 42.363C68.8049 40.9916 70.5942 40.0799 72.6214 39.7144C76.1436 39.0815 79.3788 39.7597 82.2403 41.9674C82.3384 42.0427 82.4366 42.1219 82.5347 42.1972C82.6819 42.3102 82.8329 42.4195 82.8707 42.4459C83.4332 41.9373 83.9692 41.455 84.494 40.9803C84.158 40.8485 83.7956 40.758 83.4936 40.5734C83.3275 40.4679 83.2595 40.208 83.1463 40.0158C83.3426 39.9593 83.5389 39.8576 83.739 39.8538C84.5997 39.835 85.4641 39.8463 86.3739 39.8463V42.9507C85.7473 42.9846 85.6114 42.8264 85.249 41.5831C84.9696 41.8996 84.7431 42.1633 84.5091 42.4195C84.2788 42.6719 84.041 42.9206 83.7805 43.1994C83.8296 43.2672 83.89 43.3689 83.9692 43.4593C86.9628 46.9065 87.9217 52.1132 85.3811 56.555C84.9583 57.2972 84.4411 57.9867 83.939 58.6761C83.7352 58.9587 83.7088 59.1282 83.9957 59.3731C84.4336 59.7423 84.8262 60.1605 85.2603 60.5787L85.2527 60.59ZM82.3497 43.2747C80.1678 41.4173 77.8235 40.5132 75.0941 40.4905C72.4365 40.4679 70.1148 41.2893 68.0574 42.913C67.5969 43.2785 67.6082 43.286 68.0423 43.7117C70.2167 45.8479 72.3949 47.9765 74.5505 50.1277C74.8525 50.4329 75.0073 50.4743 75.3244 50.1541C77.3931 48.0707 79.4807 46.0024 81.5683 43.9378C81.7986 43.7117 82.0628 43.5196 82.3535 43.2747H82.3497ZM75.7359 51.3371C76.3852 51.9663 77.1138 52.6482 77.8235 53.3527C79.409 54.9275 80.9907 56.5061 82.5649 58.0884C82.7688 58.2918 82.916 58.4162 83.1614 58.1223C85.5283 55.2816 86.3362 52.0718 85.4566 48.4814C85.0413 46.7785 84.2108 45.279 83.0066 43.934C80.5755 46.4092 78.1594 48.8694 75.7359 51.3371ZM74.207 51.2957C74.0937 51.1412 74.0371 51.047 73.9654 50.9717C71.7343 48.7601 69.4995 46.5562 67.276 44.3371C67.0382 44.1036 66.8494 44.0772 66.6682 44.3447C66.1737 45.0793 65.5848 45.7763 65.2261 46.5712C63.3952 50.6326 63.9237 54.434 66.6418 57.9565C66.9174 58.3145 67.091 58.3107 67.3968 58.0055C69.6467 55.7714 71.9117 53.5486 74.2032 51.2919L74.207 51.2957ZM82.2176 59.1019C82.1044 58.9738 82.044 58.8833 81.9647 58.8118C81.1681 58.0394 80.3641 57.2746 79.5713 56.4985C78.1896 55.1422 76.8117 53.7784 75.4301 52.4221C75.1923 52.1885 74.9808 51.9512 74.6147 52.3129C72.4667 54.4264 70.2998 56.5249 68.1442 58.6309C67.7026 59.0642 67.7214 59.1019 68.1971 59.4861C70.481 61.3209 73.1047 62.0292 76.0077 61.7994C78.3671 61.6148 80.4169 60.7143 82.2138 59.1056L82.2176 59.1019Z" fill="white"/>
<path d="M74.8751 42.2839C75.2224 42.751 75.4866 43.2107 75.849 43.5648C76.219 43.9227 76.6871 44.1751 77.1628 44.5104C75.9698 44.8156 75.3583 45.6784 74.9128 46.7747C74.1012 45.1132 73.9011 45.0341 72.6365 44.4389C73.7312 43.9981 74.49 43.2785 74.8751 42.2839Z" fill="white"/>
<path d="M83.9502 51.1939C82.897 51.6762 82.1797 52.3958 81.7078 53.4243C81.3416 52.3091 80.5489 51.646 79.5107 51.2278C79.9939 50.9038 80.4658 50.6703 80.8282 50.3199C81.1944 49.962 81.4473 49.491 81.7682 49.0427C82.1872 50.0373 82.8781 50.7984 83.954 51.1939H83.9502Z" fill="white"/>
<path d="M70.8133 51.8608C70.0016 53.2585 68.9408 53.6955 67.646 53.2585C66.8004 52.9722 66.1926 51.9173 66.3511 50.9038C66.4946 49.9884 67.0948 49.0276 68.6955 48.9485C67.7139 49.7736 67.4157 50.7607 68.2198 51.7252C68.8804 52.5126 69.828 52.3958 70.8095 51.8608H70.8133Z" fill="white"/>
<path d="M73.35 55.6396C73.5047 56.9393 73.9842 57.5949 74.8713 57.7117C75.7811 57.8322 76.4379 57.3387 76.9249 56.1745C77.4459 57.1805 77.0684 58.4162 76.068 59.034C74.8637 59.7762 73.7954 59.3957 73.1235 58.5179C72.4062 57.5798 72.5119 56.3441 73.3462 55.6433L73.35 55.6396Z" fill="white"/>
<path d="M121 102.784C119.675 102.784 118.411 102.819 117.148 102.772C116.379 102.743 115.805 102.32 115.527 101.585C115.237 100.824 114.959 100.053 114.699 99.2827C114.607 99.0111 114.489 98.9195 114.178 98.9225C111.56 98.9432 108.943 98.9373 106.322 98.9284C106.076 98.9284 105.931 98.9904 105.854 99.2295C105.65 99.8554 105.437 100.478 105.221 101.098C104.798 102.326 104.15 102.799 102.843 102.811C101.814 102.822 100.784 102.811 99.7014 102.811C99.8138 102.477 99.9144 102.149 100.033 101.827C101.586 97.5822 103.142 93.337 104.695 89.0917C105.612 86.5853 106.526 84.079 107.443 81.5726C107.65 81.0057 107.653 81.0146 108.247 81.0146C109.783 81.0146 111.321 81.0205 112.856 80.9998C113.111 80.9969 113.158 81.115 113.226 81.298C114.622 85.1594 116.018 89.0209 117.423 92.8794C118.589 96.0855 119.763 99.2915 120.929 102.495C120.961 102.58 120.976 102.675 121 102.775V102.784ZM113.102 94.7156C112.152 91.9583 111.22 89.2423 110.253 86.4318C109.295 89.2305 108.363 91.9583 107.419 94.7156H113.099H113.102Z" fill="white"/>
<path d="M52.7327 102.813V80.9939H67.822C67.8368 81.1563 67.8605 81.3187 67.8605 81.481C67.8605 82.2368 67.8516 82.9955 67.8457 83.7513C67.8339 84.8436 67.3251 85.3484 66.2069 85.3513C64.4113 85.3572 62.6157 85.3513 60.8202 85.3513C59.8499 85.3513 58.8767 85.3513 57.9064 85.3513C57.7999 85.3513 57.6905 85.3602 57.5603 85.3661V89.6969H65.6981V93.9067C65.4762 93.9067 65.2603 93.9067 65.0444 93.9067C62.6601 93.9067 60.2729 93.9156 57.8887 93.9067C57.5929 93.9067 57.5337 93.9835 57.5396 94.2787C57.5633 95.6781 57.5515 97.0803 57.5515 98.5269C57.6816 98.5269 57.7999 98.5269 57.9183 98.5269C60.5865 98.5269 63.2547 98.5269 65.9229 98.5269C66.0324 98.5269 66.1448 98.5239 66.2542 98.5299C67.3458 98.5978 67.8131 99.0642 67.8427 100.139C67.8634 100.933 67.8605 101.724 67.8605 102.518C67.8605 102.675 67.8782 102.819 67.615 102.816C64.7249 102.802 61.8348 102.805 58.9447 102.802C56.88 102.802 54.8182 102.802 52.7297 102.802L52.7327 102.813Z" fill="white"/>
<path d="M87.7451 98.3557C87.7451 98.6657 87.7451 98.9313 87.7451 99.1941C87.751 100.304 87.751 101.414 87.7658 102.524C87.7688 102.751 87.7067 102.813 87.4759 102.811C86.0383 102.799 84.6006 102.802 83.16 102.813C82.9559 102.813 82.9086 102.769 82.9234 102.568C82.95 102.191 82.9441 101.813 82.9441 101.435C82.9441 94.8337 82.9441 88.2356 82.9441 81.6345V81.0116C83.4233 81.0116 83.87 81.0116 84.3196 81.0116C86.6181 81.0175 88.9195 80.9526 91.215 81.05C95.4569 81.2301 98.6014 83.9284 99.548 87.6599C100.64 91.9554 98.3026 96.1209 94.2914 97.7387C93.1082 98.214 91.8776 98.3645 90.6115 98.3527C89.7892 98.3439 88.9639 98.3557 88.1415 98.3586C88.0232 98.3586 87.9019 98.3586 87.7422 98.3586L87.7451 98.3557ZM87.7422 94.1636C88.8574 94.1636 89.9134 94.2197 90.9635 94.1518C93.4247 93.9924 95.3179 91.3502 94.818 88.9235C94.321 86.5234 92.2267 85.0797 90.1619 85.2185C89.5141 85.2628 88.8574 85.248 88.2095 85.2126C87.822 85.1919 87.7362 85.3189 87.7362 85.6849C87.751 88.3183 87.7422 90.9516 87.7422 93.585C87.7422 93.7532 87.7422 93.9215 87.7422 94.1636Z" fill="white"/>
<path d="M48.3398 89.7501C47.3843 89.7501 46.5146 89.7501 45.6449 89.7501C44.2517 89.7501 43.7074 89.384 43.2282 88.0732C42.9324 87.2673 42.5064 86.5617 41.8438 85.9949C40.2553 84.6458 37.1226 84.6162 35.4069 86.7684C34.5934 87.7928 34.0965 88.9648 33.9279 90.2283C33.7208 91.7753 33.6616 93.3458 34.0521 94.881C34.3597 96.0913 34.8567 97.1955 35.8418 98.0486C37.7557 99.7048 41.7166 99.5424 42.9856 96.4072C43.101 96.1238 43.2075 95.8404 43.3287 95.56C43.6098 94.9223 44.086 94.4558 44.7871 94.4175C45.9348 94.3584 47.0885 94.4027 48.2895 94.4027C48.2629 94.6241 48.2451 94.8249 48.2126 95.0256C47.8339 97.3755 46.8962 99.4362 45.0326 101.001C43.7606 102.067 42.2638 102.672 40.6309 102.902C38.6017 103.188 36.5961 103.008 34.6911 102.235C32.082 101.178 30.4935 99.1705 29.6238 96.5725C28.9405 94.5355 28.8547 92.4277 29.0943 90.3139C29.3783 87.781 30.3397 85.5255 32.2033 83.7276C34.3302 81.6759 36.9363 80.9496 39.8441 81.1445C41.4148 81.2508 42.885 81.667 44.2221 82.5172C46.3076 83.8487 47.5736 85.7263 48.0588 88.1323C48.1623 88.6519 48.2422 89.1773 48.3427 89.7501H48.3398Z" fill="white"/>
<path d="M72.7177 81.0441C74.2559 81.0441 75.7528 81.0471 77.2496 81.0412C77.4803 81.0412 77.5513 81.1297 77.5454 81.3423C77.5335 81.8176 77.5276 82.2929 77.5276 82.7682C77.5276 89.3545 77.5335 95.9408 77.5424 102.527C77.5424 102.775 77.4655 102.834 77.2259 102.831C75.8119 102.822 74.3979 102.828 72.9869 102.84C72.7562 102.84 72.697 102.772 72.697 102.548C72.7029 95.4862 72.7029 88.4246 72.7059 81.36C72.7059 81.2655 72.7148 81.1681 72.7207 81.0382L72.7177 81.0441Z" fill="white"/>
<path d="M96.9831 109.981C96.9831 110.855 97.0127 111.697 96.9742 112.538C96.9476 113.099 96.8559 113.68 96.2169 113.925C95.5306 114.188 94.8236 114.235 94.2261 113.769C93.9776 113.574 93.7883 113.182 93.7617 112.866C93.6848 111.956 93.7055 111.038 93.6818 110.123C93.6759 109.887 93.8179 109.863 93.9954 109.887C94.1788 109.91 94.448 109.789 94.445 110.144C94.4361 110.852 94.4125 111.558 94.4302 112.266C94.4361 112.523 94.5012 112.801 94.6136 113.031C94.7822 113.382 95.1816 113.527 95.5513 113.438C95.9329 113.347 96.1607 113.105 96.1755 112.683C96.2021 111.95 96.2021 111.218 96.1992 110.489C96.1992 109.908 96.2228 109.875 96.8174 109.943C96.8647 109.949 96.9091 109.964 96.989 109.984L96.9831 109.981Z" fill="white"/>
<path d="M77.7998 112.629C78.2258 112.541 78.5098 112.588 78.7257 113.013C78.986 113.53 79.7699 113.589 80.1989 113.19C80.5095 112.901 80.4533 112.52 80.0362 112.346C79.6901 112.201 79.3144 112.113 78.9505 112.009C78.424 111.859 78.069 111.511 78.0217 111.085C77.9507 110.439 78.2228 110.046 78.8618 109.872C79.835 109.606 80.6544 109.934 80.9591 110.711C80.9798 110.764 80.9828 110.826 80.9916 110.879C80.5627 111.074 80.3675 111.026 80.1249 110.675C79.8232 110.244 79.1073 110.218 78.776 110.628C78.5926 110.855 78.6754 111.062 78.9032 111.171C79.1517 111.292 79.4327 111.351 79.6989 111.434C79.8616 111.484 80.0273 111.528 80.1929 111.576C80.8674 111.767 81.1425 112.113 81.1247 112.742C81.107 113.359 80.7964 113.742 80.1338 113.872C79.5333 113.99 78.9357 113.958 78.4003 113.601C78.0513 113.37 77.8501 113.06 77.7969 112.629H77.7998Z" fill="white"/>
<path d="M58.9061 113.914C58.7642 113.914 58.6784 113.905 58.5955 113.914C58.208 113.964 57.9684 113.846 57.9211 113.421C57.8826 113.093 57.6726 112.951 57.3295 112.981C57.0751 113.004 56.8118 113.007 56.5574 112.972C56.1669 112.919 55.9687 113.052 55.8386 113.435C55.6522 113.99 55.6138 113.979 54.9275 113.863C55.0754 113.491 55.2263 113.125 55.3683 112.759C55.6907 111.933 56.0279 111.109 56.3208 110.274C56.442 109.928 56.658 109.878 56.9686 109.89C57.2644 109.899 57.362 110.043 57.4626 110.312C57.8826 111.428 58.35 112.523 58.7997 113.627C58.8322 113.704 58.8588 113.784 58.9091 113.911L58.9061 113.914ZM57.5247 112.387C57.3088 111.809 57.1224 111.31 56.939 110.811C56.9006 110.817 56.8591 110.826 56.8207 110.832C56.6402 111.336 56.4598 111.838 56.2646 112.384H57.5247V112.387Z" fill="white"/>
<path d="M86.0707 113.99C85.8725 113.908 85.6625 113.804 85.4407 113.731C85.3637 113.704 85.2632 113.731 85.1803 113.754C84.9585 113.813 84.7396 113.914 84.5148 113.937C83.9971 113.993 83.6658 113.751 83.5652 113.288C83.4765 112.88 83.719 112.488 84.1835 112.343C84.4379 112.263 84.713 112.246 84.9733 112.181C85.1774 112.131 85.4969 112.107 85.3874 111.812C85.3342 111.664 85.0324 111.549 84.8313 111.531C84.6627 111.516 84.4822 111.685 84.2988 111.723C84.1273 111.759 83.9439 111.735 83.7664 111.735C83.8078 111.587 83.8048 111.404 83.8965 111.301C84.2781 110.861 85.3963 110.793 85.8311 111.189C85.9524 111.298 86.0559 111.496 86.0589 111.655C86.0826 112.405 86.0707 113.158 86.0707 113.99ZM85.2632 112.6C84.6745 112.594 84.2929 112.804 84.2929 113.069C84.2929 113.373 84.4526 113.512 84.7514 113.509C85.1715 113.506 85.4525 113.235 85.4318 112.821C85.4259 112.727 85.2957 112.635 85.2632 112.597V112.6Z" fill="white"/>
<path d="M117.989 111.1C118.681 111.009 118.698 111.029 118.888 111.605C119.053 112.113 119.24 112.615 119.503 113.128C119.642 112.733 119.781 112.337 119.917 111.942C119.953 111.838 119.97 111.729 120.003 111.623C120.172 111.047 120.246 111.003 120.911 111.106C120.828 111.313 120.745 111.511 120.672 111.711C120.325 112.621 119.988 113.536 119.636 114.445C119.447 114.935 119.033 115.198 118.53 115.186C118.293 115.18 118.175 115.08 118.145 114.841C118.122 114.649 118.178 114.581 118.376 114.569C119.012 114.528 119.19 114.244 118.968 113.654C118.648 112.812 118.329 111.974 117.994 111.1H117.989Z" fill="white"/>
<path d="M75.5012 114.017C75.0427 113.598 74.5428 113.86 74.0399 113.925C73.3861 114.008 72.9898 113.666 73.0046 113.096C73.0134 112.786 73.1288 112.538 73.4364 112.44C73.7973 112.328 74.17 112.249 74.5368 112.157C74.7055 112.116 74.9244 112.077 74.8475 111.853C74.8001 111.714 74.6286 111.54 74.4954 111.522C74.312 111.499 74.0902 111.576 73.9186 111.664C73.6021 111.829 73.1643 111.838 73.2027 111.697C73.2619 111.469 73.4276 111.183 73.6258 111.094C74.1316 110.864 74.6877 110.905 75.2024 111.109C75.3326 111.162 75.4864 111.357 75.4923 111.493C75.5189 112.305 75.5071 113.117 75.5071 114.014L75.5012 114.017ZM74.8238 112.553C74.5073 112.629 74.1908 112.674 73.9009 112.789C73.8003 112.83 73.682 113.069 73.7204 113.161C73.7766 113.297 73.9541 113.459 74.0931 113.474C74.5457 113.524 74.9362 113.35 74.8267 112.553H74.8238Z" fill="white"/>
<path d="M69.023 112.52C69.0201 113.406 68.4078 114.011 67.5144 114.011C66.6802 114.011 65.988 113.305 65.991 112.455C65.991 111.658 66.6595 111.018 67.4878 111.015C68.39 111.015 69.029 111.638 69.026 112.52H69.023ZM68.2894 112.464C68.2835 111.88 67.9433 111.496 67.4286 111.493C67.0529 111.493 66.6566 112.007 66.6536 112.5C66.6536 113.025 67.047 113.477 67.5026 113.465C67.967 113.453 68.2983 113.037 68.2894 112.464Z" fill="white"/>
<path d="M70.4933 111.307C70.8424 111.198 71.1057 111.068 71.3778 111.038C71.9221 110.979 72.3067 111.254 72.3569 111.794C72.4191 112.446 72.3895 113.108 72.3806 113.763C72.3806 113.822 72.2475 113.92 72.1647 113.931C71.999 113.958 71.8245 113.94 71.6026 113.94C71.6026 113.409 71.6026 112.901 71.6026 112.396C71.6026 112.322 71.6026 112.249 71.6026 112.178C71.5967 111.75 71.437 111.519 71.1412 111.505C70.7803 111.49 70.4549 111.762 70.4342 112.151C70.4076 112.638 70.4105 113.125 70.4253 113.613C70.4342 113.902 70.3336 113.993 70.0407 113.984C69.7361 113.976 69.7242 113.828 69.7272 113.583C69.739 112.877 69.7183 112.169 69.7242 111.463C69.7242 111.333 69.7863 111.091 69.8218 111.091C70.0023 111.091 70.1887 111.136 70.3632 111.195C70.446 111.221 70.5052 111.313 70.4933 111.304V111.307Z" fill="white"/>
<path d="M91.3657 112.683C90.8037 112.683 90.2653 112.674 89.7269 112.688C89.5938 112.691 89.4636 112.771 89.3305 112.815C89.3838 112.945 89.4134 113.093 89.4991 113.202C89.8334 113.633 90.1263 113.657 90.499 113.279C90.7504 113.022 91.0137 113.143 91.2829 113.193C91.203 113.922 90.4073 114.035 89.8305 113.964C89.0318 113.866 88.5437 113.119 88.6679 112.26C88.7892 111.431 89.3483 110.959 90.1174 111.029C90.919 111.106 91.413 111.738 91.3657 112.68V112.683ZM90.6883 112.225C90.706 112.181 90.7208 112.136 90.7386 112.092C90.6558 111.965 90.5907 111.821 90.4901 111.708C90.1529 111.33 89.6145 111.416 89.4311 111.888C89.3986 111.974 89.4932 112.207 89.5406 112.21C89.9221 112.237 90.3037 112.225 90.6883 112.225Z" fill="white"/>
<path d="M108.591 112.715H106.647C106.677 113.075 106.768 113.338 107.091 113.483C107.41 113.627 107.644 113.477 107.839 113.261C108.085 112.993 108.327 113.173 108.597 113.217C108.526 113.565 108.318 113.793 108.017 113.89C106.733 114.312 105.76 113.456 105.999 112.133C106.144 111.333 106.81 110.897 107.626 111.059C108.345 111.204 108.753 111.891 108.588 112.715H108.591ZM107.316 112.24C107.39 112.24 107.467 112.249 107.538 112.237C107.656 112.213 107.774 112.175 107.893 112.142C107.848 112.001 107.819 111.847 107.751 111.717C107.709 111.638 107.606 111.54 107.529 111.537C107.339 111.531 107.106 111.522 106.967 111.62C106.833 111.714 106.792 111.939 106.712 112.107C106.878 112.151 107.041 112.195 107.206 112.237C107.242 112.246 107.28 112.237 107.316 112.237V112.24Z" fill="white"/>
<path d="M98.6012 111.319C99.0301 111.212 99.3614 111.077 99.6987 111.059C100.181 111.032 100.503 111.384 100.518 111.894C100.536 112.479 100.515 113.063 100.527 113.648C100.533 113.928 100.367 113.922 100.166 113.92C99.9472 113.92 99.8318 113.872 99.8466 113.607C99.8732 113.134 99.8614 112.656 99.8495 112.181C99.8407 111.77 99.6306 111.516 99.3289 111.499C98.9414 111.478 98.6367 111.741 98.6101 112.169C98.5805 112.656 98.5805 113.143 98.5805 113.63C98.5805 113.866 98.5243 113.999 98.2462 113.979C98.0125 113.961 97.8144 113.987 97.8262 113.642C97.8558 112.913 97.841 112.181 97.8587 111.449C97.8617 111.319 97.9386 111.085 97.9859 111.085C98.1516 111.082 98.3202 111.147 98.4799 111.209C98.5539 111.239 98.6042 111.319 98.5983 111.313L98.6012 111.319Z" fill="white"/>
<path d="M111.327 113.199C111.664 113.049 111.916 113.093 112.149 113.3C112.398 113.521 112.691 113.613 112.998 113.477C113.134 113.418 113.22 113.252 113.33 113.137C113.223 113.052 113.131 112.931 113.01 112.886C112.699 112.774 112.377 112.7 112.061 112.6C111.664 112.473 111.419 112.181 111.416 111.85C111.413 111.514 111.676 111.115 112.063 111.062C112.489 111.003 112.942 111.012 113.362 111.097C113.581 111.142 113.753 111.413 113.971 111.605C113.637 111.865 113.409 111.738 113.185 111.62C112.883 111.46 112.575 111.345 112.244 111.522C112.167 111.564 112.069 111.658 112.069 111.726C112.069 111.794 112.17 111.9 112.247 111.927C112.593 112.042 112.948 112.145 113.303 112.234C113.782 112.355 114.034 112.621 114.031 113.019C114.031 113.427 113.761 113.769 113.303 113.858C112.699 113.973 112.075 114.079 111.578 113.565C111.484 113.468 111.419 113.338 111.327 113.202V113.199Z" fill="white"/>
<path d="M63.867 113.27C64.2397 113.27 64.5266 113.27 64.8136 113.27C64.9852 113.27 65.1686 113.235 65.3253 113.285C65.417 113.314 65.5176 113.48 65.5206 113.586C65.5206 113.692 65.4111 113.893 65.346 113.896C64.5651 113.917 63.7812 113.911 62.9973 113.911C62.9263 113.577 62.9707 113.323 63.2103 113.087C63.5653 112.736 63.8906 112.352 64.2249 111.977C64.3018 111.888 64.3639 111.788 64.4882 111.617C64.1007 111.617 63.7989 111.611 63.4972 111.617C63.0269 111.629 62.9736 111.57 63.0772 111.065C63.8049 111.065 64.5385 111.053 65.2721 111.071C65.5324 111.077 65.5797 111.348 65.3431 111.635C64.9704 112.086 64.5651 112.514 64.1746 112.951C64.0948 113.04 64.0119 113.122 63.8729 113.27H63.867Z" fill="white"/>
<path d="M86.4849 111.431C87.0173 111.077 86.8665 110.22 87.6474 110.105C87.6474 110.3 87.6474 110.501 87.6474 110.702C87.6474 110.92 87.6947 111.068 87.9728 111.08C88.0822 111.085 88.1858 111.251 88.2893 111.345C88.1917 111.425 88.1 111.561 87.9935 111.576C87.7716 111.602 87.6977 111.691 87.7066 111.903C87.7214 112.293 87.7213 112.68 87.7273 113.069C87.7273 113.267 87.7598 113.427 88.026 113.429C88.1089 113.429 88.2568 113.553 88.2568 113.624C88.2568 113.734 88.1858 113.893 88.097 113.94C87.5084 114.253 86.9582 113.928 86.9463 113.273C86.9404 112.934 86.9286 112.591 86.9463 112.252C86.9611 111.897 86.9848 111.552 86.4849 111.431Z" fill="white"/>
<path d="M102.589 111.085C103.278 111.003 103.349 111.053 103.544 111.64C103.695 112.098 103.869 112.547 104.035 113.001C104.068 113.004 104.103 113.007 104.136 113.01C104.248 112.739 104.366 112.47 104.47 112.195C104.547 111.992 104.6 111.776 104.674 111.573C104.849 111.085 104.955 111.026 105.556 111.091C105.425 111.446 105.301 111.791 105.168 112.133C104.967 112.641 104.748 113.146 104.553 113.657C104.449 113.928 104.224 113.952 104.011 113.905C103.878 113.875 103.722 113.748 103.665 113.627C103.296 112.833 102.952 112.027 102.6 111.227C102.586 111.198 102.595 111.156 102.589 111.091V111.085Z" fill="white"/>
<path d="M115.983 111.419C116.498 111.1 116.32 110.33 116.95 110.138C116.995 110.123 117.036 110.105 117.122 110.07C117.122 110.306 117.128 110.507 117.122 110.711C117.113 110.938 117.166 111.077 117.444 111.085C117.542 111.085 117.637 111.233 117.731 111.316C117.646 111.404 117.566 111.561 117.471 111.573C117.24 111.599 117.19 111.702 117.193 111.906C117.199 112.284 117.187 112.662 117.175 113.04C117.169 113.252 117.193 113.415 117.471 113.444C117.566 113.456 117.693 113.615 117.711 113.722C117.723 113.787 117.566 113.931 117.465 113.958C116.808 114.132 116.448 113.872 116.415 113.211C116.397 112.883 116.371 112.547 116.415 112.225C116.468 111.856 116.445 111.57 115.983 111.422V111.419Z" fill="white"/>
<path d="M81.3643 111.466C81.4619 111.322 81.4974 111.212 81.5595 111.192C81.8553 111.1 81.8316 110.84 81.9292 110.628C82.0328 110.404 82.2576 110.238 82.4292 110.043C82.4735 110.067 82.5179 110.091 82.5623 110.114C82.5534 110.3 82.5505 110.489 82.5298 110.675C82.5002 110.929 82.58 111.083 82.864 111.065C83.0445 111.053 83.1746 111.088 83.1894 111.31C83.2012 111.534 83.074 111.578 82.8936 111.578C82.7043 111.578 82.6037 111.652 82.6096 111.865C82.6215 112.255 82.6126 112.644 82.6067 113.034C82.6037 113.255 82.6658 113.4 82.9173 113.447C83.0178 113.465 83.0977 113.598 83.1894 113.68C83.0977 113.778 83.0208 113.925 82.9113 113.961C82.2754 114.165 81.8878 113.884 81.876 113.232C81.8701 112.916 81.8523 112.597 81.876 112.281C81.9056 111.897 81.9381 111.537 81.3643 111.463V111.466Z" fill="white"/>
<path d="M60.1607 113.925C59.9714 113.925 59.8738 113.917 59.7791 113.925C59.5099 113.952 59.4182 113.855 59.4271 113.571C59.4508 112.866 59.433 112.16 59.4478 111.454C59.4478 111.325 59.4951 111.112 59.572 111.085C59.6992 111.041 59.8767 111.1 60.0217 111.147C60.1163 111.18 60.1932 111.268 60.279 111.33C60.279 111.286 60.2761 111.242 60.2731 111.198C60.5216 111.136 60.7671 111.041 61.0156 111.026C61.0955 111.021 61.2315 111.218 61.2641 111.342C61.3173 111.549 61.1487 111.602 60.9742 111.623C60.2938 111.705 60.1932 111.803 60.1666 112.488C60.1489 112.948 60.1637 113.409 60.1637 113.922L60.1607 113.925Z" fill="white"/>
<path d="M28.9821 112.296C28.9821 111.856 28.994 111.416 28.9762 110.979C28.9703 110.773 29.0295 110.693 29.2425 110.699C29.6714 110.708 30.1033 110.69 30.5322 110.702C31.0854 110.716 31.4995 111.112 31.4965 111.605C31.4965 112.098 31.0144 112.582 30.4997 112.597C30.192 112.606 29.8814 112.579 29.5797 112.612C29.485 112.621 29.3371 112.762 29.3282 112.857C29.2987 113.134 29.343 113.418 29.3223 113.695C29.3164 113.781 29.1981 113.861 29.13 113.943C29.0857 113.858 29.0088 113.775 29.0058 113.689C28.994 113.226 28.9999 112.762 28.9999 112.299H28.9792L28.9821 112.296ZM29.417 112.287C29.7069 112.287 29.9642 112.287 30.2216 112.287C30.2719 112.287 30.3192 112.287 30.3695 112.284C30.8458 112.24 31.0765 112.018 31.0765 111.611C31.0765 111.251 30.8576 111.05 30.3843 111.018C30.0707 110.997 29.7542 111.015 29.417 111.015V112.29V112.287Z" fill="white"/>
<path d="M48.6149 113.858C48.4256 112.759 48.5705 110.829 48.9373 110.649C48.9492 110.926 48.9699 111.168 48.9699 111.41C48.9699 111.62 49.0113 111.738 49.2687 111.664C49.878 111.487 50.2123 111.578 50.5022 111.977C50.7773 112.358 50.7773 113.087 50.5022 113.503C50.1857 113.982 49.8307 114.088 49.2923 113.92C49.0823 113.855 48.8456 113.875 48.612 113.858H48.6149ZM48.8693 112.709L48.9433 112.756C48.964 112.901 48.9788 113.046 49.0024 113.19C49.0557 113.518 49.2568 113.719 49.5822 113.757C49.9046 113.796 50.1709 113.615 50.2212 113.326C50.2862 112.957 50.3099 112.553 50.2212 112.195C50.1117 111.77 49.5881 111.664 49.2864 111.986C49.1 112.184 49.0054 112.467 48.8693 112.712V112.709Z" fill="white"/>
<path d="M109.377 113.902C109.377 113.013 109.372 112.151 109.38 111.289C109.383 111.026 109.644 110.947 109.886 111.156C110.064 111.31 110.158 111.328 110.336 111.156C110.445 111.053 110.646 111.015 110.812 111.003C111.075 110.982 111.176 111.136 111.155 111.395C111.135 111.652 110.984 111.652 110.794 111.602C110.513 111.525 110.312 111.661 110.25 111.903C110.15 112.299 110.111 112.709 110.052 113.114C110.04 113.196 110.052 113.285 110.049 113.37C110.043 113.77 109.818 113.947 109.375 113.902H109.377Z" fill="white"/>
<path d="M35.2414 114.046C34.7326 113.264 34.6764 112.393 34.4338 111.581C34.8598 111.714 34.8036 112.122 34.9219 112.417C35.0491 112.739 35.1112 113.087 35.2976 113.435C35.4869 112.812 35.6762 112.19 35.8981 111.452C36.4424 112.063 36.3744 112.807 36.7175 113.441C36.9364 112.759 37.1375 112.131 37.3387 111.502C37.3919 111.519 37.4452 111.534 37.5014 111.552C37.4008 112.399 37.1109 113.19 36.7382 114.073C36.2087 113.5 36.3477 112.745 35.9306 112.225C35.5993 112.786 35.7177 113.491 35.2414 114.044V114.046Z" fill="white"/>
<path d="M46.4201 110.613C46.6626 110.908 46.7484 113.294 46.633 113.843C46.3136 113.893 46.0266 113.931 45.7426 113.982C45.3818 114.044 44.8907 113.754 44.7339 113.326C44.5624 112.86 44.589 112.387 44.8996 111.971C45.1629 111.617 45.506 111.525 45.9379 111.661C46.0385 111.694 46.142 111.714 46.3047 111.756C46.3047 111.528 46.2929 111.351 46.3076 111.174C46.3224 111.015 46.3698 110.858 46.4201 110.61V110.613ZM44.9854 112.727C45.0031 112.73 45.0209 112.736 45.0386 112.739C45.0386 112.86 44.9942 113.007 45.0475 113.099C45.1747 113.317 45.3167 113.565 45.5208 113.689C45.6362 113.76 45.9231 113.654 46.071 113.545C46.4822 113.232 46.4496 112.257 46.0444 111.927C45.6746 111.626 45.4202 111.64 45.1688 112.048C45.0504 112.24 45.0445 112.5 44.9883 112.727H44.9854Z" fill="white"/>
<path d="M62.4441 113.917H61.6454C61.6454 113.007 61.6306 112.122 61.6543 111.236C61.6632 110.917 61.956 111.077 62.1217 111.056C62.2696 111.038 62.453 111.029 62.45 111.28C62.4441 112.145 62.45 113.007 62.45 113.917H62.4441Z" fill="white"/>
<path d="M38.2854 112.889C38.2588 113.249 38.4747 113.633 38.7676 113.734C39.0782 113.843 39.3355 113.766 39.5456 113.494C39.6491 113.362 39.8148 113.273 39.9834 113.137C39.9834 113.613 39.4184 114.07 38.9628 114.032C38.3032 113.979 37.8328 113.373 37.892 112.656C37.9511 111.956 38.4333 111.525 39.1107 111.57C39.6698 111.605 40.0514 112.116 40.0751 112.674C40.0751 112.739 39.8887 112.872 39.7822 112.874C39.2823 112.895 38.7794 112.883 38.2824 112.883L38.2854 112.889ZM38.2795 112.564C38.6818 112.564 39.0604 112.567 39.4391 112.564C39.7231 112.562 39.7378 112.393 39.6284 112.198C39.4687 111.912 39.2261 111.732 38.88 111.782C38.525 111.835 38.2913 112.145 38.2824 112.567L38.2795 112.564Z" fill="white"/>
<path d="M42.3881 112.889C42.4206 113.32 42.6099 113.601 42.9412 113.742C43.172 113.84 43.4145 113.79 43.6068 113.574C43.7518 113.412 43.9381 113.285 44.1688 113.09C44.0624 113.834 43.2844 114.197 42.6691 113.893C42.178 113.654 41.9325 113.031 42.0893 112.417C42.2372 111.832 42.6365 111.543 43.2489 111.567C43.7665 111.587 44.299 112.198 44.2132 112.706C44.2014 112.78 44.0298 112.874 43.9322 112.88C43.4323 112.898 42.9294 112.889 42.3851 112.889H42.3881ZM42.4265 112.57C42.8377 112.57 43.2252 112.582 43.6127 112.567C43.8642 112.559 43.8405 112.378 43.7547 112.231C43.595 111.959 43.3761 111.735 43.03 111.764C42.7046 111.794 42.4443 112.145 42.4265 112.573V112.57Z" fill="white"/>
<path d="M114.835 111.08C114.939 111.071 115.01 111.059 115.081 111.056C115.575 111.041 115.578 111.047 115.578 111.519C115.578 112.213 115.563 112.907 115.587 113.598C115.598 113.946 115.397 113.92 115.167 113.925C114.93 113.931 114.82 113.875 114.826 113.598C114.847 112.771 114.835 111.947 114.835 111.077V111.08Z" fill="white"/>
<path d="M31.9135 112.753C31.9223 112.045 32.4252 111.481 33.0287 111.502C33.6292 111.522 34.138 112.125 34.1173 112.798C34.0966 113.545 33.6085 114.017 32.8837 113.999C32.3069 113.984 31.9046 113.468 31.9135 112.756V112.753ZM33.7534 112.718C33.7534 112.139 33.4547 111.767 32.9843 111.717C32.6974 111.688 32.3631 112.03 32.2537 112.476C32.2241 112.594 32.2063 112.718 32.2122 112.836C32.233 113.282 32.6205 113.737 32.9725 113.751C33.3067 113.766 33.6588 113.394 33.7357 112.934C33.7505 112.851 33.7505 112.762 33.7534 112.718Z" fill="white"/>
<path d="M101.426 111.056C101.583 111.056 101.713 111.026 101.822 111.065C101.92 111.1 102.065 111.204 102.068 111.28C102.086 112.142 102.08 113.001 102.08 113.902C101.849 113.911 101.648 113.92 101.429 113.931V111.056H101.426Z" fill="white"/>
<path d="M52.1321 113.506C52.4191 112.789 52.6735 112.148 52.9308 111.508C52.9841 111.522 53.0403 111.537 53.0935 111.549C53.0758 111.688 53.0846 111.838 53.0344 111.965C52.7119 112.804 52.3836 113.639 52.0404 114.472C51.9369 114.72 51.7949 114.973 51.4636 114.938C51.3601 114.926 51.2654 114.823 51.085 114.708C51.2654 114.643 51.3187 114.619 51.3749 114.607C51.8659 114.51 52.0316 114.203 51.857 113.725C51.644 113.143 51.4311 112.562 51.227 111.977C51.1796 111.838 51.1737 111.682 51.2003 111.519C51.7091 112.066 51.7417 112.83 52.1321 113.506Z" fill="white"/>
<path d="M40.5866 111.702C40.9061 111.652 41.125 111.617 41.341 111.587C41.4356 111.576 41.5421 111.546 41.6279 111.573C41.7048 111.596 41.7551 111.691 41.8202 111.753C41.7581 111.8 41.6989 111.871 41.6309 111.888C41.4445 111.933 41.1457 111.897 41.0895 112.001C40.9771 112.21 40.9771 112.488 40.9594 112.739C40.9387 113.055 40.9535 113.37 40.9298 113.683C40.9239 113.766 40.8292 113.84 40.776 113.92C40.7138 113.849 40.5955 113.778 40.5926 113.707C40.5778 113.007 40.5837 112.305 40.5837 111.702H40.5866Z" fill="white"/>
<path d="M62.4177 110.557C62.1396 110.457 61.7432 110.77 61.6515 110.285C61.6013 110.014 61.7935 109.878 62.0864 109.896C62.4266 109.916 62.4798 109.996 62.4177 110.56V110.557Z" fill="white"/>
<path d="M114.829 110.229C114.803 109.97 114.977 109.899 115.211 109.893C115.471 109.884 115.569 110.008 115.581 110.265C115.593 110.536 115.448 110.554 115.243 110.545C115.033 110.536 114.806 110.569 114.829 110.226V110.229Z" fill="white"/>
<path d="M101.385 110.595C101.473 110.274 101.219 109.925 101.686 109.884C101.964 109.86 102.118 110.02 102.089 110.28C102.038 110.728 101.68 110.465 101.382 110.595H101.385Z" fill="white"/>
</svg>
