<svg width="165" height="279" viewBox="0 0 165 279" fill="none" xmlns="http://www.w3.org/2000/svg">
<g clip-path="url(#clip0_326_24812)">
<path d="M11.8772 259.939C11.8772 258.366 12.2284 256.962 12.9306 255.725C13.6482 254.473 14.6176 253.504 15.8389 252.817C17.0755 252.114 18.4572 251.763 19.9838 251.763C21.77 251.763 23.3349 252.221 24.6783 253.137C26.0218 254.053 26.9607 255.32 27.495 256.939H23.8081C23.4417 256.175 22.9227 255.603 22.2509 255.221C21.5945 254.84 20.8311 254.649 19.9609 254.649C19.0297 254.649 18.1976 254.87 17.4648 255.313C16.7473 255.74 16.1824 256.351 15.7702 257.145C15.3733 257.939 15.1748 258.87 15.1748 259.939C15.1748 260.992 15.3733 261.923 15.7702 262.732C16.1824 263.526 16.7473 264.145 17.4648 264.587C18.1976 265.015 19.0297 265.229 19.9609 265.229C20.8311 265.229 21.5945 265.038 22.2509 264.656C22.9227 264.259 23.4417 263.679 23.8081 262.916H27.495C26.9607 264.549 26.0218 265.824 24.6783 266.74C23.3501 267.641 21.7853 268.091 19.9838 268.091C18.4572 268.091 17.0755 267.748 15.8389 267.061C14.6176 266.358 13.6482 265.389 12.9306 264.152C12.2284 262.916 11.8772 261.511 11.8772 259.939ZM42.0269 261.336C42.0269 261.794 41.9963 262.206 41.9353 262.572H32.6608C32.7371 263.488 33.0577 264.206 33.6226 264.725C34.1874 265.244 34.8821 265.503 35.7065 265.503C36.8973 265.503 37.7446 264.992 38.2484 263.969H41.7063C41.3399 265.19 40.6376 266.198 39.5995 266.992C38.5613 267.77 37.2866 268.16 35.7752 268.16C34.5538 268.16 33.4546 267.893 32.4776 267.358C31.5158 266.809 30.7601 266.038 30.2105 265.045C29.6761 264.053 29.409 262.908 29.409 261.61C29.409 260.297 29.6761 259.145 30.2105 258.152C30.7448 257.16 31.4929 256.397 32.4547 255.862C33.4165 255.328 34.5233 255.061 35.7752 255.061C36.9812 255.061 38.0575 255.32 39.0041 255.84C39.9659 256.359 40.7063 257.099 41.2254 258.061C41.7597 259.007 42.0269 260.099 42.0269 261.336ZM38.7064 260.42C38.6911 259.595 38.3934 258.939 37.8133 258.45C37.2331 257.946 36.5232 257.694 35.6836 257.694C34.8897 257.694 34.218 257.939 33.6684 258.427C33.134 258.9 32.8058 259.565 32.6837 260.42H38.7064ZM47.573 257.236C47.9852 256.565 48.5195 256.038 49.176 255.656C49.8477 255.275 50.611 255.084 51.466 255.084V258.45H50.6187C49.6111 258.45 48.8477 258.687 48.3287 259.16C47.8249 259.633 47.573 260.458 47.573 261.633V267.954H44.367V255.267H47.573V257.236ZM57.3581 257.901V264.038C57.3581 264.465 57.4573 264.778 57.6558 264.977C57.8695 265.16 58.2206 265.251 58.7092 265.251H60.1977V267.954H58.1825C55.4803 267.954 54.1292 266.641 54.1292 264.015V257.901H52.6178V255.267H54.1292V252.13H57.3581V255.267H60.1977V257.901H57.3581ZM64.1295 253.756C63.5646 253.756 63.0914 253.58 62.7097 253.229C62.3433 252.863 62.1601 252.412 62.1601 251.878C62.1601 251.343 62.3433 250.901 62.7097 250.55C63.0914 250.183 63.5646 250 64.1295 250C64.6944 250 65.16 250.183 65.5264 250.55C65.9081 250.901 66.0989 251.343 66.0989 251.878C66.0989 252.412 65.9081 252.863 65.5264 253.229C65.16 253.58 64.6944 253.756 64.1295 253.756ZM65.7096 255.267V267.954H62.5036V255.267H65.7096ZM74.6937 257.901H72.4724V267.954H69.2206V257.901H67.7779V255.267H69.2206V254.626C69.2206 253.069 69.6634 251.924 70.5488 251.191C71.4343 250.458 72.7701 250.115 74.5563 250.16V252.863C73.7777 252.847 73.2358 252.977 72.9304 253.252C72.6251 253.527 72.4724 254.023 72.4724 254.74V255.267H74.6937V257.901ZM78.3973 253.756C77.8324 253.756 77.3591 253.58 76.9775 253.229C76.6111 252.863 76.4279 252.412 76.4279 251.878C76.4279 251.343 76.6111 250.901 76.9775 250.55C77.3591 250.183 77.8324 250 78.3973 250C78.9621 250 79.4278 250.183 79.7942 250.55C80.1758 250.901 80.3667 251.343 80.3667 251.878C80.3667 252.412 80.1758 252.863 79.7942 253.229C79.4278 253.58 78.9621 253.756 78.3973 253.756ZM79.9774 255.267V267.954H76.7714V255.267H79.9774ZM82.3205 261.61C82.3205 260.297 82.5877 259.152 83.122 258.175C83.6563 257.183 84.3968 256.42 85.3433 255.885C86.2898 255.336 87.3738 255.061 88.5951 255.061C90.1676 255.061 91.4652 255.458 92.4881 256.252C93.5262 257.03 94.2209 258.13 94.572 259.549H91.1141C90.9309 259 90.6179 258.572 90.1752 258.267C89.7477 257.946 89.2134 257.786 88.5722 257.786C87.6562 257.786 86.931 258.122 86.3967 258.794C85.8624 259.45 85.5952 260.389 85.5952 261.61C85.5952 262.816 85.8624 263.755 86.3967 264.427C86.931 265.083 87.6562 265.412 88.5722 265.412C89.8699 265.412 90.7172 264.832 91.1141 263.671H94.572C94.2209 265.045 93.5262 266.137 92.4881 266.946C91.45 267.755 90.1523 268.16 88.5951 268.16C87.3738 268.16 86.2898 267.893 85.3433 267.358C84.3968 266.809 83.6563 266.045 83.122 265.068C82.5877 264.076 82.3205 262.923 82.3205 261.61ZM96.0963 261.565C96.0963 260.282 96.3482 259.145 96.852 258.152C97.371 257.16 98.0657 256.397 98.9359 255.862C99.8213 255.328 100.806 255.061 101.89 255.061C102.837 255.061 103.661 255.252 104.363 255.633C105.081 256.015 105.653 256.496 106.081 257.076V255.267H109.31V267.954H106.081V266.099C105.668 266.694 105.096 267.19 104.363 267.587C103.646 267.969 102.814 268.16 101.867 268.16C100.798 268.16 99.8213 267.885 98.9359 267.335C98.0657 266.786 97.371 266.015 96.852 265.022C96.3482 264.015 96.0963 262.862 96.0963 261.565ZM106.081 261.61C106.081 260.832 105.928 260.168 105.623 259.618C105.317 259.053 104.905 258.626 104.386 258.336C103.867 258.03 103.31 257.878 102.714 257.878C102.119 257.878 101.569 258.023 101.066 258.313C100.562 258.603 100.15 259.03 99.829 259.595C99.5236 260.145 99.371 260.801 99.371 261.565C99.371 262.328 99.5236 263 99.829 263.58C100.15 264.145 100.562 264.58 101.066 264.885C101.585 265.19 102.134 265.343 102.714 265.343C103.31 265.343 103.867 265.198 104.386 264.908C104.905 264.603 105.317 264.175 105.623 263.626C105.928 263.061 106.081 262.389 106.081 261.61ZM111.616 261.565C111.616 260.282 111.868 259.145 112.372 258.152C112.891 257.16 113.593 256.397 114.479 255.862C115.364 255.328 116.349 255.061 117.433 255.061C118.257 255.061 119.044 255.244 119.792 255.611C120.54 255.962 121.135 256.435 121.578 257.03V251.008H124.83V267.954H121.578V266.076C121.181 266.702 120.624 267.206 119.906 267.587C119.189 267.969 118.357 268.16 117.41 268.16C116.341 268.16 115.364 267.885 114.479 267.335C113.593 266.786 112.891 266.015 112.372 265.022C111.868 264.015 111.616 262.862 111.616 261.565ZM121.601 261.61C121.601 260.832 121.448 260.168 121.143 259.618C120.837 259.053 120.425 258.626 119.906 258.336C119.387 258.03 118.83 257.878 118.234 257.878C117.639 257.878 117.089 258.023 116.586 258.313C116.082 258.603 115.67 259.03 115.349 259.595C115.044 260.145 114.891 260.801 114.891 261.565C114.891 262.328 115.044 263 115.349 263.58C115.67 264.145 116.082 264.58 116.586 264.885C117.105 265.19 117.654 265.343 118.234 265.343C118.83 265.343 119.387 265.198 119.906 264.908C120.425 264.603 120.837 264.175 121.143 263.626C121.448 263.061 121.601 262.389 121.601 261.61ZM133.594 268.16C132.373 268.16 131.274 267.893 130.297 267.358C129.32 266.809 128.549 266.038 127.984 265.045C127.434 264.053 127.159 262.908 127.159 261.61C127.159 260.313 127.442 259.168 128.007 258.175C128.587 257.183 129.373 256.42 130.365 255.885C131.358 255.336 132.465 255.061 133.686 255.061C134.907 255.061 136.014 255.336 137.006 255.885C137.999 256.42 138.777 257.183 139.342 258.175C139.922 259.168 140.212 260.313 140.212 261.61C140.212 262.908 139.915 264.053 139.319 265.045C138.739 266.038 137.945 266.809 136.938 267.358C135.945 267.893 134.831 268.16 133.594 268.16ZM133.594 265.366C134.174 265.366 134.716 265.229 135.22 264.954C135.739 264.664 136.151 264.236 136.457 263.671C136.762 263.106 136.915 262.419 136.915 261.61C136.915 260.404 136.594 259.481 135.953 258.839C135.327 258.183 134.556 257.855 133.64 257.855C132.724 257.855 131.953 258.183 131.327 258.839C130.717 259.481 130.411 260.404 130.411 261.61C130.411 262.816 130.709 263.748 131.304 264.404C131.915 265.045 132.678 265.366 133.594 265.366ZM147.419 268.16C146.381 268.16 145.45 267.977 144.625 267.61C143.801 267.228 143.144 266.717 142.656 266.076C142.182 265.435 141.923 264.725 141.877 263.946H145.106C145.167 264.435 145.404 264.839 145.816 265.16C146.243 265.48 146.77 265.641 147.396 265.641C148.007 265.641 148.48 265.519 148.816 265.274C149.167 265.03 149.343 264.717 149.343 264.335C149.343 263.923 149.129 263.618 148.701 263.419C148.289 263.206 147.625 262.977 146.709 262.732C145.762 262.503 144.984 262.267 144.373 262.023C143.778 261.778 143.259 261.404 142.816 260.9C142.389 260.397 142.175 259.717 142.175 258.862C142.175 258.16 142.373 257.519 142.77 256.939C143.182 256.359 143.763 255.901 144.511 255.565C145.274 255.229 146.167 255.061 147.19 255.061C148.701 255.061 149.907 255.443 150.808 256.206C151.709 256.954 152.205 257.969 152.297 259.252H149.228C149.182 258.748 148.968 258.351 148.587 258.061C148.22 257.755 147.724 257.603 147.098 257.603C146.518 257.603 146.068 257.71 145.747 257.923C145.442 258.137 145.289 258.435 145.289 258.817C145.289 259.244 145.503 259.572 145.93 259.801C146.358 260.015 147.022 260.236 147.923 260.465C148.839 260.694 149.594 260.931 150.19 261.175C150.785 261.419 151.297 261.801 151.724 262.32C152.167 262.824 152.396 263.496 152.411 264.335C152.411 265.068 152.205 265.725 151.793 266.305C151.396 266.885 150.816 267.343 150.052 267.679C149.304 267.999 148.427 268.16 147.419 268.16Z" fill="white"/>
<path opacity="0.2" d="M43.025 217.475C40.3893 219.389 36.1266 219.389 33.4745 217.454C30.8225 215.519 30.8225 212.39 33.442 210.476C36.0777 208.562 40.3405 208.562 42.9925 210.497C45.6445 212.432 45.6445 215.56 43.025 217.475Z" fill="black"/>
<path d="M115.379 186.908L55.7822 143.085C56.1727 143.373 56.7096 143.332 57.2953 142.9C58.4668 142.035 59.4267 139.956 59.4104 138.269L119.008 182.092C119.008 183.8 118.064 185.879 116.892 186.723C116.307 187.155 115.77 187.197 115.379 186.908Z" fill="url(#paint0_linear_326_24812)"/>
<path d="M114.793 188.205L55.1963 144.381C54.6594 143.99 54.334 143.167 54.334 141.973L113.931 185.796C113.931 186.97 114.256 187.814 114.793 188.205Z" fill="#CDCDCD"/>
<path d="M113.915 185.241L54.3184 141.418L55.1644 140.8L114.761 184.624L113.915 185.241Z" fill="#CDCDCD"/>
<path d="M113.932 185.797L54.3184 141.973V141.417L113.915 185.241L113.932 185.797Z" fill="#CDCDCD"/>
<path d="M122.863 46.669C122.863 46.0104 122.684 45.5575 122.374 45.3311L62.7773 1.50781C63.0702 1.73424 63.2654 2.18708 63.2654 2.84577V6.98315L122.879 50.8064V46.669H122.863Z" fill="url(#paint1_linear_326_24812)"/>
<path d="M119.022 182.091L59.4091 138.268L59.1162 5.87158L118.713 49.6948L119.022 182.091Z" fill="url(#paint2_linear_326_24812)"/>
<path d="M63.3809 0.211273C62.9253 -0.11807 62.2908 -0.0769025 61.6074 0.437697L121.204 44.261C121.904 43.7464 122.522 43.7052 122.978 44.0345L63.3809 0.211273Z" fill="url(#paint3_linear_326_24812)"/>
<path d="M121.206 44.2608C122.589 43.2522 123.712 44.0549 123.712 46.0516V50.189L122.882 50.8065V46.6691C122.882 45.3517 122.117 44.8165 121.206 45.4752C120.295 46.1339 119.563 47.7601 119.563 49.0774L119.856 181.453C119.856 183.82 118.538 186.743 116.894 187.937C115.251 189.131 113.917 188.163 113.917 185.796V185.24L114.763 184.623V185.179C114.763 186.887 115.723 187.566 116.894 186.722C118.066 185.878 119.026 183.779 119.01 182.091L118.717 49.7155C118.717 47.7189 119.823 45.2694 121.206 44.2814V44.2608Z" fill="#DFE2E9"/>
<path d="M118.713 49.6949L59.1162 5.87167C59.1162 3.87502 60.2226 1.42553 61.6055 0.4375L121.203 44.2608C119.836 45.2694 118.713 47.6983 118.713 49.6949Z" fill="url(#paint4_linear_326_24812)"/>
<path d="M102.526 70.63L73.6632 49.552C72.8497 48.9551 72.1826 47.3495 72.1826 45.9704C72.1826 44.5913 72.8497 43.9532 73.6632 44.5501L102.526 65.6281C103.34 66.225 104.007 67.8306 104.007 69.2097C104.007 70.5888 103.34 71.2269 102.526 70.63Z" fill="#C6D2D5"/>
<path d="M108.464 95.5776L67.7237 65.8132C66.9102 65.2163 66.2432 63.6107 66.2432 62.2316C66.2432 60.8525 66.9102 60.2144 67.7237 60.8113L108.464 90.5757C109.277 91.1727 109.944 92.7782 109.944 94.1574C109.944 95.5365 109.277 96.1746 108.464 95.5776Z" fill="#C6D2D5"/>
<path d="M108.464 107.393L67.7237 77.6282C66.9102 77.0312 66.2432 75.4257 66.2432 74.0466C66.2432 72.6674 66.9102 72.0293 67.7237 72.6263L108.464 102.391C109.277 102.988 109.944 104.593 109.944 105.972C109.944 107.351 109.277 107.99 108.464 107.393Z" fill="#C6D2D5"/>
<path d="M99.9546 112.971L67.7237 89.4226C66.9102 88.8257 66.2432 87.2201 66.2432 85.841C66.2432 84.4619 66.9102 83.8238 67.7237 84.4207L99.9546 107.969C100.768 108.566 101.435 110.171 101.435 111.55C101.435 112.929 100.768 113.568 99.9546 112.971Z" fill="#C6D2D5"/>
<path d="M108.464 130.981L67.7237 101.217C66.9102 100.62 66.2432 99.0146 66.2432 97.6354C66.2432 96.2563 66.9102 95.6182 67.7237 96.2151L108.464 125.98C109.277 126.576 109.944 128.182 109.944 129.561C109.944 130.94 109.277 131.578 108.464 130.981Z" fill="#C6D2D5"/>
<path d="M80.1866 122.131L67.7237 113.033C66.9102 112.436 66.2432 110.83 66.2432 109.451C66.2432 108.072 66.9102 107.434 67.7237 108.031L80.1866 117.129C81.0001 117.726 81.6671 119.332 81.6671 120.711C81.6671 122.09 81.0001 122.728 80.1866 122.131Z" fill="#C6D2D5"/>
<path d="M43.4819 120.01C44.7022 118.734 48.6883 114.432 49.0626 114.308C49.4205 114.185 50.413 114.206 51.2102 113.567C52.0074 112.929 52.2677 112.312 52.2677 112.312C52.2677 112.312 54.334 110.645 54.6594 110.253C54.9848 109.862 54.8547 109.121 54.8547 109.121C54.8547 109.121 55.0987 108.751 55.0825 108.339C55.0825 107.927 54.7896 107.207 54.7896 107.207C54.7896 107.207 54.5944 105.746 53.4229 106.342C52.2515 106.939 50.5269 107.598 50.1526 108.174C49.7784 108.751 47.7121 110.768 47.7121 110.768L39.5283 116.202L43.4819 120.01Z" fill="#FF9071"/>
<mask id="mask0_326_24812" style="mask-type:luminance" maskUnits="userSpaceOnUse" x="56" y="98" width="2" height="1">
<path d="M56.582 98.458L57.1352 98.6638C57.1352 98.6638 57.2166 98.705 57.2654 98.7256L56.7122 98.5198C56.7122 98.5198 56.6308 98.458 56.582 98.458Z" fill="white"/>
</mask>
<g mask="url(#mask0_326_24812)">
<path d="M56.582 98.458L57.1352 98.6638C57.1352 98.6638 57.2166 98.705 57.2654 98.7256L56.7122 98.5198C56.7122 98.5198 56.6308 98.458 56.582 98.458Z" fill="#3C3D41"/>
</g>
<mask id="mask1_326_24812" style="mask-type:luminance" maskUnits="userSpaceOnUse" x="59" y="123" width="3" height="2">
<path d="M60.5053 124.395L59.9521 124.189C60.2775 124.313 60.6518 124.066 60.847 123.572L61.4002 123.778C61.2212 124.272 60.847 124.519 60.5053 124.395Z" fill="white"/>
</mask>
<g mask="url(#mask1_326_24812)">
<path d="M60.849 123.572L61.4021 123.778C61.2232 124.272 60.849 124.519 60.5073 124.396L59.9541 124.19C60.2795 124.313 60.6537 124.066 60.849 123.572Z" fill="#3C3D41"/>
</g>
<path d="M56.7119 98.5405L57.2651 98.7464L67.2386 106.033L66.6854 105.827L56.7119 98.5405Z" fill="#3C3D41"/>
<path d="M66.944 107.31L67.4972 107.516L61.396 123.777L60.8428 123.571L66.944 107.31Z" fill="#3C3D41"/>
<mask id="mask2_326_24812" style="mask-type:luminance" maskUnits="userSpaceOnUse" x="66" y="105" width="2" height="3">
<path d="M66.6855 105.828L67.2387 106.033C67.5967 106.28 67.7106 106.96 67.499 107.516L66.9459 107.31C67.1574 106.754 67.0435 106.075 66.6855 105.828Z" fill="white"/>
</mask>
<g mask="url(#mask2_326_24812)">
<path d="M66.6855 105.828L67.2387 106.033C67.5967 106.28 67.7106 106.96 67.499 107.516L66.9459 107.31C67.1574 106.754 67.0435 106.075 66.6855 105.828Z" fill="#3C3D41"/>
</g>
<path d="M66.6854 105.828C67.0433 106.075 67.1572 106.754 66.9457 107.31L60.8444 123.571C60.6329 124.127 60.1774 124.374 59.8194 124.127L49.8459 116.84C49.488 116.593 49.3741 115.914 49.5856 115.358L55.6868 99.0968C55.8983 98.5411 56.3539 98.2941 56.7119 98.5411L66.6854 105.828Z" fill="#45464A"/>
<path d="M65.9681 106.28C66.2935 106.507 66.3911 107.124 66.1959 107.639L60.6152 122.521C60.42 123.036 59.997 123.262 59.6879 123.036L50.5604 116.366C50.235 116.14 50.1374 115.523 50.3326 115.008L55.9132 100.126C56.1085 99.6111 56.5315 99.3847 56.8406 99.6111L65.9681 106.28Z" fill="#3ADCC9"/>
<path d="M33.3952 110.357C29.2952 108.031 27.0337 108.957 25.9598 110.501C24.886 112.045 24.3654 115.462 25.5043 118.837C26.6432 122.213 33.4115 110.357 33.4115 110.357H33.3952Z" fill="#F6F5F9"/>
<path d="M38.6994 209.592L38.9435 209.921C38.9435 209.921 38.8947 211.012 38.6343 211.527C38.374 212.041 37.5442 212.186 35.6407 212.144C33.7371 212.103 32.8585 210.456 32.6307 209.633C32.224 208.089 31.2966 207.945 31.2966 207.945L29.7509 206.443C29.7509 206.443 29.3604 205.31 29.4581 204.755C29.5557 204.199 31.3454 204.137 31.3454 204.137L33.8672 207.739L38.6994 209.571V209.592Z" fill="#3AB1C9"/>
<path d="M29.6028 211.424C29.6028 211.424 29.7818 211.712 30.0259 211.795C30.3838 211.918 30.758 211.712 30.8394 211.424C30.9532 211.033 31.0346 208.522 31.2949 208.275C31.6203 207.986 32.1084 208.522 32.1084 208.522C32.1084 208.522 31.2624 205.228 30.579 204.961C29.8957 204.693 29.5215 205.537 29.5215 205.537C29.5215 205.537 29.6679 206.196 29.6679 207.122C29.6679 207.801 29.6191 211.259 29.6354 211.424H29.6028Z" fill="#3AB1C9"/>
<path d="M35.934 206.792C35.934 206.792 37.203 207.883 37.9189 208.089C38.6185 208.315 39.0253 209.015 38.9602 209.818C38.8951 210.6 38.0328 210.991 36.959 211.341C35.8851 211.691 34.3883 211.773 33.3633 209.221C32.3383 206.668 31.4272 204.857 30.7276 204.754C30.0279 204.651 29.4748 204.754 29.4748 204.754C29.4748 204.754 29.3446 201.728 30.7764 202.099C32.2081 202.469 33.0216 202.86 33.0216 202.86L35.9502 206.813L35.934 206.792Z" fill="#3AB1C9"/>
<path d="M35.6083 197.983C35.3317 199.979 34.5833 203.993 37.0076 206.051C37.9349 207.389 37.5119 209.077 36.4544 208.666C36.0476 208.501 35.7385 207.986 35.4456 207.348C34.9738 206.34 34.5508 205.084 33.7698 204.59C31.6547 203.252 30.5158 203.458 30.6948 202.429C30.8738 201.399 30.646 192.939 30.7273 184.953C30.8249 176.966 32.9075 174.085 32.7285 172.335C32.6309 171.45 31.9476 168.012 31.248 164.06C30.6134 160.334 29.9626 156.156 29.8325 153.192C29.6372 148.458 28.5471 142.138 38.1139 140.142C38.1139 140.142 41.1239 150.825 40.0338 160.19C38.9437 169.577 35.95 195.533 35.6083 197.941V197.983Z" fill="#FF9A8E"/>
<path d="M36.7794 176.884C34.7619 178.881 36.2588 180.322 35.2988 184.459C34.3389 188.597 33.3464 201.626 34.1762 203.232C34.9084 204.673 35.1361 205.023 35.4127 207.369C34.9409 206.361 34.5179 205.105 33.7369 204.611C31.6218 203.273 30.4829 203.479 30.6619 202.45C30.8409 201.42 30.6131 192.96 30.6944 184.974C30.7921 176.987 32.8746 174.105 32.6956 172.356C32.598 171.471 31.9147 168.033 31.2151 164.081C33.4278 164.122 35.4941 165.687 36.5191 166.139C38.439 167.004 38.7644 174.888 36.7469 176.864L36.7794 176.884Z" fill="#FF7463"/>
<path d="M46.0216 213.482C46.0216 213.482 47.9252 212.35 47.8764 212.988C47.8276 213.605 47.4697 214.491 47.2907 214.82C47.1117 215.149 44.7851 216.22 43.2069 216.055C41.6287 215.89 41.3033 215.211 40.7339 214.367C40.1644 213.523 39.6601 212.741 39.3184 212.741C38.9767 212.741 37.366 213.132 36.4386 212.309C35.5112 211.485 35.56 210.456 35.56 210.456L37.5938 210.847L41.5311 212.906L46.0216 213.482Z" fill="#3AB1C9"/>
<path d="M38.9918 212.165C38.9918 212.165 38.4711 213.338 38.3898 213.585C38.3247 213.832 38.2596 216.097 38.2596 216.302C38.2596 216.405 37.7065 216.488 37.4624 216.447C37.1533 216.385 37.137 216.138 37.137 216.138C37.137 216.138 36.8441 213.03 36.5676 212.515C36.291 212 36.1445 211.506 36.1445 211.506C36.1445 211.506 37.9668 212.35 38.9918 212.165Z" fill="#3AB1C9"/>
<path d="M42.5053 210.806C42.5053 210.806 43.9046 210.168 44.6204 210.415C45.3363 210.662 47.5979 212 47.8419 212.618C48.086 213.235 46.5403 214.079 45.9058 214.635C45.2712 215.17 43.6442 215.685 42.5053 215.211C41.3664 214.758 40.6668 212.124 39.414 212.021C38.1612 211.918 37.1688 212.288 36.1438 211.506C35.1187 210.724 35.1187 207.081 36.1438 207.451C37.1688 207.822 42.5053 210.806 42.5053 210.806Z" fill="#3AB1C9"/>
<path d="M43.1895 212.741C43.1081 212.72 43.0268 212.679 42.9454 212.617C41.9855 211.897 41.3998 210.106 39.0894 209.015C36.7791 207.903 35.8354 209.015 36.0307 208.006C36.2096 206.977 36.0632 197.673 36.1608 189.687C36.2422 181.7 38.2597 177.707 38.0807 175.957C37.918 174.496 35.3473 169.926 35.3311 161.816C35.3311 160.293 35.4124 158.667 35.6239 156.917C36.1608 152.224 34.3386 145.863 43.8891 143.867C43.8891 143.867 45.9228 167.065 44.4423 176.348C43.0756 184.891 40.5537 201.049 40.7815 203.478C40.8954 204.713 40.3748 206.998 44.4097 210.353C45.451 211.3 44.1819 213.008 43.222 212.72L43.1895 212.741Z" fill="#FF9A8E"/>
<path d="M38.3898 186.743C37.9831 189.399 37.5275 206.195 38.6176 206.895C40.5375 208.13 42.4248 211.115 43.1895 212.741C43.1081 212.72 43.0268 212.679 42.9454 212.617C41.9855 211.897 41.3998 210.106 39.0894 209.015C36.7791 207.904 35.8354 209.015 36.0307 208.006C36.2096 206.977 36.0632 197.673 36.1608 189.687C36.2422 181.7 38.2597 177.707 38.0807 175.957C37.918 174.496 35.3473 169.926 35.3311 161.816C42.2133 155.867 44.2308 165.007 43.8891 167.415C42.0668 180.3 39.5775 179.189 38.4061 186.723L38.3898 186.743Z" fill="#FF7463"/>
<path d="M48.5574 171.079C48.5574 171.326 48.899 173.899 46.5724 175.505C45.5637 176.205 44.7177 176.637 43.7577 176.781C42.2772 177.028 40.5037 176.699 37.3148 175.916C32.027 174.62 29.7492 170.997 29.7492 170.997C29.7492 170.997 29.7492 165.871 28.773 154.591C28.1385 147.181 29.6028 142.838 30.6766 140.718C31.2461 139.606 31.7016 139.112 31.7016 139.112C31.7016 139.112 38.9093 138.165 43.4649 139.812C44.2296 140.08 44.8966 140.43 45.4661 140.862C45.9216 141.212 46.2958 141.603 46.5724 142.076C49.3058 146.646 48.5574 170.791 48.5574 171.059V171.079Z" fill="#2D3040"/>
<path d="M43.7577 176.802C42.2772 177.049 40.5037 176.72 37.3148 175.938C32.027 174.641 29.7492 171.018 29.7492 171.018C29.7492 171.018 29.7492 165.893 28.773 154.613C28.1385 147.203 29.6028 142.859 30.6766 140.739C30.6115 141.172 30.579 141.48 30.5627 141.583C30.4 142.654 31.002 144.938 36.5338 146.482C39.6414 147.347 41.8216 146.935 43.2534 146.235C43.2696 149.693 43.5788 153.748 44.4248 158.359C45.645 164.946 45.0105 172.418 43.774 176.802H43.7577Z" fill="#1E212A"/>
<path d="M38.0979 113.033C42.2468 115.77 44.4269 116.82 45.3706 118.673C46.3143 120.525 48.9825 126.474 48.8198 129.891C48.6571 133.308 48.0389 132.937 47.7623 136.354C47.4857 139.792 46.9651 141.171 46.7861 142.838C46.477 145.597 42.2793 149.178 34.2419 145.844C29.8653 143.476 30.3046 142.365 29.9304 139.421C29.5561 136.457 25.7815 121.904 25.3422 117.52C24.9029 113.136 27.0506 109.348 30.0605 109.348C32.7613 109.348 38.0816 113.033 38.0816 113.033H38.0979Z" fill="#E6EBF6"/>
<path d="M54.8385 130.384C54.3341 129.705 47.338 122.583 47.338 122.583C47.338 122.583 44.7023 121.368 43.5146 125.053C42.3268 128.737 42.2618 129.623 44.3606 131.331C46.4594 133.039 51.6008 136.436 53.7484 135.88C55.896 135.304 56.4167 132.875 56.4167 132.875L54.8385 130.405V130.384Z" fill="#FF9071"/>
<path d="M51.9414 133.41C51.5346 130.982 51.193 131.27 52.5271 129.623C53.8612 127.976 58.6934 120.998 59.1327 119.907C59.572 118.816 60.2391 116.84 60.6784 116.099C61.1177 115.358 62.1752 114.391 62.1752 114.391C62.1752 114.391 62.5169 113.732 63.0863 113.835C63.6558 113.938 63.3792 114.741 63.2002 114.988C63.0213 115.235 62.2891 116.12 62.2891 116.12C62.2891 116.12 62.1427 116.552 62.2078 116.758C62.2728 116.964 62.9236 117.046 63.3629 116.923C63.8022 116.799 64.2415 116.202 64.2415 116.202C64.2415 116.202 64.2903 115.955 64.4693 115.276C64.6483 114.597 64.9249 114.411 64.9249 114.411C64.9249 114.411 65.478 115.791 65.5919 116.141C65.6895 116.49 65.5106 117.005 65.5106 117.005C65.5106 117.005 65.657 117.437 65.6082 117.767C65.5594 118.075 65.1038 119.105 65.1038 119.105C65.1038 119.105 64.8272 120.031 64.6645 120.381C64.5018 120.731 64.03 121.492 63.6883 121.822C63.3467 122.151 62.5657 122.295 62.2403 122.522C61.9149 122.748 60.6133 123.283 60.5319 123.489C60.4506 123.695 58.2704 130.179 56.9037 132.731C55.5371 135.284 54.2029 135.716 54.2029 135.716L51.9414 133.41Z" fill="#FF9071"/>
<path d="M49.1756 112.353C50.8351 112.683 51.128 110.727 51.2582 110.398C51.3883 110.069 52.3483 109.163 52.8201 109.122C53.2919 109.08 53.9102 108.895 54.0241 107.99C53.7963 107.722 53.4872 107.948 53.4872 107.948C53.4872 107.948 52.2669 108.216 52.0554 108.257C51.8439 108.298 50.6399 108.854 50.282 109.183C49.924 109.513 48.9316 110.151 48.7038 110.686C48.476 111.221 48.2319 112.23 49.1756 112.353Z" fill="#FF9071"/>
<path d="M31.5564 102.493C32.077 103.666 31.8493 109.286 31.3286 109.986C30.808 110.686 30.0107 111.138 30.0107 111.138C30.0107 111.138 30.2385 112.332 33.2322 113.279C36.2422 114.247 38.8779 113.547 38.8779 113.547C38.8779 113.547 39.0569 108.627 39.366 108.339C39.6751 108.051 39.7402 108.833 41.2371 107.948C42.7339 107.063 43.3033 101.896 43.4335 101.196C43.5637 100.496 43.4823 93.7244 42.441 92.5717C41.3835 91.419 36.6977 91.5013 36.6977 91.5013L31.5564 102.473V102.493Z" fill="#FF9071"/>
<path d="M40.4396 102.123C40.4396 101.155 40.6023 100.476 40.1468 100.455C39.6912 100.435 39.1543 101.279 39.2845 102.576C39.4146 103.852 39.9841 105.354 40.1468 104.325C40.3095 103.296 40.4234 102.123 40.4234 102.123H40.4396Z" fill="#FF9071"/>
<path d="M41.2381 103.379C41.4821 102.864 42.2631 101.073 42.2468 99.6735C42.2306 98.2738 42.5234 97.3475 42.5234 97.3475C42.5234 97.3475 43.0441 94.6922 42.7187 92.5721C42.377 90.4519 39.4159 89.5462 39.4159 89.5462C39.4159 89.5462 38.1143 88.2083 35.511 88.0848C32.9078 87.9613 29.2959 90.9253 28.938 96.6065C28.5963 102.288 30.4185 102.411 30.7765 103.831C31.1344 105.252 31.4598 106.096 31.834 106.466C32.2245 106.837 32.192 107.166 33.884 107.516C35.5761 107.866 36.1944 107.557 36.5686 106.631C36.9428 105.705 38.0004 103.831 38.6837 103.626C39.367 103.42 39.9202 101.3 40.2294 100.95C40.5385 100.6 41.1405 100.867 41.2381 103.399V103.379Z" fill="#4D2A16"/>
<path d="M43.4499 116.552C42.2296 115.976 40.9606 117.458 40.9606 117.458C40.9606 117.458 38.9431 120.031 39.1383 123.921C39.3335 127.791 43.8078 131.414 44.5725 131.496C47.9729 131.825 49.6487 125.918 48.9654 123.509C46.8178 119.763 45.207 117.766 43.4661 116.552H43.4499Z" fill="#F6F5F9"/>
<path d="M31.4241 97.1208C29.4717 95.3505 24.5256 94.486 23.8585 101.793C23.4355 106.528 25.5994 108.977 25.9086 111.427C26.3153 114.638 26.1526 117.478 22.4756 117.952C24.5907 121.163 27.8122 121.822 31.1638 118.878C37.2813 113.506 28.7558 104.078 31.1638 101.155C31.8797 100.27 31.4404 97.1002 31.4404 97.1002L31.4241 97.1208Z" fill="#4D2A16"/>
<path d="M29.6025 96.2556C31.1807 95.8439 32.0268 99.8166 31.1319 101.175C32.4823 100.743 32.8565 99.9401 32.645 98.0258C32.4335 96.0909 31.0668 95.5763 29.6025 96.2556Z" fill="#3ADCC9"/>
<path opacity="0.1" d="M115.199 209.18C113.979 209.18 112.872 208.851 111.994 208.192L55.065 166.612C53.8448 165.707 53.1289 164.286 53.1289 162.681C53.1289 160.931 53.9587 159.325 55.4067 158.276L59.0675 155.6C60.1576 154.797 61.5242 154.365 62.9072 154.365C64.1274 154.365 65.2338 154.694 66.1124 155.353L123.041 196.932C124.261 197.838 124.977 199.258 124.977 200.864C124.977 202.614 124.148 204.219 122.699 205.269L119.039 207.945C117.949 208.748 116.582 209.18 115.199 209.18Z" fill="black"/>
</g>
<defs>
<linearGradient id="paint0_linear_326_24812" x1="86.2885" y1="165.666" x2="89.9991" y2="160.605" gradientUnits="userSpaceOnUse">
<stop offset="0.14" stop-color="#D9D9D9"/>
<stop offset="0.67" stop-color="#EFEFEF"/>
</linearGradient>
<linearGradient id="paint1_linear_326_24812" x1="91.9007" y1="28.1846" x2="94.4807" y2="24.6606" gradientUnits="userSpaceOnUse">
<stop offset="0.28" stop-color="#A7A7A7"/>
<stop offset="0.81" stop-color="#919191"/>
</linearGradient>
<linearGradient id="paint2_linear_326_24812" x1="59.1162" y1="93.971" x2="119.022" y2="93.971" gradientUnits="userSpaceOnUse">
<stop stop-color="#E6E8EB"/>
<stop offset="0.67" stop-color="#EFEFEF"/>
</linearGradient>
<linearGradient id="paint3_linear_326_24812" x1="91.9835" y1="22.9154" x2="92.8444" y2="21.7336" gradientUnits="userSpaceOnUse">
<stop offset="0.46" stop-color="#F7F7F7"/>
<stop offset="0.85" stop-color="#EFEFEF"/>
</linearGradient>
<linearGradient id="paint4_linear_326_24812" x1="88.6138" y1="27.7113" x2="92.2128" y2="22.791" gradientUnits="userSpaceOnUse">
<stop offset="0.15" stop-color="#EFEFEF"/>
<stop offset="0.54" stop-color="#F7F7F7"/>
</linearGradient>
<clipPath id="clip0_326_24812">
<rect width="164.538" height="279" fill="white"/>
</clipPath>
</defs>
</svg>
