<svg width="150" height="150" viewBox="0 0 150 150" fill="none" xmlns="http://www.w3.org/2000/svg">
<path d="M15.2438 108.836C18.4491 108.661 21.6414 108.471 24.8364 108.314C27.8259 108.165 30.8181 108.04 33.8102 107.922C36.337 107.823 38.8664 107.742 41.3959 107.669C43.9669 107.593 46.5405 107.527 49.1115 107.47C51.4356 107.418 53.7596 107.379 56.0837 107.342C57.8462 107.313 59.6087 107.284 61.3713 107.279C68.6372 107.253 75.9057 107.227 83.1716 107.217C85.1603 107.214 87.149 107.258 89.1377 107.287C91.6333 107.324 94.1315 107.363 96.6272 107.407C98.7121 107.446 100.8 107.496 102.884 107.546C105.208 107.603 107.53 107.661 109.851 107.731C112.422 107.81 114.993 107.896 117.564 107.993C119.584 108.068 121.602 108.165 123.622 108.256C125.491 108.34 127.357 108.413 129.226 108.515C131.072 108.614 132.915 108.742 134.758 108.865C134.828 108.87 134.956 108.975 134.951 108.998C134.906 109.137 134.86 109.325 134.753 109.38C134.626 109.445 134.436 109.398 134.275 109.393C132.224 109.33 130.173 109.265 128.119 109.207C126.455 109.16 124.791 109.116 123.128 109.074C121.433 109.032 119.735 108.998 118.04 108.959C115.846 108.91 113.655 108.857 111.461 108.816C109.191 108.771 106.922 108.735 104.652 108.698C103.095 108.672 101.54 108.648 99.9833 108.627C98.2207 108.604 96.4608 108.588 94.6982 108.56C92.1584 108.518 89.6186 108.439 87.0788 108.426C82.9272 108.408 78.773 108.431 74.6215 108.434C69.1935 108.434 63.7629 108.431 58.3349 108.439C56.2916 108.442 54.2483 108.468 52.205 108.492C50.5621 108.51 48.9191 108.536 47.2762 108.562C45.9686 108.583 44.661 108.604 43.3534 108.627C41.0943 108.667 38.8353 108.703 36.5762 108.75C34.7825 108.789 32.9913 108.847 31.1976 108.891C29.5988 108.933 28.0001 108.959 26.3987 109.012C24.7896 109.061 23.183 109.137 21.5738 109.194C20.7628 109.223 19.9517 109.226 19.1432 109.254C17.976 109.296 16.8114 109.356 15.6467 109.398C15.1736 109.416 15.1658 109.396 15.2386 108.839L15.2438 108.836Z" fill="white"/>
<path d="M44.5129 101.226C44.5987 100.985 44.6819 100.742 44.7703 100.502C45.2408 99.2242 45.7139 97.9465 46.1844 96.6715C46.2156 96.5905 46.252 96.5121 46.2754 96.4285C46.4054 95.9739 46.2936 95.7884 45.8309 95.6917C45.6931 95.663 45.5449 95.6656 45.4202 95.6133C45.3474 95.582 45.259 95.4696 45.2642 95.3991C45.272 95.3233 45.3734 95.2502 45.4462 95.1953C45.4826 95.1692 45.5501 95.1875 45.6047 95.1875C48.3395 95.1875 51.0769 95.1875 53.8117 95.1927C54.2718 95.1927 54.2744 95.2005 54.316 95.6499C54.355 96.0915 54.3966 96.533 54.4174 96.9746C54.4226 97.0582 54.342 97.2123 54.2848 97.2202C54.1938 97.2306 54.0795 97.1627 53.9937 97.1026C53.9495 97.0713 53.9313 96.9903 53.9183 96.9276C53.7727 96.2587 53.31 95.987 52.6757 95.9608C52.1895 95.9399 51.7034 95.9426 51.2173 95.9556C51.1445 95.9556 51.0171 96.0836 51.0171 96.1542C51.0015 96.9563 51.0015 97.7584 51.0171 98.5579C51.0171 98.6311 51.1497 98.7617 51.2173 98.7591C51.5838 98.7513 51.9504 98.7251 52.3143 98.6755C52.5899 98.6389 52.7329 98.4586 52.7875 98.1738C52.8395 97.9047 52.8031 97.586 53.1436 97.3534C53.1956 97.5494 53.271 97.6957 53.271 97.8446C53.2814 98.699 53.2814 99.556 53.2658 100.41C53.2658 100.531 53.1514 100.648 53.089 100.766C53.0058 100.661 52.8784 100.57 52.8498 100.452C52.6601 99.6474 52.5613 99.5586 51.7138 99.522C51.5007 99.5116 51.2875 99.4854 51.0899 99.4671C51.0587 99.4959 51.0301 99.5116 51.0301 99.5272C51.0405 100.348 51.0223 101.171 51.0821 101.988C51.1185 102.493 51.3291 102.689 51.836 102.717C52.4235 102.751 53.0162 102.707 53.6037 102.663C53.9989 102.631 54.238 102.373 54.3394 101.991C54.3732 101.866 54.3862 101.725 54.4538 101.623C54.5136 101.534 54.6384 101.489 54.7372 101.424C54.7892 101.521 54.8853 101.617 54.8827 101.712C54.8645 102.197 54.8074 102.681 54.7918 103.167C54.784 103.459 54.68 103.551 54.381 103.551C52.4027 103.538 50.4218 103.546 48.4435 103.546C48.4123 103.546 48.3785 103.546 48.3473 103.546C48.1757 103.556 48.0458 103.517 48.0354 103.311C48.025 103.081 48.1706 103.054 48.3525 103.047C48.9946 103.02 49.2598 102.806 49.2702 102.166C49.2936 100.282 49.2858 98.4011 49.2728 96.5174C49.2728 96.1672 49.1272 95.8616 48.7607 95.7257C48.3109 95.5585 47.8846 95.6551 47.5544 95.9608C47.3179 96.1803 47.1177 96.4782 46.9981 96.7786C46.3326 98.4325 45.6957 100.097 45.0484 101.759C44.8378 102.302 44.6169 102.843 44.4193 103.391C44.3049 103.71 44.0502 103.606 43.8474 103.601C43.7122 103.595 43.5017 103.52 43.4601 103.42C42.7686 101.685 42.1057 99.9374 41.4194 98.1974C41.175 97.5755 40.8968 96.9641 40.6213 96.3528C40.4705 96.0209 40.2157 95.7649 39.857 95.7022C39.0433 95.5585 38.5988 95.8067 38.5572 96.6454C38.5286 97.2176 38.5494 97.7924 38.5494 98.3672C38.5494 99.5481 38.5494 100.729 38.5494 101.91C38.5494 102.681 38.7626 102.916 39.5164 103.062C39.6204 103.083 39.7036 103.222 39.7946 103.305C39.6984 103.384 39.6048 103.533 39.5061 103.535C38.2842 103.551 37.0624 103.551 35.8406 103.535C35.7522 103.535 35.6638 103.378 35.5754 103.297C35.6664 103.216 35.747 103.117 35.851 103.06C35.9186 103.023 36.0226 103.06 36.1058 103.049C36.4125 103.002 36.6699 102.885 36.7219 102.532C36.7609 102.265 36.8103 101.996 36.8103 101.73C36.8181 100.16 36.8129 98.5893 36.8103 97.019C36.8103 96.8779 36.8103 96.7368 36.7947 96.5984C36.7193 95.9243 36.5451 95.7518 35.8822 95.6238C35.773 95.6029 35.6794 95.4958 35.578 95.4305C35.6846 95.3521 35.7886 95.2058 35.8952 95.2058C38.3726 95.2005 40.8474 95.2084 43.3249 95.2162C43.3691 95.2162 43.4211 95.2031 43.4523 95.224C43.5328 95.2789 43.6004 95.3495 43.6758 95.4122C43.6056 95.4775 43.5484 95.5768 43.4653 95.6003C43.2807 95.6551 43.0805 95.6578 42.8959 95.7126C42.5398 95.8224 42.4358 95.9948 42.5554 96.3423C42.8569 97.2097 43.1767 98.0693 43.4964 98.9315C43.7408 99.5899 43.9956 100.246 44.2503 100.899C44.2945 101.014 44.3621 101.121 44.4193 101.233C44.4505 101.233 44.4817 101.228 44.5129 101.228V101.226Z" fill="white"/>
<path d="M121.097 97.3247C121.716 97.262 122.283 97.2176 122.844 97.1444C123.148 97.1052 123.304 96.8701 123.38 96.5983C123.447 96.3501 123.497 96.0915 123.515 95.8354C123.53 95.6081 123.647 95.5768 123.835 95.5741C124.045 95.5741 124.084 95.6891 124.084 95.8642C124.079 97.1313 124.082 98.3985 124.076 99.6657C124.076 100.063 123.777 99.8512 123.58 99.9113C123.536 99.637 123.499 99.3835 123.455 99.1301C123.372 98.6494 123.107 98.3515 122.639 98.294C122.212 98.2418 121.778 98.2444 121.347 98.2209C121.147 98.2104 121.092 98.3123 121.092 98.5004C121.1 99.4097 121.082 100.319 121.102 101.228C121.121 102.046 121.469 102.454 122.267 102.501C122.953 102.542 123.647 102.501 124.336 102.454C124.95 102.414 125.306 102.033 125.467 101.455C125.509 101.309 125.509 101.126 125.602 101.03C125.701 100.925 125.883 100.888 126.037 100.857C126.06 100.852 126.161 101.045 126.159 101.145C126.146 101.847 126.112 102.55 126.096 103.253C126.091 103.449 126.05 103.546 125.823 103.543C123.013 103.538 120.2 103.538 117.39 103.538C117.349 103.538 117.307 103.527 117.268 103.522C117.169 103.02 117.198 102.981 117.694 102.932C118.511 102.848 118.828 102.568 118.836 101.735C118.859 99.2895 118.862 96.8439 118.83 94.3984C118.82 93.4944 118.401 93.1521 117.492 93.1391C117.416 93.1391 117.343 93.1391 117.273 93.1391C117.159 92.6322 117.195 92.5826 117.661 92.5826C120.083 92.5826 122.504 92.5773 124.926 92.5826C125.342 92.5826 125.436 92.512 125.465 93.045C125.498 93.7034 125.54 94.3618 125.566 95.0202C125.569 95.1039 125.48 95.2685 125.452 95.2658C125.316 95.2476 125.142 95.2188 125.067 95.1248C124.973 95.0072 124.955 94.8269 124.916 94.6701C124.781 94.0927 124.438 93.7034 123.842 93.6538C122.995 93.5832 122.142 93.5702 121.29 93.5493C121.225 93.5493 121.1 93.6747 121.1 93.7426C121.087 94.9001 121.092 96.0575 121.092 97.3169L121.097 97.3247Z" fill="white"/>
<path d="M15.1789 92.1305C15.6157 92.1305 16.0368 92.1305 16.4554 92.1305C17.763 92.1305 19.0732 92.1332 20.3808 92.1279C20.5809 92.1279 20.7083 92.1462 20.7083 92.397C20.7083 92.64 20.6199 92.7053 20.3834 92.708C19.4761 92.7158 19.107 93.0215 19.0836 93.9124C19.0342 95.7623 19.0238 97.6121 19.029 99.4619C19.029 100.076 19.2473 100.651 19.5697 101.176C20.139 102.109 21.4466 102.433 22.4656 101.954C23.4015 101.516 23.7759 100.7 23.8122 99.7807C23.885 97.8133 23.8772 95.8433 23.8356 93.8759C23.8174 93.0032 23.4405 92.7158 22.5722 92.6975C22.3409 92.6923 22.2759 92.6087 22.2733 92.3892C22.2733 92.1645 22.3721 92.1201 22.5696 92.1227C23.846 92.1279 25.1224 92.1305 26.3989 92.1227C26.6198 92.1227 26.6822 92.2037 26.677 92.4075C26.6744 92.5982 26.638 92.7315 26.4067 92.7001C26.3963 92.7001 26.3859 92.7001 26.3755 92.7001C25.4448 92.7262 25.0653 93.0999 25.0523 94.0431C25.0419 94.9419 25.0653 95.8406 25.0471 96.7394C25.0263 97.7767 25.0367 98.8218 24.9223 99.8512C24.6207 102.574 22.2811 103.726 20.035 103.256C18.0541 102.843 16.8947 101.359 16.8453 99.1719C16.8167 97.8734 16.8375 96.5722 16.8245 95.2737C16.8193 94.7877 16.7959 94.2991 16.7569 93.8158C16.6971 93.0842 16.3098 92.7315 15.5793 92.7053C15.0906 92.6871 15.0802 92.674 15.1815 92.1279L15.1789 92.1305Z" fill="white"/>
<path d="M115.708 94.3932C115.708 94.934 115.708 95.4749 115.708 96.0183C115.708 96.1855 115.755 96.3789 115.48 96.3893C115.256 96.3972 115.131 96.3475 115.066 96.0967C114.882 95.3939 114.614 94.7198 114.146 94.1476C112.856 92.5773 110.608 92.7785 109.695 94.597C109.368 95.2502 109.147 95.9974 109.066 96.7238C108.941 97.8577 108.918 99.0177 109.292 100.131C109.578 100.983 110 101.745 110.829 102.179C112.155 102.874 113.73 102.346 114.463 100.943C114.71 100.47 114.876 99.9479 115.019 99.4306C115.105 99.1249 115.285 99.1484 115.5 99.1536C115.765 99.1615 115.703 99.3652 115.706 99.5116C115.711 100.617 115.706 101.719 115.706 102.825C115.706 102.984 115.706 103.13 115.492 103.159C115.298 103.185 115.201 103.096 115.123 102.924C114.817 102.247 114.814 102.252 114.229 102.717C113.322 103.439 112.266 103.632 111.146 103.522C108.697 103.284 107.174 101.254 106.784 99.2842C106.415 97.4161 106.654 95.6421 107.766 94.0483C109.056 92.2037 111.411 91.5061 113.421 92.3918C113.829 92.5721 114.19 92.8647 114.551 93.1365C114.757 93.2906 114.874 93.2775 114.965 93.0424C115.012 92.9222 115.064 92.7994 115.082 92.674C115.118 92.4232 115.266 92.3761 115.49 92.3892C115.75 92.4023 115.708 92.5878 115.708 92.7393C115.713 93.2906 115.708 93.8445 115.708 94.3958C115.708 94.3958 115.706 94.3958 115.703 94.3958L115.708 94.3932Z" fill="white"/>
<path d="M133.614 95.4827C133.453 94.7616 133.183 94.1241 132.65 93.625C132.06 93.0711 131.088 92.8726 130.456 93.1756C129.603 93.5858 129.398 94.563 130.092 95.2031C130.547 95.6238 131.095 95.9478 131.626 96.2822C132.055 96.5539 132.512 96.776 132.959 97.019C133.737 97.4423 134.418 97.9726 134.748 98.8218C134.857 99.0987 134.847 99.4279 134.87 99.7336C134.888 99.9819 134.857 100.233 134.868 100.481C134.914 101.683 134.259 102.741 133.139 103.224C132.011 103.713 130.885 103.642 129.777 103.156C129.512 103.039 129.258 102.892 129.005 102.749C128.844 102.657 128.735 102.657 128.639 102.843C128.545 103.026 128.439 103.203 128.309 103.363C128.246 103.441 128.098 103.525 128.028 103.501C127.934 103.467 127.817 103.329 127.817 103.235C127.802 102.088 127.802 100.938 127.817 99.7911C127.817 99.7075 127.937 99.5717 128.025 99.5481C128.236 99.4907 128.384 99.603 128.423 99.8199C128.54 100.499 128.917 101.035 129.346 101.542C130.009 102.328 131.314 102.691 132.265 102.417C133.157 102.158 133.88 100.86 132.892 100.008C132.429 99.6082 131.914 99.2633 131.394 98.9368C130.893 98.6232 130.349 98.3724 129.829 98.0824C128.423 97.2986 127.768 95.8772 128.072 94.2965C128.34 92.9144 129.918 91.8353 131.384 92.0208C131.974 92.0966 132.517 92.2899 133.004 92.6296C133.18 92.7524 133.292 92.7341 133.396 92.5512C133.477 92.4101 133.547 92.2533 133.659 92.1462C133.744 92.0652 133.893 92.0234 134.015 92.0182C134.056 92.0182 134.145 92.1776 134.145 92.2638C134.153 93.2383 134.14 94.2129 134.145 95.1875C134.147 95.6055 133.861 95.4618 133.617 95.4801L133.614 95.4827Z" fill="white"/>
<path d="M60.2093 99.8382C61.0724 100.792 61.8653 101.688 62.6894 102.555C62.8817 102.757 63.1651 102.913 63.4354 102.989C63.7734 103.081 63.75 103.269 63.7006 103.543C62.8635 103.543 62.0317 103.548 61.2024 103.533C61.1166 103.533 61.0126 103.41 60.9554 103.318C60.2951 102.276 59.6452 101.228 58.9901 100.186C58.9329 100.097 58.8679 99.9923 58.7795 99.9479C58.6288 99.8721 58.4208 99.8408 58.4208 100.089C58.4208 100.844 58.4078 101.604 58.478 102.357C58.5274 102.885 58.7535 103.02 59.2865 103.047C59.4632 103.054 59.6504 103.041 59.6478 103.303C59.6478 103.567 59.458 103.543 59.2813 103.543C58.1036 103.543 56.9234 103.543 55.7458 103.543C55.66 103.543 55.5768 103.535 55.4702 103.53V103.065C55.5378 103.06 55.6002 103.049 55.6626 103.049C56.3723 103.036 56.6609 102.788 56.6687 102.069C56.6869 100.293 56.6791 98.5161 56.6635 96.742C56.6635 96.4808 56.6271 96.1463 56.4685 95.9791C56.2839 95.7858 55.9486 95.7231 55.6704 95.6421C55.5222 95.6003 55.4442 95.5689 55.4468 95.3991C55.4468 95.2188 55.5352 95.1796 55.6886 95.1822C57.147 95.2057 58.608 95.1718 60.0637 95.2658C60.9814 95.3233 61.7691 95.7466 62.172 96.661C62.7049 97.8681 62.107 99.1484 60.7734 99.65C60.6253 99.7049 60.4719 99.7545 60.2171 99.8408L60.2093 99.8382ZM58.4052 99.151C58.6678 99.151 58.8939 99.1405 59.1201 99.151C60.017 99.1928 60.7578 98.4665 60.6513 97.3978C60.5187 96.0601 59.575 95.8459 58.608 95.8955C58.5378 95.8981 58.4234 96.0601 58.4182 96.1542C58.3974 96.6088 58.4052 97.0634 58.4052 97.518C58.4052 98.0458 58.4052 98.5736 58.4052 99.1484V99.151Z" fill="white"/>
<path d="M92.5406 103.58V103.091C92.5796 103.07 92.5874 103.062 92.5952 103.062C93.4531 103.117 93.7234 102.696 93.726 101.821C93.7312 100.251 93.726 98.6833 93.726 97.1131C93.726 97.0059 93.726 96.8962 93.7208 96.7891C93.687 95.9582 93.5337 95.7832 92.7356 95.6186C92.6446 95.6003 92.5198 95.4931 92.5016 95.4069C92.46 95.2162 92.6108 95.1822 92.7694 95.1848C94.2928 95.2057 95.8187 95.1639 97.3369 95.2606C99.1644 95.3756 100.498 96.7969 100.662 98.6206C100.729 99.3496 100.719 100.065 100.521 100.776C100.085 102.336 98.8993 103.371 97.2823 103.465C95.7199 103.556 94.1524 103.546 92.538 103.582L92.5406 103.58ZM96.2607 95.906C96.2607 95.906 96.2581 95.9321 96.2555 95.9452C96.0709 95.9452 95.8889 95.9504 95.7043 95.9452C95.5224 95.9373 95.46 96.0209 95.46 96.1986C95.4652 98.0798 95.4574 99.9609 95.4678 101.842C95.4704 102.362 95.6914 102.608 96.1853 102.736C97.0068 102.947 98.0232 102.48 98.4053 101.667C99.063 100.277 99.063 98.8427 98.5717 97.4109C98.3533 96.7708 97.9426 96.2404 97.2433 96.0523C96.9236 95.9661 96.5882 95.9504 96.2581 95.9033L96.2607 95.906Z" fill="white"/>
<path d="M74.6659 103.486V103.075C74.7516 103.068 74.8348 103.054 74.918 103.052C75.4665 103.041 75.7135 102.845 75.7993 102.31C75.8461 102.022 75.8773 101.73 75.8799 101.44C75.8877 100.042 75.8877 98.6467 75.8799 97.2489C75.8799 96.9798 75.8461 96.7081 75.8097 96.4416C75.7395 95.9295 75.5705 95.7623 75.0506 95.6656C74.9336 95.6447 74.8192 95.6264 74.7049 95.6055C74.6087 95.2136 74.6295 95.1822 75.0064 95.1822C76.249 95.1822 77.4942 95.1822 78.7368 95.1901C81.3131 95.2057 82.8702 96.7969 82.8338 99.3783C82.826 100.045 82.7324 100.693 82.4569 101.307C81.8486 102.673 80.7775 103.418 79.3036 103.472C77.7724 103.53 76.236 103.486 74.6659 103.486ZM77.554 98.9394H77.5488C77.5488 99.731 77.5436 100.52 77.5514 101.312C77.554 101.581 77.5774 101.853 77.6242 102.116C77.6788 102.427 77.8582 102.636 78.1831 102.717C79.1554 102.955 80.1276 102.545 80.5488 101.638C81.2455 100.141 81.1909 98.6128 80.5566 97.113C80.2836 96.4703 79.7663 96.0575 79.0436 95.987C78.6459 95.9478 78.2455 95.9634 77.8452 95.9425C77.619 95.9295 77.5462 96.0183 77.5488 96.243C77.5592 97.1418 77.554 98.0406 77.554 98.9394Z" fill="white"/>
<path d="M26.6484 103.065C26.7081 103.06 26.7601 103.049 26.8121 103.052C27.6518 103.107 27.8416 102.589 27.8494 102.028C27.8676 100.272 27.8572 98.5187 27.8494 96.7629C27.8494 96.5801 27.813 96.3972 27.774 96.2169C27.6752 95.7675 27.3113 95.6917 26.9343 95.6421C26.7731 95.6212 26.6068 95.6421 26.6224 95.386C26.638 95.1091 26.8303 95.1848 26.9733 95.1848C27.644 95.1796 28.3147 95.1901 28.9854 95.177C29.1934 95.1744 29.3208 95.2476 29.4403 95.4174C30.592 97.053 31.7514 98.6833 32.9108 100.316C32.9732 100.403 33.0434 100.484 33.1422 100.609C33.163 100.499 33.1864 100.434 33.1864 100.369C33.1864 99.2529 33.1864 98.1373 33.1812 97.0216C33.1812 96.8805 33.1812 96.7394 33.1682 96.5983C33.1006 95.9399 32.903 95.7283 32.2557 95.6264C32.1101 95.6029 31.8996 95.6264 31.9594 95.4017C31.9828 95.3076 32.1699 95.1979 32.2843 95.1953C33.15 95.1796 34.0156 95.1901 34.8787 95.1927C34.9333 95.1927 34.9983 95.1875 35.0373 95.2162C35.1153 95.2737 35.1751 95.3547 35.2427 95.4252C35.1725 95.4879 35.1127 95.595 35.0347 95.6107C34.169 95.7779 34.0026 95.9556 34 96.8387C33.9974 98.9733 34 101.105 34.0156 103.24C34.0156 103.533 33.9533 103.627 33.6439 103.629C33.3008 103.632 33.0928 103.517 32.8978 103.24C31.6032 101.388 30.2904 99.5455 28.9828 97.6983C28.9152 97.6016 28.8372 97.5128 28.7124 97.356C28.6968 97.5154 28.6812 97.6016 28.6812 97.6905C28.6812 99.1092 28.676 100.528 28.6812 101.947C28.6812 102.691 28.91 102.934 29.6405 103.062C29.7471 103.081 29.8303 103.216 29.9265 103.3C29.8329 103.381 29.7393 103.533 29.6457 103.535C28.6526 103.553 27.6596 103.546 26.6484 103.546V103.065Z" fill="white"/>
<path d="M87.9031 103.546V103.104C88.1968 103.047 88.4828 103.002 88.7583 102.932C88.9923 102.874 89.0651 102.699 88.9923 102.48C88.8259 101.978 88.6569 101.476 88.4646 100.983C88.4334 100.904 88.2852 100.828 88.1916 100.826C87.4247 100.81 86.6552 100.805 85.8884 100.815C85.8026 100.815 85.67 100.909 85.6388 100.99C85.4802 101.414 85.345 101.847 85.2073 102.278C85.0799 102.683 85.2411 102.95 85.6596 103.028C85.7662 103.049 85.891 103.013 85.9794 103.057C86.0859 103.109 86.1639 103.222 86.2523 103.305C86.1561 103.384 86.0651 103.525 85.9664 103.53C85.4802 103.553 84.9941 103.54 84.508 103.54C84.0036 103.54 83.4967 103.54 82.9768 103.54V103.062C83.1068 103.054 83.2446 103.062 83.3771 103.036C83.8217 102.95 84.1466 102.702 84.3208 102.278C84.7185 101.322 85.1163 100.363 85.501 99.3992C85.9664 98.2365 86.4161 97.066 86.871 95.8981C86.91 95.7962 86.9438 95.6943 86.9802 95.5924C87.196 95.002 87.1206 95.1378 87.6509 95.1065C87.994 95.0856 88.0876 95.2423 88.1968 95.5402C88.8129 97.1888 89.4628 98.827 90.1049 100.468C90.3259 101.032 90.5495 101.594 90.7782 102.153C90.9992 102.694 91.3371 103.07 91.9845 103.054C92.0624 103.054 92.1898 103.182 92.2158 103.274C92.2574 103.428 92.1768 103.538 91.987 103.538C90.6378 103.535 89.2861 103.538 87.9005 103.538L87.9031 103.546ZM86.0027 100.12H88.1708C87.8199 99.1667 87.4897 98.2679 87.1596 97.3717C87.1154 97.3717 87.0738 97.3717 87.0296 97.3743C86.689 98.281 86.3511 99.1876 86.0027 100.12Z" fill="white"/>
<path d="M64.4701 100.75C64.7612 100.653 64.8912 100.724 64.9692 101.019C65.2707 102.145 66.0714 102.84 67.145 102.953C67.7741 103.018 68.3565 102.704 68.5878 102.184C68.736 101.847 68.7282 101.516 68.4708 101.246C68.2265 100.99 67.9587 100.747 67.6624 100.557C67.1269 100.212 66.5627 99.9113 66.0116 99.5926C65.2473 99.151 64.7456 98.5292 64.639 97.6252C64.5272 96.6741 64.808 95.8772 65.6269 95.3521C66.4743 94.806 67.3686 94.806 68.2265 95.3286C68.4994 95.4932 68.6476 95.4801 68.7932 95.2136C68.8244 95.1587 68.8712 95.1065 68.9232 95.0725C69.009 95.0176 69.1026 94.9758 69.1935 94.9288C69.2299 95.0255 69.2949 95.1195 69.2975 95.2162C69.3079 95.9425 69.3079 96.6663 69.2975 97.3926C69.2975 97.4736 69.1909 97.6225 69.1519 97.6173C69.0428 97.6016 68.8972 97.5468 68.8504 97.4606C68.7438 97.2646 68.7074 97.0295 68.606 96.8309C68.2681 96.1829 67.756 95.7701 66.9969 95.757C66.4951 95.7466 66.1026 96.0366 65.9336 96.5069C65.8114 96.8439 65.9206 97.2254 66.3418 97.5102C67.0567 97.9936 67.8027 98.4299 68.5462 98.8688C70.2594 99.88 70.2386 101.604 69.4405 102.77C68.827 103.666 67.9015 103.896 66.8877 103.71C66.399 103.621 65.931 103.397 65.4761 103.185C65.2525 103.083 65.1407 103.104 65.0368 103.308C65.0082 103.365 64.99 103.441 64.9432 103.475C64.8392 103.551 64.7196 103.608 64.6078 103.674C64.561 103.564 64.4752 103.454 64.4752 103.344C64.4648 102.482 64.4701 101.617 64.4701 100.758V100.75Z" fill="white"/>
<path d="M74.0989 103.065V103.52C74.0183 103.53 73.9455 103.546 73.8727 103.546C72.6613 103.546 71.4499 103.546 70.2411 103.546C70.0747 103.546 69.9083 103.564 69.9005 103.316C69.8953 103.068 70.0409 103.047 70.2359 103.047C70.7714 103.047 70.9976 102.858 71.1041 102.331C71.1353 102.174 71.1431 102.009 71.1431 101.847C71.1457 100.311 71.1431 98.7722 71.1431 97.2359C71.1431 97.053 71.1431 96.8675 71.1353 96.6846C71.1119 95.9713 70.9066 95.7388 70.2125 95.6316C70.0643 95.6081 69.9031 95.6421 69.9135 95.3991C69.9239 95.1326 70.1059 95.1875 70.2593 95.1875C71.4161 95.1901 72.5729 95.1953 73.7298 95.2057C73.8467 95.2057 73.9611 95.2345 74.0937 95.2502C74.1275 95.4618 74.0937 95.5898 73.8623 95.6316C73.0902 95.7727 72.9057 95.9791 72.8901 96.7838C72.8745 97.7375 72.8849 98.6885 72.8797 99.6422C72.8771 100.345 72.8693 101.05 72.8615 101.753C72.8615 101.84 72.8615 101.926 72.8667 102.012C72.9239 102.827 73.1994 103.112 73.9377 103.054C73.9793 103.052 74.0235 103.06 74.0989 103.068V103.065Z" fill="white"/>
<path d="M57.446 117.56H55.4053C55.3975 117.537 55.3897 117.511 55.3819 117.487C55.4884 117.44 55.6158 117.414 55.699 117.341C55.8238 117.231 56.0058 117.09 56.011 116.957C56.0422 116.105 56.0344 115.251 56.0266 114.396C56.024 114.109 55.8862 113.923 55.5612 113.944C55.504 113.947 55.4443 113.918 55.3533 113.897C55.4027 113.822 55.4287 113.738 55.4677 113.73C55.8056 113.67 56.1462 113.615 56.4893 113.584C56.5439 113.579 56.6323 113.694 56.6635 113.769C56.7129 113.884 56.7233 114.015 56.7675 114.206C57.6461 113.417 58.4988 113.1 59.2397 114.323C59.523 113.957 59.7908 113.657 60.2249 113.571C61.0672 113.401 61.6261 113.858 61.6495 114.744C61.6651 115.415 61.6989 116.084 61.7015 116.756C61.7015 117.106 61.8003 117.346 62.1876 117.391C62.25 117.398 62.3046 117.464 62.4424 117.558H60.3523C60.3419 117.542 60.3341 117.526 60.3237 117.508C60.4147 117.456 60.5005 117.388 60.5967 117.351C60.8462 117.255 60.9788 117.088 60.9736 116.811C60.9632 116.118 60.9736 115.426 60.945 114.733C60.9164 114.083 60.3653 113.816 59.8142 114.174C59.4581 114.404 59.2605 114.746 59.2527 115.178C59.2449 115.653 59.2553 116.131 59.2501 116.607C59.2449 116.983 59.3151 117.302 59.7544 117.388C59.8168 117.401 59.874 117.435 59.9338 117.461C59.9104 117.495 59.887 117.529 59.8662 117.56H57.8307C57.8229 117.545 57.8125 117.529 57.8047 117.513C57.9087 117.461 58.0101 117.391 58.1193 117.359C58.3636 117.291 58.4832 117.127 58.4858 116.886C58.491 116.139 58.4936 115.392 58.4806 114.645C58.4754 114.383 58.3506 114.159 58.0829 114.067C57.7241 113.944 57.3836 114.049 57.1756 114.326C56.9858 114.579 56.8428 114.911 56.8013 115.225C56.7389 115.671 56.7961 116.131 56.7831 116.586C56.7727 116.98 56.8558 117.297 57.2978 117.396C57.3368 117.404 57.3732 117.438 57.4044 117.464C57.4174 117.477 57.42 117.503 57.446 117.56Z" fill="white"/>
<path d="M42.5555 117.563H40.3926C40.4784 117.49 40.5252 117.414 40.5824 117.406C40.9983 117.349 41.1413 117.064 41.1413 116.698C41.1413 115.998 41.1647 115.29 41.0841 114.598C41.0191 114.023 40.5486 113.853 40.0443 114.151C39.6413 114.389 39.4282 114.762 39.4022 115.219C39.3736 115.716 39.384 116.215 39.397 116.714C39.4074 117.166 39.4905 117.25 39.9299 117.364C40.0027 117.383 40.0599 117.456 40.0885 117.568H38.0426C38.0322 117.547 38.0218 117.526 38.0114 117.506C38.0868 117.453 38.1569 117.37 38.2401 117.359C38.5001 117.323 38.6379 117.169 38.6431 116.928C38.6561 116.131 38.6847 115.329 38.6353 114.535C38.6067 114.096 38.2115 113.91 37.7904 114.07C37.3225 114.247 36.9845 114.59 36.9377 115.084C36.8831 115.661 36.9117 116.251 36.9429 116.831C36.9559 117.095 37.0885 117.328 37.4083 117.375C37.4966 117.388 37.5772 117.453 37.65 117.553H35.5235C35.5131 117.537 35.5001 117.521 35.4897 117.506C35.6119 117.451 35.7497 117.417 35.8537 117.338C35.9785 117.242 36.1604 117.111 36.1656 116.988C36.202 116.147 36.2124 115.306 36.2046 114.462C36.202 114.18 36.0383 113.978 35.7263 113.937C35.6717 113.929 35.6197 113.882 35.5521 113.761C35.7133 113.714 35.8771 113.667 36.0383 113.62C36.0799 113.607 36.1215 113.6 36.1656 113.592C36.5435 113.529 36.7939 113.682 36.9169 114.052C36.9299 114.091 36.9507 114.127 36.9949 114.216C37.3355 113.824 37.6942 113.5 38.2271 113.513C38.7575 113.526 39.1136 113.803 39.3996 114.373C39.4749 114.24 39.5035 114.156 39.5581 114.093C39.8285 113.775 40.182 113.594 40.5876 113.532C41.1777 113.44 41.7184 113.856 41.7938 114.485C41.838 114.848 41.8172 115.219 41.825 115.588C41.8328 115.967 41.838 116.346 41.8536 116.724C41.8692 117.054 41.9862 117.312 42.3579 117.378C42.4385 117.391 42.5087 117.459 42.5841 117.5C42.5763 117.521 42.5659 117.545 42.5581 117.566L42.5555 117.563Z" fill="white"/>
<path d="M44.8119 119.319C44.1412 119.345 43.4679 119.353 42.7972 119.314C42.7816 119.267 42.7686 119.22 42.753 119.172C42.792 119.154 42.831 119.136 42.8726 119.12C43.2504 118.97 43.4393 118.693 43.4393 118.287C43.4393 117.064 43.4367 115.839 43.4341 114.616C43.4341 114.085 43.4263 114.072 42.9116 113.929C42.8726 113.918 42.8388 113.89 42.7192 113.824C42.9064 113.748 43.0312 113.691 43.1586 113.649C43.2288 113.626 43.3093 113.628 43.3821 113.618C43.7825 113.55 44.0407 113.694 44.1568 114.052C44.4454 113.895 44.7183 113.67 45.0303 113.586C45.8934 113.351 46.7122 113.895 46.954 114.827C47.11 115.428 47.0892 116.024 46.8604 116.609C46.4341 117.699 45.298 118.012 44.383 117.291C44.3336 117.252 44.2816 117.216 44.1594 117.124C44.1906 117.733 44.2062 118.274 44.253 118.815C44.2608 118.898 44.3934 118.987 44.4844 119.044C44.5884 119.107 44.7131 119.136 44.8275 119.18C44.8223 119.227 44.8145 119.277 44.8093 119.324L44.8119 119.319ZM44.1932 115.63C44.1932 115.867 44.1828 116.105 44.1932 116.343C44.214 116.737 44.6819 117.213 45.1031 117.281C45.4878 117.341 45.9246 117.119 46.0623 116.724C46.3145 116.003 46.3457 115.259 46.0415 114.545C45.727 113.811 44.9913 113.741 44.4584 114.339C44.11 114.728 44.2088 115.185 44.1906 115.63H44.1932Z" fill="white"/>
<path d="M17.646 112.246C17.5472 112.272 17.4485 112.304 17.3497 112.327C16.9935 112.411 16.822 112.586 16.8168 112.957C16.8038 113.952 16.7882 114.948 16.8168 115.943C16.8401 116.714 17.4277 117.276 18.1348 117.289C18.873 117.302 19.5021 116.774 19.5359 116.003C19.5827 114.971 19.5515 113.934 19.5437 112.899C19.5437 112.601 19.3748 112.424 19.0836 112.353C18.9692 112.324 18.8652 112.264 18.7561 112.217L18.7769 112.129H20.8409C20.8487 112.157 20.8565 112.186 20.8643 112.215C20.789 112.251 20.7162 112.298 20.6356 112.319C20.1443 112.453 20.0637 112.544 20.0559 113.061C20.0455 113.699 20.0585 114.339 20.0403 114.976C20.0299 115.374 20.0143 115.779 19.9363 116.168C19.7257 117.216 19.016 117.738 17.9034 117.709C16.9961 117.688 16.224 117.02 16.1227 116.05C16.0369 115.214 16.0707 114.368 16.0447 113.524C16.0369 113.276 16.0161 113.03 15.9953 112.782C15.9693 112.481 15.7821 112.356 15.5014 112.322C15.4 112.309 15.3038 112.259 15.2024 112.225C15.2076 112.194 15.2154 112.162 15.2206 112.129H17.6278C17.6304 112.168 17.6356 112.204 17.6382 112.243L17.646 112.246Z" fill="white"/>
<path d="M121.544 114.177C121.677 114.065 121.802 113.95 121.937 113.85C122.382 113.524 122.87 113.375 123.395 113.615C123.913 113.853 124.056 114.334 124.071 114.854C124.09 115.405 124.079 115.959 124.084 116.51C124.087 116.931 124.131 117.325 124.667 117.398C124.708 117.404 124.739 117.464 124.828 117.55H122.699C122.686 117.526 122.67 117.503 122.657 117.479C122.735 117.435 122.813 117.359 122.894 117.357C123.242 117.346 123.377 117.142 123.382 116.834C123.393 116.152 123.403 115.47 123.382 114.788C123.372 114.496 123.284 114.18 122.977 114.062C122.649 113.937 122.309 113.999 122.031 114.227C121.732 114.467 121.555 114.78 121.555 115.18C121.555 115.69 121.555 116.199 121.555 116.706C121.555 117.051 121.633 117.333 122.044 117.38C122.08 117.385 122.116 117.422 122.148 117.451C122.161 117.464 122.161 117.49 122.179 117.55H120.047C120.211 117.466 120.307 117.396 120.416 117.364C120.661 117.297 120.788 117.14 120.791 116.897C120.796 116.074 120.791 115.251 120.783 114.428C120.783 114.151 120.642 113.984 120.359 113.944C120.289 113.934 120.224 113.9 120.159 113.876C120.154 113.84 120.149 113.803 120.143 113.767C120.359 113.714 120.575 113.652 120.793 113.61C121.376 113.5 121.376 113.505 121.477 114.08C121.482 114.106 121.513 114.13 121.55 114.177H121.544Z" fill="white"/>
<path d="M22.9803 117.558H20.8902C20.8798 117.54 20.8668 117.521 20.8564 117.503C20.9552 117.453 21.0514 117.38 21.1554 117.354C21.3972 117.299 21.5037 117.153 21.5037 116.915C21.5037 116.084 21.5115 115.251 21.5037 114.42C21.5037 114.122 21.3738 113.923 21.0306 113.939C20.9734 113.939 20.9136 113.879 20.8564 113.845C20.9032 113.795 20.9448 113.714 20.9994 113.704C21.2958 113.649 21.5947 113.597 21.8937 113.579C21.9717 113.573 22.0887 113.68 22.1303 113.764C22.19 113.884 22.1952 114.031 22.2342 114.216C22.3408 114.135 22.4162 114.065 22.5046 114.015C22.7828 113.861 23.0505 113.644 23.3495 113.579C24.1606 113.398 24.7689 113.926 24.7871 114.76C24.8027 115.408 24.8312 116.055 24.839 116.703C24.8442 117.069 24.943 117.338 25.3512 117.401C25.4058 117.409 25.4526 117.464 25.5799 117.547H23.3963C23.547 117.453 23.6302 117.385 23.7238 117.346C23.9396 117.255 24.1008 117.119 24.0956 116.868C24.0826 116.123 24.0878 115.376 24.0332 114.634C23.9968 114.135 23.6354 113.923 23.1337 114.036C22.645 114.146 22.2732 114.624 22.2602 115.191C22.2472 115.666 22.2654 116.144 22.255 116.62C22.2472 116.988 22.333 117.283 22.7438 117.385C22.8062 117.401 22.8555 117.464 22.9777 117.555L22.9803 117.558Z" fill="white"/>
<path d="M87.2842 117.563C87.1412 117.573 87.0815 117.584 87.0217 117.584C86.377 117.584 85.7323 117.584 85.0642 117.513C85.137 117.466 85.2045 117.393 85.2825 117.38C85.6205 117.325 85.7713 117.098 85.7791 116.795C85.7921 116.095 85.8129 115.392 85.7583 114.694C85.6985 113.934 85.0096 113.882 84.526 114.172C84.2141 114.36 83.9515 114.645 83.9307 115.021C83.8969 115.622 83.9203 116.231 83.9437 116.831C83.9567 117.124 84.1049 117.341 84.4299 117.385C84.4949 117.393 84.5546 117.453 84.6066 117.547H82.5087C82.6387 117.464 82.7193 117.383 82.8181 117.354C83.1171 117.265 83.2236 117.067 83.221 116.771C83.2158 116.045 83.221 115.321 83.2184 114.595C83.2184 114.261 83.0911 114.007 82.7219 113.939C82.6647 113.929 82.6101 113.887 82.4854 113.822C82.6335 113.748 82.7245 113.694 82.8233 113.654C82.8831 113.633 82.9507 113.639 83.0157 113.631C83.2496 113.599 83.5278 113.479 83.7046 113.566C83.8475 113.633 83.8683 113.955 83.9567 114.203C84.0529 114.127 84.1361 114.054 84.2271 113.991C84.3935 113.874 84.552 113.735 84.7366 113.652C85.6153 113.244 86.3744 113.675 86.4472 114.642C86.4913 115.256 86.4758 115.875 86.4862 116.492C86.494 116.941 86.5693 117.341 87.1179 117.427C87.1543 117.432 87.1828 117.477 87.2842 117.566V117.563Z" fill="white"/>
<path d="M54.8461 115.57C54.8201 116.359 54.6173 116.973 54.0064 117.391C52.9952 118.083 51.6824 117.649 51.282 116.487C51.0871 115.917 51.0819 115.34 51.2613 114.765C51.503 113.989 52.2491 113.453 53.0238 113.492C53.8843 113.534 54.5783 114.135 54.7629 115.013C54.8071 115.222 54.8253 115.439 54.8435 115.57H54.8461ZM51.8436 115.609C51.9268 116.029 51.9579 116.377 52.0671 116.698C52.1971 117.088 52.4987 117.32 52.9198 117.341C53.3201 117.359 53.6113 117.14 53.7725 116.8C54.165 115.967 54.1624 115.115 53.7127 114.31C53.3669 113.691 52.5273 113.707 52.2231 114.344C52.0281 114.752 51.958 115.219 51.8462 115.611L51.8436 115.609Z" fill="white"/>
<path d="M94.0248 117.124C93.8715 117.231 93.7441 117.323 93.6141 117.412C93.2086 117.696 92.7692 117.743 92.3273 117.532C91.7216 117.244 91.602 116.484 92.0725 115.969C92.5015 115.499 93.0838 115.313 93.6765 115.178C93.939 115.118 94.0222 115.01 93.9884 114.765C93.9728 114.658 93.9832 114.548 93.965 114.441C93.9001 114.062 93.7337 113.9 93.4061 113.882C93.0188 113.861 92.7978 114.028 92.686 114.394C92.6496 114.514 92.5769 114.676 92.4833 114.707C92.3819 114.741 92.1921 114.679 92.1245 114.592C92.0465 114.496 92.0153 114.308 92.0543 114.187C92.0933 114.057 92.2155 113.926 92.3377 113.848C92.8004 113.547 93.3073 113.435 93.8533 113.571C94.3498 113.694 94.6539 114.012 94.6851 114.524C94.7293 115.248 94.7397 115.974 94.7475 116.698C94.7553 117.299 94.7475 117.299 95.2986 117.239C95.2752 117.495 95.1817 117.576 94.8385 117.639C94.4694 117.707 94.2432 117.576 94.03 117.124H94.0248ZM93.9858 115.449C93.3905 115.577 92.8966 115.758 92.6184 116.288C92.4859 116.541 92.5041 116.826 92.6964 117.012C92.8186 117.129 93.0864 117.205 93.2424 117.153C93.5101 117.064 93.8871 116.91 93.952 116.701C94.069 116.33 93.9832 115.896 93.9832 115.449H93.9858Z" fill="white"/>
<path d="M81.9861 115.562C81.9731 116.079 81.8691 116.573 81.5519 116.996C80.7382 118.091 79.1213 117.921 78.5468 116.688C78.201 115.946 78.1776 115.196 78.552 114.47C78.9393 113.717 79.714 113.364 80.5095 113.529C81.2894 113.691 81.8717 114.373 81.9653 115.235C81.9757 115.342 81.9809 115.452 81.9861 115.559V115.562ZM79.0381 115.946C79.1239 116.212 79.1941 116.575 79.3553 116.894C79.5216 117.226 79.8518 117.378 80.2261 117.338C80.5953 117.299 80.8656 117.101 81.0008 116.737C81.253 116.055 81.2816 115.363 81.0606 114.673C80.8734 114.091 80.5407 113.85 80.0623 113.879C79.6334 113.905 79.2747 114.268 79.1759 114.817C79.1135 115.154 79.0927 115.499 79.0407 115.946H79.0381Z" fill="white"/>
<path d="M135 117.273C134.592 117.811 134.163 117.756 133.653 117.119C133.474 117.244 133.3 117.385 133.11 117.5C132.715 117.743 132.12 117.702 131.766 117.419C131.475 117.189 131.319 116.706 131.514 116.327C131.659 116.045 131.901 115.763 132.172 115.609C132.559 115.392 133.009 115.277 133.443 115.154C133.617 115.104 133.682 115.042 133.666 114.875C133.656 114.747 133.653 114.616 133.64 114.485C133.609 114.114 133.435 113.908 133.133 113.871C132.759 113.827 132.507 113.978 132.38 114.331C132.309 114.524 132.317 114.775 131.987 114.726C131.75 114.689 131.592 114.504 131.667 114.279C131.709 114.159 131.774 114.036 131.86 113.947C132.289 113.505 133.258 113.383 133.799 113.683C134.142 113.874 134.316 114.169 134.332 114.551C134.363 115.316 134.381 116.084 134.394 116.852C134.402 117.255 134.389 117.252 134.81 117.229C134.86 117.226 134.909 117.25 134.997 117.27L135 117.273ZM133.643 115.512C133.003 115.478 132.369 115.888 132.226 116.387C132.12 116.758 132.294 117.108 132.624 117.184C132.944 117.26 133.622 116.926 133.638 116.659C133.661 116.285 133.643 115.909 133.643 115.512Z" fill="white"/>
<path d="M68.6189 115.661C68.6319 115.073 68.7203 114.587 69.0452 114.18C69.9031 113.098 71.5409 113.323 72.0868 114.608C72.4091 115.366 72.3831 116.123 71.9542 116.845C71.5357 117.547 70.8598 117.824 69.9811 117.657C69.3832 117.542 68.7983 116.897 68.6865 116.223C68.6527 116.011 68.6345 115.794 68.6189 115.661ZM69.3156 115.517C69.3676 115.886 69.365 116.178 69.4586 116.434C69.56 116.706 69.6977 117.02 69.9161 117.182C70.4386 117.568 71.0703 117.304 71.3277 116.63C71.598 115.925 71.5721 115.214 71.3017 114.517C71.1639 114.159 70.9014 113.929 70.514 113.882C70.0877 113.829 69.7991 114.072 69.6457 114.425C69.4872 114.794 69.4092 115.199 69.3156 115.517Z" fill="white"/>
<path d="M101.387 113.686H103.537C103.443 113.769 103.417 113.803 103.384 113.822C103.091 113.989 103.035 114.223 103.217 114.524C103.334 114.718 103.456 114.908 103.61 115.151C103.911 114.728 104.163 114.375 104.431 114.002C104.226 113.895 104.088 113.824 103.953 113.754C103.958 113.73 103.963 113.707 103.971 113.683H105.674C105.578 113.761 105.541 113.816 105.492 113.829C104.689 114.057 104.364 114.794 103.872 115.355C103.833 115.4 103.865 115.543 103.909 115.614C104.189 116.063 104.46 116.521 104.78 116.941C104.92 117.124 105.164 117.229 105.37 117.359C105.456 117.414 105.557 117.445 105.635 117.553H103.488C103.477 117.524 103.467 117.492 103.456 117.464C103.558 117.425 103.657 117.362 103.761 117.354C103.956 117.341 104.023 117.234 103.969 117.077C103.836 116.688 103.631 116.34 103.29 116.037C103.04 116.377 102.804 116.683 102.591 117.001C102.463 117.192 102.518 117.325 102.765 117.359C102.843 117.37 102.913 117.432 102.986 117.472C102.978 117.498 102.97 117.526 102.962 117.553H101.325C101.353 117.503 101.366 117.451 101.395 117.44C102.006 117.221 102.323 116.688 102.697 116.22C103.144 115.658 103.139 115.656 102.726 115.07C102.552 114.822 102.401 114.553 102.193 114.336C101.967 114.104 101.689 113.926 101.385 113.686H101.387Z" fill="white"/>
<path d="M34.9697 115.596C34.9879 116.084 34.8736 116.539 34.5928 116.944C34.2029 117.506 33.6569 117.759 32.9758 117.707C32.2869 117.652 31.8138 117.281 31.5331 116.662C31.1847 115.893 31.1977 115.12 31.611 114.389C32.027 113.652 32.8069 113.351 33.6076 113.555C34.3536 113.746 34.9256 114.49 34.9697 115.337C34.9749 115.423 34.9697 115.509 34.9697 115.596ZM34.2678 115.572C34.1717 115.209 34.1041 114.801 33.9559 114.425C33.8181 114.075 33.5426 113.853 33.124 113.874C32.7159 113.892 32.4559 114.114 32.3103 114.47C32.092 115.01 31.9932 115.577 32.1128 116.152C32.1726 116.44 32.2635 116.75 32.4325 116.98C32.8771 117.584 33.7661 117.435 34.0053 116.727C34.1249 116.372 34.1717 115.993 34.2653 115.572H34.2678Z" fill="white"/>
<path d="M113.096 116.831C113.036 116.949 113.002 117.095 112.911 117.182C111.863 118.167 110.218 117.696 109.862 116.309C109.664 115.543 109.721 114.807 110.244 114.161C110.792 113.485 111.801 113.32 112.448 113.816C112.869 114.143 113.015 114.598 112.95 115.112C112.94 115.191 112.763 115.303 112.662 115.306C112.056 115.324 111.45 115.324 110.847 115.313C110.6 115.308 110.473 115.368 110.517 115.64C110.53 115.724 110.517 115.812 110.519 115.899C110.525 116.4 110.655 116.868 111.125 117.108C111.619 117.359 112.131 117.286 112.607 116.996C112.732 116.918 112.856 116.839 112.981 116.758C113.02 116.784 113.059 116.808 113.098 116.834L113.096 116.831ZM110.621 114.935C111.141 114.935 111.632 114.94 112.126 114.927C112.181 114.927 112.269 114.83 112.282 114.765C112.342 114.459 112.09 114.078 111.785 113.986C111.268 113.829 110.751 114.224 110.623 114.935H110.621Z" fill="white"/>
<path d="M118.18 115.319C117.866 115.319 117.554 115.321 117.239 115.319C117.029 115.316 116.907 115.392 116.94 115.624C116.985 115.922 116.985 116.236 117.081 116.515C117.312 117.202 117.991 117.453 118.732 117.148C118.89 117.082 119.025 116.967 119.184 116.899C119.267 116.863 119.374 116.876 119.467 116.865C119.441 116.962 119.449 117.095 119.387 117.15C118.849 117.623 118.232 117.793 117.523 117.61C116.376 117.312 116.08 116.089 116.207 115.261C116.363 114.245 116.917 113.681 117.83 113.539C118.737 113.401 119.563 114.234 119.392 115.131C119.379 115.204 119.238 115.3 119.153 115.306C118.83 115.327 118.505 115.313 118.18 115.313V115.319ZM117.068 114.932C117.577 114.932 118.058 114.937 118.539 114.927C118.602 114.927 118.698 114.851 118.713 114.794C118.781 114.537 118.518 114.104 118.261 114.01C117.707 113.809 117.172 114.2 117.068 114.935V114.932Z" fill="white"/>
<path d="M100.794 116.758C100.987 116.933 100.867 117.051 100.75 117.169C99.8377 118.104 98.1765 117.735 97.7502 116.492C97.4279 115.551 97.4877 114.679 98.2779 113.971C98.7693 113.532 99.3334 113.406 99.9625 113.639C100.558 113.861 100.75 114.362 100.844 114.932C100.888 115.198 100.771 115.313 100.508 115.311C99.8923 115.311 99.2762 115.321 98.6627 115.311C98.4053 115.306 98.2701 115.376 98.3143 115.658C98.3403 115.818 98.3273 115.985 98.3585 116.142C98.5847 117.197 99.4062 117.566 100.358 117.038C100.506 116.954 100.646 116.855 100.794 116.758ZM98.3871 114.932C98.933 114.932 99.4166 114.942 99.8975 114.922C99.9651 114.919 100.074 114.773 100.082 114.686C100.124 114.219 99.7467 113.89 99.2762 113.963C98.7589 114.044 98.5717 114.436 98.3871 114.932Z" fill="white"/>
<path d="M65.3253 117.592V116.283C65.3539 116.267 65.3799 116.249 65.4085 116.233C65.4761 116.33 65.5567 116.421 65.6113 116.526C65.9025 117.093 66.2638 117.325 66.8097 117.278C67.0463 117.257 67.2517 117.2 67.3375 116.931C67.4232 116.659 67.3556 116.427 67.1477 116.259C66.9631 116.113 66.7447 116.008 66.5394 115.894C66.3418 115.781 66.1338 115.69 65.9441 115.567C65.4241 115.225 65.2318 114.624 65.4605 114.096C65.6399 113.683 66.3392 113.414 66.8695 113.55C67.1321 113.618 67.3972 113.675 67.7014 113.746V114.686C67.6728 114.694 67.6416 114.702 67.613 114.71C67.5688 114.624 67.522 114.537 67.4778 114.451C67.2855 114.083 66.9683 113.866 66.5654 113.9C66.3782 113.916 66.139 114.088 66.0532 114.255C65.9909 114.381 66.0766 114.689 66.1988 114.783C66.5472 115.05 66.9423 115.253 67.3271 115.468C67.8496 115.758 68.0757 116.176 67.9821 116.719C67.847 117.506 66.9085 117.921 66.1078 117.547C66.0792 117.534 66.048 117.521 66.022 117.503C65.7725 117.323 65.5281 117.169 65.3825 117.688C65.3617 117.654 65.3436 117.623 65.3228 117.589L65.3253 117.592Z" fill="white"/>
<path d="M89.226 112.11C89.6367 112.04 90.0449 111.961 90.4582 111.914C90.492 111.909 90.5908 112.105 90.5908 112.207C90.5986 113.581 90.5934 114.956 90.5934 116.33C90.5934 116.492 90.5934 116.654 90.5934 116.816C90.6012 117.088 90.6948 117.297 90.9833 117.378C91.0561 117.398 91.1185 117.456 91.1679 117.555H89.2182C89.2026 117.534 89.187 117.513 89.1714 117.493C89.2598 117.445 89.3456 117.364 89.4365 117.357C89.7251 117.328 89.8317 117.155 89.8317 116.897C89.8343 115.556 89.8369 114.214 89.8317 112.873C89.8317 112.622 89.7563 112.405 89.4573 112.351C89.3716 112.335 89.2962 112.267 89.2156 112.223C89.2182 112.186 89.2208 112.147 89.226 112.11Z" fill="white"/>
<path d="M109.168 116.845C109.048 117.252 108.713 117.459 108.338 117.592C107.457 117.905 106.594 117.503 106.238 116.636C105.856 115.703 106.056 114.605 106.755 113.971C107.27 113.503 107.878 113.398 108.536 113.623C108.825 113.722 109.001 113.934 109.038 114.242C109.069 114.498 108.944 114.655 108.7 114.718C108.432 114.783 108.338 114.629 108.279 114.402C108.227 114.193 108.258 113.916 107.954 113.869C107.626 113.816 107.382 113.973 107.226 114.247C106.794 115.003 106.709 115.805 107 116.62C107.205 117.197 107.842 117.409 108.432 117.135C108.663 117.027 108.877 116.884 109.098 116.758C109.121 116.787 109.147 116.816 109.17 116.845H109.168Z" fill="white"/>
<path d="M30.7374 116.74C30.6958 117.176 30.2746 117.553 29.7937 117.652C28.6915 117.877 27.8336 117.247 27.688 116.066C27.5867 115.246 27.7556 114.496 28.4263 113.926C28.9177 113.508 29.6637 113.39 30.2149 113.662C30.571 113.837 30.688 114.109 30.5814 114.456C30.5216 114.652 30.4046 114.726 30.2019 114.733C29.9887 114.739 29.9185 114.618 29.8717 114.451C29.8561 114.399 29.8431 114.347 29.8327 114.294C29.7365 113.845 29.3258 113.686 29.019 114.044C28.7721 114.331 28.6057 114.726 28.5199 115.099C28.4341 115.468 28.4601 115.873 28.5017 116.254C28.5875 117.09 29.2946 117.477 30.0563 117.124C30.2773 117.022 30.4826 116.889 30.7426 116.743L30.7374 116.74Z" fill="white"/>
<path d="M77.7566 116.847C77.624 117.226 77.3224 117.453 76.9533 117.584C75.9966 117.921 75.0842 117.482 74.7878 116.513C74.5019 115.575 74.5928 114.686 75.3493 113.973C75.8485 113.505 76.4542 113.406 77.0963 113.61C77.4004 113.707 77.624 113.916 77.637 114.266C77.6448 114.514 77.5226 114.673 77.2704 114.723C76.9975 114.778 76.9169 114.613 76.8623 114.391C76.8103 114.185 76.8441 113.905 76.5322 113.866C76.2202 113.827 75.9836 113.968 75.8277 114.229C75.3753 114.989 75.3103 115.807 75.5963 116.628C75.8043 117.223 76.4776 117.425 77.0807 117.121C77.2886 117.017 77.4784 116.881 77.6786 116.758C77.7046 116.787 77.7306 116.816 77.7566 116.845V116.847Z" fill="white"/>
<path d="M113.621 112.113C114.029 112.04 114.437 111.956 114.848 111.904C114.887 111.899 114.993 112.084 114.993 112.183C115.001 113.568 114.996 114.953 114.993 116.338C114.993 116.479 114.993 116.62 114.993 116.758C114.993 117.067 115.074 117.315 115.438 117.362C115.511 117.372 115.576 117.44 115.625 117.55H113.605C113.665 117.495 113.696 117.438 113.735 117.43C114.154 117.341 114.276 117.043 114.273 116.664C114.268 115.4 114.263 114.138 114.245 112.873C114.24 112.562 114.136 112.298 113.74 112.309C113.701 112.309 113.662 112.246 113.623 112.215C113.623 112.181 113.621 112.147 113.618 112.113H113.621Z" fill="white"/>
<path d="M49.6732 117.573H47.6793L47.6403 117.495C47.7339 117.443 47.8249 117.372 47.9236 117.344C48.1914 117.27 48.3162 117.119 48.311 116.831C48.298 116.095 48.3084 115.361 48.298 114.624C48.2928 114.135 48.2512 114.099 47.7703 113.939C47.7183 113.921 47.6819 113.85 47.5857 113.743C47.9626 113.678 48.2642 113.628 48.5657 113.576C48.8283 113.529 48.9583 113.623 48.9349 113.903C48.9297 113.971 48.9661 114.041 48.9843 114.109C49.0285 114.146 49.0727 114.18 49.1169 114.216C49.1923 114.088 49.2494 113.947 49.343 113.837C49.5952 113.55 49.9175 113.469 50.2841 113.584C50.5466 113.665 50.7052 113.845 50.7416 114.117C50.7728 114.365 50.7078 114.582 50.4349 114.647C50.1723 114.71 50.1255 114.493 50.0371 114.318C49.9695 114.182 49.85 113.957 49.7772 113.965C49.6186 113.986 49.395 114.096 49.3404 114.229C49.1871 114.603 49.0519 115 49.0129 115.397C48.9661 115.888 49.0259 116.39 49.0415 116.886C49.0493 117.158 49.1507 117.341 49.4574 117.362C49.5458 117.367 49.6264 117.443 49.7122 117.487C49.6992 117.516 49.6862 117.547 49.6732 117.576V117.573Z" fill="white"/>
<path d="M128.306 116.892C128.127 117.357 127.721 117.56 127.274 117.644C126.218 117.843 125.405 117.239 125.254 116.157C125.137 115.303 125.267 114.509 125.977 113.921C126.504 113.485 127.102 113.398 127.734 113.665C128.09 113.816 128.251 114.135 128.111 114.446C128.059 114.561 127.906 114.694 127.791 114.702C127.679 114.71 127.549 114.577 127.445 114.485C127.396 114.441 127.386 114.349 127.367 114.276C127.253 113.827 126.884 113.688 126.554 114.025C126.341 114.245 126.19 114.558 126.096 114.856C125.909 115.452 125.849 116.066 126.148 116.654C126.463 117.273 127.027 117.44 127.643 117.108C127.841 117.001 128.038 116.889 128.233 116.779C128.257 116.816 128.28 116.852 128.306 116.889V116.892Z" fill="white"/>
<path d="M128.831 113.926C128.951 113.68 129.611 113.524 130.232 113.558C130.238 113.67 130.248 113.785 130.248 113.9C130.248 114.809 130.245 115.718 130.248 116.628C130.248 117.163 130.271 117.195 130.75 117.391C130.789 117.406 130.828 117.427 130.861 117.453C130.874 117.464 130.877 117.49 130.9 117.547H128.79C128.943 117.453 129.055 117.409 129.13 117.331C129.257 117.202 129.452 117.054 129.458 116.907C129.489 116.097 129.471 115.285 129.468 114.475C129.468 114.083 129.231 113.923 128.831 113.926Z" fill="white"/>
<path d="M62.7022 117.477C62.7958 117.435 62.8894 117.364 62.9882 117.354C63.2404 117.328 63.3625 117.195 63.3625 116.952C63.3651 116.121 63.3703 115.29 63.3573 114.459C63.3521 114.169 63.2066 113.973 62.8842 113.939C62.814 113.931 62.7516 113.845 62.6165 113.741C63.1156 113.66 63.5081 113.594 63.9007 113.532C64.1294 113.495 64.1112 113.662 64.1112 113.801C64.1112 114.699 64.1242 115.598 64.1112 116.497C64.1034 116.926 64.1164 117.312 64.6571 117.398C64.6961 117.404 64.7247 117.472 64.7949 117.553H62.7412C62.7282 117.526 62.7152 117.5 62.7048 117.474L62.7022 117.477Z" fill="white"/>
<path d="M64.0931 112.442C64.0957 112.696 63.9138 112.912 63.6824 112.891C63.438 112.873 63.3132 112.695 63.3054 112.476C63.2976 112.238 63.4588 112.097 63.685 112.066C63.8904 112.037 64.0879 112.233 64.0905 112.439L64.0931 112.442Z" fill="white"/>
<path d="M129.429 112.518C129.421 112.194 129.567 112.089 129.788 112.087C130.011 112.087 130.191 112.181 130.224 112.424C130.253 112.62 130.006 112.873 129.806 112.878C129.606 112.886 129.432 112.685 129.429 112.518Z" fill="white"/>
<path d="M70.9418 78.0045C71.1442 77.8562 71.3252 77.6552 71.5514 77.5666C72.1847 77.3177 72.8371 77.1143 73.48 76.8918C73.5752 76.8583 73.6681 76.8224 73.749 76.7171C73.6776 76.7027 73.6062 76.6836 73.5347 76.6764C72.4847 76.5639 71.4347 76.4467 70.3823 76.351C70.2418 76.339 70.0752 76.4084 69.9513 76.4874C69.2037 76.9803 68.4442 77.4422 67.5465 77.6025C66.3013 77.8275 65.2751 77.3824 64.3822 76.5424C64.3655 76.5257 64.3655 76.4922 64.3536 76.4515C65.6394 76.3725 66.918 76.3103 68.2418 75.8939C68.0799 75.8149 67.9989 75.7671 67.9132 75.736C67.718 75.6666 67.5156 75.6187 67.3227 75.5397C66.8227 75.3339 66.3846 75.3052 65.8227 75.523C64.4465 76.0566 63.0274 75.9992 61.6703 75.3579C61.306 75.1856 60.9845 74.9415 60.944 74.4868C60.9321 74.36 60.975 74.2283 60.9988 74.0584C62.0155 74.6112 63.025 74.3528 64.0584 74.2236C63.9798 74.1637 63.906 74.0967 63.8251 74.0441C63.325 73.7258 62.8346 73.6492 62.2155 73.7832C60.8512 74.0824 59.5012 73.9508 58.2773 73.1826C57.8059 72.8859 57.4345 72.479 57.1154 71.9933C58.3559 72.5269 59.6488 72.3163 60.9512 72.302C60.8917 72.2469 60.8369 72.1871 60.775 72.1368C60.4155 71.8569 60.0631 71.5673 59.6916 71.3041C59.6083 71.2442 59.4559 71.2442 59.3488 71.2682C58.8392 71.3806 58.3392 71.5458 57.8249 71.6271C56.744 71.7994 55.8535 71.3519 55.0535 70.6795C54.8392 70.5 54.6344 70.3086 54.4368 70.0788C55.7368 70.4019 57.0297 70.2463 58.4083 70.1458C58.2773 70.0286 58.213 69.9376 58.125 69.8994C57.6749 69.7007 57.2202 69.5021 56.7606 69.325C56.444 69.203 56.1297 69.2437 55.8106 69.3729C54.763 69.8036 53.7011 69.7175 52.6415 69.4208C52.5225 69.3873 52.4034 69.349 52.2558 69.3035C52.9915 68.6382 53.8034 68.296 54.8035 68.4348C54.013 67.9347 53.713 67.1282 53.3106 66.3433C54.3035 66.5419 55.263 66.6879 55.8892 67.6188C56.2773 68.1931 56.7892 68.6837 57.2464 69.2126C57.2821 69.1862 57.3154 69.1599 57.3511 69.1336C57.2868 69.0355 57.2321 68.9302 57.1535 68.8416C55.3011 66.7501 53.9011 64.381 52.9106 61.7726C52.2677 60.0832 51.8034 58.341 51.6439 56.5367C51.5367 55.3234 51.4272 54.1006 51.4748 52.8897C51.5629 50.6762 51.932 48.5057 52.7129 46.4142C53.732 43.6837 55.1416 41.1878 57.0654 39.0006C59.3774 36.373 62.1298 34.3413 65.3417 32.9462C67.2846 32.1015 69.3085 31.5391 71.4014 31.2376C73.3681 30.9552 75.3395 30.9241 77.3205 31.1466C80.4277 31.496 83.354 32.4006 86.0873 33.9106C88.2779 35.1215 90.2327 36.6386 91.9375 38.4837C94.797 41.5779 96.6471 45.1865 97.5209 49.3002C98.028 51.6836 98.1185 54.0934 97.859 56.5175C97.4852 60.0138 96.2018 63.1845 94.3565 66.1423C93.7589 67.0995 93.0827 68.0017 92.2922 68.8129C92.2732 68.8321 92.2684 68.8632 92.2232 68.9589C92.6637 68.7411 93.0041 68.521 93.1994 68.1189C93.4756 67.5542 93.8113 67.0301 94.3089 66.6305C94.9089 66.1495 95.5709 66.0107 96.3494 66.3218C95.6566 66.9775 95.478 68.0137 94.5399 68.4253C94.5446 68.4516 94.5518 68.4755 94.5565 68.5018C95.4399 68.5688 96.3256 68.6358 97.2375 68.7052C97.2066 68.7579 97.1875 68.8249 97.1423 68.8608C96.5423 69.3466 95.8899 69.7869 95.1018 69.7869C94.628 69.7869 94.097 69.6624 93.6899 69.4231C93.1565 69.1097 92.7303 69.0474 92.2351 69.4399C91.9779 69.6433 91.6684 69.7797 91.3827 69.9448C91.3946 69.9712 91.4065 69.9999 91.4184 70.0262C91.6446 69.9807 91.8732 69.9424 92.0994 69.8874C92.6779 69.7486 93.2518 69.7845 93.8351 69.8898C94.3446 69.9807 94.8685 69.9951 95.3732 70.0405C95.3851 70.0238 95.3637 70.0788 95.3256 70.1076C95.0351 70.3301 94.7351 70.5407 94.447 70.768C93.447 71.5553 92.3232 71.7228 91.1374 71.3567C90.3731 71.1222 89.7255 71.1653 89.1517 71.7755C88.9684 71.9717 88.7207 72.1105 88.4374 72.3259C89.8112 72.4288 91.0922 72.5867 92.4303 72.1799C91.597 73.4674 90.4374 74.2595 89.0041 73.9819C88.3374 73.8526 87.6874 73.6421 87.0278 73.4722C86.9469 73.4506 86.8397 73.4171 86.7778 73.4506C86.2302 73.745 85.6873 74.0513 85.1445 74.3576C85.1302 74.3647 85.1254 74.3887 85.1159 74.403C86.335 74.5347 87.5564 74.6639 88.8112 74.7979C87.8945 75.5158 86.9255 75.9896 85.7659 76.004C84.8849 76.0135 84.0968 75.7551 83.354 75.298C83.2492 75.2334 83.0659 75.2382 82.9373 75.2765C82.5682 75.3842 82.2087 75.523 81.842 75.6809C82.9587 76.0016 84.0373 76.4778 85.2611 76.3869C85.0635 76.7099 84.8421 76.9684 84.504 77.1143C83.5921 77.5068 82.6516 77.4733 81.7039 77.3106C80.8682 77.167 80.0753 76.9109 79.3444 76.4658C79.2348 76.3988 79.0777 76.3725 78.9491 76.3869C78.0086 76.4945 77.0705 76.619 76.0991 76.7434C76.2586 76.8128 76.4086 76.8846 76.5658 76.942C77.3062 77.2148 78.0515 77.4781 78.792 77.7581C78.9206 77.8059 79.0277 77.9208 79.142 78.0022H78.7253C78.6563 77.9447 78.5944 77.8562 78.5158 77.837C78.1348 77.7389 77.742 77.6743 77.3634 77.569C76.2276 77.2531 75.0729 77.0928 73.9038 77.2842C73.0871 77.4183 72.2871 77.6432 71.4799 77.837C71.4085 77.8538 71.3561 77.9447 71.2942 78.0022H70.9371L70.9418 78.0045ZM92.1803 66.8841C92.697 66.8459 93.0684 66.786 93.3422 66.3577C94.1803 65.0439 94.9756 63.7182 95.5518 62.2608C96.4661 59.9396 97.0756 57.5489 97.2114 55.0602C97.2995 53.4473 97.259 51.8296 96.9756 50.2287C96.428 47.1297 95.3066 44.2652 93.5018 41.6855C92.0089 39.5534 90.2422 37.6772 88.1255 36.1409C84.6611 33.6234 80.7873 32.2187 76.5419 31.8071C75.2276 31.6803 73.9157 31.7329 72.599 31.855C70.5561 32.044 68.5823 32.5179 66.668 33.2405C63.6536 34.3772 61.0036 36.0906 58.725 38.3808C56.2916 40.8241 54.4201 43.6119 53.3558 46.9239C52.6725 49.0489 52.2558 51.2146 52.2082 53.4473C52.1748 55.0482 52.3058 56.63 52.6201 58.2022C53.282 61.519 54.7035 64.4815 56.7202 67.1737C56.7773 67.2503 56.8678 67.3029 56.9083 67.3388C57.0154 67.1019 57.1083 66.8961 57.2035 66.6903C57.2368 66.6209 57.1797 66.53 57.1202 66.4414C56.7583 65.8863 56.3725 65.343 56.0344 64.7735C53.8987 61.1576 52.9153 57.2474 53.0558 53.05C53.113 51.3486 53.3511 49.6711 53.8249 48.0414C54.9392 44.1982 56.9511 40.8958 59.875 38.1534C61.7964 36.3491 63.9774 34.9444 66.3989 33.9321C69.1323 32.7883 72.0061 32.2546 74.9633 32.2666C76.5658 32.2714 78.1539 32.4772 79.7253 32.8242C81.8801 33.298 83.8873 34.1188 85.7921 35.2244C88.8017 36.9737 91.266 39.2877 93.1232 42.2407C95.5423 46.0911 96.6899 50.2837 96.4899 54.8376C96.409 56.6659 96.109 58.4583 95.5589 60.2076C94.8613 62.4283 93.8422 64.4863 92.4851 66.3768C92.3827 66.5204 92.3041 66.6831 92.1803 66.8937V66.8841ZM57.5107 54.4165C57.5535 54.9262 57.5821 55.5699 57.6654 56.2088C57.7488 56.8454 57.8607 57.4819 58.0083 58.1065C58.6059 60.6335 59.744 62.9021 61.3893 64.9051C63.2608 67.1833 65.5727 68.8608 68.2966 69.9927C70.3156 70.8302 72.4109 71.2658 74.5871 71.2777C76.3324 71.2873 78.0467 71.0743 79.7277 70.5311C82.6754 69.5835 85.2373 68.0424 87.3398 65.769C89.8827 63.0218 91.416 59.7864 91.8375 56.0509C92.0779 53.9115 91.9208 51.8057 91.3351 49.7261C90.8541 48.0175 90.1827 46.395 89.1779 44.9305C88.2683 43.6024 87.2421 42.3723 85.9921 41.3433C84.6635 40.2497 83.2659 39.2782 81.6706 38.6057C80.0682 37.9285 78.4205 37.3901 76.6872 37.2417C74.0514 37.0144 71.4633 37.201 68.949 38.1606C64.3727 39.9099 61.0083 42.9467 58.9845 47.4216C58.0011 49.5945 57.5559 51.899 57.513 54.4189L57.5107 54.4165ZM81.573 37.8328C81.6682 37.8926 81.7063 37.9285 81.7516 37.9428C82.8325 38.2803 83.7706 38.8857 84.7159 39.4816C85.4445 39.941 86.2302 39.7855 86.7469 39.1178C87.3945 38.2779 87.4159 37.5097 86.7516 36.8827C86.4088 36.5597 85.9945 36.3108 85.6111 36.0332C85.4492 35.916 85.2802 35.8131 85.1516 35.7293C85.1516 35.9782 85.2373 36.2605 85.1373 36.4328C84.7659 37.0742 84.3445 37.6892 83.9206 38.2994C83.723 38.5842 83.3849 38.5818 83.1206 38.3497C82.854 38.1151 82.9302 37.8017 82.923 37.5145C82.904 36.6626 82.9111 35.8083 82.8921 34.9563C82.8921 34.8582 82.8135 34.7099 82.7373 34.6811C82.6635 34.6524 82.5159 34.7242 82.4444 34.796C81.6063 35.6192 80.8968 36.5788 79.861 37.2465C80.2134 37.3254 80.5563 37.4044 80.9015 37.4834C80.9134 37.4523 80.923 37.4212 80.9349 37.3901C80.8968 37.3566 80.8611 37.3015 80.8158 37.2896C80.6444 37.2417 80.6373 37.1101 80.723 37.0191C80.8825 36.854 81.0825 36.5932 81.2515 36.6028C81.5682 36.6195 81.8754 36.8038 82.1873 36.921C82.2063 36.9282 82.2111 36.9713 82.2182 37C82.3611 37.5743 82.2111 37.7873 81.573 37.8352V37.8328ZM82.0301 71.9885C81.4611 73.0366 81.4658 74.3265 80.6206 75.2693C81.0015 75.2119 81.3087 75.0851 81.5611 74.8314C81.9944 74.3935 82.2039 73.8431 82.373 73.2687C82.6135 72.4431 82.7801 71.6056 82.8111 70.7537C82.773 70.7321 82.7563 70.7154 82.7397 70.7154C82.7016 70.7178 82.6611 70.7273 82.623 70.7393C81.6968 71.0337 81.0134 71.6032 80.7468 72.558C80.5277 73.3357 80.3801 74.135 80.2039 74.9247C80.1944 74.9726 80.223 75.03 80.2468 75.1544C80.4134 75.0037 80.5539 74.9008 80.6682 74.774C81.0563 74.3432 81.2515 73.8191 81.4135 73.2735C81.5492 72.8141 81.6873 72.3522 82.0278 71.9885H82.0301ZM86.985 72.1321C87.0683 72.1129 87.1231 72.1153 87.1588 72.089C87.6231 71.742 88.0612 71.3735 88.285 70.8159C88.6231 69.9759 88.5445 69.1025 88.466 68.2338C88.4517 68.0854 88.3588 68.0232 88.2136 68.095C87.8802 68.2625 87.5183 68.3965 87.2231 68.6167C86.5159 69.1408 86.5016 69.9137 86.5826 70.6938C86.6135 70.9858 86.6969 71.273 86.754 71.5625C86.9374 71.0863 87.0302 70.6125 87.1898 70.1626C87.4564 69.4184 87.6898 69.0522 87.8921 68.923C87.4302 69.9376 87.0112 70.9643 86.9826 72.1321H86.985ZM69.5347 74.8529C69.6275 74.9869 69.6656 75.1042 69.7466 75.1521C70.0228 75.3172 70.299 75.5278 70.6037 75.59C71.3466 75.7431 72.1038 75.8532 72.8585 75.9202C74.28 76.0471 75.7015 76.0303 77.1229 75.8724C77.942 75.7814 78.7515 75.6713 79.4682 75.2191C79.5706 75.1545 79.6515 75.0563 79.742 74.975C79.7277 74.9463 79.7134 74.9175 79.6968 74.8888C76.3324 75.6977 72.9752 75.5493 69.5323 74.8505L69.5347 74.8529ZM69.1799 35.7987C69.3347 35.8896 69.4609 35.9399 69.5561 36.0236C69.8466 36.2797 70.118 36.5525 70.4085 36.8062C70.4895 36.878 70.6156 36.9569 70.7109 36.945C70.9871 36.9115 71.2609 36.8349 71.5347 36.7774L71.5752 36.708C70.9776 36.3946 70.3228 36.1624 69.8347 35.6264C69.9323 35.545 70.0061 35.4852 70.0799 35.423C70.3775 35.1717 70.4823 34.8128 70.3585 34.4634C70.2418 34.1331 69.8299 33.8029 69.4894 33.8579C68.837 33.9632 68.1942 34.126 67.4442 34.2839C67.9846 34.3724 68.1061 34.7266 68.2013 35.1119C68.318 35.5809 68.4561 36.0452 68.5823 36.5142C68.6751 36.8564 68.8847 37.2154 68.4061 37.493C68.4323 37.5145 68.4608 37.5384 68.487 37.56C68.9704 37.4403 69.4561 37.3207 69.9394 37.1986C69.4275 37.0144 69.1609 36.5692 69.1799 35.7963V35.7987ZM64.1155 69.4255C64.0989 69.5069 64.0822 69.5452 64.0846 69.5811C64.106 70.2942 64.1084 71.0073 64.1608 71.7181C64.2108 72.3905 64.3798 73.0318 64.9322 73.4913C65.0679 73.6038 65.2298 73.6827 65.3798 73.7785C65.4036 73.7521 65.4275 73.7282 65.4513 73.7019C65.4156 73.6277 65.3894 73.5511 65.3441 73.4841C64.9584 72.9146 64.8203 72.278 64.806 71.5984C64.7989 71.2634 64.7417 70.9308 64.6965 70.5981C64.6822 70.4857 64.6346 70.378 64.6013 70.2679C64.6917 70.3086 64.7417 70.3636 64.7513 70.4258C64.837 70.9188 64.9417 71.4118 64.9917 71.9095C65.0513 72.4934 65.1846 73.0438 65.5656 73.5033C65.6537 73.6086 65.7941 73.6684 65.9727 73.7952C65.9322 73.2065 65.9203 72.7231 65.8584 72.2445C65.7989 71.797 65.7251 71.3424 65.5846 70.9164C65.3489 70.2057 64.8465 69.7223 64.1179 69.4255H64.1155ZM77.2634 33.2214C77.3324 33.3219 77.3467 33.3698 77.3753 33.3817C77.6586 33.5086 77.6824 33.7192 77.6158 33.9944C77.4777 34.5615 77.3491 35.131 77.2467 35.7054C77.18 36.0739 77.1253 36.4161 76.6491 36.4328C76.6396 36.4328 76.63 36.464 76.611 36.4927C76.6396 36.5142 76.6658 36.5501 76.6991 36.5549C77.2205 36.6626 77.742 36.7822 78.2658 36.866C78.6467 36.9258 79.0325 36.9306 79.3872 36.7104C79.8991 36.3946 80.2968 35.5115 80.1991 34.8702C80.1277 34.3916 79.8968 34.0183 79.4777 33.7694C78.8158 33.3769 78.0634 33.3769 77.2634 33.2214ZM84.854 70.847C84.8849 70.859 84.9159 70.8709 84.9445 70.8829C84.5968 71.8449 84.2516 72.8093 83.904 73.7713C83.923 73.7904 83.9421 73.812 83.9635 73.8311C84.2349 73.5535 84.5778 73.319 84.7635 72.9912C85.2683 72.1081 85.5016 71.1413 85.4588 70.1123C85.4492 69.8874 85.3635 69.8419 85.1611 69.8898C84.4635 70.0549 83.9587 70.4761 83.8111 71.1653C83.6397 71.955 83.5873 72.7686 83.4921 73.5727C83.4849 73.6373 83.5468 73.7115 83.5778 73.7809C83.6064 73.7809 83.6349 73.7785 83.6659 73.7761L84.854 70.8446V70.847ZM67.0442 71.462C66.8132 73.3501 67.6727 74.9056 69.1132 75.0851C69.0228 74.9343 68.918 74.7931 68.787 74.6806C68.018 74.0034 67.5108 73.185 67.418 72.1967C67.6156 72.6226 67.8251 73.0964 68.0561 73.5631C68.2918 74.0393 68.7013 74.3528 69.1347 74.6591C69.018 74.001 68.8989 73.3501 68.6942 72.7279C68.4418 71.9621 67.7965 71.6511 67.0418 71.462H67.0442ZM66.0965 75.1808C65.9632 74.9893 65.887 74.7572 65.7489 74.7117C65.3632 74.5849 64.9441 74.4485 64.5489 74.47C63.4917 74.5275 62.4393 74.6758 61.3869 74.4509C61.3179 74.4365 61.2441 74.4581 61.1464 74.4629C61.2393 74.8577 61.475 75.0803 61.7893 75.2334C63.0417 75.846 64.3274 75.8245 65.6251 75.4081C65.7775 75.3579 65.9179 75.2693 66.0965 75.1832V75.1808ZM59.8226 42.6667C59.8107 42.6954 59.8012 42.7241 59.7893 42.7528C58.9607 42.7528 58.1297 42.7528 57.3011 42.7528C56.963 42.7528 56.6011 43.1142 56.5868 43.3942C56.8011 43.4612 57.0178 43.4827 57.1845 43.588C57.7249 43.9326 58.2488 44.3035 58.7773 44.6697C59.1964 44.9616 59.2202 45.0334 59.125 45.524C59.3774 45.1961 59.6297 44.8683 59.8821 44.5404C59.8726 44.5141 59.8631 44.4878 59.8512 44.4615C59.5393 44.6744 59.2416 44.6936 58.9416 44.4758C58.5416 44.1863 58.125 43.9182 57.7202 43.6335C57.6416 43.5784 57.5868 43.4899 57.4749 43.3678C58.494 43.3678 59.4321 43.3726 60.3702 43.3631C60.5226 43.3631 60.675 43.3032 60.9036 43.2578C60.7369 43.107 60.6512 43.0113 60.5488 42.9395C59.9559 42.5111 59.3678 42.0756 58.7583 41.6712C58.4559 41.4702 58.2583 41.2644 58.3726 40.8791C58.3726 40.8719 58.3464 40.8552 58.3083 40.8193C58.0916 41.1016 57.8773 41.3816 57.6607 41.6616C57.7702 41.6951 57.844 41.6592 57.9226 41.6473C58.0249 41.6329 58.1559 41.597 58.2321 41.6425C58.7678 41.9727 59.294 42.3221 59.8226 42.6667ZM64.206 35.8896C64.3965 36.0332 64.6655 36.1409 64.7798 36.3395C65.1132 36.9234 65.3822 37.5408 65.6751 38.1463C65.7941 38.3951 65.8822 38.6416 65.5775 38.8331C65.5703 38.8378 65.587 38.8857 65.5917 38.9096C65.6179 38.9168 65.6394 38.9312 65.6537 38.9264C66.3727 38.5794 67.0942 38.2348 67.8085 37.8758C67.8632 37.8471 67.918 37.7203 67.8989 37.6605C67.8418 37.481 67.7489 37.3135 67.6585 37.1173C67.4632 37.7059 67.2965 37.8878 66.8656 38.0338C66.5918 38.1271 66.3894 38.0912 66.2584 37.8041C66.1608 37.5887 66.0418 37.3805 65.9299 37.1723C65.8418 37.0072 65.8941 36.8851 66.0703 36.8756C66.3251 36.8612 66.5846 36.8875 66.8489 36.8971C66.6965 36.6099 66.5227 36.2773 66.3465 35.9447C66.3394 36.3874 66.2441 36.5286 65.7465 36.7487C65.5656 36.44 65.3775 36.1313 65.2013 35.8131C65.1822 35.7796 65.2179 35.6814 65.2513 35.6623C65.5203 35.5211 65.787 35.3512 66.0751 35.2794C66.1965 35.2483 66.3703 35.435 66.5227 35.5211C66.5489 35.5355 66.5846 35.5379 66.6299 35.5474C66.468 34.9563 66.318 34.8822 65.8227 35.1286C65.787 35.1454 65.7513 35.1621 65.7156 35.1789C65.1917 35.4254 64.6703 35.6719 64.2036 35.892L64.206 35.8896ZM89.5731 44.1145C89.6184 44.2604 89.6279 44.3562 89.6707 44.4303C90.035 45.0669 90.3993 45.701 90.7803 46.3256C90.8255 46.4022 90.9755 46.4716 91.0612 46.4549C91.2136 46.4261 91.3541 46.3304 91.5732 46.2275C91.4208 46.1773 91.3517 46.1509 91.2803 46.1318C90.9398 46.048 90.5422 45.591 90.5184 45.2057C90.497 44.8635 90.8279 44.8108 91.0327 44.6601C91.0874 44.6194 91.1517 44.5907 91.2136 44.5572C91.566 44.3633 91.747 44.4423 91.7898 44.8467C91.8041 44.9903 91.7255 45.1435 91.6755 45.3421C91.9898 45.1794 92.2994 45.019 92.6089 44.8587C92.6137 44.8252 92.6184 44.7917 92.6232 44.7606C92.1875 44.8037 91.9303 44.6194 91.816 44.1839C92.0922 44.0235 92.3756 43.8441 92.6756 43.6981C92.7375 43.6694 92.9041 43.7364 92.9446 43.8034C93.1732 44.1958 93.4899 44.5883 93.0637 45.0765C93.2684 44.9831 93.4494 44.897 93.5851 44.7654C93.647 44.7032 93.6732 44.5237 93.628 44.4447C93.2922 43.8488 92.9351 43.2673 92.5875 42.681C92.5541 42.626 92.5375 42.5614 92.5137 42.5016C92.4708 42.5183 92.4256 42.5351 92.3827 42.5518C92.5208 42.9156 92.4184 43.1597 92.1017 43.3319C91.5636 43.6263 91.0446 43.9541 90.5041 44.2461C90.0374 44.4997 89.9969 44.483 89.5731 44.1169V44.1145ZM54.4677 47.704C54.5511 47.6968 54.5916 47.7064 54.6058 47.692C54.8654 47.4025 55.1535 47.4599 55.4678 47.5939C55.8844 47.7734 56.3106 47.9314 56.7368 48.0869C57.4845 48.3597 58.0749 48.106 58.3845 47.3857C58.6464 46.7779 58.3797 46.1605 57.7035 45.8303C57.294 45.6317 56.8821 45.4402 56.4654 45.2583C56.1511 45.1219 55.8225 45.0095 55.9582 44.5524C55.9582 44.5452 55.9321 44.5285 55.8749 44.4758C55.7035 44.8683 55.5392 45.244 55.3749 45.6173C55.4059 45.6532 55.4368 45.6891 55.4678 45.725C55.644 45.2392 55.9321 45.3828 56.2273 45.5024C56.5559 45.6364 56.9011 45.7346 57.2226 45.8853C57.5059 46.0169 57.7821 46.1773 58.0345 46.3615C58.2345 46.5099 58.2797 46.9478 58.1607 47.2158C58.0416 47.4815 57.8464 47.6538 57.5416 47.6346C57.3464 47.6227 57.1416 47.6059 56.9654 47.5341C56.5083 47.3475 56.0654 47.1297 55.6154 46.9263C55.3392 46.8018 55.0939 46.6607 55.2463 46.2873C55.2511 46.273 55.2201 46.2443 55.163 46.1557C54.9225 46.6918 54.7035 47.1775 54.4654 47.704H54.4677ZM83.7564 76.8152C82.3778 76.6788 81.0492 76.1595 79.6087 76.2361C80.7158 77.2436 83.9778 77.5738 84.7635 76.6309C84.4373 76.5759 84.1278 76.5376 83.8278 76.4682C82.9325 76.2624 82.042 76.0399 81.1492 75.8293C80.7349 75.7312 80.3634 75.8365 80.0158 76.0829C81.3206 76.0638 82.5159 76.5496 83.7564 76.8128V76.8152ZM60.825 68.2984C60.4988 68.9063 61.3321 71.4213 62.0798 71.9167C61.6298 71.0217 61.906 70.0094 61.2941 69.2269C61.7345 69.5356 61.8203 69.9927 61.8964 70.4713C61.9655 70.9092 62.0726 71.3424 62.2084 71.7635C62.2845 71.9933 62.4345 72.2158 62.7179 72.302C62.8369 70.5957 62.2822 69.2389 60.825 68.3008V68.2984ZM73.5514 34.1523C73.5371 33.8962 73.5324 33.7215 73.5157 33.5469C73.48 33.1592 73.48 33.1664 73.1038 33.219C72.9895 33.2358 72.8681 33.2047 72.7514 33.1927C72.3181 33.1496 71.9657 33.3243 71.7823 33.6761C71.5942 34.0326 71.6395 34.449 71.9561 34.7625C72.1276 34.93 72.3609 35.0377 72.5752 35.155C72.8252 35.2914 73.1109 35.3751 73.3324 35.5474C73.4514 35.6408 73.5538 35.8896 73.5133 36.0212C73.4657 36.1744 73.2705 36.3395 73.1062 36.3826C72.6609 36.5046 72.2347 36.2653 72.03 35.8513C71.9895 35.7676 71.918 35.6982 71.8276 35.5785V36.7272C72.0681 36.4616 72.299 36.6028 72.5204 36.665C73.1014 36.8277 73.6633 36.598 73.8776 36.1098C74.1038 35.5929 73.9014 35.0401 73.3609 34.7266C73.2085 34.6381 73.0419 34.5711 72.8824 34.4921C72.6966 34.4012 72.48 34.3389 72.3371 34.2025C72.23 34.0996 72.1728 33.901 72.1728 33.7431C72.1728 33.645 72.3014 33.4798 72.399 33.4559C72.7157 33.3841 73.03 33.3889 73.23 33.7311C73.3062 33.8627 73.4157 33.9752 73.5586 34.1547L73.5514 34.1523ZM91.647 41.6353C91.516 41.4702 91.3755 41.3745 91.3589 41.2572C91.2541 40.5225 90.4493 39.9123 89.7184 40.0367C88.8826 40.1779 88.1731 40.8695 88.0112 41.6975C87.8898 42.3245 88.366 43.1046 88.9755 43.2434C89.185 43.2913 89.3326 43.3439 89.2112 43.6383C89.2445 43.643 89.2755 43.6502 89.3088 43.655C89.5946 43.4133 89.8803 43.174 90.166 42.9323C90.1469 42.8988 90.1255 42.8677 90.1065 42.8342C89.9398 42.8821 89.7755 42.9491 89.6065 42.973C89.2779 43.0161 88.9326 43.0974 88.6612 42.8079C88.3993 42.5303 88.3541 42.2 88.5136 41.8722C88.8588 41.171 89.3946 40.6757 90.1779 40.5177C90.7303 40.4053 91.1803 40.8767 91.0851 41.4845C91.0446 41.7382 90.9279 41.9799 90.847 42.2264C90.8612 42.2407 90.8755 42.2575 90.8898 42.2718C91.1612 42.0445 91.4303 41.8148 91.647 41.6329V41.6353ZM60.544 38.4382C60.5536 38.4741 60.5631 38.5076 60.5726 38.5435C61.0012 38.3473 61.3036 38.5914 61.6226 38.7876C62.2965 39.204 62.9631 39.6251 63.6417 40.032C63.7584 40.1014 63.9131 40.1014 64.0512 40.1349C64.0632 39.9865 64.1132 39.8309 64.0822 39.6922C64.0274 39.4433 63.9036 39.2088 63.8489 38.9575C63.6655 38.1056 63.1774 37.2991 63.4655 36.2845C63.1203 36.5477 62.8346 36.7655 62.5488 36.9856C62.5393 37.0191 62.5274 37.0526 62.5179 37.0861C63.1417 36.8421 63.156 37.2943 63.2608 37.6294C63.4012 38.0816 63.5298 38.5387 63.6584 38.9958C63.6822 39.0771 63.675 39.1657 63.6893 39.3141C63.5417 39.2279 63.4393 39.1729 63.3441 39.1106C62.9727 38.8642 62.6084 38.6105 62.2345 38.3688C61.725 38.0386 61.725 38.041 61.8964 37.4499C61.406 37.8088 60.975 38.1247 60.544 38.4406V38.4382ZM94.0518 47.9026C94.278 47.996 94.8423 47.8021 94.9375 47.6753C94.8756 47.4504 94.8113 47.2948 94.7899 47.1321C94.7375 46.7324 94.5804 46.4094 94.1994 46.2395C93.8327 46.0744 93.4613 46.1462 93.2208 46.4309C93.0208 46.6654 92.9184 46.9957 92.816 47.2972C92.7398 47.5174 92.7446 47.7662 92.6898 47.996C92.6041 48.3501 92.4137 48.4985 92.1136 48.4674C91.8779 48.4435 91.6565 48.1587 91.6374 47.8667C91.6136 47.503 91.7684 47.2158 91.997 46.955C92.0636 46.8808 92.1232 46.7994 92.1851 46.7229C92.166 46.6989 92.1494 46.675 92.1303 46.6487L91.0803 47.0411C91.0684 47.0651 91.0589 47.0866 91.047 47.1105C91.3589 47.2326 91.3779 47.4695 91.3827 47.7375C91.3922 48.3023 91.8113 48.7761 92.3208 48.8335C92.8232 48.891 93.2803 48.5368 93.4184 47.9553C93.497 47.6298 93.5303 47.2924 93.5899 46.9622C93.6351 46.7061 93.7637 46.5099 94.0494 46.5027C94.3232 46.4955 94.4899 46.7157 94.528 47.0411C94.5756 47.4456 94.3042 47.6657 94.0518 47.905V47.9026ZM88.1064 75.0587C87.7755 74.7357 84.3587 74.3911 83.9492 74.9295C85.0635 75.2454 86.1897 75.0109 87.2731 75.1688C86.0326 75.4129 84.7873 75.3004 83.4921 75.109C84.3849 76.0112 86.8683 76.1428 88.1041 75.0587H88.1064ZM89.6065 72.6729C89.6065 72.6561 89.6065 72.637 89.6041 72.6202C89.1898 72.6202 88.7731 72.6011 88.3588 72.6274C88.066 72.6466 87.7755 72.716 87.4921 72.7901C87.4088 72.8117 87.3088 72.9241 87.2921 73.0103C87.2802 73.0701 87.3874 73.1611 87.4517 73.2305C87.4921 73.2711 87.5469 73.2999 87.6017 73.3262C88.7636 73.8981 89.9231 74.0321 91.0589 73.2687C91.2708 73.1276 91.4541 72.9433 91.6398 72.7686C91.6779 72.7327 91.6851 72.6394 91.6684 72.5819C91.6613 72.5532 91.5732 72.5269 91.5232 72.5293C90.8851 72.5724 90.2446 72.6226 89.6065 72.6705V72.6729ZM69.3109 76.1045C69.3013 76.0614 69.2918 76.0183 69.2823 75.9753C67.8227 76.217 66.3608 76.4587 64.9179 76.698C65.0894 76.8966 65.8203 77.2914 66.1441 77.3608C67.2156 77.5953 68.1775 77.2866 69.0966 76.7697C69.218 76.7027 69.3371 76.6309 69.4537 76.5568C69.568 76.485 69.6775 76.4036 69.7894 76.327C69.7775 76.3007 69.7656 76.272 69.7561 76.2457C68.5156 76.6262 67.3108 77.2077 65.9608 76.9468C67.1799 77.0402 68.2251 76.4969 69.3109 76.1069V76.1045ZM94.6661 70.3062C93.2851 69.8898 91.9541 69.8754 90.7065 70.6747C90.8374 70.7321 90.9731 70.7704 91.1017 70.7561C91.5827 70.6986 92.0636 70.6412 92.5375 70.5479C93.0541 70.4474 93.5994 70.4282 93.8922 70.5622C92.8922 70.6556 91.9613 71.0289 90.9636 70.8805C90.5946 70.8255 90.5898 70.8542 90.4684 71.0025C91.997 71.5458 93.4375 71.5123 94.6685 70.3086L94.6661 70.3062ZM90.016 70.2272C90.9231 70.0669 92.5208 67.8461 92.3684 67.0588C91.197 67.2838 89.5969 69.1288 89.9255 69.9376C90.4779 69.1049 90.8922 68.1883 91.7446 67.626C91.0303 68.3846 90.5279 69.2748 90.016 70.2248V70.2272ZM55.213 70.3995C55.1939 70.4426 55.1773 70.4856 55.1582 70.5287C55.4035 70.701 55.6368 70.8949 55.8963 71.0408C56.8345 71.5673 57.7988 71.6822 58.7797 71.1509C58.9035 71.0839 59.0083 70.9738 59.1202 70.8853C58.263 70.8446 57.4583 71.3065 56.6344 70.8877C57.4392 71.0648 58.1678 70.792 58.9035 70.5144C57.6726 70.3062 56.4392 70.5479 55.213 70.3995ZM57.7273 72.4886C57.8226 72.57 57.9059 72.6801 58.013 72.7255C58.4488 72.9098 58.8797 73.1682 59.3345 73.2257C60.3298 73.3525 61.3393 73.3788 62.3417 73.4243C62.4274 73.4291 62.5679 73.2855 62.6036 73.1826C62.6893 72.9481 62.5298 72.826 62.3203 72.7973C61.5298 72.6872 60.7393 72.5556 59.944 72.5006C59.2202 72.4503 58.4892 72.491 57.7249 72.491L57.7273 72.4886ZM76.0562 36.5214C76.0657 36.4927 76.0776 36.464 76.0872 36.4328C75.7253 36.3802 75.6991 36.1289 75.7086 35.8561C75.73 35.2411 75.7443 34.6285 75.7681 34.0135C75.7824 33.6833 75.7181 33.2956 76.2253 33.2597C76.2253 33.2597 76.2277 33.2429 76.2372 33.2023C75.7205 33.1616 75.2062 33.1233 74.6943 33.0826C74.6657 33.1041 74.6348 33.1257 74.6062 33.1472C75.2538 33.2262 75.0872 33.6737 75.0872 34.0255C75.0848 34.5902 75.0491 35.155 75.0276 35.7197C75.0157 36.038 74.98 36.3395 74.599 36.4376C74.5776 36.4424 74.5657 36.4975 74.5538 36.519H76.0562V36.5214ZM62.475 41.3409C62.4655 41.3074 62.4584 41.2763 62.4488 41.2428C62.1965 41.4151 61.9679 41.4534 61.7536 41.2285C61.2417 40.6924 60.7131 40.1732 60.2107 39.6275C60.1297 39.539 60.1536 39.3476 60.1417 39.2016C60.1369 39.1441 60.1678 39.0819 60.1845 39.0221C60.1631 39.0077 60.1417 38.991 60.1202 38.9766C59.7583 39.3212 59.3964 39.6658 59.0535 39.9913C59.294 40.0367 59.5893 40.008 59.744 40.1396C60.3083 40.6183 60.8369 41.1375 61.3512 41.6712C61.4536 41.7765 61.4322 42.0062 61.4488 42.1809C61.456 42.2479 61.4107 42.3221 61.3917 42.3939L61.4441 42.4274C61.7893 42.0636 62.1322 41.7023 62.4774 41.3386L62.475 41.3409ZM96.009 66.3744C95.1923 66.1973 94.6161 66.4869 94.1137 67.0301C93.7232 67.4537 93.4541 67.961 93.5827 68.2601C94.0827 67.7361 94.5565 67.2407 95.0327 66.743C95.0494 66.7597 95.0685 66.7741 95.0851 66.7908C94.6994 67.267 94.3161 67.7432 93.9208 68.2314C94.3232 68.3367 94.9446 68.0663 95.1447 67.7217C95.3328 67.3962 95.5137 67.0684 95.7089 66.7477C95.7828 66.6281 95.8851 66.5252 96.009 66.3744ZM59.3345 69.7295C59.3821 69.617 59.4012 69.5907 59.3988 69.5667C59.3964 69.5093 59.3893 69.4495 59.375 69.392C59.1821 68.6478 58.775 68.0352 58.175 67.5638C57.9535 67.3891 57.6868 67.2694 57.4273 67.1546C57.2487 67.0732 57.1583 67.1617 57.2083 67.358C57.2464 67.5111 57.2797 67.6691 57.3392 67.8126C57.6868 68.6598 58.3083 69.2939 58.9654 69.9018C58.9726 69.9089 58.9988 69.8922 59.0583 69.8778C58.844 69.1001 58.3345 68.5018 57.8583 67.8868C58.5464 68.3152 59.025 68.9182 59.3345 69.7318V69.7295ZM95.2113 69.1623C95.2089 69.1958 95.2042 69.2317 95.2018 69.2652C94.7089 69.2365 94.2137 69.2102 93.6565 69.1791C94.5375 69.8419 96.3494 69.6122 96.6852 68.8034C96.4971 68.8034 96.328 68.8153 96.1637 68.8034C95.5542 68.7531 94.9446 68.6765 94.3351 68.6478C94.0875 68.6358 93.8137 68.6598 93.5613 68.9015C94.1232 69.1384 94.6661 69.1647 95.2113 69.1623ZM54.5582 67.3245C54.5773 67.3053 54.5939 67.2862 54.613 67.267C55.0654 67.6068 55.5178 67.9466 56.0202 68.3247C55.6701 67.4944 54.4987 66.4869 53.7392 66.6759C53.9368 67.5446 54.8368 68.454 55.6963 68.442C55.3178 68.0711 54.9392 67.6978 54.5582 67.3269V67.3245ZM55.494 68.9302C55.5035 68.911 55.5106 68.8919 55.5201 68.8727C55.4463 68.8392 55.3749 68.789 55.2987 68.777C54.9297 68.7172 54.5511 68.5976 54.1892 68.6358C53.7392 68.6813 53.2987 68.8512 52.8606 68.99C52.7677 69.0187 52.7058 69.1384 52.6272 69.2173C52.6463 69.2437 52.6629 69.27 52.682 69.2963C53.6439 69.3825 54.6082 69.7151 55.5678 69.2461C54.9368 69.1623 54.3082 69.0809 53.6773 68.9972C53.6773 68.9756 53.6796 68.9541 53.682 68.9326H55.494V68.9302ZM72.4943 73.8646C72.6228 74.2882 73.1252 74.494 73.4109 74.3097C73.9633 73.9555 74.2252 73.1826 74.0157 72.5269C73.8848 72.1129 73.6467 71.955 73.2109 71.9861C72.8752 72.01 72.6133 72.2756 72.5728 72.6585C72.5466 72.9074 72.6062 73.1467 72.8276 73.2831C73.0228 73.4028 73.2371 73.5344 73.5419 73.4243C73.4681 73.3621 73.4419 73.3214 73.4109 73.3166C73.199 73.2759 72.98 73.2352 72.98 72.96C72.98 72.7471 72.9847 72.5197 73.0562 72.3235C73.0943 72.223 73.2847 72.1201 73.4014 72.1273C73.4919 72.1321 73.6276 72.2948 73.6514 72.4049C73.7609 72.9577 73.6514 73.5009 73.4752 74.0202C73.3752 74.3169 73.1633 74.336 72.9181 74.1422C72.8014 74.0513 72.6681 73.9795 72.4943 73.867V73.8646ZM86.6112 72.0268C85.835 72.3283 84.6921 73.252 84.4564 73.788C84.5826 73.7402 84.6849 73.7138 84.7754 73.666C85.2897 73.3884 85.7993 73.1036 86.3088 72.8236C86.6802 72.6202 86.7302 72.491 86.6088 72.0292L86.6112 72.0268ZM71.2442 71.6941C71.4823 72.4934 71.1633 73.197 70.9157 73.9723C71.1347 74.0249 71.3752 74.0824 71.549 74.1231C71.549 73.8861 71.5299 73.7043 71.5538 73.5296C71.5847 73.2951 71.649 73.0677 71.6919 72.8356C71.7609 72.4814 71.8252 72.1273 71.899 71.742C71.6419 71.7252 71.418 71.7085 71.2442 71.6965V71.6941ZM77.4729 72.2756C77.2753 72.7925 77.092 73.2496 76.9253 73.7115C76.8824 73.8287 76.8539 73.9675 76.8777 74.0848C76.8943 74.1661 77.0086 74.2283 77.0777 74.2977C77.1348 74.226 77.2205 74.1613 77.242 74.08C77.2777 73.9388 77.2562 73.7809 77.2896 73.6397C77.3991 73.1778 77.5277 72.7231 77.6443 72.2637C77.7324 71.9143 77.6777 71.8497 77.3324 71.8832C77.1848 71.8975 77.0372 71.9119 76.8896 71.9286C76.507 71.9685 76.3316 72.1815 76.3634 72.5676C76.3634 72.5796 76.3896 72.5915 76.4253 72.6226C76.6634 72.211 77.0753 72.345 77.4729 72.278V72.2756ZM75.5991 72.4551C75.6253 72.4862 75.6491 72.5149 75.6753 72.546C75.6134 72.716 75.5586 72.8906 75.4848 73.0558C75.3205 73.4243 75.1372 73.7832 74.9824 74.1566C74.9562 74.2188 75.0372 74.3241 75.0705 74.4102C75.1443 74.3576 75.2276 74.3145 75.2895 74.2499C75.3253 74.2116 75.3253 74.1398 75.3467 74.0848C75.5419 73.5176 75.7395 72.9529 75.9324 72.3857C75.961 72.2972 75.9919 72.1871 75.961 72.1129C75.9443 72.0674 75.8062 72.0531 75.7229 72.0579C75.4872 72.0674 75.2514 72.0986 75.0157 72.1105C74.6157 72.1321 74.5681 72.1919 74.6443 72.5437C74.9657 72.5149 75.2824 72.4862 75.5991 72.4599V72.4551ZM63.1131 72.1416C63.2203 72.4599 63.2322 72.838 63.4203 72.9768C63.8298 73.2831 64.3322 73.4722 64.7965 73.7067C64.8036 73.7115 64.8274 73.6875 64.8441 73.678C64.406 73.0677 64.0346 72.3881 63.1131 72.1416ZM89.6184 69.6936C88.9231 70.1506 88.4874 70.7345 88.2826 71.4955C88.6279 71.2514 88.9445 70.9714 89.2826 70.725C89.6469 70.4593 89.585 70.0908 89.6184 69.6936ZM61.206 71.3471C61.0107 70.6675 60.1393 69.617 59.694 69.4973C59.7583 70.1602 60.3702 70.9164 61.206 71.3471ZM68.1918 75.042C67.7275 74.3576 66.5584 73.6468 66.1322 73.7665C66.6513 74.4246 67.3489 74.7811 68.1918 75.042ZM83.0802 73.8933C82.7301 73.7569 82.1682 74.2283 82.073 74.7046C82.5873 74.7405 82.8992 74.4892 83.0802 73.8933Z" fill="white"/>
<path d="M57.9511 54.438C57.9106 52.8418 58.082 51.2744 58.5249 49.7381C58.9082 48.4123 59.4273 47.1393 60.113 45.9403C61.394 43.7005 63.1035 41.8626 65.2393 40.4125C67.4441 38.9144 69.8798 38.0362 72.5013 37.6772C74.0252 37.469 75.5585 37.4714 77.0871 37.6892C78.861 37.9405 80.5586 38.4286 82.1729 39.2135C84.0991 40.1516 85.7754 41.4103 87.2302 42.9897C88.723 44.6122 89.7826 46.486 90.5826 48.52C91.035 49.6687 91.3159 50.8676 91.4207 52.0952C91.5159 53.1984 91.5778 54.3136 91.535 55.4191C91.4778 56.8358 91.1564 58.2166 90.7064 59.5687C89.9635 61.8037 88.7683 63.7588 87.1825 65.4914C85.6349 67.1809 83.8063 68.4779 81.7348 69.4351C80.58 69.9688 79.3729 70.3445 78.1181 70.5479C77.4062 70.6651 76.6919 70.7728 75.9728 70.8398C73.6751 71.0552 71.4275 70.7178 69.2513 70.0094C66.8655 69.2341 64.7869 67.9251 62.9869 66.1567C61.7368 64.929 60.6892 63.5602 59.8749 62.0191C59.2273 60.7915 58.7344 59.4993 58.4058 58.1448C58.1106 56.9267 57.963 55.6919 57.9463 54.4404L57.9511 54.438ZM74.2633 38.2779C73.4942 38.2348 72.2751 38.4215 71.068 38.7086C67.2893 39.6108 64.2464 41.6688 61.8583 44.6936C60.5654 46.3328 59.6939 48.2042 59.1939 50.2478C58.6701 52.392 58.4915 54.5529 58.8773 56.7281C59.1844 58.4679 59.6844 60.1549 60.5487 61.7152C62.0726 64.46 64.1964 66.6113 66.9322 68.1453C70.0822 69.9113 73.468 70.4617 77.0252 70.0142C79.5062 69.7007 81.761 68.7507 83.8206 67.3651C86.573 65.5105 88.5778 63.0361 89.7397 59.9013C90.3112 58.3602 90.6945 56.7712 90.7897 55.132C90.885 53.4951 90.7707 51.8703 90.3373 50.2693C89.1802 45.9906 86.6897 42.7337 82.8848 40.4962C80.3776 39.0221 77.6586 38.2683 74.2609 38.2755L74.2633 38.2779Z" fill="white"/>
<path d="M86.7017 37.5815C86.685 38.3234 86.0207 39.1992 85.3588 39.326C85.2017 39.3571 85.0136 39.3571 84.8707 39.2973C84.4207 39.1107 84.3659 38.9144 84.6231 38.5004C84.9945 37.9046 85.3779 37.3135 85.7541 36.72C85.8493 36.5693 85.9422 36.5501 86.0922 36.653C86.6184 37.0024 86.7112 37.1364 86.7017 37.5815Z" fill="white"/>
<path d="M62.3274 74.9869C63.4679 75.3818 64.6155 74.908 65.756 74.9726C64.6131 75.0635 63.4679 75.5876 62.3274 74.9869Z" fill="white"/>
<path d="M87.5706 72.96C87.9872 72.9792 88.4039 73.0007 88.8206 73.0175C89.3515 73.039 89.8825 73.0558 90.4111 73.0749C90.4754 73.0749 90.542 73.0749 90.6778 73.0749C89.5944 73.5128 88.5825 73.2041 87.5729 73.0749C87.5729 73.0366 87.5729 72.9983 87.5729 72.9576L87.5706 72.96Z" fill="white"/>
<path d="M58.9417 72.9026C59.3036 72.9026 59.6655 72.8906 60.0274 72.9026C60.7845 72.9313 61.5441 72.9696 62.3012 73.0175C62.3846 73.0223 62.4631 73.1204 62.5441 73.1754C62.4536 73.2017 62.3465 73.2711 62.275 73.2448C61.5703 72.984 60.8322 73.0629 60.106 73.0079C59.7202 72.9792 59.3321 72.9648 58.944 72.9433C58.944 72.9289 58.944 72.9146 58.944 72.9002L58.9417 72.9026Z" fill="white"/>
<path d="M69.6964 65.1636C69.8465 65.501 70.006 65.8025 70.1179 66.1208C70.2369 66.463 70.0822 66.743 69.8203 66.9607C69.5798 67.1617 69.3131 67.1115 69.0702 66.9703C68.8941 66.8674 68.7988 66.8985 68.6821 67.0612C68.4083 67.4393 68.075 67.5303 67.7012 67.3627C67.375 67.2168 67.2131 66.8483 67.3035 66.4343C67.344 66.2524 67.3821 66.0609 67.4655 65.8958C67.5726 65.6876 67.5107 65.5871 67.3321 65.4675C66.8559 65.1468 66.7059 64.5318 66.9631 64.0197C67.0012 63.9431 67.0583 63.8426 67.1274 63.8211C67.3916 63.7325 67.3845 63.5459 67.3631 63.3209C67.3202 62.8375 67.3035 62.3517 67.2559 61.8684C67.244 61.7463 67.1774 61.5884 67.0845 61.5238C65.594 60.5187 65.0987 59.0637 65.2249 57.3503C65.2607 56.8837 65.3607 56.3979 65.5488 55.9743C65.7416 55.5412 66.0202 55.108 66.3678 54.797C66.6773 54.5194 66.7726 54.2657 66.7393 53.8852C66.6797 53.1936 66.6488 52.4996 66.6083 51.8081C66.5964 51.5807 66.494 51.4228 66.294 51.3079C65.6678 50.9466 65.1249 50.4823 64.6916 49.908C63.7463 48.6588 63.5844 47.2972 64.144 45.8398C64.5011 44.909 65.0107 44.081 65.7511 43.4085C65.9321 43.2434 66.0035 43.0639 66.0345 42.8198C66.0821 42.4417 66.1607 42.0589 66.2916 41.6999C66.4321 41.3074 66.7559 41.104 67.1797 41.0538C67.3607 41.0323 67.5321 40.9485 67.7107 40.9006C68.0869 40.8001 68.4679 40.6159 68.8441 40.6278C69.6917 40.6542 70.1179 41.25 70.3179 41.9966C70.4369 42.4417 70.5036 42.9156 70.4941 43.375C70.4655 44.7438 70.3893 46.1103 70.325 47.4767C70.2917 48.1802 70.2346 48.8814 70.2131 49.5849C70.2084 49.7166 70.2941 49.8841 70.3941 49.9798C71.7512 51.3007 72.1322 53.0548 71.2346 54.6893C70.9846 55.1463 70.6108 55.4814 70.1703 55.7446C69.9488 55.8786 69.8584 56.0413 69.8465 56.3189C69.8012 57.446 69.725 58.5732 69.6464 59.7003C69.6298 59.9228 69.6941 60.0449 69.8965 60.1406C71.0274 60.679 71.4917 61.6745 71.1941 62.9141C70.9869 63.7828 70.5441 64.5031 69.8298 65.0487C69.7679 65.0966 69.7131 65.1492 69.6941 65.1683L69.6964 65.1636ZM69.9274 44.7582C69.6345 44.7869 69.3726 44.8061 69.1155 44.842C68.3131 44.9592 67.5797 45.2081 67.0535 45.8829C66.8702 46.1198 66.7583 46.3543 66.7797 46.6678C66.9083 48.6158 67.0178 50.5637 67.1416 52.5116C67.175 53.0524 67.2321 53.5909 67.2797 54.1652C67.4393 54.1413 67.5893 54.1365 67.725 54.091C68.0821 53.9761 68.4369 53.8541 68.7869 53.7177C69.5036 53.4353 69.4988 53.421 69.525 52.636C69.5584 51.6573 69.5988 50.6762 69.6512 49.6974C69.7369 48.0678 69.8322 46.4405 69.9274 44.7558V44.7582ZM70.2322 50.5517C70.2036 50.5685 70.175 50.5852 70.1441 50.602C70.106 51.3701 70.056 52.1383 70.0322 52.9089C70.0107 53.5933 69.8607 53.8397 69.2179 54.0958C68.6202 54.3327 68.0036 54.5241 67.425 54.797C67.0774 54.9597 66.7416 55.199 66.4726 55.4766C65.894 56.07 65.7297 56.8526 65.7107 57.6399C65.6821 58.8388 66.0011 59.9324 66.9369 60.7676C66.994 60.8178 67.0655 60.8537 67.1631 60.9183C67.1631 60.7293 67.1702 60.6024 67.1631 60.478C67.1274 59.9659 67.1274 59.4442 67.0321 58.9441C66.9393 58.4703 66.9416 58.0252 67.2107 57.6327C67.4583 57.269 67.7297 56.8956 68.0678 56.6228C68.7274 56.0892 69.4512 55.6345 70.1274 55.1176C70.3798 54.9238 70.6179 54.6749 70.7727 54.3997C71.325 53.4257 71.325 52.4135 70.8346 51.4156C70.6822 51.1069 70.4393 50.8413 70.2369 50.5565L70.2322 50.5517ZM66.4583 50.7838C66.494 50.7695 66.5273 50.7527 66.5631 50.7384C66.4535 49.5514 66.375 48.3573 66.2178 47.1775C66.1416 46.6008 66.1916 46.1079 66.5369 45.6364C67.1583 44.7869 68.0298 44.4399 69.0322 44.3275C69.2726 44.3011 69.5131 44.2676 69.7536 44.2389C69.6845 43.8201 69.4774 43.6167 69.0822 43.6478C68.7083 43.6765 68.3869 43.5713 68.0583 43.4229C67.3678 43.107 66.7178 43.2099 66.1631 43.722C65.8654 43.9948 65.5916 44.3035 65.3583 44.6314C64.4987 45.847 64.1297 47.1799 64.5702 48.6469C64.8202 49.4796 65.4226 50.0588 66.1059 50.5565C66.2178 50.6379 66.3392 50.7097 66.4583 50.7862V50.7838ZM67.8821 63.4382C68.4179 63.3688 68.9583 62.8232 68.9845 62.3589C69.0917 60.4493 69.1917 58.542 69.2917 56.6324C69.2964 56.563 69.275 56.4912 69.2607 56.3811C68.7298 56.6946 68.2798 57.0249 67.9298 57.4771C67.6202 57.8792 67.5012 58.3171 67.5464 58.834C67.6488 59.9779 67.7036 61.1265 67.7821 62.2704C67.8083 62.6533 67.8464 63.0338 67.8798 63.4382H67.8821ZM69.6345 60.6838C69.6345 61.1241 69.6584 61.5405 69.6274 61.9497C69.6036 62.2465 69.556 62.5599 69.4322 62.828C69.1417 63.4645 68.6417 63.8809 67.9512 64.0484C67.8559 64.0723 67.7583 64.0987 67.6678 64.1369C67.3821 64.2638 67.2964 64.5198 67.4393 64.7998C67.5821 65.0798 67.9798 65.2234 68.3774 65.1396C69.8536 64.8214 70.8465 63.4717 70.7108 61.9665C70.6608 61.4209 70.2036 60.8537 69.6369 60.6862L69.6345 60.6838ZM66.4773 42.7887C66.6702 42.772 66.7773 42.7481 66.8797 42.7528C67.2893 42.7744 67.7107 42.7576 68.1059 42.8462C68.4774 42.9299 68.8202 43.1022 69.2202 43.0974C69.4274 43.0974 69.6345 43.2123 69.8441 43.2697C69.9012 43.2865 69.9631 43.2889 70.0512 43.3032C69.9917 43.0041 69.9488 42.7433 69.8893 42.4848C69.8536 42.3317 69.8036 42.1809 69.7464 42.0325C69.3964 41.1423 68.7179 40.9246 67.9012 41.4175C67.7226 41.5252 67.5036 41.5994 67.2988 41.609C67.0107 41.6257 66.8178 41.7573 66.7107 41.9895C66.6059 42.2168 66.5654 42.4729 66.4797 42.7839L66.4773 42.7887ZM68.4417 66.2907C68.375 66.1854 68.3036 66.0729 68.2321 65.9628C68.1155 66.0514 67.9655 66.116 67.894 66.2308C67.8202 66.3481 67.794 66.5156 67.8036 66.6568C67.8107 66.7549 67.8988 66.9009 67.9798 66.9224C68.0583 66.944 68.2083 66.8602 68.2631 66.7788C68.3464 66.652 68.375 66.4917 68.444 66.2931L68.4417 66.2907ZM69.6369 66.3074C69.6369 66.0035 69.4274 65.7116 69.2726 65.7618C69.1726 65.7929 69.0417 65.9461 69.0464 66.0394C69.0536 66.2452 69.1417 66.4654 69.3941 66.4725C69.4869 66.4749 69.5845 66.3481 69.6369 66.3098V66.3074Z" fill="white"/>
<path d="M78.4989 62.591C78.3084 62.5264 78.1227 62.4523 77.9298 62.3996C76.5655 62.0383 75.4798 61.3012 74.7964 60.0425C74.6274 59.7314 74.5178 59.3892 74.394 59.0565C74.2393 58.6378 74.0369 58.2573 73.6964 57.9701C73.6655 57.9845 73.6345 57.9988 73.6035 58.0132C73.7226 58.3171 73.8583 58.6186 73.9607 58.9273C74.0869 59.3102 74.2083 59.7003 74.294 60.0927C74.3583 60.3847 74.2988 60.6718 74.0178 60.8513C73.7321 61.0332 73.4512 60.959 73.2202 60.7628C72.0749 59.7888 71.2654 58.633 71.3083 57.044C71.3226 56.5056 71.4845 56.0078 71.7988 55.5723C72.2535 54.9429 73.2393 54.7778 73.975 55.1966C74.4917 55.4909 74.8702 55.9097 75.1107 56.4529C75.1464 56.5343 75.1869 56.6133 75.2274 56.6922C75.2345 56.7066 75.2607 56.7114 75.2964 56.7353C75.7441 56.1586 76.3369 55.7637 76.9846 55.4359C77.1846 55.3354 77.3822 55.1535 77.4917 54.9597C77.7131 54.56 78.0417 54.3638 78.4703 54.3399C78.9417 54.3136 79.4179 54.304 79.8894 54.3279C80.2703 54.3471 80.5656 54.5529 80.7156 54.9142C80.8037 55.1248 80.9513 55.2277 81.1656 55.2971C81.9156 55.5412 82.6537 55.8283 83.4109 56.0533C83.6275 56.1179 83.9085 56.082 84.1228 55.9983C84.5252 55.8379 84.899 55.6082 85.2871 55.4096C85.7728 55.1583 86.2776 55.0291 86.8323 55.1368C87.4847 55.266 87.7347 55.8068 87.3395 56.3524C86.8133 57.0751 86.2323 57.7523 85.5014 58.2812C85.3109 58.4176 85.2299 58.5205 85.3228 58.7837C85.3847 58.9536 85.299 59.2145 85.2061 59.3964C84.4133 60.9781 83.1442 61.9713 81.4299 62.3996C81.3084 62.4307 81.187 62.4594 81.0537 62.5647C81.1727 62.6102 81.2894 62.6604 81.4084 62.7011C82.0846 62.9285 82.6608 63.2946 83.0347 63.9192C83.4513 64.6179 83.1847 65.1683 82.3799 65.1827C80.7584 65.2114 79.1346 65.1923 77.5131 65.1875C77.3655 65.1875 77.2179 65.1564 77.075 65.1205C76.706 65.0271 76.4488 64.6347 76.5893 64.2781C76.8631 63.577 77.3798 63.1343 78.0489 62.8423C78.1917 62.7801 78.3417 62.737 78.4893 62.6844C78.4941 62.6533 78.4965 62.6198 78.5012 62.5887L78.4989 62.591ZM79.8846 58.8292C78.3798 58.8292 76.875 58.8292 75.3702 58.8292C74.9488 58.8292 74.9179 58.8699 75.0369 59.2791C75.2631 60.052 75.725 60.6671 76.3869 61.105C77.837 62.0622 79.4275 62.3374 81.1203 61.9641C82.6418 61.629 83.7775 60.7412 84.5966 59.4346C84.6895 59.2863 84.7061 59.0924 84.7585 58.9177C84.599 58.889 84.4371 58.8364 84.2775 58.834C82.8132 58.8268 81.3489 58.8292 79.8822 58.8292H79.8846ZM79.7656 58.3195C79.7656 58.3195 79.7656 58.3147 79.7656 58.3123C81.1513 58.3123 82.537 58.3195 83.9228 58.3051C84.1418 58.3051 84.3775 58.2477 84.5775 58.1568C85.5538 57.7141 86.2561 56.9507 86.8895 56.1155C87.0776 55.8666 86.999 55.7254 86.6776 55.6895C86.2752 55.6441 85.8919 55.7015 85.5276 55.8906C85.099 56.1131 84.6633 56.3285 84.2252 56.5319C83.8704 56.697 83.5085 56.7186 83.1323 56.575C82.5061 56.3357 81.8656 56.1299 81.2394 55.8882C79.7965 55.3306 78.3798 55.3809 76.9822 56.0365C76.1917 56.4075 75.5893 56.9674 75.2655 57.7954C75.1036 58.2094 75.1774 58.3195 75.6083 58.3195C76.9941 58.3195 78.3798 58.3195 79.7656 58.3195ZM73.7274 60.423C73.7559 60.4014 73.7821 60.3775 73.8107 60.356C73.7964 60.2531 73.8012 60.143 73.7678 60.0449C73.6154 59.6069 73.4321 59.1786 73.2964 58.7359C73.1988 58.4176 73.125 58.085 73.1178 57.7547C73.1154 57.6159 73.2869 57.4173 73.4297 57.3503C73.5369 57.3001 73.744 57.3814 73.8678 57.4628C74.0559 57.5848 74.2059 57.7667 74.3893 57.8983C74.475 57.9605 74.6131 58.0108 74.7012 57.9845C74.7607 57.9653 74.8012 57.8026 74.8083 57.7021C74.8631 56.855 74.3226 55.96 73.5535 55.613C72.9821 55.3545 72.4654 55.5005 72.1464 56.0389C71.8654 56.5128 71.7845 57.0296 71.8345 57.58C71.9345 58.6617 72.5535 59.4394 73.294 60.1478C73.4154 60.2626 73.5797 60.332 73.7226 60.4206L73.7274 60.423ZM77.0012 64.5414C77.2679 64.5749 77.4917 64.6179 77.7179 64.6323C79.2941 64.7208 80.8727 64.7831 82.4489 64.6251C82.7537 64.594 82.7918 64.5103 82.6061 64.2566C82.1966 63.6942 81.6608 63.3066 80.9846 63.1295C80.0227 62.8758 79.0846 62.9596 78.1727 63.3472C77.6536 63.5674 77.275 63.9431 77.0012 64.5414Z" fill="white"/>
<path d="M87.6969 50.6738C87.6065 51.138 87.4588 51.7363 87.3826 52.3417C87.3231 52.8155 87.3422 53.3013 87.3493 53.7823C87.3517 53.9977 87.385 54.2107 87.1684 54.3375C86.9398 54.4715 86.7183 54.438 86.5064 54.2753C85.3493 53.3923 84.6754 52.2101 84.4064 50.7982C84.2254 49.8434 83.8921 48.9532 83.4159 48.1108C83.3778 48.0414 83.3397 47.972 83.304 47.9026C83.1873 47.6873 83.1516 47.4695 83.3088 47.2613C83.473 47.0435 83.6945 47.0675 83.9278 47.1297C84.5493 47.2948 85.1136 47.5604 85.5612 48.0438C85.6017 48.0869 85.7421 48.0965 85.7993 48.0606C86.185 47.8261 86.4469 47.8596 86.735 48.1898C87.3207 48.8623 87.6565 49.6352 87.6993 50.6762L87.6969 50.6738ZM86.6683 53.7871C86.8136 52.8275 86.9493 51.9397 87.085 51.0543C87.1898 50.3651 87.0922 49.7094 86.7374 49.1063C86.6136 48.8934 86.4469 48.7067 86.2517 48.4387C86.1874 49.001 86.135 49.4629 86.0826 49.9224C86.0445 49.9367 86.0064 49.9511 85.9683 49.963C85.5517 48.9053 85.0588 47.9194 83.7969 47.649C83.8159 47.7136 83.8207 47.7423 83.835 47.7686C84.3588 48.7306 84.7516 49.7381 84.9421 50.8221C85.0802 51.5975 85.3993 52.2962 85.8755 52.916C86.1112 53.2223 86.3969 53.4928 86.6683 53.7871Z" fill="white"/>
</svg>
