<svg width="52" height="52" viewBox="0 0 52 52" fill="none" xmlns="http://www.w3.org/2000/svg">
<path d="M47.6663 28.1668V19.5002C47.6663 8.66683 43.333 4.3335 32.4997 4.3335H19.4997C8.66634 4.3335 4.33301 8.66683 4.33301 19.5002V32.5002C4.33301 43.3335 8.66634 47.6668 19.4997 47.6668H28.1663" stroke="#3ADCC9" stroke-width="3.25" stroke-linecap="round" stroke-linejoin="round"/>
<path d="M47.6663 28.1668V19.5002C47.6663 8.66683 43.333 4.3335 32.4997 4.3335H19.4997C8.66634 4.3335 4.33301 8.66683 4.33301 19.5002V32.5002C4.33301 43.3335 8.66634 47.6668 19.4997 47.6668H28.1663" stroke="#3ADCC9" stroke-width="3.25" stroke-linecap="round" stroke-linejoin="round"/>
<path d="M47.6663 28.1668V19.5002C47.6663 8.66683 43.333 4.3335 32.4997 4.3335H19.4997C8.66634 4.3335 4.33301 8.66683 4.33301 19.5002V32.5002C4.33301 43.3335 8.66634 47.6668 19.4997 47.6668H28.1663" stroke="#3ADCC9" stroke-width="3.25" stroke-linecap="round" stroke-linejoin="round"/>
<path opacity="0.4" d="M34.667 42.0985L38.0903 45.5002L45.5003 36.8335" stroke="#3ADCC9" stroke-width="3.25" stroke-linecap="round" stroke-linejoin="round"/>
<path opacity="0.4" d="M15.167 22.75V29.25" stroke="#3ADCC9" stroke-width="3.25" stroke-linecap="round" stroke-linejoin="round"/>
<path opacity="0.4" d="M26 22.75V29.25" stroke="#3ADCC9" stroke-width="3.25" stroke-linecap="round" stroke-linejoin="round"/>
<path opacity="0.4" d="M36.833 22.75V29.25" stroke="#3ADCC9" stroke-width="3.25" stroke-linecap="round" stroke-linejoin="round"/>
</svg>
