<svg width="52" height="52" viewBox="0 0 52 52" fill="none" xmlns="http://www.w3.org/2000/svg">
<path opacity="0.4" d="M6.5 47.6665H45.5" stroke="#3ADCC9" stroke-width="3.25" stroke-linecap="round" stroke-linejoin="round"/>
<path d="M12.1333 18.1562H8.66667C7.475 18.1562 6.5 19.1312 6.5 20.3229V38.9996C6.5 40.1912 7.475 41.1662 8.66667 41.1662H12.1333C13.3249 41.1662 14.2999 40.1912 14.2999 38.9996V20.3229C14.2999 19.1312 13.3249 18.1562 12.1333 18.1562Z" stroke="#3ADCC9" stroke-width="3.25" stroke-linecap="round" stroke-linejoin="round"/>
<path d="M27.7339 11.2451H24.2673C23.0756 11.2451 22.1006 12.2201 22.1006 13.4118V39.0001C22.1006 40.1918 23.0756 41.1668 24.2673 41.1668H27.7339C28.9255 41.1668 29.9005 40.1918 29.9005 39.0001V13.4118C29.9005 12.2201 28.9255 11.2451 27.7339 11.2451Z" stroke="#3ADCC9" stroke-width="3.25" stroke-linecap="round" stroke-linejoin="round"/>
<path d="M43.3345 4.3335H39.8678C38.6762 4.3335 37.7012 5.3085 37.7012 6.50016V39.0002C37.7012 40.1918 38.6762 41.1668 39.8678 41.1668H43.3345C44.5261 41.1668 45.5011 40.1918 45.5011 39.0002V6.50016C45.5011 5.3085 44.5261 4.3335 43.3345 4.3335Z" stroke="#3ADCC9" stroke-width="3.25" stroke-linecap="round" stroke-linejoin="round"/>
</svg>
