<svg width="147" height="226" viewBox="0 0 147 226" fill="none" xmlns="http://www.w3.org/2000/svg">
<g clip-path="url(#clip0_313_10848)">
<path opacity="0.2" d="M91.9851 161.144C97.8146 164.537 107.316 164.521 113.179 161.111C119.058 157.7 119.074 152.188 113.245 148.81C107.415 145.417 97.9135 145.433 92.0511 148.843C86.1722 152.254 86.1557 157.767 91.9851 161.144Z" fill="url(#paint0_linear_313_10848)"/>
<path d="M29.9023 38.6712V135.683V137.255C29.9023 140.566 35.1719 145.698 37.642 144.258L83.8495 111.926C86.3196 110.503 88.3122 106.662 88.3122 103.351L92.709 4.76686C92.709 1.45589 86.3196 -0.0506016 83.8495 1.37311L78.5471 4.45232L34.365 30.0958C31.8949 31.536 29.9023 35.3602 29.9023 38.6712Z" fill="url(#paint1_linear_313_10848)"/>
<path d="M35.2051 41.7339V138.745V140.318C35.2051 143.629 37.1976 145.135 39.6677 143.712L89.1522 114.989C91.6223 113.565 93.6148 109.725 93.6148 106.414V7.8296C93.6148 4.51863 91.6223 3.01214 89.1522 4.43586L83.8497 7.51506L39.6677 33.1585C37.1976 34.5988 35.2051 38.4229 35.2051 41.7339Z" fill="url(#paint2_linear_313_10848)"/>
<path d="M92.3295 94.9577V13.872C92.3295 11.4385 90.8639 10.3293 89.0525 11.3888L39.7492 40.0121C37.9377 41.0551 36.4722 43.886 36.4722 46.303V127.389C36.4722 129.822 37.9377 130.931 39.7492 129.888L89.0525 101.265C90.8639 100.222 92.3295 97.3912 92.3295 94.9742V94.9577Z" fill="#E0E2EA"/>
<path d="M38.6142 128.299C39.1082 128.58 39.7175 128.547 40.3268 128.183L89.6301 99.5597C89.8771 99.4273 90.3217 99.1127 90.6181 98.5995C90.8651 98.1525 91.1616 97.2917 91.1616 96.315V15.2293C91.1616 14.1533 90.7993 13.3255 90.19 12.9613C89.696 12.6799 89.0867 12.713 88.4774 13.0772L39.174 41.7005C38.927 41.833 38.4824 42.1475 38.186 42.6607C37.939 43.1077 37.6426 43.9685 37.6426 44.9453V126.031C37.6426 127.107 38.0049 127.935 38.6142 128.299Z" fill="#3ADCC9"/>
<path style="mix-blend-mode:lighten" opacity="0.2" d="M35.2051 140.318C35.2051 143.629 37.1976 145.135 39.6677 143.712L89.1522 114.989C91.6223 113.565 93.6148 109.725 93.6148 106.414V7.8296C93.6148 4.51863 91.6223 3.01214 89.1522 4.43586L35.2051 140.318Z" fill="url(#paint3_linear_313_10848)"/>
<path d="M64.7149 23.3911L72.8992 18.6398C73.4262 18.3418 73.8543 17.5141 73.8543 16.8188C73.8543 16.1235 73.4262 15.7924 72.8992 16.0904L64.7149 20.8416C64.1879 21.1396 63.7598 21.9674 63.7598 22.6627C63.7598 23.358 64.1879 23.6891 64.7149 23.3911Z" fill="#372E36"/>
<path d="M47.0444 31.9663C47.0444 32.9431 47.7196 33.3238 48.5759 32.8437C49.4157 32.3471 50.1073 31.1717 50.1073 30.195C50.1073 29.2182 49.4157 28.8375 48.5759 29.3176C47.7361 29.8142 47.0444 30.9896 47.0444 31.9663Z" fill="#64B2C0"/>
<path d="M47.0124 33.7872C46.4196 33.4396 46.0737 32.7774 46.0737 31.9496C46.0737 30.6252 46.9466 29.1187 48.0828 28.4566C48.7909 28.0427 49.5484 28.0096 50.1412 28.3407C50.7341 28.6883 51.0799 29.3505 51.0799 30.1783C51.0799 31.5026 50.2071 33.0091 49.0708 33.6713C48.6756 33.9031 48.2803 34.019 47.9016 34.019C47.5887 34.019 47.2923 33.9362 47.0124 33.7872ZM49.0708 30.1617C48.5274 30.4762 48.0334 31.3371 48.0993 31.9827C48.6427 31.6682 49.1366 30.8073 49.1366 30.112C49.1202 30.112 49.0873 30.1286 49.0708 30.1452V30.1617Z" fill="#222121"/>
<path d="M86.6493 35.8899V88.7992L46.7324 111.612V58.6362L86.6493 35.8899Z" fill="white"/>
<path d="M47.8521 72.1945C47.6545 72.1945 47.4897 72.029 47.4897 71.8303V59.4307C47.4897 59.2983 47.5557 59.1824 47.671 59.1162L56.9421 53.7359C57.1232 53.6366 57.3373 53.7028 57.4361 53.8683C57.5349 54.0504 57.469 54.2656 57.3043 54.365L48.2308 59.6294V71.8138C48.2308 72.0124 48.0662 72.178 47.8686 72.178L47.8521 72.1945Z" fill="#3A83C9"/>
<path d="M47.8521 110.552C47.8521 110.552 47.7204 110.536 47.671 110.503C47.5557 110.436 47.4897 110.321 47.4897 110.188V97.7885C47.4897 97.5899 47.6545 97.4243 47.8521 97.4243C48.0497 97.4243 48.2143 97.5899 48.2143 97.7885V109.542L56.9256 104.477C57.1068 104.377 57.3208 104.427 57.4196 104.609C57.5184 104.791 57.4525 105.006 57.2879 105.106L48.0167 110.486C48.0167 110.486 47.9015 110.536 47.8356 110.536L47.8521 110.552Z" fill="#3A83C9"/>
<path d="M85.7605 50.1932C85.5629 50.1932 85.3981 50.0277 85.3981 49.829V38.0751L76.6869 43.1409C76.5058 43.2402 76.2917 43.174 76.1929 43.0084C76.0941 42.8263 76.1599 42.6111 76.3246 42.5118L85.5793 37.1315C85.6945 37.0652 85.8263 37.0652 85.9416 37.1315C86.0569 37.1977 86.1227 37.3136 86.1227 37.446V49.8456C86.1227 50.0442 85.9581 50.2098 85.7605 50.2098V50.1932Z" fill="#3A83C9"/>
<path d="M76.4887 93.9315C76.357 93.9315 76.2417 93.8652 76.1758 93.7493C76.077 93.5672 76.1428 93.352 76.3075 93.2527L85.381 87.9883V75.8039C85.381 75.6052 85.5458 75.4397 85.7434 75.4397C85.941 75.4397 86.1056 75.6052 86.1056 75.8039V88.2035C86.1056 88.3359 86.0398 88.4518 85.9245 88.518L76.6698 93.8983C76.6698 93.8983 76.5546 93.948 76.4887 93.948V93.9315Z" fill="#3A83C9"/>
<path d="M80.0631 80.4888C80.903 80.0087 81.7263 79.5286 82.5497 79.0485V72.3438C82.5497 72.3438 82.5167 72.3438 82.5003 72.3438C81.7263 72.7908 80.9524 73.2378 80.1784 73.6847C80.0631 73.751 80.0467 73.8503 80.0631 73.9662C80.0631 74.9429 80.0631 75.9362 80.0631 76.9129C80.0631 77.0785 80.096 77.1116 80.2278 77.0288C80.5242 76.8467 80.8371 76.6812 81.1335 76.4991C81.2817 76.4163 81.3311 76.4328 81.3311 76.6315C81.3311 77.0454 81.3311 77.4427 81.3311 77.84C81.3311 78.0221 81.2817 78.1049 81.1499 78.1877C80.837 78.3532 80.5406 78.5519 80.2278 78.7174C80.1125 78.7836 80.0796 78.8664 80.0796 78.9988C80.0796 79.4955 80.0796 79.9756 80.0796 80.4722C79.635 80.7206 79.2398 80.9523 78.8281 81.2006V72.7742C78.4987 72.9729 78.1858 73.155 77.8894 73.3205C77.5107 73.5357 77.5765 73.5689 77.56 73.0722C77.56 72.6583 77.56 72.261 77.56 71.8306C77.1154 72.0789 76.7037 72.3272 76.3085 72.559V70.8704C75.9627 71.0525 75.6334 71.2512 75.2875 71.4498C75.1229 71.5492 75.0406 71.4885 75.0406 71.2677C75.0406 70.9366 75.0406 70.589 75.0406 70.2579C75.0406 70.0261 75.1284 69.8606 75.304 69.7612C75.6334 69.5791 75.9463 69.3805 76.2921 69.1818V67.4932C75.9298 67.7084 75.5675 67.9071 75.2052 68.1223C75.0735 68.2051 75.0241 68.172 75.0406 67.9899C75.0406 67.6091 75.0406 67.2449 75.0406 66.8807C75.0406 66.6489 75.1284 66.4834 75.304 66.3841C75.6334 66.202 75.9463 66.0033 76.2921 65.8046C76.2921 65.2914 76.2921 64.7948 76.2921 64.3147C76.2921 64.1326 76.2426 64.1326 76.1109 64.1988C75.798 64.3809 75.5016 64.5465 75.1887 64.7451C75.057 64.8279 75.0241 64.7782 75.0241 64.6127C75.0241 64.1988 75.0241 63.7849 75.0241 63.3711C75.0241 63.189 74.9747 63.1724 74.8595 63.2552C74.5466 63.4373 74.2502 63.6194 73.9373 63.7849C73.8056 63.8512 73.7726 63.9505 73.7726 64.116C73.7726 64.5299 73.7726 64.9603 73.7726 65.3742C73.7726 65.5067 73.7561 65.5894 73.6408 65.6391C73.2621 65.8543 72.8998 66.0695 72.521 66.2847C72.521 63.636 72.521 60.9872 72.521 58.3384C72.521 58.0183 72.4003 57.9301 72.1588 58.0735C71.8624 58.2391 71.5659 58.4212 71.2695 58.5867V56.8981C71.6318 56.6829 71.9941 56.4677 72.3564 56.269C72.4881 56.2028 72.521 56.1201 72.521 55.9379C72.521 54.9612 72.521 53.9845 72.521 53.0077C72.521 52.8256 72.4881 52.776 72.3399 52.8588C72.06 53.0409 71.78 53.1733 71.4836 53.3554C71.3024 53.4713 71.2366 53.4547 71.2366 53.1898C71.2366 52.2628 71.2366 51.3357 71.2366 50.4086C71.2366 50.1934 71.2037 50.1272 71.0225 50.2265C69.9028 50.8887 68.7829 51.5344 67.6631 52.18C67.4985 52.2793 67.4492 52.3621 67.4492 52.5939C67.4492 53.5209 67.4492 54.4646 67.4492 55.3916C67.4492 55.6234 67.3997 55.7227 67.2351 55.8055C66.9387 55.9545 66.6587 56.1366 66.3622 56.3022C66.2305 56.3849 66.1811 56.3518 66.1976 56.1697C66.1976 55.7724 66.1976 55.3751 66.1976 54.9778C66.1976 54.7791 66.1647 54.7129 66 54.8122C65.7036 54.9943 65.4071 55.1599 65.1107 55.3254C64.979 55.3916 64.9296 55.491 64.9296 55.6731C64.9296 56.0869 64.9296 56.5008 64.9296 56.9147C64.9296 56.9809 64.8637 57.1465 64.8308 57.1796C64.452 57.4113 64.0733 57.6265 63.6616 57.8583V54.4977C63.2664 54.7294 62.8712 54.9447 62.4925 55.1764C62.4595 55.193 62.4101 55.342 62.4101 55.4082C62.4101 55.8386 62.4101 56.2525 62.4101 56.6664C62.4101 56.8319 62.3607 56.9147 62.2454 56.9975C61.9325 57.163 61.6361 57.3617 61.3232 57.5272C61.1915 57.5934 61.1421 57.6928 61.1586 57.8583C61.1586 58.2225 61.1586 58.6033 61.1586 58.9675C61.1586 59.1993 61.2464 59.26 61.422 59.1496C62.1137 58.7523 62.8053 58.3384 63.4969 57.9576C63.5628 57.9245 63.6616 57.9411 63.6781 57.9742C63.6781 58.4708 63.6781 58.984 63.6781 59.5304C63.2993 59.7456 62.9536 59.9608 62.6077 60.1429C62.4595 60.2257 62.4101 60.3084 62.4265 60.5071C62.4265 60.9872 62.4265 61.4673 62.4265 61.9639C62.8382 61.7322 63.2664 61.4838 63.6781 61.2521V62.9407C63.2499 63.189 62.8382 63.4373 62.4265 63.6691C62.4265 64.2319 62.4265 64.7948 62.4265 65.3411C62.7888 65.1259 63.1511 64.9272 63.5134 64.712C63.6452 64.6292 63.6945 64.6458 63.6945 64.8445C63.6945 65.3245 63.6945 65.8212 63.6945 66.3013C64.1227 66.053 64.5673 65.8046 64.9954 65.5729C64.9954 66.1357 64.9461 66.7152 64.979 67.2449C65.753 66.7979 66.5105 66.3509 67.2844 65.904C67.3503 65.8709 67.4655 65.8874 67.4655 65.9205C67.4655 66.4172 67.4655 66.9304 67.4655 67.4767C66.2634 68.172 65.0613 68.8673 63.8592 69.5626C63.7933 69.6123 63.6781 69.6123 63.6781 69.7944C63.6781 70.3076 63.6781 70.8208 63.6781 71.3505C64.0568 71.1353 64.4027 70.9366 64.7485 70.7214C64.8967 70.6221 64.9625 70.6552 64.9461 70.8704C64.9461 71.2677 64.9461 71.6651 64.9461 72.0624C64.9461 72.2776 64.9955 72.2941 65.1437 72.2114C65.8518 71.7975 66.5598 71.3836 67.2679 70.9698C67.4161 70.887 67.4655 70.9035 67.4655 71.1022C67.4655 71.4995 67.4655 71.8968 67.4655 72.2941C67.4655 72.4928 67.4161 72.5756 67.2679 72.6583C66.9715 72.8239 66.6587 73.006 66.3622 73.1715C66.247 73.2378 66.1976 73.3205 66.1976 73.4861C66.1976 73.8668 66.1976 74.2642 66.1976 74.6449C66.1976 74.8767 66.1647 74.9926 65.967 75.0919C65.6871 75.2409 65.4071 75.423 65.1107 75.572C64.9625 75.6548 64.9296 75.7375 64.9296 75.9362C64.9296 76.9957 64.9461 78.0221 64.9296 79.0982C64.5014 79.3465 64.0897 79.5948 63.6616 79.8266C63.6616 80.3067 63.6616 80.7868 63.6616 81.2834C63.6616 81.4655 63.711 81.4821 63.8263 81.4159C64.1886 81.2006 64.5344 81.002 64.9131 80.7868C64.9625 81.7966 64.9131 82.8727 64.9296 83.8991C64.9296 84.0977 64.8802 84.1805 64.732 84.2633C64.3697 84.4619 64.0075 84.6772 63.6452 84.8924C63.6452 85.3725 63.6452 85.8526 63.6452 86.3161C63.6452 86.5313 63.5957 86.6141 63.4475 86.6969C63.1675 86.8458 62.8876 87.0279 62.6241 87.1769C62.4265 87.2763 62.3937 87.3922 62.3937 87.6405C62.3937 88.0875 62.3937 88.551 62.3937 88.998C62.7559 88.7993 63.1182 88.6007 63.4805 88.3854C63.6287 88.3027 63.6616 88.3358 63.6616 88.5344C63.6616 89.4946 63.6616 90.4382 63.6616 91.3819C63.6616 91.5971 63.6286 91.6964 63.4475 91.7957C62.6735 92.2427 61.9161 92.6566 61.1421 93.1532C61.1421 93.6499 61.1421 94.1134 61.1421 94.577C61.1421 94.7591 61.175 94.8087 61.3232 94.726C61.6196 94.5439 61.9325 94.3783 62.2289 94.1962C62.3607 94.1134 62.4101 94.13 62.4101 94.3286C62.4101 94.7425 62.4101 95.1398 62.4101 95.5371C62.4101 95.7192 62.3607 95.802 62.2289 95.8848C61.916 96.0503 61.6196 96.2324 61.3068 96.4311C61.2573 96.4642 61.1586 96.5966 61.1586 96.6463C61.1586 97.1595 61.1586 97.6562 61.1586 98.1694C61.9984 97.6727 62.8382 97.1926 63.6781 96.7125C63.6781 96.2324 63.6781 95.7689 63.6781 95.3054C63.6781 95.1233 63.711 95.0239 63.8592 94.9412C64.1721 94.7756 64.4685 94.5935 64.7813 94.4114C64.9131 94.3286 64.9461 94.3783 64.9461 94.5438C64.9461 94.9577 64.9461 95.3716 64.9461 95.7855C64.9461 95.9345 64.9625 96.0007 65.0942 95.9179C65.8353 95.4875 66.5764 95.057 67.3174 94.6266C67.4327 94.5604 67.4655 94.4776 67.4655 94.3286C67.4655 93.9148 67.4655 93.5009 67.4655 93.087C67.4655 92.9049 67.515 92.8056 67.6468 92.7394C67.9432 92.5738 68.256 92.3917 68.5524 92.2096C68.7006 92.1268 68.7336 92.1765 68.7336 92.3586C68.7336 92.7394 68.7336 93.1201 68.7336 93.5009C68.7336 93.7492 68.783 93.7823 68.9641 93.6664C70.1498 92.9546 71.3354 92.3089 72.5375 91.5805C72.5375 89.9913 72.5375 88.4186 72.5375 86.8293C72.5375 86.6141 72.5705 86.4982 72.7516 86.4154C73.0315 86.2664 73.3115 86.0843 73.6079 85.9353C73.7561 85.8526 73.822 85.7698 73.8055 85.5546C73.8055 85.1407 73.8055 84.7268 73.8055 84.313C73.8055 84.1474 73.8549 84.0812 73.9702 84.015C74.2831 83.8494 74.5959 83.6673 74.9088 83.4687C75.0406 83.3859 75.0735 83.4355 75.0735 83.6011C75.0735 84.0315 75.0735 84.4619 75.0735 84.8924C75.0735 85.0414 75.1064 85.0745 75.2217 85.0083C75.6005 84.7765 75.9462 84.5778 76.325 84.3626C76.325 85.4718 76.325 86.5148 76.325 87.5743C76.325 87.7233 76.2592 87.7729 76.1768 87.806C75.864 87.9881 75.5346 88.1702 75.2217 88.3689C75.1064 88.4351 75.0571 88.402 75.0571 88.2364C75.0571 87.8226 75.0571 87.4087 75.0571 86.9948C75.0571 86.8293 75.0241 86.7631 74.8923 86.8624C74.5795 87.0445 74.2831 87.2266 73.9702 87.3922C73.822 87.4749 73.7891 87.5743 73.7891 87.7398C73.7891 88.1206 73.7891 88.4848 73.7891 88.8821C73.7891 89.1304 73.8385 89.1801 74.0196 89.0642C74.349 88.849 74.6948 88.6669 75.0571 88.4517V90.1072C75.4852 89.8588 75.8968 89.6271 76.325 89.3787C76.325 88.9483 76.325 88.551 76.325 88.1371C76.325 87.657 76.2756 87.7398 76.6379 87.5246C77.313 87.1273 77.9883 86.73 78.6469 86.3658C78.8116 86.2664 78.861 86.1671 78.861 85.9684C78.8116 84.0977 79.141 84.5116 77.7413 85.2069C77.6919 85.24 77.593 85.2069 77.593 85.1573C77.593 84.6606 77.593 84.164 77.593 83.6342C78.3505 83.1541 79.108 82.7568 79.8655 82.2933C80.0412 82.1939 80.129 82.0229 80.129 81.7801C80.129 81.3165 80.129 80.9027 80.129 80.4226L80.0631 80.4888ZM63.6616 61.3183C63.6616 60.7554 63.6616 60.2091 63.6616 59.6131C64.0897 59.3648 64.4849 59.1165 64.8966 58.8682C64.8966 58.3881 64.9296 57.8749 64.9296 57.3948C64.9296 57.2458 64.9626 57.163 65.0778 57.0968C65.3907 56.9147 65.72 56.7326 66.0329 56.5339C66.1482 56.4677 66.1811 56.5174 66.1811 56.6498C66.1811 58.206 66.1811 59.7621 66.1811 61.3017C66.1811 61.4673 66.1317 61.55 66.0164 61.6163C65.7035 61.7818 65.4071 61.9639 65.0942 62.146C64.9625 62.2288 64.9131 62.1957 64.9296 62.0136C64.9296 61.5169 64.9296 61.0534 64.9296 60.5568C64.5014 60.8051 64.0897 61.0534 63.6616 61.2852V61.3183ZM66 65.0266C65.6542 65.2252 65.3084 65.4239 64.979 65.6391C64.979 65.5729 64.9461 65.5232 64.9461 65.457C64.9461 65.0266 64.9461 64.5961 64.9461 64.1823C64.9461 64.0333 64.979 63.9505 65.0942 63.8677C65.4071 63.7022 65.72 63.5201 66.0329 63.3214C66.1646 63.2386 66.1976 63.2883 66.1976 63.4539C66.1976 63.8677 66.1976 64.265 66.1976 64.6624C66.1976 64.861 66.1482 64.9438 66 65.0266ZM75.1394 73.2378C75.5181 73.0225 75.8804 72.8073 76.2592 72.5921V74.2642C75.8639 74.4959 75.4687 74.7277 75.0899 74.9429C75.057 74.9429 75.0076 74.8932 75.0076 74.8436C75.0076 74.3966 75.0076 73.9331 75.0076 73.4861C75.0076 73.3536 75.0571 73.2874 75.1394 73.2378ZM72.6198 67.9402C72.9492 67.7416 73.2786 67.5595 73.5915 67.3608C73.7067 67.2946 73.7396 67.3111 73.7396 67.4767C73.7396 67.9071 73.7396 68.3375 73.7396 68.768C73.7396 68.9169 73.6903 68.9997 73.5915 69.0659C73.2786 69.248 72.9657 69.4302 72.6528 69.6123C72.5211 69.695 72.4882 69.6288 72.4882 69.4633C72.4882 68.9997 72.4882 68.5362 72.4882 68.0561C72.5376 68.0064 72.5704 67.9568 72.6198 67.9402ZM72.4882 71.5823C72.4882 71.4333 72.5375 71.3505 72.6528 71.3008C72.8175 71.2181 72.9656 71.1187 73.1303 71.0194C73.295 70.9201 73.4433 70.8373 73.6079 70.738C73.7067 70.6718 73.7561 70.7049 73.7561 70.8539C73.7561 71.3008 73.7561 71.7313 73.7561 72.1617C73.7561 72.3107 73.7067 72.3769 73.6079 72.4266C73.2951 72.6087 72.9657 72.7908 72.6528 72.9894C72.5375 73.0557 72.5045 73.0226 72.5045 72.8736C72.5045 72.4431 72.5045 72.0127 72.5045 71.5823H72.4882ZM71.2366 61.7818C71.2366 61.9308 71.2037 62.0136 71.0884 62.0632C70.759 62.2453 70.4297 62.444 70.1169 62.6261C70.0345 62.6758 69.9851 62.6758 69.9851 62.5433C69.9851 62.0301 69.9851 61.5169 69.9851 61.0203C70.3474 60.8051 70.7096 60.6064 71.0719 60.3912C71.2036 60.3084 71.2366 60.3415 71.2366 60.5236C71.2366 60.9541 71.2366 61.3679 71.2366 61.7818ZM68.7006 63.2221C68.7006 63.3876 68.6677 63.487 68.536 63.5532C68.2231 63.7187 67.9267 63.9008 67.6138 64.0829C67.482 64.1657 67.4492 64.116 67.4492 63.9505C67.4492 62.9738 67.4492 61.997 67.4492 61.0203C67.4492 60.921 67.4491 60.8051 67.5643 60.7389C68.3548 60.2753 69.1453 59.8118 69.9851 59.3317V61.0037C69.6228 61.2189 69.277 61.4342 68.9147 61.6328C68.7335 61.7321 68.7006 61.8315 68.7006 62.0467C68.7006 62.4275 68.7006 62.8248 68.7006 63.2055V63.2221ZM67.4327 55.9545C67.4327 55.7724 67.482 55.6896 67.5973 55.6234C67.8608 55.4744 68.1242 55.3254 68.3877 55.1599C68.7171 54.9612 68.6842 55.044 68.6842 54.5805C68.6842 54.2328 68.6842 53.8852 68.6842 53.5375C68.6842 53.3554 68.7336 53.2561 68.8653 53.1898C69.1617 53.0243 69.4746 52.8422 69.771 52.6601C69.9192 52.5773 69.9686 52.5939 69.9686 52.8091C69.9686 53.3057 69.9686 53.7527 69.9686 54.2494C70.3968 54.001 70.792 53.7693 71.2201 53.5209C71.2201 54.0673 71.2201 54.5639 71.2201 55.0771C71.2201 55.1268 71.1214 55.2592 71.0555 55.2923C70.2815 55.7558 69.491 56.1863 68.7171 56.6995C68.7171 57.1796 68.6841 57.6762 68.7006 58.1729C68.7006 58.3219 68.6677 58.4212 68.536 58.4874C68.2231 58.6529 67.9267 58.835 67.6138 59.0172C67.482 59.0999 67.4327 59.0668 67.4327 58.9013C67.4327 57.9245 67.4327 56.9312 67.4327 55.9545ZM64.9296 79.1644C65.3083 78.9326 65.7036 78.7174 66.0823 78.5022C66.1153 78.4856 66.1646 78.5519 66.1646 78.6015C66.1646 79.0651 66.1646 79.5121 66.1646 79.9921C66.1646 80.0418 66.1153 80.1577 66.0823 80.1908C65.7036 80.4226 65.3248 80.6378 64.9296 80.8695V79.181V79.1644ZM66.1811 93.4181C66.1811 93.5837 66.1317 93.6664 66.0164 93.7327C65.7035 93.9148 65.3907 94.0969 65.0778 94.279C64.9626 94.3452 64.9296 94.3286 64.9296 94.1631C64.9296 93.9479 64.9296 93.7327 64.9296 93.5174C64.9296 93.3022 64.9296 93.0705 64.9296 92.8387C64.9296 92.7725 65.012 92.6235 65.0614 92.6069C65.3907 92.4083 65.72 92.2262 66.0329 92.0275C66.1482 91.9613 66.1811 92.0275 66.1811 92.1599C66.1811 92.5904 66.1811 93.0042 66.1811 93.4181ZM66.1811 88.3523C66.1811 88.3523 66.1153 88.5841 66.0823 88.6172C65.7036 88.849 65.3413 89.0642 64.9296 89.296V88.1537C64.9296 87.6239 64.9296 87.6239 65.3248 87.3922C65.6212 87.2266 65.9176 87.0611 66.2305 86.8955C66.1481 87.4253 66.2305 87.8722 66.1811 88.3854V88.3523ZM67.2186 86.283C66.8892 86.4651 66.5598 86.6803 66.2305 86.8624C66.1646 86.4154 66.1976 85.8857 66.1976 85.389C66.1976 85.2235 66.1646 85.1904 66.0329 85.2731C65.72 85.4718 65.4071 85.6539 65.0942 85.8194C65.0448 85.8526 64.9461 85.8194 64.9461 85.7698C64.9461 85.2731 64.9461 84.7765 64.9461 84.2302C65.2754 84.0315 65.6047 83.8494 65.9176 83.6673C66.2305 83.4852 66.1976 83.5514 66.1976 83.1044C66.1976 82.0946 66.1976 81.1344 66.1976 80.1246C66.4776 79.959 66.7575 79.81 67.021 79.6445C67.3064 79.4789 67.4492 79.5893 67.4492 79.9756C67.4492 81.9291 67.4492 83.8825 67.4492 85.836C67.4492 86.0678 67.3997 86.1837 67.2186 86.2664V86.283ZM69.7875 89.8588C68.4042 90.5707 68.7335 90.8852 68.7006 89.0145C68.7006 88.849 68.6677 88.8159 68.536 88.8986C67.1198 89.6602 67.4985 89.8919 67.4327 88.0875C67.4327 87.8888 67.4821 87.806 67.6303 87.7232C68.4042 87.2763 69.1946 86.8127 69.9686 86.3658C69.9686 87.4087 69.9686 88.4517 69.9686 89.4946C69.9686 89.6933 69.9192 89.7761 69.7875 89.8588ZM71.2366 85.6208C70.8085 85.8691 70.3968 86.1009 69.9851 86.3492C69.9851 85.2897 69.9851 84.2302 69.9851 83.1707C69.9851 83.0382 70.018 82.9555 70.1332 82.9058C70.4626 82.7237 70.792 82.525 71.1049 82.3429C71.1872 82.2933 71.2366 82.2933 71.2366 82.4257C71.2366 83.4852 71.2366 84.5282 71.2366 85.6373V85.6208ZM71.2366 80.3232C71.2366 80.5053 71.2037 80.5881 71.0555 80.6709C70.7591 80.8364 70.4461 81.002 70.1497 81.2006C70.018 81.2834 69.9686 81.2669 69.9686 81.0682C69.9686 80.6543 69.9686 80.257 69.9686 79.8431C69.9686 79.661 69.9357 79.6114 69.7875 79.6942C69.4746 79.8928 69.1782 80.0418 68.8653 80.2405C68.7336 80.3232 68.6842 80.2901 68.6842 80.1246C68.6842 79.6942 68.6842 79.2803 68.6842 78.8664C68.6842 78.7009 68.7336 78.6346 68.8488 78.5684C69.1617 78.3863 69.4911 78.2042 69.804 78.0221C69.9028 77.9724 69.9521 77.9062 69.9521 77.7572C69.9521 77.2771 69.9521 76.7805 69.9521 76.2673C69.1782 76.6812 68.4042 77.1613 67.6303 77.6082C67.4821 77.691 67.4162 77.6745 67.4327 77.4592C67.4327 77.0454 67.4327 76.6481 67.4327 76.2507C67.4327 76.0852 67.482 75.9859 67.5973 75.9197C67.8937 75.7541 68.2066 75.572 68.503 75.4064C68.6347 75.3402 68.6842 75.2575 68.6842 75.0754C68.6677 72.9067 68.7171 70.7049 68.6677 68.5527C68.3054 68.768 67.9596 68.9501 67.6303 69.1653C67.4821 69.2646 67.4327 69.2149 67.4327 69.0163C67.4327 68.5527 67.4327 68.0892 67.4327 67.5926C68.2725 67.0959 69.1123 66.6158 69.9686 66.1192C69.9686 65.6391 69.9686 65.2087 69.9686 64.7617C69.9686 64.541 70.051 64.3809 70.2157 64.2816C70.4956 64.116 70.7756 63.967 71.0555 63.8015C71.2037 63.7187 71.2366 63.7684 71.2366 63.9505C71.2366 65.01 71.2366 66.0364 71.2366 67.0794C71.6648 66.831 72.0765 66.5827 72.4882 66.3509C72.4882 66.9304 72.4882 67.5263 72.4882 68.1058C72.4552 68.1058 72.4058 68.1058 72.3729 68.1389C71.5824 68.619 70.792 69.0163 70.0016 69.5295V71.2015C70.3309 71.0029 70.6602 70.8208 70.9896 70.6387C71.1652 70.5393 71.2531 70.6055 71.2531 70.8373C71.2531 72.41 71.2531 73.9827 71.2531 75.572C72.0435 75.1085 72.801 74.678 73.5915 74.2145C73.7397 74.1317 73.7891 74.1483 73.7891 74.3469C73.7891 74.7443 73.7891 75.125 73.7891 75.5058C73.7891 75.721 73.7561 75.8038 73.5915 75.9031C72.8175 76.3335 72.0599 76.7971 71.2695 77.244C71.2695 78.287 71.2695 79.3299 71.2695 80.3729L71.2366 80.3232ZM76.2756 81.0185C75.0735 81.7138 73.8879 82.3926 72.7022 83.1044C72.554 83.1872 72.5045 83.1707 72.5045 82.9555C72.5045 81.4324 72.5045 79.9259 72.5045 78.4194C72.5045 78.1877 72.554 78.1214 72.7186 78.0221C73.8384 77.3765 74.9583 76.7308 76.078 76.0686C76.2427 75.9693 76.2921 76.0024 76.2921 76.2342C76.2921 77.84 76.2921 79.4293 76.2921 81.0185H76.2756ZM55.0162 86.6141C54.8845 86.6803 54.8351 86.6803 54.8351 86.4982C54.8351 85.5215 54.8351 84.5282 54.8351 83.5514C54.8351 83.3859 54.8845 83.2866 54.9998 83.2203C55.7244 82.8065 56.4653 82.376 57.1899 81.9456C57.3216 81.8628 57.3546 81.9125 57.3546 82.078C57.3546 82.5747 57.3546 83.0548 57.3546 83.5514C58.1286 83.1044 58.9025 82.6575 59.66 82.2105C59.8082 82.1277 59.8741 82.0449 59.8576 81.8297C59.8576 81.3662 59.8576 80.8861 59.8576 80.406C59.0178 80.8033 58.178 81.3993 57.3382 81.8132C57.3382 81.3165 57.3382 80.8364 57.3382 80.3563C57.3382 80.1908 57.3052 80.1577 57.1734 80.2239C56.8605 80.406 56.5641 80.5716 56.2513 80.7702C56.1195 80.853 56.0701 80.8199 56.0701 80.6378C56.0701 79.5783 56.0701 78.5684 56.0701 77.5089C55.2962 77.9559 54.5222 78.4029 53.7483 78.8664C53.5836 78.9657 53.5342 78.9161 53.5342 78.7009C53.5342 78.3035 53.5342 77.9228 53.5342 77.542C53.5342 77.3434 53.5836 77.244 53.7318 77.1613C54.9339 76.466 56.1196 75.8038 57.3217 75.0588C57.3217 73.9827 57.3217 72.9232 57.3217 71.8637C57.3217 71.7313 57.2722 71.7313 57.1734 71.7809C56.8441 71.9796 56.5148 72.1617 56.2019 72.3438C56.1031 72.41 56.0537 72.4762 56.0701 72.6087C56.0701 73.1219 56.0701 73.5854 56.0701 74.1152C55.7737 74.2807 55.5102 74.4463 55.2303 74.5953C54.9448 74.7608 54.8021 74.6504 54.8021 74.2642V73.155C54.4398 73.3702 54.0941 73.5854 53.7648 73.751C53.5836 73.8503 53.5507 73.9496 53.5507 74.1814C53.5507 75.2078 53.5671 76.2176 53.5507 77.2771C52.7108 77.7572 51.9039 78.2373 51.0641 78.7174C51.0312 79.2306 51.0641 79.6941 51.0476 80.2073C51.0476 80.406 51.097 80.406 51.2287 80.3398C51.5416 80.1577 51.838 79.9756 52.1509 79.7935C52.2662 79.7273 52.2991 79.7604 52.2991 79.9094C52.2991 80.3398 52.2991 80.7537 52.2991 81.1675C52.2991 81.3496 52.2498 81.4159 52.118 81.4986C51.8216 81.6642 51.5251 81.8463 51.2287 82.0118C51.0805 82.0946 51.0311 82.1939 51.0311 82.3926C51.0476 83.419 51.0147 84.4785 51.0311 85.4883C51.4099 85.2731 51.7557 85.0579 52.118 84.8593C52.1674 84.8262 52.2662 84.8593 52.2662 84.8924C52.2662 85.4056 52.2662 85.9188 52.2662 86.4651C51.838 86.7134 51.4428 86.9452 51.0311 87.1769V88.8655C51.3934 88.6503 51.7557 88.4517 52.1015 88.2364C52.2333 88.1537 52.2662 88.1868 52.2662 88.3689C52.2662 88.7993 52.2662 89.2132 52.2662 89.6271C52.2662 89.7761 52.2992 89.8092 52.4144 89.7429C52.7273 89.5443 53.0566 89.3622 53.3695 89.1801C53.4847 89.1139 53.5177 89.0311 53.5177 88.8821C53.5177 88.3855 53.5177 87.9053 53.5177 87.4087C53.9459 87.1604 54.3411 86.9286 54.7528 86.6969C54.7692 87.1769 54.7528 87.6405 54.7528 88.1371C54.7528 88.3027 54.7857 88.3523 54.9174 88.2696C55.2303 88.0709 55.5432 87.8888 55.8561 87.7232C55.9878 87.657 56.0208 87.5743 56.0208 87.3922C56.0208 86.9121 56.0208 86.4154 56.0208 85.9353C55.6585 86.1505 55.2797 86.3492 54.9174 86.5644L55.0162 86.6141ZM53.5835 87.4418C53.1883 87.6736 52.8096 87.9054 52.4308 88.104C52.3979 88.1206 52.3485 88.0709 52.332 88.0212C52.332 87.5246 52.332 87.0279 52.332 86.4816C52.7272 86.2499 53.106 86.0347 53.4683 85.8194C53.5012 85.8029 53.5835 85.8526 53.5835 85.8857C53.5835 86.3823 53.5835 86.879 53.5835 87.4253V87.4418ZM54.6704 81.7304C54.4234 81.8628 54.1599 82.0118 53.9129 82.1608C53.5506 82.376 53.5835 82.2933 53.5835 82.7734C53.5835 83.121 53.5835 83.4687 53.5835 83.8163C53.5835 83.9653 53.5507 84.0646 53.4189 84.1309C53.106 84.313 52.7931 84.4951 52.4803 84.6772C52.365 84.7434 52.3156 84.7103 52.3156 84.5447C52.3156 84.0481 52.3156 83.5514 52.3156 83.0548C52.3156 82.5912 52.3156 82.1112 52.3156 81.6476C52.3156 81.4655 52.3485 81.3662 52.4967 81.2834C53.2213 80.8695 53.9294 80.4557 54.654 80.0253C54.7857 79.959 54.8351 79.9756 54.8351 80.1411C54.8351 80.555 54.8351 80.9689 54.8351 81.3827C54.8351 81.5483 54.7857 81.6476 54.6704 81.7138V81.7304ZM73.9867 60.3746C76.852 58.7192 79.7009 57.0637 82.5662 55.3916C82.5662 51.5675 82.5662 47.7433 82.5662 43.9191C82.5662 43.6874 82.4783 43.6212 82.3027 43.7205C79.5361 45.3263 76.7532 46.9321 73.9867 48.5545C73.7396 48.6869 73.7396 48.7035 73.7396 49.018C73.7396 52.7429 73.7396 56.4677 73.7396 60.1926C73.7396 60.4133 73.822 60.474 73.9867 60.3746ZM75.2217 49.5147C77.1813 48.3889 79.1245 47.2632 81.0841 46.1209C81.2817 46.005 81.3147 46.0713 81.3147 46.3196C81.3147 47.6274 81.3147 48.9353 81.3147 50.2431C81.3147 51.5509 81.3147 52.8588 81.3147 54.15C81.3147 54.3984 81.2652 54.4811 81.0841 54.5805C79.1245 55.7062 77.1813 56.8319 75.2217 57.9742C75.057 58.0735 75.0076 58.057 75.0076 57.8086C75.0076 55.1764 75.0076 52.5608 75.0076 49.9285C75.0076 49.6968 75.057 49.5974 75.2217 49.5147ZM51.2947 73.5523C54.0776 71.9299 56.8605 70.3076 59.6435 68.7017C59.8082 68.6134 59.8906 68.4589 59.8906 68.2382C59.8906 64.5134 59.8906 60.7885 59.8906 57.0637C59.8906 56.854 59.8082 56.7933 59.6435 56.8816C56.7947 58.5536 53.9294 60.176 51.0806 61.8646C51.0476 65.7219 51.0806 69.5295 51.0806 73.3868C51.0806 73.6185 51.1299 73.6682 51.311 73.5523H51.2947ZM52.332 63.0731C52.332 62.8744 52.3815 62.7751 52.5297 62.6923C54.5058 61.55 56.4654 60.4078 58.4414 59.2655C58.6061 59.1661 58.639 59.2324 58.639 59.431C58.639 60.7554 58.639 62.0964 58.639 63.4207C58.639 64.7286 58.639 66.0364 58.639 67.3277C58.639 67.5429 58.5896 67.6422 58.425 67.725C56.4653 68.8507 54.4893 69.993 52.5297 71.1519C52.3815 71.2346 52.332 71.2181 52.332 71.0029C52.332 68.3541 52.332 65.7219 52.332 63.0731ZM59.6765 87.2597C56.8112 88.9318 53.9458 90.5872 51.097 92.2427C51.064 96.1 51.097 99.9242 51.097 103.781C51.097 104.013 51.1464 104.063 51.3275 103.947C54.1928 102.275 57.0582 100.619 59.9235 98.9474C59.9235 95.1067 59.9235 91.266 59.9235 87.4253C59.9235 87.1935 59.8741 87.1438 59.693 87.2597H59.6765ZM58.425 98.1197C56.4653 99.2454 54.5057 100.388 52.5461 101.53C52.3814 101.629 52.332 101.58 52.332 101.364C52.332 98.7488 52.332 96.1331 52.332 93.5174C52.332 93.2857 52.3814 93.1864 52.5626 93.0705C53.5506 92.5076 54.5386 91.9282 55.5267 91.3653C56.4983 90.8025 57.4699 90.2396 58.4414 89.6602C58.6061 89.5608 58.6555 89.6105 58.6555 89.8257C58.6555 92.4579 58.6555 95.0902 58.6555 97.7224C58.6555 97.9541 58.5896 98.0369 58.4414 98.1197H58.425ZM82.5662 58.7523C82.138 59.0006 81.7428 59.2324 81.3147 59.4807C81.3147 58.9675 81.3147 58.4874 81.3147 58.0073C81.3147 57.8418 81.2817 57.8087 81.1499 57.8749C80.837 58.0735 80.5243 58.2556 80.2114 58.4212C80.0796 58.4874 80.0466 58.5867 80.0466 58.7357C80.0466 59.1496 80.0466 59.58 80.0466 59.9939C80.0466 60.1594 80.0961 60.1925 80.2114 60.1098C80.5243 59.9277 80.8207 59.7621 81.1335 59.5635C81.2817 59.4807 81.3147 59.5304 81.3147 59.7125C81.3147 60.1263 81.3147 60.5236 81.3147 60.921C81.3147 61.1031 81.2653 61.1858 81.1335 61.2686C80.3431 61.7156 79.5855 62.1626 78.7951 62.6261C78.7951 63.1724 78.7951 63.6856 78.7951 64.1988C78.7951 64.2485 78.8939 64.265 78.9433 64.2319C79.2398 64.0829 79.5197 63.9008 79.8161 63.7353C79.9698 63.647 80.0466 63.7132 80.0466 63.9339C80.0466 64.861 80.0466 65.8046 80.0466 66.7317C80.0466 66.9138 80.096 66.9469 80.2278 66.8642C80.5242 66.682 80.8206 66.5331 81.1171 66.3509C81.2653 66.2682 81.3147 66.2847 81.3147 66.4834C81.3147 66.8642 81.3147 67.2284 81.3147 67.5926C81.3147 67.8243 81.2817 67.9402 81.0841 68.0561C80.3266 68.47 79.5691 68.9501 78.7951 69.3639C78.7951 68.321 78.7951 67.3111 78.7951 66.2682C78.7951 66.053 78.7457 66.0199 78.5975 66.1192C78.3011 66.3013 78.0047 66.4668 77.7083 66.6324C77.5601 66.7152 77.5107 66.7979 77.5107 66.9966C77.5272 68.0395 77.4942 69.0825 77.5272 70.1089C77.9389 69.8606 78.3505 69.6454 78.7622 69.4301C78.7787 69.9765 78.7951 70.5062 78.7786 71.0856C79.1409 70.8704 79.4703 70.7049 79.7997 70.4897C79.9973 70.3572 80.0466 70.44 80.0302 70.6718C80.0302 71.0691 80.0302 71.4498 80.0302 71.8306C80.0302 71.9796 80.0631 72.0293 80.1784 71.9465C80.4913 71.7478 80.8207 71.5657 81.1335 71.3836C81.2488 71.3174 81.2817 71.2346 81.2817 71.1022C81.2817 70.7214 81.2817 70.3241 81.2817 69.9434C81.2817 69.7337 81.3641 69.5791 81.5287 69.4798C81.8581 69.2812 82.1874 69.0991 82.5167 68.9004C82.5661 67.2449 82.5168 65.6391 82.5332 64.0002C82.5332 63.8346 82.4839 63.8346 82.3686 63.9008C82.0557 64.0829 81.7593 64.2485 81.4464 64.4471C81.3147 64.5299 81.2652 64.4803 81.2652 64.2982C81.2652 63.8843 81.2652 63.487 81.2652 63.0896C81.2652 62.9241 81.3147 62.8248 81.4299 62.7585C81.7264 62.593 82.0062 62.4109 82.3027 62.2619C82.4673 62.1791 82.5332 62.0798 82.5332 61.848C82.5168 60.8216 82.5332 59.7621 82.5167 58.7357L82.5662 58.7523ZM62.4101 78.9326C62.4101 78.5188 62.4101 78.1049 62.4101 77.7076C62.4101 77.3875 62.5308 77.1557 62.7724 77.0123C63.0688 76.8467 63.3652 76.6646 63.6616 76.4991V73.1384C63.2499 73.3702 62.8547 73.602 62.4595 73.8337C62.443 73.8337 62.4266 73.8834 62.3937 73.9165C62.3937 73.9496 62.4101 73.9662 62.4101 73.9993C62.4101 75.0091 62.4101 76.0355 62.4101 77.0454C62.4101 77.1944 62.3607 77.2606 62.2619 77.3103C61.949 77.4924 61.6196 77.6745 61.3068 77.8731C61.1915 77.9393 61.1421 77.9062 61.1421 77.7407C61.1421 77.3268 61.1421 76.9129 61.1421 76.4991C61.1421 76.3335 61.1091 76.2839 60.9774 76.3666C60.2528 76.7971 59.5283 77.2109 58.8038 77.6248C58.672 77.691 58.6226 77.7738 58.6226 77.9559C58.6226 78.3698 58.6226 78.7836 58.6226 79.1975C58.6226 79.3631 58.6556 79.4127 58.7873 79.3299C59.1002 79.1478 59.3966 78.9823 59.7095 78.7836C59.8412 78.7009 59.8741 78.7505 59.8741 78.9161C59.8741 79.4127 59.8741 79.8928 59.8741 80.3895C60.7139 79.8763 61.5538 79.4127 62.3772 78.9326H62.4101ZM81.5287 83.0382C81.8252 82.8727 82.138 82.6906 82.4344 82.525C82.5497 82.4588 82.5991 82.376 82.5991 82.2105C82.5991 81.7801 82.5991 81.3496 82.5991 80.9192C82.5991 80.7868 82.5662 80.7537 82.4674 80.8199C82.138 81.0185 81.8087 81.2006 81.4958 81.3827C81.3805 81.449 81.3476 81.5483 81.3476 81.6807C81.3476 82.0946 81.3476 82.5085 81.3476 82.9223C81.3476 83.1045 81.2981 83.1872 81.1664 83.27C80.87 83.4355 80.5571 83.6177 80.2607 83.7832C80.129 83.8494 80.0796 83.9322 80.0796 84.1143C80.0796 85.091 80.0796 86.0512 80.0796 87.0279C80.0796 87.2266 80.129 87.2266 80.2607 87.1604C80.623 86.9452 80.9689 86.7465 81.3311 86.5313C81.6934 86.3161 82.0721 86.1009 82.4344 85.8857C82.5332 85.8194 82.5991 85.7532 82.5827 85.6042C82.5827 85.1738 82.5827 84.7434 82.5827 84.313C82.5827 84.1474 82.5332 84.1309 82.4179 84.1971C82.1051 84.3792 81.8087 84.5447 81.4958 84.7434C81.364 84.8262 81.3147 84.793 81.3147 84.6109C81.3147 84.2136 81.3147 83.8163 81.3147 83.419C81.3147 83.2203 81.3476 83.121 81.5123 83.0382H81.5287ZM62.4265 70.6552C62.4265 70.6552 62.4266 70.5559 62.4101 70.4897C62.0314 70.7049 61.669 70.9201 61.2903 71.1353C61.175 71.2015 61.1751 71.3008 61.1751 71.4167C61.1751 72.3935 61.1751 73.3868 61.1751 74.3635C61.1751 74.5622 61.2409 74.5622 61.3562 74.4959C61.702 74.2973 62.0643 74.0324 62.4101 73.9331C62.4101 73.8668 62.4265 73.7841 62.4265 73.7344C62.4265 72.708 62.4265 71.6816 62.4265 70.6552ZM63.5299 83.3693C62.7395 83.8329 61.9655 84.2798 61.1751 84.7434C61.1751 85.2235 61.1751 85.7036 61.1751 86.2002C61.1751 86.3989 61.2245 86.4154 61.3562 86.3326C62.1302 85.8691 62.9041 85.4221 63.6945 84.9751C63.6945 84.4785 63.6945 83.9984 63.6945 83.5018C63.6945 83.3362 63.6452 83.3197 63.5299 83.3859V83.3693ZM59.7918 73.7013C59.4624 73.9 59.1331 74.0986 58.8038 74.2807C58.705 74.3304 58.672 74.3966 58.672 74.529C58.672 74.976 58.672 75.4396 58.672 75.8865C58.672 76.0355 58.7214 76.0355 58.8202 75.9859C58.9848 75.8865 59.1496 75.7872 59.3143 75.6879C59.4789 75.5885 59.6271 75.5223 59.7918 75.4064C59.8412 75.3733 59.9235 75.2243 59.9235 75.1747C59.9235 74.7111 59.9235 74.2642 59.9235 73.8172C59.9235 73.7013 59.8906 73.6516 59.7918 73.7179V73.7013ZM52.2332 74.7277C51.9039 74.9098 51.5746 75.0919 51.2452 75.3071C51.1958 75.3402 51.1134 75.4727 51.1134 75.5223C51.1134 76.0355 51.1134 76.5322 51.1134 77.0619C51.5087 76.8302 51.8874 76.615 52.2662 76.3832C52.2991 76.3666 52.365 76.2342 52.365 76.1845C52.365 75.721 52.365 75.274 52.365 74.827C52.365 74.7608 52.2826 74.7111 52.2332 74.7277ZM62.443 68.5859C62.443 68.7348 62.476 68.7845 62.5913 68.7183C62.9206 68.5196 63.2499 68.3375 63.5628 68.1554C63.6616 68.1058 63.711 68.023 63.711 67.8905C63.711 67.3939 63.711 66.8973 63.711 66.4006C63.2993 66.6489 62.8712 66.8807 62.4595 67.129C62.4595 67.6257 62.4595 68.1058 62.4595 68.6024L62.443 68.5859ZM59.7918 70.3407C59.4624 70.5393 59.133 70.7214 58.8202 70.9035C58.7214 70.9697 58.672 71.036 58.6885 71.1684C58.6885 71.6154 58.6885 72.0624 58.6885 72.5094C58.6885 72.6418 58.7378 72.6583 58.8202 72.6087C59.1495 72.41 59.4789 72.2114 59.8083 72.0293C59.9071 71.9796 59.94 71.9134 59.94 71.7809C59.94 71.5657 59.94 71.334 59.94 71.1187C59.94 70.9035 59.94 70.6718 59.94 70.4565C59.94 70.3241 59.9071 70.291 59.7918 70.3572V70.3407ZM56.1689 84.2798V85.9519L57.4205 85.2235C57.4205 84.6606 57.4205 84.0977 57.4205 83.5514C57.0088 83.7832 56.5971 84.0315 56.1689 84.2798ZM61.3232 62.6923C61.2244 62.7585 61.1915 62.8248 61.1915 62.9572C61.1915 63.3876 61.1915 63.8015 61.1915 64.2485C61.1915 64.4306 61.2409 64.4306 61.3727 64.3644C61.735 64.1492 62.0972 63.9505 62.4595 63.7353C62.4595 63.1724 62.4595 62.6096 62.4595 62.0632C62.0807 62.2785 61.7185 62.4937 61.3397 62.7089L61.3232 62.6923ZM61.3562 66.0364C61.2245 66.1026 61.175 66.1854 61.1915 66.3675C61.1915 66.7814 61.1915 67.1952 61.1915 67.6091C61.1915 67.7912 61.2409 67.8078 61.3562 67.7416C61.7185 67.5263 62.0807 67.3111 62.443 67.1125C62.443 66.5496 62.443 65.9867 62.443 65.4404C62.0807 65.6556 61.7185 65.8709 61.3562 66.0695V66.0364ZM77.4284 60.0767C77.099 60.2753 76.7696 60.4574 76.4568 60.6395C76.358 60.6892 76.3085 60.772 76.3085 60.9044C76.3085 61.3514 76.3085 61.7984 76.3085 62.2288C76.3085 62.2785 76.358 62.3612 76.3909 62.3447C76.7697 62.1295 77.1484 61.9143 77.56 61.6825C77.56 61.1527 77.56 60.6561 77.56 60.1594C77.56 60.027 77.5107 60.027 77.4284 60.0767ZM61.1751 89.9416C61.1751 90.4051 61.1751 90.8687 61.1751 91.3322C61.1751 91.3819 61.2409 91.4315 61.2739 91.415C61.6526 91.1998 62.0313 90.9846 62.4265 90.7528V89.0642C62.0642 89.2794 61.702 89.4946 61.3397 89.7098C61.2574 89.7595 61.1751 89.7926 61.1751 89.9582V89.9416ZM74.9253 78.436C74.7606 78.5188 74.596 78.6181 74.4313 78.7174C74.2666 78.8167 74.102 78.9161 73.9373 78.9988C73.855 79.0485 73.7891 79.1147 73.8055 79.2472C73.8055 79.6942 73.8055 80.1577 73.8055 80.6047C73.8055 80.6543 73.8879 80.7206 73.9208 80.6874C74.2666 80.5053 74.596 80.3067 74.9418 80.0915C74.9747 80.0584 75.0571 79.9259 75.0571 79.8763C75.0571 79.4127 75.0571 78.9657 75.0571 78.5188C75.0571 78.4691 74.9912 78.4194 74.9418 78.436H74.9253ZM62.2454 82.4091C62.3936 82.3264 62.443 82.2436 62.443 82.0284C62.443 81.5649 62.443 81.0848 62.443 80.6047C62.8547 80.3563 63.2829 80.108 63.6945 79.8763V78.2042C63.2664 78.4525 62.8547 78.7009 62.443 78.9326C62.443 79.4955 62.443 80.0584 62.443 80.6047C62.0807 80.8199 61.7185 81.0351 61.3562 81.2338C61.2245 81.3165 61.1751 81.3993 61.1751 81.5814C61.1751 82.0615 61.1751 82.5416 61.1751 83.0382L57.404 85.2235C57.404 85.7201 57.404 86.2168 57.404 86.7134C57.404 86.879 57.4535 86.8955 57.5687 86.8293C58.7708 86.1174 59.973 85.4221 61.1751 84.7268C61.1751 84.164 61.1751 83.6011 61.1751 83.0382C61.5209 82.823 61.8831 82.6078 62.2289 82.4257L62.2454 82.4091ZM76.5226 55.5406C77.7082 54.8453 78.894 54.1666 80.0796 53.4713C80.1125 51.8489 80.0796 50.2928 80.0961 48.6869C80.0961 48.4386 80.0467 48.4055 79.8655 48.5214C78.6799 49.2332 77.4942 49.8789 76.3085 50.6073C76.3085 52.1966 76.3085 53.7858 76.3085 55.3916C76.3085 55.6234 76.3579 55.6565 76.5226 55.5572V55.5406ZM53.6165 68.5859C53.6165 68.7845 53.6494 68.8176 53.7976 68.7348C54.374 68.3872 54.9504 68.0727 55.5103 67.725C56.0702 67.3939 56.63 67.0628 57.1899 66.7483C57.3381 66.6655 57.3875 66.5827 57.3875 66.3675C57.3875 64.8445 57.3875 63.3214 57.3875 61.7818C57.3875 61.5997 57.3546 61.5666 57.2064 61.6494C56.0537 62.3116 54.9175 62.9903 53.7648 63.636C53.6166 63.7187 53.5835 63.8015 53.5835 63.9836C53.5835 65.5067 53.5835 67.0297 53.5835 68.5693L53.6165 68.5859ZM57.1899 92.0937C56.0043 92.789 54.8186 93.4678 53.633 94.1631C53.6001 95.7855 53.633 97.3416 53.6165 98.9474C53.6165 99.1792 53.6659 99.2289 53.8471 99.1295C55.0327 98.4177 56.2183 97.772 57.404 97.0436C57.404 95.4544 57.404 93.8651 57.404 92.2758C57.404 92.0441 57.3546 92.011 57.1899 92.1103V92.0937Z" fill="#16292E"/>
<path d="M116.093 137.47C115.944 138.215 115.763 138.927 115.566 139.606C115.088 141.278 114.528 142.784 114.265 143.811C113.968 144.937 113.705 146.989 113.524 148.678C113.359 150.218 113.26 151.459 113.26 151.459C113.26 151.459 113.622 151.989 111.893 152.419C110.164 152.833 109.539 151.608 108.979 151.294C108.419 150.979 108.781 149.208 108.781 149.208V147.503V143.927C108.781 142.486 108.781 140.583 108.089 137.487C107.398 134.391 107.101 131.196 107.085 129.805C107.052 128.431 105.405 125.567 104.434 121.313C103.462 117.075 103.627 98.5664 103.627 98.5664L112.157 92.7722C112.157 92.7722 113.886 94.229 114.561 95.868C115.236 97.4903 115.813 101.298 115.994 104.94C116.158 108.599 113.622 120.435 113.919 122.852C114.232 125.269 116.076 130.269 116.405 133.762C116.521 134.937 116.373 136.212 116.126 137.47H116.093Z" fill="#FFCBAD"/>
<path d="M108.913 74.1314C108.913 74.1314 105.669 69.1319 107.826 68.2876C109.967 67.4433 112.651 68.1717 113.442 70.2576C114.232 72.3435 116.373 76.3167 116.867 77.161C117.377 78.0053 120.44 88.4348 120.44 88.4348C120.44 88.4348 118.942 90.7525 117.064 92.0603C115.319 93.2854 114.1 96.199 114.1 96.199V99.1624L111.894 101.927L110.313 103.185L108.897 103.334C108.897 103.334 108.205 103.251 108.501 103.003C108.798 102.755 108.962 102.771 108.962 102.771L107.941 102.655C107.941 102.655 107.645 102.225 108.386 102.01C109.144 101.795 109.835 101.695 109.967 101.745C110.099 101.795 111.103 99.9901 111.186 99.5431C111.268 99.0961 111.186 98.0532 111.12 97.4075C111.054 96.7619 111.548 95.7686 111.548 95.7686L110.972 96.4639C110.972 96.4639 110.362 97.6062 109.934 97.7221C109.506 97.838 109.407 98.1525 109.061 97.6062C108.699 97.0599 109.16 96.4308 109.226 96.3149C109.292 96.1825 109.983 95.4872 109.983 95.4872C109.983 95.4872 110.428 94.3615 110.774 93.931C111.136 93.5006 111.663 93.1198 111.795 92.9377C111.943 92.7556 112.486 90.7194 112.997 89.395C113.524 88.0706 115.368 85.6371 115.368 85.6371L112.355 79.8263L108.88 74.1314H108.913Z" fill="#FFCBAD"/>
<path d="M103.577 100.851C103.577 105.933 103.643 118.002 104.401 121.329C105.372 125.567 107.019 128.448 107.052 129.822C107.085 131.196 107.365 134.408 108.073 137.487C108.764 140.583 108.764 142.487 108.764 143.927V147.023C108.764 147.023 108.731 147.221 108.764 147.503C108.83 147.966 109.143 148.695 110.279 149.042C110.312 149.042 110.345 149.042 110.362 149.075C112.272 149.638 112.404 149.555 112.782 149.34C112.98 149.224 113.276 148.926 113.507 148.678C113.721 148.463 113.886 148.264 113.886 148.264C113.886 148.264 114.413 144.556 114.923 142.288C115.121 141.377 115.368 140.434 115.565 139.606C115.812 138.546 116.026 137.719 116.092 137.52C116.356 136.229 116.504 134.954 116.389 133.795C116.059 130.319 114.199 125.303 113.902 122.886C113.589 120.452 116.142 108.632 115.977 104.973C115.812 101.331 115.22 97.5236 114.544 95.9012C113.869 94.2788 112.14 92.8054 112.14 92.8054L103.61 98.5831C103.61 98.5831 103.61 99.4439 103.61 100.851H103.577Z" fill="#3B3C4A"/>
<path d="M103.577 100.851C103.577 105.933 103.643 118.002 104.401 121.329C105.372 125.567 107.019 128.448 107.052 129.822C107.085 131.196 107.365 134.407 108.073 137.487C108.764 140.582 108.764 142.486 108.764 143.927V147.022C108.764 147.022 108.731 147.221 108.764 147.502C108.83 147.966 109.143 148.694 110.279 149.042C111.448 139.705 109.423 131.08 108.567 128.961C105.191 120.601 105.29 115.171 105.109 111.512C104.944 107.854 106.162 105.105 105.487 103.483C105.043 102.407 104.154 101.397 103.577 100.851Z" fill="#282936"/>
<path d="M108.765 149.092C108.765 149.092 108.32 149.009 108.007 148.959C107.694 148.91 106.887 147.023 105.405 146.94C103.923 146.857 102.491 147.552 102.886 148.877C103.281 150.201 104.549 151.708 105.718 152.138C106.887 152.568 107.497 152.651 107.793 153.082C108.09 153.512 109.769 156.624 111.647 156.608C112.964 156.591 113.754 155.631 114.117 155.068C114.265 154.836 114.314 154.572 114.265 154.29L113.721 151.559C113.705 151.41 113.524 151.36 113.425 151.459C112.997 151.906 112.042 152.75 111.268 152.75C110.197 152.75 108.666 151.393 108.666 151.393L108.748 150.218L108.781 149.092H108.765Z" fill="#D6EAF7"/>
<path d="M108.765 148.248C108.765 148.248 108.32 148.165 108.007 148.115C107.694 148.066 106.887 147.023 105.405 146.94C103.923 146.857 102.804 147.42 103.199 148.744C103.594 150.069 104.549 150.88 105.718 151.294C106.887 151.724 107.497 151.807 107.793 152.237C108.09 152.668 109.769 155.78 111.647 155.764C112.964 155.747 113.754 154.787 114.117 154.224C114.265 153.992 114.314 153.727 114.265 153.446L113.721 150.714C113.705 150.565 113.524 150.516 113.425 150.615C112.997 151.062 112.042 151.906 111.268 151.906C110.197 151.906 108.666 150.549 108.666 150.549L108.748 149.373L108.781 148.248H108.765Z" fill="#3ADCC9"/>
<path d="M108.007 108.301C107.118 110.949 106.327 110.221 105.669 112.075C105.01 113.929 104.039 129.838 104.434 131.808C104.796 133.646 105.471 135.848 105.636 138.099C105.636 138.265 105.652 138.414 105.669 138.546C105.669 138.629 105.669 138.728 105.669 138.828C105.669 139.291 105.636 139.771 105.586 140.268C105.339 142.404 104.598 144.821 104.22 146.906C103.973 148.231 103.973 149.903 104.022 151.26C104.088 152.651 104.22 153.71 104.22 153.71C104.22 153.71 103.544 154.952 103.594 154.952C103.594 154.952 101.404 154.886 100.136 154.439C99.0489 154.058 98.7031 152.419 98.9337 151.509C98.9831 151.343 99.5594 150.532 99.5923 150.449C99.7735 149.919 97.7481 143.496 96.9906 140.467C96.8753 139.987 96.7929 139.622 96.7435 139.374C96.4142 137.52 95.6895 134.209 96.0683 132.289C96.4635 130.368 90.6506 114.856 91.4246 106.877C92.215 98.8974 94.998 95.8513 94.998 95.8513H95.3932L107.2 96.1162C107.2 96.1162 108.929 105.635 108.04 108.284L108.007 108.301Z" fill="#FFCBAD"/>
<path d="M99.4114 151.244C99.4114 151.244 98.0281 151.525 97.0566 151.409C96.085 151.293 95.1134 151.012 94.1418 150.697C93.1702 150.383 91.293 150.466 90.6837 151.161C90.0744 151.856 91.3918 155.068 93.1538 156.045C94.9158 157.038 97.8305 157.054 98.2751 157.27C98.7198 157.501 100.959 159.091 102.837 158.809C104.714 158.511 105.159 157.7 105.175 157.17C105.191 156.641 105.175 155.068 105.01 155.018C104.846 154.969 104.483 152.965 104.253 153.181C104.022 153.396 103.133 156.227 99.8889 154.058C98.4068 153.065 99.4114 151.244 99.4114 151.244Z" fill="#D6EAF7"/>
<path d="M99.4114 150.565C99.4114 150.565 98.0281 150.847 97.0566 150.731C96.085 150.615 95.1134 150.333 94.1418 150.019C93.1702 149.704 91.293 149.787 90.6837 150.482C90.0744 151.178 91.3918 154.389 93.1538 155.366C94.9158 156.359 97.8305 156.376 98.2751 156.591C98.7198 156.823 100.959 158.412 102.837 158.131C104.714 157.833 105.159 157.022 105.175 156.492C105.191 155.962 105.175 154.389 105.01 154.34C104.846 154.29 104.483 152.287 104.253 152.502C104.022 152.717 103.133 155.548 99.8889 153.38C98.4068 152.386 99.4114 150.565 99.4114 150.565Z" fill="#3ADCC9"/>
<path d="M108.007 108.301C107.118 110.949 106.327 110.221 105.669 112.075C105.01 113.929 104.038 129.838 104.434 131.808C104.796 133.646 105.471 135.848 105.636 138.099C105.636 138.314 105.652 138.463 105.669 138.546C105.669 138.612 105.669 138.712 105.669 138.828C105.669 139.159 105.636 139.655 105.586 140.268C105.273 143.827 104.302 151.128 104.302 151.128C104.302 151.128 104.203 151.178 104.022 151.26C103.544 151.459 102.458 151.823 100.959 151.74C100.333 151.707 99.8557 151.558 99.4934 151.376C98.6536 150.946 98.456 150.284 98.456 150.284L97.7314 144.539L96.9739 140.467C96.8587 139.987 96.7763 139.622 96.7269 139.374C96.3975 137.52 95.673 134.209 96.0518 132.289C96.447 130.368 90.634 114.856 91.408 106.877C92.1984 98.8974 94.9814 95.8513 94.9814 95.8513H95.3766L107.184 96.1162C107.184 96.1162 108.913 105.635 108.023 108.284L108.007 108.301Z" fill="#3B3C4A"/>
<path d="M93.9775 89.9744C94.2574 91.1994 94.5373 93.0039 94.5373 94.08C94.5373 95.156 92.9565 99.7086 92.9565 99.7086C92.9565 99.7086 94.0433 101.596 97.3533 102.374C98.4566 102.639 99.8069 102.788 101.47 102.688C108.057 102.275 114.166 95.156 114.166 95.156C114.166 95.156 113.639 93.8482 112.553 91.3815C109.885 85.3556 113.343 80.8195 113.343 77.939C113.343 75.0585 112.437 71.0687 110.494 69.4464C108.535 67.824 106.888 68.7676 106.888 68.7676C106.888 68.7676 106.246 68.6517 106.064 67.4267L105.9 66.1851L99.8069 68.1054C99.8069 68.1054 100.367 71.4661 99.2799 72.3269C99.0988 72.4759 98.8189 72.6083 98.4895 72.7408C97.7649 73.0388 96.8098 73.3036 95.9041 73.7506C94.9655 74.2142 94.0762 74.8432 93.5987 75.8365C92.5118 78.2204 90.7663 81.4321 91.7708 82.9882C92.7753 84.5775 93.4505 85.3556 93.5658 86.7131C93.6646 88.054 93.6646 88.7328 93.961 89.9744H93.9775Z" fill="#3ADCC9"/>
<path d="M93.9782 89.9742C94.2581 91.1993 94.538 93.0038 94.538 94.0798C94.538 95.1559 92.9572 99.7085 92.9572 99.7085C92.9572 99.7085 94.044 101.596 97.354 102.374C99.0172 100.934 99.643 98.3841 98.4244 95.9836C97.1894 93.5666 96.3495 91.3152 96.3 89.5769C96.2342 87.8387 99.2148 85.4217 99.2148 82.5577C99.2148 79.6937 98.3091 75.704 96.366 74.065C96.2178 73.9491 96.086 73.8498 95.9378 73.7505C94.9992 74.214 94.1099 74.8431 93.6323 75.8364C92.5455 78.2203 90.8 81.4319 91.8045 82.9881C92.809 84.5774 93.4841 85.3554 93.5994 86.7129C93.6982 88.0539 93.6983 88.7326 93.9947 89.9742H93.9782Z" fill="#3AB1C9"/>
<path d="M81.3302 76.9623C81.3302 76.9623 84.426 75.6545 85.7763 75.4393C87.1266 75.2241 89.5474 75.2241 90.8154 74.8433C92.0669 74.4626 96.052 72.4429 97.6988 73.4527C99.329 74.4626 99.2466 79.0814 98.3739 80.9024C97.4846 82.7234 92.9232 81.1673 90.4531 81.548C87.983 81.9288 78.8765 81.7136 78.2013 80.8693C77.5262 80.025 76.2252 75.1413 75.9288 72.6912C75.6324 70.2411 75.4184 66.7149 75.1714 66.1851C74.9244 65.6554 74.842 64.7283 74.7926 64.182C74.7432 63.6357 73.4423 61.3511 73.3929 61.169C73.327 60.9869 73.7222 61.5663 73.3269 60.871C72.9317 60.1757 72.1578 59.0169 72.1578 59.0169L71.6309 57.7753V56.7489C71.6309 56.7489 72.273 56.0039 72.306 55.8053C72.3224 55.59 72.3225 54.3484 72.3225 54.3484C72.3225 54.3484 72.6518 53.0406 72.9153 53.1234C73.1623 53.2061 73.1623 53.2889 73.1623 53.6366C73.1623 53.9842 73.0635 54.6299 73.0635 54.6299L73.2446 55.7556L74.1175 56.9806L73.5246 55.1596L73.574 53.3386C73.574 53.3386 74.0186 52.0804 74.3151 52.097C74.6115 52.1135 74.9408 52.3287 74.7761 52.7923C74.6114 53.2558 74.4632 53.6862 74.4632 53.6862L74.6279 55.3252L75.5336 56.7985L75.1549 54.514L75.4019 53.024C75.4019 53.024 76.0935 52.1135 76.1594 51.948C76.2253 51.7824 76.851 51.8983 76.851 52.2791C76.851 52.6598 76.4393 53.3386 76.4393 53.3386V54.9279C76.4393 54.9279 77.5591 58.2223 78.119 58.2554C78.6789 58.305 78.9589 57.378 78.9589 57.378V56.1529C78.9589 56.1529 78.6624 55.6232 78.8106 55.0934C78.9588 54.5636 79.14 54.4643 79.14 54.4643C79.14 54.4643 79.5681 54.3319 79.6505 54.7623C79.7328 55.1762 79.6999 56.1364 79.9634 56.3185C80.2433 56.5006 79.8646 59.0003 79.8646 59.0003C79.8646 59.0003 79.4693 60.1757 79.4693 60.2585C79.4693 60.3413 78.3825 62.2285 78.2508 62.7748C77.7403 64.9104 79.914 70.0259 80.1939 71.2675C80.4739 72.5091 81.3467 76.9789 81.3467 76.9789L81.3302 76.9623Z" fill="#FFCBAD"/>
<path d="M107.744 70.0923C107.529 70.771 106.525 72.2775 102.968 72.7907C99.3945 73.3039 98.6535 72.7907 98.6535 72.7907L98.5054 72.7411C98.8347 72.6086 99.0982 72.4762 99.2958 72.3272C100.366 71.4829 99.8063 68.1057 99.8063 68.1057L105.899 66.2019L106.064 67.4435C106.229 68.6851 106.871 68.801 106.871 68.801C106.871 68.801 107.958 69.4301 107.744 70.1088V70.0923Z" fill="#FFCBAD"/>
<path d="M98.5559 57.7089L96.234 58.3215C96.234 58.3215 95.7894 59.7617 95.8553 60.2087C95.9212 60.6391 96.2175 60.9537 96.2175 61.2186C96.2175 61.4834 95.9211 62.0132 95.9705 62.8409C96.0199 63.6687 96.3822 65.1752 97.0903 65.9864C97.782 66.781 98.2101 67.3439 98.2595 67.5094C98.3089 67.675 101.586 68.4861 103.2 67.7412C104.83 66.9962 104.451 61.5662 104.451 61.5662L98.5559 57.6924V57.7089Z" fill="#FFCBAD"/>
<path d="M97.2713 55.9211C97.2713 55.9211 97.2054 56.0204 97.0902 56.1694C96.695 56.7654 95.4763 58.3877 96.5467 59.381C98.3417 61.0696 97.8641 64.2978 97.8641 64.2978C97.8641 64.2978 98.1111 63.6025 98.7533 63.5694C99.3955 63.5197 99.7578 65.0594 99.6096 65.6553C99.2803 66.9963 98.9839 66.9632 98.9839 66.9632C98.9839 66.9632 95.1305 68.9332 95.361 69.0822C97.2383 70.3403 103.595 75.6876 108.716 70.539C110.659 68.5855 109.638 63.3211 109.523 59.7784C109.391 56.2356 104.863 54.5801 102.129 54.2821C99.3791 53.9842 97.2878 55.9211 97.2878 55.9211H97.2713Z" fill="#282936"/>
<path d="M1.95629 212.985C1.95629 211.412 2.30742 210.008 3.00969 208.771C3.72722 207.519 4.69665 206.55 5.91799 205.863C7.15459 205.161 8.53622 204.809 10.0629 204.809C11.8491 204.809 13.4139 205.267 14.7574 206.183C16.1009 207.099 17.0398 208.367 17.5741 209.985H13.8872C13.5208 209.222 13.0017 208.649 12.33 208.267C11.6735 207.886 10.9102 207.695 10.04 207.695C9.10872 207.695 8.27669 207.916 7.54389 208.359C6.82635 208.786 6.26149 209.397 5.84929 210.191C5.45235 210.985 5.25389 211.916 5.25389 212.985C5.25389 214.038 5.45235 214.969 5.84929 215.779C6.26149 216.572 6.82635 217.191 7.54389 217.633C8.27669 218.061 9.10872 218.275 10.04 218.275C10.9102 218.275 11.6735 218.084 12.33 217.702C13.0017 217.305 13.5208 216.725 13.8872 215.962H17.5741C17.0398 217.595 16.1009 218.87 14.7574 219.786C13.4292 220.687 11.8644 221.137 10.0629 221.137C8.53622 221.137 7.15459 220.794 5.91799 220.107C4.69665 219.404 3.72722 218.435 3.00969 217.198C2.30742 215.962 1.95629 214.557 1.95629 212.985ZM25.9458 221.206C24.7245 221.206 23.6253 220.939 22.6482 220.404C21.6712 219.855 20.9002 219.084 20.3353 218.091C19.7857 217.099 19.5109 215.954 19.5109 214.656C19.5109 213.359 19.7934 212.214 20.3582 211.221C20.9384 210.229 21.7246 209.466 22.7169 208.931C23.7093 208.382 24.8161 208.107 26.0374 208.107C27.2588 208.107 28.3656 208.382 29.3579 208.931C30.3503 209.466 31.1289 210.229 31.6937 211.221C32.2739 212.214 32.5639 213.359 32.5639 214.656C32.5639 215.954 32.2662 217.099 31.6708 218.091C31.0907 219.084 30.2968 219.855 29.2892 220.404C28.2969 220.939 27.1824 221.206 25.9458 221.206ZM25.9458 218.412C26.526 218.412 27.0679 218.275 27.5717 218C28.0908 217.71 28.503 217.282 28.8083 216.717C29.1137 216.153 29.2663 215.466 29.2663 214.656C29.2663 213.45 28.9457 212.527 28.3045 211.886C27.6786 211.229 26.9076 210.901 25.9916 210.901C25.0756 210.901 24.3047 211.229 23.6787 211.886C23.0681 212.527 22.7627 213.45 22.7627 214.656C22.7627 215.863 23.0604 216.794 23.6558 217.45C24.2665 218.091 25.0298 218.412 25.9458 218.412ZM41.9459 208.13C43.4573 208.13 44.6787 208.611 45.6099 209.573C46.5412 210.519 47.0068 211.847 47.0068 213.557V221H43.8008V213.992C43.8008 212.985 43.5489 212.214 43.0451 211.679C42.5413 211.13 41.8543 210.855 40.9841 210.855C40.0987 210.855 39.3964 211.13 38.8773 211.679C38.3735 212.214 38.1216 212.985 38.1216 213.992V221H34.9156V208.313H38.1216V209.893C38.5491 209.344 39.0911 208.916 39.7475 208.611C40.4193 208.29 41.1521 208.13 41.9459 208.13ZM54.9104 221.206C53.8723 221.206 52.941 221.023 52.1166 220.656C51.2922 220.275 50.6357 219.763 50.1472 219.122C49.6739 218.481 49.4144 217.771 49.3686 216.992H52.5975C52.6586 217.481 52.8952 217.885 53.3074 218.206C53.7349 218.527 54.2616 218.687 54.8875 218.687C55.4982 218.687 55.9714 218.565 56.3073 218.32C56.6584 218.076 56.834 217.763 56.834 217.382C56.834 216.969 56.6203 216.664 56.1928 216.466C55.7806 216.252 55.1165 216.023 54.2005 215.779C53.254 215.55 52.4754 215.313 51.8647 215.069C51.2693 214.824 50.7502 214.45 50.3075 213.947C49.88 213.443 49.6663 212.763 49.6663 211.908C49.6663 211.206 49.8648 210.565 50.2617 209.985C50.6739 209.405 51.254 208.947 52.0021 208.611C52.7654 208.275 53.6585 208.107 54.6814 208.107C56.1928 208.107 57.3989 208.489 58.2996 209.252C59.2003 210 59.6965 211.015 59.7881 212.298H56.7195C56.6737 211.794 56.46 211.397 56.0783 211.107C55.7119 210.802 55.2157 210.649 54.5898 210.649C54.0097 210.649 53.5593 210.756 53.2387 210.97C52.9334 211.183 52.7807 211.481 52.7807 211.863C52.7807 212.29 52.9944 212.618 53.4219 212.847C53.8494 213.061 54.5135 213.282 55.4142 213.511C56.3302 213.74 57.0859 213.977 57.6813 214.221C58.2767 214.466 58.7881 214.847 59.2156 215.366C59.6583 215.87 59.8873 216.542 59.9026 217.382C59.9026 218.114 59.6965 218.771 59.2843 219.351C58.8874 219.931 58.3072 220.389 57.5439 220.725C56.7958 221.046 55.918 221.206 54.9104 221.206ZM74.511 208.313V221H71.2821V219.397C70.8699 219.946 70.3279 220.381 69.6562 220.702C68.9997 221.007 68.2822 221.16 67.5036 221.16C66.5113 221.16 65.6334 220.954 64.8701 220.542C64.1068 220.114 63.5037 219.496 63.061 218.687C62.6335 217.862 62.4198 216.885 62.4198 215.756V208.313H65.6258V215.298C65.6258 216.305 65.8777 217.084 66.3815 217.633C66.8853 218.168 67.5723 218.435 68.4425 218.435C69.328 218.435 70.0226 218.168 70.5264 217.633C71.0302 217.084 71.2821 216.305 71.2821 215.298V208.313H74.511ZM93.4294 208.13C94.9866 208.13 96.2385 208.611 97.185 209.573C98.1468 210.519 98.6277 211.847 98.6277 213.557V221H95.4217V213.992C95.4217 213 95.1698 212.244 94.666 211.725C94.1622 211.191 93.4752 210.924 92.605 210.924C91.7348 210.924 91.0402 211.191 90.5211 211.725C90.0173 212.244 89.7654 213 89.7654 213.992V221H86.5594V213.992C86.5594 213 86.3075 212.244 85.8037 211.725C85.2999 211.191 84.6129 210.924 83.7427 210.924C82.8573 210.924 82.155 211.191 81.6359 211.725C81.1321 212.244 80.8802 213 80.8802 213.992V221H77.6742V208.313H80.8802V209.847C81.2924 209.313 81.8191 208.893 82.4603 208.588C83.1168 208.283 83.8343 208.13 84.6129 208.13C85.6053 208.13 86.4907 208.344 87.2693 208.771C88.0479 209.183 88.651 209.779 89.0784 210.557C89.4906 209.825 90.086 209.237 90.8646 208.794C91.6585 208.351 92.5134 208.13 93.4294 208.13ZM103.296 206.802C102.731 206.802 102.258 206.626 101.876 206.275C101.51 205.909 101.327 205.458 101.327 204.924C101.327 204.39 101.51 203.947 101.876 203.596C102.258 203.229 102.731 203.046 103.296 203.046C103.861 203.046 104.326 203.229 104.693 203.596C105.075 203.947 105.265 204.39 105.265 204.924C105.265 205.458 105.075 205.909 104.693 206.275C104.326 206.626 103.861 206.802 103.296 206.802ZM104.876 208.313V221H101.67V208.313H104.876ZM107.219 214.611C107.219 213.328 107.471 212.191 107.975 211.199C108.494 210.206 109.196 209.443 110.082 208.909C110.967 208.374 111.952 208.107 113.036 208.107C113.86 208.107 114.646 208.29 115.394 208.657C116.143 209.008 116.738 209.481 117.181 210.076V204.054H120.432V221H117.181V219.122C116.784 219.748 116.227 220.252 115.509 220.633C114.791 221.015 113.959 221.206 113.013 221.206C111.944 221.206 110.967 220.931 110.082 220.381C109.196 219.832 108.494 219.061 107.975 218.069C107.471 217.061 107.219 215.908 107.219 214.611ZM117.204 214.656C117.204 213.878 117.051 213.214 116.746 212.664C116.44 212.099 116.028 211.672 115.509 211.382C114.99 211.076 114.433 210.924 113.837 210.924C113.242 210.924 112.692 211.069 112.188 211.359C111.685 211.649 111.272 212.076 110.952 212.641C110.647 213.191 110.494 213.847 110.494 214.611C110.494 215.374 110.647 216.046 110.952 216.626C111.272 217.191 111.685 217.626 112.188 217.931C112.708 218.236 113.257 218.389 113.837 218.389C114.433 218.389 114.99 218.244 115.509 217.954C116.028 217.649 116.44 217.221 116.746 216.672C117.051 216.107 117.204 215.435 117.204 214.656ZM129.197 221.206C127.976 221.206 126.877 220.939 125.899 220.404C124.922 219.855 124.151 219.084 123.587 218.091C123.037 217.099 122.762 215.954 122.762 214.656C122.762 213.359 123.045 212.214 123.609 211.221C124.19 210.229 124.976 209.466 125.968 208.931C126.961 208.382 128.067 208.107 129.289 208.107C130.51 208.107 131.617 208.382 132.609 208.931C133.602 209.466 134.38 210.229 134.945 211.221C135.525 212.214 135.815 213.359 135.815 214.656C135.815 215.954 135.517 217.099 134.922 218.091C134.342 219.084 133.548 219.855 132.54 220.404C131.548 220.939 130.434 221.206 129.197 221.206ZM129.197 218.412C129.777 218.412 130.319 218.275 130.823 218C131.342 217.71 131.754 217.282 132.06 216.717C132.365 216.153 132.518 215.466 132.518 214.656C132.518 213.45 132.197 212.527 131.556 211.886C130.93 211.229 130.159 210.901 129.243 210.901C128.327 210.901 127.556 211.229 126.93 211.886C126.319 212.527 126.014 213.45 126.014 214.656C126.014 215.863 126.312 216.794 126.907 217.45C127.518 218.091 128.281 218.412 129.197 218.412ZM141.373 210.283C141.785 209.611 142.319 209.084 142.976 208.702C143.648 208.321 144.411 208.13 145.266 208.13V211.496H144.419C143.411 211.496 142.648 211.733 142.129 212.206C141.625 212.679 141.373 213.504 141.373 214.679V221H138.167V208.313H141.373V210.283Z" fill="white"/>
</g>
<defs>
<linearGradient id="paint0_linear_313_10848" x1="117.592" y1="154.969" x2="87.6213" y2="154.969" gradientUnits="userSpaceOnUse">
<stop stop-color="#FDFDFD"/>
<stop offset="1" stop-color="#BAC6EB"/>
</linearGradient>
<linearGradient id="paint1_linear_313_10848" x1="92.709" y1="72.6583" x2="29.9023" y2="72.6583" gradientUnits="userSpaceOnUse">
<stop offset="0.59" stop-color="#FDFDFD"/>
<stop offset="1" stop-color="#BAC6EB"/>
</linearGradient>
<linearGradient id="paint2_linear_313_10848" x1="67.9751" y1="-20.9758" x2="60.9021" y2="165.545" gradientUnits="userSpaceOnUse">
<stop stop-color="#FDFDFD"/>
<stop offset="1" stop-color="#BAC6EB"/>
</linearGradient>
<linearGradient id="paint3_linear_313_10848" x1="95.3642" y1="7.95969" x2="109.027" y2="150.79" gradientUnits="userSpaceOnUse">
<stop stop-color="#7EDDDE"/>
<stop offset="0.15" stop-color="#7BD9DA"/>
<stop offset="0.28" stop-color="#75CECF"/>
<stop offset="0.41" stop-color="#6BBBBC"/>
<stop offset="0.54" stop-color="#5CA2A2"/>
<stop offset="0.67" stop-color="#498081"/>
<stop offset="0.79" stop-color="#315757"/>
<stop offset="0.91" stop-color="#162728"/>
<stop offset="0.99"/>
</linearGradient>
<clipPath id="clip0_313_10848">
<rect width="147" height="225.163" fill="white" transform="translate(0 0.836914)"/>
</clipPath>
</defs>
</svg>
