<svg width="179" height="262" viewBox="0 0 179 262" fill="none" xmlns="http://www.w3.org/2000/svg">
<g clip-path="url(#clip0_326_24935)">
<path d="M32.3558 242.939C32.3558 241.366 32.707 239.962 33.4092 238.725C34.1268 237.473 35.0962 236.504 36.3175 235.817C37.5541 235.114 38.9358 234.763 40.4624 234.763C42.2486 234.763 43.8135 235.221 45.1569 236.137C46.5004 237.053 47.4393 238.32 47.9736 239.939H44.2867C43.9203 239.175 43.4013 238.603 42.7295 238.221C42.0731 237.84 41.3097 237.649 40.4395 237.649C39.5083 237.649 38.6762 237.87 37.9434 238.313C37.2259 238.74 36.661 239.351 36.2488 240.145C35.8519 240.939 35.6534 241.87 35.6534 242.939C35.6534 243.992 35.8519 244.923 36.2488 245.732C36.661 246.526 37.2259 247.145 37.9434 247.587C38.6762 248.015 39.5083 248.229 40.4395 248.229C41.3097 248.229 42.0731 248.038 42.7295 247.656C43.4013 247.259 43.9203 246.679 44.2867 245.916H47.9736C47.4393 247.549 46.5004 248.824 45.1569 249.74C43.8287 250.641 42.2639 251.091 40.4624 251.091C38.9358 251.091 37.5541 250.748 36.3175 250.061C35.0962 249.358 34.1268 248.389 33.4092 247.152C32.707 245.916 32.3558 244.511 32.3558 242.939ZM56.3454 251.16C55.124 251.16 54.0248 250.893 53.0478 250.358C52.0707 249.809 51.2997 249.038 50.7349 248.045C50.1853 247.053 49.9105 245.908 49.9105 244.61C49.9105 243.313 50.1929 242.168 50.7578 241.175C51.3379 240.183 52.1241 239.42 53.1165 238.885C54.1088 238.336 55.2156 238.061 56.437 238.061C57.6583 238.061 58.7651 238.336 59.7575 238.885C60.7498 239.42 61.5284 240.183 62.0933 241.175C62.6734 242.168 62.9635 243.313 62.9635 244.61C62.9635 245.908 62.6658 247.053 62.0704 248.045C61.4902 249.038 60.6964 249.809 59.6888 250.358C58.6964 250.893 57.582 251.16 56.3454 251.16ZM56.3454 248.366C56.9255 248.366 57.4675 248.229 57.9713 247.954C58.4903 247.664 58.9025 247.236 59.2079 246.671C59.5132 246.106 59.6659 245.419 59.6659 244.61C59.6659 243.404 59.3453 242.481 58.7041 241.839C58.0781 241.183 57.3072 240.855 56.3912 240.855C55.4752 240.855 54.7042 241.183 54.0783 241.839C53.4676 242.481 53.1623 243.404 53.1623 244.61C53.1623 245.816 53.46 246.748 54.0554 247.404C54.666 248.045 55.4294 248.366 56.3454 248.366ZM72.3455 238.084C73.8569 238.084 75.0782 238.565 76.0095 239.527C76.9408 240.473 77.4064 241.801 77.4064 243.511V250.954H74.2004V243.946C74.2004 242.939 73.9485 242.168 73.4447 241.633C72.9409 241.084 72.2539 240.809 71.3837 240.809C70.4982 240.809 69.796 241.084 69.2769 241.633C68.7731 242.168 68.5212 242.939 68.5212 243.946V250.954H65.3152V238.267H68.5212V239.847C68.9487 239.298 69.4906 238.87 70.1471 238.565C70.8188 238.244 71.5516 238.084 72.3455 238.084ZM84.1878 240.901V247.038C84.1878 247.465 84.2871 247.778 84.4855 247.977C84.6993 248.16 85.0504 248.251 85.5389 248.251H87.0274V250.954H85.0122C82.31 250.954 80.9589 249.641 80.9589 247.015V240.901H79.4475V238.267H80.9589V235.13H84.1878V238.267H87.0274V240.901H84.1878ZM92.5394 240.236C92.9516 239.565 93.4859 239.038 94.1424 238.656C94.8141 238.275 95.5774 238.084 96.4324 238.084V241.45H95.5851C94.5775 241.45 93.8141 241.687 93.2951 242.16C92.7913 242.633 92.5394 243.458 92.5394 244.633V250.954H89.3334V238.267H92.5394V240.236ZM97.7674 244.565C97.7674 243.282 98.0193 242.145 98.5231 241.152C99.0421 240.16 99.7368 239.397 100.607 238.862C101.492 238.328 102.477 238.061 103.561 238.061C104.508 238.061 105.332 238.252 106.034 238.633C106.752 239.015 107.324 239.496 107.752 240.076V238.267H110.981V250.954H107.752V249.099C107.34 249.694 106.767 250.19 106.034 250.587C105.317 250.969 104.485 251.16 103.538 251.16C102.469 251.16 101.492 250.885 100.607 250.335C99.7368 249.786 99.0421 249.015 98.5231 248.022C98.0193 247.015 97.7674 245.862 97.7674 244.565ZM107.752 244.61C107.752 243.832 107.599 243.168 107.294 242.618C106.988 242.053 106.576 241.626 106.057 241.336C105.538 241.03 104.981 240.878 104.385 240.878C103.79 240.878 103.24 241.023 102.737 241.313C102.233 241.603 101.821 242.03 101.5 242.595C101.195 243.145 101.042 243.801 101.042 244.565C101.042 245.328 101.195 246 101.5 246.58C101.821 247.145 102.233 247.58 102.737 247.885C103.256 248.19 103.805 248.343 104.385 248.343C104.981 248.343 105.538 248.198 106.057 247.908C106.576 247.603 106.988 247.175 107.294 246.626C107.599 246.061 107.752 245.389 107.752 244.61ZM117.845 240.901V247.038C117.845 247.465 117.944 247.778 118.142 247.977C118.356 248.16 118.707 248.251 119.196 248.251H120.684V250.954H118.669C115.967 250.954 114.616 249.641 114.616 247.015V240.901H113.104V238.267H114.616V235.13H117.845V238.267H120.684V240.901H117.845ZM128.624 251.16C127.402 251.16 126.303 250.893 125.326 250.358C124.349 249.809 123.578 249.038 123.013 248.045C122.463 247.053 122.189 245.908 122.189 244.61C122.189 243.313 122.471 242.168 123.036 241.175C123.616 240.183 124.402 239.42 125.395 238.885C126.387 238.336 127.494 238.061 128.715 238.061C129.936 238.061 131.043 238.336 132.036 238.885C133.028 239.42 133.807 240.183 134.371 241.175C134.952 242.168 135.242 243.313 135.242 244.61C135.242 245.908 134.944 247.053 134.349 248.045C133.768 249.038 132.975 249.809 131.967 250.358C130.975 250.893 129.86 251.16 128.624 251.16ZM128.624 248.366C129.204 248.366 129.746 248.229 130.249 247.954C130.768 247.664 131.181 247.236 131.486 246.671C131.791 246.106 131.944 245.419 131.944 244.61C131.944 243.404 131.623 242.481 130.982 241.839C130.356 241.183 129.585 240.855 128.669 240.855C127.753 240.855 126.982 241.183 126.356 241.839C125.746 242.481 125.44 243.404 125.44 244.61C125.44 245.816 125.738 246.748 126.334 247.404C126.944 248.045 127.708 248.366 128.624 248.366ZM142.448 251.16C141.41 251.16 140.479 250.977 139.654 250.61C138.83 250.228 138.173 249.717 137.685 249.076C137.212 248.435 136.952 247.725 136.906 246.946H140.135C140.196 247.435 140.433 247.839 140.845 248.16C141.273 248.48 141.799 248.641 142.425 248.641C143.036 248.641 143.509 248.519 143.845 248.274C144.196 248.03 144.372 247.717 144.372 247.335C144.372 246.923 144.158 246.618 143.731 246.419C143.318 246.206 142.654 245.977 141.738 245.732C140.792 245.503 140.013 245.267 139.402 245.023C138.807 244.778 138.288 244.404 137.845 243.9C137.418 243.397 137.204 242.717 137.204 241.862C137.204 241.16 137.402 240.519 137.799 239.939C138.212 239.359 138.792 238.901 139.54 238.565C140.303 238.229 141.196 238.061 142.219 238.061C143.731 238.061 144.937 238.443 145.837 239.206C146.738 239.954 147.234 240.969 147.326 242.252H144.257C144.211 241.748 143.998 241.351 143.616 241.061C143.25 240.755 142.753 240.603 142.128 240.603C141.547 240.603 141.097 240.71 140.776 240.923C140.471 241.137 140.318 241.435 140.318 241.817C140.318 242.244 140.532 242.572 140.96 242.801C141.387 243.015 142.051 243.236 142.952 243.465C143.868 243.694 144.624 243.931 145.219 244.175C145.814 244.419 146.326 244.801 146.753 245.32C147.196 245.824 147.425 246.496 147.44 247.335C147.44 248.068 147.234 248.725 146.822 249.305C146.425 249.885 145.845 250.343 145.082 250.679C144.334 250.999 143.456 251.16 142.448 251.16Z" fill="white"/>
<path d="M53.2344 53.6487L50.6963 53.3605C56.4721 49.1202 65.7298 48.9967 71.3755 53.1135L68.8536 53.4017C64.656 50.3347 57.6436 50.3964 53.2344 53.6487Z" fill="#2E253A"/>
<path d="M7.57913 87.2005L5.04102 86.9123L50.6947 53.3398L53.2328 53.6486L7.57913 87.2005Z" fill="#292135"/>
<path d="M0.599751 101.465V94.6519C0.599751 97.3484 1.9827 100.024 4.76487 102.062V108.875C1.96643 106.838 0.583481 104.162 0.599751 101.465Z" fill="#1F172C"/>
<path d="M7.30393 98.6655L4.7821 102.082C-0.863596 97.9656 -0.73343 91.1729 5.04243 86.9326L7.58055 87.2208C3.1551 90.4731 3.09 95.5985 7.30393 98.6655Z" fill="#292135"/>
<path d="M68.8506 53.4019L71.3724 53.1138L170.392 125.446L167.87 125.734L68.8506 53.4019Z" fill="#292135"/>
<path d="M167.872 125.733L170.394 125.445C176.04 129.562 175.91 136.354 170.134 140.595L167.596 137.178C172.005 133.925 172.086 128.8 167.872 125.733Z" fill="#292135"/>
<path d="M174.542 132.855V139.669C174.525 142.448 173.045 145.247 170.116 147.408V140.595C173.061 138.434 174.542 135.634 174.542 132.855Z" fill="#1F172C"/>
<path d="M167.595 137.178L170.133 140.595L124.48 174.168L121.941 170.751L167.595 137.178Z" fill="#292135"/>
<path d="M170.135 140.596L170.119 147.409L124.465 180.961L124.481 174.168L170.135 140.596Z" fill="#1F172C"/>
<path d="M106.322 170.977L103.801 174.394L4.78125 102.062L7.30308 98.666L106.322 170.977Z" fill="#292135"/>
<path d="M103.802 174.394L103.786 181.207L4.7666 108.875L4.78289 102.062L103.802 174.394Z" fill="#1F172C"/>
<path d="M167.872 125.734C172.086 128.801 172.005 133.926 167.596 137.178L121.942 170.751C117.517 174.003 110.52 174.065 106.307 170.998L7.28721 98.6656C3.07327 95.5986 3.15459 90.4732 7.56377 87.2209L53.2174 53.6485C57.6266 50.3962 64.639 50.3344 68.8367 53.4014L167.856 125.734H167.872Z" fill="#2E253A"/>
<path d="M121.941 170.751L124.479 174.168C118.687 178.429 109.429 178.532 103.8 174.415L106.322 170.998C110.519 174.065 117.532 174.003 121.957 170.751H121.941Z" fill="#292135"/>
<path d="M124.48 174.168V180.981C118.671 185.242 109.414 185.345 103.784 181.228V174.415C109.446 178.532 118.704 178.429 124.48 174.168Z" fill="#1F172C"/>
<path d="M42.9981 60.9354L42.1357 59.9062L46.3822 60.7296L45.8616 60.1121L42.9981 60.9354Z" fill="#247BF8"/>
<path d="M43.7657 60.935V62.9111C43.7657 62.2318 43.5216 61.5526 43.001 60.935V58.959C43.5216 59.5765 43.7657 60.2558 43.7657 60.935Z" fill="#3AB1C9"/>
<path d="M18.8381 77.0317L20.2536 77.6493L18.5127 80.2223L19.375 80.5928L18.8381 77.0317Z" fill="#247BF8"/>
<path d="M163.366 121.37C167.434 124.334 167.466 129.171 163.415 132.135L121.129 163.217C117.094 166.181 110.505 166.181 106.437 163.217L11.7946 94.0757C7.72709 91.1116 7.69455 86.2744 11.7458 83.3103L19.3764 77.6909L18.5304 77.3204C21.9145 78.823 26.2098 78.4319 28.9757 76.3941L44.6438 64.8671C47.4097 62.8293 47.9141 59.6799 45.8803 57.2098L46.4009 57.8274L54.0315 52.2079C58.0665 49.2438 64.6559 49.2438 68.7234 52.2079L163.366 121.349V121.37Z" fill="#3ADCC9"/>
<path d="M42.9981 58.9594V60.9354L42.1357 59.9062V57.9302L42.9981 58.9594Z" fill="#3AB1C9"/>
<path d="M5.35059 91.0908V89.1147C5.35059 91.7083 6.701 94.3019 9.41809 96.2986V98.2746C6.701 96.2986 5.35059 93.6844 5.35059 91.0908Z" fill="#3AB1C9"/>
<path d="M169.79 127.257V129.233C169.79 131.806 168.44 134.359 165.788 136.314V134.338C168.456 132.383 169.79 129.83 169.79 127.257Z" fill="#3AB1C9"/>
<path d="M165.791 134.338V136.314L123.521 167.396V165.42L165.791 134.338Z" fill="#3AB1C9"/>
<path d="M104.061 165.419V167.395L9.41797 98.2745V96.2778L104.061 165.419Z" fill="#3AB1C9"/>
<path d="M165.726 120.073L165.661 120.011L71.0995 50.9316C65.6978 47 56.9933 47 51.6242 50.9316L42.1388 57.9095L43.0011 58.9387C44.2539 60.4414 43.9285 62.3351 42.2527 63.5701L26.5847 75.0971C24.9088 76.3322 22.2894 76.5586 20.2556 75.6529L18.8401 75.0148L9.35472 81.9928C4.00188 85.9243 4.03444 92.3259 9.41981 96.2575L104.062 165.399C109.448 169.331 118.152 169.331 123.505 165.399L165.775 134.317C166.377 133.885 166.881 133.412 167.353 132.918C171.062 129.007 170.509 123.552 165.71 120.053L165.726 120.073ZM163.399 132.135L121.13 163.217C117.095 166.181 110.505 166.181 106.438 163.217L11.7952 94.0756C7.72772 91.1115 7.71145 86.2742 11.7464 83.3101L19.3771 77.7113V77.629C22.5822 78.7405 26.4382 78.2671 28.9601 76.4351L44.6444 64.8875C47.1988 63.0144 47.817 60.2149 46.3202 57.8478H46.3853L54.0159 52.2489C58.0509 49.2848 64.6403 49.2848 68.7078 52.2489L162.83 120.999L163.367 121.39C167.125 124.128 167.45 128.43 164.31 131.435C164.034 131.662 163.725 131.929 163.399 132.176V132.135Z" fill="#3ADCC9"/>
<path d="M123.519 165.42V167.396C118.167 171.328 109.446 171.328 104.061 167.396V165.42C109.446 169.352 118.167 169.352 123.519 165.42Z" fill="#3AB1C9"/>
<path d="M122.283 143.416C120.412 143.416 118.638 142.49 117.841 141.09C117.256 140.061 117.304 138.805 117.971 137.365C119.241 134.648 121.941 133.186 124.675 132.013C125.049 131.848 125.407 131.725 125.765 131.601C125.57 131.601 125.374 131.642 125.163 131.663L124.544 131.745C122.527 132.013 120.461 132.28 118.59 131.601C117.207 131.087 116.165 130.078 115.661 128.761C115.271 127.731 115.238 126.579 115.596 125.529C115.986 124.335 116.67 123.635 117.581 122.956C118.329 122.379 119.224 121.741 120.379 121.453C121.486 121.165 122.999 121.247 123.894 122.091L123.064 123.532C122.608 123.12 121.551 122.976 120.656 123.203C119.729 123.429 118.996 123.964 118.313 124.479C117.483 125.117 117.109 125.57 116.898 126.229C116.702 126.805 116.719 127.423 116.946 127.999C117.272 128.863 118.004 129.543 118.996 129.893C120.591 130.469 122.543 130.222 124.414 129.975L125.033 129.893C127.538 129.563 129.409 129.728 130.727 130.407C130.792 130.407 130.841 130.366 130.906 130.345C130.662 129.893 130.516 129.399 130.451 128.884C130.369 128.164 130.32 127.381 130.499 126.579C130.808 125.117 132.094 123.491 133.607 122.647C135.641 121.515 137.886 122.091 138.748 123.985C139.057 124.664 139.09 125.426 138.878 126.229C138.407 127.937 136.78 129.543 134.176 130.881C134.111 130.922 134.046 130.942 133.997 130.984C135.169 131.498 136.617 131.622 137.935 131.272C140.815 130.531 141.661 129.172 143.157 126.702C141.644 126.249 140.326 125.323 139.545 124.15C138.927 123.223 138.162 121.247 138.732 119.848C139.009 119.189 139.659 118.427 141.221 118.571C142.49 118.695 143.938 119.621 144.589 120.712C145.451 122.194 145.549 123.82 145.256 125.241C147.03 125.323 148.933 124.705 150.398 123.635L151.097 125.179C149.275 126.517 146.851 127.196 144.687 126.99C144.557 127.278 144.426 127.525 144.28 127.772C142.686 130.407 141.612 132.136 138.228 133.001C136.21 133.515 133.981 133.124 132.419 131.992C132.761 132.63 132.972 133.495 132.907 134.648C132.712 137.817 130.711 140.617 127.587 142.181C126.106 142.922 124.366 143.334 122.527 143.396C122.462 143.396 122.397 143.396 122.332 143.396L122.283 143.416ZM130.532 132.28C129.832 132.466 129.181 132.589 128.563 132.713C127.392 132.96 126.269 133.186 125.114 133.68C122.641 134.75 120.2 136.047 119.175 138.25C118.687 139.299 118.801 139.732 118.964 140.041C119.436 140.884 120.802 141.646 122.429 141.646C124.073 141.584 125.7 141.193 127.018 140.555C129.588 139.279 131.297 136.974 131.443 134.545C131.508 133.577 131.264 132.898 130.695 132.424C130.646 132.383 130.581 132.342 130.516 132.28H130.532ZM135.706 123.862C135.201 123.862 134.664 124.006 134.144 124.294C132.859 125.014 131.98 126.249 131.817 127.073C131.72 127.546 131.736 128.061 131.817 128.678C131.866 129.152 132.11 129.563 132.354 129.872C132.761 129.707 133.184 129.522 133.623 129.296C136.78 127.67 137.414 126.126 137.528 125.693C137.609 125.385 137.609 125.138 137.495 124.911C137.186 124.232 136.503 123.882 135.706 123.882V123.862ZM140.782 120.362C140.343 120.362 140.034 120.486 139.952 120.692C139.757 121.165 140.147 122.379 140.587 123.038C141.238 124.006 142.442 124.767 143.808 125.097C144.052 124.17 144.101 122.956 143.434 121.803C143.076 121.206 142.035 120.465 141.091 120.362C140.977 120.362 140.88 120.362 140.782 120.362Z" fill="white"/>
<path d="M157.96 115.072C155.78 118.365 153.6 121.638 151.42 124.931L157.261 115.751C157.554 115.566 157.798 115.339 157.96 115.092V115.072Z" fill="#353B4E"/>
<path d="M151.421 124.931L148.932 112.458C149.094 113.26 149.68 114.125 150.656 114.866C152.69 116.389 155.635 116.78 157.262 115.751L151.421 124.931Z" fill="#3D4456"/>
<path d="M164.047 96.4639C162.095 102.516 160.143 108.547 158.19 114.598C158.044 115.051 157.735 115.442 157.263 115.751L162.632 98.2135C163.364 97.7401 163.819 97.1431 164.047 96.4639Z" fill="#3D4355"/>
<path d="M163.706 92.9028C163.706 92.9028 163.738 93.0263 163.738 93.0881C163.738 93.1087 163.738 93.1498 163.754 93.191C163.754 93.2528 163.787 93.3145 163.787 93.3763C163.787 93.438 163.819 93.4998 163.819 93.5615C163.819 93.5821 163.819 93.6233 163.836 93.6644C163.836 93.7262 163.868 93.7879 163.868 93.8497C163.868 93.9114 163.901 93.9732 163.901 94.0349C163.901 94.0555 163.901 94.0967 163.917 94.1379C163.917 94.1996 163.95 94.2614 163.95 94.3231C163.95 94.3849 163.982 94.4466 163.982 94.5084C163.982 94.529 163.982 94.5701 163.998 94.6113C163.998 94.6731 164.031 94.7348 164.031 94.7966C164.324 96.1551 163.852 97.4107 162.55 98.2341L162.29 96.011C163.445 95.27 163.868 94.1379 163.608 92.9234L163.706 92.9028Z" fill="#575C6D"/>
<path d="M148.899 111.902C149.225 105.377 149.566 98.8723 149.892 92.3472C149.81 93.8086 150.738 95.4965 152.592 96.8756C155.684 99.2016 160.191 99.7986 162.647 98.2136L157.278 115.751C155.667 116.78 152.706 116.389 150.673 114.866C149.469 113.96 148.85 112.849 148.899 111.902Z" fill="url(#paint0_linear_326_24935)"/>
<path d="M150.413 90.7823C150.754 90.2882 151.08 89.8148 151.421 89.3208C150.364 90.844 151.08 93.0671 153.358 94.7755C156.124 96.8545 160.158 97.3897 162.371 95.9694L162.631 98.1925C160.175 99.7775 155.668 99.1599 152.577 96.8545C150.039 94.9402 149.241 92.4701 150.413 90.7823Z" fill="#575C6D"/>
<path d="M177.598 14.7046C177.663 15.0339 177.712 15.3633 177.777 15.6926C177.972 16.8453 177.533 17.9157 176.427 18.6361L176.329 17.4834C177.387 16.8042 177.793 15.7955 177.614 14.7046H177.598Z" fill="#829593"/>
<path d="M165.381 12.1105C165.381 12.1105 165.414 12.0487 165.43 12.0281C165.43 12.0281 165.447 12.0075 165.463 11.987C165.463 11.9664 165.495 11.9252 165.512 11.9046C165.512 11.884 165.544 11.8429 165.56 11.8223C165.56 11.8223 165.577 11.8017 165.593 11.7811C165.593 11.7605 165.626 11.7194 165.642 11.6988C165.642 11.6782 165.674 11.637 165.691 11.6165C165.691 11.6165 165.707 11.5959 165.723 11.5753C165.723 11.5547 165.756 11.5135 165.772 11.4929C165.788 11.4724 165.804 11.4312 165.821 11.4106C165.821 11.4106 165.837 11.39 165.853 11.3694C165.853 11.3489 165.886 11.3077 165.902 11.2871C165.007 12.728 165.707 14.7658 167.806 16.3302C170.425 18.2857 174.249 18.8003 176.331 17.4623L176.429 18.615C174.216 20.0353 170.181 19.4795 167.415 17.4211C165.186 15.7538 164.454 13.5925 165.398 12.0899L165.381 12.1105Z" fill="#829593"/>
<path d="M176.428 18.6355C174.215 20.0558 170.18 19.5 167.414 17.4416C165.608 16.083 164.779 14.4157 165.039 13.0366L150.998 90.3912C150.738 91.7909 151.567 93.4582 153.373 94.7962C156.139 96.8751 160.174 97.4103 162.387 96.0106C163.152 95.5166 163.607 94.8579 163.737 94.0963L177.778 16.7417C177.648 17.4828 177.193 18.162 176.428 18.656V18.6355Z" fill="url(#paint1_linear_326_24935)"/>
<path d="M176.803 2.82764C177.405 4.08326 177.991 5.33888 178.593 6.5945C179.277 8.03538 178.984 9.47626 177.633 10.3408L176.267 4.94778C177.031 4.45377 177.194 3.651 176.82 2.82764H176.803Z" fill="url(#paint2_linear_326_24935)"/>
<path d="M167.788 3.46545C168.764 2.66268 169.724 1.8599 170.701 1.05713C169.741 1.83932 170.034 3.25961 171.433 4.28881C172.913 5.40035 175.077 5.68852 176.249 4.92691L177.615 10.3199C175.533 11.6579 171.709 11.1433 169.09 9.1878C166.617 7.33524 166.096 4.84458 167.788 3.44487V3.46545Z" fill="url(#paint3_linear_326_24935)"/>
<path d="M176.249 4.94759C175.078 5.70919 172.914 5.42102 171.433 4.30948C169.953 3.19795 169.709 1.69532 170.88 0.933712C172.051 0.172105 174.215 0.460282 175.696 1.57182C177.176 2.68335 177.42 4.18598 176.249 4.94759Z" fill="url(#paint4_linear_326_24935)"/>
<path d="M177.616 10.3404C175.534 11.6784 171.71 11.1638 169.091 9.20833C167.382 7.93212 166.601 6.34716 166.845 5.02979L165.544 12.193C165.3 13.5104 166.081 15.0953 167.789 16.3716C170.408 18.3476 174.232 18.8416 176.314 17.5037C177.047 17.0302 177.47 16.4127 177.6 15.6923L178.901 8.52906C178.771 9.22891 178.348 9.86702 177.616 10.3404Z" fill="url(#paint5_linear_326_24935)"/>
<path d="M66.8516 71.9478L39.9898 91.5643C38.9159 92.3465 37.3052 92.4288 36.3778 91.7496C35.4504 91.0703 35.5643 89.897 36.6381 89.1148L63.5 69.4983C64.5738 68.7161 66.1845 68.6338 67.1119 69.313C68.0393 69.9923 67.9254 71.1656 66.8516 71.9478Z" fill="white"/>
<path d="M83.9847 76.0845L45.6363 104.099C44.5624 104.881 42.9517 104.964 42.0243 104.285C41.0969 103.605 41.2108 102.432 42.2846 101.65L80.6331 73.635C81.7069 72.8528 83.3176 72.7705 84.245 73.4498C85.1724 74.129 85.0585 75.3023 83.9847 76.0845Z" fill="white"/>
<path d="M91.8909 81.8491L53.5425 109.864C52.4687 110.646 50.8579 110.728 49.9306 110.049C49.0032 109.37 49.1171 108.197 50.1909 107.414L88.5393 79.3997C89.6131 78.6175 91.2238 78.5351 92.1512 79.2144C93.0786 79.8937 92.9648 81.067 91.8909 81.8491Z" fill="white"/>
<path d="M99.7815 87.6118L61.4331 115.627C60.3593 116.409 58.7486 116.491 57.8212 115.812C56.8938 115.133 57.0077 113.959 58.0815 113.177L96.4299 85.1624C97.5037 84.3802 99.1145 84.2978 100.042 84.9771C100.969 85.6564 100.855 86.8297 99.7815 87.6118Z" fill="white"/>
<path d="M99.4542 99.3863L69.3384 121.391C68.2646 122.173 66.6538 122.255 65.7265 121.576C64.7991 120.897 64.913 119.723 65.9868 118.941L96.1026 96.9368C97.1764 96.1546 98.7872 96.0722 99.7145 96.7515C100.642 97.4308 100.528 98.6041 99.4542 99.3863Z" fill="white"/>
<path d="M115.581 99.1602L77.2329 127.175C76.1591 127.957 74.5484 128.039 73.621 127.36C72.6936 126.681 72.8075 125.508 73.8813 124.725L112.23 96.7107C113.304 95.9285 114.914 95.8462 115.842 96.5254C116.769 97.2047 116.655 98.378 115.581 99.1602Z" fill="white"/>
<path d="M157.183 124.292L125.131 147.696C125.001 147.799 124.806 147.799 124.708 147.717C124.594 147.634 124.61 147.49 124.741 147.408L156.792 124.004C156.923 123.901 157.118 123.901 157.216 123.983C157.329 124.066 157.313 124.21 157.183 124.292Z" fill="white"/>
<g style="mix-blend-mode:multiply">
<path d="M167.368 132.917L164.309 131.394L151.439 124.93C151.439 124.93 156.89 122.934 162.828 120.958C162.877 120.937 162.942 120.937 162.991 120.896C163.87 120.608 164.781 120.299 165.659 119.99L165.725 120.052C170.524 123.551 171.077 129.006 167.368 132.917Z" fill="#81AFEB"/>
</g>
<path d="M96.1693 124.89L85.1382 132.938C84.0644 133.721 82.4536 133.803 81.5263 133.124C80.5989 132.444 80.7128 131.271 81.7866 130.489L92.8177 122.441C93.8915 121.658 95.5022 121.576 96.4296 122.255C97.357 122.935 97.2431 124.108 96.1693 124.89Z" fill="white"/>
</g>
<defs>
<linearGradient id="paint0_linear_326_24935" x1="148.769" y1="103.792" x2="161.956" y2="105.072" gradientUnits="userSpaceOnUse">
<stop stop-color="#444A5C"/>
<stop offset="0.11" stop-color="#444A5C"/>
<stop offset="0.27" stop-color="#6D7380"/>
<stop offset="0.35" stop-color="#646A78"/>
<stop offset="0.49" stop-color="#4C5263"/>
<stop offset="0.53" stop-color="#444A5C"/>
</linearGradient>
<linearGradient id="paint1_linear_326_24935" x1="157.604" y1="53.7517" x2="170.657" y2="56.1377" gradientUnits="userSpaceOnUse">
<stop offset="0.02" stop-color="#B1BEBB"/>
<stop offset="0.23" stop-color="#D5DCDB"/>
<stop offset="0.35" stop-color="#D7DDDC"/>
<stop offset="0.44" stop-color="#C8D0CE"/>
<stop offset="0.81" stop-color="#90A09E"/>
<stop offset="0.98" stop-color="#7B8E8B"/>
</linearGradient>
<linearGradient id="paint2_linear_326_24935" x1="176.234" y1="7.29436" x2="178.442" y2="6.2868" gradientUnits="userSpaceOnUse">
<stop offset="0.31" stop-color="#D5DCDB"/>
<stop offset="0.98" stop-color="#A7B6B3"/>
</linearGradient>
<linearGradient id="paint3_linear_326_24935" x1="168.472" y1="9.84648" x2="176.763" y2="6.07319" gradientUnits="userSpaceOnUse">
<stop offset="0.02" stop-color="#B4C0BE"/>
<stop offset="0.69" stop-color="#D5DCDB"/>
</linearGradient>
<linearGradient id="paint4_linear_326_24935" x1="172.572" y1="5.13284" x2="175.357" y2="1.32098" gradientUnits="userSpaceOnUse">
<stop offset="0.02" stop-color="#B4C0BE"/>
<stop offset="0.9" stop-color="#CFD6D5"/>
</linearGradient>
<linearGradient id="paint5_linear_326_24935" x1="165.837" y1="10.5463" x2="178.128" y2="12.8015" gradientUnits="userSpaceOnUse">
<stop offset="0.02" stop-color="#B1BEBB"/>
<stop offset="0.23" stop-color="#D5DCDB"/>
<stop offset="0.35" stop-color="#D7DDDC"/>
<stop offset="0.44" stop-color="#C8D0CE"/>
<stop offset="0.81" stop-color="#90A09E"/>
<stop offset="0.98" stop-color="#7B8E8B"/>
</linearGradient>
<clipPath id="clip0_326_24935">
<rect width="178.349" height="261.492" fill="white" transform="translate(0.599609 0.507812)"/>
</clipPath>
</defs>
</svg>
