<svg width="180" height="266" viewBox="0 0 180 266" fill="none" xmlns="http://www.w3.org/2000/svg">
<g clip-path="url(#clip0_326_24936)">
<path d="M41.3821 238.016C43.0614 238.016 44.5346 238.344 45.8018 239C47.0842 239.657 48.0689 240.596 48.7559 241.817C49.4581 243.023 49.8093 244.428 49.8093 246.031C49.8093 247.634 49.4581 249.038 48.7559 250.244C48.0689 251.435 47.0842 252.359 45.8018 253.015C44.5346 253.672 43.0614 254 41.3821 254H35.7945V238.016H41.3821ZM41.2676 251.275C42.9469 251.275 44.2446 250.817 45.1606 249.901C46.0766 248.985 46.5346 247.695 46.5346 246.031C46.5346 244.367 46.0766 243.069 45.1606 242.138C44.2446 241.191 42.9469 240.718 41.2676 240.718H39.0005V251.275H41.2676ZM53.835 239.802C53.2701 239.802 52.7969 239.626 52.4152 239.275C52.0488 238.909 51.8656 238.459 51.8656 237.924C51.8656 237.39 52.0488 236.947 52.4152 236.596C52.7969 236.23 53.2701 236.046 53.835 236.046C54.3999 236.046 54.8655 236.23 55.2319 236.596C55.6136 236.947 55.8044 237.39 55.8044 237.924C55.8044 238.459 55.6136 238.909 55.2319 239.275C54.8655 239.626 54.3999 239.802 53.835 239.802ZM55.4151 241.313V254H52.2091V241.313H55.4151ZM61.7886 243.145C62.2008 242.565 62.7657 242.084 63.4832 241.703C64.216 241.306 65.0481 241.107 65.9793 241.107C67.0633 241.107 68.0403 241.374 68.9105 241.909C69.796 242.443 70.4906 243.206 70.9944 244.199C71.5135 245.176 71.773 246.313 71.773 247.611C71.773 248.909 71.5135 250.061 70.9944 251.069C70.4906 252.061 69.796 252.832 68.9105 253.382C68.0403 253.931 67.0633 254.206 65.9793 254.206C65.0481 254.206 64.2237 254.015 63.5061 253.634C62.8039 253.252 62.2314 252.771 61.7886 252.191V260.046H58.5826V241.313H61.7886V243.145ZM68.4983 247.611C68.4983 246.848 68.338 246.191 68.0174 245.641C67.7121 245.077 67.2999 244.649 66.7808 244.359C66.277 244.069 65.7274 243.924 65.132 243.924C64.5519 243.924 64.0023 244.077 63.4832 244.382C62.9794 244.672 62.5672 245.1 62.2466 245.664C61.9413 246.229 61.7886 246.893 61.7886 247.657C61.7886 248.42 61.9413 249.084 62.2466 249.649C62.5672 250.214 62.9794 250.649 63.4832 250.954C64.0023 251.244 64.5519 251.389 65.132 251.389C65.7274 251.389 66.277 251.237 66.7808 250.931C67.2999 250.626 67.7121 250.191 68.0174 249.626C68.338 249.061 68.4983 248.389 68.4983 247.611ZM77.3088 237.054V254H74.1028V237.054H77.3088ZM86.1097 254.206C84.8884 254.206 83.7892 253.939 82.8121 253.405C81.835 252.855 81.0641 252.084 80.4992 251.092C79.9496 250.099 79.6748 248.954 79.6748 247.657C79.6748 246.359 79.9572 245.214 80.5221 244.222C81.1022 243.229 81.8885 242.466 82.8808 241.932C83.8731 241.382 84.98 241.107 86.2013 241.107C87.4226 241.107 88.5295 241.382 89.5218 241.932C90.5141 242.466 91.2927 243.229 91.8576 244.222C92.4377 245.214 92.7278 246.359 92.7278 247.657C92.7278 248.954 92.4301 250.099 91.8347 251.092C91.2546 252.084 90.4607 252.855 89.4531 253.405C88.4608 253.939 87.3463 254.206 86.1097 254.206ZM86.1097 251.412C86.6898 251.412 87.2318 251.275 87.7356 251C88.2547 250.71 88.6669 250.283 88.9722 249.718C89.2775 249.153 89.4302 248.466 89.4302 247.657C89.4302 246.451 89.1096 245.527 88.4684 244.886C87.8425 244.229 87.0715 243.901 86.1555 243.901C85.2395 243.901 84.4685 244.229 83.8426 244.886C83.2319 245.527 82.9266 246.451 82.9266 247.657C82.9266 248.863 83.2243 249.794 83.8197 250.451C84.4304 251.092 85.1937 251.412 86.1097 251.412ZM110.835 241.13C112.392 241.13 113.644 241.611 114.59 242.573C115.552 243.519 116.033 244.848 116.033 246.557V254H112.827V246.993C112.827 246 112.575 245.245 112.071 244.725C111.568 244.191 110.881 243.924 110.01 243.924C109.14 243.924 108.445 244.191 107.926 244.725C107.423 245.245 107.171 246 107.171 246.993V254H103.965V246.993C103.965 246 103.713 245.245 103.209 244.725C102.705 244.191 102.018 243.924 101.148 243.924C100.263 243.924 99.5603 244.191 99.0412 244.725C98.5374 245.245 98.2855 246 98.2855 246.993V254H95.0795V241.313H98.2855V242.848C98.6977 242.313 99.2244 241.894 99.8656 241.588C100.522 241.283 101.24 241.13 102.018 241.13C103.011 241.13 103.896 241.344 104.675 241.771C105.453 242.184 106.056 242.779 106.484 243.558C106.896 242.825 107.491 242.237 108.27 241.794C109.064 241.352 109.919 241.13 110.835 241.13ZM118.251 247.611C118.251 246.328 118.503 245.191 119.007 244.199C119.526 243.206 120.22 242.443 121.091 241.909C121.976 241.374 122.961 241.107 124.045 241.107C124.991 241.107 125.816 241.298 126.518 241.68C127.235 242.061 127.808 242.542 128.235 243.122V241.313H131.464V254H128.235V252.145C127.823 252.74 127.251 253.237 126.518 253.634C125.8 254.015 124.968 254.206 124.022 254.206C122.953 254.206 121.976 253.931 121.091 253.382C120.22 252.832 119.526 252.061 119.007 251.069C118.503 250.061 118.251 248.909 118.251 247.611ZM128.235 247.657C128.235 246.878 128.083 246.214 127.777 245.664C127.472 245.1 127.06 244.672 126.541 244.382C126.022 244.077 125.464 243.924 124.869 243.924C124.274 243.924 123.724 244.069 123.22 244.359C122.716 244.649 122.304 245.077 121.984 245.641C121.678 246.191 121.526 246.848 121.526 247.611C121.526 248.374 121.678 249.046 121.984 249.626C122.304 250.191 122.716 250.626 123.22 250.931C123.739 251.237 124.289 251.389 124.869 251.389C125.464 251.389 126.022 251.244 126.541 250.954C127.06 250.649 127.472 250.221 127.777 249.672C128.083 249.107 128.235 248.435 128.235 247.657ZM139.45 254.206C138.412 254.206 137.481 254.023 136.656 253.656C135.832 253.275 135.176 252.763 134.687 252.122C134.214 251.481 133.954 250.771 133.908 249.992H137.137C137.198 250.481 137.435 250.886 137.847 251.206C138.275 251.527 138.801 251.687 139.427 251.687C140.038 251.687 140.511 251.565 140.847 251.321C141.198 251.076 141.374 250.763 141.374 250.382C141.374 249.97 141.16 249.664 140.733 249.466C140.32 249.252 139.656 249.023 138.74 248.779C137.794 248.55 137.015 248.313 136.405 248.069C135.809 247.825 135.29 247.451 134.847 246.947C134.42 246.443 134.206 245.764 134.206 244.909C134.206 244.206 134.405 243.565 134.802 242.985C135.214 242.405 135.794 241.947 136.542 241.611C137.305 241.275 138.198 241.107 139.221 241.107C140.733 241.107 141.939 241.489 142.839 242.252C143.74 243 144.236 244.016 144.328 245.298H141.259C141.214 244.794 141 244.397 140.618 244.107C140.252 243.802 139.756 243.649 139.13 243.649C138.549 243.649 138.099 243.756 137.779 243.97C137.473 244.184 137.321 244.481 137.321 244.863C137.321 245.29 137.534 245.619 137.962 245.848C138.389 246.061 139.053 246.283 139.954 246.512C140.87 246.741 141.626 246.977 142.221 247.222C142.817 247.466 143.328 247.848 143.755 248.367C144.198 248.87 144.427 249.542 144.442 250.382C144.442 251.115 144.236 251.771 143.824 252.351C143.427 252.931 142.847 253.389 142.084 253.725C141.336 254.046 140.458 254.206 139.45 254.206Z" fill="white"/>
<path opacity="0.2" d="M161.633 198.72C160.298 198.72 159.078 198.35 158.118 197.65L111.13 163.316C109.78 162.328 108.999 160.743 108.999 158.972C108.999 157.058 109.91 155.288 111.505 154.115L112.676 153.25C113.88 152.365 115.377 151.892 116.906 151.892C118.24 151.892 119.461 152.262 120.421 152.962L167.408 187.296C168.759 188.284 169.54 189.869 169.54 191.639C169.54 193.554 168.629 195.324 167.034 196.497L165.863 197.362C164.659 198.247 163.162 198.72 161.633 198.72Z" fill="black"/>
<path opacity="0.2" d="M14.7637 199.852C16.0978 199.852 17.3181 199.481 18.278 198.782L65.2658 164.448C66.6162 163.46 67.3972 161.875 67.3972 160.104C67.3972 158.19 66.4861 156.42 64.8916 155.247L63.7202 154.382C62.5162 153.497 61.0193 153.023 59.49 153.023C58.1558 153.023 56.9356 153.394 55.9756 154.094L8.98784 188.428C7.63743 189.416 6.85645 191.001 6.85645 192.771C6.85645 194.685 7.76758 196.456 9.36204 197.629L10.5335 198.493C11.7375 199.379 13.2343 199.852 14.7637 199.852Z" fill="black"/>
<path d="M163.975 184.25L161.339 185.65C163.389 184.559 164.869 181.842 165.227 177.848L167.863 176.449C167.489 180.442 166.008 183.18 163.975 184.25Z" fill="#3AB1C9"/>
<path d="M126.539 2.76072L129.175 1.36101C130.851 0.475902 132.901 0.702325 135.032 2.24612L132.396 3.64583C130.265 2.10203 128.215 1.87561 126.539 2.76072Z" fill="#3AB1C9"/>
<path d="M143.396 8.35986L143.493 10.0683L142.013 9.03913L142.062 10.0683L143.396 8.35986Z" fill="#B7D2F7"/>
<path d="M162.25 26.5149L159.614 27.9146C158.98 28.2439 158.199 28.1616 157.418 27.5853L160.054 26.1855C160.835 26.7619 161.616 26.8648 162.25 26.5149Z" fill="#3AB1C9"/>
<path d="M163.519 24.7033L163.893 23.3447L165.845 27.4204L166.073 26.6176L163.519 24.7033Z" fill="#B7D2F7"/>
<path d="M168.727 34.3779C172.29 36.9715 174.779 43.5378 174.275 49.0337L162.56 176.634C162.056 182.13 158.753 184.456 155.19 181.862L117.964 154.671C114.401 152.077 111.928 145.511 112.432 140.015L124.147 12.4148C124.651 6.9189 127.954 4.59292 131.517 7.1865L138.237 12.0855L138.172 11.0563C138.416 15.1319 140.303 19.2281 142.744 21.0189L156.54 31.1051C158.981 32.8753 161.324 31.8667 162.251 28.635L162.023 29.4378L168.743 34.3573L168.727 34.3779Z" fill="#B2DCDC"/>
<path d="M157.157 148.083L127.627 126.511C123.885 123.774 120.419 126.244 119.899 132.007L119.606 135.239C119.069 141.003 121.689 147.898 125.431 150.636L154.961 172.208C158.703 174.946 162.168 172.475 162.689 166.712L162.982 163.48C163.519 157.717 160.916 150.821 157.173 148.104L157.157 148.083Z" fill="#3AB1C9"/>
<path d="M119.526 62.5774L167.393 123.815L171.883 74.9277L124.017 13.6904L119.526 62.5774Z" fill="#CDDCEC"/>
<path d="M132.396 3.6458L135.032 2.24609L143.395 8.35953L140.759 9.75924L132.396 3.6458Z" fill="#3AB1C9"/>
<path d="M140.758 9.75957L143.394 8.35986L143.491 10.0683L140.855 11.468L140.758 9.75957Z" fill="#3AB1C9"/>
<path d="M140.855 11.4676L143.491 10.0679C143.638 12.5379 144.777 15.008 146.257 16.099L143.621 17.4987C142.141 16.4283 141.002 13.9377 140.855 11.4676Z" fill="#3AB1C9"/>
<path d="M143.623 17.4993L146.259 16.0996L160.056 26.1858L157.42 27.5855L143.623 17.4993Z" fill="#3AB1C9"/>
<path d="M161.259 24.7444L163.895 23.3447L172.257 29.4376L169.622 30.8373L161.259 24.7444Z" fill="#3AB1C9"/>
<path d="M176.959 50.2273L179.594 48.8481L167.88 176.448L165.244 177.848L176.959 50.2273Z" fill="#3AB1C9"/>
<path d="M169.62 30.8377L172.256 29.438C176.974 32.8755 180.261 41.5619 179.594 48.8281L176.958 50.2278C177.625 42.9617 174.338 34.2752 169.62 30.8377Z" fill="#3AB1C9"/>
<path d="M13.8897 185.443L11.2377 183.838C9.39919 182.726 8.13012 180.112 7.90234 176.345L10.5544 177.951C10.7821 181.718 12.0512 184.332 13.8897 185.443Z" fill="#3AB1C9"/>
<path d="M51.4408 4.016L54.0928 5.62155C52.4495 4.61294 50.3507 4.81878 48.1217 6.44491L45.4697 4.83936C47.6987 3.21323 49.7975 3.02797 51.4408 4.016Z" fill="#3AB1C9"/>
<path d="M36.9443 12.6205L37.107 10.9326L38.3273 12.5176L38.4086 11.509L36.9443 12.6205Z" fill="#B7D2F7"/>
<path d="M39.7584 12.5378L37.1064 10.9323L45.4692 4.81885L48.1212 6.44498L39.7584 12.5378Z" fill="#3AB1C9"/>
<path d="M39.5964 14.2261L36.9443 12.6205L37.107 10.9326L39.759 12.5382L39.5964 14.2261Z" fill="#619AEE"/>
<path d="M36.7165 20.195L34.0645 18.5895C35.545 17.5191 36.7327 15.049 36.9443 12.6201L39.5963 14.2257C39.3848 16.6546 38.1808 19.1041 36.7165 20.195Z" fill="#3AB1C9"/>
<path d="M22.9193 30.2605L20.251 28.655L34.0642 18.5688L36.7162 20.195L22.9193 30.2605Z" fill="#3AB1C9"/>
<path d="M20.6725 30.5691L18.0205 28.9635C18.6388 29.3341 19.436 29.2517 20.2658 28.6548L22.9178 30.2603C22.088 30.8573 21.3071 30.9396 20.6725 30.5691Z" fill="#3AB1C9"/>
<path d="M10.8942 33.6365L8.24219 32.0103L16.5887 25.9175L19.257 27.523L10.8942 33.6365Z" fill="#3AB1C9"/>
<path d="M10.5542 177.951L7.90218 176.346L0.466797 51.1538L3.11882 52.7799L10.5542 177.951Z" fill="#3AB1C9"/>
<path d="M63.3828 140.179L55.9474 15.0078C55.622 9.61478 52.4819 7.37113 48.9188 9.96471L42.1992 14.8843L42.2969 13.8757C41.9389 17.869 39.9703 21.9446 37.5297 23.7354L23.7328 33.8215C21.2923 35.6123 19.0307 34.6243 18.2335 31.475L18.4287 32.2571L11.7092 37.1767C8.1461 39.7703 5.51036 46.2542 5.83576 51.6472L13.2711 176.818C13.5965 182.191 16.7367 184.455 20.2998 181.861L57.5256 154.67C61.0887 152.076 63.7245 145.592 63.3991 140.199L63.3828 140.179Z" fill="#B2DCDC"/>
<path d="M61.2817 105.001L9.73828 39.0498C10.3403 38.2882 10.9911 37.6501 11.6744 37.1355L18.3939 32.2365L18.1987 31.4544C18.9959 34.6037 21.2575 35.5711 23.698 33.8009L30.8079 28.6138L58.8737 64.5328L61.2817 105.021V105.001Z" fill="#CDDCEC"/>
<path d="M56.1906 23.9828L56.093 22.4596C55.8652 18.5898 53.5874 16.9431 51.033 18.8368L46.6238 22.0479C44.0532 23.921 42.1658 28.5936 42.3936 32.4634L42.4912 33.9866C42.719 37.877 44.9968 39.4825 47.5512 37.6094L51.9604 34.3983C54.531 32.5251 56.4184 27.8526 56.1906 23.9828Z" fill="#3AB1C9"/>
<path d="M62.1311 147.836C61.0735 150.718 59.4303 153.25 57.5104 154.65L40.736 166.897L10.3599 128.035L7.36621 77.748L62.1311 147.836Z" fill="#CDDCEC"/>
<path d="M53.7023 142.566L53.6047 140.878C53.3444 136.535 47.3895 137.894 47.9427 136.823L25.2949 153.373C22.4151 155.472 20.3163 160.68 20.5603 165.023L20.6579 166.711C20.9182 171.054 23.4564 172.866 26.3199 170.766L48.9677 154.217C51.8313 152.117 53.9626 146.909 53.7023 142.566Z" fill="#3AB1C9"/>
<path d="M169.626 30.8372L161.264 24.7237L160.873 26.0823C160.32 28.0377 158.905 28.6553 157.424 27.5643L143.627 17.4782C142.146 16.4078 141.007 13.9171 140.861 11.4471L140.763 9.7386L132.401 3.62516C127.682 0.187639 123.322 3.27523 122.655 10.5414L110.94 138.141C110.273 145.408 113.56 154.094 118.262 157.532L155.488 184.723C160.206 188.16 164.566 185.073 165.234 177.807L176.948 50.2067C177.615 42.9405 174.328 34.2541 169.61 30.8166L169.626 30.8372ZM162.549 176.633C162.045 182.129 158.742 184.455 155.179 181.862L117.953 154.67C114.39 152.077 111.917 145.51 112.421 140.015L124.135 12.4145C124.64 6.9186 127.943 4.59261 131.49 7.18619L138.209 12.0852L138.242 12.044C138.697 15.7903 140.471 19.3719 142.716 21.0186L156.513 31.1048C158.758 32.7515 160.922 32.0105 161.98 29.3551V29.4375L168.715 34.357C172.278 36.9506 174.768 43.5169 174.263 49.0128L162.549 176.613V176.633Z" fill="#3ADCC9"/>
<path d="M57.4284 13.1141C57.0054 5.97148 52.8403 3.00739 48.122 6.44491L39.7592 12.5584L39.6128 14.2462C39.4013 16.6751 38.1973 19.1246 36.733 20.2156L22.936 30.3017C21.4554 31.3721 20.0888 30.7957 19.6169 28.8814L19.2752 27.5641L10.9125 33.6775C6.19415 37.115 2.71237 45.6985 3.13539 52.8206L10.5708 177.992C10.9938 185.114 15.1589 188.098 19.8772 184.661L57.103 157.469C61.8213 154.032 65.3031 145.448 64.8801 138.326L57.4447 13.1553L57.4284 13.1141ZM57.5098 154.649L20.284 181.841C16.7208 184.455 13.5645 182.191 13.2553 176.798L5.81994 51.6267C5.49454 46.2337 8.13028 39.7704 11.6934 37.1562L18.4129 32.2366V32.1543C19.3566 34.7273 21.4554 35.4271 23.7007 33.801L37.4977 23.7149C39.7429 22.0681 41.5814 18.5071 42.1509 14.8432H42.1834L48.903 9.96477C52.4661 7.37119 55.6062 9.61485 55.9316 15.0078L63.367 140.179C63.6924 145.551 61.0567 152.035 57.4935 154.649H57.5098Z" fill="#3ADCC9"/>
<path d="M3.11847 52.7799L0.466447 51.1743C0.0434269 44.0317 3.52521 35.4688 8.24351 32.0312L10.8955 33.6368C6.17723 37.0743 2.69545 45.6578 3.11847 52.7799Z" fill="#3AB1C9"/>
<path d="M56.9542 19.2076L58.4022 20.0927C57.5074 19.5575 56.3685 19.6604 55.1482 20.5455L53.7002 19.6604C54.9042 18.7753 56.0593 18.6724 56.9542 19.2076Z" fill="#D3E1F8"/>
<path d="M48.4132 39.7713L46.9652 38.8862C45.9727 38.2687 45.2731 36.8689 45.1592 34.8105L46.6072 35.6957C46.7211 37.7335 47.4207 39.1538 48.4132 39.7713Z" fill="#D3E1F8"/>
<path d="M50.7384 23.7564L49.3066 22.8713L53.6995 19.6602L55.1476 20.5453L50.7384 23.7564Z" fill="#D3E1F8"/>
<path d="M46.6065 35.6954L45.1585 34.8308L45.0771 33.3076L46.5089 34.1721L46.6065 35.6954Z" fill="#D3E1F8"/>
<path d="M55.5878 22.4594C57.524 21.0391 59.2486 22.2742 59.4113 25.1971L59.5089 26.7203C59.6879 29.6432 58.2561 33.1837 56.32 34.5834L51.9108 37.7945C49.9747 39.2148 48.2501 37.9797 48.0874 35.0568L47.9897 33.5336C47.8107 30.6107 49.2425 27.0702 51.1787 25.6499L55.5878 22.4388V22.4594Z" fill="#F3F7FC"/>
<path d="M60.3068 25.6914L60.2092 24.1682C59.9814 20.2778 57.7036 18.6517 55.1492 20.5454L50.74 23.7565C48.1694 25.6296 46.2821 30.3022 46.5098 34.172L46.6075 35.6952C46.8352 39.565 49.113 41.1911 51.6674 39.318L56.0766 36.1069C58.6473 34.2337 60.5346 29.5612 60.3068 25.6914ZM56.3044 34.5837L51.8952 37.7948C49.9591 39.2151 48.2344 37.98 48.0717 35.0571L47.9741 33.5339C47.7952 30.611 49.2269 27.0705 51.1631 25.6502L55.5722 22.4391C57.5084 21.0188 59.233 22.2539 59.3957 25.1768L59.4933 26.7C59.6723 29.6229 58.2405 33.1634 56.3044 34.5631V34.5837Z" fill="#E6EFFB"/>
<path d="M46.5087 34.1717L45.0606 33.2866C44.8328 29.3962 46.7201 24.7442 49.2908 22.8711L50.7388 23.7562C48.1682 25.6293 46.2809 30.3019 46.5087 34.1717Z" fill="#D3E1F8"/>
<path d="M31.1331 61.2811C26.2033 57.9465 21.7127 65.8919 24.7552 72.767C27.7814 79.642 25.3897 87.7727 22.1357 86.9082C23.9417 90.1193 32.4835 95.9857 34.5335 86.5171C36.5673 77.0484 31.1493 61.2811 31.1493 61.2811H31.1331Z" fill="#4D2A16"/>
<path d="M49.3215 95.8208C52.0712 96.6442 52.4454 98.188 53.5029 100.37C54.5605 102.552 59.4415 110.724 59.8482 111.403C60.255 112.082 58.872 120.419 58.0097 120.172C57.1637 119.904 54.5279 118.237 50.9648 112.267C47.4179 106.298 44.1151 97.3234 49.3053 95.8208H49.3215Z" fill="#FF9071"/>
<path d="M40.001 85.0552C46.1348 85.8991 48.136 87.9575 50.2999 90.8393C52.4801 93.721 53.4888 97.7967 53.4888 97.7967C53.4888 97.7967 51.6178 102.737 49.1447 103.725C46.6717 104.713 40.001 85.0552 40.001 85.0552Z" fill="#0AD46B"/>
<path d="M42.0504 162.08C42.0016 163.336 41.8877 164.715 41.7412 166.156C41.6436 167.041 41.546 167.946 41.4158 168.873L36.3559 172.578L28.9205 177.991C28.8879 177.353 28.7903 176.571 28.6764 175.707C28.0744 171.24 26.5938 164.118 25.7966 159.075C24.7716 152.55 25.1133 142.896 26.0732 138.161L34.8428 135.444L39.0892 134.127C39.0892 134.127 42.2131 135.856 42.7175 138.985C43.2218 142.114 42.3432 154.217 42.0341 162.08H42.0504Z" fill="#33394C"/>
<path d="M52.4618 158.334C52.3154 159.261 52.169 160.208 52.0063 161.154L41.4145 168.894L36.3545 172.599L36.2569 170.191L34.8414 135.466L34.6787 131.596L50.0213 131.431C50.7372 137.277 51.2579 143.637 51.3555 145.14C51.4368 146.21 53.373 151.995 52.4456 158.334H52.4618Z" fill="#33394C"/>
<path d="M33.0998 85.2616C27.8121 89.7694 23.8747 91.5397 21.9711 95.7388C20.0675 99.9379 25.8759 125.112 26.2013 127.603C26.5267 130.093 25.0136 139.233 25.0136 141.703C25.0136 144.173 32.205 150.41 41.8043 147.363C51.4036 144.338 50.9806 140.221 50.7528 137.257C50.525 134.293 51.1758 121.325 51.4036 119.369C51.6314 117.414 52.575 114.841 52.396 109.345C52.2171 103.849 47.4662 92.2189 45.7904 89.0696C44.1146 85.9202 41.2186 85.4056 39.4614 84.891C37.7042 84.3764 33.0998 85.241 33.0998 85.241V85.2616Z" fill="#00CA58"/>
<path d="M54.3821 136.762L55.9929 137.75C54.9841 137.133 53.715 137.256 52.3646 138.244L50.7539 137.256C52.1043 136.268 53.3896 136.145 54.3821 136.762Z" fill="#D3E1F8"/>
<path d="M27.1132 172.682L25.5025 171.694C24.3799 171.014 23.6152 169.429 23.4688 167.124L25.0795 168.112C25.2097 170.397 25.9906 172.002 27.1132 172.682Z" fill="#D3E1F8"/>
<path d="M29.7172 154.773L28.1064 153.785L50.7543 137.256L52.365 138.224L29.7172 154.773Z" fill="#D3E1F8"/>
<path d="M25.0795 168.132L23.4687 167.144L23.3711 165.436L24.9818 166.424L25.0795 168.132Z" fill="#D3E1F8"/>
<path d="M52.8518 140.385C55.0157 138.8 56.9356 140.179 57.1309 143.452L57.2285 145.14C57.4237 148.413 55.8293 152.365 53.6491 153.95L31.0012 170.5C28.8373 172.085 26.9174 170.705 26.7222 167.433L26.6246 165.745C26.4293 162.472 28.0238 158.52 30.204 156.935L52.8518 140.385Z" fill="#F3F7FC"/>
<path d="M58.1232 143.987L58.0256 142.299C57.7653 137.956 55.2272 136.144 52.3636 138.244L29.7158 154.793C26.836 156.893 24.7372 162.101 24.9812 166.444L25.0788 168.132C25.3392 172.475 27.8773 174.286 30.7408 172.187L53.3887 155.637C56.2522 153.538 58.3836 148.33 58.1232 143.987ZM53.649 153.949L31.0011 170.499C28.8372 172.084 26.9174 170.705 26.7221 167.432L26.6245 165.744C26.4293 162.471 28.0237 158.519 30.2039 156.934L52.8518 140.384C55.0157 138.8 56.9355 140.179 57.1308 143.451L57.2284 145.139C57.4236 148.412 55.8292 152.364 53.649 153.949Z" fill="#E6EFFB"/>
<path d="M24.981 166.424L23.3703 165.436C23.11 161.093 25.2251 155.885 28.1049 153.786L29.7156 154.774C26.8358 156.873 24.737 162.081 24.981 166.424Z" fill="#D3E1F8"/>
<path d="M31.8507 77.233C33.0221 81.8644 30.9884 87.8749 30.2237 89.4805C29.459 91.086 33.8031 96.7466 36.4714 98.064C39.1397 99.3814 41.808 98.4551 41.808 98.4551C41.808 98.4551 42.6215 95.1823 41.5314 91.3536L40.4413 87.525L43.0607 78.3651C43.0607 78.3651 34.0472 64.1005 31.8344 77.2124L31.8507 77.233Z" fill="#FF9071"/>
<path d="M36.9902 66.4888C36.9902 66.4888 35.2493 70.7291 35.412 75.2988C35.5747 79.889 34.8913 82.4208 35.7536 84.2116C36.616 85.9819 41.4156 89.8105 42.4081 89.8722C43.4005 89.934 44.2141 89.3576 44.4744 88.6989C44.7184 88.0403 45.9549 81.8445 46.1827 79.4979C46.3942 77.3572 46.378 72.7258 45.9712 69.3912C45.5645 66.0566 44.393 64.4099 43.6934 63.9158C42.9938 63.4218 36.9902 66.5094 36.9902 66.5094V66.4888Z" fill="#FF9071"/>
<path d="M21.5334 104.055C21.5334 104.055 19.9552 102.902 19.4508 109.901C18.9465 116.878 18.6373 129.085 19.0441 130.505C19.4508 131.946 21.4032 133.078 23.2092 132.728C25.0152 132.378 26.333 127.52 26.333 127.52L28.6434 109.654L21.5334 104.055Z" fill="#FF9071"/>
<path d="M25.2917 126.943C21.8587 127.17 19.5484 130.257 19.4508 131.287C19.3531 132.316 31.9461 142.958 37.8684 146.066C39.6256 147.836 39.9998 148.062 41.2363 148.042C42.4728 148.021 43.2538 148.33 43.2538 148.33C43.2538 148.33 47.5328 150.512 48.1836 150.533C48.8344 150.553 49.2412 149.75 49.2412 149.75C49.2412 149.75 49.892 150.574 50.3475 150.533C50.8031 150.471 50.9983 150.08 50.9983 150.08C50.9983 150.08 51.6979 150.1 51.9094 149.421C52.121 148.742 51.9094 148.042 51.9094 148.042C51.9094 148.042 51.9745 147.363 52.0071 146.951C52.0233 146.56 49.5828 143.74 48.8181 142.978C48.0535 142.196 46.4427 141.002 45.5153 140.858C44.5879 140.714 41.1062 141.537 40.2438 141.085C39.3815 140.632 27.96 129.146 27.2441 127.602C26.0238 126.902 25.2917 126.943 25.2917 126.943Z" fill="#FF9071"/>
<path d="M78.4469 106.73C74.7536 107.595 67.1392 110.23 59.5086 110.847C58.2558 113.173 56.1081 117.866 58.0117 120.172C59.2645 120.522 63.4785 119.966 66.163 118.669C68.8476 117.372 76.5758 112.906 77.6659 112.906C78.756 112.906 80.8711 114.408 82.612 114.449C84.3529 114.491 89.6895 115.17 89.6895 113.358C90.8284 113.05 91.1212 112.72 90.8609 111.671C91.593 111.3 91.3327 110.394 91.2351 110.106C91.1375 109.797 91.3815 109.036 90.7307 108.768C90.0637 108.501 88.6807 108.974 87.3466 108.748C86.0287 108.521 83.0513 107.039 83.0513 107.039C83.0513 107.039 83.9136 105.866 84.3529 105.701C84.7922 105.557 86.0938 105.722 87.2489 105.084C88.4041 104.446 88.1763 103.499 87.2815 103.56C86.3866 103.622 82.9862 103.828 82.0914 103.725C81.1965 103.643 78.4469 106.73 78.4469 106.73Z" fill="#FF9071"/>
<path d="M85.2951 109.756C84.3515 110.723 82.8221 111.526 81.2439 109.982C79.6657 108.438 77.9248 108.891 77.9248 108.891C77.9248 108.891 79.9911 109.92 80.8046 111.093C81.6181 112.267 84.7257 112.576 84.7257 112.576C84.7257 112.576 88.0447 112.884 89.1999 112.267C90.3551 111.67 92.4214 108.294 85.2951 109.756Z" fill="#FF8564"/>
<path d="M43.3512 65.2947C40.4064 66.4062 38.3563 67.0031 37.4452 70.5024C36.5341 74.0017 36.29 77.892 36.29 77.892L35.3626 79.5182C35.3626 79.5182 35.3789 77.3157 35.0861 76.8011C34.7932 76.2865 32.8733 75.6072 32.6456 77.0069C32.4178 78.4066 32.613 83.9437 31.6043 85.2405C31.5555 82.0088 30.4654 80.8767 29.2614 78.9624C28.0574 77.0481 26.7558 74.7839 26.886 70.3377C27.0161 65.8916 27.8622 62.5776 32.0598 60.8279C36.6805 57.7403 43.2373 61.7954 44.0508 62.6805C44.8643 63.5656 45.2874 66.5297 45.2874 66.5297C45.2874 66.5297 44.4413 65.0888 44.2949 65.0065C44.1485 64.9241 43.3187 65.3152 43.3187 65.3152L43.3512 65.2947Z" fill="#4D2A16"/>
<path d="M24.2832 95.1831C22.5423 94.6067 21.9729 95.7388 21.9729 95.7388C21.9729 95.7388 20.1669 98.6824 19.7113 102.676C19.2558 106.69 19.0117 110.045 19.0117 110.045C19.0117 110.045 20.1994 112.494 28.0904 113.544C28.6761 113.626 29.4408 109.016 29.5872 106.381C29.7337 103.746 28.9039 96.0682 24.2995 95.1625L24.2832 95.1831Z" fill="#0AD46B"/>
<path d="M34.436 78.2214C34.6312 76.41 32.8903 75.4837 32.0768 76.1218C31.2471 76.7599 31.7677 80.3621 32.9554 81.0414C34.1269 81.7206 34.3058 81.3913 34.4685 81.0414C34.6312 80.6914 34.4523 78.2008 34.4523 78.2008L34.436 78.2214Z" fill="#FF9071"/>
<path d="M125.711 74.1862C125.435 74.1862 122.978 73.6099 121.074 76.5122C119.496 78.9205 118.243 81.9258 117.267 84.3959C116.291 86.8659 112.175 96.2934 112.175 96.2934C112.175 96.2934 108.4 101.769 108.368 102.098C108.319 102.448 107.05 108.067 108.579 110.043C110.108 112.02 113.883 112.637 114.599 112.205C120.017 108.891 124.068 96.8286 124.068 96.8286L125.744 74.1862H125.711Z" fill="#686C7B"/>
<path d="M142.29 138.45L142.03 159.59L141.867 172.125L141.834 174.184C141.834 174.184 141.786 174.349 141.639 174.637L127.744 164.489C127.663 163.583 127.598 162.636 127.517 161.648C127.403 160.125 127.289 158.478 127.159 156.708C126.41 145.634 127.191 134.93 128.395 123.074C128.395 123.074 137.214 122.806 140.647 124.412C141.216 124.679 141.655 125.009 141.867 125.379C143.331 128.035 142.274 138.43 142.274 138.43L142.29 138.45Z" fill="#2F3548"/>
<path d="M157.941 182.932C157.794 184.043 157.518 184.97 157.127 185.711C156.59 185.484 156.037 185.175 155.484 184.764L144.16 176.489C144.062 175.563 143.949 174.575 143.851 173.587C143.298 168.482 142.663 162.904 142.029 159.61C141.752 158.252 141.492 157.284 141.215 156.872C139.539 154.361 135.57 152.57 134.561 150.142C133.536 147.692 135.374 129.187 135.374 129.187C135.374 129.187 137.717 126.696 140.678 124.432C144.372 121.633 148.992 119.183 151.189 122.456C155.126 128.323 158.087 139.026 157.648 149.75C157.209 160.475 157.876 173.051 158.104 178.671C158.169 180.338 158.12 181.758 157.957 182.932H157.941Z" fill="#33394C"/>
<path d="M123.335 77.4393C126.166 73.8577 137.246 72.6844 137.246 72.6844C137.246 72.6844 139.328 72.0463 141.199 72.5815C143.07 73.1167 152.328 79.683 152.442 79.9917C152.556 80.3005 154.801 94.7916 154.411 100.74C154.02 106.669 154.264 125.482 154.118 130.299C148.667 137.071 137.067 135.96 133.422 134.292C129.761 132.646 128.281 130.608 127.988 129.661C127.695 128.714 124.409 110.765 124.409 110.765C124.409 110.765 121.968 102.511 121.61 96.9117C121.252 91.3129 120.601 80.918 123.335 77.4599V77.4393Z" fill="#E6EBF6"/>
<path d="M131.405 87.9985C130.429 93.8855 131.682 113.914 132.56 118.483C133.488 116.734 135.57 112.329 135.57 112.329L132.56 87.9985H131.405Z" fill="#4F5465"/>
<path d="M133.667 71.8396C128.054 77.4384 127.533 81.8434 127.533 88.6361C127.533 91.806 129.567 103.868 132.788 113.913C133.651 126.675 134.529 137.132 134.529 137.132C134.529 137.132 128.265 133.344 126.866 130.442C125.483 127.54 121.969 106.668 121.269 96.8491C120.57 87.0305 119.252 70.5633 133.651 71.8396H133.667Z" fill="#4F5465"/>
<path d="M142.209 72.9717C145.268 77.0473 133.277 105.659 132.789 113.893C132.561 117.845 132.496 124.637 132.626 128.528C132.902 137.029 133.944 138.943 135.066 139.89C141.005 144.913 158.219 141.269 157.714 131.718C157.21 122.147 153.517 81.1229 151.906 79.538C150.311 77.953 142.209 72.9717 142.209 72.9717Z" fill="#4F5465"/>
<path d="M132.023 73.6515C126.817 77.9124 128.574 87.3398 128.883 91.6625C129.192 95.9851 132.804 113.893 132.804 113.893L133.13 124.267C133.13 124.267 125.922 108.85 124.474 89.5423C123.026 70.2345 132.039 73.6515 132.039 73.6515H132.023Z" fill="#686C7B"/>
<path d="M127.746 73.2603C128.348 74.0631 129.438 77.6241 129.422 79.8677C129.422 82.1114 130.837 83.12 132.318 82.9759C133.799 82.8318 135.686 82.0496 137.801 79.5178C139.916 76.986 141.982 74.1042 141.445 73.322C140.909 72.5193 139.363 69.267 139.363 69.267C139.363 69.267 138.647 64.5739 138.501 62.8448C138.338 61.0952 138.094 55.0435 137.02 54.5083C135.946 53.9731 131.325 58.2957 131.325 58.2957L127.779 73.3015L127.746 73.2603Z" fill="#FF9071"/>
<path d="M134.66 59.4696C134.66 59.4696 135.815 69.7204 135.539 70.729C135.262 71.7377 129.307 77.3571 128.477 77.4394C127.648 77.5217 126.021 77.213 125.012 75.7721C124.573 75.134 121.384 65.9741 120.896 62.0426C120.407 58.1111 120.31 52.4916 121.091 51.5036C121.872 50.5156 126.704 47.8397 128.624 48.0043C130.56 48.169 134.302 53.2738 134.302 53.2738L134.644 59.4696H134.66Z" fill="#FF9071"/>
<path d="M151.124 79.209C149.09 79.106 146.031 83.1405 146.601 89.8303C147.17 96.5201 154.85 117.433 154.85 117.433C154.85 117.433 162.415 120.521 163.001 118.298C163.587 116.075 159.828 97.4052 157.095 89.9538C154.362 82.5024 153.044 79.6 151.124 79.209Z" fill="#686C7B"/>
<path d="M113.67 107.78C112.45 105.042 109.505 101.851 108.35 102.098C107.195 102.345 94.9761 108.891 94.9761 108.891C94.9761 108.891 93.6257 109.488 94.0324 112.226C94.4392 114.963 94.8297 116.281 95.4317 116.445C96.0336 116.61 111.393 115.972 115.021 111.917C115.72 110.003 113.654 107.8 113.654 107.8L113.67 107.78Z" fill="#686C7B"/>
<path d="M95.074 109.735C95.6272 111.012 95.3506 114.346 95.2367 114.676C95.1228 115.005 94.6835 115.437 94.6835 115.437L92.5359 115.211C92.5359 115.211 91.1692 115.664 90.0303 115.396C88.8914 115.128 83.4897 111.917 83.2945 110.806C83.0993 109.694 82.2207 105.166 84.7263 104.301C87.2318 103.416 89.9001 104.26 89.9001 104.26C89.9001 104.26 90.7299 104.384 91.039 105.598C91.3482 106.813 95.0577 109.777 95.0577 109.777L95.074 109.735Z" fill="#FF9071"/>
<path d="M88.8434 94.5239L74.7373 100.72L76.9012 131.801L91.0073 125.626L88.8434 94.5239Z" fill="#F6F5F9"/>
<path d="M87.4094 98.9902L76.6875 103.704L78.3308 127.334L89.0527 122.621L87.4094 98.9902Z" fill="#D7D8DC"/>
<path d="M88.4845 99.4434L75.5986 105.083L75.7288 106.73L88.5984 101.09L88.4845 99.4434Z" fill="#F6F5F9"/>
<path d="M88.6788 101.955L75.793 107.595L75.9068 109.242L88.7927 103.602L88.6788 101.955Z" fill="#F6F5F9"/>
<path d="M88.8585 104.466L75.9727 110.106L76.0865 111.753L88.9724 106.113L88.8585 104.466Z" fill="#F6F5F9"/>
<path d="M89.0528 106.977L76.167 112.617L76.2809 114.264L89.1667 108.624L89.0528 106.977Z" fill="#F6F5F9"/>
<path d="M89.2345 109.488L76.3486 115.149L76.4625 116.775L89.3484 111.135L89.2345 109.488Z" fill="#F6F5F9"/>
<path d="M89.4278 112L76.542 117.66L76.6559 119.286L89.5417 113.646L89.4278 112Z" fill="#F6F5F9"/>
<path d="M89.6066 114.51L76.7207 120.171L76.8346 121.818L89.7205 116.157L89.6066 114.51Z" fill="#F6F5F9"/>
<path d="M89.8038 117.022L76.918 122.683L77.0318 124.329L89.9177 118.669L89.8038 117.022Z" fill="#F6F5F9"/>
<path d="M89.9806 119.533L77.0947 125.193L77.2086 126.84L90.0945 121.179L89.9806 119.533Z" fill="#F6F5F9"/>
<path d="M91.2188 108.15C91.2188 108.15 88.1763 108.747 87.7207 108.953C87.2489 109.138 86.1913 109.056 85.5405 109.427C84.8897 109.797 85.0524 111.073 85.931 111.361C86.8259 111.65 88.2251 111.32 88.2251 111.32C88.2251 111.32 89.6243 111.444 89.9334 112.164C90.2426 112.885 90.4703 113.564 91.5116 113.749C92.5529 113.914 94.424 114.367 94.3751 112.391C94.3263 110.394 91.235 108.171 91.235 108.171L91.2188 108.15Z" fill="#FF9071"/>
<path d="M123.14 55.1053C126.654 56.6903 128.981 55.5582 129.079 55.9699C129.176 56.361 129.567 59.8602 129.567 59.8602L131.535 60.5395L132.967 64.0182L134.513 63.5448C134.513 63.5448 134.301 60.9512 135.554 59.8808C136.791 58.8104 137.848 61.1364 137.767 62.6185C137.685 64.1005 139.052 67.0852 139.052 67.0852C139.052 67.0852 140.093 62.6185 140.386 61.4864C142.306 54.4672 143.868 48.6625 135.505 44.9368C130.104 38.6176 122.994 43.4136 121.236 47.1805C119.479 50.968 120.634 53.5615 120.634 53.5615C120.634 53.5615 121.09 54.2202 123.14 55.1465V55.1053Z" fill="#4D2A16"/>
<path d="M134.983 62.3504C134.788 59.8392 135.601 59.057 136.919 59.2628C138.237 59.4687 137.944 61.5476 137.505 63.359C137.065 65.1704 136.772 66.4466 135.715 66.179C134.657 65.9114 134.983 62.371 134.983 62.371V62.3504Z" fill="#FF9071"/>
<path d="M140.991 72.5191C141.186 74.7011 137.216 81.4938 131.733 82.173L131.668 82.9346L133.588 86.3927C133.588 86.3927 143.22 82.7082 143.415 74.6187C142.959 73.4454 140.242 71.0371 140.242 71.0371L140.991 72.4986V72.5191Z" fill="#F6F5F9"/>
<path d="M131.73 82.1941C129.957 81.453 129.599 80.2592 129.322 78.5713C128.053 80.5473 128.802 83.9025 129.908 85.2817C130.705 84.3554 131.649 82.9763 131.649 82.9763L131.714 82.2147L131.73 82.1941Z" fill="#F6F5F9"/>
<path d="M118.878 127.808L120.277 127.067C121.611 126.368 123.238 126.532 124.93 127.767L123.531 128.508C121.839 127.273 120.212 127.109 118.878 127.808Z" fill="#D3E1F8"/>
<path d="M156.885 174.164L155.485 174.905C157.112 174.041 158.284 171.879 158.577 168.709L159.976 167.968C159.683 171.138 158.512 173.3 156.885 174.164Z" fill="#D3E1F8"/>
<path d="M123.514 128.508L124.913 127.767L154.443 149.339L153.06 150.08L123.514 128.508Z" fill="#D3E1F8"/>
<path d="M158.871 165.476L160.27 164.735L159.977 167.967L158.578 168.708L158.871 165.476Z" fill="#D3E1F8"/>
<path d="M152.508 152.797C155.339 154.855 157.308 160.063 156.901 164.427L156.608 167.658C156.218 172.002 153.598 173.875 150.767 171.816L121.237 150.244C118.406 148.186 116.437 142.978 116.844 138.614L117.137 135.383C117.528 131.04 120.163 129.166 122.978 131.245L152.508 152.817V152.797Z" fill="#F3F7FC"/>
<path d="M153.06 150.08L123.53 128.508C119.788 125.77 116.323 128.24 115.802 134.004L115.509 137.236C114.972 142.999 117.592 149.895 121.334 152.632L150.864 174.204C154.606 176.942 158.072 174.472 158.592 168.709L158.885 165.477C159.422 159.713 156.819 152.818 153.077 150.101L153.06 150.08ZM156.607 167.659C156.217 172.002 153.597 173.875 150.766 171.817L121.236 150.245C118.405 148.186 116.437 142.979 116.843 138.615L117.136 135.383C117.527 131.04 120.163 129.167 122.977 131.246L152.507 152.818C155.338 154.876 157.307 160.084 156.9 164.448L156.607 167.679V167.659Z" fill="#E6EFFB"/>
<path d="M153.062 150.08L154.461 149.339C158.203 152.077 160.806 158.952 160.269 164.715L158.87 165.456C159.407 159.693 156.804 152.797 153.062 150.08Z" fill="#D3E1F8"/>
<path d="M142.208 72.9728C142.664 74.1255 141.086 78.16 140.012 84.2528C138.434 93.1039 133.146 109.118 132.804 113.873C132.463 118.71 133.195 122.127 133.13 124.248C133.13 124.248 141.102 101.976 141.899 97.9824C145.381 80.6301 146.52 78.2217 145.446 75.4223C144.372 72.6023 141.004 71.7378 141.004 71.7378L142.208 72.9522V72.9728Z" fill="#686C7B"/>
<path d="M159.503 115.87C157.03 114.12 154.378 116.117 154.378 116.117C154.378 116.117 142.126 134.766 141.541 136.021C140.955 137.277 144.551 142.032 145.657 141.806C146.763 141.579 163.391 123.301 163.001 118.299C161.732 116.57 159.503 115.87 159.503 115.87Z" fill="#686C7B"/>
<path d="M142.175 136.165L138.563 138.676C138.563 138.676 135.683 139.52 135.081 139.911C134.479 140.323 132.755 143.37 132.657 143.74C132.559 144.111 132.885 145.16 132.885 145.16C132.885 145.16 132.706 147.116 132.868 147.528C133.031 147.939 134.138 148.454 134.138 148.454C134.138 148.454 134.3 149.277 134.805 149.442C135.309 149.607 135.602 149.504 135.602 149.504C135.602 149.504 135.699 150.224 136.936 149.709C138.156 149.215 138.238 148.001 139.279 147.363C140.304 146.725 142.126 145.84 143.46 143.946C144.794 142.052 145.006 141.27 145.006 141.27C145.006 141.27 145.445 140.714 145.396 140.303C145.348 139.891 143.721 137.05 142.207 136.124L142.175 136.165Z" fill="#FF9071"/>
<path d="M131.667 82.9561C131.667 82.9561 130.186 84.7058 130.202 86.4142C130.202 88.1021 131.26 90.2017 131.26 90.2017L132.578 90.6134C132.578 90.6134 134.416 88.7608 133.603 86.3937C132.789 84.0265 131.683 82.9355 131.683 82.9355L131.667 82.9561Z" fill="#4F5465"/>
</g>
<defs>
<clipPath id="clip0_326_24936">
<rect width="179.249" height="264.201" fill="white" transform="translate(0.431641 0.844727)"/>
</clipPath>
</defs>
</svg>
