<svg width="149" height="229" viewBox="0 0 149 229" fill="none" xmlns="http://www.w3.org/2000/svg">
<g clip-path="url(#clip0_313_10845)">
<path d="M123.723 28.6504H120.726V106.326H123.723V28.6504Z" fill="#4D4D4D"/>
<path d="M120.727 28.6504H115.639V106.326H120.727V28.6504Z" fill="#3A3A3A"/>
<path d="M121.204 30.6371C120.973 30.5874 120.726 30.5046 120.496 30.4219C118.651 29.7597 117.054 28.2863 116.132 26.3825L107.882 9.49654C106.548 6.76499 106.795 3.73545 108.507 1.78198C110.22 -0.171488 112.97 -0.55225 115.506 0.805247L133.554 10.5229C135.744 11.6983 137.292 13.9332 137.704 16.4661C138.116 18.999 137.276 21.3001 135.481 22.608L125.683 29.7597C124.415 30.6867 122.817 30.9682 121.204 30.604V30.6371ZM119.376 24.8925C119.755 25.6706 120.413 26.2832 121.171 26.548C121.945 26.8295 122.702 26.7301 123.295 26.2831L133.093 19.1315C133.834 18.6017 134.18 17.6581 134.015 16.6151C133.851 15.5722 133.208 14.6617 132.319 14.1816L114.271 4.46387C112.69 3.60302 111.669 4.54664 111.406 4.86118C111.126 5.17573 110.319 6.31801 111.142 8.02316L119.392 24.9091L119.376 24.8925Z" fill="#4D4D4D"/>
<path d="M122.226 31.7625L125.47 29.9415V29.1138L121.32 31.1169L122.226 31.7625Z" fill="#4D4D4D"/>
<path d="M107.52 2.01361L110.023 0.606445L110.566 1.20242L108.392 3.38766L107.52 2.01361Z" fill="#4D4D4D"/>
<path d="M118.635 32.0775C118.405 32.0279 118.158 31.9451 117.927 31.8623C116.083 31.2001 114.485 29.7268 113.563 27.823L105.313 10.937C103.979 8.20547 104.226 5.19249 105.939 3.23901C107.652 1.28554 110.402 0.904781 112.938 2.26228L130.986 11.98C133.176 13.1554 134.724 15.3903 135.136 17.9232C135.547 20.456 134.707 22.7572 132.912 24.065L123.114 31.2167C121.846 32.1438 120.249 32.4252 118.635 32.061V32.0775ZM116.807 26.333C117.186 27.1111 117.845 27.7236 118.602 27.9885C119.376 28.2699 120.134 28.1706 120.727 27.7236L130.525 20.5719C131.266 20.0422 131.612 19.0986 131.447 18.0556C131.282 17.0126 130.64 16.1021 129.751 15.622L111.702 5.90434C110.122 5.04349 109.101 5.98712 108.837 6.30166C108.557 6.6162 107.75 7.75849 108.574 9.46363L116.824 26.3496L116.807 26.333Z" fill="#3A3A3A"/>
<path d="M140.965 138.889L55.1201 188.918C50.5422 191.584 43.56 191.881 39.5914 189.597C35.6228 187.296 36.1168 183.24 40.6947 180.575L126.572 130.513L140.965 138.873V138.889Z" fill="#4D4D4D"/>
<path d="M140.965 135.115V138.889L134.658 140.114L133.39 134.039L140.965 135.115Z" fill="#4D4D4D"/>
<path d="M36.9077 181.882V185.69L38.3239 187.362L39.0155 182.826L36.9077 181.882Z" fill="#4D4D4D"/>
<path d="M140.965 135.115L55.1201 185.144C50.5422 187.809 43.56 188.107 39.5914 185.822C35.6228 183.521 36.1168 179.465 40.6947 176.8L126.572 126.738L140.965 135.098V135.115Z" fill="#707070"/>
<path d="M53.3094 178.886C53.5399 180.359 51.6956 181.882 49.1596 182.296C46.6401 182.71 44.4005 181.849 44.1535 180.376C43.9229 178.903 45.7673 177.379 48.3033 176.966C50.8228 176.552 53.0624 177.413 53.3094 178.886Z" fill="#3ADCC9"/>
<path d="M52.634 178.224C52.8481 179.548 51.1849 180.906 48.9288 181.27C46.6728 181.634 44.6638 180.873 44.4497 179.548C44.2356 178.224 45.8988 176.866 48.1549 176.502C50.4109 176.138 52.4199 176.916 52.634 178.224Z" fill="#3AB9C9"/>
<path d="M104.967 117.997L19.1226 168.026C14.5447 170.691 7.56251 170.989 3.59387 168.704C-0.374773 166.403 0.119221 162.347 4.69715 159.682L90.5745 109.62L104.967 117.98V117.997Z" fill="#4D4D4D"/>
<path d="M104.967 114.239V117.997L98.6602 119.238L97.4087 113.146L104.967 114.239Z" fill="#4D4D4D"/>
<path d="M0.909668 161.007V164.814L2.34232 166.486L3.03397 161.95L0.909668 161.007Z" fill="#4D4D4D"/>
<path d="M104.967 114.239L19.1224 164.268C14.5444 166.933 7.56226 167.231 3.59362 164.947C-0.375017 162.645 0.118977 158.589 4.69691 155.924L90.5743 105.862L104.967 114.222V114.239Z" fill="#707070"/>
<path d="M17.3115 158.01C17.5421 159.483 15.6978 161.006 13.1618 161.42C10.6423 161.834 8.4027 160.973 8.15569 159.5C7.92514 158.027 9.76947 156.504 12.3054 156.09C14.825 155.676 17.0645 156.537 17.3115 158.01Z" fill="#3ADCC9"/>
<path d="M16.6364 157.331C16.8505 158.656 15.1873 160.013 12.9313 160.377C10.6752 160.741 8.66622 159.963 8.45215 158.656C8.23807 157.331 9.90128 155.974 12.1573 155.609C14.4133 155.245 16.4224 156.007 16.6364 157.331Z" fill="#3AB9C9"/>
<path d="M85.041 109.107L95.8107 80.6326L132.862 102.154L135.415 138.359L85.041 109.107Z" fill="#3AB9C9"/>
<path d="M135.416 138.36L140.965 135.115L138.281 99.0088L132.864 102.154L135.416 138.36Z" fill="#3AB9C9"/>
<path d="M95.8113 80.6327L132.863 102.154L138.281 99.0086L101.278 77.4873L95.8113 80.6327Z" fill="#3ADCC9"/>
<path d="M83.1476 183.62L83.1311 150.56L130.837 122.831V155.825L83.1476 183.62Z" fill="url(#paint0_linear_313_10845)"/>
<path d="M83.148 183.621L83.1315 150.561L14.446 110.663V143.657L83.148 183.621Z" fill="url(#paint1_linear_313_10845)"/>
<path d="M14.446 110.663L83.1315 150.56L130.837 122.831L62.152 82.9504L14.446 110.663Z" fill="url(#paint2_linear_313_10845)"/>
<path d="M113.102 150.593L102.464 156.801V139.286L113.102 133.062V150.593Z" fill="#4D4D4D"/>
<path d="M113.102 133.062L44.4654 93.2144L33.811 99.4224L102.464 139.303L113.102 133.062Z" fill="#6D6D6D"/>
<path d="M86.7048 178.14V175.061L102.711 165.724V168.853L86.7048 178.14Z" fill="#4D4D4D"/>
<path d="M86.7048 172.628V169.532L102.711 160.195V163.324L86.7048 172.628Z" fill="#4D4D4D"/>
<path d="M24.096 134.254V145.412L16.4387 140.975V129.817L24.096 134.254Z" fill="#4D4D4D"/>
<path d="M34.5523 140.363V151.521L26.895 147.067V135.909L34.5523 140.363Z" fill="#4D4D4D"/>
<path d="M45.141 146.471V157.629L37.4836 153.176V142.018L45.141 146.471Z" fill="#4D4D4D"/>
<path d="M81.0568 151.918V167.96L65.314 158.821V142.763L81.0568 151.918Z" fill="white"/>
<path d="M79.1296 155.212V152.596L66.7461 145.412V147.978L79.1296 155.212Z" fill="#4D4D4D"/>
<path d="M77.368 137.532L77.3516 118.179L108.162 100.267V119.586L77.368 137.532Z" fill="url(#paint3_linear_313_10845)"/>
<path d="M77.3676 137.531L77.3512 118.179L33.021 92.4194V111.739L77.3676 137.531Z" fill="url(#paint4_linear_313_10845)"/>
<path d="M33.021 92.4527L77.3512 118.212L108.162 100.3L63.815 74.5569L33.021 92.4527Z" fill="url(#paint5_linear_313_10845)"/>
<path d="M79.6738 134.005V132.002L90.0153 125.976V127.996L79.6738 134.005Z" fill="#4D4D4D"/>
<path d="M79.6738 130.43V128.443L90.0153 122.417V124.437L79.6738 130.43Z" fill="#4D4D4D"/>
<path d="M40.6787 100.234V109.223L34.5034 105.647V96.6577L40.6787 100.234Z" fill="#4D4D4D"/>
<path d="M49.0935 105.15V114.139L42.9182 110.547V101.574L49.0935 105.15Z" fill="#4D4D4D"/>
<path d="M74.9476 120.232V130.959L59.2048 121.805V111.061L74.9476 120.232Z" fill="white"/>
<path d="M73.021 123.51V120.894L60.6375 113.709V116.275L73.021 123.51Z" fill="#4D4D4D"/>
<path d="M100.389 114.984L89.7349 121.192V111.011L100.389 104.803V114.984Z" fill="#4D4D4D"/>
<path d="M100.39 104.803L56.0927 79.0435L45.3889 85.2681L89.7356 111.027L100.39 104.803Z" fill="#6D6D6D"/>
<path d="M12.5029 208.016C14.1822 208.016 15.6555 208.344 16.9226 209C18.205 209.657 19.1897 210.596 19.8767 211.817C20.579 213.023 20.9301 214.428 20.9301 216.031C20.9301 217.634 20.579 219.038 19.8767 220.244C19.1897 221.435 18.205 222.359 16.9226 223.015C15.6555 223.672 14.1822 224 12.5029 224H6.91531V208.016H12.5029ZM12.3884 221.275C14.0677 221.275 15.3654 220.817 16.2814 219.901C17.1974 218.985 17.6554 217.695 17.6554 216.031C17.6554 214.367 17.1974 213.069 16.2814 212.138C15.3654 211.191 14.0677 210.718 12.3884 210.718H10.1213V221.275H12.3884ZM24.9559 209.802C24.391 209.802 23.9177 209.626 23.5361 209.275C23.1697 208.909 22.9865 208.459 22.9865 207.924C22.9865 207.39 23.1697 206.947 23.5361 206.596C23.9177 206.23 24.391 206.046 24.9559 206.046C25.5207 206.046 25.9864 206.23 26.3528 206.596C26.7344 206.947 26.9253 207.39 26.9253 207.924C26.9253 208.459 26.7344 208.909 26.3528 209.275C25.9864 209.626 25.5207 209.802 24.9559 209.802ZM26.536 211.313V224H23.33V211.313H26.536ZM34.5583 224.206C33.5202 224.206 32.5889 224.023 31.7645 223.656C30.9401 223.275 30.2836 222.763 29.7951 222.122C29.3218 221.481 29.0623 220.771 29.0165 219.992H32.2454C32.3065 220.481 32.5431 220.886 32.9553 221.206C33.3828 221.527 33.9095 221.687 34.5354 221.687C35.1461 221.687 35.6193 221.565 35.9552 221.321C36.3063 221.076 36.4819 220.763 36.4819 220.382C36.4819 219.97 36.2682 219.664 35.8407 219.466C35.4285 219.252 34.7644 219.023 33.8484 218.779C32.9019 218.55 32.1233 218.313 31.5126 218.069C30.9172 217.825 30.3981 217.451 29.9554 216.947C29.5279 216.443 29.3142 215.764 29.3142 214.909C29.3142 214.206 29.5127 213.565 29.9096 212.985C30.3218 212.405 30.9019 211.947 31.65 211.611C32.4133 211.275 33.3064 211.107 34.3293 211.107C35.8407 211.107 37.0468 211.489 37.9475 212.252C38.8482 213 39.3444 214.016 39.436 215.298H36.3674C36.3216 214.794 36.1079 214.397 35.7262 214.107C35.3598 213.802 34.8636 213.649 34.2377 213.649C33.6576 213.649 33.2072 213.756 32.8866 213.97C32.5813 214.184 32.4286 214.481 32.4286 214.863C32.4286 215.29 32.6423 215.619 33.0698 215.848C33.4973 216.061 34.1614 216.283 35.0621 216.512C35.9781 216.741 36.7338 216.977 37.3292 217.222C37.9246 217.466 38.436 217.848 38.8635 218.367C39.3062 218.87 39.5352 219.542 39.5505 220.382C39.5505 221.115 39.3444 221.771 38.9322 222.351C38.5353 222.931 37.9551 223.389 37.1918 223.725C36.4437 224.046 35.5659 224.206 34.5583 224.206ZM45.9149 213.947V220.084C45.9149 220.512 46.0141 220.825 46.2126 221.023C46.4263 221.206 46.7775 221.298 47.266 221.298H48.7545V224H46.7393C44.0371 224 42.686 222.687 42.686 220.061V213.947H41.1746V211.313H42.686V208.176H45.9149V211.313H48.7545V213.947H45.9149ZM54.2664 213.283C54.6786 212.611 55.213 212.084 55.8694 211.703C56.5412 211.321 57.3045 211.13 58.1594 211.13V214.496H57.3121C56.3045 214.496 55.5412 214.733 55.0221 215.206C54.5183 215.68 54.2664 216.504 54.2664 217.68V224H51.0604V211.313H54.2664V213.283ZM61.9447 209.802C61.3799 209.802 60.9066 209.626 60.5249 209.275C60.1585 208.909 59.9753 208.459 59.9753 207.924C59.9753 207.39 60.1585 206.947 60.5249 206.596C60.9066 206.23 61.3799 206.046 61.9447 206.046C62.5096 206.046 62.9752 206.23 63.3416 206.596C63.7233 206.947 63.9141 207.39 63.9141 207.924C63.9141 208.459 63.7233 208.909 63.3416 209.275C62.9752 209.626 62.5096 209.802 61.9447 209.802ZM63.5248 211.313V224H60.3188V211.313H63.5248ZM69.8984 213.168C70.3106 212.558 70.8754 212.061 71.593 211.68C72.3258 211.298 73.1578 211.107 74.0891 211.107C75.173 211.107 76.1501 211.374 77.0203 211.909C77.9057 212.443 78.6004 213.206 79.1042 214.199C79.6232 215.176 79.8828 216.313 79.8828 217.611C79.8828 218.909 79.6232 220.061 79.1042 221.069C78.6004 222.061 77.9057 222.832 77.0203 223.382C76.1501 223.931 75.173 224.206 74.0891 224.206C73.1425 224.206 72.3105 224.023 71.593 223.656C70.8907 223.275 70.3258 222.786 69.8984 222.191V224H66.6924V207.054H69.8984V213.168ZM76.6081 217.611C76.6081 216.848 76.4478 216.191 76.1272 215.641C75.8218 215.077 75.4096 214.649 74.8906 214.359C74.3868 214.069 73.8372 213.924 73.2418 213.924C72.6616 213.924 72.112 214.077 71.593 214.382C71.0892 214.672 70.677 215.1 70.3564 215.664C70.051 216.229 69.8984 216.893 69.8984 217.657C69.8984 218.42 70.051 219.084 70.3564 219.649C70.677 220.214 71.0892 220.649 71.593 220.954C72.112 221.244 72.6616 221.389 73.2418 221.389C73.8372 221.389 74.3868 221.237 74.8906 220.931C75.4096 220.626 75.8218 220.191 76.1272 219.626C76.4478 219.061 76.6081 218.389 76.6081 217.611ZM94.1892 211.313V224H90.9603V222.397C90.5481 222.947 90.0061 223.382 89.3344 223.702C88.6779 224.008 87.9604 224.16 87.1818 224.16C86.1894 224.16 85.3116 223.954 84.5483 223.542C83.7849 223.115 83.1819 222.496 82.7392 221.687C82.3117 220.863 82.098 219.886 82.098 218.756V211.313H85.304V218.298C85.304 219.305 85.5559 220.084 86.0597 220.634C86.5635 221.168 87.2505 221.435 88.1207 221.435C89.0061 221.435 89.7008 221.168 90.2046 220.634C90.7084 220.084 90.9603 219.305 90.9603 218.298V211.313H94.1892ZM96.528 217.657C96.528 216.344 96.7952 215.199 97.3295 214.222C97.8638 213.229 98.6043 212.466 99.5508 211.932C100.497 211.382 101.581 211.107 102.803 211.107C104.375 211.107 105.673 211.504 106.696 212.298C107.734 213.077 108.428 214.176 108.78 215.596H105.322C105.138 215.046 104.825 214.619 104.383 214.313C103.955 213.993 103.421 213.832 102.78 213.832C101.864 213.832 101.139 214.168 100.604 214.84C100.07 215.496 99.8027 216.435 99.8027 217.657C99.8027 218.863 100.07 219.802 100.604 220.473C101.139 221.13 101.864 221.458 102.78 221.458C104.077 221.458 104.925 220.878 105.322 219.718H108.78C108.428 221.092 107.734 222.183 106.696 222.992C105.657 223.802 104.36 224.206 102.803 224.206C101.581 224.206 100.497 223.939 99.5508 223.405C98.6043 222.855 97.8638 222.092 97.3295 221.115C96.7952 220.122 96.528 218.97 96.528 217.657ZM112.754 209.802C112.189 209.802 111.716 209.626 111.334 209.275C110.968 208.909 110.785 208.459 110.785 207.924C110.785 207.39 110.968 206.947 111.334 206.596C111.716 206.23 112.189 206.046 112.754 206.046C113.319 206.046 113.785 206.23 114.151 206.596C114.533 206.947 114.723 207.39 114.723 207.924C114.723 208.459 114.533 208.909 114.151 209.275C113.785 209.626 113.319 209.802 112.754 209.802ZM114.334 211.313V224H111.128V211.313H114.334ZM123.135 224.206C121.914 224.206 120.815 223.939 119.838 223.405C118.86 222.855 118.089 222.084 117.525 221.092C116.975 220.099 116.7 218.954 116.7 217.657C116.7 216.359 116.983 215.214 117.548 214.222C118.128 213.229 118.914 212.466 119.906 211.932C120.899 211.382 122.005 211.107 123.227 211.107C124.448 211.107 125.555 211.382 126.547 211.932C127.54 212.466 128.318 213.229 128.883 214.222C129.463 215.214 129.753 216.359 129.753 217.657C129.753 218.954 129.456 220.099 128.86 221.092C128.28 222.084 127.486 222.855 126.479 223.405C125.486 223.939 124.372 224.206 123.135 224.206ZM123.135 221.412C123.715 221.412 124.257 221.275 124.761 221C125.28 220.71 125.692 220.283 125.998 219.718C126.303 219.153 126.456 218.466 126.456 217.657C126.456 216.451 126.135 215.527 125.494 214.886C124.868 214.229 124.097 213.901 123.181 213.901C122.265 213.901 121.494 214.229 120.868 214.886C120.257 215.527 119.952 216.451 119.952 217.657C119.952 218.863 120.25 219.794 120.845 220.451C121.456 221.092 122.219 221.412 123.135 221.412ZM125.86 207.855L120.593 210.26V207.97L125.86 205.245V207.855ZM139.135 211.13C140.647 211.13 141.868 211.611 142.799 212.573C143.731 213.519 144.196 214.848 144.196 216.557V224H140.99V216.993C140.99 215.985 140.738 215.214 140.234 214.68C139.731 214.13 139.044 213.855 138.173 213.855C137.288 213.855 136.586 214.13 136.067 214.68C135.563 215.214 135.311 215.985 135.311 216.993V224H132.105V211.313H135.311V212.893C135.738 212.344 136.28 211.916 136.937 211.611C137.609 211.29 138.341 211.13 139.135 211.13Z" fill="white"/>
</g>
<defs>
<linearGradient id="paint0_linear_313_10845" x1="130.837" y1="153.226" x2="83.1311" y2="153.226" gradientUnits="userSpaceOnUse">
<stop stop-color="#FDFDFD"/>
<stop offset="1" stop-color="#BAC6EB"/>
</linearGradient>
<linearGradient id="paint1_linear_313_10845" x1="83.148" y1="147.15" x2="14.446" y2="147.15" gradientUnits="userSpaceOnUse">
<stop stop-color="#BAC6EB"/>
</linearGradient>
<linearGradient id="paint2_linear_313_10845" x1="130.837" y1="116.755" x2="14.446" y2="116.755" gradientUnits="userSpaceOnUse">
<stop stop-color="#FDFDFD"/>
<stop offset="1" stop-color="#BAC6EB"/>
</linearGradient>
<linearGradient id="paint3_linear_313_10845" x1="108.162" y1="118.907" x2="77.3516" y2="118.907" gradientUnits="userSpaceOnUse">
<stop stop-color="#FDFDFD"/>
<stop offset="1" stop-color="#BAC6EB"/>
</linearGradient>
<linearGradient id="paint4_linear_313_10845" x1="77.3676" y1="114.984" x2="33.021" y2="114.984" gradientUnits="userSpaceOnUse">
<stop stop-color="#BAC6EB"/>
</linearGradient>
<linearGradient id="paint5_linear_313_10845" x1="108.162" y1="96.3927" x2="33.021" y2="96.3927" gradientUnits="userSpaceOnUse">
<stop stop-color="#FDFDFD"/>
<stop offset="1" stop-color="#BAC6EB"/>
</linearGradient>
<clipPath id="clip0_313_10845">
<rect width="148.09" height="229" fill="white" transform="translate(0.909668)"/>
</clipPath>
</defs>
</svg>
