<svg width="217" height="247" viewBox="0 0 217 247" fill="none" xmlns="http://www.w3.org/2000/svg">
<g clip-path="url(#clip0_326_24934)">
<path d="M21.5523 219.97C23.2316 219.97 24.7049 220.298 25.972 220.955C27.2544 221.611 28.2391 222.55 28.9261 223.771C29.6284 224.977 29.9795 226.382 29.9795 227.985C29.9795 229.588 29.6284 230.992 28.9261 232.199C28.2391 233.389 27.2544 234.313 25.972 234.969C24.7049 235.626 23.2316 235.954 21.5523 235.954H15.9647V219.97H21.5523ZM21.4378 233.229C23.1171 233.229 24.4148 232.771 25.3308 231.855C26.2468 230.939 26.7048 229.649 26.7048 227.985C26.7048 226.321 26.2468 225.023 25.3308 224.092C24.4148 223.145 23.1171 222.672 21.4378 222.672H19.1707V233.229H21.4378ZM38.0128 236.16C36.7914 236.16 35.6922 235.893 34.7152 235.359C33.7381 234.809 32.9671 234.038 32.4023 233.046C31.8527 232.053 31.5779 230.908 31.5779 229.611C31.5779 228.313 31.8603 227.168 32.4252 226.176C33.0053 225.183 33.7915 224.42 34.7839 223.886C35.7762 223.336 36.883 223.061 38.1044 223.061C39.3257 223.061 40.4325 223.336 41.4249 223.886C42.4172 224.42 43.1958 225.183 43.7607 226.176C44.3408 227.168 44.6309 228.313 44.6309 229.611C44.6309 230.908 44.3332 232.053 43.7378 233.046C43.1576 234.038 42.3638 234.809 41.3562 235.359C40.3638 235.893 39.2494 236.16 38.0128 236.16ZM38.0128 233.366C38.5929 233.366 39.1349 233.229 39.6387 232.954C40.1577 232.664 40.5699 232.237 40.8753 231.672C41.1806 231.107 41.3333 230.42 41.3333 229.611C41.3333 228.405 41.0127 227.481 40.3715 226.84C39.7455 226.183 38.9746 225.855 38.0586 225.855C37.1426 225.855 36.3716 226.183 35.7457 226.84C35.135 227.481 34.8297 228.405 34.8297 229.611C34.8297 230.817 35.1274 231.748 35.7228 232.405C36.3334 233.046 37.0968 233.366 38.0128 233.366ZM46.1582 229.611C46.1582 228.298 46.4253 227.153 46.9597 226.176C47.494 225.183 48.2344 224.42 49.181 223.886C50.1275 223.336 51.2114 223.061 52.4328 223.061C54.0052 223.061 55.3029 223.458 56.3258 224.252C57.3639 225.031 58.0585 226.13 58.4097 227.55H54.9518C54.7686 227 54.4556 226.573 54.0129 226.267C53.5854 225.947 53.0511 225.787 52.4099 225.787C51.4939 225.787 50.7687 226.122 50.2344 226.794C49.7 227.451 49.4329 228.389 49.4329 229.611C49.4329 230.817 49.7 231.756 50.2344 232.428C50.7687 233.084 51.4939 233.412 52.4099 233.412C53.7075 233.412 54.5548 232.832 54.9518 231.672H58.4097C58.0585 233.046 57.3639 234.137 56.3258 234.947C55.2876 235.756 53.99 236.16 52.4328 236.16C51.2114 236.16 50.1275 235.893 49.181 235.359C48.2344 234.809 47.494 234.046 46.9597 233.069C46.4253 232.076 46.1582 230.924 46.1582 229.611ZM72.7351 223.268V235.954H69.5062V234.351C69.094 234.901 68.552 235.336 67.8803 235.656C67.2238 235.962 66.5063 236.114 65.7277 236.114C64.7353 236.114 63.8575 235.908 63.0942 235.496C62.3308 235.069 61.7278 234.45 61.2851 233.641C60.8576 232.817 60.6439 231.84 60.6439 230.71V223.268H63.8499V230.252C63.8499 231.26 64.1018 232.038 64.6056 232.588C65.1094 233.122 65.7964 233.389 66.6666 233.389C67.552 233.389 68.2467 233.122 68.7505 232.588C69.2543 232.038 69.5062 231.26 69.5062 230.252V223.268H72.7351ZM91.6535 223.084C93.2107 223.084 94.4626 223.565 95.4091 224.527C96.3709 225.474 96.8518 226.802 96.8518 228.512V235.954H93.6458V228.947C93.6458 227.954 93.3939 227.199 92.8901 226.68C92.3863 226.145 91.6993 225.878 90.8291 225.878C89.9589 225.878 89.2643 226.145 88.7452 226.68C88.2414 227.199 87.9895 227.954 87.9895 228.947V235.954H84.7835V228.947C84.7835 227.954 84.5316 227.199 84.0278 226.68C83.524 226.145 82.837 225.878 81.9668 225.878C81.0813 225.878 80.3791 226.145 79.86 226.68C79.3562 227.199 79.1043 227.954 79.1043 228.947V235.954H75.8983V223.268H79.1043V224.802C79.5165 224.267 80.0432 223.848 80.6844 223.542C81.3409 223.237 82.0584 223.084 82.837 223.084C83.8293 223.084 84.7148 223.298 85.4934 223.726C86.272 224.138 86.875 224.733 87.3025 225.512C87.7147 224.779 88.3101 224.191 89.0887 223.748C89.8826 223.306 90.7375 223.084 91.6535 223.084ZM111.688 229.336C111.688 229.794 111.657 230.206 111.596 230.573H102.321C102.398 231.489 102.718 232.206 103.283 232.725C103.848 233.244 104.543 233.504 105.367 233.504C106.558 233.504 107.405 232.992 107.909 231.97H111.367C111.001 233.191 110.298 234.198 109.26 234.992C108.222 235.771 106.947 236.16 105.436 236.16C104.215 236.16 103.115 235.893 102.138 235.359C101.176 234.809 100.421 234.038 99.8712 233.046C99.3369 232.053 99.0697 230.908 99.0697 229.611C99.0697 228.298 99.3369 227.145 99.8712 226.153C100.406 225.161 101.154 224.397 102.115 223.863C103.077 223.329 104.184 223.061 105.436 223.061C106.642 223.061 107.718 223.321 108.665 223.84C109.627 224.359 110.367 225.1 110.886 226.061C111.42 227.008 111.688 228.099 111.688 229.336ZM108.367 228.42C108.352 227.596 108.054 226.939 107.474 226.451C106.894 225.947 106.184 225.695 105.344 225.695C104.55 225.695 103.879 225.939 103.329 226.428C102.795 226.901 102.467 227.565 102.344 228.42H108.367ZM121.058 223.084C122.569 223.084 123.791 223.565 124.722 224.527C125.653 225.474 126.119 226.802 126.119 228.512V235.954H122.913V228.947C122.913 227.939 122.661 227.168 122.157 226.634C121.653 226.084 120.966 225.809 120.096 225.809C119.211 225.809 118.508 226.084 117.989 226.634C117.486 227.168 117.234 227.939 117.234 228.947V235.954H114.028V223.268H117.234V224.848C117.661 224.298 118.203 223.871 118.86 223.565C119.531 223.245 120.264 223.084 121.058 223.084ZM132.9 225.901V232.038C132.9 232.466 133 232.779 133.198 232.977C133.412 233.16 133.763 233.252 134.251 233.252H135.74V235.954H133.725C131.023 235.954 129.671 234.641 129.671 232.015V225.901H128.16V223.268H129.671V220.13H132.9V223.268H135.74V225.901H132.9ZM137.221 229.565C137.221 228.283 137.473 227.145 137.977 226.153C138.496 225.161 139.191 224.397 140.061 223.863C140.947 223.329 141.931 223.061 143.015 223.061C143.962 223.061 144.786 223.252 145.488 223.634C146.206 224.016 146.778 224.496 147.206 225.077V223.268H150.435V235.954H147.206V234.099C146.794 234.695 146.221 235.191 145.488 235.588C144.771 235.969 143.939 236.16 142.992 236.16C141.924 236.16 140.947 235.885 140.061 235.336C139.191 234.786 138.496 234.015 137.977 233.023C137.473 232.015 137.221 230.863 137.221 229.565ZM147.206 229.611C147.206 228.832 147.053 228.168 146.748 227.619C146.443 227.054 146.03 226.626 145.511 226.336C144.992 226.031 144.435 225.878 143.84 225.878C143.244 225.878 142.695 226.023 142.191 226.313C141.687 226.603 141.275 227.031 140.954 227.596C140.649 228.145 140.496 228.802 140.496 229.565C140.496 230.328 140.649 231 140.954 231.58C141.275 232.145 141.687 232.58 142.191 232.886C142.71 233.191 143.259 233.344 143.84 233.344C144.435 233.344 144.992 233.198 145.511 232.908C146.03 232.603 146.443 232.176 146.748 231.626C147.053 231.061 147.206 230.389 147.206 229.611ZM152.742 229.611C152.742 228.298 153.009 227.153 153.543 226.176C154.077 225.183 154.818 224.42 155.764 223.886C156.711 223.336 157.795 223.061 159.016 223.061C160.589 223.061 161.886 223.458 162.909 224.252C163.947 225.031 164.642 226.13 164.993 227.55H161.535C161.352 227 161.039 226.573 160.596 226.267C160.169 225.947 159.634 225.787 158.993 225.787C158.077 225.787 157.352 226.122 156.818 226.794C156.283 227.451 156.016 228.389 156.016 229.611C156.016 230.817 156.283 231.756 156.818 232.428C157.352 233.084 158.077 233.412 158.993 233.412C160.291 233.412 161.138 232.832 161.535 231.672H164.993C164.642 233.046 163.947 234.137 162.909 234.947C161.871 235.756 160.573 236.16 159.016 236.16C157.795 236.16 156.711 235.893 155.764 235.359C154.818 234.809 154.077 234.046 153.543 233.069C153.009 232.076 152.742 230.924 152.742 229.611ZM168.968 221.756C168.403 221.756 167.93 221.581 167.548 221.229C167.181 220.863 166.998 220.413 166.998 219.878C166.998 219.344 167.181 218.901 167.548 218.55C167.93 218.184 168.403 218.001 168.968 218.001C169.533 218.001 169.998 218.184 170.365 218.55C170.746 218.901 170.937 219.344 170.937 219.878C170.937 220.413 170.746 220.863 170.365 221.229C169.998 221.581 169.533 221.756 168.968 221.756ZM170.548 223.268V235.954H167.342V223.268H170.548ZM179.349 236.16C178.127 236.16 177.028 235.893 176.051 235.359C175.074 234.809 174.303 234.038 173.738 233.046C173.189 232.053 172.914 230.908 172.914 229.611C172.914 228.313 173.196 227.168 173.761 226.176C174.341 225.183 175.127 224.42 176.12 223.886C177.112 223.336 178.219 223.061 179.44 223.061C180.662 223.061 181.768 223.336 182.761 223.886C183.753 224.42 184.532 225.183 185.097 226.176C185.677 227.168 185.967 228.313 185.967 229.611C185.967 230.908 185.669 232.053 185.074 233.046C184.494 234.038 183.7 234.809 182.692 235.359C181.7 235.893 180.585 236.16 179.349 236.16ZM179.349 233.366C179.929 233.366 180.471 233.229 180.975 232.954C181.494 232.664 181.906 232.237 182.211 231.672C182.517 231.107 182.669 230.42 182.669 229.611C182.669 228.405 182.349 227.481 181.707 226.84C181.081 226.183 180.31 225.855 179.394 225.855C178.478 225.855 177.708 226.183 177.082 226.84C176.471 227.481 176.166 228.405 176.166 229.611C176.166 230.817 176.463 231.748 177.059 232.405C177.669 233.046 178.433 233.366 179.349 233.366ZM182.074 219.81L176.807 222.214V219.924L182.074 217.199V219.81ZM195.349 223.084C196.86 223.084 198.082 223.565 199.013 224.527C199.944 225.474 200.41 226.802 200.41 228.512V235.954H197.204V228.947C197.204 227.939 196.952 227.168 196.448 226.634C195.944 226.084 195.257 225.809 194.387 225.809C193.502 225.809 192.799 226.084 192.28 226.634C191.776 227.168 191.525 227.939 191.525 228.947V235.954H188.319V223.268H191.525V224.848C191.952 224.298 192.494 223.871 193.15 223.565C193.822 223.245 194.555 223.084 195.349 223.084Z" fill="white"/>
<g clip-path="url(#clip1_326_24934)">
<path d="M72.1799 121.613C72.0868 122.925 71.0998 124.404 69.9826 124.904L61.8638 128.527C61.3796 128.749 60.9513 128.73 60.6348 128.546L122.252 164.189C122.569 164.374 122.997 164.374 123.481 164.171L131.6 160.547C132.717 160.048 133.685 158.588 133.797 157.257L72.1799 121.613Z" fill="url(#paint0_linear_326_24934)"/>
<path d="M65.4575 120.078L62.4222 121.428C60.8208 122.13 59.4056 124.256 59.2753 126.161L59.1821 127.418C59.1077 128.49 59.4428 129.266 60.0387 129.599L121.656 165.243C121.06 164.892 120.725 164.115 120.799 163.061L120.893 161.804C121.042 159.9 122.457 157.793 124.04 157.072L127.075 155.722L65.4575 120.078Z" fill="url(#paint1_linear_326_24934)"/>
<path d="M149.141 48.9198L87.5234 13.276L87.6165 12.2222L149.234 47.866L149.141 48.9198Z" fill="#A7A7A7"/>
<path d="M151.543 37.846L89.9253 2.20215C90.4467 2.49795 90.7446 3.18198 90.6701 4.12485L90.3722 8.06268C90.2419 9.72655 88.9942 11.5938 87.5977 12.2224L149.215 47.8662C150.612 47.2376 151.859 45.3704 151.99 43.7065L152.287 39.7687C152.362 38.8258 152.064 38.1418 151.543 37.846Z" fill="url(#paint2_linear_326_24934)"/>
<path d="M133.797 157.275L72.1797 121.613L80.913 8.48779L142.53 44.1316L133.797 157.275Z" fill="url(#paint3_linear_326_24934)"/>
<path d="M150.072 36.8289C151.953 35.997 153.35 37.1432 153.182 39.3802L152.884 43.318C152.717 45.5735 151.041 48.0878 149.141 48.9197L149.216 47.8659C150.612 47.2374 151.86 45.3701 151.99 43.7063L152.288 39.7684C152.419 38.1046 151.376 37.2541 149.979 37.8642L146.162 39.5651C144.765 40.1936 143.518 42.0609 143.387 43.7247L134.673 156.868C134.524 158.772 133.108 160.88 131.526 161.601L123.407 165.224C121.805 165.927 120.632 164.966 120.781 163.061L120.874 161.804C121.023 159.9 122.439 157.774 124.021 157.071L127.057 155.722L126.982 156.776L123.947 158.125C122.83 158.624 121.861 160.085 121.75 161.416L121.657 162.673C121.563 163.986 122.383 164.67 123.481 164.171L131.6 160.547C132.717 160.048 133.686 158.587 133.797 157.256L142.512 44.113C142.68 41.8575 144.356 39.3617 146.255 38.5113L150.072 36.8104V36.8289Z" fill="#DFE2E9"/>
<path d="M90.5589 1.14823C90.0189 0.833942 89.274 0.815455 88.4547 1.1852L84.6374 2.88605C82.7566 3.71799 81.0807 6.23228 80.8945 8.48775L142.512 44.1316C142.679 41.8761 144.355 39.3803 146.255 38.5299L150.072 36.829C150.891 36.4593 151.618 36.4778 152.176 36.7921L90.5589 1.14823Z" fill="url(#paint4_linear_326_24934)"/>
<path d="M125.008 64.9668L94.8599 47.5146C94.0034 47.0154 93.3889 45.6843 93.482 44.5381C93.5751 43.3919 94.3572 42.8742 95.2137 43.3549L125.361 60.8071C126.218 61.3062 126.832 62.6373 126.739 63.7835C126.646 64.9298 125.864 65.4474 125.008 64.9668Z" fill="#C6D2D5"/>
<path d="M129.774 85.6174L87.2252 60.9736C86.3686 60.4744 85.7541 59.1433 85.8472 57.9971C85.9403 56.8509 86.7224 56.3332 87.579 56.8139L130.128 81.4577C130.985 81.9568 131.599 83.2879 131.506 84.4342C131.413 85.5804 130.631 86.098 129.774 85.6174Z" fill="#C6D2D5"/>
<path d="M128.955 95.3971L86.4058 70.7533C85.5493 70.2542 84.9348 68.9231 85.0279 67.7769C85.121 66.6306 85.9031 66.113 86.7596 66.5937L129.309 91.2375C130.165 91.7366 130.78 93.0677 130.687 94.2139C130.594 95.3602 129.812 95.8963 128.955 95.3971Z" fill="#C6D2D5"/>
<path d="M119.235 100.019L85.568 80.5146C84.7114 80.0154 84.0969 78.6843 84.19 77.5381C84.2831 76.3919 85.0652 75.8742 85.9218 76.3549L119.589 95.8592C120.445 96.3583 121.06 97.6894 120.967 98.8357C120.874 99.9819 120.092 100.5 119.235 100.019Z" fill="#C6D2D5"/>
<path d="M127.298 114.957L84.7486 90.3129C83.892 89.8138 83.2775 88.4827 83.3707 87.3364C83.4638 86.1902 84.2458 85.6726 85.1024 86.1532L127.652 110.797C128.508 111.296 129.123 112.627 129.03 113.774C128.937 114.92 128.154 115.437 127.298 114.957Z" fill="#C6D2D5"/>
<path d="M96.9269 107.618L83.9107 100.075C83.0542 99.5755 82.4397 98.2444 82.5328 97.0982C82.6259 95.9519 83.408 95.4343 84.2645 95.915L97.2807 103.458C98.1373 103.957 98.7518 105.288 98.6587 106.434C98.5656 107.581 97.7835 108.098 96.9269 107.618Z" fill="#C6D2D5"/>
<path d="M126.442 145.258C123.741 144.796 122.755 143.077 122.252 141.764C121.917 141.764 121.637 141.764 121.526 141.727C119.459 141.45 117.857 140.544 116.74 139.065C115.79 137.789 115.306 136.366 115.455 135.256C115.306 135.109 115.176 134.961 115.027 134.831C114.896 135.552 114.431 136.107 113.63 136.44C111.936 137.161 109.776 136.698 107.988 135.238C107.113 134.517 106.312 133.537 105.66 132.409C105.009 131.263 104.916 129.914 105.4 129.026C105.809 128.287 106.61 128.25 107.187 128.231C109.012 128.268 110.688 129.544 112.234 130.912C112.96 131.559 113.481 132.224 114.021 132.945C114.189 133.167 114.375 133.408 114.561 133.63C114.375 132.816 113.891 131.855 113.127 130.727L112.867 130.357C112.047 129.174 111.209 127.935 110.986 126.604C110.818 125.68 110.986 124.848 111.452 124.219C111.843 123.702 112.401 123.387 113.034 123.314C113.742 123.24 114.301 123.461 114.952 123.813C115.492 124.108 116.125 124.497 116.647 125.107C117.112 125.661 117.559 126.604 117.429 127.325L117.019 127.251C117.112 126.752 116.833 125.976 116.33 125.384C115.846 124.811 115.269 124.478 114.747 124.182C114.059 123.794 113.612 123.683 113.09 123.739C112.587 123.794 112.122 124.053 111.805 124.478C111.414 124.996 111.265 125.735 111.414 126.53C111.638 127.787 112.457 128.971 113.239 130.135L113.5 130.505C114.505 132.003 115.045 133.26 115.083 134.258C115.232 134.424 115.399 134.609 115.567 134.794C115.716 134.351 115.976 133.999 116.349 133.74C116.703 133.5 117.075 133.278 117.522 133.167C118.36 132.964 119.57 133.297 120.483 133.981C121.675 134.868 122.103 136.31 121.414 137.272C121.19 137.586 120.837 137.789 120.408 137.845C119.421 137.993 118.043 137.401 116.535 136.218C116.293 136.033 116.07 135.83 115.865 135.645C115.865 136.606 116.312 137.771 117.094 138.825C118.137 140.23 119.608 141.043 121.581 141.32C121.675 141.32 121.879 141.357 122.103 141.357C121.73 140.174 121.749 138.954 122.177 138.067C122.419 137.549 123.164 136.514 124.021 136.514H124.039C124.542 136.514 124.952 136.883 125.231 137.586C125.585 138.455 125.492 139.546 125.175 140.119C124.561 141.246 123.518 141.635 122.68 141.746C123.164 142.947 124.095 144.463 126.497 144.851L126.423 145.277L126.442 145.258ZM124.021 136.92C123.462 136.92 122.81 137.697 122.568 138.233C122.196 139.046 122.196 140.211 122.568 141.32C123.313 141.246 124.282 140.914 124.822 139.897C125.082 139.435 125.157 138.473 124.859 137.734C124.635 137.198 124.356 136.939 124.039 136.92H124.021ZM115.921 135.109C116.181 135.367 116.479 135.608 116.796 135.867C118.695 137.382 119.831 137.493 120.334 137.401C120.65 137.364 120.892 137.216 121.06 136.994C121.6 136.218 121.228 135.035 120.222 134.277C119.403 133.685 118.323 133.371 117.615 133.537C117.243 133.63 116.889 133.833 116.591 134.055C116.237 134.295 116.014 134.646 115.921 135.09V135.109ZM107.131 128.656C106.424 128.656 106.014 128.841 105.791 129.23C105.381 129.969 105.493 131.189 106.051 132.188C106.647 133.26 107.448 134.221 108.267 134.887C109.943 136.255 111.936 136.698 113.481 136.033C114.17 135.737 114.543 135.293 114.636 134.683C114.636 134.591 114.654 134.498 114.654 134.388C114.301 133.981 114.003 133.574 113.686 133.186C113.146 132.483 112.643 131.836 111.954 131.208C110.483 129.895 108.882 128.656 107.187 128.638C107.169 128.638 107.15 128.638 107.113 128.638L107.131 128.656Z" fill="#75797D"/>
<path d="M65.8108 20.4303C66.2391 24.1647 67.6357 28.3244 69.9447 32.3362C72.2723 36.348 75.1772 39.6203 78.1938 41.8388L82.3277 48.9749L86.6664 46.4791C92.3831 43.1514 92.3831 32.4656 86.6664 22.5748C80.9684 12.7025 71.6951 7.39661 65.9784 10.7059L61.6396 13.2017L65.8294 20.4303H65.8108Z" fill="url(#paint5_linear_326_24934)"/>
<path d="M82.3468 25.0707C88.0635 34.943 88.0635 45.6473 82.3468 48.975C76.6301 52.3028 67.3568 46.9784 61.6215 37.1061C55.9048 27.2153 55.9048 16.511 61.6215 13.2018C67.3382 9.87402 76.6115 15.1984 82.3468 25.0707Z" fill="#EBF1F7"/>
<path d="M80.392 26.2169C85.0286 34.2405 85.0286 42.9111 80.392 45.6103C75.7553 48.3095 68.2324 43.9834 63.5771 35.9783C58.9404 27.9548 58.9404 19.2657 63.5771 16.5665C68.2138 13.8673 75.7367 18.1934 80.392 26.1985V26.2169Z" fill="#3ADCC9"/>
<path d="M72.18 39.084L70.7275 39.9159C70.7275 39.9159 70.8579 39.842 70.9138 39.7865L72.3662 38.9546C72.3662 38.9546 72.2358 39.047 72.18 39.084Z" fill="#BEB7C8"/>
<path d="M62.1621 26.4757L63.6146 25.6438C64.1173 25.348 64.7691 25.4404 65.4394 25.8286C66.0539 26.1799 66.6498 26.7715 67.1526 27.548L65.7001 28.3799C65.216 27.6034 64.6015 27.0118 63.987 26.6606C63.3166 26.2723 62.6649 26.1984 62.1621 26.4757Z" fill="#CBDCF9"/>
<path d="M65.6816 28.3797L67.1341 27.5293L69.8342 31.8554L68.3817 32.6873L65.6816 28.3797Z" fill="#CBDCF9"/>
<path d="M78.3253 33.7967L79.7777 32.9463L72.3665 38.9547L70.9141 39.7867L78.3253 33.7967Z" fill="#CBDCF9"/>
<path d="M74.5449 27.7145L75.9974 26.8825C76.5001 26.5867 77.1519 26.6792 77.8222 27.0674L76.3698 27.8993C75.6994 27.5111 75.0477 27.4372 74.5449 27.7145Z" fill="#CBDCF9"/>
<path d="M76.3701 27.8993L77.8226 27.0674C78.3998 27.4002 78.9771 27.9363 79.4426 28.6573C80.5412 30.3027 80.6902 32.2439 79.7778 32.9649L78.3253 33.7968C79.2378 33.0758 79.0702 31.1531 77.9902 29.4892C77.5246 28.7682 76.9474 28.2321 76.3701 27.8993Z" fill="#CBDCF9"/>
<path d="M76.3699 27.8993C76.9471 28.2321 77.5244 28.7683 77.9899 29.4893C79.0886 31.1346 79.2375 33.0758 78.3251 33.7968L70.9139 39.7868C70.318 40.2675 69.4428 40.1935 68.5863 39.7128C67.8787 39.3061 67.1524 38.6036 66.5752 37.6792L62.2551 30.7649C61.2123 29.0825 61.1192 27.1968 62.0689 26.5313C62.5716 26.18 63.2792 26.254 63.9682 26.6607C64.5827 27.0119 65.1786 27.6035 65.6814 28.38L68.3628 32.6876L74.3774 27.8254C74.8802 27.4187 75.625 27.4741 76.3513 27.8993H76.3699Z" fill="white"/>
</g>
</g>
<defs>
<linearGradient id="paint0_linear_326_24934" x1="94.3576" y1="148.198" x2="100.344" y2="137.752" gradientUnits="userSpaceOnUse">
<stop offset="0.28" stop-color="#A7A7A7"/>
<stop offset="0.88" stop-color="#EEEEEF"/>
</linearGradient>
<linearGradient id="paint1_linear_326_24934" x1="89.4787" y1="146.829" x2="95.0786" y2="137.07" gradientUnits="userSpaceOnUse">
<stop offset="0.14" stop-color="#CECECE"/>
<stop offset="0.67" stop-color="#EFEFEF"/>
</linearGradient>
<linearGradient id="paint2_linear_326_24934" x1="117.373" y1="29.6006" x2="122.402" y2="20.8246" gradientUnits="userSpaceOnUse">
<stop offset="0.28" stop-color="#A7A7A7"/>
<stop offset="0.81" stop-color="#919191"/>
</linearGradient>
<linearGradient id="paint3_linear_326_24934" x1="72.1797" y1="82.8814" x2="142.53" y2="82.8814" gradientUnits="userSpaceOnUse">
<stop stop-color="#E6E8EB"/>
<stop offset="0.67" stop-color="#EFEFEF"/>
</linearGradient>
<linearGradient id="paint4_linear_326_24934" x1="113.388" y1="27.4189" x2="119.08" y2="17.4926" gradientUnits="userSpaceOnUse">
<stop offset="0.15" stop-color="#EFEFEF"/>
<stop offset="0.54" stop-color="#F7F7F7"/>
</linearGradient>
<linearGradient id="paint5_linear_326_24934" x1="88.7148" y1="45.3329" x2="68.1574" y2="9.44992" gradientUnits="userSpaceOnUse">
<stop offset="0.11" stop-color="#98CAFB"/>
<stop offset="0.64" stop-color="#DDE8F2"/>
<stop offset="0.81" stop-color="#DAE7F2"/>
<stop offset="0.88" stop-color="#D3E4F3"/>
<stop offset="0.94" stop-color="#C7DEF4"/>
<stop offset="0.98" stop-color="#B5D7F6"/>
<stop offset="1" stop-color="#ABD3F8"/>
</linearGradient>
<clipPath id="clip0_326_24934">
<rect width="216.046" height="246.092" fill="white" transform="translate(0.108398 0.907715)"/>
</clipPath>
<clipPath id="clip1_326_24934">
<rect width="95.8615" height="164.538" fill="white" transform="translate(57.3389 0.907715)"/>
</clipPath>
</defs>
</svg>
