<svg width="150" height="150" viewBox="0 0 150 150" fill="none" xmlns="http://www.w3.org/2000/svg">
<rect width="150" height="150" rx="22.1192" fill="#1E266A"/>
<path d="M32.7556 113.055V116.03H36.7506V117.917H32.7556V121.062H37.2606V123H30.3756V111.117H37.2606V113.055H32.7556ZM38.8115 118.257C38.8115 117.305 38.9985 116.461 39.3725 115.724C39.7578 114.987 40.2792 114.421 40.9365 114.024C41.5938 113.627 42.3248 113.429 43.1295 113.429C43.7415 113.429 44.3252 113.565 44.8805 113.837C45.4358 114.098 45.8778 114.449 46.2065 114.891V110.42H48.6205V123H46.2065V121.606C45.9118 122.071 45.4982 122.445 44.9655 122.728C44.4328 123.011 43.8152 123.153 43.1125 123.153C42.3192 123.153 41.5938 122.949 40.9365 122.541C40.2792 122.133 39.7578 121.561 39.3725 120.824C38.9985 120.076 38.8115 119.22 38.8115 118.257ZM46.2235 118.291C46.2235 117.713 46.1102 117.22 45.8835 116.812C45.6568 116.393 45.3508 116.075 44.9655 115.86C44.5802 115.633 44.1665 115.52 43.7245 115.52C43.2825 115.52 42.8745 115.628 42.5005 115.843C42.1265 116.058 41.8205 116.376 41.5825 116.795C41.3558 117.203 41.2425 117.69 41.2425 118.257C41.2425 118.824 41.3558 119.322 41.5825 119.753C41.8205 120.172 42.1265 120.495 42.5005 120.722C42.8858 120.949 43.2938 121.062 43.7245 121.062C44.1665 121.062 44.5802 120.954 44.9655 120.739C45.3508 120.512 45.6568 120.195 45.8835 119.787C46.1102 119.368 46.2235 118.869 46.2235 118.291ZM59.836 113.582V123H57.439V121.81C57.133 122.218 56.7306 122.541 56.232 122.779C55.7446 123.006 55.212 123.119 54.634 123.119C53.8973 123.119 53.2456 122.966 52.679 122.66C52.1123 122.343 51.6646 121.884 51.336 121.283C51.0186 120.671 50.86 119.946 50.86 119.107V113.582H53.24V118.767C53.24 119.515 53.427 120.093 53.801 120.501C54.175 120.898 54.685 121.096 55.331 121.096C55.9883 121.096 56.504 120.898 56.878 120.501C57.252 120.093 57.439 119.515 57.439 118.767V113.582H59.836ZM61.5722 118.291C61.5722 117.316 61.7706 116.466 62.1672 115.741C62.5639 115.004 63.1136 114.438 63.8162 114.041C64.5189 113.633 65.3236 113.429 66.2302 113.429C67.3976 113.429 68.3609 113.724 69.1202 114.313C69.8909 114.891 70.4066 115.707 70.6672 116.761H68.1002C67.9642 116.353 67.7319 116.036 67.4032 115.809C67.0859 115.571 66.6892 115.452 66.2132 115.452C65.5332 115.452 64.9949 115.701 64.5982 116.2C64.2016 116.687 64.0032 117.384 64.0032 118.291C64.0032 119.186 64.2016 119.883 64.5982 120.382C64.9949 120.869 65.5332 121.113 66.2132 121.113C67.1766 121.113 67.8056 120.682 68.1002 119.821H70.6672C70.4066 120.841 69.8909 121.651 69.1202 122.252C68.3496 122.853 67.3862 123.153 66.2302 123.153C65.3236 123.153 64.5189 122.955 63.8162 122.558C63.1136 122.15 62.5639 121.583 62.1672 120.858C61.7706 120.121 61.5722 119.266 61.5722 118.291ZM71.7988 118.257C71.7988 117.305 71.9858 116.461 72.3598 115.724C72.7451 114.987 73.2608 114.421 73.9068 114.024C74.5641 113.627 75.2951 113.429 76.0998 113.429C76.8025 113.429 77.4145 113.571 77.9358 113.854C78.4685 114.137 78.8935 114.494 79.2108 114.925V113.582H81.6078V123H79.2108V121.623C78.9048 122.065 78.4798 122.433 77.9358 122.728C77.4031 123.011 76.7855 123.153 76.0828 123.153C75.2895 123.153 74.5641 122.949 73.9068 122.541C73.2608 122.133 72.7451 121.561 72.3598 120.824C71.9858 120.076 71.7988 119.22 71.7988 118.257ZM79.2108 118.291C79.2108 117.713 79.0975 117.22 78.8708 116.812C78.6441 116.393 78.3381 116.075 77.9528 115.86C77.5675 115.633 77.1538 115.52 76.7118 115.52C76.2698 115.52 75.8618 115.628 75.4878 115.843C75.1138 116.058 74.8078 116.376 74.5698 116.795C74.3431 117.203 74.2298 117.69 74.2298 118.257C74.2298 118.824 74.3431 119.322 74.5698 119.753C74.8078 120.172 75.1138 120.495 75.4878 120.722C75.8731 120.949 76.2811 121.062 76.7118 121.062C77.1538 121.062 77.5675 120.954 77.9528 120.739C78.3381 120.512 78.6441 120.195 78.8708 119.787C79.0975 119.368 79.2108 118.869 79.2108 118.291ZM83.3203 118.291C83.3203 117.316 83.5186 116.466 83.9153 115.741C84.3119 115.004 84.8616 114.438 85.5643 114.041C86.2669 113.633 87.0716 113.429 87.9783 113.429C89.1456 113.429 90.1089 113.724 90.8683 114.313C91.6389 114.891 92.1546 115.707 92.4153 116.761H89.8483C89.7123 116.353 89.4799 116.036 89.1513 115.809C88.8339 115.571 88.4373 115.452 87.9613 115.452C87.2813 115.452 86.7429 115.701 86.3463 116.2C85.9496 116.687 85.7513 117.384 85.7513 118.291C85.7513 119.186 85.9496 119.883 86.3463 120.382C86.7429 120.869 87.2813 121.113 87.9613 121.113C88.9246 121.113 89.5536 120.682 89.8483 119.821H92.4153C92.1546 120.841 91.6389 121.651 90.8683 122.252C90.0976 122.853 89.1343 123.153 87.9783 123.153C87.0716 123.153 86.2669 122.955 85.5643 122.558C84.8616 122.15 84.3119 121.583 83.9153 120.858C83.5186 120.121 83.3203 119.266 83.3203 118.291ZM95.3658 112.46C94.9465 112.46 94.5952 112.33 94.3118 112.069C94.0398 111.797 93.9038 111.463 93.9038 111.066C93.9038 110.669 94.0398 110.341 94.3118 110.08C94.5952 109.808 94.9465 109.672 95.3658 109.672C95.7852 109.672 96.1308 109.808 96.4028 110.08C96.6862 110.341 96.8278 110.669 96.8278 111.066C96.8278 111.463 96.6862 111.797 96.4028 112.069C96.1308 112.33 95.7852 112.46 95.3658 112.46ZM96.5388 113.582V123H94.1588V113.582H96.5388ZM103.072 123.153C102.166 123.153 101.35 122.955 100.624 122.558C99.899 122.15 99.3266 121.578 98.9073 120.841C98.4993 120.104 98.2953 119.254 98.2953 118.291C98.2953 117.328 98.505 116.478 98.9243 115.741C99.355 115.004 99.9386 114.438 100.675 114.041C101.412 113.633 102.234 113.429 103.14 113.429C104.047 113.429 104.869 113.633 105.605 114.041C106.342 114.438 106.92 115.004 107.339 115.741C107.77 116.478 107.985 117.328 107.985 118.291C107.985 119.254 107.764 120.104 107.322 120.841C106.892 121.578 106.302 122.15 105.554 122.558C104.818 122.955 103.99 123.153 103.072 123.153ZM103.072 121.079C103.503 121.079 103.905 120.977 104.279 120.773C104.665 120.558 104.971 120.24 105.197 119.821C105.424 119.402 105.537 118.892 105.537 118.291C105.537 117.396 105.299 116.71 104.823 116.234C104.359 115.747 103.786 115.503 103.106 115.503C102.426 115.503 101.854 115.747 101.389 116.234C100.936 116.71 100.709 117.396 100.709 118.291C100.709 119.186 100.93 119.878 101.372 120.365C101.826 120.841 102.392 121.079 103.072 121.079ZM105.095 111.015L101.185 112.8V111.1L105.095 109.077V111.015ZM114.95 113.446C116.072 113.446 116.979 113.803 117.67 114.517C118.361 115.22 118.707 116.206 118.707 117.475V123H116.327V117.798C116.327 117.05 116.14 116.478 115.766 116.081C115.392 115.673 114.882 115.469 114.236 115.469C113.579 115.469 113.057 115.673 112.672 116.081C112.298 116.478 112.111 117.05 112.111 117.798V123H109.731V113.582H112.111V114.755C112.428 114.347 112.831 114.03 113.318 113.803C113.817 113.565 114.361 113.446 114.95 113.446Z" fill="#3ADCC9"/>
<g filter="url(#filter0_d_266_31357)">
<path d="M75.0208 73.4167C73.25 73.4167 71.4583 72.9583 70.0625 72.0625L57.5208 63.875C55.1875 62.3542 53.7916 59.7917 53.7916 57C53.7916 54.2083 55.1875 51.6458 57.5208 50.125L70.0833 41.9583C72.875 40.1458 77.2291 40.1458 80 41.9792L92.4791 50.1667C94.7916 51.6875 96.1875 54.25 96.1875 57.0208C96.1875 59.7917 94.7916 62.3542 92.4791 63.875L80 72.0625C78.6041 72.9792 76.8125 73.4167 75.0208 73.4167ZM75.0208 43.7292C73.8333 43.7292 72.6458 44 71.7916 44.5833L59.25 52.75C57.7916 53.7083 56.9375 55.25 56.9375 57C56.9375 58.75 57.7708 60.2917 59.25 61.25L71.7916 69.4375C73.5208 70.5625 76.5625 70.5625 78.2916 69.4375L90.7708 61.25C92.2291 60.2917 93.0625 58.75 93.0625 57C93.0625 55.25 92.2291 53.7083 90.7708 52.75L78.2916 44.5625C77.4166 44.0208 76.2291 43.7292 75.0208 43.7292Z" fill="#3ADCC9"/>
<path d="M75.0001 85.3958C74.0834 85.3958 73.1459 85.2708 72.3959 85.0208L65.75 82.8125C62.6042 81.7708 60.125 78.3333 60.1459 75.0208L60.1667 65.25C60.1667 64.3958 60.875 63.6875 61.7292 63.6875C62.5834 63.6875 63.2917 64.3958 63.2917 65.25L63.2709 75.0208C63.2709 76.9792 64.8959 79.2292 66.75 79.8542L73.3959 82.0625C74.2292 82.3333 75.7709 82.3333 76.6042 82.0625L83.2501 79.8542C85.1042 79.2292 86.7292 76.9792 86.7292 75.0417V65.375C86.7292 64.5208 87.4376 63.8125 88.2917 63.8125C89.1459 63.8125 89.8542 64.5208 89.8542 65.375V75.0417C89.8542 78.3542 87.3959 81.7708 84.2501 82.8333L77.6042 85.0417C76.8542 85.2708 75.9167 85.3958 75.0001 85.3958Z" fill="#3ADCC9"/>
<path d="M94.5834 70.8125C93.7292 70.8125 93.0209 70.1042 93.0209 69.25V56.75C93.0209 55.8958 93.7292 55.1875 94.5834 55.1875C95.4375 55.1875 96.1459 55.8958 96.1459 56.75V69.25C96.1459 70.1042 95.4375 70.8125 94.5834 70.8125Z" fill="#3ADCC9"/>
</g>
<defs>
<filter id="filter0_d_266_31357" x="49.7916" y="40.6015" width="50.3959" height="52.7943" filterUnits="userSpaceOnUse" color-interpolation-filters="sRGB">
<feFlood flood-opacity="0" result="BackgroundImageFix"/>
<feColorMatrix in="SourceAlpha" type="matrix" values="0 0 0 0 0 0 0 0 0 0 0 0 0 0 0 0 0 0 127 0" result="hardAlpha"/>
<feOffset dy="4"/>
<feGaussianBlur stdDeviation="2"/>
<feComposite in2="hardAlpha" operator="out"/>
<feColorMatrix type="matrix" values="0 0 0 0 0 0 0 0 0 0 0 0 0 0 0 0 0 0 0.25 0"/>
<feBlend mode="normal" in2="BackgroundImageFix" result="effect1_dropShadow_266_31357"/>
<feBlend mode="normal" in="SourceGraphic" in2="effect1_dropShadow_266_31357" result="shape"/>
</filter>
</defs>
</svg>
