<svg width="139" height="50" viewBox="0 0 139 50" fill="none" xmlns="http://www.w3.org/2000/svg">
<path d="M42.6858 12.295L36.7472 8.87277L35.6456 9.50728V8.23825L29.0433 4.43465V13.3109L27.9418 13.9454V3.80014L22.0031 0.381401L21.3429 0L15.4043 3.4222V4.69123L14.3027 4.05672L7.7004 7.86032L15.4043 12.2984V13.5675L6.59886 8.49483L0.660233 11.9136L0 12.295V19.1359L1.10155 19.7704L0 20.4049V28.0087L7.70388 23.5706L8.80542 24.2051L0 29.2846V36.8884L5.93862 40.3106L7.04365 39.6761V40.9486L13.646 44.7522V35.8759L14.7475 35.2414V45.3901L20.6861 48.8124L21.3464 49.1938L27.285 45.7715V44.5025L28.3866 45.137L34.9889 41.3334L27.285 36.8953V35.6228L36.0904 40.6955L42.029 37.2732L42.6893 36.8918V30.0509L41.5877 29.4164L42.6893 28.7819V21.1781L34.9854 25.6163L33.8839 24.9817L42.6893 19.9091V12.3054L42.6858 12.295ZM29.7035 5.57538L34.9854 8.61619V9.88521L29.7035 12.926V5.57192V5.57538ZM29.7035 13.6923L34.9854 10.6515V16.7331L32.7128 18.0437L29.707 19.7774V13.6958L29.7035 13.6923ZM27.2815 28.0121L21.3429 31.4344L15.4043 28.0121V21.1712L21.3429 17.749L27.2815 21.1712V28.0121ZM26.6213 29.1529V34.4752L22.0031 31.8158L24.8352 30.1861L26.6213 29.1563V29.1529ZM15.4043 28.7715L18.2329 30.4011L20.019 31.4309L15.4008 34.0903V28.768L15.4043 28.7715ZM14.744 34.4717L13.6425 35.1062V29.0246L14.744 28.3901V34.4717ZM22.6634 17.749L27.2815 15.0896V20.4119L22.6634 17.7525V17.749ZM17.8541 19.0007L16.068 20.0305V14.7117L20.6861 17.3711L17.8541 19.0007ZM27.9418 14.7082L29.0433 14.0737V20.1553L27.9418 20.7898V14.7082ZM27.2815 4.18154V14.3268L22.0031 17.3676V1.14073L27.2815 4.18154ZM16.0645 3.80014L21.3429 0.759334V8.10996L16.0645 5.06916V3.80014ZM9.02087 7.85685L14.3027 4.81605L15.4043 5.45056V11.5356L9.02087 7.85685ZM16.0645 11.9136V5.8285L21.3429 8.8693V14.9544L16.0645 11.9136ZM16.0645 12.6729L21.3429 15.7137V16.9862L16.0645 13.9454V12.6764V12.6729ZM6.59886 9.2507L15.4043 14.3233V20.4049L1.32047 12.295L6.59886 9.25417V9.2507ZM0.660233 18.758V12.6764L7.04017 16.3517L1.76178 19.3925L0.660233 18.758ZM2.42201 19.7739L7.7004 16.7331L12.9823 19.7739L7.70388 22.8147L2.42201 19.7739ZM0.660233 26.8749V20.7898L1.76178 20.1553L7.04365 23.1961L0.660233 26.8714V26.8749ZM8.36411 23.1961L13.6425 20.1553L14.744 20.7898L9.46566 23.8306L8.36411 23.1961ZM14.744 21.5526V26.8714L10.1259 24.212L14.744 21.5526ZM0.660233 29.6626L9.46566 24.5899L14.744 27.6307L0.660233 35.7442V29.6626ZM0.660233 36.5035L7.04017 32.8282V38.9098L5.93515 39.5443L0.656758 36.5035H0.660233ZM12.9823 43.601L7.7004 40.5602V39.2912L12.9823 36.2504V43.6045V43.601ZM12.9823 35.4841L7.7004 38.5249V32.4433L12.9823 29.4025V35.4841ZM15.4043 44.9949V34.8496L20.6827 31.8088V48.0357L15.4043 44.9949ZM26.6213 45.3763L21.3429 48.4171V41.0665L26.6213 44.1073V45.3797V45.3763ZM33.6649 41.3196L28.3831 44.3604L27.2815 43.7259V37.6408L33.6649 41.3196ZM26.6213 37.2628V43.3479L21.3429 40.3071V34.222L26.6213 37.2628ZM26.6213 36.5035L21.3429 33.4627V32.1937L26.6213 35.2345V36.5035ZM36.087 39.9257L27.2815 34.8531V28.7715L41.3653 36.8849L36.087 39.9257ZM42.0256 30.4219V36.5035L35.6456 32.8282L40.924 29.7874L42.0256 30.4219ZM34.9854 32.4468L29.7035 29.406L34.9819 26.3652L40.2638 29.406L34.9854 32.4468ZM42.0256 22.305V28.3901L40.924 29.0246L35.6422 25.9838L42.0256 22.305ZM34.3217 25.9838L29.0433 29.0246L27.9418 28.3901L33.2202 25.3493L34.3217 25.9838ZM27.9418 27.6273V22.3085L32.5599 24.9679L27.9418 27.6273ZM42.0256 19.5138L33.2202 24.5865L27.9418 21.5457L40.7399 14.1742L42.029 13.4322V19.5138H42.0256ZM42.0256 12.6729L35.6456 16.3482V10.2666L36.7472 9.6321L42.0256 12.6729Z" fill="url(#paint0_linear_272_3584)"/>
<path d="M48.0167 27.5164V12.6071H51.6897V24.2814H59.5673V27.5164H48.0167Z" fill="white"/>
<path d="M59.9077 27.5164L66.034 12.6071H70.2386L76.278 27.5164H72.3062L70.9405 23.9173H65.1131L63.7266 27.5164H59.9042H59.9077ZM66.2251 20.9979H69.8529L68.0599 16.2269L66.2251 20.9979Z" fill="white"/>
<path d="M76.8337 27.5164V12.6071H88.704V15.7796H80.5067V18.5708H85.9692V21.6393H80.5067V27.5164H76.8337Z" fill="white"/>
<path d="M104.585 20.0618C104.585 21.1262 104.377 22.1318 103.966 23.0749C103.553 24.018 102.99 24.8362 102.281 25.5228C101.569 26.2127 100.724 26.7536 99.741 27.1524C98.7576 27.5511 97.7116 27.7487 96.6031 27.7487C95.4947 27.7487 94.4452 27.5511 93.4653 27.1524C92.4819 26.7536 91.6375 26.2127 90.9251 25.5228C90.2128 24.8328 89.6533 24.018 89.2398 23.0749C88.8263 22.1318 88.6213 21.1262 88.6213 20.0618C88.6213 18.9973 88.8263 17.9918 89.2398 17.0487C89.6533 16.1056 90.2128 15.2873 90.9251 14.5974C91.6375 13.9074 92.4819 13.3665 93.4653 12.9677C94.4452 12.569 95.4947 12.3714 96.6031 12.3714C97.7116 12.3714 98.7611 12.569 99.741 12.9677C100.724 13.3665 101.569 13.9074 102.281 14.5974C102.994 15.2873 103.553 16.1022 103.966 17.0487C104.38 17.9918 104.585 18.9973 104.585 20.0618ZM100.808 20.0618C100.808 19.4516 100.7 18.8795 100.488 18.3455C100.273 17.8115 99.9773 17.3538 99.602 16.9724C99.2232 16.5876 98.7819 16.2859 98.2676 16.0675C97.7568 15.8456 97.2008 15.7381 96.6031 15.7381C96.0055 15.7381 95.4495 15.849 94.9387 16.0675C94.4278 16.2894 93.9831 16.591 93.6043 16.9724C93.2255 17.3573 92.9336 17.815 92.7182 18.3455C92.5028 18.876 92.3985 19.4481 92.3985 20.0618C92.3985 20.6755 92.5062 21.2441 92.7182 21.7781C92.9302 22.3121 93.2255 22.7697 93.6043 23.1511C93.9796 23.536 94.4244 23.8377 94.9387 24.0561C95.4495 24.278 96.0055 24.3855 96.6031 24.3855C97.2008 24.3855 97.7568 24.2745 98.2676 24.0561C98.7784 23.8342 99.2232 23.5325 99.602 23.1511C99.9808 22.7663 100.273 22.3086 100.488 21.7781C100.7 21.2441 100.808 20.6755 100.808 20.0618Z" fill="white"/>
<path d="M105.995 12.6071H109.453L116.243 21.2545V12.6071H119.7V27.5164H116.455L109.453 18.5292V27.5164H105.995V12.6071Z" fill="white"/>
<path d="M120.788 15.8455V12.6071H134.236V15.8455H129.347V27.5164H125.677V15.8455H120.788Z" fill="white"/>
<path d="M138.997 12.6071H135.324V27.5164H138.997V12.6071Z" fill="white"/>
<path d="M48.0167 32.0724V31.1362H51.8982V32.0724H50.4874V35.4391H49.4275V32.0724H48.0167Z" fill="white"/>
<path d="M52.0713 35.4391V32.1868H53.0686V32.5128C53.1763 32.3845 53.3014 32.2874 53.4439 32.218C53.5863 32.1487 53.7497 32.114 53.9234 32.114C54.0172 32.1175 54.0937 32.1244 54.1528 32.1348C54.2084 32.1452 54.2605 32.166 54.2987 32.1938V33.0606C54.2327 33.0328 54.1597 33.0086 54.0763 32.9912C53.9929 32.9739 53.9095 32.9635 53.8226 32.9635C53.6663 32.9635 53.5203 33.0016 53.3883 33.0745C53.2562 33.1473 53.1485 33.2478 53.0651 33.3761V35.4426H52.0678L52.0713 35.4391Z" fill="white"/>
<path d="M55.7099 35.4946C55.3659 35.4946 55.0809 35.4009 54.8586 35.2102C54.6362 35.023 54.525 34.7803 54.525 34.4856C54.525 34.1909 54.6431 33.9377 54.8794 33.7679C55.1157 33.5945 55.4458 33.5113 55.8698 33.5113C55.9983 33.5113 56.1234 33.5182 56.245 33.5355C56.3667 33.5529 56.4883 33.5737 56.6099 33.6049V33.4454C56.6099 33.2824 56.5578 33.1576 56.4535 33.0813C56.3493 33.0016 56.1929 32.96 55.9879 32.96C55.8593 32.96 55.7169 32.9808 55.557 33.0224C55.3972 33.064 55.213 33.1299 55.001 33.22L54.6431 32.4884C54.9072 32.3705 55.1643 32.2804 55.418 32.2214C55.6717 32.1625 55.9184 32.1313 56.1651 32.1313C56.6169 32.1313 56.9678 32.2388 57.218 32.4538C57.4682 32.6687 57.5933 32.9704 57.5933 33.3622V35.446H56.6064V35.2484C56.4744 35.3385 56.3354 35.4044 56.1894 35.4425C56.0435 35.4807 55.8837 35.5015 55.7064 35.5015M55.4736 34.4752C55.4736 34.5757 55.5188 34.6589 55.6091 34.7144C55.6995 34.7734 55.8246 34.8011 55.9844 34.8011C56.1026 34.8011 56.2138 34.7907 56.3215 34.763C56.4257 34.7387 56.523 34.7005 56.6064 34.6451V34.2255C56.5126 34.2013 56.4153 34.1839 56.318 34.1701C56.2207 34.1597 56.1199 34.1527 56.0157 34.1527C55.842 34.1527 55.7099 34.1805 55.6161 34.2359C55.5223 34.2914 55.4736 34.3712 55.4736 34.4717" fill="white"/>
<path d="M58.1876 35.4391V32.1868H59.1849V32.4087C59.303 32.3185 59.4385 32.2492 59.5879 32.2007C59.7374 32.1521 59.8937 32.1278 60.0605 32.1278C60.4428 32.1278 60.7555 32.2492 60.9988 32.4954C61.242 32.7415 61.3636 33.0536 61.3636 33.435V35.4391H60.3663V33.5702C60.3663 33.3934 60.3107 33.2512 60.203 33.1438C60.0953 33.0363 59.9528 32.9808 59.7756 32.9808C59.647 32.9808 59.5358 33.0051 59.4351 33.0501C59.3343 33.0952 59.2544 33.1576 59.1883 33.2408V35.4426H58.191L58.1876 35.4391Z" fill="white"/>
<path d="M61.6965 35.0784L62.1726 34.4092C62.3776 34.5306 62.5652 34.6208 62.732 34.6762C62.8988 34.7317 63.0656 34.7594 63.2324 34.7594C63.3992 34.7594 63.5278 34.7352 63.6216 34.6901C63.7189 34.6416 63.7675 34.5791 63.7675 34.5029C63.7675 34.4405 63.7397 34.3919 63.6876 34.3538C63.6355 34.3156 63.5486 34.2879 63.434 34.2706L62.7876 34.1735C62.4679 34.1249 62.2212 34.0174 62.0475 33.851C61.8737 33.6846 61.7903 33.4696 61.7903 33.2026C61.7903 32.8732 61.9154 32.6167 62.1656 32.4294C62.4158 32.2422 62.7598 32.1451 63.1942 32.1451C63.427 32.1451 63.6633 32.1798 63.8996 32.2457C64.1359 32.315 64.3548 32.4121 64.5564 32.5369L64.0838 33.1749C63.9065 33.0743 63.7397 32.9981 63.5799 32.9495C63.4201 32.901 63.2602 32.8802 63.1004 32.8802C62.9718 32.8802 62.871 32.901 62.7911 32.9461C62.7146 32.9877 62.673 33.0466 62.673 33.116C62.673 33.1818 62.7008 33.2338 62.7598 33.272C62.8189 33.3101 62.9162 33.3413 63.0552 33.3621L63.7015 33.4592C64.0212 33.5043 64.2679 33.6083 64.4452 33.7747C64.6189 33.9412 64.7058 34.1527 64.7058 34.4058C64.7058 34.5618 64.6676 34.7074 64.5946 34.8427C64.5216 34.9779 64.4208 35.0958 64.2888 35.1929C64.1567 35.2899 64.0038 35.3697 63.8231 35.4217C63.6425 35.4772 63.4479 35.5049 63.2394 35.5049C62.9301 35.5049 62.6452 35.4702 62.3811 35.3974C62.117 35.3246 61.8876 35.2206 61.7 35.0819" fill="white"/>
<path d="M65.0892 36.739V32.19H66.0761V32.4292C66.2047 32.3391 66.3402 32.2697 66.4896 32.2212C66.639 32.1726 66.7919 32.1484 66.9518 32.1484C67.1811 32.1484 67.4 32.19 67.6016 32.2767C67.8031 32.3633 67.9804 32.4812 68.1298 32.6338C68.2792 32.7863 68.3974 32.9632 68.4842 33.1643C68.5711 33.3654 68.6128 33.5838 68.6128 33.8196C68.6128 34.0554 68.5676 34.2703 68.4808 34.4749C68.3904 34.676 68.2723 34.8528 68.1194 35.0019C67.9665 35.151 67.7892 35.2689 67.5807 35.3556C67.3722 35.4423 67.1533 35.4839 66.9205 35.4839C66.7676 35.4839 66.6217 35.4666 66.4827 35.4284C66.3437 35.3903 66.2116 35.3383 66.0865 35.2689V36.739H65.0892ZM66.778 32.9944C66.639 32.9944 66.5105 33.0152 66.3958 33.0603C66.2811 33.1019 66.1769 33.1677 66.0865 33.2544V34.3917C66.1734 34.468 66.2742 34.5304 66.3958 34.5755C66.514 34.6205 66.6425 34.6448 66.778 34.6448C67.0213 34.6448 67.2228 34.5651 67.3896 34.409C67.5564 34.253 67.6363 34.0554 67.6363 33.8231C67.6363 33.5908 67.5529 33.3931 67.3861 33.2371C67.2194 33.0811 67.0178 33.0013 66.778 33.0013" fill="white"/>
<path d="M70.1513 35.4946C69.8073 35.4946 69.5224 35.4009 69.3 35.2102C69.0776 35.023 68.9664 34.7803 68.9664 34.4856C68.9664 34.1909 69.0845 33.9377 69.3208 33.7679C69.5571 33.5945 69.8873 33.5113 70.3077 33.5113C70.4363 33.5113 70.5614 33.5182 70.683 33.5355C70.8046 33.5529 70.9263 33.5737 71.0479 33.6049V33.4454C71.0479 33.2824 70.9957 33.1576 70.8915 33.0813C70.7873 33.0016 70.6309 32.96 70.4259 32.96C70.2973 32.96 70.1548 32.9808 69.995 33.0224C69.8351 33.064 69.651 33.1299 69.439 33.22L69.0811 32.4884C69.3452 32.3705 69.6023 32.2804 69.856 32.2214C70.1096 32.1625 70.3564 32.1313 70.6031 32.1313C71.0548 32.1313 71.4058 32.2388 71.656 32.4538C71.9062 32.6687 72.0313 32.9704 72.0313 33.3622V35.446H71.0444V35.2484C70.9123 35.3385 70.7734 35.4044 70.6274 35.4425C70.4815 35.4807 70.3216 35.5015 70.1444 35.5015M69.9116 34.4752C69.9116 34.5757 69.9567 34.6589 70.0471 34.7144C70.1374 34.7734 70.2625 34.8011 70.4224 34.8011C70.5405 34.8011 70.6552 34.7907 70.7595 34.763C70.8637 34.7387 70.961 34.7005 71.0444 34.6451V34.2255C70.9506 34.2013 70.8533 34.1839 70.756 34.1701C70.6587 34.1597 70.5579 34.1527 70.4537 34.1527C70.2799 34.1527 70.1479 34.1805 70.054 34.2359C69.9602 34.2914 69.9116 34.3712 69.9116 34.4717" fill="white"/>
<path d="M72.6257 35.4391V32.1868H73.623V32.5128C73.7308 32.3845 73.8558 32.2874 73.9983 32.218C74.1408 32.1487 74.3006 32.114 74.4779 32.114C74.5717 32.1175 74.6481 32.1244 74.7072 32.1348C74.7663 32.1452 74.8149 32.166 74.8566 32.1938V33.0606C74.7906 33.0328 74.7176 33.0086 74.6342 32.9912C74.5508 32.9739 74.4674 32.9635 74.3806 32.9635C74.2242 32.9635 74.0782 33.0016 73.9462 33.0745C73.8107 33.1473 73.703 33.2478 73.623 33.3761V35.4426H72.6257V35.4391Z" fill="white"/>
<path d="M78.1547 35.0091C77.9496 35.1825 77.7377 35.3073 77.5222 35.3836C77.3068 35.4599 77.0635 35.5015 76.7925 35.5015C76.5458 35.5015 76.313 35.4599 76.0975 35.3732C75.8786 35.2865 75.691 35.1686 75.5346 35.0161C75.3782 34.8635 75.2496 34.6867 75.1593 34.4786C75.0655 34.2706 75.0203 34.0522 75.0203 33.8164C75.0203 33.5806 75.0655 33.3622 75.1523 33.1541C75.2392 32.9461 75.3608 32.7693 75.5137 32.6167C75.6666 32.4642 75.8438 32.3463 76.0523 32.2596C76.2608 32.1729 76.4832 32.1313 76.7195 32.1313C76.9558 32.1313 77.1782 32.1764 77.3798 32.2665C77.5813 32.3567 77.755 32.478 77.901 32.6341C78.0469 32.7901 78.1616 32.9773 78.2415 33.1957C78.3249 33.4142 78.3666 33.6534 78.3666 33.9065V34.1527H76.0454C76.1114 34.3053 76.2122 34.4301 76.3547 34.5237C76.4937 34.6208 76.657 34.6693 76.8481 34.6693C76.9836 34.6693 77.1052 34.6485 77.2164 34.6035C77.3276 34.5619 77.4215 34.4994 77.5014 34.4232L78.1616 35.0057L78.1547 35.0091ZM76.7021 32.9426C76.5388 32.9426 76.3964 32.9877 76.2782 33.0779C76.1601 33.168 76.0767 33.2963 76.0245 33.4593H77.3867C77.3346 33.3032 77.2477 33.1784 77.1261 33.0848C77.0045 32.9912 76.8655 32.9426 76.7056 32.9426" fill="white"/>
<path d="M78.8316 35.4391V32.1868H79.8289V32.4087C79.9471 32.3185 80.0826 32.2492 80.232 32.2007C80.3814 32.1521 80.5378 32.1278 80.7046 32.1278C81.0869 32.1278 81.3996 32.2492 81.6428 32.4954C81.8861 32.7415 82.0077 33.0536 82.0077 33.435V35.4391H81.0104V33.5702C81.0104 33.3934 80.9548 33.2512 80.8471 33.1438C80.7394 33.0363 80.5969 32.9808 80.4197 32.9808C80.2911 32.9808 80.1799 33.0051 80.0791 33.0501C79.9784 33.0952 79.8984 33.1576 79.8324 33.2408V35.4426H78.8351L78.8316 35.4391Z" fill="white"/>
<path d="M84.2219 34.6416C84.3575 34.6416 84.4826 34.6139 84.5972 34.5549C84.7119 34.496 84.8231 34.4093 84.9308 34.2914L85.5216 34.9051C85.3582 35.0924 85.1567 35.2414 84.9169 35.3455C84.6772 35.4495 84.4304 35.5015 84.1733 35.5015C83.93 35.5015 83.7042 35.4599 83.4922 35.3732C83.2802 35.2865 83.0995 35.1686 82.9432 35.0161C82.7903 34.8635 82.6687 34.6867 82.5783 34.4821C82.4914 34.2775 82.4463 34.0556 82.4463 33.8199C82.4463 33.5841 82.4914 33.3587 82.5783 33.1541C82.6652 32.9461 82.7868 32.7693 82.9432 32.6202C83.0961 32.4711 83.2802 32.3532 83.4922 32.2631C83.7042 32.1764 83.93 32.1313 84.1733 32.1313C84.4409 32.1313 84.6945 32.1833 84.9378 32.2908C85.181 32.3983 85.386 32.5439 85.5528 32.7346L84.9412 33.3691C84.8266 33.2408 84.7084 33.1472 84.5903 33.0848C84.4721 33.0224 84.3401 32.9912 84.1976 32.9912C83.9856 32.9912 83.805 33.0709 83.659 33.2304C83.5131 33.3899 83.4401 33.5876 83.4401 33.8199C83.4401 34.0522 83.5131 34.2498 83.666 34.4058C83.8154 34.5653 84.003 34.6416 84.2219 34.6416Z" fill="white"/>
<path d="M86.4148 31.8884C86.2619 31.8884 86.1334 31.8364 86.0256 31.7289C85.9179 31.6215 85.8658 31.4932 85.8658 31.3406C85.8658 31.188 85.9179 31.0598 86.0256 30.9523C86.1334 30.8448 86.2619 30.7928 86.4148 30.7928C86.5677 30.7928 86.6963 30.8448 86.804 30.9523C86.9117 31.0598 86.9639 31.188 86.9639 31.3406C86.9639 31.4932 86.9117 31.6215 86.804 31.7289C86.6963 31.8364 86.5677 31.8884 86.4148 31.8884ZM86.9152 35.4424H85.9179V32.1901H86.9152V35.4424Z" fill="white"/>
<path d="M88.5675 35.4946C88.2235 35.4946 87.9385 35.4009 87.7161 35.2102C87.4937 35.023 87.3825 34.7803 87.3825 34.4856C87.3825 34.1909 87.5007 33.9377 87.737 33.7679C87.9733 33.5945 88.3034 33.5113 88.7273 33.5113C88.8559 33.5113 88.981 33.5182 89.1026 33.5355C89.2242 33.5529 89.3458 33.5737 89.4675 33.6049V33.4454C89.4675 33.2824 89.4153 33.1576 89.3111 33.0813C89.2068 33.0016 89.0505 32.96 88.8455 32.96C88.7169 32.96 88.5744 32.9808 88.4146 33.0224C88.2547 33.064 88.0706 33.1299 87.8586 33.22L87.5007 32.4884C87.7648 32.3705 88.0219 32.2804 88.2756 32.2214C88.5292 32.1625 88.776 32.1313 89.0227 32.1313C89.4744 32.1313 89.8254 32.2388 90.0756 32.4538C90.3258 32.6687 90.4509 32.9704 90.4509 33.3622V35.446H89.464V35.2484C89.3319 35.3385 89.193 35.4044 89.047 35.4425C88.9011 35.4807 88.7412 35.5015 88.564 35.5015M88.3312 34.4752C88.3312 34.5757 88.3763 34.6589 88.4667 34.7144C88.557 34.7734 88.6821 34.8011 88.842 34.8011C88.9601 34.8011 89.0713 34.7907 89.1791 34.763C89.2833 34.7387 89.3806 34.7005 89.464 34.6451V34.2255C89.3702 34.2013 89.2729 34.1839 89.1756 34.1701C89.0783 34.1597 88.9775 34.1527 88.8733 34.1527C88.6995 34.1527 88.5675 34.1805 88.4736 34.2359C88.3798 34.2914 88.3312 34.3712 88.3312 34.4717" fill="white"/>
<path d="M94.6354 35.4425V35.2033C94.5069 35.2934 94.3713 35.3628 94.2219 35.4113C94.076 35.4599 93.9196 35.4841 93.7598 35.4841C93.5304 35.4841 93.3115 35.4425 93.11 35.3559C92.9049 35.2692 92.7312 35.1513 92.5783 34.9987C92.4289 34.8462 92.3107 34.6693 92.2238 34.4682C92.137 34.2637 92.0953 34.0452 92.0953 33.8129C92.0953 33.5806 92.1405 33.3622 92.2273 33.1576C92.3142 32.953 92.4358 32.7797 92.5887 32.6271C92.7416 32.478 92.9188 32.3601 93.1273 32.2734C93.3358 32.1868 93.5547 32.1452 93.791 32.1452C93.9439 32.1452 94.0899 32.1625 94.2289 32.2006C94.3679 32.2388 94.4999 32.2908 94.625 32.3601V31.1362L95.6223 30.9212V35.4391H94.6354V35.4425ZM93.0787 33.8129C93.0787 34.0452 93.1621 34.2429 93.3289 34.3989C93.4957 34.5549 93.6972 34.6347 93.937 34.6347C94.076 34.6347 94.2045 34.6139 94.3192 34.5688C94.4339 34.5272 94.5381 34.4613 94.6285 34.3746V33.2373C94.5416 33.1611 94.4408 33.0987 94.3192 33.0536C94.2011 33.0085 94.0725 32.9842 93.937 32.9842C93.6937 32.9842 93.4922 33.064 93.3254 33.22C93.1621 33.3795 93.0787 33.5737 93.0787 33.806" fill="white"/>
<path d="M99.2263 35.0091C99.0213 35.1825 98.8093 35.3073 98.5939 35.3836C98.3784 35.4599 98.1352 35.5015 97.8641 35.5015C97.6174 35.5015 97.3846 35.4599 97.1691 35.3732C96.9502 35.2865 96.7626 35.1686 96.6062 35.0161C96.4464 34.8635 96.3213 34.6867 96.2309 34.4786C96.1371 34.2706 96.0919 34.0522 96.0919 33.8164C96.0919 33.5806 96.1371 33.3622 96.224 33.1541C96.3108 32.9461 96.4325 32.7693 96.5854 32.6167C96.7383 32.4642 96.9155 32.3463 97.124 32.2596C97.3325 32.1729 97.5549 32.1313 97.7912 32.1313C98.0274 32.1313 98.2498 32.1764 98.4514 32.2665C98.6529 32.3567 98.8267 32.478 98.9726 32.6341C99.1186 32.7901 99.2332 32.9773 99.3132 33.1957C99.3966 33.4142 99.4383 33.6534 99.4383 33.9065V34.1527H97.117C97.183 34.3053 97.2838 34.4301 97.4263 34.5237C97.5653 34.6208 97.7321 34.6693 97.9197 34.6693C98.0552 34.6693 98.1769 34.6485 98.2881 34.6035C98.3993 34.5619 98.4931 34.4994 98.573 34.4232L99.2332 35.0057L99.2263 35.0091ZM97.7738 32.9426C97.6105 32.9426 97.468 32.9877 97.3498 33.0779C97.2317 33.168 97.1448 33.2963 97.0962 33.4593H98.4583C98.4062 33.3032 98.3193 33.1784 98.1977 33.0848C98.0761 32.9912 97.9371 32.9426 97.7773 32.9426" fill="white"/>
<path d="M99.6805 35.0784L100.153 34.4092C100.358 34.5306 100.546 34.6208 100.713 34.6762C100.879 34.7317 101.046 34.7594 101.213 34.7594C101.38 34.7594 101.508 34.7352 101.602 34.6901C101.699 34.6416 101.748 34.5791 101.748 34.5029C101.748 34.4405 101.72 34.3919 101.668 34.3538C101.616 34.3156 101.529 34.2879 101.415 34.2706L100.768 34.1735C100.448 34.1249 100.202 34.0174 100.028 33.851C99.8543 33.6846 99.7709 33.4696 99.7709 33.2026C99.7709 32.8732 99.896 32.6167 100.146 32.4294C100.396 32.2422 100.74 32.1451 101.175 32.1451C101.408 32.1451 101.644 32.1798 101.88 32.2457C102.116 32.315 102.335 32.4121 102.537 32.5369L102.064 33.1749C101.887 33.0743 101.72 32.9981 101.56 32.9495C101.401 32.901 101.241 32.8802 101.081 32.8802C100.952 32.8802 100.852 32.901 100.772 32.9461C100.695 32.9877 100.654 33.0466 100.654 33.116C100.654 33.1818 100.681 33.2338 100.74 33.272C100.799 33.3101 100.897 33.3413 101.036 33.3621L101.682 33.4592C102.002 33.5043 102.249 33.6083 102.426 33.7747C102.599 33.9412 102.686 34.1527 102.686 34.4058C102.686 34.5618 102.648 34.7074 102.575 34.8427C102.502 34.9779 102.398 35.0958 102.269 35.1929C102.141 35.2899 101.984 35.3697 101.804 35.4217C101.623 35.4772 101.428 35.5049 101.22 35.5049C100.911 35.5049 100.626 35.4702 100.362 35.3974C100.098 35.3246 99.8682 35.2206 99.6805 35.0819" fill="white"/>
<path d="M105.49 35.4425V35.2033C105.362 35.2934 105.226 35.3628 105.077 35.4113C104.928 35.4599 104.775 35.4841 104.615 35.4841C104.385 35.4841 104.17 35.4425 103.965 35.3559C103.76 35.2692 103.586 35.1513 103.437 34.9987C103.287 34.8462 103.169 34.6693 103.082 34.4682C102.995 34.2637 102.954 34.0452 102.954 33.8129C102.954 33.5806 102.999 33.3622 103.086 33.1576C103.173 32.953 103.294 32.7797 103.447 32.6271C103.6 32.478 103.777 32.3601 103.986 32.2734C104.194 32.1868 104.413 32.1452 104.646 32.1452C104.799 32.1452 104.945 32.1625 105.084 32.2006C105.223 32.2388 105.355 32.2908 105.477 32.3601V31.1362L106.474 30.9212V35.4391H105.487L105.49 35.4425ZM103.934 33.8129C103.934 34.0452 104.017 34.2429 104.184 34.3989C104.351 34.5549 104.552 34.6347 104.792 34.6347C104.931 34.6347 105.06 34.6139 105.174 34.5688C105.289 34.5272 105.393 34.4613 105.484 34.3746V33.2373C105.397 33.1611 105.296 33.0987 105.174 33.0536C105.056 33.0085 104.928 32.9842 104.792 32.9842C104.549 32.9842 104.347 33.064 104.18 33.22C104.017 33.3795 103.934 33.5737 103.934 33.806" fill="white"/>
<path d="M110.081 35.0091C109.876 35.1825 109.664 35.3073 109.448 35.3836C109.233 35.4599 108.99 35.5015 108.719 35.5015C108.472 35.5015 108.239 35.4599 108.024 35.3732C107.805 35.2865 107.617 35.1686 107.461 35.0161C107.301 34.8635 107.176 34.6867 107.085 34.4786C106.992 34.2706 106.946 34.0522 106.946 33.8164C106.946 33.5806 106.992 33.3622 107.078 33.1541C107.165 32.9461 107.287 32.7693 107.44 32.6167C107.593 32.4642 107.77 32.3463 107.978 32.2596C108.187 32.1729 108.409 32.1313 108.646 32.1313C108.882 32.1313 109.104 32.1764 109.306 32.2665C109.507 32.3567 109.681 32.478 109.827 32.6341C109.973 32.7901 110.088 32.9773 110.168 33.1957C110.251 33.4142 110.293 33.6534 110.293 33.9065V34.1527H107.971C108.037 34.3053 108.138 34.4301 108.281 34.5237C108.42 34.6208 108.583 34.6693 108.774 34.6693C108.91 34.6693 109.031 34.6485 109.142 34.6035C109.254 34.5619 109.348 34.4994 109.427 34.4232L110.088 35.0057L110.081 35.0091ZM108.628 32.9426C108.465 32.9426 108.322 32.9877 108.204 33.0779C108.086 33.168 107.999 33.2963 107.951 33.4593H109.313C109.261 33.3032 109.174 33.1784 109.052 33.0848C108.931 32.9912 108.792 32.9426 108.632 32.9426" fill="white"/>
<path d="M111.709 35.0784L112.181 34.4092C112.386 34.5306 112.574 34.6208 112.741 34.6762C112.908 34.7317 113.074 34.7594 113.241 34.7594C113.408 34.7594 113.536 34.7352 113.63 34.6901C113.728 34.6416 113.776 34.5791 113.776 34.5029C113.776 34.4405 113.748 34.3919 113.696 34.3538C113.644 34.3156 113.557 34.2879 113.443 34.2706L112.796 34.1735C112.477 34.1249 112.23 34.0174 112.056 33.851C111.882 33.6846 111.799 33.4696 111.799 33.2026C111.799 32.8732 111.924 32.6167 112.174 32.4294C112.425 32.2422 112.769 32.1451 113.203 32.1451C113.436 32.1451 113.672 32.1798 113.908 32.2457C114.145 32.315 114.364 32.4121 114.565 32.5369L114.092 33.1749C113.915 33.0743 113.748 32.9981 113.589 32.9495C113.429 32.901 113.269 32.8802 113.109 32.8802C112.98 32.8802 112.88 32.901 112.8 32.9461C112.723 32.9877 112.682 33.0466 112.682 33.116C112.682 33.1818 112.709 33.2338 112.769 33.272C112.828 33.3101 112.925 33.3413 113.064 33.3621L113.71 33.4592C114.03 33.5043 114.277 33.6083 114.454 33.7747C114.628 33.9412 114.714 34.1527 114.714 34.4058C114.714 34.5618 114.676 34.7074 114.603 34.8427C114.53 34.9779 114.426 35.0958 114.297 35.1929C114.169 35.2899 114.013 35.3697 113.832 35.4217C113.651 35.4772 113.457 35.5049 113.248 35.5049C112.939 35.5049 112.654 35.4702 112.39 35.3974C112.126 35.3246 111.896 35.2206 111.709 35.0819" fill="white"/>
<path d="M116.07 32.1904V34.0593C116.07 34.2361 116.125 34.3783 116.233 34.4858C116.341 34.5933 116.483 34.6487 116.66 34.6487C116.789 34.6487 116.9 34.6245 117.001 34.5794C117.098 34.5343 117.182 34.4719 117.248 34.3887V32.187H118.245V35.4393H117.248V35.2174C117.13 35.3075 116.994 35.3769 116.845 35.4254C116.695 35.474 116.539 35.4982 116.372 35.4982C115.99 35.4982 115.677 35.3769 115.434 35.1307C115.191 34.8845 115.069 34.5725 115.069 34.1911V32.187H116.066L116.07 32.1904Z" fill="white"/>
<path d="M119.912 33.8199C119.912 33.5876 119.957 33.3657 120.051 33.1576C120.145 32.9496 120.27 32.7728 120.426 32.6202C120.586 32.4676 120.77 32.3497 120.985 32.2596C121.201 32.1729 121.434 32.1278 121.68 32.1278C121.927 32.1278 122.156 32.1729 122.372 32.2596C122.587 32.3497 122.775 32.4676 122.931 32.6202C123.088 32.7728 123.216 32.9531 123.307 33.1576C123.401 33.3657 123.446 33.5841 123.446 33.8199C123.446 34.0556 123.401 34.2741 123.307 34.4821C123.213 34.6902 123.088 34.867 122.931 35.0196C122.772 35.1721 122.587 35.29 122.372 35.3767C122.156 35.4634 121.927 35.505 121.68 35.505C121.434 35.505 121.204 35.4634 120.985 35.3767C120.77 35.29 120.582 35.1721 120.426 35.0196C120.266 34.867 120.141 34.6902 120.051 34.4821C119.957 34.2741 119.912 34.0556 119.912 33.8199ZM121.68 34.6451C121.903 34.6451 122.09 34.5653 122.243 34.4058C122.396 34.2463 122.476 34.0522 122.476 33.8233C122.476 33.5945 122.4 33.3934 122.243 33.2339C122.087 33.0744 121.903 32.9947 121.68 32.9947C121.458 32.9947 121.27 33.0744 121.117 33.2339C120.965 33.3934 120.888 33.591 120.888 33.8233C120.888 34.0556 120.965 34.2463 121.117 34.4058C121.27 34.5653 121.458 34.6451 121.68 34.6451Z" fill="white"/>
<path d="M123.916 35.4391V32.1868H124.913V32.5128C125.021 32.3845 125.146 32.2874 125.288 32.218C125.431 32.1487 125.591 32.114 125.768 32.114C125.862 32.1175 125.938 32.1244 125.997 32.1348C126.056 32.1452 126.105 32.166 126.143 32.1938V33.0606C126.077 33.0328 126.004 33.0086 125.921 32.9912C125.838 32.9739 125.754 32.9635 125.667 32.9635C125.511 32.9635 125.365 33.0016 125.233 33.0745C125.097 33.1473 124.99 33.2478 124.91 33.3761V35.4426H123.912L123.916 35.4391Z" fill="white"/>
<path d="M127.078 31.8884C126.925 31.8884 126.796 31.8364 126.689 31.7289C126.581 31.6215 126.529 31.4932 126.529 31.3406C126.529 31.188 126.581 31.0598 126.689 30.9523C126.796 30.8448 126.925 30.7928 127.078 30.7928C127.231 30.7928 127.359 30.8448 127.467 30.9523C127.575 31.0598 127.627 31.188 127.627 31.3406C127.627 31.4932 127.575 31.6215 127.467 31.7289C127.359 31.8364 127.231 31.8884 127.078 31.8884ZM127.578 35.4424H126.581V32.1901H127.578V35.4424Z" fill="white"/>
<path d="M129.701 35.4527C129.471 35.4527 129.256 35.4111 129.051 35.3244C128.849 35.2377 128.672 35.1198 128.523 34.9707C128.377 34.8216 128.259 34.6448 128.172 34.4437C128.085 34.2426 128.043 34.0242 128.043 33.7953C128.043 33.5665 128.088 33.3515 128.175 33.1504C128.262 32.9493 128.384 32.7759 128.537 32.6268C128.69 32.4812 128.867 32.3633 129.075 32.2767C129.284 32.19 129.503 32.1484 129.739 32.1484C129.888 32.1484 130.031 32.1657 130.17 32.2038C130.309 32.242 130.437 32.294 130.559 32.3633V32.19H131.546V35.4111C131.546 35.848 131.4 36.1877 131.108 36.4235C130.816 36.6593 130.399 36.7772 129.857 36.7772C129.6 36.7772 129.35 36.7529 129.11 36.7044C128.87 36.6558 128.655 36.5865 128.464 36.4963L128.797 35.7231C128.974 35.8063 129.148 35.8653 129.322 35.9069C129.496 35.9485 129.666 35.9693 129.84 35.9693C130.073 35.9693 130.25 35.9208 130.371 35.8271C130.49 35.7335 130.549 35.5914 130.549 35.4041V35.1996C130.427 35.2828 130.291 35.3452 130.149 35.3903C130.007 35.4353 129.857 35.4596 129.704 35.4596M129.027 33.7988C129.027 34.0311 129.11 34.2287 129.273 34.3848C129.437 34.5443 129.638 34.6205 129.878 34.6205C130.013 34.6205 130.139 34.5997 130.25 34.5581C130.361 34.5165 130.462 34.4576 130.549 34.3813V33.2302C130.462 33.1573 130.361 33.0984 130.246 33.0568C130.132 33.0152 130.01 32.9909 129.881 32.9909C129.645 32.9909 129.44 33.0672 129.273 33.2232C129.106 33.3792 129.023 33.5699 129.023 33.7953" fill="white"/>
<path d="M135.146 35.0091C134.941 35.1825 134.729 35.3073 134.513 35.3836C134.298 35.4599 134.055 35.5015 133.784 35.5015C133.537 35.5015 133.304 35.4599 133.089 35.3732C132.87 35.2865 132.682 35.1686 132.526 35.0161C132.366 34.8635 132.241 34.6867 132.15 34.4786C132.057 34.2706 132.011 34.0522 132.011 33.8164C132.011 33.5806 132.057 33.3622 132.143 33.1541C132.23 32.9461 132.352 32.7693 132.505 32.6167C132.658 32.4642 132.835 32.3463 133.043 32.2596C133.252 32.1729 133.474 32.1313 133.711 32.1313C133.947 32.1313 134.169 32.1764 134.371 32.2665C134.572 32.3567 134.746 32.478 134.892 32.6341C135.038 32.7901 135.153 32.9773 135.233 33.1957C135.316 33.4142 135.354 33.6534 135.354 33.9065V34.1527H133.033C133.099 34.3053 133.2 34.4301 133.342 34.5237C133.481 34.6208 133.648 34.6693 133.836 34.6693C133.971 34.6693 134.093 34.6485 134.204 34.6035C134.315 34.5619 134.409 34.4994 134.489 34.4232L135.149 35.0057L135.146 35.0091ZM133.693 32.9426C133.53 32.9426 133.387 32.9877 133.269 33.0779C133.151 33.168 133.064 33.2963 133.016 33.4593H134.378C134.326 33.3032 134.235 33.1784 134.117 33.0848C133.996 32.9912 133.857 32.9426 133.697 32.9426" fill="white"/>
<path d="M135.824 35.4391V32.1868H136.821V32.4087C136.939 32.3185 137.074 32.2492 137.224 32.2007C137.373 32.1521 137.53 32.1278 137.696 32.1278C138.079 32.1278 138.391 32.2492 138.635 32.4954C138.878 32.7415 139 33.0536 139 33.435V35.4391H138.002V33.5702C138.002 33.3934 137.947 33.2512 137.839 33.1438C137.731 33.0363 137.589 32.9808 137.412 32.9808C137.283 32.9808 137.172 33.0051 137.074 33.0501C136.977 33.0952 136.894 33.1576 136.828 33.2408V35.4426H135.83L135.824 35.4391Z" fill="white"/>
<defs>
<linearGradient id="paint0_linear_272_3584" x1="7.75172" y1="8.01903" x2="38.7586" y2="41.4316" gradientUnits="userSpaceOnUse">
<stop stop-color="white"/>
<stop offset="1" stop-color="white"/>
</linearGradient>
</defs>
</svg>
