<svg width="150" height="150" viewBox="0 0 150 150" fill="none" xmlns="http://www.w3.org/2000/svg">
<path d="M120.33 70.6295C120.33 69.7366 120.33 68.9062 120.33 68.0759C120.33 64.0848 120.33 60.0938 120.307 56.1027C120.307 55.625 120.424 55.4375 120.926 55.4598C121.586 55.4955 122.25 55.4688 122.954 55.4688C122.954 55.8036 122.954 56.0045 122.954 56.2054C122.954 66.7545 122.954 77.3036 122.954 87.8527C122.954 88.6027 122.954 88.5982 122.187 88.5937C121.595 88.5893 120.998 88.5937 120.347 88.5937V72.8661H100.754C100.741 73.0313 100.723 73.1741 100.723 73.317C100.723 78.2143 100.723 83.1071 100.741 88.0045C100.741 88.4509 100.638 88.6161 100.153 88.6027C98.6637 88.5714 97.1786 88.5804 95.6891 88.5937C95.2942 88.5937 95.1372 88.5 95.1372 88.067C95.1596 77.4821 95.1641 66.8973 95.1731 56.308C95.1731 55.4643 95.1731 55.4643 96.0121 55.4643C97.4074 55.4643 98.8028 55.4777 100.198 55.4598C100.566 55.4598 100.737 55.5357 100.737 55.942C100.705 60.6339 100.692 65.3259 100.651 70.0179C100.651 70.4821 100.71 70.6652 101.235 70.6652C107.413 70.6473 113.591 70.6518 119.769 70.6518C119.93 70.6518 120.096 70.6384 120.33 70.625V70.6295Z" fill="white"/>
<path d="M42.3431 66.7589C42.3431 70.1562 42.3386 73.558 42.3431 76.9554C42.3431 78.7098 42.8053 80.3616 43.6981 81.8616C45.2011 84.3839 47.4758 85.7812 50.3203 86.5179C55.0133 87.7321 60.8504 84.3437 61.7836 79.0491C61.981 77.9286 62.1111 76.7812 62.1156 75.6429C62.147 69.1786 62.1291 62.7143 62.1291 56.2455C62.1291 55.7247 62.3893 55.4643 62.9098 55.4643C63.2821 55.4643 63.659 55.4955 64.0269 55.4554C64.4846 55.4107 64.6057 55.5937 64.5967 56.0223C64.5743 57.683 64.5698 59.3482 64.5698 61.0089C64.5653 66.3125 64.6281 71.6116 64.5339 76.9152C64.489 79.6652 63.6231 82.192 61.8105 84.3661C60.2492 86.2411 58.1674 87.2634 55.9286 87.9955C54.9056 88.3304 53.793 88.5045 52.7117 88.5491C51.0427 88.6205 49.3647 88.5759 47.6957 88.4821C45.2505 88.3437 43.1776 87.2545 41.2708 85.808C38.4488 83.6696 37.0265 80.7545 36.9368 77.3125C36.7887 71.6652 36.8022 66.0134 36.8111 60.3616C36.8111 57.9464 38.884 55.8616 41.4009 55.5714C41.5131 55.558 41.6298 55.5625 41.733 55.5312C42.2265 55.3839 42.3431 55.5982 42.3386 56.058C42.3252 59.625 42.3297 63.1875 42.3297 66.7545L42.3431 66.7589Z" fill="white"/>
<path d="M71.2371 80.0536C71.4076 80.4509 71.5467 80.7723 71.6768 81.0937C73.2426 84.9286 77.3479 87.2902 81.3051 86.625C82.5927 86.4062 83.7592 85.9018 84.7956 85.1161C86.6307 83.7277 87.0165 81.058 85.693 79.1562C84.6027 77.5893 83.0907 76.5402 81.4576 75.625C78.9361 74.2054 76.3922 72.8304 73.8887 71.3795C72.3139 70.4643 71.0262 69.2187 70.0033 67.7009C68.7919 65.9062 68.5676 64 69.1374 61.942C69.9494 59.0134 71.9101 57.2411 74.7232 56.25C77.9625 55.1116 81.2243 55.2321 84.4008 56.317C87.3665 57.3304 89.1835 59.5848 90.1751 62.5089C90.2872 62.8348 90.2244 63 89.861 63.1205C89.3181 63.2991 88.7932 63.5446 88.2683 63.7768C87.5594 64.0937 87.5504 64.1027 87.2588 63.3661C86.7204 62.0089 86.0025 60.7768 84.9482 59.7455C83.2253 58.0625 81.0987 57.5312 78.7656 57.5937C77.6395 57.625 76.5627 57.9107 75.5532 58.4196C73.5298 59.4464 72.4889 61.9018 73.4041 63.7857C73.781 64.558 74.3912 65.2723 75.0417 65.8482C76.8992 67.4955 79.0752 68.6741 81.2916 69.7679C83.9477 71.0804 86.5185 72.5 88.6137 74.6518C90.1885 76.2679 91.216 78.1116 90.8795 80.4152C90.3411 84.0759 88.3939 86.7187 84.7687 87.8705C81.1749 89.0089 77.5901 88.8884 74.104 87.3705C72.3229 86.5937 71.1788 85.1339 70.1199 83.6027C69.7206 83.0268 69.4245 82.3839 69.0701 81.7768C68.8502 81.4018 68.94 81.183 69.3348 81C69.9584 80.7187 70.5596 80.3929 71.2371 80.0491V80.0536Z" fill="white"/>
<path d="M27.0842 72.067C27.0842 66.7857 27.0842 61.5 27.0842 56.2188C27.0842 55.4866 27.0931 55.4955 27.7886 55.5536C30.3011 55.7679 32.6565 57.8973 32.6251 60.8884C32.5623 66.7991 32.6117 72.7054 32.6162 78.6161C32.6162 81.7366 32.6072 84.8571 32.6296 87.9821C32.6296 88.4375 32.513 88.5982 32.0374 88.5893C30.5478 88.5625 29.0628 88.5714 27.5732 88.5893C27.1829 88.5893 27.0752 88.4688 27.0752 88.0759C27.0887 82.7366 27.0842 77.4018 27.0842 72.0625V72.067Z" fill="white"/>
<path d="M34.698 39C34.8192 39.1295 34.9224 39.2054 34.9807 39.3036C36.6138 42.1161 38.229 44.942 39.8846 47.7411C40.2076 48.2902 40.2525 48.6696 39.8846 49.2634C38.5655 51.3839 37.3451 53.5625 36.0889 55.7188C35.6447 56.4777 35.205 57.2411 34.716 58.0714C34.0251 56.8795 33.37 55.7902 32.7643 54.6786C32.6791 54.5223 32.7643 54.2143 32.863 54.0357C33.7917 52.3973 34.7339 50.7634 35.6986 49.1429C35.9363 48.7411 35.9319 48.4196 35.6941 48.0179C34.7474 46.4286 33.8411 44.8214 32.8944 43.2321C32.6836 42.875 32.6432 42.5982 32.8675 42.2232C33.3969 41.3348 33.868 40.4107 34.366 39.5045C34.4513 39.3482 34.5634 39.2054 34.698 39.0045V39Z" fill="white"/>
<path d="M31.6338 44.0714C31.8491 44.3973 31.9837 44.567 32.0869 44.7589C32.733 45.9196 33.388 47.0759 34.0027 48.2545C34.1059 48.4554 34.1059 48.7991 34.0027 49C33.3432 50.2366 32.6433 51.4554 31.9523 52.6741C31.885 52.7902 31.7639 52.8795 31.6652 52.9777C31.571 52.8795 31.4453 52.7946 31.3825 52.6741C30.6961 51.4286 30.0096 50.183 29.3546 48.9241C29.2604 48.7455 29.2469 48.442 29.3366 48.2723C30.0231 46.9687 30.7499 45.6786 31.4633 44.3839C31.4992 44.3214 31.5351 44.2545 31.6338 44.0714Z" fill="white"/>
<path d="M111.154 98.1518C112.164 98.1518 113.092 98.1161 114.017 98.1607C115.228 98.2187 116.027 99.0446 116.045 100.161C116.058 100.808 115.775 101.29 115.242 101.647C115.107 101.737 114.968 101.821 114.775 101.946C115.067 102.29 115.322 102.598 115.583 102.902C115.825 103.187 116.067 103.469 116.368 103.812C115.475 103.951 114.784 103.933 114.308 103.165C114.106 102.839 113.833 102.527 113.519 102.321C113.272 102.161 112.909 102.143 112.599 102.147C112.541 102.147 112.482 102.554 112.437 102.772C112.42 102.862 112.437 102.955 112.446 103.049C112.473 103.844 112.2 104.062 111.406 103.862C111.302 103.835 111.163 103.674 111.163 103.576C111.15 101.79 111.154 100.009 111.154 98.1607V98.1518ZM113.187 100.978C113.586 100.92 113.905 100.902 114.201 100.817C114.618 100.696 114.833 100.348 114.676 99.9643C114.582 99.7321 114.25 99.4821 113.99 99.4464C113.519 99.375 113.021 99.4554 112.536 99.4732C112.527 99.4732 112.509 99.5045 112.509 99.5179C112.5 99.9554 112.446 100.402 112.523 100.821C112.541 100.92 113.003 100.937 113.191 100.978H113.187Z" fill="white"/>
<path d="M103.079 101.991C103.603 102.576 104.115 103.147 104.644 103.737C103.832 104.036 103.276 103.911 102.769 103.348C102.473 103.018 102.217 102.634 101.867 102.371C101.634 102.196 101.27 102.143 100.961 102.147C100.885 102.147 100.799 102.563 100.741 102.79C100.714 102.893 100.741 103.009 100.741 103.121C100.741 103.813 100.324 104.107 99.6911 103.835C99.5879 103.79 99.4802 103.616 99.4758 103.5C99.4623 101.737 99.4668 99.9732 99.4668 98.1384C100.719 98.2455 101.97 97.9152 103.173 98.3929C103.909 98.683 104.258 99.2768 104.299 100.027C104.339 100.741 104.052 101.317 103.393 101.674C103.312 101.719 103.236 101.772 103.164 101.826C103.137 101.848 103.128 101.888 103.079 101.982V101.991ZM101.481 100.982C101.89 100.915 102.262 100.938 102.531 100.781C102.755 100.652 102.993 100.295 102.971 100.067C102.948 99.8393 102.625 99.5 102.392 99.4687C101.89 99.3929 101.297 99.3571 100.871 99.5625C100.683 99.6518 100.759 100.384 100.817 100.808C100.831 100.902 101.288 100.937 101.481 100.982Z" fill="white"/>
<path d="M93.4278 98.1607C94.4777 98.1607 95.5006 98.1027 96.5101 98.1786C97.4703 98.25 98.058 98.8616 98.2464 99.7768C98.4214 100.629 98.0984 101.268 97.2325 101.781C97.1876 101.808 97.1517 101.853 97.0306 101.955C97.5376 102.54 98.0401 103.121 98.565 103.728C97.7484 104.018 97.2325 103.915 96.7748 103.406C96.4653 103.063 96.1826 102.692 95.8461 102.379C95.6891 102.228 95.4468 102.134 95.227 102.085C94.7962 101.991 94.6033 102.21 94.6302 102.634C94.6302 102.687 94.6392 102.746 94.6392 102.799C94.7065 103.987 94.6751 104.013 93.4233 103.804V98.1607H93.4278ZM95.4423 100.973C95.8326 100.911 96.1512 100.884 96.4518 100.813C96.8466 100.719 97.0261 100.379 96.9319 100.058C96.8601 99.817 96.5595 99.5089 96.3262 99.4732C95.8192 99.3929 95.2898 99.4732 94.7693 99.4821C94.7603 99.9196 94.6975 100.366 94.7693 100.79C94.7873 100.897 95.2449 100.929 95.4423 100.978V100.973Z" fill="white"/>
<path d="M67.9931 101.955C68.5046 102.558 69.0026 103.134 69.5141 103.737C68.702 104.027 68.1995 103.915 67.7015 103.375C67.4009 103.049 67.1541 102.656 66.7997 102.402C66.535 102.21 66.1446 102.161 65.8036 102.134C65.7498 102.134 65.5973 102.594 65.6017 102.839C65.6197 104.004 65.6152 104.018 64.3679 103.804V98.1607C65.3909 98.1607 66.4093 98.1027 67.4188 98.1786C68.1367 98.2366 68.7872 98.5625 69.0744 99.308C69.357 100.045 69.3256 100.763 68.7738 101.375C68.5719 101.598 68.2847 101.746 67.9931 101.955ZM66.4811 101.004C66.4811 101.004 66.4946 100.964 66.4991 100.946C66.7548 100.924 67.015 100.92 67.2708 100.875C67.6925 100.799 67.9079 100.518 67.9168 100.103C67.9258 99.692 67.6297 99.5134 67.2887 99.4554C66.8894 99.3884 66.4856 99.3705 66.0818 99.3527C65.9696 99.3527 65.7588 99.4286 65.7543 99.4866C65.7049 99.9196 65.6376 100.366 65.7139 100.781C65.7363 100.897 66.2164 100.929 66.4856 101L66.4811 101.004Z" fill="white"/>
<path d="M105.47 98.1518C106.874 98.1518 108.207 98.1429 109.539 98.1652C109.656 98.1652 109.849 98.3571 109.871 98.4866C109.921 98.7679 109.889 99.067 109.889 99.4375C109.019 99.4375 108.189 99.433 107.359 99.4375C106.852 99.442 106.659 99.6607 106.816 100.125C106.87 100.286 107.139 100.464 107.314 100.473C108 100.509 108.687 100.509 109.373 100.473C109.876 100.446 109.786 100.781 109.795 101.058C109.804 101.339 109.894 101.674 109.396 101.661C108.673 101.638 107.946 101.67 107.224 101.652C106.838 101.643 106.735 101.821 106.753 102.156C106.766 102.469 106.784 102.746 107.229 102.728C107.951 102.701 108.678 102.728 109.4 102.692C109.898 102.665 109.867 102.996 109.889 103.308C109.912 103.634 109.88 103.884 109.436 103.875C108.247 103.857 107.058 103.862 105.869 103.875C105.595 103.875 105.465 103.799 105.465 103.5C105.474 101.75 105.465 100 105.465 98.1518H105.47Z" fill="white"/>
<path d="M89.0398 101.656C89.0308 101.884 89.0353 102.049 89.0084 102.205C88.9456 102.638 89.1744 102.759 89.5558 102.746C90.1884 102.728 90.8255 102.754 91.4491 102.692C92.0413 102.634 92.2253 102.866 92.1356 103.406C92.1131 103.531 92.1176 103.661 92.1041 103.826H87.7432V98.1875H92.0952V99.433C91.2382 99.433 90.3858 99.4509 89.5378 99.4241C89.125 99.4107 88.9904 99.5402 88.9904 99.9554C88.9904 100.371 89.1295 100.518 89.5378 100.5C90.13 100.478 90.7312 100.531 91.3235 100.473C91.8529 100.42 91.9965 100.616 92.0279 101.103C92.0683 101.687 91.7228 101.656 91.328 101.652C90.5877 101.643 89.8429 101.652 89.0353 101.652L89.0398 101.656Z" fill="white"/>
<path d="M81.2736 98.2098C81.2736 98.2098 81.3005 98.1741 81.3139 98.1741C82.1245 98.0878 82.5298 98.4405 82.5298 99.2321C82.5298 100.092 82.968 100.513 83.8444 100.496C84.637 100.481 85.0333 100.074 85.0333 99.2768C85.0333 98.9286 85.0333 98.5804 85.0333 98.1875H86.2941V103.835H85.0468V101.652C84.2751 101.652 83.5707 101.629 82.8708 101.674C82.7452 101.683 82.5567 101.946 82.5388 102.112C82.4939 102.549 82.5208 102.996 82.5298 103.437C82.5388 103.888 82.2247 103.893 81.9196 103.862C81.6504 103.835 81.2242 104.045 81.2242 103.5C81.2197 101.763 81.2197 100.031 81.2197 98.2946C81.2197 98.2634 81.2511 98.2321 81.2736 98.2009V98.2098Z" fill="white"/>
<path d="M29.4577 104C28.4797 103.982 27.7394 103.817 27.21 103.138C26.9856 102.853 26.9138 102.563 27.2773 102.339C27.5689 102.161 27.8336 101.848 28.2015 102.321C28.7264 103 29.5161 103.058 30.2339 102.558C30.6108 102.295 30.6063 101.871 30.1846 101.692C29.866 101.558 29.5026 101.522 29.1661 101.433C28.8431 101.353 28.5111 101.295 28.206 101.165C27.5779 100.897 27.1875 100.446 27.192 99.7232C27.192 98.9866 27.5644 98.5134 28.206 98.2054C29.0809 97.7857 30.5614 97.9509 31.2524 98.6027C31.4274 98.7679 31.4498 99.0848 31.544 99.3304C31.1985 99.4509 30.9428 99.942 30.4717 99.5446C30.0589 99.1964 29.5699 98.9911 29.0315 99.1696C28.8162 99.2411 28.6591 99.4732 28.4752 99.6339C28.6502 99.7946 28.8027 100.027 29.0046 100.094C29.4219 100.232 29.875 100.272 30.3057 100.375C31.3331 100.625 31.8671 101.259 31.8491 102.187C31.8312 103.031 31.2165 103.679 30.225 103.875C29.9154 103.938 29.6058 103.969 29.4577 103.991V104Z" fill="white"/>
<path d="M38.9604 103.871C38.5297 103.871 38.1708 103.924 37.8432 103.848C37.6638 103.808 37.4619 103.58 37.3901 103.393C37.251 103.022 37.0267 102.879 36.6408 102.884C36.0486 102.884 35.4519 102.853 34.8596 102.835C34.5052 102.826 34.236 102.857 34.1508 103.321C34.0476 103.862 33.6976 103.951 32.6343 103.817C32.6926 103.643 32.733 103.473 32.8048 103.321C33.5092 101.759 34.236 100.21 34.9135 98.6339C35.1423 98.1027 35.5371 98.1741 35.9589 98.1429C36.3716 98.1116 36.5331 98.2902 36.6857 98.6473C37.3048 100.103 37.9689 101.545 38.6149 102.991C38.7316 103.254 38.8303 103.527 38.9694 103.871H38.9604ZM35.8601 99.8973C35.8018 99.8973 35.7435 99.9018 35.6852 99.9062C35.4429 100.469 35.2051 101.036 34.9449 101.643H36.6453C36.3537 101 36.1069 100.446 35.8601 99.8973Z" fill="white"/>
<path d="M51.1236 103.871C50.7512 103.871 50.5089 103.848 50.2712 103.875C49.8763 103.924 49.6251 103.777 49.5309 103.393C49.4277 102.978 49.154 102.862 48.7412 102.875C48.149 102.893 47.5523 102.844 46.96 102.866C46.7671 102.875 46.4396 102.978 46.4082 103.098C46.1659 103.987 45.5198 103.937 44.7795 103.83C44.8468 103.647 44.8962 103.473 44.9725 103.312C45.6769 101.75 46.3992 100.196 47.0901 98.625C47.292 98.1696 47.6285 98.1562 48.0413 98.1429C48.4361 98.1295 48.6335 98.2768 48.7906 98.6384C49.4366 100.125 50.1186 101.598 50.7871 103.076C50.8903 103.304 50.9845 103.54 51.1281 103.875L51.1236 103.871ZM47.0857 101.652H48.7861C48.4989 101.004 48.2522 100.442 48.0054 99.875C47.9516 99.8839 47.9022 99.8973 47.8484 99.9062C47.6106 100.451 47.3728 100.996 47.0857 101.647V101.652Z" fill="white"/>
<path d="M63.4796 103.871C63.1387 103.871 62.8784 103.848 62.6227 103.875C62.201 103.915 61.9811 103.723 61.8151 103.353C61.7343 103.17 61.5145 102.924 61.344 102.915C60.4736 102.871 59.6032 102.893 58.7418 102.893C58.4457 103.866 58.3155 103.942 57.0728 103.826C57.1625 103.621 57.2432 103.424 57.3285 103.237C58.0329 101.692 58.7642 100.156 59.4282 98.5937C59.666 98.0312 60.0833 98.1875 60.4826 98.1384C60.8909 98.0848 60.9716 98.3571 61.0972 98.6339C61.8689 100.348 62.6541 102.058 63.4751 103.871H63.4796ZM60.3794 99.9196C60.3121 99.9018 60.2493 99.8839 60.182 99.8661C59.9128 100.437 59.6436 101.013 59.3475 101.643H61.1062C60.8415 101.018 60.6082 100.469 60.3749 99.9196H60.3794Z" fill="white"/>
<path d="M122.999 103.871C122.573 103.871 122.214 103.915 121.882 103.853C121.716 103.821 121.514 103.607 121.456 103.433C121.308 102.973 121.02 102.857 120.567 102.879C119.993 102.906 119.414 102.848 118.84 102.871C118.647 102.879 118.328 102.991 118.297 103.116C118.059 103.982 117.436 103.946 116.695 103.826C116.79 103.576 116.861 103.335 116.965 103.107C117.642 101.612 118.333 100.125 118.992 98.6205C119.181 98.192 119.486 98.1473 119.885 98.1429C120.253 98.1429 120.495 98.2098 120.661 98.5982C121.339 100.174 122.061 101.732 122.761 103.295C122.833 103.455 122.896 103.625 122.995 103.871H122.999ZM120.693 101.665C120.401 100.996 120.154 100.437 119.912 99.8795C119.849 99.8973 119.791 99.9107 119.728 99.9286C119.495 100.482 119.262 101.04 118.997 101.665H120.693Z" fill="white"/>
<path d="M52.0118 99.3839V98.1518C52.6175 98.1518 53.2232 98.1518 53.8288 98.1518C54.5332 98.1518 55.2421 98.1473 55.9465 98.1562C56.5612 98.1652 56.7137 98.3884 56.3772 98.8973C55.7042 99.9152 54.9819 100.897 54.282 101.897C54.125 102.121 53.9814 102.353 53.7615 102.696C54.0846 102.723 54.3044 102.759 54.5243 102.754C55.0806 102.75 55.6369 102.732 56.1933 102.71C56.6285 102.696 56.5298 103.018 56.5298 103.254C56.5298 103.504 56.6689 103.866 56.2067 103.866C54.8159 103.875 53.4295 103.866 51.8547 103.866C52.0297 103.415 52.1015 103.04 52.2989 102.741C52.945 101.772 53.6314 100.835 54.3044 99.8795C54.3986 99.7455 54.4749 99.6027 54.6095 99.375H52.0118V99.3839Z" fill="white"/>
<path d="M78.0746 98.2321C77.608 98.9375 77.2625 99.6429 76.7511 100.196C75.9524 101.054 75.7146 102.013 75.8089 103.134C75.8627 103.79 75.2705 104.138 74.6827 103.839C74.6244 103.808 74.5751 103.746 74.5436 103.687C74.5167 103.643 74.5078 103.576 74.5167 103.527C74.934 101.473 73.57 100.112 72.583 98.6027C72.5247 98.5134 72.4663 98.4196 72.417 98.3214C72.4035 98.2946 72.426 98.2545 72.4394 98.1562C72.8118 98.1562 73.1977 98.1205 73.5745 98.1741C73.7361 98.1964 73.911 98.375 74.0142 98.5268C74.3866 99.0937 74.7321 99.6786 75.1583 100.371C75.4993 99.8571 75.8403 99.4643 76.0422 99.0089C76.4325 98.1384 77.101 98.0312 78.0791 98.2366L78.0746 98.2321Z" fill="white"/>
<path d="M39.9653 98.1786H41.2664C41.2664 99.3437 41.2979 100.487 41.2575 101.625C41.2171 102.879 41.2261 102.754 42.2759 102.714C42.7381 102.696 43.2092 102.732 43.6713 102.705C44.1558 102.674 44.0885 103.013 44.1199 103.295C44.1513 103.594 44.1379 103.871 43.7296 103.875C42.6483 103.875 41.5715 103.875 40.4903 103.875C40.3243 103.875 40.1627 103.857 39.9653 103.848V98.183V98.1786Z" fill="white"/>
<path d="M72.9509 91.5357H73.6733C73.6733 92.0938 73.6643 92.6205 73.6733 93.1518C73.6778 93.5 73.6778 93.8571 73.7361 94.2009C73.8124 94.6786 74.2386 95 74.6783 94.9732C75.1853 94.942 75.5352 94.6071 75.5442 94.0759C75.5621 93.25 75.5487 92.4196 75.5487 91.6071C76.1858 91.4286 76.2845 91.4777 76.2755 92.0313C76.262 92.7679 76.2441 93.5089 76.1768 94.2411C76.1005 95.058 75.4051 95.6161 74.5616 95.6071C73.7765 95.5982 73.1528 95.058 73.0855 94.2411C73.0093 93.3482 72.9958 92.4464 72.9554 91.5313L72.9509 91.5357Z" fill="white"/>
<path d="M111.845 95.6652C111.374 95.6652 110.957 95.6562 110.54 95.6652C109.53 95.6964 108.808 95.0268 108.857 94.1027C108.915 93.0759 109.579 92.5759 110.674 92.683C111.051 92.7187 111.437 92.6562 111.845 92.6339V95.6607V95.6652ZM110.333 93.2902C109.849 93.2991 109.512 93.6562 109.53 94.1518C109.544 94.5893 109.952 95.0045 110.383 95.0179C110.782 95.0312 111.231 94.5714 111.235 94.1473C111.235 93.6518 110.849 93.2857 110.338 93.2902H110.333Z" fill="white"/>
<path d="M122.941 92.6429V95.6652C122.393 95.6652 121.895 95.6875 121.402 95.6607C120.54 95.6161 119.975 95.0357 119.962 94.2143C119.948 93.3661 120.487 92.7054 121.281 92.6473C121.81 92.6116 122.34 92.6384 122.936 92.6384L122.941 92.6429ZM122.317 94.1607C122.313 93.625 121.927 93.2589 121.397 93.2813C120.953 93.2991 120.585 93.6696 120.585 94.0982C120.585 94.5357 121.047 95.0134 121.465 95.0089C121.913 95.0089 122.317 94.6027 122.313 94.1607H122.317Z" fill="white"/>
<path d="M90.4621 94.4598C90.8166 95.0446 91.4088 95.1607 91.8665 94.8795C92.01 94.7902 92.1985 94.7812 92.369 94.7366C92.3241 94.9509 92.3465 95.2321 92.2164 95.3705C91.844 95.7545 90.9063 95.7634 90.3814 95.4509C89.8385 95.1295 89.5783 94.4375 89.7398 93.7589C89.8834 93.1741 90.4397 92.6964 91.0499 92.6473C91.9517 92.5714 92.4811 93.0045 92.6426 93.8929C92.7234 94.3259 92.5529 94.4732 92.1491 94.4687C91.6197 94.4643 91.0903 94.4687 90.4621 94.4687V94.4598ZM91.9876 93.7902C91.7543 93.1339 91.2877 93.1875 90.8884 93.25C90.7313 93.2723 90.6147 93.5536 90.4263 93.7902H91.9876Z" fill="white"/>
<path d="M51.4599 95.6473C50.8901 95.6473 50.3607 95.6652 49.8268 95.6428C49.2166 95.6161 48.8173 95.2589 48.7455 94.6473C48.6827 94.1161 48.6558 93.5803 48.6782 93.0446C48.6827 92.8928 48.907 92.75 49.0282 92.6027C49.1403 92.7589 49.3288 92.9018 49.3512 93.067C49.4006 93.4687 49.3647 93.8795 49.3781 94.2857C49.3916 94.6607 49.4903 95.0179 49.9524 95.0179C50.4056 95.0179 50.7466 94.7991 50.7824 94.2991C50.8138 93.8929 50.7824 93.4821 50.8408 93.0848C50.8632 92.9018 51.0247 92.7366 51.1234 92.567C51.2356 92.7187 51.442 92.8705 51.4465 93.0268C51.4779 93.8884 51.4599 94.75 51.4599 95.6473Z" fill="white"/>
<path d="M60.3346 94.1563C60.3435 93.192 60.8954 92.6696 61.9273 92.6607C62.699 92.6518 63.3271 93.3527 63.3137 94.2143C63.3047 95.0268 62.6452 95.6562 61.8062 95.6607C60.9178 95.6652 60.3256 95.0625 60.3346 94.1607V94.1563ZM61.7972 94.9509C62.2818 94.9509 62.69 94.5848 62.6811 94.1518C62.6721 93.6741 62.3087 93.2857 61.8555 93.2768C61.2812 93.2679 60.9492 93.5625 60.9403 94.0804C60.9313 94.6071 61.2723 94.9509 61.7972 94.9509Z" fill="white"/>
<path d="M65.1621 94.0982C65.1621 94.0223 65.1352 93.9375 65.1621 93.8795C65.3595 93.4688 64.7045 92.6652 65.6153 92.6205C67.4009 92.5357 67.872 92.8616 67.9303 94.0223C67.9528 94.4464 67.9483 94.8705 67.9079 95.2946C67.8945 95.4286 67.7195 95.5446 67.6208 95.6741C67.5176 95.5491 67.3336 95.4286 67.3202 95.2946C67.2753 94.8571 67.2843 94.4107 67.2888 93.9688C67.2888 93.5893 67.1811 93.2991 66.7459 93.2857C66.3197 93.2723 65.9518 93.4152 65.8889 93.8929C65.8306 94.3482 65.853 94.817 65.7902 95.2723C65.7723 95.4152 65.5973 95.5402 65.4941 95.6741C65.3864 95.5357 65.2025 95.4107 65.1845 95.2634C65.1397 94.8795 65.1711 94.4911 65.1711 94.1027C65.1711 94.1027 65.1621 94.1027 65.1576 94.1027L65.1621 94.0982Z" fill="white"/>
<path d="M29.6506 92.558C30.346 92.6205 30.9383 92.6518 31.5215 92.7321C31.9522 92.7902 32.2349 93.0937 32.2842 93.5089C32.3605 94.125 32.3785 94.7545 32.3874 95.375C32.3874 95.4732 32.1586 95.6696 32.1003 95.6473C31.9657 95.5982 31.7952 95.4509 31.7817 95.3303C31.7369 94.9107 31.7817 94.4821 31.7459 94.0625C31.71 93.6741 31.6471 93.2545 31.1043 93.2634C30.5928 93.2723 30.3146 93.5759 30.2922 94.125C30.2787 94.5312 30.3057 94.9375 30.2698 95.3393C30.2608 95.4598 30.1038 95.5714 30.014 95.6875C29.8929 95.5804 29.673 95.4777 29.6686 95.3661C29.6416 94.4687 29.6506 93.5714 29.6506 92.567V92.558Z" fill="white"/>
<path d="M78.2631 92.567C78.8733 92.6161 79.4431 92.6428 80.0084 92.7143C80.466 92.7678 80.7666 93.0893 80.8294 93.5045C80.9147 94.0982 80.9147 94.7098 80.9057 95.3125C80.9057 95.442 80.7038 95.5714 80.5961 95.7009C80.5064 95.5625 80.3539 95.433 80.3404 95.2857C80.2955 94.8482 80.318 94.4018 80.2911 93.9643C80.2686 93.5937 80.1789 93.2634 79.6943 93.2678C79.2098 93.2678 78.8688 93.5536 78.8419 94.0312C78.8194 94.433 78.8598 94.8437 78.8194 95.2455C78.806 95.3928 78.631 95.5268 78.5323 95.6696C78.4156 95.5268 78.2003 95.3928 78.1958 95.2455C78.1599 94.4732 78.1734 93.7009 78.1734 92.9286C78.1734 92.8393 78.2093 92.7545 78.2541 92.5714L78.2631 92.567Z" fill="white"/>
<path d="M98.8567 93.4241C99.0316 93.5491 99.1932 93.7054 99.3906 93.7857C99.6598 93.8973 99.9873 93.8973 100.23 94.0446C100.44 94.1696 100.678 94.4196 100.701 94.6295C100.723 94.8482 100.557 95.1696 100.373 95.317C99.8347 95.7366 98.906 95.6607 98.417 95.192C98.3093 95.0893 98.3048 94.8884 98.251 94.7277C98.4215 94.7009 98.6099 94.6205 98.758 94.6652C99.0182 94.7455 99.247 94.9554 99.5072 95C99.6687 95.0268 99.8662 94.8527 100.05 94.7679C99.911 94.6562 99.7944 94.5 99.6329 94.4375C99.3592 94.3304 99.0047 94.3571 98.7983 94.192C98.5695 94.0089 98.3407 93.6652 98.3497 93.4018C98.3587 93.1786 98.6862 92.8036 98.906 92.7813C99.3951 92.7232 99.9065 92.8259 100.405 92.9063C100.49 92.9196 100.539 93.1518 100.606 93.2812C100.449 93.317 100.283 93.3973 100.131 93.3795C99.745 93.3304 99.3637 93.2366 98.9823 93.1607C98.9419 93.25 98.906 93.3348 98.8656 93.4241H98.8567Z" fill="white"/>
<path d="M34.855 93.4464C35.0255 93.5625 35.1825 93.7188 35.3709 93.7902C35.6805 93.9107 36.0215 93.9464 36.3266 94.0714C36.8156 94.2679 36.8919 94.9018 36.4971 95.2455C35.9497 95.7188 34.9582 95.7143 34.4557 95.2054C34.348 95.0938 34.3301 94.8973 34.2717 94.7366C34.4557 94.7232 34.6486 94.6607 34.8191 94.7009C35.0479 94.7589 35.2453 94.9464 35.4741 94.9777C35.6446 95 35.8376 94.8661 36.0215 94.7991C35.8824 94.6652 35.7658 94.4866 35.6043 94.4107C35.3081 94.2723 34.9357 94.2634 34.689 94.0759C34.4961 93.9241 34.3525 93.5848 34.3659 93.3393C34.3749 93.1563 34.6486 92.8571 34.837 92.8304C35.3306 92.7679 35.8465 92.7991 36.349 92.8527C36.4477 92.8616 36.5195 93.1161 36.6048 93.2589C36.4343 93.2857 36.2593 93.3527 36.0933 93.3393C35.7209 93.308 35.3485 93.2411 34.9806 93.1875C34.9402 93.2723 34.9043 93.3616 34.864 93.4464H34.855Z" fill="white"/>
<path d="M55.8433 93.4732C55.5876 93.4241 55.3274 93.3973 55.0806 93.317C54.6948 93.1964 54.273 93.1652 54.098 93.5446C53.9634 93.8348 53.959 94.2679 54.0756 94.567C54.2237 94.9509 54.6409 94.9554 55.0402 94.9063C55.3094 94.875 55.5921 94.9464 55.8703 94.9732C55.6369 95.1696 55.4395 95.4554 55.1703 95.5491C54.4659 95.7991 53.775 95.5179 53.443 94.933C53.1424 94.4107 53.259 93.4777 53.6718 93.0759C54.1653 92.5937 54.9954 92.4821 55.5696 92.8482C55.7222 92.9464 55.8254 93.125 55.951 93.2679C55.9151 93.3348 55.8837 93.4062 55.8478 93.4732H55.8433Z" fill="white"/>
<path d="M86.8415 95.8482C86.0743 95.183 85.2039 93.0134 85.4372 92.5045C86.2673 92.8661 86.1596 93.8616 86.689 94.3929C87.2678 93.875 87.0614 92.7991 87.9677 92.5714C88.044 92.6161 88.1157 92.6562 88.192 92.7009C87.7523 93.7277 87.3126 94.75 86.846 95.8482H86.8415Z" fill="white"/>
<path d="M40.5664 92.9554C40.4184 93.0446 40.2748 93.1384 40.1223 93.2143C40.0774 93.2366 40.0101 93.2143 39.9563 93.2321C39.1846 93.4911 39.7813 94.1161 39.6153 94.5491C39.5076 94.8348 39.714 95.0223 40.0639 94.9866C40.2299 94.9732 40.4004 95.0402 40.6158 95.0804C40.387 95.5625 40.0056 95.683 39.6646 95.5893C39.4134 95.5223 39.1487 95.2366 39.05 94.9866C38.9243 94.6741 38.9243 94.2991 38.9378 93.9509C38.9557 93.5357 38.9513 93.1786 38.4488 93.0536C38.377 93.0357 38.3276 92.9286 38.2334 92.8259C38.6507 92.6875 39.0589 92.5848 39.0365 92.0536C39.0365 91.9866 39.216 91.8571 39.3192 91.8527C39.3954 91.8527 39.5076 91.9955 39.5435 92.0937C39.5973 92.2455 39.6018 92.4107 39.6287 92.558C39.9563 92.6295 40.2479 92.692 40.544 92.7545C40.553 92.8214 40.5575 92.8884 40.5664 92.9554Z" fill="white"/>
<path d="M106.026 91.6875C106.129 92.0268 106.21 92.2768 106.295 92.558C106.583 92.6205 106.892 92.692 107.206 92.7589C107.22 92.8125 107.233 92.8661 107.247 92.9196C107.054 93.0179 106.865 93.1964 106.672 93.2054C106.251 93.2232 106.183 93.4375 106.215 93.7813C106.251 94.192 106.269 94.6027 106.295 95.0357C106.659 95.0179 106.924 95.0045 107.242 94.9866C107.13 95.4955 106.789 95.6563 106.448 95.5804C106.17 95.5179 105.838 95.2946 105.712 95.0491C105.564 94.7589 105.596 94.3705 105.587 94.0223C105.573 93.6205 105.663 93.192 105.089 93.0804C105.021 93.067 104.972 92.9509 104.976 92.9598C105.317 92.5491 105.622 92.1741 106.026 91.692V91.6875Z" fill="white"/>
<path d="M44.7167 92.9598C45.0667 92.5223 45.3628 92.1562 45.7262 91.7054C45.8922 92.3348 46.1569 92.8437 46.9556 92.7054C46.9556 92.7723 46.9556 92.8437 46.9556 92.9107C46.7402 93.0179 46.5204 93.1116 46.314 93.2321C46.1749 93.3125 45.955 93.4241 45.9461 93.5357C45.9057 94.0179 45.9281 94.5089 45.9281 95.0446C46.3454 95.0134 46.6101 94.9955 46.9062 94.9732C46.8927 95.442 46.6056 95.5536 46.2556 95.5893C45.8294 95.6339 45.5109 95.4554 45.4122 95.0446C45.3269 94.692 45.2955 94.317 45.2955 93.9509C45.2955 93.567 45.309 93.2187 44.8334 93.0937C44.7616 93.0759 44.7123 92.9643 44.7078 92.9643L44.7167 92.9598Z" fill="white"/>
<path d="M113.833 94.1562C113.833 93.7679 113.811 93.3795 113.846 92.9955C113.86 92.8571 114.017 92.6339 114.12 92.625C114.56 92.5893 115.017 92.5759 115.448 92.6473C115.614 92.6741 115.735 92.9554 115.874 93.125C115.695 93.183 115.511 93.2991 115.336 93.2812C114.878 93.2366 114.578 93.4196 114.51 93.942C114.452 94.3795 114.501 94.8259 114.448 95.2634C114.43 95.4107 114.25 95.5402 114.147 95.6786C114.044 95.5402 113.864 95.4062 113.846 95.2545C113.802 94.8929 113.833 94.5179 113.833 94.1518C113.833 94.1518 113.833 94.1518 113.828 94.1518L113.833 94.1562Z" fill="white"/>
<path d="M95.5364 92.5848C95.8101 92.6205 96.0972 92.6071 96.344 92.7054C96.4786 92.7589 96.5369 93 96.6266 93.1607C96.4786 93.2098 96.3215 93.3125 96.1825 93.2991C95.6261 93.2321 95.3076 93.4688 95.2717 94.0446C95.2492 94.4464 95.2941 94.8571 95.2358 95.2545C95.2089 95.4241 95.007 95.5714 94.8813 95.7277C94.7916 95.567 94.6346 95.4063 94.6256 95.2411C94.5942 94.5804 94.6256 93.9196 94.5942 93.2589C94.5718 92.7723 94.7198 92.5179 95.2537 92.6116C95.3435 92.6295 95.4377 92.6116 95.5319 92.6116V92.5848H95.5364Z" fill="white"/>
<path d="M27.6317 91.5536C27.6317 92.8482 27.6362 94.1161 27.6228 95.3795C27.6228 95.4821 27.4747 95.5893 27.3939 95.692C27.2908 95.5714 27.0978 95.4509 27.0933 95.3259C27.0575 94.5357 27.0664 93.7455 27.053 92.9598C27.0485 92.6473 27.0305 92.3348 27.0036 92.0268C26.9722 91.6116 27.1427 91.4375 27.6317 91.558V91.5536Z" fill="white"/>
<path d="M83.5304 94.2366C83.5304 94.5848 83.5618 94.9375 83.517 95.2812C83.4945 95.4286 83.3016 95.5491 83.1894 95.6786C83.0683 95.567 82.8485 95.4554 82.844 95.3348C82.8126 94.5446 82.8126 93.7545 82.8395 92.9687C82.8395 92.8705 83.0773 92.683 83.158 92.7054C83.2971 92.7411 83.49 92.9018 83.5035 93.0268C83.5484 93.4241 83.5215 93.8348 83.5215 94.2366H83.5349H83.5304Z" fill="white"/>
<path d="M117.53 94.1161C117.53 93.7455 117.503 93.375 117.543 93.0089C117.561 92.875 117.745 92.7589 117.853 92.6339C117.961 92.75 118.162 92.8661 118.167 92.9866C118.203 93.7589 118.207 94.5357 118.185 95.308C118.185 95.433 117.996 95.5491 117.898 95.6696C117.781 95.5402 117.579 95.4196 117.561 95.2723C117.512 94.8929 117.543 94.5 117.543 94.1116C117.539 94.1116 117.534 94.1116 117.525 94.1116L117.53 94.1161Z" fill="white"/>
<path d="M57.6829 94.1161C57.6829 93.7455 57.6559 93.375 57.6963 93.0089C57.7143 92.875 57.8982 92.7589 58.0059 92.6339C58.1181 92.75 58.32 92.8616 58.3244 92.9821C58.3559 93.7545 58.3603 94.5312 58.3379 95.3036C58.3379 95.4286 58.1495 95.5446 58.0463 95.6652C57.9296 95.5357 57.7277 95.4152 57.7098 95.2723C57.6604 94.8884 57.6918 94.5 57.6918 94.1116C57.6918 94.1116 57.6829 94.1116 57.6784 94.1116L57.6829 94.1161Z" fill="white"/>
<path d="M102.598 94.2054C102.598 93.75 102.576 93.3661 102.612 92.9821C102.625 92.8616 102.823 92.6563 102.904 92.6696C103.047 92.6964 103.267 92.8616 103.271 92.9688C103.28 93.7545 103.258 94.5446 103.209 95.3259C103.2 95.4464 102.998 95.558 102.886 95.6741C102.809 95.5446 102.679 95.4241 102.661 95.2857C102.616 94.9063 102.616 94.5179 102.603 94.2009L102.598 94.2054Z" fill="white"/>
<path d="M43.0387 94.0312C43.0073 94.4687 42.9983 94.9152 42.9355 95.3482C42.9175 95.4777 42.7515 95.5804 42.6528 95.6964C42.5586 95.5625 42.3881 95.433 42.3836 95.2991C42.3522 94.5446 42.3433 93.7902 42.3612 93.0357C42.3612 92.9018 42.5407 92.7723 42.6394 92.6384C42.765 92.7679 42.9669 92.8884 42.9938 93.0357C43.0476 93.3571 43.0118 93.6964 43.0118 94.0268C43.0207 94.0268 43.0297 94.0268 43.0387 94.0268V94.0312Z" fill="white"/>
<path d="M61.4338 92.1875C61.6043 91.9062 61.7479 91.6071 61.9543 91.3571C62.0261 91.2723 62.2504 91.3125 62.4029 91.2991C62.4029 91.4464 62.4523 91.6429 62.3805 91.7277C62.1696 91.9732 61.9094 92.1696 61.6671 92.3884C61.5909 92.3214 61.5146 92.2545 61.4383 92.1875H61.4338Z" fill="white"/>
<path d="M82.9874 91.4152C83.1714 91.567 83.3867 91.692 83.5123 91.8795C83.5437 91.9286 83.2925 92.1652 83.1713 92.3125C83.0188 92.0982 82.8618 91.8839 82.7092 91.6696C82.8034 91.5848 82.8932 91.5 82.9874 91.4107V91.4152Z" fill="white"/>
<path d="M118.414 91.9152C118.162 92.0714 118.014 92.2366 117.907 92.2098C117.763 92.1786 117.651 92 117.525 91.8839C117.642 91.7589 117.759 91.5357 117.88 91.5312C118.019 91.5312 118.162 91.7232 118.409 91.9107L118.414 91.9152Z" fill="white"/>
<path d="M58.0554 91.3437C58.2169 91.6071 58.3695 91.7589 58.374 91.9107C58.374 92.0134 58.1676 92.1205 58.0509 92.2277C57.9298 92.0937 57.7458 91.9732 57.701 91.817C57.674 91.7277 57.8715 91.5759 58.0554 91.3393V91.3437Z" fill="white"/>
<path d="M102.953 92.4464C102.773 92.1652 102.616 92.0268 102.63 91.9107C102.648 91.7812 102.814 91.5714 102.921 91.5714C103.042 91.5714 103.258 91.7455 103.271 91.8616C103.285 91.9955 103.123 92.1518 102.953 92.4464Z" fill="white"/>
<path d="M43.1733 91.9062C42.9221 92.067 42.783 92.2277 42.6573 92.2143C42.5452 92.2053 42.3657 92.0045 42.3702 91.8929C42.3702 91.7812 42.5586 91.5893 42.6753 91.5803C42.8009 91.5714 42.9355 91.7366 43.1778 91.9062H43.1733Z" fill="white"/>
</svg>
