<svg width="150" height="150" viewBox="0 0 150 150" fill="none" xmlns="http://www.w3.org/2000/svg">
<path d="M45.9497 102.93C46.0691 102.93 46.1617 102.93 46.2543 102.93C50.0847 102.93 53.913 102.928 57.7433 102.932C57.9553 102.932 58.0212 102.874 58.0191 102.663C58.0109 101.421 58.015 100.179 58.0171 98.9363C58.0171 98.6011 58.0171 98.5991 57.6795 98.5991C55.6625 98.5971 53.6454 98.5931 51.6283 98.5971C51.4246 98.5971 51.3464 98.553 51.3464 98.3342C51.3525 93.1885 51.3505 88.0449 51.3567 82.8992C51.3567 82.6905 51.299 82.6323 51.085 82.6323C49.4528 82.6403 47.8186 82.6363 46.1864 82.6363C46.1123 82.6363 46.0361 82.6444 45.9476 82.6484V102.928L45.9497 102.93Z" fill="white"/>
<path d="M95.6003 87.5452V102.93C95.7197 102.93 95.8206 102.93 95.9194 102.93C97.4568 102.93 98.9964 102.924 100.534 102.934C100.779 102.934 100.851 102.87 100.849 102.627C100.841 99.9758 100.843 97.3247 100.849 94.6736C100.849 94.4168 100.869 94.1579 100.902 93.903C101.02 92.9858 101.501 92.3436 102.419 92.0466C102.934 91.8801 103.465 91.8219 104.006 91.862C104.36 91.8881 104.712 91.9162 105.078 91.9443V87.1558C102.932 87.0194 101.472 87.9004 100.713 89.8772C100.67 89.7688 100.659 89.6825 100.659 89.5982C100.668 89.0142 100.67 88.4322 100.694 87.8482C100.705 87.6114 100.629 87.5311 100.377 87.5311C98.8729 87.5392 97.3683 87.5311 95.8658 87.5311C95.7835 87.5311 95.6991 87.5392 95.5983 87.5452H95.6003Z" fill="white"/>
<path d="M64.482 95.2556H64.484C64.484 92.7711 64.484 90.2866 64.4882 87.8041C64.4882 87.6094 64.4532 87.5291 64.2247 87.5291C62.6605 87.5371 61.0962 87.5371 59.534 87.5231C59.2664 87.5211 59.2088 87.6034 59.2109 87.8482C59.2191 92.7751 59.2191 97.702 59.2129 102.627C59.2129 102.876 59.2932 102.932 59.532 102.932C61.0962 102.924 62.6605 102.924 64.2227 102.934C64.4532 102.934 64.4861 102.852 64.4861 102.657C64.4799 100.191 64.482 97.7221 64.482 95.2556Z" fill="white"/>
<path d="M74.4953 80.7639C82.9896 80.7639 91.4859 80.7639 99.9802 80.7639C101.894 80.7639 103.809 80.7679 105.723 80.7639C105.799 80.7639 105.91 80.7438 105.943 80.6937C106.093 80.4709 105.935 80.1919 105.669 80.1879C105.533 80.1879 105.395 80.1839 105.26 80.1839C85.9102 80.1839 66.5587 80.1839 47.2093 80.1839C45.9188 80.1839 44.6283 80.1839 43.3378 80.1879C43.027 80.1879 43.0126 80.2281 43.0023 80.5171C42.992 80.784 43.169 80.7599 43.344 80.7619C43.3954 80.7619 43.4469 80.7619 43.4984 80.7619C53.8307 80.7619 64.163 80.7619 74.4973 80.7619L74.4953 80.7639Z" fill="white"/>
<path d="M59.2047 86.3732C59.4044 86.3732 59.5484 86.3732 59.6925 86.3732C61.195 86.3732 62.6975 86.3711 64.2 86.3792C64.4161 86.3792 64.5149 86.329 64.554 86.1042C64.6755 85.4098 64.8216 84.7175 64.9698 84.0271C65.0027 83.8726 64.9513 83.8344 64.8051 83.8344C63.1668 83.8364 61.5264 83.8364 59.888 83.8344C59.7501 83.8344 59.6966 83.8806 59.6719 84.0131C59.5937 84.4626 59.5052 84.9121 59.4167 85.3597C59.3508 85.6908 59.2788 86.0199 59.2047 86.3732Z" fill="white"/>
<path d="M74.5549 74.6971C74.5775 74.6911 74.5981 74.685 74.6208 74.679C74.6949 74.7834 74.769 74.8897 74.8451 74.9941C75.4708 75.847 76.1171 76.6859 76.716 77.5589C76.9342 77.876 77.1586 78.0084 77.5434 77.9844C77.774 77.9683 77.8275 77.9101 77.8254 77.6954C77.8151 76.3628 77.8234 75.0282 77.8172 73.6956C77.8151 73.0855 77.9283 73.1959 77.2738 73.1779C77.07 73.1718 77.0124 73.2461 77.0145 73.4428C77.0289 74.4181 77.0309 75.3915 77.0371 76.3668C77.0371 76.4371 77.0248 76.5053 77.0104 76.6357C76.9054 76.4993 76.8354 76.417 76.7737 76.3307C76.1191 75.4055 75.4543 74.4884 74.8204 73.5491C74.6187 73.2521 74.3902 73.1478 74.0403 73.1739C73.818 73.1899 73.7295 73.232 73.7316 73.4729C73.744 74.9218 73.7378 76.3728 73.7378 77.8218C73.7378 77.8619 73.7481 77.9001 73.7542 77.9442H74.559V74.6971H74.5549Z" fill="white"/>
<path d="M80.3468 75.5079C80.3468 76.2243 80.353 76.9408 80.3427 77.6592C80.3406 77.8559 80.4003 77.9201 80.6041 77.9161C81.4335 77.9061 82.261 77.9161 83.0904 77.9101C83.6935 77.9061 83.5947 77.9984 83.6153 77.3883C83.6235 77.1736 83.5412 77.1214 83.3333 77.1254C82.7014 77.1354 82.0695 77.1194 81.4356 77.1294C81.2071 77.1334 81.131 77.0572 81.1454 76.8404C81.1598 76.6157 81.1619 76.3889 81.1454 76.1661C81.131 75.9674 81.203 75.9032 81.4068 75.9072C81.9625 75.9173 82.5182 75.9153 83.074 75.9092C83.6976 75.9052 83.5947 76.0036 83.6153 75.3794C83.6214 75.1787 83.5535 75.1225 83.3498 75.1245C82.7014 75.1346 82.051 75.1245 81.4006 75.1286C81.2133 75.1286 81.1372 75.0663 81.1454 74.8817C81.1557 74.6409 81.1619 74.398 81.1454 74.1572C81.1289 73.9445 81.2277 73.9044 81.4171 73.9084C81.9646 73.9164 82.51 73.9144 83.0575 73.9104C83.6997 73.9044 83.5947 74.0107 83.6132 73.3705C83.6173 73.1859 83.5576 73.1237 83.3642 73.1257C82.4503 73.1317 81.5365 73.1317 80.6205 73.1177C80.3838 73.1136 80.3365 73.1999 80.3386 73.4087C80.3489 74.1091 80.3427 74.8095 80.3427 75.5099L80.3468 75.5079Z" fill="white"/>
<path d="M102.226 74.5144C102.691 74.5205 102.753 74.4181 102.567 74.0308C102.288 73.4428 101.656 73.1076 100.968 73.1819C100.137 73.2722 99.5521 73.9967 99.6839 74.7753C99.7847 75.3714 100.351 75.841 101.04 75.9132C101.207 75.9313 101.382 75.9634 101.532 76.0296C101.835 76.1621 101.948 76.5133 101.794 76.7862C101.656 77.0291 101.415 77.1314 101.149 77.1214C100.861 77.1114 100.581 77.0251 100.466 76.726C100.406 76.5715 100.318 76.5193 100.159 76.5374C100.083 76.5454 100.005 76.5374 99.9288 76.5374C99.6365 76.5334 99.618 76.5595 99.6941 76.8344C99.8753 77.4806 100.371 77.7817 100.991 77.894C101.588 78.0004 102.045 77.7054 102.425 77.288C102.905 76.7622 102.658 75.6604 102.069 75.4416C101.715 75.3112 101.345 75.2108 100.972 75.1426C100.548 75.0663 100.338 74.7673 100.47 74.3659C100.563 74.083 100.797 73.9906 101.057 73.9545C101.332 73.9164 101.608 73.9726 101.744 74.2335C101.864 74.4623 102.01 74.5666 102.224 74.5164L102.226 74.5144Z" fill="white"/>
<path d="M89.9238 106.791C89.9259 106.133 89.4998 105.649 88.7918 105.471C87.9582 105.262 86.7685 105.862 86.9661 107.048C87.0649 107.642 87.6556 108.128 88.3266 108.182C88.4933 108.196 88.6683 108.226 88.8206 108.292C89.154 108.441 89.259 108.852 89.0511 109.113C88.6971 109.557 87.95 109.468 87.7215 108.955C87.6618 108.818 87.0629 108.738 86.9764 108.858C86.9517 108.892 86.9497 108.957 86.9641 108.999C87.0773 109.382 87.2275 109.741 87.633 109.926C88.129 110.151 88.6477 110.179 89.1458 109.982C89.3763 109.892 89.6171 109.717 89.7488 109.515C90.2675 108.726 89.8785 107.769 88.9564 107.508C88.7444 107.447 88.5221 107.429 88.3019 107.397C87.9767 107.351 87.7544 107.158 87.7194 106.888C87.6824 106.599 87.8532 106.356 88.1722 106.243C88.5695 106.105 88.9132 106.241 89.1231 106.607C89.1664 106.681 89.2508 106.773 89.3269 106.783C89.5183 106.809 89.7159 106.791 89.9258 106.791H89.9238Z" fill="white"/>
<path d="M105.058 106.783C105.072 105.964 104.235 105.322 103.37 105.445C102.594 105.555 102.051 106.133 102.078 106.817C102.106 107.568 102.681 108.126 103.475 108.18C103.603 108.188 103.732 108.204 103.852 108.242C104.22 108.359 104.401 108.77 104.21 109.059C104.041 109.314 103.78 109.414 103.481 109.386C103.199 109.358 102.95 109.262 102.86 108.951C102.841 108.89 102.757 108.804 102.703 108.804C102.504 108.806 102.304 108.838 102.106 108.868C102.098 108.868 102.088 108.947 102.098 108.985C102.185 109.32 102.31 109.631 102.621 109.842C103.047 110.133 103.527 110.127 104.002 110.066C104.64 109.988 105.177 109.29 105.093 108.698C104.99 107.983 104.517 107.534 103.78 107.439C103.594 107.415 103.407 107.389 103.228 107.341C103.01 107.283 102.888 107.124 102.854 106.91C102.819 106.687 102.891 106.498 103.076 106.36C103.496 106.045 104.002 106.163 104.257 106.625C104.292 106.689 104.366 106.767 104.428 106.773C104.636 106.791 104.848 106.781 105.056 106.781L105.058 106.783Z" fill="white"/>
<path d="M49.3622 73.8943C48.6275 73.1578 47.4625 73.0133 46.5342 73.523C45.5957 74.0388 45.1017 75.1225 45.361 76.0919C45.7912 77.6974 47.5736 78.454 48.9588 77.6151C49.4837 77.298 49.4816 77.3 49.0391 76.8605C48.9259 76.7481 48.8374 76.72 48.6913 76.8204C48.012 77.29 47.3472 77.2799 46.6845 76.8043C46.1102 76.3929 45.9147 75.6624 46.2029 74.9941C46.489 74.3298 47.2052 73.8783 47.8659 74.0087C48.222 74.079 48.5575 74.2516 48.9197 74.384C49.0432 74.2475 49.1996 74.0749 49.3643 73.8923L49.3622 73.8943Z" fill="white"/>
<path d="M66.5875 75.9674C66.5875 75.3754 66.5916 74.7854 66.5855 74.1934C66.5855 74.0248 66.639 73.9465 66.8201 73.9565C66.9724 73.9666 67.1268 73.9646 67.2812 73.9626C67.9192 73.9525 67.806 74.0448 67.8225 73.4347C67.8286 73.2401 67.769 73.1739 67.5631 73.1759C66.7522 73.1859 65.9412 73.1759 65.1303 73.1799C64.449 73.1839 64.5766 73.0695 64.5519 73.7739C64.5458 73.9304 64.6178 73.9766 64.766 73.9706C65.0048 73.9606 65.2435 73.9706 65.4823 73.9565C65.7087 73.9425 65.7951 74.0107 65.791 74.2495C65.7766 75.3152 65.7848 76.3809 65.7828 77.4465C65.7828 77.9703 65.7828 77.9603 66.3261 77.9663C66.5505 77.9683 66.5958 77.886 66.5916 77.6873C66.5793 77.1134 66.5875 76.5394 66.5875 75.9634V75.9674Z" fill="white"/>
<path d="M70.3479 75.5701H70.3459C70.3459 76.1942 70.3459 76.8204 70.3459 77.4445C70.3459 77.9723 70.3459 77.9623 70.8933 77.9663C71.0992 77.9663 71.1527 77.9021 71.1506 77.7054C71.1424 76.3728 71.1506 75.0383 71.1465 73.7057C71.1465 73.1177 71.2309 73.1939 70.5928 73.1759C70.3994 73.1698 70.3417 73.2361 70.3438 73.4187C70.352 74.1352 70.3479 74.8516 70.3479 75.5681V75.5701Z" fill="white"/>
<path d="M92.4677 109.794C92.4656 109.595 92.2701 109.4 92.0745 109.404C91.9037 109.408 91.7061 109.609 91.6979 109.787C91.6917 109.954 91.9017 110.137 92.0992 110.135C92.2948 110.133 92.4697 109.97 92.4677 109.794Z" fill="white"/>
<path d="M100.468 109.786C100.462 109.585 100.262 109.394 100.069 109.404C99.8958 109.414 99.7023 109.621 99.7023 109.798C99.7023 109.962 99.9205 110.143 100.112 110.137C100.312 110.129 100.474 109.97 100.468 109.786Z" fill="white"/>
<path d="M74.3615 89.2009V82.6544H79.5935V102.916H74.5097V100.907C74.4891 100.901 74.4665 100.897 74.4459 100.891C74.4047 100.975 74.3615 101.06 74.3224 101.144C73.8819 102.113 73.2233 102.85 72.116 103.091C71.1836 103.295 70.2471 103.269 69.3353 102.988C67.9748 102.567 67.273 101.551 66.8613 100.293C66.4744 99.1109 66.3138 97.8907 66.2521 96.6585C66.2048 95.7012 66.1615 94.7399 66.2068 93.7846C66.2768 92.3176 66.495 90.8726 67.1433 89.5179C68.0242 87.6796 69.6502 87.0294 71.5726 87.2181C71.9081 87.2502 72.2436 87.3405 72.5626 87.4488C73.2851 87.6937 73.7955 88.1753 74.1125 88.8537C74.168 88.9721 74.2277 89.0885 74.2854 89.2069L74.3615 89.1988V89.2009ZM74.4027 95.1613C74.3471 94.3264 74.3224 93.5277 74.2318 92.735C74.1886 92.3456 74.059 91.9563 73.9087 91.5891C73.7296 91.1536 73.3201 90.989 72.8693 90.997C72.3856 91.0071 71.9616 91.1937 71.8175 91.6834C71.6652 92.1991 71.4985 92.731 71.4779 93.2608C71.4306 94.5934 71.445 95.9279 71.4718 97.2605C71.4841 97.8586 71.5747 98.4586 71.9143 98.9864C72.2868 99.5704 73.2398 99.6587 73.7214 99.157C74.0425 98.8219 74.1495 98.3964 74.1907 97.9669C74.2812 97.0237 74.3368 96.0765 74.4047 95.1613H74.4027Z" fill="white"/>
<path d="M89.4215 97.5034H94.1719C94.1554 97.7402 94.1369 97.9589 94.1246 98.1797C94.0731 99.0366 93.8549 99.8534 93.4824 100.63C92.8999 101.846 91.8914 102.547 90.6029 102.924C89.5038 103.245 88.3821 103.263 87.2562 103.189C86.612 103.147 85.9575 103.103 85.3297 102.966C83.7655 102.623 82.6767 101.694 82.0448 100.257C81.6743 99.4139 81.5241 98.5188 81.4335 97.6157C81.3594 96.8792 81.2853 96.1367 81.2915 95.3981C81.3059 93.6903 81.4006 91.9864 82.0716 90.3709C82.8105 88.5928 84.1998 87.6415 86.1016 87.3324C87.4024 87.1217 88.7032 87.1177 89.9978 87.3605C92.1445 87.7639 93.398 89.0724 93.9146 91.1054C94.3201 92.6969 94.3077 94.3244 94.3221 95.948C94.3221 96.0062 94.2172 96.1025 94.1451 96.1186C94.0155 96.1467 93.8734 96.1266 93.7376 96.1266C91.4468 96.1266 89.158 96.1286 86.8672 96.1206C86.6182 96.1206 86.5194 96.1728 86.5297 96.4377C86.5626 97.1943 86.5523 97.9529 86.5914 98.7095C86.6182 99.2353 86.8014 99.7009 87.3159 99.9799C88.0281 100.367 88.8925 100.102 89.1478 99.3497C89.3083 98.8761 89.3392 98.3583 89.4194 97.8586C89.4359 97.7522 89.4215 97.6418 89.4215 97.5054V97.5034ZM87.9458 93.3009C87.9458 93.3009 87.9458 93.2909 87.9458 93.2869C88.3553 93.2869 88.7649 93.2869 89.1745 93.2869C89.2898 93.2869 89.3762 93.2728 89.3742 93.1303C89.3659 92.4821 89.4153 91.8299 89.2074 91.1997C89.0284 90.6599 88.6373 90.3488 88.096 90.3227C87.4415 90.2906 87.0401 90.5254 86.787 91.0733C86.4844 91.7255 86.542 92.4239 86.505 93.1103C86.4968 93.2568 86.5956 93.3049 86.7396 93.3029C87.141 93.2969 87.5423 93.3029 87.9437 93.3029L87.9458 93.3009Z" fill="white"/>
<path d="M45.9497 102.93V82.6504C46.0382 82.6464 46.1144 82.6383 46.1885 82.6383C47.8206 82.6383 49.4549 82.6424 51.087 82.6343C51.3011 82.6343 51.3587 82.6925 51.3587 82.9012C51.3526 88.0469 51.3546 93.1905 51.3484 98.3362C51.3484 98.555 51.4267 98.5991 51.6304 98.5991C53.6475 98.5951 55.6645 98.5991 57.6816 98.6011C58.0192 98.6011 58.0192 98.6031 58.0192 98.9383C58.0192 100.181 58.013 101.423 58.0212 102.665C58.0212 102.876 57.9553 102.934 57.7454 102.934C53.915 102.93 50.0867 102.932 46.2564 102.932C46.1638 102.932 46.0711 102.932 45.9518 102.932L45.9497 102.93Z" fill="white"/>
<path d="M95.6003 87.5452C95.7011 87.5391 95.7835 87.5311 95.8679 87.5311C97.3724 87.5311 98.877 87.5391 100.379 87.5311C100.631 87.5311 100.705 87.6094 100.696 87.8482C100.674 88.4302 100.67 89.0142 100.661 89.5982C100.661 89.6825 100.672 89.7688 100.715 89.8772C101.474 87.8984 102.932 87.0174 105.08 87.1558V91.9443C104.716 91.9162 104.362 91.8881 104.008 91.862C103.467 91.8218 102.936 91.88 102.421 92.0466C101.503 92.3416 101.022 92.9838 100.904 93.903C100.871 94.1579 100.851 94.4167 100.851 94.6736C100.847 97.3247 100.845 99.9758 100.851 102.627C100.851 102.87 100.781 102.936 100.536 102.934C98.9984 102.924 97.4589 102.93 95.9214 102.93C95.8205 102.93 95.7197 102.93 95.6023 102.93V87.5452H95.6003Z" fill="white"/>
<path d="M64.482 95.2556C64.482 97.7221 64.482 100.191 64.4861 102.657C64.4861 102.852 64.4532 102.936 64.2227 102.934C62.6584 102.924 61.0942 102.924 59.532 102.932C59.2932 102.932 59.2129 102.876 59.2129 102.627C59.2191 97.7 59.2191 92.7731 59.2109 87.8482C59.2109 87.6034 59.2664 87.5211 59.534 87.5231C61.0983 87.5371 62.6625 87.5371 64.2247 87.5291C64.4532 87.5291 64.4882 87.6074 64.4882 87.8041C64.482 90.2886 64.4841 92.7731 64.4841 95.2556H64.482Z" fill="white"/>
<path d="M74.4953 80.7639C64.163 80.7639 53.8307 80.7639 43.4963 80.7639C43.4449 80.7639 43.3934 80.7639 43.3419 80.7639C43.1691 80.7639 42.992 80.786 43.0003 80.5191C43.0106 80.2301 43.025 80.1899 43.3358 80.1899C44.6263 80.1839 45.9168 80.1859 47.2073 80.1859C66.5567 80.1859 85.9082 80.1859 105.258 80.1859C105.393 80.1859 105.531 80.1859 105.667 80.1899C105.933 80.1939 106.091 80.4729 105.941 80.6957C105.908 80.7458 105.795 80.7659 105.721 80.7659C103.806 80.7679 101.892 80.7659 99.9782 80.7659C91.4839 80.7659 82.9875 80.7659 74.4932 80.7659L74.4953 80.7639Z" fill="white"/>
<path d="M59.2047 86.3731C59.2788 86.0199 59.3508 85.6908 59.4167 85.3597C59.5052 84.9121 59.5958 84.4626 59.6719 84.013C59.6946 83.8786 59.7481 83.8324 59.888 83.8344C61.5264 83.8384 63.1668 83.8364 64.8051 83.8344C64.9513 83.8344 65.0007 83.8726 64.9698 84.0271C64.8237 84.7175 64.6775 85.4098 64.554 86.1042C64.5149 86.331 64.4161 86.3812 64.2 86.3792C62.6975 86.3711 61.195 86.3731 59.6925 86.3731C59.5484 86.3731 59.4044 86.3731 59.2047 86.3731Z" fill="white"/>
<path d="M74.5549 74.6971V77.9442H73.7502C73.744 77.9001 73.7337 77.8599 73.7337 77.8218C73.7337 76.3728 73.7399 74.9218 73.7275 73.4729C73.7275 73.232 73.814 73.1899 74.0363 73.1738C74.3862 73.1498 74.6167 73.2521 74.8163 73.5491C75.4503 74.4864 76.1151 75.4055 76.7696 76.3307C76.8313 76.417 76.9013 76.4993 77.0063 76.6357C77.0186 76.5053 77.0331 76.435 77.0331 76.3668C77.0289 75.3915 77.0269 74.4161 77.0104 73.4428C77.0084 73.2481 77.066 73.1738 77.2698 73.1779C77.9263 73.1959 77.8111 73.0855 77.8131 73.6956C77.8193 75.0282 77.8131 76.3628 77.8214 77.6954C77.8214 77.9101 77.7699 77.9703 77.5394 77.9844C77.1545 78.0104 76.9301 77.876 76.712 77.5589C76.1151 76.6879 75.4688 75.847 74.841 74.9941C74.7649 74.8897 74.6908 74.7854 74.6167 74.679C74.5941 74.685 74.5735 74.6911 74.5508 74.6971H74.5549Z" fill="white"/>
<path d="M96.7427 75.5159C96.7468 77.0231 95.5962 77.8639 94.351 77.9061C93.0687 77.9482 91.9099 76.7883 91.9038 75.5259C91.8976 74.2696 93.0132 73.1879 94.3037 73.1678C95.4624 73.1498 96.8291 74.1612 96.7406 75.5159H96.7427ZM95.94 75.534C95.94 74.6569 95.2093 73.9345 94.3181 73.9284C93.4701 73.9224 92.6818 74.6971 92.6941 75.542C92.7085 76.5575 93.4886 77.0893 94.3325 77.1194C95.1969 77.1495 95.942 76.3889 95.94 75.534Z" fill="white"/>
<path d="M56.3273 75.5942C56.3623 76.9047 55.1459 77.9603 53.9274 77.9663C52.6554 77.9723 51.5007 76.8384 51.4863 75.5721C51.4719 74.3338 52.6081 73.22 53.8883 73.218C55.3002 73.218 56.3911 74.4041 56.3273 75.5942ZM52.2746 75.5641C52.2746 76.4371 53.0403 77.1836 53.9212 77.1756C54.8001 77.1676 55.5246 76.433 55.5225 75.554C55.5205 74.7071 54.7713 73.9806 53.9006 73.9786C53.0588 73.9786 52.2746 74.7412 52.2746 75.5641Z" fill="white"/>
<path d="M89.5903 77.9101C89.296 77.9101 89.0572 77.9282 88.8226 77.9001C88.7423 77.89 88.6477 77.7777 88.6085 77.6914C88.3595 77.1635 88.1269 76.6277 87.884 76.0959C87.8079 75.9293 87.2872 75.8109 87.1513 75.9353C87.1081 75.9755 87.104 76.0718 87.1019 76.142C87.0978 76.6498 87.0937 77.1595 87.1019 77.6673C87.106 77.8499 87.0525 77.9181 86.857 77.9141C86.1798 77.9001 86.3033 77.9763 86.2992 77.3723C86.291 76.0557 86.3013 74.7392 86.2889 73.4227C86.2869 73.1799 86.3589 73.1076 86.6059 73.1157C87.2954 73.1397 87.9828 73.1036 88.66 73.3123C89.5615 73.5913 89.7982 74.7011 89.2939 75.2851C89.1704 75.4276 89.014 75.56 88.8432 75.6423C88.6127 75.7527 88.6003 75.8811 88.7032 76.0798C88.9502 76.5635 89.189 77.0512 89.4298 77.5388C89.4812 77.6412 89.5203 77.7496 89.5903 77.9081V77.9101ZM87.1019 74.5084C87.1019 74.6489 87.0896 74.7934 87.1081 74.9319C87.1163 74.9981 87.1884 75.1105 87.2275 75.1085C87.6062 75.0944 87.989 75.0844 88.3636 75.0222C88.6044 74.9821 88.7217 74.7593 88.7382 74.5365C88.7547 74.3077 88.5941 74.1372 88.3883 74.0609C88.1784 73.9826 87.9479 73.9284 87.7235 73.9164C87.1019 73.8883 87.1019 73.8983 87.104 74.5084H87.1019Z" fill="white"/>
<path d="M80.3468 75.5079C80.3468 74.8075 80.3529 74.1071 80.3426 73.4067C80.3385 73.1979 80.3859 73.1116 80.6246 73.1157C81.5385 73.1297 82.4523 73.1297 83.3682 73.1237C83.5617 73.1237 83.6214 73.1839 83.6173 73.3685C83.5988 74.0087 83.7037 73.9024 83.0616 73.9084C82.5141 73.9124 81.9686 73.9144 81.4212 73.9064C81.2339 73.9044 81.1351 73.9445 81.1495 74.1552C81.168 74.3961 81.1618 74.6389 81.1495 74.8797C81.1412 75.0664 81.2174 75.1286 81.4047 75.1266C82.053 75.1205 82.7034 75.1326 83.3538 75.1225C83.5555 75.1185 83.6255 75.1767 83.6193 75.3774C83.6008 76.0016 83.7017 75.9032 83.078 75.9072C82.5223 75.9113 81.9666 75.9153 81.4109 75.9052C81.2092 75.9012 81.1351 75.9654 81.1495 76.1641C81.1659 76.3889 81.1639 76.6157 81.1495 76.8384C81.1351 77.0552 81.2112 77.1314 81.4397 77.1274C82.0716 77.1154 82.7034 77.1334 83.3374 77.1234C83.5432 77.1194 83.6255 77.1716 83.6193 77.3863C83.5988 77.9944 83.6976 77.9041 83.0945 77.9081C82.265 77.9121 81.4376 77.9041 80.6082 77.9141C80.4044 77.9161 80.3447 77.8519 80.3468 77.6572C80.3571 76.9408 80.3509 76.2243 80.3509 75.5059L80.3468 75.5079Z" fill="white"/>
<path d="M62.1768 77.9643C61.9134 77.9643 61.6664 77.9823 61.4256 77.9542C61.3494 77.9442 61.265 77.8218 61.2239 77.7335C60.9851 77.2378 60.7587 76.7341 60.5241 76.2364C60.4088 75.9915 60.0301 75.8571 59.7955 75.9835C59.744 76.0116 59.7131 76.12 59.7131 76.1902C59.7069 76.716 59.7028 77.2398 59.7131 77.7656C59.7172 77.9522 59.6658 78.0185 59.4641 77.9904C59.2974 77.9663 59.1245 77.9864 58.9351 77.9864C58.9269 77.9201 58.9145 77.8559 58.9145 77.7937C58.9145 76.3427 58.9145 74.8937 58.9145 73.4428C58.9145 73.3384 58.8816 73.206 59.0586 73.212C59.7049 73.232 60.3594 73.208 60.9975 73.2983C61.5717 73.3785 61.9854 73.7277 62.1213 74.3218C62.2324 74.8014 61.9854 75.4095 61.5408 75.6544C61.1086 75.8932 61.2136 75.8992 61.3659 76.2243C61.6149 76.7541 61.8722 77.2779 62.1254 77.8057C62.148 77.8539 62.1583 77.9101 62.1748 77.9643H62.1768ZM59.709 74.5466C59.709 74.6971 59.6987 74.8476 59.7131 74.9941C59.7193 75.0563 59.7749 75.1647 59.8078 75.1647C60.238 75.1687 60.6825 75.253 61.0818 75.0222C61.4297 74.8195 61.4606 74.38 61.1107 74.1873C60.8781 74.0589 60.5879 73.9947 60.3162 73.9746C59.7069 73.9304 59.7049 73.9505 59.707 74.5466H59.709Z" fill="white"/>
<path d="M102.226 74.5144C102.012 74.5646 101.866 74.4603 101.746 74.2315C101.61 73.9706 101.335 73.9144 101.059 73.9525C100.799 73.9886 100.567 74.081 100.472 74.3639C100.34 74.7653 100.55 75.0623 100.974 75.1406C101.347 75.2088 101.717 75.3072 102.071 75.4396C102.66 75.6584 102.907 76.7581 102.427 77.286C102.047 77.7034 101.588 77.9984 100.993 77.892C100.373 77.7817 99.8773 77.4806 99.6962 76.8324C99.6201 76.5595 99.6386 76.5334 99.9308 76.5354C100.007 76.5354 100.085 76.5454 100.161 76.5354C100.318 76.5193 100.406 76.5695 100.468 76.724C100.583 77.0231 100.863 77.1094 101.151 77.1194C101.417 77.1274 101.656 77.0271 101.796 76.7842C101.95 76.5113 101.837 76.1601 101.534 76.0276C101.382 75.9614 101.209 75.9293 101.042 75.9112C100.353 75.839 99.7868 75.3714 99.6859 74.7733C99.5542 73.9967 100.141 73.2702 100.97 73.1799C101.658 73.1056 102.29 73.4408 102.569 74.0288C102.755 74.4181 102.693 74.5185 102.228 74.5124L102.226 74.5144Z" fill="white"/>
<path d="M89.9237 106.791C89.7117 106.791 89.5162 106.807 89.3248 106.783C89.2486 106.773 89.1642 106.681 89.121 106.607C88.9111 106.241 88.5673 106.105 88.1701 106.243C87.8511 106.356 87.6802 106.599 87.7173 106.888C87.7523 107.158 87.9746 107.351 88.2998 107.397C88.5179 107.429 88.7423 107.447 88.9543 107.508C89.8764 107.771 90.2633 108.726 89.7467 109.515C89.615 109.715 89.3742 109.892 89.1436 109.982C88.6435 110.179 88.1269 110.151 87.6309 109.926C87.2254 109.741 87.0751 109.382 86.9619 108.999C86.9496 108.957 86.9516 108.892 86.9743 108.858C87.0628 108.738 87.6597 108.818 87.7194 108.955C87.9478 109.468 88.695 109.557 89.049 109.113C89.2569 108.852 89.1498 108.441 88.8184 108.292C88.6682 108.226 88.4932 108.194 88.3245 108.182C87.6535 108.128 87.0648 107.642 86.964 107.048C86.7664 105.862 87.9561 105.262 88.7896 105.471C89.4997 105.647 89.9258 106.133 89.9217 106.791H89.9237Z" fill="white"/>
<path d="M105.058 106.783C104.85 106.783 104.638 106.795 104.43 106.775C104.368 106.769 104.294 106.691 104.259 106.627C104.006 106.163 103.498 106.047 103.078 106.362C102.893 106.502 102.819 106.689 102.856 106.912C102.891 107.126 103.012 107.285 103.23 107.343C103.409 107.391 103.597 107.417 103.782 107.441C104.519 107.536 104.992 107.985 105.095 108.7C105.179 109.292 104.642 109.99 104.004 110.068C103.529 110.127 103.049 110.135 102.623 109.844C102.312 109.631 102.187 109.322 102.1 108.987C102.09 108.949 102.1 108.872 102.108 108.87C102.306 108.842 102.506 108.81 102.705 108.806C102.759 108.806 102.843 108.89 102.862 108.953C102.952 109.264 103.201 109.36 103.483 109.388C103.782 109.418 104.043 109.316 104.212 109.061C104.403 108.772 104.222 108.361 103.854 108.244C103.734 108.206 103.603 108.19 103.477 108.182C102.683 108.126 102.111 107.57 102.08 106.819C102.053 106.133 102.596 105.557 103.372 105.447C104.237 105.324 105.074 105.966 105.06 106.785L105.058 106.783Z" fill="white"/>
<path d="M49.3623 73.8943C49.1976 74.0769 49.0412 74.2495 48.9177 74.386C48.5555 74.2535 48.22 74.081 47.8639 74.0107C47.2032 73.8803 46.4869 74.3318 46.2008 74.9961C45.9148 75.6644 46.1082 76.3949 46.6825 76.8063C47.3452 77.2819 48.01 77.292 48.6892 76.8224C48.8354 76.722 48.9239 76.7501 49.0371 76.8625C49.4796 77.302 49.4817 77.3 48.9568 77.6171C47.5716 78.454 45.7892 77.6994 45.359 76.0939C45.0997 75.1245 45.5937 74.0428 46.5322 73.525C47.4584 73.0153 48.6254 73.1598 49.3602 73.8963L49.3623 73.8943Z" fill="white"/>
<path d="M95.9913 105.386C96.6335 106.992 97.2469 108.529 97.8767 110.103C97.6235 110.115 97.4177 110.153 97.2242 110.123C97.1275 110.109 97.006 109.982 96.9772 109.884C96.9011 109.633 96.7467 109.573 96.5018 109.581C96.1169 109.595 95.732 109.589 95.3492 109.573C95.168 109.565 95.0713 109.627 95.0507 109.798C95.0199 110.058 94.8902 110.157 94.6144 110.103C94.4785 110.077 94.3303 110.109 94.141 110.119C94.7523 108.557 95.3574 107.012 95.9934 105.388L95.9913 105.386ZM96.5141 108.8C96.3433 108.389 96.1827 108.005 96.0243 107.624C96.0016 107.622 95.981 107.62 95.9584 107.618C95.7937 107.997 95.6291 108.375 95.4459 108.8H96.5141Z" fill="white"/>
<path d="M66.5875 75.9674C66.5875 76.5414 66.5793 77.1174 66.5917 77.6914C66.5958 77.89 66.5484 77.9723 66.3261 77.9703C65.7828 77.9643 65.7828 77.9743 65.7828 77.4505C65.7828 76.3849 65.7766 75.3192 65.791 74.2536C65.7931 74.0147 65.7087 73.9465 65.4823 73.9606C65.2435 73.9766 65.0048 73.9646 64.766 73.9746C64.6158 73.9806 64.5458 73.9345 64.5519 73.7779C64.5746 73.0735 64.449 73.1859 65.1303 73.1839C65.9413 73.1799 66.7522 73.1899 67.5631 73.1799C67.769 73.1779 67.8286 73.2441 67.8225 73.4388C67.806 74.0489 67.9192 73.9565 67.2812 73.9666C67.1268 73.9686 66.9745 73.9706 66.8201 73.9606C66.639 73.9485 66.5834 74.0268 66.5855 74.1974C66.5917 74.7874 66.5875 75.3794 66.5875 75.9715V75.9674Z" fill="white"/>
<path d="M70.3479 75.5701C70.3479 74.8536 70.352 74.1372 70.3438 73.4207C70.3417 73.2381 70.3994 73.1718 70.5928 73.1779C71.2309 73.1959 71.1445 73.1197 71.1465 73.7077C71.1486 75.0403 71.1424 76.3748 71.1506 77.7074C71.1506 77.9021 71.0992 77.9703 70.8933 77.9683C70.3479 77.9643 70.3479 77.9723 70.3459 77.4465C70.3459 76.8224 70.3459 76.1962 70.3459 75.5721H70.3479V75.5701Z" fill="white"/>
<path d="M92.4677 109.794C92.4677 109.97 92.2948 110.133 92.0992 110.135C91.9037 110.137 91.6917 109.954 91.6979 109.787C91.7041 109.609 91.9017 109.408 92.0745 109.404C92.268 109.4 92.4635 109.595 92.4677 109.794Z" fill="white"/>
<path d="M100.468 109.785C100.474 109.968 100.312 110.129 100.112 110.137C99.9185 110.143 99.7003 109.964 99.7023 109.798C99.7023 109.621 99.8958 109.414 100.069 109.404C100.262 109.392 100.462 109.583 100.468 109.785Z" fill="white"/>
<path d="M61.7363 44.0358V62.0176L71.7311 70.1776V50.9114L61.7363 44.0358Z" fill="white"/>
<path d="M67.5468 40.9392V45.547L74.0569 50.3836V65.2667L78.55 68.3653V49.0992L67.5468 40.9392Z" fill="white"/>
<path d="M75.2178 40V44.0359L80.7976 48.4931V63.2277L85.2928 66.4749V47.2087L75.2178 40Z" fill="white"/>
</svg>
