<svg width="189" height="224" viewBox="0 0 189 224" fill="none" xmlns="http://www.w3.org/2000/svg">
<g clip-path="url(#clip0_313_10846)">
<path d="M23.999 76.3199L24.4436 76.055C24.6083 75.9557 24.8224 75.9723 25.0694 76.1213L29.6144 78.8031C30.0919 79.0846 30.4872 79.7633 30.4872 80.3427V82.6935C30.4872 82.975 30.4048 83.1736 30.2401 83.273L29.7955 83.5378C29.7955 83.5378 29.8779 83.4551 29.9108 83.4054C29.7461 83.6041 29.4826 83.6537 29.1697 83.4716L24.6248 80.7897C24.1472 80.5083 23.752 79.8295 23.752 79.2501V76.8993C23.752 76.6179 23.8343 76.4192 23.999 76.3199Z" fill="#D5D4C9"/>
<path d="M26.321 80.1603C26.5516 79.5313 27.5561 80.1107 27.2267 80.6901C27.2267 80.6901 26.4198 82.0807 26.815 83.5706C27.062 84.5143 27.7537 85.3255 28.8734 85.9545C29.1205 86.1035 29.2028 86.4181 29.071 86.6664C28.7746 87.2624 28.33 87.1796 28.2477 87.1299C26.8809 86.3519 26.1234 85.0606 25.7941 83.819C25.2836 81.8986 26.2881 80.21 26.321 80.1438V80.1603Z" fill="#434641"/>
<path d="M167.15 76.6841L174.527 80.0447C178.216 82.6438 175.68 89.7127 175.68 89.7127L162.111 81.7499L167.15 76.6841Z" fill="#181818"/>
<path d="M77.2224 135.735C78.1611 136.282 78.9021 137.225 79.3467 138.599C79.709 139.692 79.8737 140.867 79.8737 142.092V145.321L29.9776 116.168V112.939C29.994 111.714 29.8293 110.539 29.467 109.446C29.0059 108.089 28.2814 107.145 27.3428 106.582L77.2389 135.735H77.2224Z" fill="#181818"/>
<path d="M56.5054 144.94C57.4111 142.887 58.6462 140.917 60.1118 139.245C61.3468 137.838 62.7136 136.646 64.1792 135.802C66.7646 134.295 69.103 134.163 70.7991 135.156L75.9205 138.152L62.7301 160.948L57.6088 157.952C55.9456 156.975 54.9081 154.906 54.8916 151.959C54.8916 149.708 55.4844 147.274 56.5054 144.956V144.94Z" fill="#181818"/>
<path d="M69.3002 138.798C74.438 135.818 78.6208 138.202 78.6372 144.129C78.6537 150.072 74.5039 157.29 69.3661 160.269C64.2283 163.249 60.0456 160.865 60.0291 154.922C60.0126 148.996 64.1624 141.761 69.3002 138.781V138.798Z" fill="#222222"/>
<path d="M69.3002 141.828C72.9889 139.692 75.986 141.397 76.0025 145.652C76.0025 149.906 73.0383 155.105 69.3496 157.24C65.661 159.376 62.6639 157.671 62.6475 153.4C62.6475 149.145 65.6116 143.963 69.3002 141.811V141.828Z" fill="#282726"/>
<path d="M63.603 154.111C64.5416 154.84 65.9414 154.823 67.4893 153.879C70.2394 152.224 72.3966 148.284 72.3307 145.105C72.2978 143.367 71.5897 142.208 70.5193 141.794C70.0912 141.943 69.6466 142.142 69.1855 142.424C65.9414 144.394 63.3725 149.045 63.4548 152.803C63.4548 153.267 63.5207 153.697 63.603 154.095V154.111Z" fill="#958E83"/>
<path d="M65.3978 147.473C65.8424 146.545 66.5176 145.718 67.2916 145.238C67.4398 145.155 67.588 145.072 67.7197 145.022C68.8889 144.559 69.7946 145.205 69.8275 146.612V146.959C69.8605 148.35 68.9054 150.072 67.7032 150.8C67.6209 150.85 67.5386 150.883 67.4562 150.916C67.5221 150.883 67.6045 150.85 67.6703 150.817L67.3739 150.999C66.0236 151.793 64.9038 151.181 64.8708 149.608C64.8708 148.929 65.052 148.168 65.3814 147.473H65.3978Z" fill="#888177"/>
<path d="M63.3886 153.929C64.3272 154.84 65.8093 154.889 67.489 153.88C70.239 152.224 72.3962 148.284 72.3304 145.106C72.2974 143.235 71.4905 142.043 70.2719 141.712C70.0249 141.646 70.3872 141.596 70.3872 141.596L71.8199 141.546C73.7795 141.48 75.1628 143.003 75.2286 145.668C75.311 149.443 72.7421 154.078 69.498 156.048C67.1267 157.489 65.0518 157.108 64.0802 155.336L63.5203 154.343C63.5203 154.343 63.2239 153.731 63.4051 153.913L63.3886 153.929Z" fill="#ACA79B"/>
<path d="M63.0922 153.035C63.1745 157.041 66.0398 158.581 69.498 156.495C72.9561 154.409 75.6732 149.459 75.5909 145.47C75.5086 141.463 72.6433 139.924 69.1851 142.01C65.727 144.096 63.0098 149.045 63.0922 153.035ZM63.4544 152.82C63.3721 149.045 65.941 144.41 69.1851 142.44C72.4292 140.47 75.1298 141.927 75.2121 145.701C75.2945 149.476 72.7256 154.111 69.4815 156.081C66.2374 158.051 63.5368 156.594 63.4544 152.82Z" fill="#D3CDC6"/>
<path d="M67.6041 145.767C66.402 146.496 65.4469 148.217 65.4798 149.608C65.5128 150.999 66.5173 151.545 67.7194 150.817C68.9215 150.088 69.8766 148.366 69.8437 146.976C69.8107 145.585 68.8062 145.039 67.6041 145.767Z" fill="#ACA79B"/>
<path d="M151.803 89.6303C152.708 87.5775 153.943 85.6075 155.409 83.9355C156.644 82.5283 158.011 81.3363 159.477 80.492C162.062 78.9856 164.4 78.8531 166.096 79.8464L171.218 82.8428L158.027 105.639L152.906 102.642C151.243 101.666 150.205 99.5963 150.189 96.6496C150.189 94.3981 150.782 91.9646 151.803 89.6469V89.6303Z" fill="#181818"/>
<path d="M164.581 83.4886C169.719 80.5087 173.902 82.8926 173.918 88.8358C173.935 94.779 169.785 101.997 164.647 104.977C159.509 107.957 155.327 105.573 155.31 99.6296C155.294 93.7029 159.443 86.4685 164.581 83.4886Z" fill="#222222"/>
<path d="M164.582 86.5179C168.27 84.3823 171.268 86.0875 171.284 90.3421C171.284 94.5967 168.32 99.7949 164.631 101.93C160.942 104.066 157.945 102.361 157.929 98.0897C157.929 93.8351 160.893 88.6535 164.582 86.5013V86.5179Z" fill="#282726"/>
<path d="M158.884 98.8019C159.823 99.5303 161.223 99.5138 162.771 98.5701C165.521 96.9147 167.678 92.9746 167.612 89.7961C167.579 88.0578 166.871 86.899 165.801 86.4851C165.372 86.6341 164.928 86.8328 164.467 87.1142C161.223 89.0842 158.654 93.7361 158.736 97.4941C158.736 97.9576 158.802 98.388 158.884 98.7854V98.8019Z" fill="#958E83"/>
<path d="M160.679 92.1796C161.123 91.2525 161.798 90.4247 162.572 89.9447C162.721 89.8619 162.869 89.7791 163 89.7294C164.17 89.2659 165.075 89.9115 165.108 91.3187V91.6664C165.141 93.057 164.186 94.7787 162.984 95.5071C162.902 95.5568 162.819 95.5899 162.737 95.623C162.803 95.5899 162.885 95.5567 162.951 95.5236L162.655 95.7057C161.304 96.5004 160.185 95.8878 160.152 94.3151C160.152 93.6364 160.333 92.8749 160.662 92.1796H160.679Z" fill="#888177"/>
<path d="M158.686 98.6197C159.625 99.5302 161.107 99.5799 162.787 98.5701C165.537 96.9146 167.694 92.9745 167.628 89.796C167.595 87.9253 166.788 86.7333 165.57 86.4023C165.323 86.336 165.685 86.2864 165.685 86.2864L167.118 86.2367C169.077 86.1705 170.46 87.6935 170.526 90.3589C170.609 94.1334 168.04 98.7687 164.796 100.739C162.424 102.179 160.349 101.798 159.378 100.027L158.818 99.0336C158.818 99.0336 158.522 98.4211 158.703 98.6032L158.686 98.6197Z" fill="#ACA79B"/>
<path d="M158.373 97.7256C158.455 101.732 161.321 103.271 164.779 101.186C168.237 99.0996 170.954 94.1497 170.872 90.16C170.79 86.1537 167.924 84.6141 164.466 86.7C161.008 88.7859 158.291 93.7358 158.373 97.7256ZM158.735 97.5103C158.653 93.7358 161.222 89.1005 164.466 87.1305C167.71 85.1604 170.411 86.6173 170.493 90.3918C170.575 94.1663 168.007 98.8016 164.763 100.772C161.518 102.742 158.818 101.285 158.735 97.5103Z" fill="#D3CDC6"/>
<path d="M162.902 90.458C161.7 91.1864 160.745 92.9081 160.778 94.2988C160.811 95.6894 161.815 96.2357 163.017 95.5073C164.219 94.7788 165.174 93.0571 165.142 91.6665C165.109 90.2759 164.104 89.7296 162.902 90.458Z" fill="#ACA79B"/>
<path d="M132.256 0.796911C133.096 0.300266 133.854 0.267156 134.414 0.581698L181.247 27.8972C180.703 27.5826 179.946 27.6158 179.09 28.1124L91.8125 78.7702L44.9792 51.4547L132.256 0.796911Z" fill="url(#paint0_linear_313_10846)"/>
<path d="M76.2016 116.515C76.2016 116.515 91.4504 78.9855 91.8127 78.7703L44.9794 51.4548C44.6171 51.67 44.2713 51.968 43.9585 52.3157C43.5962 52.7296 43.2997 53.2097 43.0692 53.7229C43.0527 53.7725 43.0198 53.8222 43.0033 53.8718L26.3054 87.3623C40.0063 98.3713 56.9841 107.94 76.2016 116.515ZM30.7022 86.1538L40.3686 66.8012C43.9091 69.2844 47.6142 71.718 51.4347 74.1184L30.7022 86.1538Z" fill="url(#paint1_linear_313_10846)"/>
<path d="M56.1602 132.424L76.201 116.499L89.836 81.1872C90.2641 80.1443 91.0052 79.2337 91.8121 78.7537L179.089 28.0958C180.769 27.1191 182.119 27.9137 182.119 29.8341C183.552 42.631 184.869 66.0892 182.926 85.4915L175.68 89.6964V86.1206C175.647 85.0279 175.483 83.9519 175.153 82.9751C173.787 78.9027 169.933 78.6378 165.52 81.2038C158.67 85.1769 154.256 91.7327 154.273 98.785C154.273 98.9009 154.273 101.964 154.273 102.113L79.8403 145.321V142.092C79.8568 140.867 79.692 139.692 79.3298 138.599C78.0124 134.659 74.3731 134.229 70.1575 136.679C70.0093 136.762 69.8611 136.861 69.6964 136.96C62.5166 141.447 58.4327 147.357 58.4656 154.393C58.4656 154.476 58.4656 157.571 58.4656 157.737L53.2948 160.733L53.229 138.186C53.229 136.199 54.4476 133.782 56.1437 132.441L56.1602 132.424Z" fill="url(#paint2_linear_313_10846)"/>
<path d="M43.9581 52.3154L90.7913 79.6309C90.429 80.0448 90.1326 80.5249 89.9021 81.0381L43.0688 53.7226C43.2994 53.1928 43.6123 52.7127 43.9581 52.3154Z" fill="url(#paint3_linear_313_10846)"/>
<path opacity="0.4" d="M90.7741 85.6733L92.7337 81.1703C100.012 77.28 107.291 73.1744 114.586 69.0853L136.323 56.6195C143.519 52.3815 150.748 48.1765 157.912 43.8888C165.075 39.5846 172.238 35.2803 179.319 30.8436H179.22L180.67 32.5653L179.336 30.7112C171.876 34.6512 164.581 38.7237 157.286 42.8128C150.007 46.9018 142.778 51.1067 135.532 55.2455L113.927 67.943C106.764 72.2638 99.6005 76.535 92.5031 80.9551C92.4372 81.0379 90.7576 85.6567 90.7576 85.6567L90.7741 85.6733Z" fill="#EAEAE6"/>
<path d="M175.68 89.7131V86.1373C175.647 85.0446 175.483 83.9686 175.153 82.9918C173.787 78.9193 169.933 78.6545 165.52 81.2205C158.67 85.1936 154.256 91.7494 154.273 98.8017C154.273 98.9176 154.273 101.98 154.273 102.129L79.8402 145.337V142.109C79.8567 140.884 79.6919 139.709 79.3297 138.616C78.6874 136.696 77.4853 135.62 75.9539 135.305C75.9539 135.305 76.5302 135.073 77.5841 134.61C101.61 124.313 123.61 109.761 142.597 91.7493C155.755 79.267 168.813 66.6853 183.832 58.1265C183.996 67.182 183.782 76.7672 182.91 85.5413L175.664 89.7462L175.68 89.7131Z" fill="#3AB9C9"/>
<path d="M28.9226 87.4616L40.2192 66.6853C40.2192 66.6853 40.3345 66.7681 40.3839 66.8012L30.7175 86.1538L51.45 74.1184C61.1163 80.1941 71.6719 86.0214 82.9521 91.65L74.5537 114.115C57.2465 106.847 40.1369 96.9144 28.9226 87.4616Z" fill="#504C4C"/>
<path d="M53.2453 138.186L3.34912 109.032L3.415 131.58L53.3111 160.733L53.2453 138.186Z" fill="url(#paint4_linear_313_10846)"/>
<path d="M76.2009 116.515C57.3622 107.46 40.335 97.8578 26.3047 87.3621L6.26392 103.288L56.1601 132.441L76.2009 116.515Z" fill="url(#paint5_linear_313_10846)"/>
<path d="M3.95853 106.35C4.30435 105.572 4.7819 104.811 5.34179 104.165C5.62173 103.834 5.93461 103.536 6.26396 103.288L56.1601 132.441C55.8308 132.706 55.5344 133.004 55.238 133.318C54.6781 133.964 54.2005 134.709 53.8547 135.504C53.4595 136.398 53.229 137.341 53.229 138.185L3.33276 109.032C3.33276 108.172 3.56332 107.244 3.95853 106.35Z" fill="url(#paint6_linear_313_10846)"/>
<path d="M5.34224 104.165L55.2384 133.318C54.6785 133.964 54.201 134.709 53.8552 135.504L3.95898 106.351C4.3048 105.572 4.78235 104.811 5.34224 104.165Z" fill="url(#paint7_linear_313_10846)"/>
<mask id="mask0_313_10846" style="mask-type:luminance" maskUnits="userSpaceOnUse" x="28" y="66" width="55" height="49">
<path d="M40.2029 66.6853C52.7346 75.4759 67.1106 83.7533 82.9357 91.65L74.5374 114.115C57.2302 106.847 40.1205 96.9144 28.9062 87.4616L40.2029 66.6853Z" fill="white"/>
</mask>
<g mask="url(#mask0_313_10846)">
<path d="M41.7332 88.7692C42.4083 92.2457 46.0806 96.1526 49.9339 97.477C53.7708 98.8014 56.3562 97.0631 55.681 93.5866C55.0059 90.1101 51.3336 86.2032 47.4803 84.8788C43.6434 83.5544 41.058 85.2926 41.7332 88.7692ZM52.9639 90.0439L48.633 91.2193L46.8875 85.8058C47.118 85.8555 47.3321 85.9052 47.5626 85.9879C49.6211 86.6998 51.6136 88.256 52.9639 90.0604V90.0439ZM45.9817 85.6403L48.106 92.2126L53.4579 90.7557C54.0343 91.6497 54.446 92.5602 54.6271 93.4542C55.2035 96.434 52.9968 97.9405 49.6869 96.7983C46.377 95.656 43.2152 92.2953 42.6389 89.3155C42.1613 86.8322 43.6105 85.4085 45.9982 85.6403H45.9817Z" fill="#5E5E5E"/>
<path d="M33.8951 85.5247C51.5152 91.4513 70.7162 103.983 81.7164 114.661L80.0861 117.79L71.1279 123.899L29.3336 97.5269C29.169 94.9775 27.9668 90.2759 29.63 88.2065L33.8951 85.5247Z" fill="#5E5E5E"/>
<path d="M38.0447 87.0475C39.3621 92.2788 49.9176 97.5598 58.7112 97.3446C58.7112 97.3446 54.7097 93.0238 49.9176 90.4081C42.5732 86.3853 38.0447 87.0475 38.0447 87.0475Z" fill="#6A6A6A"/>
</g>
<g style="mix-blend-mode:multiply" opacity="0.6">
<path d="M40.2029 66.6853C52.7346 75.4759 67.1106 83.7533 82.9357 91.65L74.5374 114.115C57.2302 106.847 40.1205 96.9144 28.9062 87.4616L40.2029 66.6853Z" fill="#3C3737"/>
</g>
<path d="M87.7605 94.4806C88.271 93.0734 89.259 91.898 90.5599 91.1531L105.232 82.7432C105.726 82.4618 106.336 82.7763 106.385 83.3557C106.632 87.1302 106.813 92.9079 106.714 99.0166C106.714 99.3146 106.55 99.5464 106.303 99.6954C103.454 101.351 85.4879 111.78 81.3546 114.181C81.0582 114.346 80.7124 114.065 80.8277 113.734L87.7605 94.4971V94.4806Z" fill="#282525"/>
<path d="M0.286133 125.405C0.286133 124.941 0.500219 124.511 0.862501 124.23L3.34909 122.293V125.438L53.1958 154.343L58.8112 151.048L59.7828 151.611V157.67L54.4803 160.816C53.7063 161.279 52.7183 161.279 51.9443 160.816L1.53767 131.15C0.763703 130.703 0.302616 129.875 0.302616 128.981V125.372L0.286133 125.405Z" fill="#333333"/>
<path d="M14.2677 128.501V116.548L42.1141 132.706V144.244C42.1141 144.956 41.3401 145.403 40.7143 145.056L15.2887 130.305C14.6464 129.941 14.2512 129.246 14.2512 128.517L14.2677 128.501Z" fill="#222222"/>
<path opacity="0.3" d="M14.2178 124.462L41.9488 140.553V141.182L14.2178 125.091V124.462ZM14.2178 128.584L41.9488 144.675V144.046L14.2178 127.955V128.584ZM14.2178 126.845L41.9488 142.937V142.308L14.2178 126.216V126.845ZM14.2178 123.352L41.9488 139.444V138.815L14.2178 122.723V123.352ZM14.2178 118.121L41.9488 134.212V133.583L14.2178 117.492V118.121ZM14.2178 121.614L41.9488 137.705V137.076L14.2178 120.985V121.614ZM14.2178 119.876L41.9488 135.967V135.338L14.2178 119.247V119.876Z" fill="#B2B2B2"/>
<path d="M3.92627 118.104L14.0866 124.014V116.316L3.92627 110.423V118.104Z" fill="#333333"/>
<path d="M5.78767 118.535L4.38721 117.724V116.515L5.78767 117.327V118.535Z" fill="#A5411E"/>
<path d="M5.78767 116.697L4.38721 115.886V111.367L5.78767 112.178V116.697Z" fill="#D77B26"/>
<path d="M13.3127 119.197L5.78711 114.827V112.178L13.3127 116.548V119.197ZM13.3127 120.025L5.78711 115.654V118.518L13.3127 122.889V120.025Z" fill="#CBD8DC"/>
<path d="M3.34863 118.353L3.94143 118.022V110.953L3.34863 111.284V118.353Z" fill="#9A9A9A"/>
<path d="M13.1961 124.081L13.7889 123.733L3.94143 118.021L3.34863 118.353L13.1961 124.081Z" fill="#CECECE"/>
<path d="M13.7725 125.107L14.3653 124.759L14.3818 116.316L13.7889 116.664L13.7725 125.107Z" fill="#9A9A9A"/>
<path d="M13.7893 116.664L14.3821 116.316L3.34896 109.926L2.7561 110.257L13.7893 116.664Z" fill="#CECECE"/>
<path d="M13.7729 125.107L2.73975 118.7V110.257L13.7729 116.664V125.107ZM3.34903 118.369L13.1965 124.081V117.012L3.34903 111.3V118.369Z" fill="#B2B2B2"/>
<path d="M14.2998 129.477L14.8597 129.163L14.8927 117.26L14.3328 117.575L14.2998 129.477Z" fill="#9A9A9A"/>
<path d="M14.8596 129.163C14.8596 129.461 14.9419 129.875 15.3206 130.09L40.8781 144.923C40.9933 144.99 41.1415 144.973 41.2733 144.89L40.7299 145.205C40.5981 145.288 40.4499 145.304 40.3346 145.238L14.7772 130.405C14.3985 130.189 14.3162 129.776 14.3162 129.478L14.8596 129.163Z" fill="#CECECE"/>
<path d="M41.1084 145.883L41.6521 145.569C41.9322 145.403 42.1299 145.072 42.1299 144.658L41.5862 144.973C41.5862 145.387 41.3885 145.718 41.1084 145.883Z" fill="#9A9A9A"/>
<path d="M41.5864 144.973L42.1298 144.658L42.1628 132.457L41.6193 132.772L41.5864 144.973Z" fill="#9A9A9A"/>
<path d="M41.6197 132.772L42.1631 132.457L14.3332 116.3L13.7898 116.614L41.6197 132.772Z" fill="#CECECE"/>
<path d="M41.586 144.973C41.586 145.734 40.9108 146.214 40.318 145.867L14.7606 131.034C14.1513 130.686 13.7561 129.941 13.7561 129.163L13.789 116.614L41.6189 132.772L41.586 144.973ZM14.2995 129.477C14.2995 129.775 14.3818 130.189 14.7606 130.404L40.318 145.238C40.5815 145.387 41.0261 145.072 41.0261 144.642L41.059 133.086L14.3325 117.574L14.2995 129.477Z" fill="#B2B2B2"/>
<path d="M42.7229 140.619L52.8832 146.513V138.831L42.7229 132.921V140.619Z" fill="#333333"/>
<path d="M52.2257 145.47L50.8252 144.658V143.45L52.2257 144.261V145.47Z" fill="#A5411E"/>
<path d="M52.2257 143.632L50.8252 142.821V138.301L52.2257 139.112V143.632Z" fill="#D77B26"/>
<path d="M50.841 140.967L43.3154 136.596V133.947L50.841 138.318V140.967ZM50.841 141.794L43.3154 137.424V140.288L50.841 144.658V141.794Z" fill="#CBD8DC"/>
<path d="M42.1626 140.868L42.7554 140.536V133.468L42.179 133.799L42.1626 140.868Z" fill="#9A9A9A"/>
<path d="M52.0101 146.595L52.6029 146.248L42.7554 140.536L42.1626 140.867L52.0101 146.595Z" fill="#CECECE"/>
<path d="M52.6038 147.622L53.1801 147.274L53.1966 138.831L52.6038 139.179V147.622Z" fill="#9A9A9A"/>
<path d="M52.603 139.179L53.1958 138.831L42.1627 132.441L41.5698 132.772L52.603 139.179Z" fill="#CECECE"/>
<path d="M52.603 147.622L41.5698 141.215V132.772L52.603 139.179V147.622ZM42.1791 140.884L52.0266 146.595V139.526L42.1791 133.815V140.884Z" fill="#B2B2B2"/>
<path d="M179.155 77.81L183.651 75.1943L183.783 70.0789L187.438 72.2972C188.196 72.7442 188.673 73.5554 188.673 74.4328V81.6507C188.673 82.3791 188.278 83.0579 187.652 83.4221L179.748 88.0077L179.122 87.6767V77.7934L179.155 77.81Z" fill="#333333"/>
<path d="M60.3597 141.546L62.0888 140.536C62.5993 140.238 63.0109 139.576 63.0109 139.063C63.0109 138.55 62.5993 138.368 62.0888 138.666L60.3597 139.675C59.8492 139.973 59.4375 140.636 59.4375 141.149C59.4375 141.662 59.8492 141.844 60.3597 141.546Z" fill="#B95E23"/>
<path d="M177.656 73.456L179.385 72.4461C179.895 72.1481 180.307 71.4859 180.307 70.9727C180.307 70.4595 179.895 70.2774 179.385 70.5754L177.656 71.5853C177.145 71.8832 176.734 72.5454 176.734 73.0586C176.734 73.5718 177.145 73.7539 177.656 73.456Z" fill="#B95E23"/>
<path d="M82.6896 110.423L83.1343 110.158C83.299 110.058 83.513 110.075 83.76 110.224L88.305 112.906C88.7826 113.187 89.1778 113.866 89.1778 114.446V116.796C89.1778 117.078 89.0955 117.276 88.9308 117.376L88.4862 117.641C88.4862 117.641 88.5685 117.558 88.6014 117.508C88.4367 117.707 88.1733 117.756 87.8604 117.574L83.3154 114.893C82.8378 114.611 82.4426 113.932 82.4426 113.353V111.002C82.4426 110.721 82.525 110.522 82.6896 110.423Z" fill="#D5D4C9"/>
<path d="M77.1399 115.903C77.1399 116.35 77.7327 116.366 78.4737 115.936C79.2148 115.505 79.8076 114.81 79.8076 114.363C79.8076 113.916 79.2148 113.9 78.4737 114.33C77.7327 114.76 77.1399 115.456 77.1399 115.903Z" fill="#373A35"/>
<path d="M79.0996 114.843C81.7015 117.078 84.6162 114.082 84.7479 113.933C85.1267 113.486 85.9665 114.214 85.489 114.678C84.5833 115.555 82.8706 116.697 81.0592 116.697C80.1206 116.697 79.0667 116.565 78.1774 115.754C77.6669 115.29 78.5562 114.347 79.1325 114.827L79.0996 114.843Z" fill="#434641"/>
<g style="mix-blend-mode:multiply" opacity="0.5">
<path d="M109.761 70.1946C111.095 88.6036 111.161 109.214 109.959 126.779C109.959 126.845 109.975 126.895 110.189 126.928L137.608 111.002C137.608 111.002 137.673 110.936 137.69 110.886C138.925 94.7123 138.843 74.6147 137.426 54.3019C137.426 54.2523 137.393 54.2026 137.344 54.1695C137.295 54.1364 137.245 54.153 137.196 54.1695L109.844 70.0456C109.844 70.0456 109.761 70.1284 109.761 70.1946ZM110.074 70.2774L137.13 54.5834C138.53 74.7637 138.612 94.7123 137.393 110.787L110.288 126.514C111.474 109.032 111.408 88.5705 110.074 70.2774Z" fill="#C1C0B6"/>
<path d="M78.1272 132.093C78.1272 132.093 78.1601 132.209 78.226 132.242C83.4132 134.593 82.8039 142.473 82.7874 142.556C82.7874 142.622 82.8039 142.672 83.018 142.705L107.423 128.551C107.423 128.551 107.489 128.484 107.505 128.435C107.521 128.203 109.662 104.828 107.917 80.2436C107.917 80.045 107.785 79.8794 107.62 79.7801C107.456 79.6973 107.242 79.6973 107.077 79.7801L89.1768 90.1765C87.7771 90.9877 86.7231 92.2624 86.1797 93.802C86.1797 93.802 78.1437 116.399 78.1437 116.466V132.127L78.1272 132.093ZM78.4401 131.994V116.466L86.4597 93.8848C86.9702 92.428 87.9911 91.2029 89.325 90.4249L107.225 80.0284C107.225 80.0284 107.39 79.9788 107.456 80.0284C107.538 80.0615 107.587 80.1443 107.587 80.2271C109.283 104.066 107.324 126.746 107.192 128.286L83.1168 142.258C83.1662 140.785 83.1498 134.196 78.4401 131.978V131.994Z" fill="#C1C0B6"/>
</g>
<path d="M103.158 111.036L108.411 107.99V104.182L103.158 107.228C102.433 107.642 101.857 108.569 101.857 109.298V110.473C101.857 111.201 102.45 111.45 103.158 111.036Z" fill="#363232"/>
<path d="M116.299 103.404L111.046 106.45V102.642L116.299 99.5962C117.024 99.1823 117.6 99.4306 117.6 100.159V101.334C117.6 102.063 117.007 102.99 116.299 103.404Z" fill="#363232"/>
<path d="M159.279 77.777L138.365 89.9117V87.6768L159.279 75.5421C159.707 75.2938 160.036 75.4427 160.036 75.8732V76.5685C160.036 76.9989 159.691 77.5287 159.279 77.777Z" fill="#363232"/>
<g opacity="0.4">
<path d="M113.763 95.5568L135.039 83.2068C135.895 82.7102 136.422 81.7997 136.406 80.7898C136.34 76.2869 136.159 70.5755 135.944 65.9236C135.944 65.5925 135.747 65.3276 135.516 65.1455C135.895 65.2945 136.208 65.6256 136.224 66.0891C136.438 70.741 136.62 76.4525 136.685 80.9554C136.685 81.9487 136.175 82.8757 135.319 83.3724L114.043 95.7223C113.631 95.9541 113.187 95.8713 112.857 95.6064C113.137 95.7223 113.466 95.7389 113.763 95.5568Z" fill="#D5D4CC"/>
<g style="mix-blend-mode:multiply" opacity="0.6">
<path d="M113.334 77.5618L134.61 65.2119C134.907 65.0298 135.236 65.0463 135.516 65.1622C135.565 65.1953 135.598 65.2615 135.648 65.3112C135.417 65.2615 135.154 65.2615 134.923 65.394L113.647 77.7439C112.775 78.2571 112.248 79.2007 112.297 80.2271C112.495 84.73 112.692 90.4249 112.758 94.994C112.758 95.2589 112.89 95.4741 113.038 95.6397C113.005 95.6397 112.972 95.6397 112.939 95.6231C112.659 95.441 112.445 95.1927 112.445 94.8119C112.379 90.2428 112.198 84.5479 111.984 80.045C111.935 79.0186 112.462 78.075 113.334 77.5618Z" fill="#C1C0B6"/>
</g>
</g>
<g opacity="0.4">
<path d="M141.444 79.4986L173.176 61.0897C174.033 60.593 174.56 59.6825 174.543 58.6726C174.477 54.1697 174.296 48.4583 174.082 43.8064C174.082 43.4753 173.885 43.2104 173.654 43.0283C174.033 43.1773 174.346 43.5084 174.362 43.972C174.576 48.6239 174.757 54.3353 174.823 58.8382C174.823 59.8315 174.313 60.7586 173.456 61.2552L141.724 79.6642C141.312 79.896 140.867 79.8132 140.538 79.5483C140.818 79.6642 141.147 79.6807 141.444 79.4986Z" fill="#D5D4CC"/>
<g style="mix-blend-mode:multiply" opacity="0.6">
<path d="M141.016 61.4868L172.749 43.0778C173.045 42.8957 173.374 42.9123 173.654 43.0282C173.704 43.0778 173.737 43.1275 173.786 43.1772C173.555 43.1275 173.292 43.1275 173.061 43.2599L141.329 61.6689C140.456 62.1821 139.929 63.1258 139.978 64.1522C140.176 68.6551 140.374 74.3499 140.44 78.9191C140.44 79.184 140.571 79.3992 140.719 79.5647C140.687 79.5647 140.654 79.5647 140.621 79.5482C140.341 79.3661 140.127 79.1177 140.127 78.737C140.061 74.1678 139.88 68.473 139.666 63.9701C139.616 62.9437 140.143 62 141.016 61.4868Z" fill="#C1C0B6"/>
</g>
</g>
<path opacity="0.2" d="M87.4639 65.1787L157.236 24.6855C157.846 24.3379 158.817 24.3379 159.426 24.6855C159.476 24.7186 159.509 24.7517 159.542 24.7848C158.932 24.52 158.076 24.5365 157.533 24.8511L87.7603 65.3442C87.2004 65.6587 87.184 66.1554 87.645 66.5196C87.5792 66.503 87.5133 66.4865 87.4639 66.4534C86.8546 66.1057 86.8546 65.5263 87.4639 65.1787ZM93.0463 69.6981C93.0463 69.6981 93.1616 69.7478 93.2275 69.7643C92.7664 69.4167 92.7993 68.9201 93.3427 68.589L163.115 28.0958C163.675 27.7813 164.515 27.7647 165.124 28.0296C165.091 27.9965 165.058 27.9634 165.009 27.9303C164.4 27.5826 163.428 27.5826 162.819 27.9303L93.0463 68.4234C92.437 68.7711 92.437 69.3505 93.0463 69.6981ZM81.8815 63.2252C81.8815 63.2252 81.9967 63.2748 82.0626 63.2914C81.6015 62.9438 81.6344 62.4471 82.1779 62.116L151.95 21.6229C152.51 21.3083 153.35 21.2918 153.959 21.5566C153.926 21.5235 153.893 21.4904 153.844 21.4573C153.235 21.1097 152.263 21.1097 151.654 21.4573L81.8815 61.9505C81.2722 62.2981 81.2722 62.8775 81.8815 63.2252ZM65.1341 53.5075C65.1341 53.5075 65.2494 53.5572 65.3153 53.5737C64.8542 53.2261 64.8871 52.7294 65.4306 52.3983L135.203 11.9052C135.763 11.5906 136.603 11.5741 137.212 11.8389C137.179 11.8058 137.146 11.7727 137.097 11.7396C136.487 11.392 135.516 11.392 134.906 11.7396L65.1341 52.2328C64.5248 52.5804 64.5248 53.1598 65.1341 53.5075ZM59.5517 50.2627C59.5517 50.2627 59.6669 50.3124 59.7328 50.329C59.2717 49.9813 59.3047 49.4847 59.8481 49.1536L129.62 8.66042C130.18 8.34588 131.02 8.32932 131.629 8.5942C131.596 8.56109 131.564 8.52798 131.514 8.49487C130.905 8.14722 129.933 8.14722 129.324 8.49487L59.5517 48.988C58.9424 49.3357 58.9424 49.9151 59.5517 50.2627ZM76.299 59.9804C76.299 59.9804 76.4143 60.0301 76.4802 60.0467C76.0191 59.699 76.052 59.2024 76.5954 58.8713L146.368 18.3781C146.928 18.0636 147.767 18.047 148.377 18.3119C148.344 18.2788 148.311 18.2457 148.261 18.2126C147.652 17.8649 146.681 17.8649 146.071 18.2126L76.299 58.7057C75.6897 59.0534 75.6897 59.6328 76.299 59.9804ZM70.7166 56.7357C70.7166 56.7357 70.8318 56.7854 70.8977 56.8019C70.4366 56.4543 70.4696 55.9576 71.013 55.6265L140.785 15.1334C141.345 14.8188 142.185 14.8023 142.794 15.0671C142.761 15.034 142.728 15.0009 142.679 14.9678C142.07 14.6202 141.098 14.6202 140.489 14.9678L70.7166 55.461C70.1073 55.8086 70.1073 56.388 70.7166 56.7357Z" fill="#C1C0B6"/>
<path d="M49.1349 216.458H54.4019V219H45.9289V203.016H49.1349V216.458ZM62.0731 219.206C60.8517 219.206 59.7525 218.939 58.7755 218.405C57.7984 217.855 57.0274 217.084 56.4626 216.092C55.913 215.099 55.6382 213.954 55.6382 212.657C55.6382 211.359 55.9206 210.214 56.4855 209.222C57.0656 208.229 57.8518 207.466 58.8442 206.932C59.8365 206.382 60.9433 206.107 62.1647 206.107C63.386 206.107 64.4928 206.382 65.4852 206.932C66.4775 207.466 67.2561 208.229 67.821 209.222C68.4011 210.214 68.6912 211.359 68.6912 212.657C68.6912 213.954 68.3935 215.099 67.7981 216.092C67.2179 217.084 66.4241 217.855 65.4165 218.405C64.4241 218.939 63.3097 219.206 62.0731 219.206ZM62.0731 216.412C62.6532 216.412 63.1952 216.275 63.699 216C64.218 215.71 64.6302 215.283 64.9356 214.718C65.2409 214.153 65.3936 213.466 65.3936 212.657C65.3936 211.451 65.073 210.527 64.4318 209.886C63.8058 209.229 63.0349 208.901 62.1189 208.901C61.2029 208.901 60.4319 209.229 59.806 209.886C59.1953 210.527 58.89 211.451 58.89 212.657C58.89 213.863 59.1877 214.794 59.7831 215.451C60.3937 216.092 61.1571 216.412 62.0731 216.412ZM76.0122 206.107C76.9587 206.107 77.7908 206.298 78.5083 206.68C79.2258 207.046 79.7907 207.527 80.2029 208.122V206.313H83.4318V219.092C83.4318 220.267 83.1952 221.313 82.7219 222.229C82.2486 223.16 81.5387 223.893 80.5922 224.427C79.6457 224.977 78.5007 225.252 77.1572 225.252C75.3557 225.252 73.8749 224.832 72.7146 223.992C71.5696 223.153 70.9208 222.008 70.7681 220.557H73.9512C74.1191 221.137 74.4779 221.595 75.0275 221.931C75.5924 222.282 76.2717 222.458 77.0656 222.458C77.9969 222.458 78.7526 222.175 79.3327 221.611C79.9128 221.061 80.2029 220.221 80.2029 219.092V217.122C79.7907 217.718 79.2182 218.214 78.4854 218.611C77.7679 219.008 76.9435 219.206 76.0122 219.206C74.9435 219.206 73.9665 218.931 73.081 218.382C72.1955 217.832 71.4933 217.061 70.9742 216.069C70.4704 215.061 70.2185 213.909 70.2185 212.611C70.2185 211.328 70.4704 210.191 70.9742 209.199C71.4933 208.206 72.1879 207.443 73.0581 206.909C73.9436 206.374 74.9283 206.107 76.0122 206.107ZM80.2029 212.657C80.2029 211.878 80.0502 211.214 79.7449 210.664C79.4396 210.1 79.0274 209.672 78.5083 209.382C77.9892 209.077 77.432 208.924 76.8366 208.924C76.2412 208.924 75.6916 209.069 75.1878 209.359C74.684 209.649 74.2718 210.077 73.9512 210.641C73.6459 211.191 73.4932 211.848 73.4932 212.611C73.4932 213.374 73.6459 214.046 73.9512 214.626C74.2718 215.191 74.684 215.626 75.1878 215.931C75.7069 216.237 76.2565 216.389 76.8366 216.389C77.432 216.389 77.9892 216.244 78.5083 215.954C79.0274 215.649 79.4396 215.221 79.7449 214.672C80.0502 214.107 80.2029 213.435 80.2029 212.657ZM89.9064 206.313V219H86.7004V206.313H89.9064ZM90.7995 203.016L85.5325 205.42V203.13L90.7995 200.405V203.016ZM98.0597 219.206C97.0216 219.206 96.0903 219.023 95.2659 218.656C94.4415 218.275 93.785 217.763 93.2965 217.122C92.8232 216.481 92.5637 215.771 92.5179 214.992H95.7468C95.8079 215.481 96.0445 215.886 96.4567 216.206C96.8842 216.527 97.4109 216.687 98.0368 216.687C98.6475 216.687 99.1207 216.565 99.4566 216.321C99.8077 216.076 99.9833 215.763 99.9833 215.382C99.9833 214.97 99.7696 214.664 99.3421 214.466C98.9299 214.252 98.2658 214.023 97.3498 213.779C96.4033 213.55 95.6247 213.313 95.014 213.069C94.4186 212.825 93.8995 212.451 93.4568 211.947C93.0293 211.443 92.8156 210.764 92.8156 209.909C92.8156 209.206 93.0141 208.565 93.411 207.985C93.8232 207.405 94.4033 206.947 95.1514 206.611C95.9147 206.275 96.8078 206.107 97.8307 206.107C99.3421 206.107 100.548 206.489 101.449 207.252C102.35 208 102.846 209.016 102.937 210.298H99.8688C99.823 209.794 99.6093 209.397 99.2276 209.107C98.8612 208.802 98.365 208.649 97.7391 208.649C97.159 208.649 96.7086 208.756 96.388 208.97C96.0827 209.184 95.93 209.481 95.93 209.863C95.93 210.29 96.1437 210.619 96.5712 210.848C96.9987 211.061 97.6628 211.283 98.5635 211.512C99.4795 211.741 100.235 211.977 100.831 212.222C101.426 212.466 101.937 212.848 102.365 213.367C102.808 213.87 103.037 214.542 103.052 215.382C103.052 216.115 102.846 216.771 102.434 217.351C102.037 217.931 101.457 218.389 100.693 218.725C99.9451 219.046 99.0673 219.206 98.0597 219.206ZM109.416 208.947V215.084C109.416 215.512 109.516 215.825 109.714 216.023C109.928 216.206 110.279 216.298 110.767 216.298H112.256V219H110.241C107.539 219 106.187 217.687 106.187 215.061V208.947H104.676V206.313H106.187V203.176H109.416V206.313H112.256V208.947H109.416ZM116.188 204.802C115.623 204.802 115.15 204.626 114.768 204.275C114.402 203.909 114.218 203.459 114.218 202.924C114.218 202.39 114.402 201.947 114.768 201.596C115.15 201.23 115.623 201.046 116.188 201.046C116.753 201.046 117.218 201.23 117.585 201.596C117.966 201.947 118.157 202.39 118.157 202.924C118.157 203.459 117.966 203.909 117.585 204.275C117.218 204.626 116.753 204.802 116.188 204.802ZM117.768 206.313V219H114.562V206.313H117.768ZM120.111 212.657C120.111 211.344 120.378 210.199 120.912 209.222C121.447 208.229 122.187 207.466 123.134 206.932C124.08 206.382 125.164 206.107 126.386 206.107C127.958 206.107 129.256 206.504 130.279 207.298C131.317 208.077 132.011 209.176 132.362 210.596H128.905C128.721 210.046 128.408 209.619 127.966 209.313C127.538 208.993 127.004 208.832 126.363 208.832C125.447 208.832 124.722 209.168 124.187 209.84C123.653 210.496 123.386 211.435 123.386 212.657C123.386 213.863 123.653 214.802 124.187 215.473C124.722 216.13 125.447 216.458 126.363 216.458C127.66 216.458 128.508 215.878 128.905 214.718H132.362C132.011 216.092 131.317 217.183 130.279 217.992C129.24 218.802 127.943 219.206 126.386 219.206C125.164 219.206 124.08 218.939 123.134 218.405C122.187 217.855 121.447 217.092 120.912 216.115C120.378 215.122 120.111 213.97 120.111 212.657ZM133.887 212.611C133.887 211.328 134.139 210.191 134.642 209.199C135.162 208.206 135.856 207.443 136.726 206.909C137.612 206.374 138.597 206.107 139.68 206.107C140.627 206.107 141.451 206.298 142.154 206.68C142.871 207.061 143.444 207.542 143.871 208.122V206.313H147.1V219H143.871V217.145C143.459 217.74 142.886 218.237 142.154 218.634C141.436 219.015 140.604 219.206 139.658 219.206C138.589 219.206 137.612 218.931 136.726 218.382C135.856 217.832 135.162 217.061 134.642 216.069C134.139 215.061 133.887 213.909 133.887 212.611ZM143.871 212.657C143.871 211.878 143.718 211.214 143.413 210.664C143.108 210.1 142.696 209.672 142.177 209.382C141.657 209.077 141.1 208.924 140.505 208.924C139.909 208.924 139.36 209.069 138.856 209.359C138.352 209.649 137.94 210.077 137.619 210.641C137.314 211.191 137.161 211.848 137.161 212.611C137.161 213.374 137.314 214.046 137.619 214.626C137.94 215.191 138.352 215.626 138.856 215.931C139.375 216.237 139.925 216.389 140.505 216.389C141.1 216.389 141.657 216.244 142.177 215.954C142.696 215.649 143.108 215.221 143.413 214.672C143.718 214.107 143.871 213.435 143.871 212.657Z" fill="white"/>
</g>
<defs>
<linearGradient id="paint0_linear_313_10846" x1="44.9792" y1="39.5684" x2="181.23" y2="39.5684" gradientUnits="userSpaceOnUse">
<stop stop-color="#FDFDFD"/>
<stop offset="1" stop-color="#BAC6EB"/>
</linearGradient>
<linearGradient id="paint1_linear_313_10846" x1="26.3054" y1="83.9851" x2="91.8127" y2="83.9851" gradientUnits="userSpaceOnUse">
<stop stop-color="#FDFDFD"/>
<stop offset="1" stop-color="#BAC6EB"/>
</linearGradient>
<linearGradient id="paint2_linear_313_10846" x1="118.572" y1="168.944" x2="118.572" y2="168.547" gradientUnits="userSpaceOnUse">
<stop stop-color="#FDFDFD"/>
<stop offset="1" stop-color="#BAC6EB"/>
</linearGradient>
<linearGradient id="paint3_linear_313_10846" x1="43.0688" y1="66.685" x2="90.7749" y2="66.685" gradientUnits="userSpaceOnUse">
<stop stop-color="#FDFDFD"/>
<stop offset="1" stop-color="#BAC6EB"/>
</linearGradient>
<linearGradient id="paint4_linear_313_10846" x1="3.34912" y1="134.891" x2="53.3111" y2="134.891" gradientUnits="userSpaceOnUse">
<stop stop-color="#FDFDFD"/>
<stop offset="1" stop-color="#BAC6EB"/>
</linearGradient>
<linearGradient id="paint5_linear_313_10846" x1="6.26392" y1="109.893" x2="76.2009" y2="109.893" gradientUnits="userSpaceOnUse">
<stop stop-color="#FDFDFD"/>
<stop offset="1" stop-color="#BAC6EB"/>
</linearGradient>
<linearGradient id="paint6_linear_313_10846" x1="31.1791" y1="117.74" x2="27.8594" y2="123.453" gradientUnits="userSpaceOnUse">
<stop stop-color="#FDFDFD"/>
<stop offset="1" stop-color="#BAC6EB"/>
</linearGradient>
<linearGradient id="paint7_linear_313_10846" x1="3.95898" y1="119.826" x2="55.2384" y2="119.826" gradientUnits="userSpaceOnUse">
<stop stop-color="#FDFDFD"/>
<stop offset="1" stop-color="#BAC6EB"/>
</linearGradient>
<clipPath id="clip0_313_10846">
<rect width="188.387" height="223.622" fill="white" transform="translate(0.286133 0.37793)"/>
</clipPath>
</defs>
</svg>
