<svg width="150" height="150" viewBox="0 0 150 150" fill="none" xmlns="http://www.w3.org/2000/svg">
<rect width="150" height="150" rx="22.1192" fill="#1E266A"/>
<path d="M34.3053 121.843H38.775V124H31.5846V110.436H34.3053V121.843ZM45.2848 124.175C44.2484 124.175 43.3156 123.948 42.4864 123.495C41.6572 123.028 41.003 122.374 40.5236 121.532C40.0572 120.69 39.824 119.718 39.824 118.617C39.824 117.516 40.0637 116.544 40.5431 115.702C41.0354 114.86 41.7026 114.212 42.5447 113.759C43.3868 113.292 44.3261 113.059 45.3625 113.059C46.399 113.059 47.3382 113.292 48.1804 113.759C49.0225 114.212 49.6832 114.86 50.1625 115.702C50.6549 116.544 50.901 117.516 50.901 118.617C50.901 119.718 50.6484 120.69 50.1431 121.532C49.6508 122.374 48.9771 123.028 48.1221 123.495C47.2799 123.948 46.3342 124.175 45.2848 124.175ZM45.2848 121.804C45.7771 121.804 46.237 121.687 46.6646 121.454C47.105 121.208 47.4548 120.845 47.714 120.366C47.9731 119.887 48.1026 119.304 48.1026 118.617C48.1026 117.593 47.8306 116.81 47.2864 116.266C46.7552 115.708 46.101 115.43 45.3237 115.43C44.5463 115.43 43.8921 115.708 43.3609 116.266C42.8427 116.81 42.5836 117.593 42.5836 118.617C42.5836 119.64 42.8362 120.431 43.3415 120.988C43.8597 121.532 44.5075 121.804 45.2848 121.804ZM57.1137 113.059C57.917 113.059 58.6231 113.221 59.232 113.545C59.8409 113.856 60.3202 114.264 60.67 114.769V113.234H63.4101V124.078C63.4101 125.075 63.2093 125.963 62.8077 126.74C62.4061 127.53 61.8036 128.152 61.0004 128.606C60.1972 129.072 59.2255 129.305 58.0854 129.305C56.5567 129.305 55.3 128.949 54.3154 128.236C53.3437 127.524 52.7931 126.552 52.6635 125.321H55.3647C55.5073 125.814 55.8117 126.202 56.2781 126.487C56.7575 126.785 57.334 126.934 58.0077 126.934C58.798 126.934 59.4393 126.695 59.9316 126.215C60.4239 125.749 60.67 125.036 60.67 124.078V122.406C60.3202 122.912 59.8344 123.333 59.2125 123.67C58.6036 124.006 57.904 124.175 57.1137 124.175C56.2069 124.175 55.3777 123.942 54.6263 123.475C53.8749 123.009 53.2789 122.355 52.8384 121.513C52.4109 120.657 52.1971 119.679 52.1971 118.578C52.1971 117.49 52.4109 116.525 52.8384 115.683C53.2789 114.84 53.8684 114.193 54.6068 113.739C55.3583 113.286 56.1939 113.059 57.1137 113.059ZM60.67 118.617C60.67 117.956 60.5405 117.393 60.2814 116.926C60.0223 116.447 59.6725 116.084 59.232 115.838C58.7915 115.579 58.3186 115.449 57.8133 115.449C57.3081 115.449 56.8417 115.572 56.4141 115.819C55.9866 116.065 55.6368 116.427 55.3647 116.907C55.1056 117.373 54.9761 117.93 54.9761 118.578C54.9761 119.226 55.1056 119.796 55.3647 120.288C55.6368 120.768 55.9866 121.137 56.4141 121.396C56.8546 121.655 57.321 121.785 57.8133 121.785C58.3186 121.785 58.7915 121.662 59.232 121.415C59.6725 121.156 60.0223 120.794 60.2814 120.327C60.5405 119.848 60.67 119.278 60.67 118.617ZM68.9046 113.234V124H66.1839V113.234H68.9046ZM69.6625 110.436L65.1928 112.476V110.533L69.6625 108.22V110.436ZM75.8236 124.175C74.9426 124.175 74.1523 124.019 73.4527 123.709C72.7531 123.385 72.196 122.951 71.7815 122.406C71.3798 121.862 71.1596 121.26 71.1207 120.599H73.8608C73.9127 121.014 74.1135 121.357 74.4633 121.629C74.826 121.901 75.273 122.037 75.8042 122.037C76.3224 122.037 76.724 121.934 77.009 121.726C77.307 121.519 77.456 121.253 77.456 120.93C77.456 120.58 77.2746 120.321 76.9119 120.152C76.5621 119.971 75.9985 119.777 75.2212 119.569C74.4179 119.375 73.7572 119.174 73.239 118.967C72.7337 118.759 72.2932 118.442 71.9175 118.015C71.5547 117.587 71.3734 117.01 71.3734 116.285C71.3734 115.689 71.5418 115.145 71.8786 114.653C72.2284 114.16 72.7207 113.772 73.3556 113.487C74.0033 113.202 74.7612 113.059 75.6293 113.059C76.9119 113.059 77.9353 113.383 78.6997 114.031C79.4641 114.666 79.8851 115.527 79.9629 116.615H77.3588C77.32 116.188 77.1386 115.851 76.8147 115.605C76.5038 115.346 76.0827 115.216 75.5515 115.216C75.0592 115.216 74.677 115.307 74.405 115.488C74.1459 115.67 74.0163 115.922 74.0163 116.246C74.0163 116.609 74.1977 116.887 74.5604 117.082C74.9232 117.263 75.4867 117.451 76.2511 117.645C77.0285 117.84 77.6698 118.04 78.175 118.248C78.6803 118.455 79.1143 118.779 79.477 119.219C79.8528 119.647 80.0471 120.217 80.06 120.93C80.06 121.551 79.8851 122.108 79.5353 122.601C79.1985 123.093 78.7062 123.482 78.0584 123.767C77.4236 124.039 76.6787 124.175 75.8236 124.175ZM85.461 115.469V120.677C85.461 121.04 85.5452 121.305 85.7136 121.474C85.895 121.629 86.193 121.707 86.6075 121.707H87.8707V124H86.1606C83.8674 124 82.7209 122.886 82.7209 120.657V115.469H81.4383V113.234H82.7209V110.572H85.461V113.234H87.8707V115.469H85.461ZM91.2073 111.951C90.728 111.951 90.3263 111.802 90.0024 111.504C89.6915 111.193 89.536 110.811 89.536 110.358C89.536 109.904 89.6915 109.529 90.0024 109.231C90.3263 108.92 90.728 108.764 91.2073 108.764C91.6867 108.764 92.0818 108.92 92.3927 109.231C92.7166 109.529 92.8786 109.904 92.8786 110.358C92.8786 110.811 92.7166 111.193 92.3927 111.504C92.0818 111.802 91.6867 111.951 91.2073 111.951ZM92.5482 113.234V124H89.8275V113.234H92.5482ZM94.5366 118.617C94.5366 117.503 94.7633 116.531 95.2168 115.702C95.6702 114.86 96.2986 114.212 97.1018 113.759C97.9051 113.292 98.8249 113.059 99.8613 113.059C101.196 113.059 102.297 113.396 103.165 114.07C104.046 114.73 104.635 115.663 104.933 116.868H101.999C101.844 116.402 101.578 116.039 101.202 115.78C100.839 115.508 100.386 115.372 99.8419 115.372C99.0646 115.372 98.4492 115.657 97.9957 116.227C97.5423 116.784 97.3156 117.581 97.3156 118.617C97.3156 119.64 97.5423 120.437 97.9957 121.007C98.4492 121.564 99.0646 121.843 99.8419 121.843C100.943 121.843 101.662 121.351 101.999 120.366H104.933C104.635 121.532 104.046 122.458 103.165 123.145C102.284 123.832 101.183 124.175 99.8613 124.175C98.8249 124.175 97.9051 123.948 97.1018 123.495C96.2986 123.028 95.6702 122.381 95.2168 121.551C94.7633 120.709 94.5366 119.731 94.5366 118.617ZM106.227 118.578C106.227 117.49 106.441 116.525 106.868 115.683C107.309 114.84 107.898 114.193 108.637 113.739C109.388 113.286 110.224 113.059 111.144 113.059C111.947 113.059 112.646 113.221 113.242 113.545C113.851 113.869 114.337 114.277 114.7 114.769V113.234H117.44V124H114.7V122.426C114.35 122.931 113.864 123.352 113.242 123.689C112.633 124.013 111.927 124.175 111.124 124.175C110.217 124.175 109.388 123.942 108.637 123.475C107.898 123.009 107.309 122.355 106.868 121.513C106.441 120.657 106.227 119.679 106.227 118.578ZM114.7 118.617C114.7 117.956 114.57 117.393 114.311 116.926C114.052 116.447 113.702 116.084 113.262 115.838C112.821 115.579 112.348 115.449 111.843 115.449C111.338 115.449 110.872 115.572 110.444 115.819C110.016 116.065 109.667 116.427 109.395 116.907C109.135 117.373 109.006 117.93 109.006 118.578C109.006 119.226 109.135 119.796 109.395 120.288C109.667 120.768 110.016 121.137 110.444 121.396C110.884 121.655 111.351 121.785 111.843 121.785C112.348 121.785 112.821 121.662 113.262 121.415C113.702 121.156 114.052 120.794 114.311 120.327C114.57 119.848 114.7 119.278 114.7 118.617Z" fill="#3ADCC9"/>
<g filter="url(#filter0_d_270_31644)">
<path d="M79.9578 88.3958H70.0411C62.1661 88.3958 55.9786 83.4374 54.2703 75.7499L53.4162 71.875C52.8328 69.2083 54.3536 66.3333 56.8744 65.3125L71.312 59.5208C73.687 58.5833 76.3119 58.5833 78.6869 59.5208L93.1245 65.3125C95.6661 66.3333 97.1869 69.2083 96.5828 71.875L95.7286 75.7499C94.0203 83.4374 87.8328 88.3958 79.9578 88.3958ZM74.9995 61.9374C74.1453 61.9374 73.2911 62.1041 72.4578 62.4166L58.0203 68.2083C56.9161 68.6458 56.1869 70.0416 56.4369 71.1874L57.2911 75.0625C58.687 81.3541 63.5619 85.2499 70.0203 85.2499H79.9369C86.3953 85.2499 91.2703 81.3541 92.6661 75.0625L93.5203 71.1874C93.7703 70.0416 93.0411 68.6458 91.937 68.2083L77.4995 62.4166C76.7078 62.1041 75.8536 61.9374 74.9995 61.9374Z" fill="#3ADCC9"/>
<path d="M75 88.3958C74.1458 88.3958 73.4375 87.6875 73.4375 86.8333V61.8333C73.4375 60.9792 74.1458 60.2708 75 60.2708C75.8542 60.2708 76.5625 60.9792 76.5625 61.8333V86.8333C76.5625 87.6875 75.8542 88.3958 75 88.3958Z" fill="#3ADCC9"/>
<path d="M89.5838 67.1458C89.3963 67.1458 89.1879 67.1042 89.0004 67.0417L77.5212 62.4375C75.8962 61.7917 74.1046 61.7917 72.4588 62.4375L60.9796 67.0417C60.5004 67.2292 59.9588 67.1667 59.5213 66.875C59.0838 66.5834 58.8337 66.1041 58.8337 65.5833V57.6667C58.8337 53.3542 62.3337 49.8542 66.6462 49.8542H83.3129C87.6254 49.8542 91.1254 53.3542 91.1254 57.6667V65.5833C91.1254 66.1041 90.8754 66.5834 90.4379 66.875C90.1879 67.0625 89.8963 67.1458 89.5838 67.1458ZM75.0004 58.8125C76.2504 58.8125 77.5004 59.0417 78.6879 59.5209L88.0213 63.2708V57.6667C88.0213 55.0833 85.9171 52.9792 83.3338 52.9792H66.6671C64.0838 52.9792 61.9796 55.0833 61.9796 57.6667V63.2708L71.313 59.5209C72.5005 59.0625 73.7504 58.8125 75.0004 58.8125Z" fill="#3ADCC9"/>
<path d="M80.2084 52.9792H69.7917C68.9376 52.9792 68.2292 52.2708 68.2292 51.4167V47.25C68.2292 45.25 69.8751 43.6042 71.8751 43.6042H78.1251C80.1251 43.6042 81.7709 45.25 81.7709 47.25V51.4167C81.7709 52.2708 81.0626 52.9792 80.2084 52.9792ZM71.3542 49.8542H78.6459V47.25C78.6459 46.9583 78.4167 46.7292 78.1251 46.7292H71.8751C71.5834 46.7292 71.3542 46.9583 71.3542 47.25V49.8542Z" fill="#3ADCC9"/>
</g>
<defs>
<filter id="filter0_d_270_31644" x="49.2917" y="43.6042" width="51.4231" height="52.7917" filterUnits="userSpaceOnUse" color-interpolation-filters="sRGB">
<feFlood flood-opacity="0" result="BackgroundImageFix"/>
<feColorMatrix in="SourceAlpha" type="matrix" values="0 0 0 0 0 0 0 0 0 0 0 0 0 0 0 0 0 0 127 0" result="hardAlpha"/>
<feOffset dy="4"/>
<feGaussianBlur stdDeviation="2"/>
<feComposite in2="hardAlpha" operator="out"/>
<feColorMatrix type="matrix" values="0 0 0 0 0 0 0 0 0 0 0 0 0 0 0 0 0 0 0.25 0"/>
<feBlend mode="normal" in2="BackgroundImageFix" result="effect1_dropShadow_270_31644"/>
<feBlend mode="normal" in="SourceGraphic" in2="effect1_dropShadow_270_31644" result="shape"/>
</filter>
</defs>
</svg>
