<svg width="150" height="150" viewBox="0 0 150 150" fill="none" xmlns="http://www.w3.org/2000/svg">
<rect width="150" height="150" rx="22.1192" fill="#1E266A"/>
<path d="M34.0485 111.134V123H31.6685V115.282L28.4895 123H26.6875L23.4915 115.282V123H21.1115V111.134H23.8145L27.5885 119.957L31.3625 111.134H34.0485ZM35.7895 118.257C35.7895 117.305 35.9765 116.461 36.3505 115.724C36.7358 114.987 37.2515 114.421 37.8975 114.024C38.5548 113.627 39.2858 113.429 40.0905 113.429C40.7932 113.429 41.4052 113.571 41.9265 113.854C42.4592 114.137 42.8842 114.494 43.2015 114.925V113.582H45.5985V123H43.2015V121.623C42.8955 122.065 42.4705 122.433 41.9265 122.728C41.3938 123.011 40.7762 123.153 40.0735 123.153C39.2802 123.153 38.5548 122.949 37.8975 122.541C37.2515 122.133 36.7358 121.561 36.3505 120.824C35.9765 120.076 35.7895 119.22 35.7895 118.257ZM43.2015 118.291C43.2015 117.713 43.0882 117.22 42.8615 116.812C42.6348 116.393 42.3288 116.075 41.9435 115.86C41.5582 115.633 41.1445 115.52 40.7025 115.52C40.2605 115.52 39.8525 115.628 39.4785 115.843C39.1045 116.058 38.7985 116.376 38.5605 116.795C38.3338 117.203 38.2205 117.69 38.2205 118.257C38.2205 118.824 38.3338 119.322 38.5605 119.753C38.7985 120.172 39.1045 120.495 39.4785 120.722C39.8638 120.949 40.2718 121.062 40.7025 121.062C41.1445 121.062 41.5582 120.954 41.9435 120.739C42.3288 120.512 42.6348 120.195 42.8615 119.787C43.0882 119.368 43.2015 118.869 43.2015 118.291ZM53.142 113.446C54.264 113.446 55.1707 113.803 55.862 114.517C56.5533 115.22 56.899 116.206 56.899 117.475V123H54.519V117.798C54.519 117.05 54.332 116.478 53.958 116.081C53.584 115.673 53.074 115.469 52.428 115.469C51.7707 115.469 51.2493 115.673 50.864 116.081C50.49 116.478 50.303 117.05 50.303 117.798V123H47.923V113.582H50.303V114.755C50.6203 114.347 51.0227 114.03 51.51 113.803C52.0087 113.565 52.5527 113.446 53.142 113.446ZM68.0533 113.582V123H65.6563V121.81C65.3503 122.218 64.9479 122.541 64.4493 122.779C63.9619 123.006 63.4293 123.119 62.8513 123.119C62.1146 123.119 61.4629 122.966 60.8963 122.66C60.3296 122.343 59.8819 121.884 59.5533 121.283C59.2359 120.671 59.0773 119.946 59.0773 119.107V113.582H61.4573V118.767C61.4573 119.515 61.6443 120.093 62.0183 120.501C62.3923 120.898 62.9023 121.096 63.5483 121.096C64.2056 121.096 64.7213 120.898 65.0953 120.501C65.4693 120.093 65.6563 119.515 65.6563 118.767V113.582H68.0533ZM74.7195 115.537H73.0705V123H70.6565V115.537H69.5855V113.582H70.6565V113.106C70.6565 111.95 70.9852 111.1 71.6425 110.556C72.2998 110.012 73.2915 109.757 74.6175 109.791V111.797C74.0395 111.786 73.6372 111.882 73.4105 112.086C73.1838 112.29 73.0705 112.658 73.0705 113.191V113.582H74.7195V115.537ZM75.6499 118.257C75.6499 117.305 75.8369 116.461 76.2109 115.724C76.5962 114.987 77.1119 114.421 77.7579 114.024C78.4152 113.627 79.1462 113.429 79.9509 113.429C80.6535 113.429 81.2655 113.571 81.7869 113.854C82.3195 114.137 82.7445 114.494 83.0619 114.925V113.582H85.4589V123H83.0619V121.623C82.7559 122.065 82.3309 122.433 81.7869 122.728C81.2542 123.011 80.6365 123.153 79.9339 123.153C79.1405 123.153 78.4152 122.949 77.7579 122.541C77.1119 122.133 76.5962 121.561 76.2109 120.824C75.8369 120.076 75.6499 119.22 75.6499 118.257ZM83.0619 118.291C83.0619 117.713 82.9485 117.22 82.7219 116.812C82.4952 116.393 82.1892 116.075 81.8039 115.86C81.4185 115.633 81.0049 115.52 80.5629 115.52C80.1209 115.52 79.7129 115.628 79.3389 115.843C78.9649 116.058 78.6589 116.376 78.4209 116.795C78.1942 117.203 78.0809 117.69 78.0809 118.257C78.0809 118.824 78.1942 119.322 78.4209 119.753C78.6589 120.172 78.9649 120.495 79.3389 120.722C79.7242 120.949 80.1322 121.062 80.5629 121.062C81.0049 121.062 81.4185 120.954 81.8039 120.739C82.1892 120.512 82.4952 120.195 82.7219 119.787C82.9485 119.368 83.0619 118.869 83.0619 118.291ZM87.1714 118.291C87.1714 117.316 87.3697 116.466 87.7664 115.741C88.163 115.004 88.7127 114.438 89.4154 114.041C90.118 113.633 90.9227 113.429 91.8294 113.429C92.9967 113.429 93.96 113.724 94.7194 114.313C95.49 114.891 96.0057 115.707 96.2664 116.761H93.6994C93.5634 116.353 93.331 116.036 93.0024 115.809C92.685 115.571 92.2884 115.452 91.8124 115.452C91.1324 115.452 90.594 115.701 90.1974 116.2C89.8007 116.687 89.6024 117.384 89.6024 118.291C89.6024 119.186 89.8007 119.883 90.1974 120.382C90.594 120.869 91.1324 121.113 91.8124 121.113C92.7757 121.113 93.4047 120.682 93.6994 119.821H96.2664C96.0057 120.841 95.49 121.651 94.7194 122.252C93.9487 122.853 92.9854 123.153 91.8294 123.153C90.9227 123.153 90.118 122.955 89.4154 122.558C88.7127 122.15 88.163 121.583 87.7664 120.858C87.3697 120.121 87.1714 119.266 87.1714 118.291ZM100.781 115.537V120.093C100.781 120.41 100.855 120.643 101.002 120.79C101.161 120.926 101.421 120.994 101.784 120.994H102.889V123H101.393C99.3869 123 98.3839 122.025 98.3839 120.076V115.537H97.2619V113.582H98.3839V111.253H100.781V113.582H102.889V115.537H100.781ZM113.492 113.582V123H111.095V121.81C110.789 122.218 110.386 122.541 109.888 122.779C109.4 123.006 108.868 123.119 108.29 123.119C107.553 123.119 106.901 122.966 106.335 122.66C105.768 122.343 105.32 121.884 104.992 121.283C104.674 120.671 104.516 119.946 104.516 119.107V113.582H106.896V118.767C106.896 119.515 107.083 120.093 107.457 120.501C107.831 120.898 108.341 121.096 108.987 121.096C109.644 121.096 110.16 120.898 110.534 120.501C110.908 120.093 111.095 119.515 111.095 118.767V113.582H113.492ZM118.22 115.044C118.526 114.545 118.923 114.154 119.41 113.871C119.909 113.588 120.475 113.446 121.11 113.446V115.945H120.481C119.733 115.945 119.166 116.121 118.781 116.472C118.407 116.823 118.22 117.435 118.22 118.308V123H115.84V113.582H118.22V115.044ZM122.101 118.257C122.101 117.305 122.288 116.461 122.662 115.724C123.047 114.987 123.563 114.421 124.209 114.024C124.866 113.627 125.597 113.429 126.402 113.429C127.105 113.429 127.717 113.571 128.238 113.854C128.771 114.137 129.196 114.494 129.513 114.925V113.582H131.91V123H129.513V121.623C129.207 122.065 128.782 122.433 128.238 122.728C127.705 123.011 127.088 123.153 126.385 123.153C125.592 123.153 124.866 122.949 124.209 122.541C123.563 122.133 123.047 121.561 122.662 120.824C122.288 120.076 122.101 119.22 122.101 118.257ZM129.513 118.291C129.513 117.713 129.4 117.22 129.173 116.812C128.946 116.393 128.64 116.075 128.255 115.86C127.87 115.633 127.456 115.52 127.014 115.52C126.572 115.52 126.164 115.628 125.79 115.843C125.416 116.058 125.11 116.376 124.872 116.795C124.645 117.203 124.532 117.69 124.532 118.257C124.532 118.824 124.645 119.322 124.872 119.753C125.11 120.172 125.416 120.495 125.79 120.722C126.175 120.949 126.583 121.062 127.014 121.062C127.456 121.062 127.87 120.954 128.255 120.739C128.64 120.512 128.946 120.195 129.173 119.787C129.4 119.368 129.513 118.869 129.513 118.291Z" fill="#3ADCC9"/>
<g filter="url(#filter0_d_270_31616)">
<path d="M77.5972 85.3958H58.1528C52.2708 85.3958 49.0382 82.625 49.0382 77.5833V60.9167C49.0382 55.875 52.2708 53.1042 58.1528 53.1042H70.3056C71.3021 53.1042 72.1285 53.8125 72.1285 54.6667V77.5833C72.1285 80.875 73.757 82.2708 77.5972 82.2708C78.5938 82.2708 79.4201 82.9792 79.4201 83.8333C79.4201 84.6875 78.5938 85.3958 77.5972 85.3958ZM58.1528 56.2292C54.3125 56.2292 52.684 57.625 52.684 60.9167V77.5833C52.684 80.875 54.3125 82.2708 58.1528 82.2708H69.8194C68.9444 81.0417 68.4827 79.4792 68.4827 77.5833V56.2292H58.1528Z" fill="#3ADCC9"/>
<path d="M70.3055 56.2292H58.1528C57.1562 56.2292 56.3298 55.5208 56.3298 54.6667V50.5C56.3298 47.3333 59.3194 44.7708 63.0139 44.7708H70.5729C71.1319 44.7708 71.6667 44.9999 72.0069 45.3749C72.3472 45.7708 72.4687 46.2708 72.3229 46.7292C72.177 47.1875 72.1284 47.7083 72.1284 48.4167V54.6667C72.1284 55.5208 71.3021 56.2292 70.3055 56.2292ZM59.9757 53.1042H68.4826V48.4167C68.4826 48.2292 68.4826 48.0625 68.4826 47.8958H63.0139C61.3368 47.8958 59.9757 49.0625 59.9757 50.5V53.1042Z" fill="#3ADCC9"/>
<path d="M80.0278 66.6458C79.0312 66.6458 78.2048 65.9375 78.2048 65.0833V54.6667C78.2048 53.8125 79.0312 53.1042 80.0278 53.1042C81.0243 53.1042 81.8507 53.8125 81.8507 54.6667V65.0833C81.8507 65.9375 81.0243 66.6458 80.0278 66.6458Z" fill="#3ADCC9"/>
<path d="M89.75 66.6458C88.7535 66.6458 87.9271 65.9375 87.9271 65.0833V54.6667C87.9271 53.8125 88.7535 53.1042 89.75 53.1042C90.7466 53.1042 91.573 53.8125 91.573 54.6667V65.0833C91.573 65.9375 90.7466 66.6458 89.75 66.6458Z" fill="#3ADCC9"/>
<path d="M89.75 85.3958H80.0278C79.0312 85.3958 78.2048 84.6875 78.2048 83.8333V75.5C78.2048 73.5 80.125 71.8542 82.4583 71.8542H87.3194C89.6528 71.8542 91.5729 73.5 91.5729 75.5V83.8333C91.5729 84.6875 90.7465 85.3958 89.75 85.3958ZM81.8507 82.2708H87.9271V75.5C87.9271 75.2083 87.6597 74.9792 87.3194 74.9792H82.4583C82.118 74.9792 81.8507 75.2083 81.8507 75.5V82.2708Z" fill="#3ADCC9"/>
<path d="M60.5833 74.9792C59.5868 74.9792 58.7604 74.2708 58.7604 73.4167V65.0833C58.7604 64.2292 59.5868 63.5208 60.5833 63.5208C61.5798 63.5208 62.4062 64.2292 62.4062 65.0833V73.4167C62.4062 74.2708 61.5798 74.9792 60.5833 74.9792Z" fill="#3ADCC9"/>
<path d="M92.1806 85.3958H77.5972C71.7153 85.3958 68.4827 82.625 68.4827 77.5833V48.4167C68.4827 43.375 71.7153 40.6042 77.5972 40.6042H92.1806C98.0625 40.6042 101.295 43.375 101.295 48.4167V77.5833C101.295 82.625 98.0625 85.3958 92.1806 85.3958ZM77.5972 43.7292C73.757 43.7292 72.1285 45.125 72.1285 48.4167V77.5833C72.1285 80.875 73.757 82.2708 77.5972 82.2708H92.1806C96.0209 82.2708 97.6493 80.875 97.6493 77.5833V48.4167C97.6493 45.125 96.0209 43.7292 92.1806 43.7292H77.5972Z" fill="#3ADCC9"/>
</g>
<defs>
<filter id="filter0_d_270_31616" x="45.0382" y="40.6042" width="60.257" height="52.7917" filterUnits="userSpaceOnUse" color-interpolation-filters="sRGB">
<feFlood flood-opacity="0" result="BackgroundImageFix"/>
<feColorMatrix in="SourceAlpha" type="matrix" values="0 0 0 0 0 0 0 0 0 0 0 0 0 0 0 0 0 0 127 0" result="hardAlpha"/>
<feOffset dy="4"/>
<feGaussianBlur stdDeviation="2"/>
<feComposite in2="hardAlpha" operator="out"/>
<feColorMatrix type="matrix" values="0 0 0 0 0 0 0 0 0 0 0 0 0 0 0 0 0 0 0.25 0"/>
<feBlend mode="normal" in2="BackgroundImageFix" result="effect1_dropShadow_270_31616"/>
<feBlend mode="normal" in="SourceGraphic" in2="effect1_dropShadow_270_31616" result="shape"/>
</filter>
</defs>
</svg>
