<svg width="150" height="150" viewBox="0 0 150 150" fill="none" xmlns="http://www.w3.org/2000/svg">
<path d="M128.489 86.2098C128.09 86.511 127.731 86.8637 127.304 87.0902C125.844 87.8655 124.383 87.8048 123.024 86.873C122.024 86.1888 121.764 85.1379 121.914 83.9889C122.095 82.6134 122.972 81.8053 124.218 81.3546C125.302 80.9623 126.431 80.8339 127.583 80.9249C127.827 80.9436 128.071 80.9436 128.313 80.967C128.468 80.9833 128.543 80.9319 128.524 80.7801C128.475 80.3691 128.463 79.9464 128.36 79.5471C128.099 78.5522 127.379 78.0945 126.391 77.9521C125.218 77.7816 124.127 78.0338 123.073 78.5219C122.705 78.6924 122.501 78.5873 122.405 78.1903C122.254 77.5737 122.498 77.067 123.13 76.6887C123.812 76.28 124.566 76.1048 125.349 76.0254C126.239 75.9343 127.119 75.9343 127.989 76.1725C129.519 76.5906 130.516 77.7722 130.652 79.3463C130.688 79.7409 130.706 80.1403 130.706 80.5349C130.711 82.6671 130.704 84.8016 130.716 86.9337C130.716 87.1789 130.641 87.2864 130.406 87.3097C130.27 87.3237 130.139 87.3611 130.002 87.3728C129.181 87.4498 128.649 87.0365 128.489 86.2098ZM128.501 83.6269C128.501 83.2859 128.498 83.0431 128.501 82.8025C128.503 82.6391 128.44 82.5527 128.266 82.5386C127.994 82.52 127.724 82.4733 127.452 82.4616C126.605 82.4219 125.769 82.4966 125.023 82.9403C124.427 83.2953 124.171 83.8558 124.211 84.5377C124.251 85.2103 124.667 85.6003 125.267 85.8244C126.323 86.2191 127.698 85.7404 128.308 84.7992C128.571 84.3929 128.482 83.9609 128.498 83.6292L128.501 83.6269Z" fill="white"/>
<path d="M103.567 82.3915C103.766 84.4583 105.28 85.7988 107.333 85.7871C108.267 85.7801 109.154 85.6213 109.985 85.1869C110.182 85.0841 110.292 85.1542 110.376 85.3364C110.585 85.7917 110.452 86.3546 110.029 86.7329C109.602 87.1159 109.081 87.2887 108.532 87.4148C107.279 87.7044 106.035 87.6974 104.811 87.3004C103.325 86.8193 102.232 85.8945 101.725 84.3976C101.054 82.4172 101.061 80.4415 102.042 78.5569C102.938 76.8358 104.43 76.0091 106.371 75.9834C107.159 75.9717 107.922 76.1048 108.654 76.4061C109.823 76.8872 110.609 78.1716 110.543 79.4256C110.484 80.5536 109.917 81.3313 108.957 81.8661C108.175 82.3004 107.331 82.5106 106.444 82.5526C105.604 82.5923 104.766 82.5853 103.94 82.3985C103.823 82.3728 103.694 82.3938 103.569 82.3938L103.567 82.3915ZM105.374 80.9179C106.162 80.8829 106.939 80.8385 107.64 80.4368C108.42 79.9885 108.542 78.9586 107.903 78.3234C107.096 77.5247 105.308 77.6438 104.475 78.5499C103.966 79.1034 103.776 79.7876 103.659 80.4999C103.626 80.7031 103.771 80.7451 103.926 80.7638C104.409 80.8175 104.89 80.8689 105.374 80.9203V80.9179Z" fill="white"/>
<path d="M64.9064 77.4897C65.3381 77.1767 65.7206 76.8381 66.1571 76.5999C67.4124 75.911 68.7335 75.8456 70.0405 76.4224C71.2372 76.9525 71.8144 77.9707 71.8355 79.2318C71.8778 81.8287 71.8473 84.4279 71.852 87.0271C71.852 87.2326 71.7792 87.3144 71.5774 87.3541C70.4159 87.5829 69.658 86.9921 69.651 85.8058C69.6392 83.9048 69.651 82.0038 69.6416 80.1052C69.6416 79.846 69.6111 79.5821 69.5595 79.3276C69.3178 78.1202 68.2313 77.7419 67.1825 77.91C66.38 78.0385 65.6925 78.4051 65.1481 79.0216C64.965 79.2271 64.8735 79.442 64.8735 79.7269C64.8829 82.1323 64.8735 84.5353 64.8853 86.9407C64.8853 87.228 64.8008 87.3634 64.5145 87.3471C64.1672 87.3284 63.7965 87.3704 63.4821 87.256C62.9001 87.0458 62.7077 86.525 62.6843 85.9482C62.6655 85.4928 62.6725 85.0374 62.6725 84.582C62.6725 81.9828 62.6772 79.3859 62.6631 76.7867C62.6631 76.4761 62.7429 76.3103 63.062 76.3033C63.3812 76.2963 63.705 76.2636 64.0194 76.2986C64.4864 76.3524 64.7844 76.7097 64.8712 77.2421C64.8853 77.3262 64.8923 77.4079 64.9017 77.492L64.9064 77.4897Z" fill="white"/>
<path d="M81.496 86.1677C81.3998 86.2308 81.3318 86.2658 81.2778 86.3149C80.426 87.0855 79.4217 87.5689 78.2767 87.5969C76.6388 87.639 75.0244 86.8496 74.9118 84.7712C74.8485 83.6105 74.8625 82.4452 74.8555 81.2822C74.8461 79.7503 74.8578 78.2183 74.8461 76.6863C74.8438 76.4014 74.9353 76.2589 75.2215 76.2706C75.5501 76.2846 75.8973 76.2496 76.2 76.3477C76.85 76.5602 77.0424 77.1183 77.0518 77.7349C77.0706 78.7624 77.0612 79.79 77.0612 80.8175C77.0612 81.8264 77.0541 82.8352 77.0659 83.8441C77.0682 84.101 77.1128 84.3649 77.1762 84.6147C77.3709 85.3877 77.8637 85.7637 78.8164 85.759C79.7315 85.7544 80.5152 85.369 81.1628 84.7245C81.4256 84.4629 81.5383 84.157 81.5383 83.7834C81.5289 81.427 81.5336 79.0707 81.5336 76.7143C81.5336 76.5999 81.5336 76.4831 81.5336 76.3477C81.8011 76.308 82.0498 76.2519 82.2985 76.2426C83.04 76.2122 83.5961 76.684 83.6806 77.4173C83.7229 77.7816 83.7322 78.1506 83.7346 78.5195C83.7393 81.2939 83.7346 84.0659 83.7463 86.8403C83.7463 87.1392 83.6618 87.2957 83.3568 87.3214C83.1832 87.3354 83.0095 87.3751 82.8335 87.3774C82.2141 87.3868 81.672 87.1859 81.5641 86.4153C81.5547 86.3499 81.5289 86.2868 81.496 86.1677Z" fill="white"/>
<path d="M112.671 85.0071C113.746 85.5746 114.83 85.8291 115.971 85.7614C116.421 85.7357 116.876 85.6353 117.313 85.5068C117.855 85.3457 118.15 84.923 118.172 84.3765C118.19 83.8931 117.956 83.4564 117.505 83.2649C116.918 83.0174 116.292 82.8679 115.684 82.6694C115.084 82.4732 114.469 82.3098 113.894 82.0599C112.336 81.385 111.986 79.8273 112.331 78.5102C112.594 77.499 113.253 76.8077 114.211 76.4247C115.776 75.8012 117.371 75.7942 118.951 76.3594C119.718 76.6349 120.084 77.3752 119.887 78.0455C119.758 78.4822 119.598 78.5452 119.202 78.3397C118.122 77.7816 116.972 77.6671 115.792 77.8563C115.532 77.8983 115.26 78.0128 115.048 78.1692C114.192 78.7974 114.366 79.9371 115.4 80.3668C115.945 80.5933 116.536 80.7077 117.102 80.8852C117.62 81.0487 118.148 81.1958 118.648 81.406C119.626 81.817 120.234 82.541 120.37 83.6129C120.483 84.5143 120.396 85.3737 119.809 86.121C119.385 86.6628 118.803 86.9874 118.172 87.1929C116.628 87.695 115.062 87.8001 113.493 87.2747C112.725 87.0178 112.244 86.2962 112.411 85.6049C112.46 85.4064 112.58 85.2243 112.678 85.0071H112.671Z" fill="white"/>
<path d="M39.8155 74.9558C39.7287 75.145 39.663 75.3482 39.555 75.5233C38.485 77.2445 37.8046 79.1174 37.5488 81.1118C37.3235 82.8679 37.3869 84.6311 37.8773 86.3569C38.0157 86.8426 38.0064 86.8567 38.4545 86.8917C40.4303 87.0458 42.3708 87.4008 44.2809 87.9262C45.907 88.3746 47.4768 88.9701 48.9996 89.6917C49.1099 89.7431 49.2038 89.8295 49.3047 89.8996C49.2929 89.9323 49.2835 89.9673 49.2718 90C48.9715 89.9299 48.6688 89.8762 48.3731 89.7875C46.4983 89.2223 44.5976 88.7786 42.6594 88.5007C40.0103 88.1201 37.347 87.9426 34.6697 88.0243C32.1355 88.1014 29.613 88.3256 27.1328 88.8814C25.7577 89.1896 24.3991 89.561 23.0311 89.8972C22.8903 89.9323 22.7402 89.9276 22.5923 89.9416C22.5829 89.9066 22.5736 89.8739 22.5618 89.8389C22.8481 89.6894 23.125 89.5213 23.4206 89.3928C25.8 88.3489 28.2779 87.6226 30.8402 87.1859C31.4831 87.0762 32.1355 87.0248 32.7808 86.929C32.8981 86.9127 33.0576 86.8426 33.1022 86.7516C33.9094 85.1495 34.0572 83.4588 33.7311 81.7166C33.6654 81.3616 33.5527 81.0137 33.4565 80.64C33.724 80.605 33.8625 80.6891 33.9821 80.8712C34.8034 82.1183 35.0193 83.4704 34.7494 84.9253C34.6439 85.4975 34.4303 86.0183 34.1605 86.5227C34.1206 86.5951 34.0995 86.6768 34.0596 86.7796C34.1558 86.7959 34.2191 86.817 34.2825 86.817C35.0146 86.8216 35.7467 86.824 36.4788 86.8216C36.8144 86.8216 36.8683 86.7469 36.744 86.4386C36.1128 84.8623 35.864 83.2252 36.033 81.5415C36.1714 80.1496 36.6126 78.8371 37.3447 77.6368C37.6825 77.0833 38.0416 76.5392 38.4334 76.0207C38.6939 75.6751 39.0224 75.3762 39.3368 75.0749C39.4377 74.9769 39.5949 74.9348 39.724 74.8648C39.7521 74.8928 39.7803 74.9231 39.8108 74.9512L39.8155 74.9558Z" fill="white"/>
<path d="M89.0798 76.329C89.5656 76.2636 90.0161 76.1609 90.4666 76.1539C90.9382 76.1492 91.4216 76.1889 91.8815 76.2963C92.4494 76.4271 92.6746 76.7751 92.6934 77.3566C92.7192 78.1342 92.7145 78.1552 91.966 78.0034C91.0743 77.8236 90.185 77.8376 89.291 77.9497C89.108 77.9731 89.0634 78.0572 89.0658 78.216C89.0681 78.6223 89.0658 79.031 89.0658 79.4373C89.0658 81.0277 89.0658 82.618 89.0658 84.2084C89.0658 84.6007 89.1596 84.9534 89.4177 85.2593C89.8307 85.752 90.3915 85.8081 90.9641 85.7427C91.4052 85.6913 91.8346 85.5489 92.2757 85.4461C92.5409 85.7941 92.5597 86.3732 92.2546 86.7165C92.0739 86.9197 91.8393 87.1112 91.5882 87.2163C90.7036 87.5829 89.7791 87.604 88.864 87.3634C87.6579 87.0458 86.8906 86.0463 86.8695 84.6988C86.8272 81.7516 86.8202 78.8045 86.8108 75.8549C86.8108 75.5093 86.8483 75.1567 86.9164 74.8157C87.0994 73.9143 87.8362 73.3958 88.756 73.4799C88.9883 73.5009 89.0751 73.592 89.0728 73.8279C89.0611 74.5542 89.0658 75.2828 89.0658 76.0091C89.0658 76.1118 89.0751 76.2146 89.0822 76.329H89.0798Z" fill="white"/>
<path d="M96.8092 77.7629C97.1189 77.4149 97.37 77.081 97.6727 76.8031C98.2922 76.2379 99.0219 75.932 99.8831 75.9927C100.777 76.0534 101.192 76.8007 100.819 77.6508C100.784 77.7325 100.611 77.7956 100.503 77.7933C99.8197 77.7769 99.1416 77.7255 98.4869 78.0034C97.5132 78.4168 96.8538 79.3883 96.8538 80.4368C96.8538 82.569 96.8514 84.7012 96.8632 86.8356C96.8632 87.1369 96.7764 87.291 96.469 87.3097C96.2461 87.3237 96.0208 87.3798 95.8002 87.3611C95.1174 87.3027 94.7983 86.9921 94.688 86.3079C94.6622 86.1467 94.6528 85.9809 94.6528 85.8174C94.6528 82.7932 94.6528 79.7689 94.6458 76.7447C94.6458 76.4621 94.7044 76.3103 95.0142 76.3103C95.2066 76.3103 95.4013 76.2449 95.5937 76.2519C96.293 76.2776 96.6802 76.649 96.7599 77.3425C96.774 77.4733 96.7904 77.6041 96.8092 77.7629Z" fill="white"/>
<path d="M42.65 63.1554C42.2933 63.3726 41.9906 63.5408 41.7067 63.7369C40.327 64.6944 39.1866 65.8901 38.3583 67.338C37.4267 68.9657 36.9598 70.7359 37.0583 72.6275C37.0701 72.8704 37.0771 73.1133 37.0607 73.3538C37.0536 73.4495 36.9762 73.5406 36.9293 73.6364C36.826 73.5686 36.6641 73.5196 36.6266 73.4262C36.4741 73.0315 36.338 72.6275 36.2371 72.2165C35.8429 70.6121 35.9836 69.0381 36.5937 67.5155C37.4924 65.2736 39.0411 63.7252 41.4721 63.1671C41.6434 63.1274 41.8193 63.0947 41.993 63.0947C42.1854 63.0947 42.3778 63.1297 42.65 63.1578V63.1554Z" fill="white"/>
<path d="M20.4805 69.9699C20.9803 69.692 21.5106 69.5075 22.0831 69.4235C23.2657 69.2506 24.4155 69.4491 25.5536 69.72C28.198 70.3506 30.4929 71.5976 32.3255 73.62C32.6564 73.9867 32.9473 74.3907 33.2336 74.7947C33.3626 74.9769 33.5504 75.2337 33.3298 75.4159C33.1163 75.591 32.9215 75.3412 32.7619 75.1987C30.7229 73.3561 28.4069 71.9806 25.8093 71.0675C24.4554 70.5911 23.0569 70.2969 21.6349 70.117C21.2595 70.0703 20.877 70.0703 20.4992 70.0493C20.4922 70.0236 20.4875 69.9956 20.4805 69.9699Z" fill="white"/>
<path d="M65.4836 65.8808H67.6776C67.6823 65.9742 67.6893 66.0676 67.6893 66.161C67.6893 66.8686 67.6776 67.5762 67.6964 68.2838C67.7034 68.5687 67.6189 68.7275 67.3632 68.8793C66.61 69.323 65.8004 69.4888 64.9486 69.3908C63.9702 69.2787 63.2498 68.7602 62.8861 67.8471C62.4356 66.7215 62.3957 65.5632 62.7969 64.4095C63.1911 63.2769 64.057 62.7584 65.2185 62.679C65.8333 62.637 66.4246 62.7538 66.9572 63.0784C67.4101 63.3539 67.4758 63.6248 67.1989 63.9705C67.0652 64.1363 66.9549 64.155 66.7953 63.9961C66.3143 63.5197 65.7136 63.4076 65.0683 63.4777C64.3503 63.5548 63.8904 63.9775 63.6557 64.6244C63.2897 65.6402 63.3061 66.6654 63.7801 67.6463C64.2494 68.6154 65.7159 68.9891 66.617 68.3842C66.7202 68.3142 66.8094 68.1554 66.8188 68.0339C66.8446 67.6182 66.8282 67.2002 66.8352 66.7845C66.8376 66.6117 66.7766 66.5393 66.5959 66.5463C66.3143 66.558 66.0304 66.5393 65.7465 66.5533C65.5447 66.5627 65.4555 66.4996 65.479 66.2918C65.493 66.168 65.4813 66.0419 65.4813 65.8831L65.4836 65.8808Z" fill="white"/>
<path d="M78.4103 69.0825C78.4103 69.7294 78.4103 70.3179 78.4103 70.9064C78.4103 71.3221 78.4127 71.3267 77.9973 71.3221C77.4623 71.3174 77.4905 71.4248 77.4905 70.834C77.4905 68.9237 77.4928 67.0157 77.5022 65.1054C77.5022 64.97 77.5632 64.7201 77.5961 64.7201C77.7815 64.7201 78.0278 64.7201 78.1334 64.8345C78.3376 65.0541 78.4901 64.991 78.6895 64.8719C79.1049 64.6197 79.5554 64.5309 80.0364 64.622C80.6934 64.7435 81.151 65.0938 81.3622 65.743C81.6297 66.5603 81.6719 67.3754 81.3434 68.1857C80.907 69.2647 79.8675 69.6873 78.7834 69.2366C78.6778 69.1923 78.5722 69.1502 78.408 69.0825H78.4103ZM80.6934 67.0951C80.6277 66.7425 80.5996 66.4623 80.5174 66.196C80.2734 65.395 79.363 65.0657 78.659 65.5305C78.537 65.6122 78.4267 65.8037 78.4197 65.9485C78.3939 66.6141 78.4033 67.282 78.4103 67.9499C78.4103 68.0596 78.4361 68.1904 78.5018 68.2745C78.9617 68.863 80.0693 68.7789 80.3884 68.111C80.548 67.7794 80.6019 67.3987 80.6887 67.0951H80.6934Z" fill="white"/>
<path d="M26.6822 62.5296C26.884 62.5039 27.0881 62.4525 27.2899 62.4572C28.6579 62.4759 29.7866 63.0597 30.7791 63.9494C31.7201 64.7925 32.4146 65.8084 32.9449 66.9503C33.4541 68.0479 33.7169 69.1969 33.8085 70.3903C33.8178 70.5234 33.8202 70.6658 33.785 70.792C33.7615 70.8784 33.67 71.0045 33.609 71.0045C33.5034 71.0045 33.3744 70.9414 33.2969 70.8643C33.2265 70.7966 33.2031 70.6752 33.1726 70.5748C32.3748 67.9989 31.0255 65.7663 28.9442 64.0172C28.3928 63.5548 27.7287 63.2278 27.1116 62.8425C26.9755 62.7584 26.8253 62.693 26.6822 62.6206C26.6822 62.5903 26.6845 62.5599 26.6869 62.5296H26.6822Z" fill="white"/>
<path d="M86.8014 66.8756C86.7709 67.5015 86.6958 68.0199 86.4072 68.4753C85.9074 69.2646 85.0533 69.5706 84.0584 69.3441C83.2113 69.1502 82.6599 68.501 82.5261 67.5762C82.4158 66.8219 82.4815 66.0979 82.9133 65.4557C83.4131 64.7154 84.171 64.5216 85.0204 64.6174C85.9097 64.7178 86.44 65.2456 86.6676 66.0839C86.7451 66.3712 86.7685 66.6724 86.8014 66.8756ZM85.9215 67.0064C85.837 66.6724 85.7807 66.3478 85.6727 66.0419C85.5085 65.5725 85.1166 65.3833 84.6497 65.36C84.2085 65.339 83.8237 65.5235 83.6313 65.9181C83.2653 66.6748 83.2629 67.4548 83.6923 68.1951C83.927 68.6014 84.3329 68.7065 84.7764 68.6598C85.1917 68.6178 85.5249 68.4263 85.6634 68.0129C85.7713 67.686 85.8346 67.345 85.9191 67.0041L85.9215 67.0064Z" fill="white"/>
<path d="M45.785 62.2073C45.9586 62.8939 46.1956 63.5735 46.2965 64.2717C46.686 66.9293 45.8178 69.1759 43.8867 71.0115C43.408 71.4669 42.8026 71.7891 42.2559 72.1721C42.209 72.2048 42.1456 72.2492 42.0987 72.2422C41.9368 72.2142 41.7772 72.1628 41.6153 72.1208C41.6716 71.9876 41.6951 71.8242 41.7889 71.7284C42.2653 71.245 42.7909 70.8106 43.2414 70.3062C44.3888 69.0171 45.0552 67.4805 45.4588 65.8201C45.7451 64.6384 45.7005 63.4404 45.6911 62.2447C45.724 62.233 45.7545 62.2237 45.7873 62.212L45.785 62.2073Z" fill="white"/>
<path d="M76.0944 69.3044C75.7823 69.2133 75.3998 69.4748 75.2098 69.0031C75.1183 69.0451 75.0291 69.0802 74.9493 69.1269C74.4331 69.4281 73.884 69.4678 73.3115 69.3464C72.7507 69.2273 72.4339 68.877 72.333 68.3259C72.3025 68.1647 72.2837 67.9989 72.2837 67.8354C72.279 66.8663 72.2837 65.8971 72.2743 64.928C72.272 64.6781 72.3776 64.6267 72.5935 64.6617C72.9759 64.7224 73.1331 64.8929 73.1355 65.2899C73.1402 66.0349 73.1543 66.7822 73.1284 67.5272C73.0933 68.543 73.701 68.8233 74.5692 68.5757C75.1582 68.4076 75.2708 68.2184 75.2684 67.6159C75.2637 66.7635 75.2614 65.9111 75.2684 65.0587C75.2684 64.9186 75.1582 64.7061 75.4186 64.6571C75.6791 64.6103 75.9841 64.7551 76.0545 64.9583C76.0921 65.0657 76.1202 65.1848 76.1202 65.2969C76.1249 66.5767 76.1226 67.8541 76.1226 69.1339C76.1226 69.1712 76.1108 69.2086 76.0944 69.302V69.3044Z" fill="white"/>
<path d="M50.3348 71.1983C50.5178 71.9946 50.3348 72.7023 49.9336 73.3772C49.4384 74.2085 48.6899 74.7713 47.8593 75.2057C46.3904 75.974 44.8182 76.3267 43.1499 76.1492C42.9551 76.1282 42.6853 76.1889 42.6383 75.9133C42.6313 75.8783 42.9833 75.7452 43.178 75.7172C45.6207 75.3669 47.695 74.3066 49.3681 72.5061C49.7271 72.1184 50.0016 71.6537 50.3348 71.1983Z" fill="white"/>
<path d="M30.5258 59.3372C31.5043 59.3652 32.0463 59.9397 32.0604 60.7477C32.0745 61.6328 31.3705 62.2774 30.5375 62.2377C29.7233 62.198 29.0898 61.7099 29.0944 60.7734C29.0991 59.8323 29.7867 59.3465 30.5281 59.3372H30.5258Z" fill="white"/>
<path d="M21.2454 75.6401C21.2454 76.4878 20.5955 77.1464 19.7578 77.144C18.9764 77.1417 18.2842 76.4691 18.2842 75.7125C18.2842 74.8905 18.8567 74.1922 19.8939 74.2436C20.626 74.2786 21.2454 74.8881 21.2454 75.6401Z" fill="white"/>
<path d="M38.8886 60.7407C38.8839 59.928 39.5222 59.3349 40.4185 59.3232C41.1999 59.3138 41.8147 59.9654 41.8452 60.7757C41.8734 61.5441 41.1342 62.2587 40.4185 62.2423C39.5433 62.2213 38.8933 61.6048 38.8886 60.7407Z" fill="white"/>
<path d="M53.1575 75.2477C53.1575 76.1118 52.5005 76.7354 51.5971 76.733C50.8204 76.7307 50.1681 76.0441 50.2103 75.2057C50.2502 74.428 50.7617 73.8162 51.6675 73.8209C52.5099 73.8255 53.1575 74.4467 53.1575 75.2477Z" fill="white"/>
<path d="M48.7368 67.8985C47.7841 67.9032 47.2069 67.38 47.2116 66.4926C47.2163 65.5632 47.7959 65.0284 48.657 65.0167C49.4877 65.005 50.1353 65.6426 50.14 66.4179C50.147 67.2703 49.5276 67.9522 48.7368 67.8962V67.8985Z" fill="white"/>
<path d="M22.4093 64.9957C23.3173 65.0074 23.9439 65.5912 23.9251 66.4062C23.9063 67.2423 23.2329 67.9102 22.421 67.8985C21.6302 67.8868 20.9427 67.2049 20.9756 66.4226C21.0108 65.5818 21.5458 64.9793 22.4093 64.998V64.9957Z" fill="white"/>
<path d="M28.3623 76.0674C28.0479 76.378 27.7053 76.4154 27.3697 76.4201C25.4433 76.4481 23.7515 75.7872 22.2286 74.6476C21.52 74.1151 21.0483 73.3935 20.5978 72.6555C20.5391 72.5575 20.5251 72.4313 20.4899 72.3169C21.3862 72.9428 22.238 73.5803 23.1344 74.1501C24.3357 74.9138 25.6146 75.528 27.0342 75.7895C27.2829 75.8363 27.5387 75.8386 27.7851 75.8853C27.9681 75.9203 28.1417 75.9974 28.36 76.0674H28.3623Z" fill="white"/>
<path d="M69.7988 69.246C69.7331 69.2717 69.7167 69.2857 69.6979 69.2857C68.9494 69.323 68.9447 69.323 68.94 68.5921C68.9353 67.4104 68.9377 66.2287 68.9377 65.0471C68.9377 64.6477 69.0597 64.5683 69.4257 64.7411C69.5618 64.8065 69.6791 64.9116 69.834 65.0214C69.8833 64.991 69.9631 64.956 70.0217 64.8999C70.3596 64.5707 70.7679 64.5333 71.1903 64.6594C71.31 64.6944 71.4695 64.8579 71.4742 64.9653C71.4812 65.1732 71.3944 65.388 71.3311 65.5935C71.324 65.6145 71.1903 65.6075 71.1199 65.5935C71.026 65.5702 70.9416 65.5188 70.8477 65.4931C70.2423 65.3296 69.8317 65.6052 69.8129 66.2264C69.7894 66.9807 69.8012 67.7374 69.7988 68.4917C69.7988 68.7415 69.7988 68.9914 69.7988 69.246Z" fill="white"/>
<path d="M19.4785 79.853C19.7085 79.2552 20.0206 78.7134 20.4781 78.2743C21.3932 77.3916 22.4726 76.8731 23.7702 76.8778C23.904 76.8778 24.0448 76.8965 24.1715 76.9409C24.2466 76.9689 24.3357 77.06 24.3428 77.1324C24.3498 77.2048 24.2841 77.3122 24.2184 77.3589C24.1269 77.4243 24.0072 77.457 23.8946 77.4827C22.3459 77.8236 21.0366 78.6223 19.8117 79.5798C19.6991 79.6685 19.5911 79.7619 19.4832 79.853H19.4785Z" fill="white"/>
<path d="M51.7449 79.818C50.6538 78.5055 49.3304 77.527 47.7442 76.8988C47.6198 76.8498 47.4837 76.7984 47.3852 76.7143C47.3077 76.649 47.2303 76.5158 47.2467 76.4318C47.2608 76.3664 47.418 76.2893 47.5142 76.2846C48.3238 76.2473 49.0559 76.5205 49.7105 76.9502C50.6961 77.5971 51.4211 78.4635 51.7215 79.6288C51.7379 79.6942 51.7379 79.7619 51.7449 79.818Z" fill="white"/>
<path d="M51.5855 69.6757C50.9848 69.6593 50.377 69.6523 49.774 69.6243C48.7486 69.5799 47.7607 69.7691 46.7846 70.0587C46.6367 70.103 46.4819 70.1451 46.3294 70.1474C46.2191 70.1497 46.1064 70.0867 45.9962 70.054C46.0478 69.9255 46.0619 69.734 46.1557 69.6803C46.5851 69.4375 47.0169 69.1736 47.4815 69.0288C48.9222 68.5851 50.2667 68.9214 51.5479 69.6266C51.569 69.6383 51.5808 69.6687 51.5831 69.6757H51.5855Z" fill="white"/>
<path d="M36.6642 59.0126C38.058 60.3811 38.6704 62.2587 37.9266 64.1269C37.8656 64.2787 37.7271 64.4165 37.5934 64.5146C37.4714 64.6033 37.3681 64.5169 37.3611 64.3675C37.3541 64.225 37.3564 64.0802 37.3705 63.9354C37.5253 62.3311 37.3071 60.7757 36.7416 59.2648C36.7158 59.1971 36.6994 59.1247 36.6642 59.0079V59.0126Z" fill="white"/>
<path d="M27.1187 69.2577C26.9075 69.1175 26.6729 69.0054 26.4922 68.8326C25.7718 68.139 25.3072 67.2983 25.3307 66.2895C25.3448 65.722 25.5161 65.1521 25.6498 64.5917C25.7108 64.3371 25.8586 64.1036 25.9525 63.8957C26.0393 64.7902 26.037 65.7243 26.2411 66.6117C26.4429 67.4968 26.8489 68.3329 27.1656 69.1923C27.1492 69.2133 27.1328 69.2343 27.1164 69.2553L27.1187 69.2577Z" fill="white"/>
<path d="M34.6603 59.8369C33.6302 60.8948 33.128 62.1676 33.0013 63.5992C32.9708 63.9354 32.9849 64.2741 32.9591 64.6103C32.952 64.7131 32.8863 64.8112 32.8464 64.9139C32.8136 64.9139 32.7784 64.9139 32.7455 64.9163C32.6751 64.6524 32.5508 64.3908 32.5437 64.1269C32.525 63.4614 32.5203 62.7911 32.5789 62.1302C32.6353 61.5067 32.9708 60.9813 33.3767 60.5095C33.7123 60.1195 34.1652 59.935 34.6603 59.8369Z" fill="white"/>
</svg>
