<svg width="163" height="226" viewBox="0 0 163 226" fill="none" xmlns="http://www.w3.org/2000/svg">
<g clip-path="url(#clip0_313_10843)">
<path d="M81.0361 164.339L162.122 117.258V50.8892L81.0361 95.1237V164.339Z" fill="#ABB8D6"/>
<path d="M81.036 95.1236L38.7148 60.524L0 50.9387V117.274L10.8191 123.548L14.6889 120.85L64.1734 149.622V154.572L81.036 164.339V95.1236Z" fill="url(#paint0_linear_313_10843)"/>
<path d="M0 48.0253L38.0067 58.4549L119.059 11.3895L81.036 0.943359L0 48.0253Z" fill="#3AB1C9"/>
<path d="M38.0063 58.4548L119.059 11.3894L162.121 48.0584L81.0356 95.1238L38.0063 58.4548Z" fill="#3ADCC9"/>
<path d="M14.6887 120.85L64.1732 149.622V103.683L14.6887 74.96V120.85Z" fill="#D2D2D2"/>
<path d="M138.392 72.344L121.579 82.1114V90.455L138.392 80.6876V72.344Z" fill="#B6B6B6"/>
<path d="M138.392 81.7472L135.362 80.4229L121.579 88.4354V91.5477L138.392 81.7472Z" fill="#E1E1E1"/>
<path d="M138.392 81.7471L135.362 80.4228V74.1154L138.392 72.344V81.7471Z" fill="#909090"/>
<path d="M15.0674 79.0321L10.8188 76.5654V127.438L15.0674 124.988V79.0321Z" fill="url(#paint1_linear_313_10843)"/>
<path d="M36.2283 82.145C36.2283 82.145 34.2357 83.0555 33.2642 86.7142C33.3959 86.8135 33.5441 86.9128 33.7088 86.9956C37.0681 88.8497 39.1595 87.9723 39.1595 87.9723C39.2089 84.9097 38.3855 83.2045 36.2118 82.145H36.2283Z" fill="#4D4D4D"/>
<path d="M36.2283 82.1448C33.1325 80.6384 32.1938 83.999 32.1938 83.999C32.1938 83.999 31.6669 85.5386 33.2807 86.714C34.2358 83.0719 36.2448 82.1448 36.2448 82.1448H36.2283Z" fill="#707070"/>
<path d="M0 48.0254V51.0549L37.9408 62.1798L81.036 98.1203V95.1239L38.0067 58.4549L0 48.0254Z" fill="#D2D2D2"/>
<path d="M81.0361 95.1235V98.1199L162.122 51.038V48.0581L81.0361 95.1235Z" fill="#A9A9A9"/>
<path d="M81.0361 164.339V159.423L162.122 112.357V117.257L81.0361 164.339Z" fill="#A9A9A9"/>
<path d="M81.0364 159.423V164.339L64.1738 154.572V149.622L81.0364 159.423Z" fill="#D2D2D2"/>
<path d="M10.8191 127.439V122.522L0 116.231V121.165L10.8191 127.439Z" fill="#D2D2D2"/>
<path d="M15.0674 120.072L10.8188 122.522V127.439L15.0674 124.989V120.072Z" fill="#A9A9A9"/>
<path d="M15.0676 77.7742V78.635L64.1734 107.159V106.282L15.0676 77.7742Z" fill="#A9A9A9"/>
<path d="M15.0676 80.9031V81.7474L64.1734 110.271V109.411L15.0676 80.9031Z" fill="#A9A9A9"/>
<path d="M15.0676 84.1975V85.0418L64.1734 113.566V112.705L15.0676 84.1975Z" fill="#A9A9A9"/>
<path d="M15.0676 87.3101V88.1709L64.1734 116.695V115.834L15.0676 87.3101Z" fill="#A9A9A9"/>
<path d="M15.0676 90.5215V91.3823L64.1734 119.906V119.045L15.0676 90.5215Z" fill="#A9A9A9"/>
<path d="M15.0676 93.6504V94.5112L64.1734 123.035V122.158L15.0676 93.6504Z" fill="#A9A9A9"/>
<path d="M15.0676 96.9448V97.8057L64.1734 126.33V125.452L15.0676 96.9448Z" fill="#A9A9A9"/>
<path d="M15.0676 100.073V100.918L64.1734 129.442V128.581L15.0676 100.073Z" fill="#A9A9A9"/>
<path d="M15.0676 103.136V103.981L64.1734 132.505V131.644L15.0676 103.136Z" fill="#A9A9A9"/>
<path d="M15.0676 106.249V107.109L64.1734 135.633V134.773L15.0676 106.249Z" fill="#A9A9A9"/>
<path d="M15.0676 109.56V110.404L64.1734 138.928V138.067L15.0676 109.56Z" fill="#A9A9A9"/>
<path d="M15.0676 112.672V113.533L64.1734 142.057V141.179L15.0676 112.672Z" fill="#A9A9A9"/>
<path d="M15.0676 115.801V116.645L64.1734 145.169V144.308L15.0676 115.801Z" fill="#A9A9A9"/>
<path d="M15.0676 118.946V119.79L64.1734 148.314V147.453L15.0676 118.946Z" fill="#A9A9A9"/>
<path d="M40.6078 56.9484L2.60107 46.5023L3.72086 45.8567L41.7111 56.3028L40.6078 56.9484Z" fill="#707070"/>
<path d="M44.5106 54.6801L6.50391 44.234L7.62369 43.5884L45.6139 54.0345L44.5106 54.6801Z" fill="#707070"/>
<path d="M48.413 52.4123L10.4062 41.9662L11.526 41.3206L49.5163 51.7667L48.413 52.4123Z" fill="#707070"/>
<path d="M52.2989 50.1608L14.2922 39.7147L15.3956 39.0691L53.3858 49.5152L52.2989 50.1608Z" fill="#707070"/>
<path d="M56.2028 47.8926L18.196 37.463L19.2994 36.8174L57.2896 47.2469L56.2028 47.8926Z" fill="#707070"/>
<path d="M60.089 45.6247L22.0823 35.1952L23.2021 34.5496L61.1758 44.9957L60.089 45.6247Z" fill="#707070"/>
<path d="M63.9916 43.3735L25.9849 32.9274L27.0882 32.2817L65.0784 42.7278L63.9916 43.3735Z" fill="#707070"/>
<path d="M67.8781 41.105L29.8713 30.6754L30.9911 30.0298L68.9649 40.4593L67.8781 41.105Z" fill="#707070"/>
<path d="M71.7809 38.8374L33.7742 28.4078L34.8775 27.7622L72.8677 38.2083L71.7809 38.8374Z" fill="#707070"/>
<path d="M75.6671 36.5859L37.6604 26.1398L38.7802 25.4941L76.7704 35.9402L75.6671 36.5859Z" fill="#707070"/>
<path d="M79.5527 34.3179L41.5625 23.8883L42.6658 23.2427L80.6561 33.6722L79.5527 34.3179Z" fill="#707070"/>
<path d="M83.4566 32.0498L45.4663 21.6203L46.5696 20.9746L84.5599 31.4207L83.4566 32.0498Z" fill="#707070"/>
<path d="M87.3593 29.7983L49.3525 19.3522L50.4559 18.7065L88.4461 29.1526L87.3593 29.7983Z" fill="#707070"/>
<path d="M91.2618 27.5303L53.2551 17.1007L54.3584 16.4551L92.3487 26.8846L91.2618 27.5303Z" fill="#707070"/>
<path d="M95.1478 25.2622L57.1411 14.8326L58.2444 14.187L96.2347 24.6331L95.1478 25.2622Z" fill="#707070"/>
<path d="M99.0509 23.0107L61.0442 12.5812L62.1475 11.9355L100.138 22.3817L99.0509 23.0107Z" fill="#707070"/>
<path d="M102.937 20.7429L64.9302 10.3134L66.0335 9.66772L104.024 20.1138L102.937 20.7429Z" fill="#707070"/>
<path d="M106.839 18.4751L68.8325 8.04554L69.9358 7.3999L107.926 17.846L106.839 18.4751Z" fill="#707070"/>
<path d="M110.725 16.2231L72.7188 5.79359L73.8221 5.14795L111.812 15.5941L110.725 16.2231Z" fill="#707070"/>
<path d="M114.613 13.9553L76.6226 3.52577L77.7259 2.88013L115.716 13.3262L114.613 13.9553Z" fill="#707070"/>
<path d="M40.6084 56.9316L83.6377 93.6006L84.741 92.9715L41.7117 56.3025L40.6084 56.9316Z" fill="#707070"/>
<path d="M44.5112 54.6803L87.5405 91.3493L88.6273 90.7202L45.5981 54.0347L44.5112 54.6803Z" fill="#707070"/>
<path d="M48.3972 52.4125L91.4265 89.0815L92.5298 88.4524L49.5005 51.7834L48.3972 52.4125Z" fill="#707070"/>
<path d="M52.2998 50.161L95.3291 86.83L96.4159 86.1844L53.3866 49.5154L52.2998 50.161Z" fill="#707070"/>
<path d="M56.187 47.8928L99.2327 84.5617L100.32 83.9326L57.2903 47.2637L56.187 47.8928Z" fill="#707070"/>
<path d="M60.0896 45.6249L103.119 82.2939L104.206 81.6648L61.1929 44.9958L60.0896 45.6249Z" fill="#707070"/>
<path d="M63.9919 43.3734L107.021 80.0424L108.108 79.4133L65.0788 42.7278L63.9919 43.3734Z" fill="#707070"/>
<path d="M67.8784 41.1054L110.908 77.7744L112.011 77.1453L68.9817 40.4763L67.8784 41.1054Z" fill="#707070"/>
<path d="M71.781 38.8373L114.81 75.5063L115.897 74.8772L72.8679 38.2083L71.781 38.8373Z" fill="#707070"/>
<path d="M75.6677 36.5858L118.697 73.2548L119.8 72.6257L76.771 35.9402L75.6677 36.5858Z" fill="#707070"/>
<path d="M79.5696 34.3181L122.599 70.987L123.686 70.3579L80.6564 33.689L79.5696 34.3181Z" fill="#707070"/>
<path d="M83.4573 32.0663L126.503 68.7353L127.59 68.0896L84.5606 31.4207L83.4573 32.0663Z" fill="#707070"/>
<path d="M87.3599 29.7985L130.389 66.4675L131.476 65.8384L88.4467 29.1694L87.3599 29.7985Z" fill="#707070"/>
<path d="M91.2622 27.5305L134.291 64.1994L135.378 63.5703L92.3491 26.9014L91.2622 27.5305Z" fill="#707070"/>
<path d="M95.1484 25.2789L138.178 61.9479L139.265 61.3188L96.2518 24.6333L95.1484 25.2789Z" fill="#707070"/>
<path d="M99.0513 23.0109L142.081 59.6799L143.167 59.0508L100.138 22.3818L99.0513 23.0109Z" fill="#707070"/>
<path d="M102.937 20.7597L145.967 57.4286L147.07 56.783L104.041 20.114L102.937 20.7597Z" fill="#707070"/>
<path d="M106.84 18.4914L149.869 55.1604L150.972 54.5313L107.926 17.8623L106.84 18.4914Z" fill="#707070"/>
<path d="M110.726 16.2233L153.772 52.8922L154.875 52.2632L111.829 15.5776L110.726 16.2233Z" fill="#707070"/>
<path d="M114.63 13.9555L157.675 50.641L158.762 50.0119L115.716 13.3264L114.63 13.9555Z" fill="#707070"/>
<path d="M20.3543 209.962C20.3543 210.817 20.1482 211.619 19.736 212.367C19.339 213.115 18.7055 213.718 17.8353 214.176C16.9803 214.634 15.8964 214.863 14.5835 214.863H11.9042V221H8.69816V205.016H14.5835C15.8201 205.016 16.8735 205.23 17.7437 205.657C18.6139 206.085 19.2627 206.672 19.6902 207.421C20.1329 208.169 20.3543 209.016 20.3543 209.962ZM14.4461 212.275C15.3315 212.275 15.988 212.077 16.4155 211.68C16.8429 211.268 17.0567 210.695 17.0567 209.962C17.0567 208.405 16.1865 207.627 14.4461 207.627H11.9042V212.275H14.4461ZM25.8365 210.283C26.2487 209.611 26.783 209.085 27.4395 208.703C28.1112 208.321 28.8746 208.13 29.7295 208.13V211.497H28.8822C27.8746 211.497 27.1113 211.733 26.5922 212.207C26.0884 212.68 25.8365 213.504 25.8365 214.68V221H22.6305V208.314H25.8365V210.283ZM37.5223 221.206C36.301 221.206 35.2018 220.939 34.2247 220.405C33.2476 219.855 32.4767 219.084 31.9118 218.092C31.3622 217.1 31.0874 215.955 31.0874 214.657C31.0874 213.359 31.3698 212.214 31.9347 211.222C32.5148 210.23 33.3011 209.466 34.2934 208.932C35.2857 208.382 36.3926 208.108 37.6139 208.108C38.8352 208.108 39.9421 208.382 40.9344 208.932C41.9267 209.466 42.7053 210.23 43.2702 211.222C43.8503 212.214 44.1404 213.359 44.1404 214.657C44.1404 215.955 43.8427 217.1 43.2473 218.092C42.6672 219.084 41.8733 219.855 40.8657 220.405C39.8734 220.939 38.7589 221.206 37.5223 221.206ZM37.5223 218.413C38.1024 218.413 38.6444 218.275 39.1482 218C39.6673 217.71 40.0795 217.283 40.3848 216.718C40.6901 216.153 40.8428 215.466 40.8428 214.657C40.8428 213.451 40.5222 212.527 39.881 211.886C39.2551 211.23 38.4841 210.901 37.5681 210.901C36.6521 210.901 35.8811 211.23 35.2552 211.886C34.6445 212.527 34.3392 213.451 34.3392 214.657C34.3392 215.863 34.6369 216.794 35.2323 217.451C35.843 218.092 36.6063 218.413 37.5223 218.413ZM51.782 218.046L54.988 208.314H58.4001L53.7056 221H49.8126L45.141 208.314H48.576L51.782 218.046ZM71.9943 214.382C71.9943 214.84 71.9638 215.252 71.9027 215.619H62.6282C62.7045 216.535 63.0251 217.252 63.59 217.771C64.1549 218.29 64.8495 218.55 65.6739 218.55C66.8647 218.55 67.712 218.039 68.2158 217.016H71.6737C71.3073 218.237 70.605 219.245 69.5669 220.038C68.5288 220.817 67.254 221.206 65.7426 221.206C64.5213 221.206 63.4221 220.939 62.445 220.405C61.4832 219.855 60.7275 219.084 60.1779 218.092C59.6436 217.1 59.3764 215.955 59.3764 214.657C59.3764 213.344 59.6436 212.191 60.1779 211.199C60.7122 210.207 61.4603 209.443 62.4221 208.909C63.3839 208.375 64.4907 208.108 65.7426 208.108C66.9487 208.108 68.025 208.367 68.9715 208.886C69.9333 209.405 70.6737 210.146 71.1928 211.107C71.7271 212.054 71.9943 213.146 71.9943 214.382ZM68.6738 213.466C68.6585 212.642 68.3608 211.985 67.7807 211.497C67.2006 210.993 66.4907 210.741 65.651 210.741C64.8571 210.741 64.1854 210.985 63.6358 211.474C63.1015 211.947 62.7732 212.611 62.6511 213.466H68.6738ZM86.1279 214.382C86.1279 214.84 86.0974 215.252 86.0363 215.619H76.7618C76.8381 216.535 77.1587 217.252 77.7236 217.771C78.2885 218.29 78.9831 218.55 79.8075 218.55C80.9983 218.55 81.8456 218.039 82.3494 217.016H85.8073C85.4409 218.237 84.7386 219.245 83.7005 220.038C82.6624 220.817 81.3876 221.206 79.8762 221.206C78.6549 221.206 77.5557 220.939 76.5786 220.405C75.6168 219.855 74.8611 219.084 74.3115 218.092C73.7772 217.1 73.51 215.955 73.51 214.657C73.51 213.344 73.7772 212.191 74.3115 211.199C74.8458 210.207 75.5939 209.443 76.5557 208.909C77.5175 208.375 78.6243 208.108 79.8762 208.108C81.0823 208.108 82.1586 208.367 83.1051 208.886C84.0669 209.405 84.8073 210.146 85.3264 211.107C85.8607 212.054 86.1279 213.146 86.1279 214.382ZM82.8074 213.466C82.7921 212.642 82.4944 211.985 81.9143 211.497C81.3342 210.993 80.6243 210.741 79.7846 210.741C78.9907 210.741 78.319 210.985 77.7694 211.474C77.2351 211.947 76.9068 212.611 76.7847 213.466H82.8074ZM87.6436 214.611C87.6436 213.329 87.8955 212.191 88.3993 211.199C88.9184 210.207 89.6206 209.443 90.5061 208.909C91.3916 208.375 92.3763 208.108 93.4602 208.108C94.2846 208.108 95.0708 208.291 95.8189 208.657C96.567 209.008 97.1624 209.482 97.6051 210.077V204.054H100.857V221H97.6051V219.122C97.2082 219.748 96.6509 220.252 95.9334 220.634C95.2159 221.016 94.3838 221.206 93.4373 221.206C92.3686 221.206 91.3916 220.932 90.5061 220.382C89.6206 219.832 88.9184 219.061 88.3993 218.069C87.8955 217.061 87.6436 215.909 87.6436 214.611ZM97.628 214.657C97.628 213.878 97.4753 213.214 97.17 212.665C96.8647 212.1 96.4525 211.672 95.9334 211.382C95.4143 211.077 94.8571 210.924 94.2617 210.924C93.6663 210.924 93.1167 211.069 92.6129 211.359C92.1091 211.649 91.6969 212.077 91.3763 212.642C91.071 213.191 90.9183 213.848 90.9183 214.611C90.9183 215.374 91.071 216.046 91.3763 216.626C91.6969 217.191 92.1091 217.626 92.6129 217.932C93.132 218.237 93.6816 218.39 94.2617 218.39C94.8571 218.39 95.4143 218.245 95.9334 217.955C96.4525 217.649 96.8647 217.222 97.17 216.672C97.4753 216.107 97.628 215.436 97.628 214.657ZM109.622 221.206C108.4 221.206 107.301 220.939 106.324 220.405C105.347 219.855 104.576 219.084 104.011 218.092C103.461 217.1 103.187 215.955 103.187 214.657C103.187 213.359 103.469 212.214 104.034 211.222C104.614 210.23 105.4 209.466 106.393 208.932C107.385 208.382 108.492 208.108 109.713 208.108C110.934 208.108 112.041 208.382 113.034 208.932C114.026 209.466 114.805 210.23 115.369 211.222C115.95 212.214 116.24 213.359 116.24 214.657C116.24 215.955 115.942 217.1 115.347 218.092C114.766 219.084 113.973 219.855 112.965 220.405C111.973 220.939 110.858 221.206 109.622 221.206ZM109.622 218.413C110.202 218.413 110.744 218.275 111.247 218C111.766 217.71 112.179 217.283 112.484 216.718C112.789 216.153 112.942 215.466 112.942 214.657C112.942 213.451 112.621 212.527 111.98 211.886C111.354 211.23 110.583 210.901 109.667 210.901C108.751 210.901 107.98 211.23 107.354 211.886C106.744 212.527 106.438 213.451 106.438 214.657C106.438 215.863 106.736 216.794 107.332 217.451C107.942 218.092 108.706 218.413 109.622 218.413ZM121.797 210.283C122.21 209.611 122.744 209.085 123.4 208.703C124.072 208.321 124.835 208.13 125.69 208.13V211.497H124.843C123.835 211.497 123.072 211.733 122.553 212.207C122.049 212.68 121.797 213.504 121.797 214.68V221H118.591V208.314H121.797V210.283ZM139.643 214.382C139.643 214.84 139.613 215.252 139.552 215.619H130.277C130.353 216.535 130.674 217.252 131.239 217.771C131.804 218.29 132.498 218.55 133.323 218.55C134.514 218.55 135.361 218.039 135.865 217.016H139.323C138.956 218.237 138.254 219.245 137.216 220.038C136.178 220.817 134.903 221.206 133.392 221.206C132.17 221.206 131.071 220.939 130.094 220.405C129.132 219.855 128.376 219.084 127.827 218.092C127.292 217.1 127.025 215.955 127.025 214.657C127.025 213.344 127.292 212.191 127.827 211.199C128.361 210.207 129.109 209.443 130.071 208.909C131.033 208.375 132.14 208.108 133.392 208.108C134.598 208.108 135.674 208.367 136.62 208.886C137.582 209.405 138.323 210.146 138.842 211.107C139.376 212.054 139.643 213.146 139.643 214.382ZM136.323 213.466C136.307 212.642 136.01 211.985 135.43 211.497C134.849 210.993 134.14 210.741 133.3 210.741C132.506 210.741 131.834 210.985 131.285 211.474C130.75 211.947 130.422 212.611 130.3 213.466H136.323ZM146.838 221.206C145.8 221.206 144.869 221.023 144.044 220.657C143.22 220.275 142.563 219.764 142.075 219.122C141.602 218.481 141.342 217.771 141.296 216.993H144.525C144.586 217.481 144.823 217.886 145.235 218.206C145.663 218.527 146.189 218.687 146.815 218.687C147.426 218.687 147.899 218.565 148.235 218.321C148.586 218.077 148.762 217.764 148.762 217.382C148.762 216.97 148.548 216.665 148.121 216.466C147.708 216.252 147.044 216.023 146.128 215.779C145.182 215.55 144.403 215.313 143.792 215.069C143.197 214.825 142.678 214.451 142.235 213.947C141.808 213.443 141.594 212.764 141.594 211.909C141.594 211.207 141.792 210.565 142.189 209.985C142.602 209.405 143.182 208.947 143.93 208.611C144.693 208.275 145.586 208.108 146.609 208.108C148.121 208.108 149.327 208.489 150.227 209.253C151.128 210.001 151.624 211.016 151.716 212.298H148.647C148.601 211.794 148.388 211.398 148.006 211.107C147.64 210.802 147.143 210.649 146.518 210.649C145.937 210.649 145.487 210.756 145.166 210.97C144.861 211.184 144.708 211.481 144.708 211.863C144.708 212.291 144.922 212.619 145.35 212.848C145.777 213.062 146.441 213.283 147.342 213.512C148.258 213.741 149.014 213.978 149.609 214.222C150.204 214.466 150.716 214.848 151.143 215.367C151.586 215.871 151.815 216.542 151.83 217.382C151.83 218.115 151.624 218.771 151.212 219.351C150.815 219.932 150.235 220.39 149.472 220.725C148.724 221.046 147.846 221.206 146.838 221.206Z" fill="white"/>
</g>
<defs>
<linearGradient id="paint0_linear_313_10843" x1="43.2433" y1="48.0582" x2="39.4822" y2="129.423" gradientUnits="userSpaceOnUse">
<stop stop-color="#FDFDFD"/>
<stop offset="1" stop-color="#BAC6EB"/>
</linearGradient>
<linearGradient id="paint1_linear_313_10843" x1="13.7665" y1="69.8111" x2="13.65" y2="74.0822" gradientUnits="userSpaceOnUse">
<stop stop-color="#FDFDFD"/>
<stop offset="1" stop-color="#BAC6EB"/>
</linearGradient>
<clipPath id="clip0_313_10843">
<rect width="162.122" height="225.057" fill="white" transform="translate(0 0.943359)"/>
</clipPath>
</defs>
</svg>
