<svg width="150" height="150" viewBox="0 0 150 150" fill="none" xmlns="http://www.w3.org/2000/svg">
<rect width="150" height="150" rx="22.1192" fill="#1E266A"/>
<path d="M57.314 123L54.696 118.376H53.574V123H51.194V111.134H55.648C56.566 111.134 57.348 111.298 57.994 111.627C58.64 111.944 59.1217 112.381 59.439 112.936C59.7677 113.48 59.932 114.092 59.932 114.772C59.932 115.554 59.7053 116.262 59.252 116.897C58.7987 117.52 58.1243 117.951 57.229 118.189L60.068 123H57.314ZM53.574 116.591H55.563C56.209 116.591 56.6907 116.438 57.008 116.132C57.3253 115.815 57.484 115.378 57.484 114.823C57.484 114.279 57.3253 113.86 57.008 113.565C56.6907 113.259 56.209 113.106 55.563 113.106H53.574V116.591ZM70.8396 118.087C70.8396 118.427 70.817 118.733 70.7716 119.005H63.8866C63.9433 119.685 64.1813 120.218 64.6006 120.603C65.02 120.988 65.5356 121.181 66.1476 121.181C67.0316 121.181 67.6606 120.801 68.0346 120.042H70.6016C70.3296 120.949 69.8083 121.697 69.0376 122.286C68.267 122.864 67.3206 123.153 66.1986 123.153C65.292 123.153 64.476 122.955 63.7506 122.558C63.0366 122.15 62.4756 121.578 62.0676 120.841C61.671 120.104 61.4726 119.254 61.4726 118.291C61.4726 117.316 61.671 116.461 62.0676 115.724C62.4643 114.987 63.0196 114.421 63.7336 114.024C64.4476 113.627 65.2693 113.429 66.1986 113.429C67.094 113.429 67.893 113.622 68.5956 114.007C69.3096 114.392 69.8593 114.942 70.2446 115.656C70.6413 116.359 70.8396 117.169 70.8396 118.087ZM68.3746 117.407C68.3633 116.795 68.1423 116.308 67.7116 115.945C67.281 115.571 66.754 115.384 66.1306 115.384C65.5413 115.384 65.0426 115.565 64.6346 115.928C64.238 116.279 63.9943 116.772 63.9036 117.407H68.3746ZM75.3478 115.537V120.093C75.3478 120.41 75.4215 120.643 75.5688 120.79C75.7275 120.926 75.9881 120.994 76.3508 120.994H77.4558V123H75.9598C73.9538 123 72.9508 122.025 72.9508 120.076V115.537H71.8288V113.582H72.9508V111.253H75.3478V113.582H77.4558V115.537H75.3478ZM78.5556 118.257C78.5556 117.305 78.7426 116.461 79.1166 115.724C79.502 114.987 80.0176 114.421 80.6636 114.024C81.321 113.627 82.052 113.429 82.8566 113.429C83.5593 113.429 84.1713 113.571 84.6926 113.854C85.2253 114.137 85.6503 114.494 85.9676 114.925V113.582H88.3646V123H85.9676V121.623C85.6616 122.065 85.2366 122.433 84.6926 122.728C84.16 123.011 83.5423 123.153 82.8396 123.153C82.0463 123.153 81.321 122.949 80.6636 122.541C80.0176 122.133 79.502 121.561 79.1166 120.824C78.7426 120.076 78.5556 119.22 78.5556 118.257ZM85.9676 118.291C85.9676 117.713 85.8543 117.22 85.6276 116.812C85.401 116.393 85.095 116.075 84.7096 115.86C84.3243 115.633 83.9106 115.52 83.4686 115.52C83.0266 115.52 82.6186 115.628 82.2446 115.843C81.8706 116.058 81.5646 116.376 81.3266 116.795C81.1 117.203 80.9866 117.69 80.9866 118.257C80.9866 118.824 81.1 119.322 81.3266 119.753C81.5646 120.172 81.8706 120.495 82.2446 120.722C82.63 120.949 83.038 121.062 83.4686 121.062C83.9106 121.062 84.3243 120.954 84.7096 120.739C85.095 120.512 85.401 120.195 85.6276 119.787C85.8543 119.368 85.9676 118.869 85.9676 118.291ZM91.8961 112.46C91.4768 112.46 91.1254 112.33 90.8421 112.069C90.5701 111.797 90.4341 111.463 90.4341 111.066C90.4341 110.669 90.5701 110.341 90.8421 110.08C91.1254 109.808 91.4768 109.672 91.8961 109.672C92.3154 109.672 92.6611 109.808 92.9331 110.08C93.2164 110.341 93.3581 110.669 93.3581 111.066C93.3581 111.463 93.2164 111.797 92.9331 112.069C92.6611 112.33 92.3154 112.46 91.8961 112.46ZM93.0691 113.582V123H90.6891V113.582H93.0691ZM97.8006 110.42V123H95.4206V110.42H97.8006Z" fill="#3ADCC9"/>
<g filter="url(#filter0_d_270_31655)">
<path d="M80.625 85.3958H69.375C59.0834 85.3958 54.7084 81 54.7084 70.7292V61.375C54.7084 60.5208 55.4167 59.8125 56.2709 59.8125C57.125 59.8125 57.8334 60.5208 57.8334 61.375V70.7292C57.8334 79.25 60.8542 82.2708 69.375 82.2708H80.6042C89.125 82.2708 92.1459 79.25 92.1459 70.7292V61.375C92.1459 60.5208 92.8542 59.8125 93.7084 59.8125C94.5625 59.8125 95.2709 60.5208 95.2709 61.375V70.7292C95.2917 81 90.8959 85.3958 80.625 85.3958Z" fill="#3ADCC9"/>
<path d="M75 64.5625C72.7084 64.5625 70.625 63.6667 69.1459 62.0208C67.6667 60.375 66.9792 58.2292 67.2084 55.9375L68.6042 42.0208C68.6875 41.2292 69.3542 40.6042 70.1667 40.6042H79.8959C80.7084 40.6042 81.375 41.2083 81.4584 42.0208L82.8542 55.9375C83.0834 58.2292 82.3959 60.375 80.9167 62.0208C79.375 63.6667 77.2917 64.5625 75 64.5625ZM71.5625 43.7292L70.3125 56.25C70.1667 57.6458 70.5834 58.9583 71.4584 59.9167C73.2292 61.875 76.7709 61.875 78.5417 59.9167C79.4167 58.9375 79.8334 57.625 79.6875 56.25L78.4375 43.7292H71.5625Z" fill="#3ADCC9"/>
<path d="M88.1459 64.5625C83.9167 64.5625 80.1459 61.1458 79.7084 56.9375L78.25 42.3333C78.2084 41.8958 78.3542 41.4583 78.6459 41.125C78.9375 40.7917 79.3542 40.6042 79.8125 40.6042H86.1667C92.2917 40.6042 95.1459 43.1667 96 49.4583L96.5834 55.25C96.8334 57.7083 96.0834 60.0417 94.4792 61.8125C92.875 63.5833 90.625 64.5625 88.1459 64.5625ZM81.5417 43.7292L82.8334 56.625C83.1042 59.2292 85.5209 61.4375 88.1459 61.4375C89.7292 61.4375 91.1459 60.8333 92.1667 59.7292C93.1667 58.625 93.625 57.1458 93.4792 55.5625L92.8959 49.8333C92.25 45.125 90.7292 43.7292 86.1667 43.7292H81.5417V43.7292Z" fill="#3ADCC9"/>
<path d="M61.75 64.5625C59.2709 64.5625 57.0209 63.5833 55.4167 61.8125C53.8125 60.0417 53.0625 57.7083 53.3125 55.25L53.875 49.5208C54.75 43.1667 57.6042 40.6042 63.7292 40.6042H70.0834C70.5209 40.6042 70.9375 40.7917 71.25 41.125C71.5625 41.4583 71.6875 41.8958 71.6459 42.3333L70.1875 56.9375C69.75 61.1458 65.9792 64.5625 61.75 64.5625ZM63.7292 43.7292C59.1667 43.7292 57.6459 45.1042 56.9792 49.875L56.4167 55.5625C56.25 57.1458 56.7292 58.625 57.7292 59.7292C58.7292 60.8333 60.1459 61.4375 61.75 61.4375C64.375 61.4375 66.8125 59.2292 67.0625 56.625L68.3542 43.7292H63.7292V43.7292Z" fill="#3ADCC9"/>
<path d="M80.2083 85.3958H69.7916C68.9375 85.3958 68.2291 84.6875 68.2291 83.8333V78.625C68.2291 74.25 70.625 71.8542 75 71.8542C79.375 71.8542 81.7708 74.25 81.7708 78.625V83.8333C81.7708 84.6875 81.0625 85.3958 80.2083 85.3958ZM71.3541 82.2708H78.6458V78.625C78.6458 76 77.625 74.9792 75 74.9792C72.375 74.9792 71.3541 76 71.3541 78.625V82.2708Z" fill="#3ADCC9"/>
</g>
<defs>
<filter id="filter0_d_270_31655" x="49.2654" y="40.6042" width="51.3651" height="52.7917" filterUnits="userSpaceOnUse" color-interpolation-filters="sRGB">
<feFlood flood-opacity="0" result="BackgroundImageFix"/>
<feColorMatrix in="SourceAlpha" type="matrix" values="0 0 0 0 0 0 0 0 0 0 0 0 0 0 0 0 0 0 127 0" result="hardAlpha"/>
<feOffset dy="4"/>
<feGaussianBlur stdDeviation="2"/>
<feComposite in2="hardAlpha" operator="out"/>
<feColorMatrix type="matrix" values="0 0 0 0 0 0 0 0 0 0 0 0 0 0 0 0 0 0 0.25 0"/>
<feBlend mode="normal" in2="BackgroundImageFix" result="effect1_dropShadow_270_31655"/>
<feBlend mode="normal" in="SourceGraphic" in2="effect1_dropShadow_270_31655" result="shape"/>
</filter>
</defs>
</svg>
