<svg width="150" height="150" viewBox="0 0 150 150" fill="none" xmlns="http://www.w3.org/2000/svg">
<path d="M60.2001 92.3726C60.0834 92.3487 59.9676 92.3092 59.8499 92.304C59.0751 92.2666 58.3106 92.1659 57.5564 91.9799C56.5068 91.7202 55.514 91.3223 54.5646 90.8029C53.8818 90.4289 53.2371 90.0061 52.6648 89.4763C52.6018 89.4181 52.5398 89.3589 52.4551 89.2789C53.3187 88.0417 54.1783 86.8086 55.0564 85.5506C55.1659 85.642 55.2558 85.7178 55.3467 85.7926C56.2186 86.5032 57.1504 87.1161 58.1794 87.5752C59.1216 87.996 60.1009 88.2037 61.1392 88.1331C62.0731 88.0687 62.9543 87.8412 63.7601 87.3612C63.9936 87.222 64.2105 87.0423 64.4037 86.8491C64.7384 86.5156 64.8769 86.0959 64.8376 85.6212C64.8293 85.5267 64.818 85.4321 64.8118 85.3376C64.7787 84.7839 64.5277 84.3528 64.0865 84.0266C63.7436 83.7731 63.3593 83.6038 62.9615 83.4583C62.2652 83.2049 61.5452 83.0387 60.8199 82.8901C59.7249 82.6647 58.6319 82.4257 57.5895 82.0123C56.5058 81.5822 55.4655 81.069 54.6297 80.2224C53.6049 79.1835 53.1214 77.9214 53.077 76.4711C53.0429 75.3731 53.2392 74.3197 53.6979 73.3276C54.3528 71.9117 55.4097 70.8812 56.8126 70.2132C57.8963 69.6969 59.0399 69.4092 60.2362 69.3219C62.2642 69.1733 64.2343 69.4299 66.1372 70.1602C66.9038 70.4542 67.6269 70.8303 68.2788 71.3362C68.3676 71.4048 68.4524 71.4775 68.5371 71.5502C68.5557 71.5658 68.567 71.5907 68.5929 71.6281C67.8408 72.8269 67.0866 74.0289 66.3232 75.2474C66.2736 75.2131 66.225 75.184 66.1816 75.1487C65.0917 74.2647 63.8541 73.7317 62.4615 73.5551C61.8789 73.4814 61.2972 73.4367 60.7125 73.47C60.1712 73.5011 59.635 73.5759 59.1236 73.7743C59.043 73.8055 58.9645 73.8387 58.886 73.8741C57.729 74.407 57.4996 75.4313 57.7476 76.3829C57.8591 76.8108 58.1112 77.1391 58.4748 77.3853C58.8571 77.645 59.2817 77.8133 59.7238 77.9266C60.6474 78.1634 61.5762 78.3847 62.5049 78.6008C63.6279 78.8625 64.7415 79.1524 65.7973 79.6313C66.5649 79.9793 67.256 80.4374 67.8625 81.0264C68.6063 81.7495 69.0257 82.6439 69.222 83.6474C69.4503 84.8088 69.4018 85.9744 69.1115 87.113C68.6807 88.8052 67.7974 90.1983 66.2612 91.1062C65.4234 91.6007 64.5173 91.9124 63.5679 92.1139C62.8035 92.276 62.0328 92.2947 61.2435 92.2843C61.3706 92.3165 61.4832 92.3456 61.5958 92.3736H60.2022L60.2001 92.3726Z" fill="white"/>
<path d="M138.38 82.6366H130.154C130.086 82.8776 130.077 87.3695 130.14 87.703C130.678 87.7466 131.225 87.7176 131.771 87.7228C132.313 87.7279 132.855 87.7238 133.397 87.7238H138.326C138.867 87.7238 139.408 87.7238 139.945 87.7238C140 87.8962 140.021 91.6225 139.974 92.0952C139.789 92.1523 125.554 92.1617 125.293 92.1025V69.5494H139.974V73.8429C139.877 73.8491 139.771 73.8626 139.665 73.8626C137.179 73.8637 134.692 73.8626 132.207 73.8626C131.605 73.8626 131.002 73.8626 130.4 73.8626C130.315 73.8626 130.231 73.8626 130.153 73.8626C130.087 74.0766 130.074 77.9369 130.136 78.2985C130.237 78.3047 130.345 78.3161 130.454 78.3161C132.991 78.3172 135.529 78.3172 138.066 78.3172C138.167 78.3172 138.267 78.3172 138.381 78.3172V82.6356L138.38 82.6366Z" fill="white"/>
<path d="M36.9546 69.5951C40.4836 77.0945 44.0116 84.5938 47.5519 92.1191C47.4672 92.1295 47.4032 92.144 47.3401 92.144C45.9723 92.1461 44.6045 92.144 43.2367 92.1482C43.0869 92.1482 43.0115 92.1046 42.9495 91.9591C42.6117 91.1665 42.2605 90.3791 41.9144 89.5895C41.7791 89.2821 41.6375 88.9766 41.5177 88.6629C41.4454 88.4738 41.3421 88.4053 41.1344 88.4105C40.4722 88.4261 39.81 88.4177 39.1478 88.4167C36.9628 88.4157 34.7779 88.4136 32.5929 88.4125C32.5505 88.4125 32.5082 88.4188 32.4534 88.4229C32.4193 88.4905 32.3811 88.5559 32.3512 88.6255C31.8687 89.7412 31.3852 90.8559 30.91 91.9747C30.8532 92.1077 30.784 92.1503 30.6414 92.1492C29.3077 92.143 27.975 92.1451 26.6413 92.1451C26.5494 92.1451 26.4574 92.1451 26.3892 92.1451C26.3603 92.1077 26.3531 92.1014 26.35 92.0931C26.3469 92.0859 26.3469 92.0755 26.35 92.0682C26.3706 92.0121 26.3903 91.955 26.4151 91.901C29.9089 84.4671 33.4028 77.0342 36.8967 69.6013C36.9163 69.5993 36.937 69.5972 36.9566 69.5951H36.9546ZM39.7522 84.6385C38.8089 82.4974 37.8874 80.4063 36.9577 78.2964C36.75 78.5831 34.188 84.385 34.1528 84.6385H39.7522Z" fill="white"/>
<path d="M106.989 87.7228V92.0952C106.762 92.1544 93.0749 92.1555 92.8486 92.0983V69.5494H97.6587C97.6793 70.2174 97.6649 70.8864 97.668 71.5554C97.6711 72.2285 97.668 72.9017 97.668 73.5749V85.6648C97.668 86.3369 97.668 87.008 97.668 87.7176C98.4572 87.73 99.2269 87.7228 99.9976 87.7238C100.771 87.7248 101.545 87.7238 102.32 87.7238H104.642C105.415 87.7238 106.188 87.7238 106.99 87.7238L106.989 87.7228Z" fill="white"/>
<path d="M109.066 69.5432H113.876C113.888 70.2205 113.879 70.8905 113.881 71.5585C113.883 72.2317 113.881 72.9048 113.881 73.578V85.669C113.881 86.3401 113.881 87.0101 113.881 87.7186C114.686 87.7196 115.457 87.7217 116.227 87.7228C117.001 87.7228 117.776 87.7228 118.55 87.7228H120.872C121.644 87.7228 122.415 87.7228 123.202 87.7228V92.0859C122.995 92.1513 109.32 92.1638 109.066 92.0983V69.5432Z" fill="white"/>
<path d="M10.0925 69.5432H14.8943C14.8995 69.6356 14.9088 69.7187 14.9088 69.8018C14.9088 75.61 14.9067 81.4191 14.9057 87.2272C14.9057 87.3799 14.9057 87.5327 14.9057 87.7165H24.1838C24.254 87.9544 24.2644 91.8262 24.2003 92.1233H10.0925V69.5432Z" fill="white"/>
<path d="M17.669 57.6921C17.9531 57.6921 18.2268 57.6921 18.5006 57.6921C18.6277 57.6921 18.668 57.7981 18.7227 57.8823C19.201 58.6094 19.6793 59.3366 20.1566 60.0638C20.7899 61.0289 21.4232 61.995 22.0575 62.9601C22.104 63.0307 22.1546 63.0972 22.228 63.1606C22.2714 62.8624 22.2548 62.5664 22.2579 62.2724C22.261 61.9701 22.2579 61.6688 22.259 61.3665C22.259 61.0559 22.259 60.7453 22.259 60.4347C22.259 60.1241 22.259 59.8311 22.259 59.5288C22.259 59.2265 22.259 58.9252 22.259 58.6229C22.259 58.3227 22.259 58.0235 22.259 57.7067H23.0606V64.564C22.7796 64.6035 22.4893 64.59 22.2021 64.5838C22.1515 64.5827 22.0885 64.5131 22.0534 64.4602C20.9862 62.8313 19.9221 61.2003 18.857 59.5704C18.7537 59.4125 18.6442 59.2577 18.5295 59.0883C18.4427 59.1756 18.4737 59.2743 18.4737 59.3605C18.4717 60.9915 18.4717 62.6225 18.4717 64.2524C18.4717 64.3532 18.4717 64.455 18.4717 64.5744H17.6845C17.6741 64.564 17.669 64.5578 17.6628 64.5505C17.6576 64.5443 17.6504 64.537 17.6483 64.5298C17.6421 64.4872 17.6328 64.4446 17.6328 64.402C17.6328 62.2017 17.6328 60.0015 17.6349 57.8012C17.6349 57.7773 17.6483 57.7534 17.6679 57.6911L17.669 57.6921Z" fill="white"/>
<path d="M56.2051 64.5713V57.7057C56.3022 57.7005 56.3859 57.6911 56.4696 57.6911C57.1401 57.6901 57.8105 57.689 58.481 57.6911C59.073 57.6932 59.6546 57.7805 60.1835 58.0454C61.2724 58.5928 61.948 59.4613 62.1588 60.6871C62.416 62.182 61.3365 64.1038 59.4655 64.4913C59.1814 64.5505 58.887 64.5775 58.5967 64.5827C57.8839 64.5962 57.17 64.589 56.4562 64.5879C56.3735 64.5879 56.2898 64.5765 56.2041 64.5703L56.2051 64.5713ZM57.045 63.7475C57.1184 63.76 57.1762 63.7787 57.2341 63.7787C57.7062 63.7808 58.1794 63.787 58.6515 63.7756C59.1122 63.7652 59.5503 63.6561 59.9604 63.4348C60.946 62.905 61.5048 61.781 61.3189 60.7307C61.1123 59.5589 60.1753 58.6863 59.0327 58.5575C58.4294 58.49 57.8147 58.5232 57.2052 58.5139C57.1556 58.5139 57.106 58.5326 57.044 58.545V63.7465L57.045 63.7475Z" fill="white"/>
<path d="M70.8501 64.5775V57.6911C70.94 57.6911 71.0237 57.6911 71.1063 57.6911C71.7768 57.6911 72.4472 57.689 73.1177 57.6911C73.532 57.6921 73.9452 57.7337 74.3388 57.8636C75.7438 58.3258 76.5806 59.2951 76.7976 60.7619C76.9246 61.6189 76.6653 62.4012 76.1715 63.1024C75.4752 64.0924 74.4989 64.5568 73.3088 64.5838C72.5268 64.6014 71.7447 64.59 70.9627 64.591C70.9296 64.591 70.8976 64.5827 70.8501 64.5765V64.5775ZM71.6704 63.7963C72.3398 63.7787 72.9782 63.8015 73.6074 63.7371C75.1539 63.5792 76.1457 62.1674 75.9608 60.8107C75.813 59.7272 74.9132 58.6749 73.6126 58.5502C73.0413 58.4952 72.4617 58.5211 71.8863 58.5139C71.814 58.5139 71.7416 58.5336 71.6704 58.545V63.7963Z" fill="white"/>
<path d="M81.1726 57.7202C81.2129 57.7056 81.2294 57.6953 81.2449 57.6963C82.1561 57.7056 83.0704 57.6693 83.9774 57.7347C85.4713 57.8438 86.6986 58.9346 87.0457 60.3609C87.2657 61.2637 87.1077 62.1082 86.6242 62.8925C85.9403 64.0041 84.9279 64.5484 83.6406 64.5827C82.8586 64.6035 82.0755 64.589 81.2924 64.59C81.2594 64.59 81.2263 64.5817 81.1726 64.5755V57.7202ZM81.9867 63.7569C82.0518 63.7672 82.0848 63.7766 82.1179 63.7766C82.6076 63.7776 83.0983 63.7859 83.588 63.7756C83.9857 63.7672 84.3721 63.6873 84.7378 63.52C85.8339 63.0182 86.4599 61.8641 86.2605 60.7089C86.0653 59.5787 85.0539 58.6261 83.9268 58.5481C83.3441 58.5076 82.7584 58.5211 82.1747 58.5139C82.1117 58.5139 82.0476 58.5357 81.9856 58.5471V63.7569H81.9867Z" fill="white"/>
<path d="M42.0735 64.5703H41.2698V57.715C41.3307 57.7067 41.3958 57.6922 41.4599 57.6911C42.1562 57.689 42.8525 57.6849 43.5488 57.6932C43.7709 57.6953 43.9961 57.7171 44.2151 57.7555C45.2399 57.9332 45.8959 58.8993 45.7058 59.9952C45.5643 60.8107 45.1118 61.3779 44.2678 61.5649C44.243 61.5701 44.2182 61.5805 44.1955 61.5909C44.18 61.5982 44.1676 61.6096 44.1221 61.6408C44.742 62.6038 45.3628 63.5688 45.9879 64.5391C45.8577 64.5807 45.1872 64.6232 45.1056 64.5859C45.0488 64.5599 44.9951 64.5069 44.961 64.4529C44.4072 63.5906 43.8535 62.7274 43.308 61.86C43.2099 61.7041 43.1014 61.6335 42.9144 61.6449C42.65 61.6615 42.3845 61.6491 42.0818 61.6491C42.0673 62.1519 42.0766 62.6318 42.0745 63.1107C42.0725 63.5844 42.0745 64.0581 42.0745 64.5723L42.0735 64.5703ZM42.0911 60.8419C42.714 60.8232 43.307 60.8845 43.8959 60.8024C44.2316 60.7557 44.5188 60.604 44.7099 60.31C45.1738 59.5953 44.7451 58.6458 43.8845 58.5513C43.3235 58.49 42.7522 58.5149 42.1851 58.5045C42.1551 58.5045 42.1241 58.5295 42.0911 58.544V60.8419Z" fill="white"/>
<path d="M69.2892 64.5921C69.0041 64.5921 68.7654 64.5921 68.5268 64.5921C68.4152 64.5921 68.3904 64.5079 68.3573 64.4269C68.1704 63.9729 67.9865 63.5179 67.7933 63.066C67.5619 62.5258 67.6652 62.6328 67.1507 62.6276C66.3077 62.6193 65.4647 62.6308 64.6228 62.6204C64.4564 62.6183 64.38 62.6785 64.3201 62.825C64.1083 63.3434 63.88 63.8555 63.6713 64.375C63.6114 64.5256 63.5318 64.5973 63.3686 64.59C63.1661 64.5817 62.9636 64.5879 62.7271 64.5879C62.8304 64.322 62.914 64.0986 63.0049 63.8784C63.8273 61.8776 64.6517 59.8778 65.4699 57.876C65.5288 57.7316 65.6052 57.6755 65.7571 57.6859C65.9193 57.6973 66.0835 57.688 66.2468 57.689C66.4709 57.6911 66.472 57.6911 66.5588 57.9113C66.6414 58.1191 66.7178 58.33 66.8026 58.5367C67.5381 60.3214 68.2768 62.1041 69.0123 63.8888C69.1012 64.1028 69.1817 64.3199 69.2882 64.59L69.2892 64.5921ZM67.2561 61.7737C66.8398 60.737 66.4389 59.7376 66.037 58.7382C66.0185 58.7382 66.0009 58.7393 65.9823 58.7403C65.7767 59.239 65.566 59.7355 65.3655 60.2362C65.1631 60.7401 64.9389 61.2366 64.7591 61.7737H67.2561Z" fill="white"/>
<path d="M35.5515 57.7025H39.5289C39.5919 57.8958 39.5991 58.196 39.5434 58.4785H36.3635C36.3418 59.2047 36.3563 59.8986 36.3532 60.6175C36.9007 60.657 37.4224 60.6341 37.9421 60.6383C38.4566 60.6424 38.971 60.6383 39.5072 60.6383V61.4049C39.4277 61.4122 39.3378 61.4257 39.2489 61.4268C38.3801 61.4288 37.5123 61.4288 36.6435 61.4288C36.5588 61.4288 36.4751 61.4288 36.3718 61.4288V63.7953H39.6177C39.6487 64.0706 39.6425 64.3137 39.6219 64.5775H35.5712C35.5195 64.3864 35.4999 58.1212 35.5515 57.7025Z" fill="white"/>
<path d="M92.6162 57.7057V58.4827H89.4302V60.631H92.5357C92.5966 60.9053 92.5532 61.1494 92.5646 61.4216H89.423C89.4034 62.2194 89.4178 62.9902 89.4147 63.786C89.9777 63.8192 90.516 63.7974 91.0532 63.8015C91.5852 63.8057 92.1173 63.8015 92.6793 63.8015C92.7123 64.0623 92.703 64.3064 92.6886 64.5433C92.5036 64.6004 89.1936 64.6264 88.6347 64.5807C88.58 64.3947 88.5686 57.9934 88.6254 57.7046H92.6162V57.7057Z" fill="white"/>
<path d="M10.0955 57.7046H10.9137C10.921 57.8334 10.9354 57.9591 10.9354 58.0848C10.9364 59.3096 10.9323 60.5354 10.9375 61.7602C10.9375 61.9825 10.9519 62.2111 11.0036 62.4261C11.1885 63.2063 11.9644 63.9283 13.0222 63.8441C13.8849 63.7756 14.6318 63.0619 14.7351 62.1768C14.7599 61.9628 14.7743 61.7467 14.7743 61.5317C14.7785 60.3672 14.7764 59.2026 14.7764 58.037C14.7764 57.9342 14.7764 57.8314 14.7764 57.7088H15.5915C15.5967 57.7992 15.6039 57.875 15.6039 57.9508C15.6039 59.2878 15.6039 60.6258 15.6008 61.9628C15.5977 63.4483 14.4779 64.5838 12.9985 64.67C11.6689 64.7479 10.5335 63.8421 10.2143 62.7908C10.1172 62.4666 10.0842 62.1342 10.0831 61.7966C10.0811 60.5022 10.0811 59.2078 10.0811 57.9145C10.0811 57.8553 10.0893 57.795 10.0955 57.7057V57.7046Z" fill="white"/>
<path d="M27.5628 57.6911C27.8376 57.6911 28.0607 57.6963 28.2829 57.689C28.4058 57.6849 28.443 57.7618 28.4802 57.8542C28.7436 58.5004 29.006 59.1476 29.2726 59.7927C29.7436 60.9312 30.2178 62.0688 30.692 63.2073C30.7209 63.278 30.7592 63.3444 30.8098 63.4463C30.8542 63.3746 30.8893 63.332 30.91 63.2842C31.6559 61.4849 32.4028 59.6846 33.1425 57.8833C33.2003 57.7431 33.2685 57.6776 33.4245 57.688C33.628 57.7005 33.8336 57.6911 34.0743 57.6911C34.0382 57.8023 34.0175 57.8823 33.9865 57.9571C33.3605 59.48 32.7334 61.0019 32.1084 62.5248C31.8563 63.1388 31.6073 63.7537 31.3573 64.3687C31.2695 64.5859 31.2695 64.5869 31.0402 64.59C30.8852 64.5921 30.7302 64.5921 30.5753 64.5921C30.3573 64.5921 30.3563 64.5921 30.2736 64.3906C29.91 63.4961 29.5484 62.6017 29.1837 61.7072C28.6765 60.4617 28.1682 59.2172 27.6609 57.9716C27.63 57.8947 27.6052 57.8147 27.5618 57.6922L27.5628 57.6911Z" fill="white"/>
<path d="M51.115 58.276C50.9528 58.4609 50.8009 58.6344 50.6408 58.8172C50.5602 58.7642 50.491 58.7154 50.4197 58.6728C49.9558 58.3975 49.4693 58.3269 48.9641 58.5367C48.5911 58.6905 48.3773 58.9834 48.337 59.3854C48.2977 59.775 48.4682 60.0835 48.7926 60.2799C49.0323 60.4253 49.3009 60.5261 49.5633 60.631C49.8505 60.7453 50.1542 60.8211 50.4331 60.952C50.8536 61.1494 51.1966 61.4403 51.4094 61.8724C51.9487 62.9694 51.3453 64.2264 50.2337 64.5495C49.148 64.8653 48.2234 64.5547 47.3804 63.787C47.5436 63.5906 47.6986 63.4026 47.869 63.1969C47.9475 63.2603 48.0126 63.3122 48.0756 63.3652C48.5261 63.7444 49.0395 63.9179 49.6294 63.8493C49.9104 63.8171 50.1635 63.7153 50.3846 63.5439C50.8753 63.1647 50.9238 62.422 50.492 61.9607C50.305 61.7613 50.0716 61.6345 49.8205 61.539C49.4589 61.4008 49.0953 61.2709 48.7378 61.1224C48.5725 61.0538 48.4166 60.9582 48.2626 60.8637C47.2244 60.2248 47.2957 58.7653 48.0798 58.1066C49.0106 57.3244 50.5085 57.582 51.115 58.276Z" fill="white"/>
<path d="M54.0778 57.7077V64.5495C53.8826 64.6087 53.5251 64.6118 53.271 64.5557V57.7077H54.0778Z" fill="white"/>
<path d="M26 64.5848H25.2469C25.1942 64.4186 25.1735 58.1347 25.2252 57.7005C25.4731 57.6828 25.7252 57.689 25.9741 57.6973C26.033 57.8833 26.0558 64.1527 26 64.5848Z" fill="white"/>
<path d="M80.0765 69.5639C80.1932 69.6034 90.7327 92.2084 90.7327 92.2084H86.182L84.6654 88.5715C84.6654 88.5715 75.7974 88.3762 75.6425 88.4936C75.4875 88.611 74.0474 92.2084 74.0474 92.2084H69.4192L72.6858 85.3251L76.8863 83.0179L80.3864 86.2642C80.3864 86.2642 79.4525 81.4929 79.5692 81.4929C79.686 81.4929 83.7305 79.1856 83.7305 79.1856L79.0248 78.5987L78.0527 73.7878L80.0754 69.5639H80.0765Z" fill="white"/>
</svg>
