<svg width="150" height="150" viewBox="0 0 150 150" fill="none" xmlns="http://www.w3.org/2000/svg">
<g clip-path="url(#clip0_264_27393)">
<path d="M109.994 54.9399C110.721 54.7398 111.37 54.5154 112.039 54.385C112.904 54.2153 113.781 54.1061 114.658 54.0061C114.922 53.9757 115.207 54.0364 115.472 54.097C116.481 54.3214 116.991 54.8944 116.997 55.9919C117 56.8682 116.865 57.7444 116.775 58.6206C116.589 60.3973 116.402 62.1739 116.198 63.9506C116.06 65.1512 115.907 66.3488 115.736 67.5434C115.375 70.0841 115.033 72.6278 114.622 75.1594C114.21 77.682 113.763 80.2045 112.904 82.6148C111.979 85.2131 110.625 87.5628 108.394 89.2485C106.088 90.9919 103.52 92.0197 100.572 91.859C98.6049 91.7498 97.0254 90.5856 96.3528 88.7119C95.7342 86.9928 96.2627 84.8978 97.656 83.6335C98.4007 82.9574 99.2895 82.5845 100.274 82.4238C100.319 82.4177 100.365 82.4329 100.383 82.4329C99.9411 83.3788 99.7219 84.3066 100.359 85.2465C100.902 86.0499 101.71 86.1318 102.557 86.0075C103.989 85.7983 104.974 84.8917 105.818 83.7881C107.007 82.2298 107.574 80.4076 107.947 78.5218C108.265 76.9058 108.499 75.2686 108.472 73.6101C108.469 73.4282 108.445 73.2463 108.43 73.0644C108.397 73.0553 108.364 73.0432 108.334 73.0341C108.274 73.116 108.211 73.1917 108.157 73.2766C107.043 75.0503 105.725 76.6238 103.914 77.7214C102.445 78.6127 100.827 78.731 99.2085 78.4793C98.1425 78.3126 97.3497 77.6486 97.0555 76.4844C96.6351 74.8259 96.7372 73.1554 96.9233 71.4939C97.1666 69.32 97.5329 67.1583 97.7912 64.9845C97.9953 63.2745 98.1124 61.5524 98.2716 59.8364C98.3286 59.2179 98.1935 58.6357 97.9293 58.0809C97.8032 57.8171 97.8962 57.6959 98.1695 57.6322C98.9472 57.4533 99.7129 57.2229 100.494 57.0743C101.214 56.9379 101.947 56.8409 102.677 56.8075C103.253 56.7802 103.806 56.95 104.265 57.3593C104.8 57.8353 105.067 58.4356 105.022 59.133C104.95 60.2487 104.833 61.3644 104.704 62.4741C104.451 64.6631 104.172 66.846 103.914 69.032C103.83 69.7324 103.755 70.4327 103.71 71.1361C103.689 71.4454 103.725 71.7668 103.782 72.073C103.914 72.7946 104.565 73.122 105.214 72.8037C106.043 72.3974 106.676 71.7546 107.211 71.0179C108.199 69.6475 108.919 68.1528 109.148 66.4519C109.508 63.7596 109.865 61.0643 110.205 58.3689C110.283 57.7474 110.307 57.1137 110.292 56.4861C110.283 56.092 110.151 55.7009 110.073 55.3098C110.049 55.1915 110.022 55.0733 109.991 54.9338L109.994 54.9399Z" fill="white"/>
<path d="M41.7982 82.3086C41.603 82.4602 41.3958 82.5966 41.2156 82.7634C40.3688 83.5547 39.7262 84.4855 39.3359 85.5891C38.9635 86.6351 38.9966 87.6689 39.438 88.6816C39.8524 89.6275 40.6181 90.1581 41.609 90.2612C43.7019 90.4795 45.4045 89.6851 46.6747 88.0146C47.4644 86.9777 47.8608 85.768 47.7917 84.4491C47.7527 83.6851 47.6806 82.9119 47.5065 82.1722C47.1882 80.829 46.2843 79.8558 45.2063 79.1039C43.783 78.1125 42.2756 77.2423 40.8223 76.2934C39.3479 75.3292 38.0837 74.1589 37.273 72.5429C36.5913 71.1786 36.4802 69.7445 36.7385 68.2741C37.0898 66.267 37.9426 64.4963 39.3089 62.9895C40.2998 61.895 41.4679 61.0158 42.711 60.2335C45.0412 58.7691 47.5815 57.9505 50.3081 57.705C51.6533 57.5837 52.9715 57.714 54.1907 58.3598C55.7912 59.2057 56.4308 60.6065 56.4248 62.368C56.4157 65.0148 54.3708 67.6222 51.311 68.1043C50.6534 68.2074 49.9748 68.174 49.3051 68.1952C49.2361 68.1952 49.167 68.1588 49.101 68.1407C49.4853 67.4949 49.8787 66.8733 50.23 66.2306C50.6714 65.418 50.9567 64.5479 51.0618 63.6232C51.2029 62.3801 50.6624 61.7586 49.4283 61.7677C47.7887 61.7828 46.5005 62.6075 45.3385 63.6535C44.6238 64.2962 43.9662 65.0087 43.6779 65.985C43.2215 67.5282 43.5368 68.9198 44.4466 70.1993C45.3204 71.4272 46.5936 72.1245 47.8728 72.8188C48.9148 73.3828 49.9658 73.9406 50.9717 74.5682C52.9175 75.784 54.0525 77.5607 54.4219 79.8437C54.8093 82.2328 54.542 84.5491 53.5931 86.7594C52.6923 88.8544 51.2179 90.4886 49.3562 91.7832C47.3503 93.1809 45.1583 94.139 42.7861 94.6817C40.9724 95.097 39.1557 95.1668 37.357 94.5725C35.2341 93.8722 33.8318 92.4745 33.2372 90.2733C32.6487 88.0934 33.1682 86.156 34.5314 84.437C35.6154 83.0726 36.9997 82.1449 38.7323 81.8083C39.7563 81.6082 40.7352 81.7356 41.7922 82.3147L41.7982 82.3086Z" fill="white"/>
<path d="M70.7871 67.1947C70.703 66.464 70.631 65.7303 70.5289 65.0027C70.4508 64.4509 70.4688 64.4114 70.9973 64.278C71.9372 64.0416 72.868 63.7596 73.8169 63.5595C74.6997 63.3715 75.5736 63.4625 76.4083 63.8627C77.0239 64.1568 77.3602 64.6661 77.3902 65.3149C77.4263 66.0365 77.3842 66.7702 77.3062 67.4918C77.09 69.4686 76.8317 71.4393 76.6035 73.4161C76.4564 74.6774 76.3122 75.9417 76.2041 77.2059C76.1561 77.779 76.1651 78.3641 76.2041 78.9402C76.2822 80.0013 77.2191 80.4319 78.0839 79.8346C78.225 79.7376 78.3812 79.6587 78.5343 79.5678C78.9006 80.7987 78.4502 82.8574 77.2221 83.8366C74.6637 85.8832 72.1864 85.8589 69.9734 83.3273C69.2917 84.064 68.6852 84.8038 67.9945 85.4496C66.7123 86.6533 65.232 87.5264 63.4723 87.7902C60.5716 88.2268 58.2655 86.9716 57.2866 84.0944C56.5929 82.06 56.5929 79.974 56.8632 77.8608C57.1905 75.3019 58.0823 72.9613 59.4366 70.7966C60.1963 69.5808 61.0461 68.4135 62.1271 67.4736C63.3552 66.4034 64.6584 65.4089 66.364 65.224C67.1537 65.1391 67.9285 65.1724 68.6912 65.4271C69.3308 65.6424 69.7421 66.1305 70.1535 66.6217C70.3187 66.8218 70.4748 67.031 70.634 67.2341C70.685 67.219 70.7361 67.2038 70.7871 67.1886V67.1947ZM69.8863 73.5465C69.8803 72.4702 69.9043 71.4242 69.541 70.4206C69.1206 69.2624 68.1687 68.8562 67.0997 69.4413C66.6913 69.6657 66.2979 69.9719 65.9977 70.3266C65.274 71.1877 64.7695 72.1821 64.4182 73.2615C63.6615 75.5839 63.4753 77.9639 63.7336 80.3803C63.7906 80.9109 63.9377 81.4475 64.1419 81.9417C64.5443 82.921 65.3761 83.2181 66.313 82.7512C67.3009 82.257 67.9074 81.3808 68.3759 80.4319C69.4449 78.261 69.7902 75.9144 69.8893 73.5495L69.8863 73.5465Z" fill="white"/>
<path d="M85.5788 67.51C85.6269 67.4191 85.6809 67.3342 85.726 67.2402C86.2364 66.1912 86.7019 65.1179 87.2694 64.1022C87.975 62.8379 88.8248 61.6706 89.8998 60.6913C90.6926 59.9698 91.5604 59.421 92.6444 59.2512C93.7314 59.0814 94.8304 59.5787 95.3799 60.5489C96.1697 61.9496 96.1697 63.4322 95.8063 64.9451C95.521 66.1214 94.9655 67.1401 93.9866 67.9557C93.8545 67.7283 93.7344 67.5191 93.6113 67.3099C93.0648 66.3822 92.0438 66.085 91.0889 66.5792C90.3623 66.9522 89.7977 67.5131 89.2993 68.1528C87.7228 70.172 86.882 72.5126 86.4106 74.9988C86.0172 77.0665 85.9872 79.1524 86.2244 81.2414C86.3175 82.0448 86.3295 82.0418 85.5398 82.1934C84.4528 82.3995 83.3688 82.4632 82.2788 82.1934C80.9815 81.872 80.1047 80.9988 79.9456 79.6618C79.8435 78.8159 79.8255 77.9488 79.8765 77.0998C80.0357 74.5349 80.2489 71.976 80.438 69.414C80.5822 67.4706 80.7293 65.5242 80.8554 63.5777C80.8795 63.2199 80.8044 62.8531 80.7593 62.4923C80.7293 62.2497 80.7894 62.1194 81.0506 62.0739C82.0746 61.895 83.0865 61.9011 84.0804 62.2346C84.8191 62.4832 85.3356 62.9713 85.4137 63.7566C85.5068 64.6904 85.4977 65.6363 85.5218 66.5762C85.5278 66.8733 85.4947 67.1735 85.4797 67.4706C85.5128 67.4858 85.5488 67.4979 85.5818 67.5131L85.5788 67.51Z" fill="white"/>
</g>
<defs>
<clipPath id="clip0_264_27393">
<rect width="84" height="41" fill="white" transform="translate(33 54)"/>
</clipPath>
</defs>
</svg>
