<svg width="1920" height="727" viewBox="0 0 1920 727" fill="none" xmlns="http://www.w3.org/2000/svg">
<g clip-path="url(#clip0_326_24937)">
<path d="M1667.25 396.996L1632.7 377.036V363.396L1667.25 383.357V396.996Z" fill="url(#paint0_linear_326_24937)"/>
<path d="M1667.25 396.995L1701.57 377.152V363.513L1667.25 383.356V396.995Z" fill="url(#paint1_linear_326_24937)"/>
<path d="M1667.25 383.356L1632.7 363.396L1667.03 343.553L1701.57 363.513L1667.25 383.356Z" fill="#ABB8D6"/>
<path d="M1667.25 381.219L1632.7 361.259V347.62L1667.25 367.58V381.219Z" fill="url(#paint2_linear_326_24937)"/>
<path d="M1667.25 381.219L1701.57 361.376V347.736L1667.25 367.58V381.219Z" fill="url(#paint3_linear_326_24937)"/>
<path d="M1667.25 367.58L1632.7 347.62L1667.03 327.776L1701.57 347.736L1667.25 367.58Z" fill="#C5DBEE"/>
<path d="M1667.22 363.448L1639.87 347.646L1667.05 331.921L1694.41 347.737L1667.22 363.448Z" fill="#ABB8D6"/>
<path d="M1667.22 357.166L1639.87 341.351V327.711L1667.22 343.527V357.166Z" fill="url(#paint4_linear_326_24937)"/>
<path d="M1667.22 357.166L1694.41 341.455V327.815L1667.22 343.527V357.166Z" fill="url(#paint5_linear_326_24937)"/>
<path d="M1667.22 343.527L1639.87 327.712L1667.05 312L1694.41 327.815L1667.22 343.527Z" fill="url(#paint6_linear_326_24937)"/>
<path d="M1678.32 327.828L1667.17 334.279L1655.95 327.79L1667.1 321.352L1678.32 327.828Z" fill="#3ADCC9"/>
<path d="M1623.64 492.936C1628.8 489.957 1633.96 486.965 1639.11 483.986C1640.75 483.04 1639.26 480.476 1637.62 481.434C1632.46 484.413 1627.3 487.405 1622.15 490.384C1620.5 491.33 1621.99 493.895 1623.64 492.936Z" fill="url(#paint7_linear_326_24937)"/>
<path d="M1623.42 401.659C1628.58 398.68 1633.74 395.688 1638.89 392.708C1640.53 391.763 1639.04 389.198 1637.4 390.157C1632.24 393.136 1627.08 396.128 1621.93 399.107C1620.28 400.053 1621.77 402.617 1623.42 401.659Z" fill="url(#paint8_linear_326_24937)"/>
<path d="M1700.66 389.6C1705.85 392.605 1711.05 395.597 1716.24 398.602C1717.88 399.56 1719.38 396.996 1717.73 396.05C1712.54 393.045 1707.34 390.053 1702.15 387.048C1700.51 386.089 1699.01 388.654 1700.66 389.6Z" fill="url(#paint9_linear_326_24937)"/>
<path d="M1779.72 435.297C1784.91 438.302 1790.11 441.294 1795.3 444.299C1796.94 445.257 1798.44 442.693 1796.78 441.747C1791.6 438.742 1786.4 435.75 1781.21 432.745C1779.56 431.787 1778.06 434.351 1779.72 435.297Z" fill="url(#paint10_linear_326_24937)"/>
<path d="M1786.81 489.996C1791.97 487.017 1797.13 484.025 1802.28 481.046C1803.92 480.1 1802.44 477.536 1800.79 478.494C1795.63 481.473 1790.47 484.465 1785.32 487.444C1783.68 488.39 1785.17 490.955 1786.81 489.996Z" fill="url(#paint11_linear_326_24937)"/>
<path d="M1707.97 535.576C1713.13 532.597 1718.3 529.605 1723.44 526.626C1725.09 525.68 1723.6 523.116 1721.96 524.074C1716.79 527.053 1711.63 530.045 1706.48 533.025C1704.84 533.97 1706.33 536.535 1707.97 535.576Z" fill="url(#paint12_linear_326_24937)"/>
<path d="M1544.58 447.239C1549.74 444.26 1554.9 441.268 1560.05 438.289C1561.69 437.343 1560.21 434.778 1558.56 435.737C1553.4 438.716 1548.24 441.708 1543.09 444.687C1541.45 445.633 1542.93 448.197 1544.58 447.239Z" fill="url(#paint13_linear_326_24937)"/>
<path d="M1593.74 437.071L1559.21 417.111V403.472L1593.74 423.432V437.071Z" fill="url(#paint14_linear_326_24937)"/>
<path d="M1593.74 437.071L1628.06 417.228V403.588L1593.74 423.432V437.071Z" fill="#5A97CC"/>
<path d="M1593.74 437.071L1628.06 417.228V403.588L1593.74 423.432V437.071Z" fill="url(#paint15_linear_326_24937)"/>
<path d="M1593.74 423.432L1559.21 403.472L1593.53 383.628L1628.06 403.589L1593.74 423.432Z" fill="#ABB8D6"/>
<path d="M1514.9 482.639L1480.37 462.679V449.04L1514.9 469V482.639Z" fill="url(#paint16_linear_326_24937)"/>
<path d="M1514.9 482.639L1549.23 462.808V449.169L1514.9 469V482.639Z" fill="url(#paint17_linear_326_24937)"/>
<path d="M1514.9 468.999L1480.37 449.039L1514.69 429.196L1549.23 449.169L1514.9 468.999Z" fill="#ABB8D6"/>
<path d="M1751.63 437.2L1785.96 417.357V403.718L1751.63 423.561V437.2Z" fill="url(#paint18_linear_326_24937)"/>
<path d="M1751.63 423.561V437.201L1717.09 417.228V403.588L1751.63 423.561Z" fill="url(#paint19_linear_326_24937)"/>
<path d="M1785.96 403.718L1751.63 423.561L1717.09 403.588L1751.41 383.758L1785.96 403.718Z" fill="#ABB8D6"/>
<path d="M1751.84 528.465L1786.16 508.622V494.982L1751.84 514.826V528.465Z" fill="url(#paint20_linear_326_24937)"/>
<path d="M1751.84 514.826V528.465L1717.31 508.505V494.866L1751.84 514.826Z" fill="url(#paint21_linear_326_24937)"/>
<path d="M1786.16 494.983L1751.84 514.826L1717.31 494.866L1751.63 475.022L1786.16 494.983Z" fill="#ABB8D6"/>
<path d="M1593.96 528.336L1628.28 508.505V494.866L1593.96 514.697V528.336Z" fill="#5A97CC"/>
<path d="M1593.96 528.336L1628.28 508.505V494.866L1593.96 514.697V528.336Z" fill="url(#paint22_linear_326_24937)"/>
<path d="M1593.96 514.697V528.336L1559.42 508.376V494.737L1593.96 514.697Z" fill="url(#paint23_linear_326_24937)"/>
<path d="M1628.28 494.866L1593.96 514.697L1559.42 494.737L1593.74 474.893L1628.28 494.866Z" fill="#ABB8D6"/>
<path d="M1593.74 421.295L1559.21 401.335V387.696L1593.74 407.656V421.295Z" fill="url(#paint24_linear_326_24937)"/>
<path d="M1593.74 421.295L1628.06 401.451V387.812L1593.74 407.656V421.295Z" fill="#5A97CC"/>
<path d="M1593.74 421.295L1628.06 401.451V387.812L1593.74 407.656V421.295Z" fill="url(#paint25_linear_326_24937)"/>
<path d="M1593.74 407.656L1559.21 387.696L1593.53 367.852L1628.06 387.812L1593.74 407.656Z" fill="url(#paint26_linear_326_24937)"/>
<path d="M1514.9 466.875L1480.37 446.902V433.263L1514.9 453.223V466.875Z" fill="url(#paint27_linear_326_24937)"/>
<path d="M1514.9 466.875L1549.23 447.032V433.393L1514.9 453.223V466.875Z" fill="url(#paint28_linear_326_24937)"/>
<path d="M1514.9 453.223L1480.37 433.263L1514.69 413.419L1549.23 433.392L1514.9 453.223Z" fill="#C5DBEE"/>
<path d="M1514.89 449.104L1487.53 433.289L1514.72 417.577L1542.07 433.392L1514.89 449.104Z" fill="#ABB8D6"/>
<path d="M1751.63 421.424L1785.96 401.581V387.941L1751.63 407.785V421.424Z" fill="url(#paint29_linear_326_24937)"/>
<path d="M1751.63 407.785V421.424L1717.09 401.451V387.812L1751.63 407.785Z" fill="url(#paint30_linear_326_24937)"/>
<path d="M1785.96 387.942L1751.63 407.785L1717.09 387.812L1751.41 367.981L1785.96 387.942Z" fill="url(#paint31_linear_326_24937)"/>
<path d="M1751.84 512.689L1786.16 492.845V479.206L1751.84 499.05V512.689Z" fill="url(#paint32_linear_326_24937)"/>
<path d="M1751.84 499.05V512.689L1717.31 492.729V479.09L1751.84 499.05Z" fill="url(#paint33_linear_326_24937)"/>
<path d="M1786.16 479.206L1751.84 499.05L1717.31 479.09L1751.63 459.246L1786.16 479.206Z" fill="url(#paint34_linear_326_24937)"/>
<path d="M1830.68 482.898L1796.14 462.925V449.286L1830.68 469.259V482.898Z" fill="url(#paint35_linear_326_24937)"/>
<path d="M1830.68 482.898L1865 463.054V449.415L1830.68 469.259V482.898Z" fill="url(#paint36_linear_326_24937)"/>
<path d="M1830.68 469.259L1796.14 449.286L1830.47 429.455L1865 449.415L1830.68 469.259Z" fill="#ABB8D6"/>
<path d="M1830.68 467.122L1796.14 447.148V433.509L1830.68 453.482V467.122Z" fill="url(#paint37_linear_326_24937)"/>
<path d="M1830.68 467.121L1865 447.278V433.639L1830.68 453.482V467.121Z" fill="url(#paint38_linear_326_24937)"/>
<path d="M1830.68 453.482L1796.14 433.509L1830.47 413.679L1865 433.639L1830.68 453.482Z" fill="#C5DBEE"/>
<path d="M1830.67 449.351L1803.3 433.535L1830.48 417.824L1857.85 433.639L1830.67 449.351Z" fill="#ABB8D6"/>
<path d="M1830.67 443.068L1803.3 427.253V413.614L1830.67 429.429V443.068Z" fill="url(#paint39_linear_326_24937)"/>
<path d="M1830.67 443.068L1857.85 427.344V413.705L1830.67 429.429V443.068Z" fill="url(#paint40_linear_326_24937)"/>
<path d="M1830.67 429.429L1803.3 413.614L1830.48 397.902L1857.85 413.705L1830.67 429.429Z" fill="url(#paint41_linear_326_24937)"/>
<path d="M1841.77 413.731L1830.61 420.181L1819.38 413.692L1830.54 407.241L1841.77 413.731Z" fill="#8F6EF7"/>
<path d="M1673.02 574.033L1638.47 554.073V540.434L1673.02 560.394V574.033Z" fill="url(#paint42_linear_326_24937)"/>
<path d="M1673.02 574.033L1707.34 554.203V540.563L1673.02 560.394V574.033Z" fill="url(#paint43_linear_326_24937)"/>
<path d="M1673.02 560.394L1638.47 540.434L1672.8 520.59L1707.34 540.563L1673.02 560.394Z" fill="#ABB8D6"/>
<path d="M1673.02 558.257L1638.47 538.297V524.658L1673.02 544.618V558.257Z" fill="url(#paint44_linear_326_24937)"/>
<path d="M1673.02 558.257L1707.34 538.426V524.787L1673.02 544.618V558.257Z" fill="url(#paint45_linear_326_24937)"/>
<path d="M1673.02 544.618L1638.47 524.657L1672.8 504.814L1707.34 524.787L1673.02 544.618Z" fill="#C5DBEE"/>
<path d="M1672.99 540.499L1645.63 524.683L1672.82 508.972L1700.17 524.774L1672.99 540.499Z" fill="#ABB8D6"/>
<path d="M1672.99 534.203L1645.63 518.388V504.749L1672.99 520.564V534.203Z" fill="url(#paint46_linear_326_24937)"/>
<path d="M1672.99 534.204L1700.17 518.492V504.853L1672.99 520.565V534.204Z" fill="url(#paint47_linear_326_24937)"/>
<path d="M1672.99 520.564L1645.63 504.749L1672.82 489.038L1700.17 504.853L1672.99 520.564Z" fill="url(#paint48_linear_326_24937)"/>
<path d="M1684.09 504.879L1672.94 511.316L1661.72 504.827L1672.86 498.39L1684.09 504.879Z" fill="#8F6EF7"/>
<path d="M1593.96 512.56L1628.28 492.729V479.09L1593.96 498.92V512.56Z" fill="#5A97CC"/>
<path d="M1593.96 512.56L1628.28 492.729V479.09L1593.96 498.92V512.56Z" fill="url(#paint49_linear_326_24937)"/>
<path d="M1593.96 498.921V512.56L1559.42 492.6V478.96L1593.96 498.921Z" fill="url(#paint50_linear_326_24937)"/>
<path d="M1628.28 479.09L1593.96 498.92L1559.42 478.96L1593.74 459.117L1628.28 479.09Z" fill="url(#paint51_linear_326_24937)"/>
<path d="M1514.89 442.809L1487.53 427.007V413.368L1514.89 429.17V442.809Z" fill="url(#paint52_linear_326_24937)"/>
<path d="M1514.89 442.809L1542.07 427.098V413.458L1514.89 429.17V442.809Z" fill="url(#paint53_linear_326_24937)"/>
<path d="M1514.89 429.17L1487.53 413.368L1514.72 397.643L1542.07 413.458L1514.89 429.17Z" fill="url(#paint54_linear_326_24937)"/>
<path d="M1765.64 387.902L1751.57 396.037L1737.4 387.851L1751.48 379.716L1765.64 387.902Z" fill="#8F6EF7"/>
<path d="M1607.76 387.786L1593.67 395.92L1579.51 387.734L1593.6 379.587L1607.76 387.786Z" fill="#8F6FF7"/>
<path d="M1765.97 480.203L1751.89 488.337L1737.73 480.151L1751.8 472.017L1765.97 480.203Z" fill="#8F6EF7"/>
<path d="M1607.97 479.051L1593.89 487.185L1579.73 478.999L1593.8 470.865L1607.97 479.051Z" fill="#8F6EF7"/>
<path d="M1525.87 413.445L1514.73 419.883L1503.5 413.407L1514.65 406.956L1525.87 413.445Z" fill="#8F6FF7"/>
<path d="M1612.87 413.07C1622.78 418.795 1632.7 424.533 1642.61 430.258C1644.26 431.216 1645.76 428.652 1644.1 427.706C1634.19 421.981 1624.27 416.243 1614.36 410.518C1612.72 409.56 1611.22 412.124 1612.87 413.07Z" fill="url(#paint55_linear_326_24937)"/>
<path d="M1542.99 480.747C1548.17 483.753 1553.37 486.745 1558.56 489.75C1560.22 490.708 1561.71 488.143 1560.05 487.198C1554.86 484.193 1549.66 481.201 1544.47 478.196C1542.82 477.237 1541.33 479.802 1542.99 480.747Z" fill="url(#paint56_linear_326_24937)"/>
<path d="M1702.46 447.356C1707.62 444.376 1712.78 441.384 1717.93 438.405C1719.58 437.46 1718.09 434.895 1716.45 435.854C1711.28 438.833 1706.12 441.825 1700.97 444.804C1699.33 445.749 1700.82 448.314 1702.46 447.356Z" fill="url(#paint57_linear_326_24937)"/>
<path d="M1700.88 480.877C1706.07 483.882 1711.27 486.874 1716.46 489.879C1718.1 490.838 1719.6 488.273 1717.95 487.328C1712.76 484.323 1707.56 481.331 1702.37 478.326C1700.73 477.367 1699.23 479.932 1700.88 480.877Z" fill="url(#paint58_linear_326_24937)"/>
<path d="M1622.04 526.445C1627.23 529.45 1632.43 532.442 1637.62 535.447C1639.26 536.405 1640.76 533.841 1639.11 532.895C1633.92 529.89 1628.72 526.898 1623.53 523.893C1621.89 522.935 1620.39 525.499 1622.04 526.445Z" fill="url(#paint59_linear_326_24937)"/>
<path d="M1623.55 443.405C1623.27 444.817 1622.16 446.216 1621.06 446.527L1613.07 448.781C1612.69 448.884 1612.38 448.845 1612.12 448.703L1675.62 485.644C1675.86 485.786 1676.19 485.825 1676.56 485.722L1684.56 483.468C1685.66 483.157 1686.76 481.758 1687.04 480.346L1623.55 443.405Z" fill="#7554DF"/>
<path d="M1617.54 440.322L1614.55 441.164C1612.98 441.605 1611.38 443.625 1610.98 445.659L1610.72 447.006C1610.47 448.353 1610.79 449.376 1611.49 449.791L1674.98 486.732C1674.27 486.317 1673.95 485.294 1674.21 483.947L1674.46 482.6C1674.87 480.553 1676.47 478.546 1678.04 478.105L1681.02 477.263L1617.53 440.322H1617.54Z" fill="url(#paint60_linear_326_24937)"/>
<path d="M1716.24 365.611L1652.74 328.657L1652.96 327.53L1716.46 364.471L1716.24 365.611Z" fill="#ACBAD5"/>
<path d="M1719.74 353.863L1656.25 316.922C1656.87 317.285 1657.16 318.178 1656.92 319.37L1656.09 323.58C1655.75 325.367 1654.34 327.142 1652.96 327.53L1716.46 364.471C1717.84 364.083 1719.24 362.308 1719.59 360.521L1720.42 356.311C1720.65 355.132 1720.37 354.226 1719.74 353.863Z" fill="url(#paint61_linear_326_24937)"/>
<path d="M1687.04 480.346L1623.54 443.405L1647.3 322.077L1710.79 359.018L1687.04 480.346Z" fill="#8F6EF7"/>
<path d="M1718.77 352.632C1720.64 352.114 1721.76 353.656 1721.28 356.065L1720.46 360.275C1719.99 362.684 1718.09 365.08 1716.23 365.598L1716.45 364.471C1717.83 364.083 1719.23 362.308 1719.58 360.521L1720.4 356.311C1720.75 354.524 1719.91 353.384 1718.54 353.772L1714.79 354.834C1713.41 355.223 1712.01 356.998 1711.66 358.785L1687.89 480.113C1687.49 482.146 1685.89 484.167 1684.32 484.607L1676.33 486.861C1674.75 487.302 1673.81 486.006 1674.21 483.973L1674.47 482.626C1674.87 480.579 1676.47 478.572 1678.04 478.131L1681.02 477.289L1680.8 478.416L1677.82 479.258C1676.72 479.569 1675.6 480.968 1675.33 482.38L1675.07 483.727C1674.8 485.139 1675.46 486.045 1676.55 485.734L1684.54 483.481C1685.64 483.17 1686.74 481.771 1687.03 480.359L1710.79 359.031C1711.26 356.622 1713.16 354.226 1715.02 353.708L1718.77 352.645V352.632Z" fill="#DFE2E9"/>
<path d="M1656.88 315.821C1656.46 315.575 1655.91 315.51 1655.28 315.692L1651.53 316.754C1649.66 317.272 1647.78 319.668 1647.3 322.077L1710.79 359.018C1711.26 356.609 1713.16 354.213 1715.02 353.695L1718.77 352.633C1719.41 352.451 1719.95 352.516 1720.38 352.762L1656.88 315.821Z" fill="url(#paint62_linear_326_24937)"/>
<path d="M1689.83 371.116L1660.78 354.304C1659.95 353.825 1659.46 352.542 1659.66 351.441C1659.87 350.34 1660.71 349.835 1661.54 350.314L1690.6 367.127C1691.42 367.606 1691.92 368.889 1691.71 369.989C1691.5 371.09 1690.66 371.596 1689.83 371.116Z" fill="#CFE3FC"/>
<path d="M1692.67 391.025L1651.66 367.295C1650.83 366.816 1650.34 365.534 1650.54 364.433C1650.75 363.332 1651.59 362.827 1652.42 363.306L1693.43 387.035C1694.26 387.515 1694.75 388.797 1694.54 389.898C1694.34 390.999 1693.5 391.504 1692.67 391.025Z" fill="#CFE3FC"/>
<path d="M1690.87 400.428L1649.86 376.699C1649.03 376.22 1648.54 374.937 1648.75 373.836C1648.95 372.735 1649.79 372.23 1650.62 372.709L1691.63 396.439C1692.46 396.918 1692.95 398.2 1692.74 399.301C1692.54 400.402 1691.7 400.907 1690.87 400.428Z" fill="#CFE3FC"/>
<path d="M1680.49 404.884L1648.05 386.103C1647.22 385.623 1646.73 384.341 1646.93 383.24C1647.14 382.139 1647.98 381.634 1648.81 382.113L1681.26 400.895C1682.08 401.374 1682.58 402.656 1682.37 403.757C1682.16 404.858 1681.32 405.363 1680.49 404.884Z" fill="#CFE3FC"/>
<path d="M1687.26 419.248L1646.25 395.519C1645.42 395.04 1644.93 393.758 1645.14 392.657C1645.34 391.556 1646.18 391.05 1647.01 391.53L1688.02 415.259C1688.85 415.738 1689.34 417.021 1689.13 418.122C1688.93 419.223 1688.09 419.728 1687.26 419.248Z" fill="#CFE3FC"/>
<path d="M1683.78 453.832L1661.93 441.19C1661.77 441.1 1661.67 440.854 1661.71 440.633C1661.75 440.413 1661.92 440.323 1662.07 440.413L1683.92 453.055C1684.08 453.146 1684.18 453.392 1684.14 453.612C1684.1 453.832 1683.93 453.923 1683.78 453.832Z" fill="#DBDBDB"/>
<path d="M1656.99 412.189L1644.45 404.936C1643.62 404.456 1643.13 403.174 1643.34 402.073C1643.55 400.972 1644.39 400.467 1645.21 400.946L1657.75 408.2C1658.58 408.679 1659.07 409.961 1658.86 411.062C1658.66 412.163 1657.81 412.668 1656.99 412.189Z" fill="#CFE3FC"/>
<path d="M1683.38 448.69C1681.28 448.353 1679.94 447.252 1679.29 445.335C1679.02 445.335 1678.81 445.309 1678.71 445.296C1676.55 445.011 1674.93 444.118 1673.91 442.615C1673.07 441.385 1672.69 439.999 1672.9 438.872C1672.9 438.872 1672.87 438.859 1672.87 438.846C1672.59 439.442 1672.06 439.882 1671.3 440.18C1669.42 440.892 1667.17 440.439 1665.41 438.975C1664.54 438.25 1663.8 437.279 1663.25 436.165C1662.65 434.973 1662.69 433.561 1663.33 432.642C1663.93 431.761 1665.05 431.8 1665.41 431.787C1667.36 431.813 1668.99 433.082 1670.45 434.442C1670.98 434.934 1671.39 435.439 1671.77 435.97C1671.59 435.543 1671.33 435.077 1671.04 434.571L1670.82 434.222C1670.08 433.043 1669.33 431.826 1669.21 430.465C1669.03 428.432 1670.43 427.188 1671.83 427.046C1672.61 426.955 1673.21 427.188 1673.87 427.551C1674.43 427.862 1675.06 428.238 1675.56 428.872C1676.06 429.494 1676.43 430.465 1676.19 431.256L1675.31 430.984C1675.42 430.595 1675.23 429.934 1674.84 429.442C1674.44 428.937 1673.92 428.639 1673.43 428.354C1672.81 428.004 1672.39 427.901 1671.92 427.953C1670.96 428.056 1670 428.937 1670.13 430.375C1670.22 431.515 1670.92 432.642 1671.59 433.717L1671.81 434.066C1672.71 435.53 1673.15 436.735 1673.11 437.732C1673.16 437.784 1673.2 437.849 1673.25 437.9C1673.46 437.564 1673.73 437.292 1674.08 437.084C1674.46 436.851 1674.9 436.618 1675.4 436.501C1676.33 436.294 1677.62 436.644 1678.54 437.33C1679.2 437.823 1679.63 438.535 1679.7 439.26C1679.77 439.856 1679.6 440.439 1679.21 440.892C1678.46 441.773 1676.65 442.045 1674.01 439.908C1673.92 439.83 1673.83 439.766 1673.74 439.688C1673.78 440.439 1674.1 441.294 1674.65 442.084C1675.53 443.366 1676.88 444.118 1678.8 444.364C1678.84 444.364 1678.91 444.377 1679.03 444.39C1678.85 443.276 1679.02 442.162 1679.51 441.333C1679.77 440.879 1680.74 439.61 1681.86 439.74C1682.27 439.778 1682.8 440.025 1683.12 440.944C1683.44 441.89 1683.2 443.03 1682.8 443.612C1682.08 444.662 1681.08 445.076 1680.22 445.232C1680.62 446.307 1681.42 447.434 1683.51 447.77L1683.37 448.677L1683.38 448.69ZM1681.75 440.659C1681.3 440.659 1680.6 441.333 1680.33 441.812C1679.92 442.486 1679.81 443.418 1679.98 444.351C1680.66 444.234 1681.49 443.923 1682.05 443.107C1682.32 442.719 1682.47 441.864 1682.27 441.255C1682.18 440.996 1682.02 440.685 1681.79 440.659C1681.77 440.659 1681.76 440.659 1681.75 440.659ZM1673.93 438.613C1674.14 438.807 1674.36 439.001 1674.61 439.209C1676.59 440.815 1678.04 440.905 1678.53 440.322C1678.75 440.063 1678.84 439.74 1678.8 439.39C1678.75 438.911 1678.45 438.444 1677.98 438.095C1677.28 437.564 1676.25 437.279 1675.59 437.421C1675.23 437.499 1674.88 437.693 1674.56 437.887C1674.27 438.056 1674.06 438.302 1673.92 438.613H1673.93ZM1665.33 432.706C1664.68 432.706 1664.3 432.849 1664.08 433.173C1663.64 433.807 1663.64 434.869 1664.08 435.75C1664.57 436.735 1665.25 437.628 1666 438.263C1667.5 439.519 1669.41 439.921 1670.97 439.325C1671.63 439.079 1672.01 438.703 1672.15 438.172C1672.15 438.133 1672.17 438.082 1672.17 438.043C1671.88 437.667 1671.62 437.317 1671.37 436.968C1670.91 436.307 1670.45 435.685 1669.83 435.116C1668.5 433.885 1667.04 432.732 1665.4 432.706H1665.33Z" fill="white"/>
<path d="M1621.9 404.456L1625.3 402.487C1631.73 407.383 1635.64 408.368 1638.53 409.145C1641.41 411.697 1645.32 415.246 1651.75 417.771V431.734C1651.75 437.369 1649.52 440.193 1646.91 441.579L1643.52 443.547L1643.71 442.628C1640.96 443.081 1638.54 442.537 1638.54 442.537C1638.54 442.537 1625.32 430.206 1625.32 416.463V408.251L1621.91 404.456H1621.9Z" fill="#94B4FA"/>
<path d="M1651.75 417.784L1648.34 419.753L1641.06 417.759L1635.11 411.114L1638.51 409.145C1641.4 411.697 1645.3 415.246 1651.73 417.772L1651.75 417.784Z" fill="#ACC5FB"/>
<path d="M1622.28 404.236L1625.3 402.487C1631.73 407.383 1635.64 408.368 1638.53 409.145L1635.12 411.114H1627.84L1621.89 404.456L1622.26 404.249L1622.28 404.236Z" fill="#94B4FA"/>
<path d="M1635.12 411.114C1638.01 413.665 1641.91 417.214 1648.34 419.74V433.703C1648.34 447.446 1635.12 444.493 1635.12 444.493C1635.12 444.493 1621.9 432.162 1621.9 418.419V404.456C1628.33 409.352 1632.24 410.337 1635.12 411.114Z" fill="white"/>
<path d="M1635.12 441.579C1636.18 441.708 1638.28 441.851 1640.34 441.216C1644.06 440.089 1645.95 437.097 1645.95 432.317V421.45C1645.07 421.023 1644.22 420.569 1643.38 420.09C1639.81 418.031 1637.13 415.725 1635.12 413.95C1633.12 413.406 1630.44 412.616 1626.87 410.544C1626.03 410.065 1625.17 409.521 1624.29 408.925V419.792C1624.29 424.572 1626.18 429.753 1629.91 435.18C1631.97 438.185 1634.06 440.465 1635.12 441.566V441.579Z" fill="#94B4FA"/>
<path d="M1635.98 441.086C1634.92 439.998 1632.82 437.706 1630.76 434.701C1627.04 429.26 1625.15 424.079 1625.15 419.313V409.495C1625.73 409.87 1626.31 410.22 1626.87 410.557C1630.44 412.629 1633.12 413.419 1635.12 413.963C1637.13 415.738 1639.81 418.043 1643.38 420.103C1644.22 420.582 1645.07 421.048 1645.95 421.463V432.33C1645.95 436.074 1644.79 438.716 1642.5 440.231C1642.08 440.426 1641.66 440.594 1641.19 440.737C1639.13 441.358 1637.04 441.229 1635.98 441.099V441.086Z" fill="#00CA58"/>
<path d="M1636.68 434.454L1635.3 435.258C1635.3 435.258 1635.42 435.18 1635.48 435.141L1636.86 434.338C1636.86 434.338 1636.74 434.429 1636.68 434.454Z" fill="#BEB7C8"/>
<path d="M1627.23 422.486L1628.6 421.683C1629.07 421.411 1629.69 421.489 1630.31 421.852C1630.88 422.188 1631.46 422.745 1631.91 423.484L1630.54 424.287C1630.08 423.548 1629.51 422.978 1628.94 422.655C1628.32 422.292 1627.7 422.214 1627.23 422.486Z" fill="#CBDCF9"/>
<path d="M1630.56 424.3L1631.93 423.497L1634.46 427.59L1633.09 428.393L1630.56 424.3Z" fill="#CBDCF9"/>
<path d="M1642.46 429.442L1643.83 428.639L1636.84 434.338L1635.47 435.141L1642.46 429.442Z" fill="#CBDCF9"/>
<path d="M1638.9 423.665L1640.27 422.862C1640.74 422.59 1641.36 422.668 1641.99 423.03L1640.62 423.833C1640 423.471 1639.37 423.393 1638.9 423.665Z" fill="#CBDCF9"/>
<path d="M1640.62 423.833L1641.99 423.03C1642.54 423.341 1643.07 423.859 1643.52 424.546C1644.54 426.113 1644.68 427.952 1643.83 428.639L1642.46 429.442C1643.31 428.755 1643.17 426.929 1642.15 425.349C1641.69 424.662 1641.16 424.144 1640.62 423.833Z" fill="#CBDCF9"/>
<path d="M1640.62 423.834C1641.16 424.144 1641.69 424.662 1642.15 425.349C1643.17 426.916 1643.31 428.756 1642.46 429.442L1635.47 435.141C1634.9 435.608 1634.09 435.53 1633.27 435.063C1632.6 434.675 1631.93 434.014 1631.38 433.134L1627.32 426.567C1626.34 424.973 1626.26 423.173 1627.15 422.551C1627.63 422.214 1628.29 422.292 1628.95 422.668C1629.52 423.005 1630.1 423.562 1630.56 424.3L1633.09 428.393L1638.76 423.769C1639.24 423.38 1639.92 423.432 1640.62 423.834Z" fill="white"/>
<path opacity="0.2" d="M1654.88 423.276L1618.34 445.49C1633.84 453.223 1634.55 462.07 1617.37 472.302L1421.25 584.939C1403.68 597.671 1461.06 601.998 1459.09 613.5C1459.09 613.5 1677.94 486.408 1678.27 484.426C1715.67 452.226 1654.89 423.276 1654.89 423.276H1654.88Z" fill="url(#paint63_linear_326_24937)"/>
<path opacity="0.2" d="M1409.01 656.373C1400.6 661.23 1386.94 661.205 1378.48 656.321C1370.02 651.438 1369.98 643.524 1378.39 638.667C1386.8 633.81 1400.46 633.836 1408.92 638.719C1417.38 643.602 1417.42 651.516 1409.01 656.373Z" fill="url(#paint64_linear_326_24937)"/>
<path d="M1498.43 480.67V619.834V622.088C1498.43 626.828 1490.84 634.185 1487.28 632.139L1420.71 585.742C1417.15 583.696 1414.28 578.178 1414.28 573.437L1407.95 432.007C1407.95 427.266 1417.16 425.09 1420.71 427.137L1428.34 431.553L1491.99 468.339C1495.53 470.399 1498.42 475.903 1498.42 480.644L1498.43 480.67Z" fill="url(#paint65_linear_326_24937)"/>
<path d="M1490.8 485.074V624.238V626.491C1490.8 631.232 1487.93 633.408 1484.37 631.362L1413.08 590.146C1409.53 588.1 1406.66 582.582 1406.66 577.841V436.411C1406.66 431.67 1409.54 429.494 1413.08 431.54L1420.72 435.957L1484.37 472.743C1487.91 474.802 1490.8 480.307 1490.8 485.048V485.074Z" fill="url(#paint66_linear_326_24937)"/>
<path d="M1408.49 561.43V445.089C1408.49 441.605 1410.6 440.012 1413.21 441.514L1484.24 482.561C1486.85 484.064 1488.96 488.118 1488.96 491.589V607.93C1488.96 611.415 1486.85 613.008 1484.24 611.505L1413.21 570.458C1410.6 568.956 1408.49 564.902 1408.49 561.43Z" fill="#E0E2EA"/>
<path d="M1485.87 609.252C1485.16 609.666 1484.28 609.614 1483.4 609.096L1412.37 568.049C1412.02 567.855 1411.39 567.401 1410.96 566.663C1410.6 566.028 1410.17 564.785 1410.17 563.373V447.032C1410.17 445.491 1410.69 444.312 1411.58 443.794C1412.3 443.379 1413.18 443.431 1414.05 443.949L1485.08 484.996C1485.43 485.191 1486.06 485.644 1486.49 486.382C1486.85 487.017 1487.28 488.26 1487.28 489.672V606.013C1487.28 607.555 1486.76 608.746 1485.87 609.252Z" fill="#0F165A"/>
<path style="mix-blend-mode:lighten" opacity="0.2" d="M1490.8 626.505C1490.8 631.245 1487.93 633.421 1484.37 631.375L1413.08 590.159C1409.53 588.113 1406.66 582.595 1406.66 577.854V436.424C1406.66 431.683 1409.54 429.507 1413.08 431.554L1490.8 626.492V626.505Z" fill="url(#paint67_linear_326_24937)"/>
<path d="M1448.29 458.741L1436.49 451.928C1435.74 451.488 1435.12 450.322 1435.12 449.312C1435.12 448.301 1435.72 447.848 1436.49 448.275L1448.29 455.088C1449.04 455.529 1449.66 456.695 1449.66 457.705C1449.66 458.715 1449.05 459.169 1448.29 458.741Z" fill="#372E36"/>
<path d="M1473.73 471.046C1473.73 472.445 1472.75 473.002 1471.53 472.302C1470.32 471.603 1469.33 469.906 1469.33 468.507C1469.33 467.108 1470.32 466.551 1471.53 467.251C1472.75 467.95 1473.73 469.647 1473.73 471.046Z" fill="#64B2C0"/>
<path d="M1472.52 474.012C1471.97 474.012 1471.39 473.844 1470.82 473.52C1469.17 472.562 1467.92 470.411 1467.92 468.507C1467.92 467.329 1468.42 466.37 1469.27 465.878C1470.12 465.386 1471.2 465.438 1472.23 466.033C1473.89 466.992 1475.13 469.142 1475.13 471.046C1475.13 472.225 1474.64 473.183 1473.79 473.675C1473.4 473.896 1472.97 474.012 1472.52 474.012ZM1470.73 468.417C1470.73 469.401 1471.44 470.632 1472.23 471.085C1472.32 470.152 1471.61 468.922 1470.84 468.468C1470.8 468.443 1470.77 468.43 1470.75 468.417H1470.73Z" fill="#222121"/>
<path d="M1416.68 476.693V552.596L1474.19 585.315V509.308L1416.68 476.693Z" fill="white"/>
<path d="M1472.57 528.75C1472.86 528.75 1473.1 528.517 1473.1 528.219V510.448C1473.1 510.254 1473 510.086 1472.84 509.995L1459.49 502.275C1459.25 502.133 1458.92 502.21 1458.77 502.469C1458.62 502.716 1458.7 503.039 1458.96 503.195L1472.04 510.759V528.232C1472.04 528.517 1472.27 528.763 1472.57 528.763V528.75Z" fill="#3A83C9"/>
<path d="M1472.57 583.799C1472.66 583.799 1472.75 583.773 1472.83 583.734C1473 583.644 1473.09 583.463 1473.09 583.281V565.51C1473.09 565.225 1472.85 564.979 1472.56 564.979C1472.26 564.979 1472.03 565.212 1472.03 565.51V582.374L1459.48 575.121C1459.23 574.978 1458.91 575.056 1458.75 575.315C1458.61 575.561 1458.69 575.885 1458.95 576.041L1472.3 583.747C1472.38 583.799 1472.47 583.812 1472.56 583.812L1472.57 583.799Z" fill="#3A83C9"/>
<path d="M1417.98 497.198C1418.26 497.198 1418.51 496.965 1418.51 496.667V479.802L1431.05 487.056C1431.3 487.198 1431.62 487.121 1431.78 486.862C1431.92 486.615 1431.84 486.292 1431.59 486.136L1418.25 478.429C1418.08 478.339 1417.88 478.339 1417.72 478.429C1417.55 478.52 1417.46 478.701 1417.46 478.883V496.667C1417.46 496.952 1417.69 497.198 1417.99 497.198H1417.98Z" fill="#3A83C9"/>
<path d="M1431.31 559.953C1431.5 559.953 1431.68 559.863 1431.77 559.694C1431.91 559.448 1431.83 559.124 1431.57 558.969L1418.49 551.405V533.931C1418.49 533.646 1418.26 533.4 1417.96 533.4C1417.67 533.4 1417.43 533.634 1417.43 533.931V551.716C1417.43 551.91 1417.54 552.078 1417.69 552.169L1431.03 559.876C1431.11 559.928 1431.2 559.94 1431.29 559.94L1431.31 559.953Z" fill="#3A83C9"/>
<path d="M1451.64 519.023C1451.64 519.023 1451.64 519.023 1451.64 519.01V519.023ZM1426.22 542.597C1426.22 542.934 1426.34 543.175 1426.59 543.322C1427.69 543.97 1428.76 544.553 1429.86 545.239C1429.86 545.991 1429.86 546.716 1429.86 547.415C1429.86 547.48 1429.72 547.532 1429.66 547.493C1427.65 546.496 1428.12 545.913 1428.04 548.594C1428.04 548.892 1428.09 549.034 1428.34 549.177C1429.31 549.721 1430.28 550.291 1431.24 550.848C1431.75 551.159 1431.68 551.042 1431.68 551.716C1431.68 552.298 1431.68 552.868 1431.68 553.49C1432.28 553.84 1432.87 554.177 1433.49 554.539V552.156C1434 552.454 1434.5 552.713 1434.97 553.024C1435.23 553.192 1435.31 553.114 1435.3 552.778C1435.27 552.221 1435.3 551.677 1435.3 551.146C1435.3 550.9 1435.26 550.757 1435.05 550.641C1434.61 550.407 1434.16 550.148 1433.72 549.876C1433.53 549.76 1433.49 549.837 1433.49 550.071C1433.49 550.666 1433.49 551.249 1433.49 551.845C1433.49 552.078 1433.44 552.13 1433.25 552.026C1432.79 551.754 1432.34 551.482 1431.87 551.223C1431.75 551.159 1431.66 551.094 1431.66 550.887C1431.66 549.371 1431.66 547.856 1431.66 546.275C1432.21 546.599 1432.72 546.884 1433.27 547.208C1433.42 547.312 1433.49 547.26 1433.49 547.04C1433.49 546.418 1433.49 545.809 1433.49 545.187C1433.49 544.967 1433.53 544.89 1433.71 545.006C1434.16 545.278 1434.61 545.537 1435.07 545.796C1435.23 545.887 1435.3 546.003 1435.3 546.237C1435.3 546.819 1435.3 547.428 1435.3 548.011C1435.3 548.309 1435.38 548.439 1435.58 548.555C1436 548.775 1436.4 549.047 1436.81 549.255C1437.07 549.384 1437.12 549.552 1437.12 549.863C1437.12 552.13 1437.12 554.397 1437.12 556.676C1438.84 557.726 1440.54 558.645 1442.26 559.681C1442.52 559.824 1442.59 559.798 1442.58 559.435C1442.56 558.878 1442.58 558.347 1442.58 557.79C1442.58 557.544 1442.62 557.454 1442.83 557.57C1443.27 557.842 1443.69 558.088 1444.13 558.321C1444.33 558.425 1444.39 558.568 1444.39 558.827C1444.39 559.409 1444.39 560.018 1444.39 560.601C1444.39 560.808 1444.44 560.925 1444.61 561.016C1445.67 561.624 1446.75 562.233 1447.81 562.868C1447.99 562.971 1448.03 562.894 1448.03 562.674C1448.03 562.078 1448.03 561.495 1448.03 560.899C1448.03 560.653 1448.08 560.588 1448.27 560.705C1448.71 560.977 1449.17 561.236 1449.61 561.469C1449.83 561.586 1449.88 561.728 1449.88 562C1449.88 562.661 1449.88 563.321 1449.88 564.008C1451.09 564.707 1452.28 565.394 1453.5 566.106C1453.5 565.368 1453.5 564.642 1453.5 563.917C1453.5 563.839 1453.36 563.645 1453.28 563.593C1452.84 563.321 1452.39 563.062 1451.95 562.816C1451.75 562.712 1451.68 562.583 1451.69 562.324C1451.7 561.754 1451.7 561.171 1451.69 560.588C1451.69 560.316 1451.75 560.277 1451.95 560.394C1452.39 560.666 1452.81 560.886 1453.25 561.158C1453.45 561.275 1453.51 561.223 1453.51 560.951C1453.51 560.277 1453.51 559.604 1453.51 558.904C1452.4 558.205 1451.3 557.609 1450.19 556.961C1449.94 556.819 1449.88 556.676 1449.88 556.353C1449.88 554.993 1449.88 553.633 1449.88 552.26C1449.88 551.988 1449.93 551.923 1450.15 552.052C1450.67 552.363 1451.18 552.635 1451.72 552.933C1451.72 552.285 1451.69 551.625 1451.72 550.99C1451.72 550.653 1451.66 550.472 1451.38 550.33C1450.98 550.135 1450.58 549.863 1450.19 549.656C1449.98 549.54 1449.89 549.423 1449.89 549.125C1449.9 548.452 1449.89 547.765 1449.89 547.079C1449.37 546.781 1448.84 546.457 1448.33 546.172C1448.12 546.055 1448.05 545.939 1448.05 545.654C1448.08 544.177 1448.02 542.636 1448.09 541.185C1448.62 541.496 1449.14 541.781 1449.66 542.092C1449.84 542.208 1449.9 542.157 1449.9 541.91C1449.9 541.211 1449.9 540.524 1449.9 539.825C1449.31 539.475 1448.71 539.139 1448.09 538.776C1448.05 537.234 1448.09 535.771 1448.08 534.255C1448.08 533.983 1448.02 533.841 1447.81 533.737C1447.39 533.517 1446.99 533.245 1446.58 533.038C1446.31 532.895 1446.24 532.727 1446.26 532.403C1446.27 531.859 1446.26 531.289 1446.26 530.732C1446.26 530.499 1446.2 530.383 1446.02 530.292C1445.58 530.059 1445.16 529.787 1444.72 529.541C1444.52 529.437 1444.43 529.307 1444.43 529.022C1444.44 528.466 1444.44 527.896 1444.43 527.313C1444.43 527.015 1444.51 526.989 1444.72 527.118C1445.74 527.714 1446.76 528.297 1447.78 528.893C1448 529.022 1448.08 528.997 1448.07 528.686C1448.05 528.103 1448.07 527.546 1448.07 526.976C1448.07 526.665 1448.14 526.639 1448.36 526.769C1448.87 527.08 1449.37 527.352 1449.9 527.662C1449.9 526.885 1449.9 526.16 1449.9 525.422C1449.9 525.176 1449.75 525.15 1449.65 525.098C1447.91 524.088 1446.19 523.103 1444.46 522.093C1444.46 521.316 1444.46 520.577 1444.46 519.865C1444.46 519.8 1444.63 519.787 1444.72 519.839C1445.83 520.474 1446.93 521.108 1448.04 521.756C1448.09 520.979 1448.03 520.163 1448.02 519.347C1448.65 519.697 1449.27 520.046 1449.9 520.409C1449.9 519.709 1449.9 519.023 1449.9 518.324C1449.9 518.052 1449.97 518.013 1450.16 518.142C1450.68 518.453 1451.2 518.738 1451.72 519.049C1451.72 518.246 1451.72 517.443 1451.72 516.64C1451.12 516.29 1450.52 515.953 1449.9 515.591V513.181C1450.51 513.531 1451.11 513.868 1451.72 514.218C1451.72 513.518 1451.72 512.819 1451.72 512.132C1451.72 511.86 1451.65 511.718 1451.44 511.614C1450.94 511.342 1450.43 511.031 1449.9 510.733C1449.9 509.956 1449.9 509.231 1449.9 508.505C1449.9 508.441 1450.07 508.428 1450.15 508.48C1451.15 509.036 1452.14 509.619 1453.13 510.189C1453.38 510.336 1453.51 510.245 1453.51 509.917C1453.51 509.386 1453.51 508.842 1453.51 508.324C1453.51 508.078 1453.45 507.948 1453.27 507.858C1452.83 507.612 1452.37 507.34 1451.94 507.094C1451.75 506.99 1451.69 506.873 1451.69 506.627C1451.69 506.031 1451.69 505.423 1451.69 504.814C1451.69 504.723 1451.61 504.503 1451.56 504.477C1451.02 504.14 1450.46 503.829 1449.88 503.493V508.324C1449.3 507.987 1448.75 507.676 1448.2 507.34C1448.14 507.301 1448.05 507.068 1448.05 506.964C1448.04 506.368 1448.04 505.772 1448.05 505.19C1448.05 504.918 1447.99 504.801 1447.8 504.697C1447.37 504.464 1446.94 504.231 1446.51 503.959C1446.28 503.817 1446.23 503.907 1446.23 504.192C1446.23 504.762 1446.23 505.332 1446.23 505.902C1446.23 506.148 1446.17 506.2 1445.98 506.083C1445.57 505.824 1445.14 505.578 1444.73 505.358C1444.48 505.228 1444.41 505.086 1444.41 504.762C1444.42 503.428 1444.41 502.081 1444.41 500.747C1444.41 500.423 1444.33 500.28 1444.1 500.151C1442.48 499.231 1440.86 498.299 1439.26 497.353C1439 497.211 1438.95 497.288 1438.95 497.599C1438.95 498.933 1438.95 500.255 1438.95 501.589C1438.95 501.977 1438.86 501.99 1438.6 501.835C1438.2 501.576 1437.78 501.368 1437.37 501.122C1437.17 500.993 1437.11 501.071 1437.11 501.33C1437.11 502.729 1437.11 504.127 1437.11 505.526C1437.11 505.772 1437.16 505.889 1437.36 505.993C1437.87 506.278 1438.38 506.575 1438.91 506.886V509.308C1438.48 509.062 1438.05 508.816 1437.64 508.57C1437.29 508.372 1437.11 508.501 1437.11 508.959C1437.11 512.754 1437.11 516.562 1437.11 520.357C1436.57 520.046 1436.04 519.735 1435.49 519.437C1435.34 519.347 1435.3 519.23 1435.3 519.049C1435.3 518.453 1435.3 517.831 1435.3 517.236C1435.3 517.002 1435.26 516.873 1435.07 516.769C1434.63 516.536 1434.17 516.277 1433.73 516.005C1433.55 515.888 1433.49 515.927 1433.49 516.186C1433.49 516.782 1433.49 517.365 1433.49 517.974C1433.49 518.22 1433.44 518.285 1433.25 518.168C1432.81 517.896 1432.36 517.663 1431.92 517.391C1431.74 517.287 1431.66 517.287 1431.66 517.559C1431.66 518.259 1431.66 518.958 1431.66 519.697C1432.15 519.982 1432.63 520.254 1433.1 520.526C1433.36 520.672 1433.49 520.91 1433.49 521.238C1433.49 521.769 1433.49 522.3 1433.49 522.844C1433.49 523.103 1433.42 523.142 1433.24 523.025C1432.72 522.702 1432.21 522.43 1431.69 522.119V524.541C1432.17 524.813 1432.63 525.085 1433.11 525.357C1433.36 525.504 1433.49 525.745 1433.49 526.082C1433.49 526.574 1433.49 527.054 1433.49 527.546C1433.49 527.848 1433.37 527.934 1433.14 527.805C1432.65 527.52 1432.18 527.235 1431.68 526.976V529.398C1431.08 529.061 1430.5 528.712 1429.86 528.349C1429.86 528.971 1429.86 529.554 1429.86 530.136C1429.86 530.849 1429.94 530.797 1429.4 530.486C1428.96 530.24 1428.52 529.981 1428.04 529.696V541.781C1427.43 541.431 1426.85 541.094 1426.23 540.732C1426.23 540.019 1426.23 539.32 1426.23 538.62C1426.23 538.413 1426.16 538.297 1426.01 538.206C1425.57 537.96 1425.12 537.688 1424.68 537.442C1424.48 537.338 1424.41 537.222 1424.42 536.95C1424.42 536.38 1424.43 535.797 1424.42 535.214C1424.42 534.916 1424.5 534.903 1424.7 535.02C1425.14 535.292 1425.57 535.525 1426.01 535.784C1426.19 535.887 1426.24 535.836 1426.24 535.615C1426.24 534.204 1426.24 532.792 1426.24 531.38C1426.24 531.211 1426.24 531.069 1426.06 530.978C1424.95 530.344 1423.82 529.696 1422.71 529.048C1422.7 529.048 1422.67 529.048 1422.65 529.048V538.672C1423.84 539.359 1425.01 540.045 1426.23 540.745C1426.27 541.431 1426.24 542.027 1426.26 542.688L1426.22 542.597ZM1448.02 512.093C1447.99 512.793 1448 513.466 1448.02 514.179C1448.02 514.425 1447.95 514.477 1447.77 514.36C1447.33 514.088 1446.88 513.829 1446.44 513.596C1446.27 513.505 1446.2 513.389 1446.2 513.155C1446.2 510.928 1446.2 508.7 1446.2 506.472C1446.2 506.265 1446.26 506.2 1446.42 506.303C1446.89 506.575 1447.34 506.847 1447.81 507.107C1447.98 507.197 1448.03 507.327 1448.02 507.521C1448.02 508.207 1448.04 508.933 1448.05 509.632C1448.66 509.995 1449.23 510.371 1449.84 510.707C1449.84 511.562 1449.84 512.365 1449.84 513.155C1449.24 512.806 1448.64 512.469 1448.03 512.106L1448.02 512.093ZM1446.19 517.935C1446.2 517.365 1446.19 516.782 1446.19 516.199C1446.19 515.966 1446.24 515.888 1446.44 516.005C1446.89 516.277 1447.34 516.536 1447.8 516.782C1447.98 516.886 1448.02 517.002 1448.02 517.223C1448.02 517.831 1448.02 518.453 1448.02 519.062C1448.02 519.153 1447.98 519.23 1447.96 519.321C1447.47 519.036 1446.98 518.725 1446.49 518.453C1446.29 518.337 1446.2 518.22 1446.2 517.935H1446.19ZM1433.5 530.59C1433.5 531.237 1433.5 531.885 1433.5 532.533C1433.5 532.61 1433.42 532.701 1433.38 532.675C1432.83 532.364 1432.27 532.04 1431.7 531.717V529.32C1432.24 529.631 1432.78 529.942 1433.32 530.24C1433.45 530.318 1433.51 530.395 1433.51 530.59H1433.5ZM1437.14 522.818C1437.14 523.492 1437.12 524.152 1437.14 524.826C1437.14 525.059 1437.1 525.15 1436.9 525.033C1436.45 524.761 1436 524.502 1435.54 524.243C1435.39 524.152 1435.32 524.049 1435.32 523.828C1435.32 523.22 1435.32 522.598 1435.32 521.976C1435.32 521.756 1435.39 521.73 1435.54 521.821C1436.01 522.106 1436.49 522.365 1436.95 522.637C1437.02 522.676 1437.08 522.753 1437.15 522.805L1437.14 522.818ZM1437.14 529.709C1437.14 529.929 1437.08 529.968 1436.92 529.877C1436.45 529.605 1436 529.333 1435.53 529.074C1435.39 528.997 1435.31 528.906 1435.32 528.686C1435.32 528.064 1435.32 527.429 1435.32 526.808C1435.32 526.613 1435.38 526.561 1435.53 526.652C1435.76 526.795 1436 526.924 1436.23 527.054C1436.46 527.183 1436.7 527.326 1436.93 527.455C1437.08 527.533 1437.16 527.649 1437.15 527.87C1437.15 528.478 1437.15 529.1 1437.15 529.722L1437.14 529.709ZM1438.95 511.99C1438.95 511.744 1439 511.692 1439.19 511.808C1439.71 512.119 1440.23 512.417 1440.74 512.715C1440.74 513.44 1440.74 514.179 1440.76 514.904C1440.76 515.098 1440.69 515.098 1440.56 515.034C1440.1 514.762 1439.63 514.49 1439.15 514.218C1438.99 514.127 1438.93 514.01 1438.95 513.803C1438.95 513.207 1438.95 512.598 1438.95 511.99ZM1442.59 514.192C1442.59 513.881 1442.54 513.725 1442.28 513.583C1441.77 513.311 1441.26 512.987 1440.74 512.689V510.28C1441.95 510.966 1443.09 511.64 1444.22 512.288C1444.41 512.391 1444.39 512.547 1444.39 512.702C1444.39 514.101 1444.39 515.5 1444.39 516.899C1444.39 517.145 1444.34 517.197 1444.15 517.093C1443.71 516.821 1443.25 516.562 1442.81 516.329C1442.62 516.225 1442.57 516.096 1442.57 515.85C1442.57 515.293 1442.57 514.736 1442.57 514.179L1442.59 514.192ZM1444.41 509.658C1444.41 509.917 1444.33 509.943 1444.15 509.827C1443.71 509.555 1443.25 509.296 1442.81 509.062C1442.65 508.972 1442.57 508.842 1442.58 508.622C1442.58 507.935 1442.56 507.223 1442.54 506.524C1441.42 505.798 1440.3 505.177 1439.18 504.516C1439.1 504.464 1438.95 504.27 1438.95 504.218C1438.93 503.48 1438.95 502.754 1438.95 501.977C1439.55 502.327 1440.14 502.664 1440.76 503.026C1440.76 502.314 1440.77 501.679 1440.76 500.967C1440.76 500.669 1440.84 500.643 1441.03 500.76C1441.47 501.019 1441.9 501.278 1442.34 501.511C1442.53 501.615 1442.61 501.757 1442.59 502.016C1442.59 502.508 1442.59 503.013 1442.59 503.506C1442.59 504.153 1442.54 504.05 1443.01 504.322C1443.38 504.542 1443.77 504.775 1444.15 504.982C1444.33 505.086 1444.39 505.202 1444.39 505.449C1444.39 506.847 1444.39 508.259 1444.39 509.671L1444.41 509.658ZM1448 541.133C1447.43 540.809 1446.89 540.499 1446.35 540.162C1446.29 540.136 1446.22 539.955 1446.22 539.89C1446.22 539.229 1446.22 538.556 1446.22 537.908C1446.22 537.83 1446.29 537.74 1446.33 537.766C1446.89 538.076 1447.43 538.4 1448 538.711V541.12V541.133ZM1446.2 557.363C1446.2 557.156 1446.24 557.078 1446.41 557.182C1446.88 557.467 1447.36 557.713 1447.82 558.011C1447.89 558.049 1448 558.257 1448 558.36C1448.03 558.684 1448 559.008 1448 559.319C1448 559.63 1448 559.928 1448 560.238C1448 560.459 1447.94 560.498 1447.78 560.394C1447.33 560.122 1446.88 559.863 1446.42 559.604C1446.26 559.513 1446.18 559.397 1446.19 559.163C1446.19 558.568 1446.19 557.959 1446.19 557.35L1446.2 557.363ZM1446.15 549.773C1446.58 550.019 1447.02 550.252 1447.45 550.498C1448.02 550.822 1448.02 550.822 1448.02 551.599V553.244C1447.43 552.907 1446.89 552.609 1446.36 552.273C1446.31 552.247 1446.22 552.001 1446.22 551.91C1446.18 551.197 1446.28 550.537 1446.15 549.786V549.773ZM1444.39 548.296C1444.39 545.498 1444.39 542.688 1444.39 539.877C1444.39 539.324 1444.6 539.169 1445.01 539.411C1445.4 539.631 1445.79 539.864 1446.2 540.097C1446.2 541.535 1446.2 542.934 1446.2 544.384C1446.2 545.006 1446.17 544.915 1446.62 545.187C1447.07 545.459 1447.54 545.718 1448.02 545.99C1448.02 546.768 1448.02 547.493 1448.02 548.205C1448.02 548.27 1447.87 548.322 1447.8 548.27C1447.34 548.024 1446.89 547.765 1446.44 547.493C1446.26 547.389 1446.2 547.441 1446.2 547.674C1446.2 548.387 1446.24 549.138 1446.15 549.786C1445.67 549.501 1445.19 549.203 1444.72 548.944C1444.46 548.801 1444.39 548.646 1444.39 548.309V548.296ZM1440.74 553.542C1440.74 552.052 1440.74 550.55 1440.74 549.047C1441.87 549.695 1443 550.356 1444.11 550.99C1444.32 551.107 1444.39 551.236 1444.38 551.508C1444.29 554.112 1444.83 553.775 1442.79 552.674C1442.62 552.57 1442.56 552.609 1442.56 552.842C1442.5 555.524 1442.98 555.096 1440.99 554.06C1440.78 553.943 1440.72 553.814 1440.72 553.529L1440.74 553.542ZM1438.93 543.4C1438.93 543.206 1439.01 543.206 1439.13 543.283C1439.59 543.555 1440.07 543.827 1440.54 544.099C1440.68 544.177 1440.74 544.281 1440.74 544.488C1440.74 546.003 1440.74 547.532 1440.74 549.047C1440.15 548.698 1439.55 548.361 1438.95 548.011C1438.95 546.444 1438.95 544.928 1438.95 543.413L1438.93 543.4ZM1438.93 535.9C1437.81 535.253 1436.72 534.605 1435.6 533.983C1435.35 533.854 1435.3 533.711 1435.3 533.413C1435.31 532.869 1435.31 532.312 1435.3 531.743C1435.3 531.445 1435.36 531.419 1435.57 531.548C1436.7 532.209 1437.79 532.844 1438.93 533.491C1438.93 531.224 1438.93 528.971 1438.93 526.704C1438.93 526.376 1439.06 526.285 1439.31 526.432C1439.77 526.704 1440.24 526.976 1440.72 527.248V524.865C1439.58 524.126 1438.44 523.543 1437.3 522.857C1437.25 522.831 1437.19 522.831 1437.14 522.818C1437.14 521.976 1437.14 521.147 1437.12 520.305C1437.72 520.655 1438.31 520.992 1438.93 521.354C1438.93 519.839 1438.93 518.375 1438.93 516.86C1438.93 516.601 1438.99 516.536 1439.19 516.653C1439.59 516.899 1439.99 517.119 1440.4 517.352C1440.64 517.49 1440.76 517.719 1440.76 518.039C1440.76 518.673 1440.76 519.308 1440.76 519.994C1441.99 520.707 1443.18 521.393 1444.41 522.106C1444.41 522.818 1444.41 523.466 1444.41 524.139C1444.41 524.437 1444.34 524.502 1444.12 524.36C1443.63 524.049 1443.12 523.777 1442.62 523.479C1442.56 526.561 1442.62 529.722 1442.59 532.831C1442.59 533.103 1442.67 533.219 1442.85 533.323C1443.29 533.556 1443.72 533.828 1444.16 534.074C1444.34 534.178 1444.41 534.307 1444.41 534.553C1444.41 535.123 1444.41 535.706 1444.41 536.302C1444.41 536.6 1444.34 536.639 1444.12 536.509C1443 535.861 1441.88 535.175 1440.77 534.592C1440.77 535.33 1440.77 536.03 1440.77 536.729C1440.77 536.937 1440.85 537.027 1440.98 537.105C1441.44 537.364 1441.9 537.649 1442.36 537.895C1442.53 537.986 1442.61 538.089 1442.61 538.335C1442.61 538.931 1442.61 539.54 1442.61 540.149C1442.61 540.408 1442.53 540.434 1442.35 540.33C1441.91 540.058 1441.46 539.825 1441.02 539.553C1440.81 539.423 1440.76 539.488 1440.76 539.76C1440.76 540.343 1440.76 540.913 1440.76 541.509C1440.76 541.794 1440.69 541.807 1440.5 541.69C1440.06 541.418 1439.63 541.172 1439.19 540.939C1438.99 540.835 1438.93 540.706 1438.93 540.447C1438.93 538.944 1438.93 537.455 1438.93 535.952V535.9ZM1431.68 534.514C1431.68 534.204 1431.74 534.152 1431.97 534.281C1433.59 535.227 1435.21 536.159 1436.82 537.079C1437.04 537.209 1437.14 537.325 1437.14 537.649C1437.14 539.812 1437.14 541.975 1437.14 544.151C1437.14 544.449 1437.07 544.488 1436.85 544.358C1435.13 543.348 1433.42 542.377 1431.7 541.366C1431.7 539.074 1431.7 536.794 1431.7 534.501L1431.68 534.514ZM1451.65 514.179C1451.65 514.179 1451.65 514.179 1451.65 514.166V514.179ZM1460.71 548.49C1460.71 549.19 1460.71 549.889 1460.71 550.576C1460.71 550.822 1460.76 550.938 1460.95 551.042C1461.4 551.288 1461.86 551.547 1462.31 551.832C1462.5 551.949 1462.56 551.871 1462.54 551.638C1462.54 550.938 1462.53 550.252 1462.54 549.578C1463.14 549.928 1463.71 550.252 1464.32 550.602C1464.35 551.314 1464.33 552.013 1464.33 552.713C1464.33 552.92 1464.38 553.037 1464.54 553.14C1465 553.399 1465.45 553.658 1465.92 553.943C1466.09 554.047 1466.14 553.982 1466.14 553.775C1466.14 553.166 1466.14 552.57 1466.14 551.962C1466.14 551.716 1466.19 551.664 1466.39 551.78C1466.89 552.091 1467.39 552.363 1467.93 552.674V550.252C1467.34 549.915 1466.76 549.578 1466.15 549.229C1466.15 548.439 1466.15 547.7 1466.15 546.962C1466.15 546.897 1466.28 546.884 1466.36 546.923C1466.89 547.208 1467.39 547.519 1467.93 547.817C1467.98 546.353 1467.93 544.851 1467.95 543.374C1467.95 543.089 1467.89 542.947 1467.67 542.83C1467.24 542.61 1466.81 542.338 1466.39 542.105C1466.22 542.014 1466.13 541.897 1466.13 541.638C1466.13 541.043 1466.13 540.434 1466.13 539.825C1466.13 539.605 1466.19 539.566 1466.35 539.657C1466.79 539.916 1467.24 540.162 1467.68 540.434C1467.87 540.55 1467.95 540.537 1467.95 540.252C1467.93 539.527 1467.98 538.867 1467.93 538.115C1466.73 537.429 1465.56 536.742 1464.34 536.043C1464.29 534.54 1464.33 533.09 1464.33 531.613C1464.33 531.302 1464.28 531.134 1464.02 531.004C1463.53 530.745 1463.05 530.447 1462.52 530.136V531.717C1462.52 532.278 1462.31 532.438 1461.9 532.196C1461.51 531.976 1461.12 531.743 1460.69 531.496C1460.69 530.745 1460.69 530.072 1460.69 529.346C1460.69 529.152 1460.64 529.048 1460.5 528.958C1460.03 528.699 1459.55 528.414 1459.09 528.142C1458.96 528.064 1458.88 528.064 1458.88 528.258C1458.88 529.774 1458.88 531.289 1458.88 532.844C1460.6 533.906 1462.32 534.851 1464.06 535.849C1464.28 535.978 1464.35 536.095 1464.34 536.393C1464.33 536.937 1464.33 537.494 1464.34 538.063C1464.34 538.374 1464.28 538.439 1464.04 538.297C1462.92 537.636 1461.82 537.001 1460.69 536.354C1460.69 537.869 1460.69 539.333 1460.69 540.848C1460.69 541.107 1460.63 541.172 1460.43 541.043C1459.99 540.771 1459.54 540.537 1459.1 540.265C1458.93 540.162 1458.87 540.214 1458.87 540.447C1458.87 541.133 1458.87 541.82 1458.87 542.532C1457.65 541.923 1456.45 541.081 1455.25 540.499C1455.25 541.172 1455.25 541.859 1455.25 542.532C1455.25 542.83 1455.32 542.947 1455.54 543.063C1456.66 543.698 1457.77 544.346 1458.88 544.98C1458.88 544.281 1458.88 543.581 1458.88 542.869C1458.88 542.623 1458.93 542.558 1459.12 542.675C1460.16 543.296 1461.22 543.905 1462.27 544.501C1462.45 544.605 1462.52 544.734 1462.52 544.98C1462.52 546.379 1462.52 547.791 1462.52 549.203C1462.52 549.462 1462.45 549.488 1462.27 549.371C1461.74 549.06 1461.21 548.762 1460.68 548.464L1460.71 548.49ZM1464.35 548.387C1464.35 548.322 1464.46 548.244 1464.51 548.283C1465.04 548.568 1465.57 548.892 1466.15 549.229C1466.15 549.993 1466.15 550.718 1466.15 551.431C1466.15 551.495 1466.06 551.573 1466.02 551.547C1465.48 551.249 1464.92 550.925 1464.35 550.589C1464.35 549.824 1464.35 549.099 1464.35 548.387ZM1462.53 541.936C1462.53 541.353 1462.53 540.758 1462.53 540.162C1462.53 539.903 1462.61 539.877 1462.78 539.98C1463.81 540.589 1464.85 541.185 1465.88 541.781C1466.1 541.91 1466.15 542.053 1466.14 542.312C1466.14 542.985 1466.14 543.659 1466.14 544.333C1466.14 545.045 1466.14 545.744 1466.14 546.47C1466.14 546.69 1466.09 546.755 1465.91 546.651C1465.45 546.379 1465 546.12 1464.55 545.861C1464.38 545.77 1464.32 545.641 1464.32 545.408C1464.32 544.915 1464.32 544.41 1464.32 543.918C1464.32 543.219 1464.37 543.335 1463.84 543.024C1463.47 542.804 1463.11 542.597 1462.75 542.403C1462.57 542.299 1462.49 542.182 1462.5 541.936H1462.53ZM1435.3 511.51C1435.3 506.161 1435.3 500.824 1435.3 495.475C1435.3 495.009 1435.3 495.009 1434.95 494.814C1430.95 492.509 1426.97 490.203 1422.97 487.885C1422.72 487.738 1422.59 487.833 1422.59 488.17C1422.59 493.662 1422.59 499.141 1422.59 504.633C1426.72 507.016 1430.83 509.399 1434.95 511.769C1435.18 511.899 1435.3 511.813 1435.3 511.51ZM1433.49 496.809C1433.49 500.565 1433.49 504.335 1433.49 508.104C1433.49 508.441 1433.41 508.467 1433.16 508.337C1430.36 506.705 1427.54 505.073 1424.73 503.454C1424.48 503.311 1424.39 503.169 1424.39 502.832C1424.39 500.967 1424.39 499.089 1424.39 497.224C1424.39 495.358 1424.39 493.48 1424.39 491.602C1424.39 491.252 1424.44 491.162 1424.73 491.33C1427.54 492.975 1430.36 494.594 1433.16 496.213C1433.41 496.356 1433.49 496.485 1433.47 496.822L1433.49 496.809ZM1467.98 530.434C1467.95 524.916 1468 519.437 1467.95 513.907C1463.84 511.472 1459.72 509.153 1455.61 506.757C1455.38 506.627 1455.26 506.714 1455.26 507.016C1455.26 512.365 1455.26 517.702 1455.26 523.051C1455.26 523.362 1455.38 523.582 1455.61 523.712C1459.62 526.03 1463.63 528.349 1467.64 530.68C1467.9 530.823 1467.96 530.771 1467.96 530.434H1467.98ZM1466.17 527.028C1466.17 527.326 1466.09 527.352 1465.87 527.235C1463.03 525.59 1460.2 523.958 1457.38 522.326C1457.15 522.196 1457.07 522.067 1457.08 521.756C1457.08 519.891 1457.08 518.013 1457.08 516.148C1457.08 514.243 1457.08 512.339 1457.08 510.422C1457.08 510.137 1457.14 510.047 1457.37 510.189C1460.2 511.834 1463.05 513.479 1465.88 515.111C1466.1 515.241 1466.18 515.37 1466.18 515.668C1466.18 519.45 1466.18 523.246 1466.18 527.041L1466.17 527.028ZM1455.26 550.602C1455.26 556.12 1455.26 561.624 1455.26 567.129C1459.39 569.513 1463.51 571.896 1467.64 574.292C1467.9 574.448 1467.96 574.396 1467.96 574.046C1467.94 568.515 1467.99 563.036 1467.94 557.505C1463.81 555.122 1459.7 552.739 1455.57 550.356C1455.31 550.2 1455.25 550.265 1455.25 550.602H1455.26ZM1457.07 565.368C1457.07 561.598 1457.07 557.816 1457.07 554.034C1457.07 553.723 1457.14 553.658 1457.37 553.801C1458.77 554.63 1460.18 555.433 1461.57 556.236C1463 557.052 1464.41 557.881 1465.83 558.684C1466.09 558.827 1466.15 558.982 1466.15 559.319C1466.15 563.075 1466.15 566.818 1466.15 570.588C1466.15 570.911 1466.09 570.976 1465.84 570.834C1463.02 569.189 1460.2 567.557 1457.38 565.938C1457.16 565.808 1457.07 565.692 1457.07 565.368ZM1422.58 513.92C1422.58 514.256 1422.67 514.386 1422.9 514.515C1423.32 514.736 1423.73 514.995 1424.16 515.228C1424.34 515.331 1424.41 515.448 1424.41 515.694C1424.41 516.264 1424.41 516.847 1424.41 517.43C1424.41 517.689 1424.34 517.754 1424.15 517.637C1423.71 517.365 1423.25 517.132 1422.81 516.86C1422.66 516.769 1422.59 516.782 1422.59 517.002C1422.62 519.36 1422.54 521.652 1422.63 524.023C1423.11 524.295 1423.59 524.58 1424.07 524.852C1424.3 524.99 1424.42 525.21 1424.42 525.512C1424.42 526.069 1424.42 526.626 1424.42 527.183C1424.42 527.39 1424.47 527.507 1424.64 527.598C1425.1 527.857 1425.56 528.116 1426.02 528.401C1426.19 528.504 1426.24 528.427 1426.23 528.232C1426.23 527.675 1426.23 527.131 1426.23 526.561C1426.23 526.212 1426.28 526.108 1426.57 526.289C1427.04 526.6 1427.52 526.846 1428.04 527.157C1428.04 526.328 1428.04 525.59 1428.08 524.8C1428.67 525.098 1429.26 525.409 1429.85 525.771C1429.9 524.295 1429.85 522.792 1429.88 521.303C1429.88 521.018 1429.81 520.888 1429.61 520.785C1429.18 520.551 1428.75 520.305 1428.33 520.046C1428.11 519.904 1428.04 519.969 1428.04 520.266C1428.04 521.756 1428.04 523.22 1428.04 524.709C1426.94 524.126 1425.85 523.44 1424.75 522.831C1424.47 522.676 1424.41 522.507 1424.42 522.17C1424.44 521.652 1424.43 521.108 1424.42 520.577C1424.42 520.292 1424.5 520.253 1424.7 520.37C1425.13 520.629 1425.56 520.862 1425.98 521.121C1426.18 521.238 1426.24 521.186 1426.24 520.927C1426.24 519.58 1426.24 518.246 1426.24 516.912C1426.24 516.592 1426.36 516.502 1426.59 516.64C1427.01 516.886 1427.42 517.132 1427.85 517.352C1427.92 517.391 1428.05 517.352 1428.05 517.3C1428.07 516.562 1428.05 515.824 1428.05 515.034C1426.91 514.386 1425.83 513.738 1424.7 513.104C1424.51 513 1424.43 512.883 1424.44 512.611C1424.44 512.042 1424.44 511.459 1424.44 510.876C1424.44 510.617 1424.5 510.552 1424.7 510.669C1425.14 510.941 1425.6 511.174 1426.04 511.446C1426.2 511.549 1426.27 511.51 1426.27 511.277C1426.27 510.669 1426.27 510.06 1426.27 509.464C1426.27 509.244 1426.22 509.114 1426.04 509.011C1425.58 508.764 1425.13 508.505 1424.68 508.22C1424.5 508.117 1424.44 508.169 1424.44 508.402C1424.44 509.088 1424.44 509.775 1424.44 510.5C1423.84 510.15 1423.25 509.814 1422.65 509.464C1422.59 510.941 1422.65 512.443 1422.62 513.92H1422.58ZM1455.26 540.499C1455.26 539.799 1455.26 539.087 1455.26 538.374C1455.26 538.128 1455.31 538.063 1455.51 538.18C1455.95 538.452 1456.4 538.685 1456.84 538.957C1457.02 539.074 1457.08 539.022 1457.08 538.763C1457.08 538.167 1457.08 537.571 1457.08 536.988C1457.08 536.742 1457.02 536.626 1456.84 536.522C1455.79 535.926 1454.74 535.317 1453.69 534.709C1453.5 534.592 1453.45 534.657 1453.45 534.903C1453.45 535.499 1453.45 536.082 1453.45 536.678C1453.45 536.911 1453.4 536.962 1453.22 536.859C1452.75 536.587 1452.3 536.315 1451.83 536.056C1451.69 535.978 1451.62 535.887 1451.62 535.68C1451.62 534.229 1451.62 532.766 1451.62 531.315C1451.62 531.276 1451.64 531.237 1451.65 531.199C1451.62 531.16 1451.59 531.108 1451.56 531.082C1450.99 530.745 1450.41 530.421 1449.83 530.072V534.89C1450.25 535.136 1450.68 535.382 1451.11 535.628C1451.45 535.827 1451.62 536.159 1451.62 536.626C1451.62 537.209 1451.62 537.804 1451.62 538.387C1452.83 539.061 1454.03 539.734 1455.23 540.473L1455.26 540.499ZM1424.41 544.851C1424.39 545.408 1424.41 545.978 1424.41 546.56C1424.41 546.807 1424.34 546.858 1424.16 546.742C1423.72 546.47 1423.27 546.237 1422.83 545.965C1422.66 545.861 1422.58 545.887 1422.59 546.133C1422.59 546.755 1422.59 547.363 1422.59 547.985C1422.59 548.205 1422.66 548.309 1422.81 548.387C1423.34 548.685 1423.87 548.996 1424.41 549.306C1424.92 549.604 1425.44 549.889 1425.94 550.2C1426.14 550.317 1426.22 550.304 1426.22 550.019C1426.22 548.62 1426.22 547.221 1426.22 545.822C1426.22 545.563 1426.14 545.459 1425.97 545.356C1425.53 545.123 1425.1 544.851 1424.66 544.605C1424.47 544.501 1424.39 544.371 1424.41 544.112C1424.41 543.529 1424.41 542.934 1424.41 542.338C1424.41 542.144 1424.38 542.014 1424.2 541.91C1423.73 541.651 1423.25 541.379 1422.79 541.094C1422.63 541.004 1422.58 541.043 1422.58 541.25C1422.58 541.872 1422.58 542.48 1422.58 543.102C1422.58 543.335 1422.63 543.452 1422.81 543.542C1423.25 543.789 1423.68 544.061 1424.12 544.281C1424.34 544.397 1424.41 544.553 1424.41 544.838V544.851ZM1451.64 530.939C1451.64 531.03 1451.66 531.134 1451.66 531.237C1452.15 531.367 1452.67 531.768 1453.18 532.04C1453.36 532.157 1453.45 532.144 1453.45 531.859C1453.45 530.447 1453.45 529.035 1453.45 527.624C1453.45 527.455 1453.45 527.313 1453.27 527.222C1452.74 526.924 1452.21 526.613 1451.66 526.289C1451.65 526.38 1451.62 526.445 1451.62 526.523C1451.62 527.986 1451.62 529.463 1451.62 530.927L1451.64 530.939ZM1449.83 547.053C1449.83 547.053 1449.83 547.053 1449.83 547.066C1449.83 547.066 1449.83 547.066 1449.83 547.053ZM1449.83 544.928C1449.83 545.641 1449.83 546.34 1449.83 547.053C1450.95 547.7 1452.06 548.348 1453.19 549.008C1453.38 549.125 1453.46 549.099 1453.45 548.827C1453.44 548.128 1453.45 547.441 1453.45 546.742C1452.32 546.081 1451.18 545.434 1450.06 544.773C1449.89 544.669 1449.83 544.695 1449.83 544.941V544.928ZM1455.27 531.043C1455.27 531.691 1455.27 532.338 1455.27 532.999C1455.27 533.09 1455.39 533.284 1455.45 533.336C1455.69 533.491 1455.92 533.608 1456.14 533.75C1456.37 533.893 1456.62 534.022 1456.85 534.165C1456.99 534.242 1457.07 534.242 1457.06 534.035C1457.06 533.388 1457.06 532.727 1457.06 532.079C1457.06 531.898 1456.99 531.794 1456.86 531.73C1456.39 531.458 1455.91 531.186 1455.43 530.901C1455.29 530.823 1455.25 530.875 1455.25 531.043H1455.27ZM1466.18 532.507C1466.17 533.141 1466.18 533.802 1466.18 534.45C1466.18 534.527 1466.27 534.709 1466.32 534.748C1466.86 535.071 1467.39 535.382 1467.98 535.719C1467.98 534.942 1467.98 534.229 1467.98 533.504C1467.98 533.426 1467.86 533.232 1467.8 533.193C1467.32 532.895 1466.84 532.623 1466.36 532.364C1466.3 532.325 1466.18 532.416 1466.18 532.507ZM1451.66 538.452C1451.66 538.452 1451.66 538.452 1451.66 538.439C1451.66 538.439 1451.66 538.439 1451.66 538.452ZM1451.65 521.445C1451.06 521.095 1450.45 520.746 1449.85 520.409C1449.85 521.121 1449.85 521.847 1449.85 522.546C1449.85 522.753 1449.9 522.844 1450.06 522.935C1450.52 523.194 1450.99 523.466 1451.47 523.751C1451.64 523.854 1451.68 523.777 1451.68 523.569C1451.68 522.857 1451.68 522.158 1451.68 521.458L1451.65 521.445ZM1455.27 526.212C1455.27 526.536 1455.27 526.846 1455.27 527.17C1455.27 527.494 1455.27 527.805 1455.27 528.129C1455.27 528.31 1455.32 528.414 1455.47 528.491C1455.95 528.763 1456.42 529.035 1456.9 529.32C1457.03 529.398 1457.1 529.385 1457.1 529.191C1457.1 528.556 1457.1 527.909 1457.1 527.274C1457.1 527.08 1457.05 526.963 1456.89 526.885C1456.42 526.626 1455.96 526.354 1455.48 526.069C1455.34 525.979 1455.27 526.017 1455.27 526.212ZM1458.9 547.441C1458.9 547.441 1458.9 547.441 1458.9 547.428V547.441ZM1460.72 548.49C1460.72 548.49 1460.72 548.49 1460.72 548.503V548.49ZM1458.91 545.019C1458.91 545.822 1458.91 546.625 1458.91 547.428L1460.71 548.464V546.055C1460.09 545.693 1459.49 545.356 1458.91 545.019ZM1451.66 516.575C1451.66 516.575 1451.66 516.575 1451.66 516.588C1451.66 516.588 1451.66 516.588 1451.66 516.575ZM1451.66 514.166C1451.66 514.969 1451.66 515.772 1451.66 516.575C1452.18 516.873 1452.7 517.171 1453.22 517.469C1453.38 517.572 1453.47 517.572 1453.47 517.3C1453.47 516.679 1453.47 516.07 1453.47 515.461C1453.47 515.267 1453.42 515.163 1453.28 515.072C1452.75 514.775 1452.21 514.464 1451.68 514.153L1451.66 514.166ZM1451.66 521.406C1451.66 521.406 1451.66 521.406 1451.66 521.419C1451.66 521.419 1451.66 521.419 1451.66 521.406ZM1451.66 518.997C1451.66 519.8 1451.66 520.603 1451.66 521.406C1452.18 521.704 1452.71 522.002 1453.23 522.313C1453.41 522.417 1453.47 522.391 1453.47 522.132C1453.47 521.536 1453.47 520.94 1453.47 520.357C1453.47 520.111 1453.41 519.994 1453.23 519.891C1452.71 519.606 1452.18 519.295 1451.66 518.997ZM1429.88 511.459C1429.88 512.171 1429.88 512.883 1429.88 513.648C1430.46 513.984 1431 514.308 1431.56 514.606C1431.61 514.632 1431.69 514.528 1431.69 514.451C1431.69 513.816 1431.69 513.168 1431.69 512.534C1431.69 512.326 1431.62 512.236 1431.48 512.145C1431.02 511.886 1430.54 511.601 1430.07 511.329C1429.94 511.251 1429.86 511.251 1429.88 511.446V511.459ZM1453.24 553.814C1452.72 553.503 1452.21 553.205 1451.68 552.894V555.329C1452.23 555.653 1452.78 555.977 1453.33 556.275C1453.38 556.301 1453.46 556.223 1453.46 556.158C1453.46 555.498 1453.46 554.837 1453.46 554.177C1453.46 553.943 1453.35 553.892 1453.23 553.814H1453.24ZM1433.51 537.804C1433.5 538.452 1433.5 539.1 1433.51 539.76C1433.51 539.838 1433.62 540.045 1433.68 540.084C1434.17 540.382 1434.65 540.667 1435.14 540.926C1435.21 540.952 1435.31 540.874 1435.31 540.796C1435.32 540.149 1435.31 539.501 1435.31 538.854C1435.31 538.659 1435.23 538.569 1435.12 538.504C1434.87 538.374 1434.64 538.232 1434.39 538.089C1434.15 537.947 1433.91 537.791 1433.68 537.688C1433.62 537.662 1433.51 537.727 1433.51 537.804ZM1453.47 544.281C1453.47 545.084 1453.47 545.887 1453.47 546.69C1455.21 547.7 1456.94 548.698 1458.68 549.708C1458.84 549.799 1458.92 549.786 1458.91 549.552C1458.91 548.84 1458.91 548.141 1458.91 547.428L1453.49 544.281C1453.49 543.581 1453.49 542.882 1453.49 542.195C1453.49 541.936 1453.44 541.807 1453.23 541.703C1452.71 541.418 1452.19 541.107 1451.68 540.809C1451.68 540.006 1451.68 539.203 1451.68 538.4C1451.09 538.063 1450.5 537.727 1449.88 537.364V539.76C1450.47 540.11 1451.08 540.46 1451.68 540.809C1451.68 541.496 1451.68 542.182 1451.68 542.843C1451.68 543.141 1451.75 543.257 1451.96 543.374C1452.47 543.659 1452.98 543.97 1453.49 544.268L1453.47 544.281ZM1431.7 504.62C1431.7 502.327 1431.7 500.06 1431.7 497.768C1429.99 496.706 1428.29 495.799 1426.58 494.763C1426.32 494.62 1426.24 494.659 1426.24 495.009C1426.27 497.314 1426.22 499.555 1426.27 501.874C1427.98 502.858 1429.68 503.842 1431.39 504.84C1431.64 504.982 1431.7 504.943 1431.7 504.607V504.62ZM1464.38 516.976C1464.38 516.717 1464.33 516.588 1464.12 516.471C1462.47 515.526 1460.82 514.567 1459.17 513.609C1458.97 513.492 1458.91 513.544 1458.91 513.816C1458.91 516.005 1458.91 518.207 1458.91 520.383C1458.91 520.694 1458.99 520.798 1459.21 520.914C1460.01 521.367 1460.82 521.847 1461.62 522.313C1462.45 522.792 1463.28 523.259 1464.1 523.751C1464.32 523.88 1464.37 523.816 1464.37 523.543C1464.37 521.354 1464.37 519.153 1464.37 516.976H1464.38ZM1458.92 557.505C1458.92 559.798 1458.92 562.065 1458.92 564.357C1460.64 565.42 1462.34 566.326 1464.06 567.362C1464.32 567.518 1464.38 567.453 1464.38 567.103C1464.35 564.798 1464.41 562.557 1464.35 560.238C1462.65 559.241 1460.94 558.27 1459.22 557.259C1458.97 557.117 1458.91 557.182 1458.91 557.505H1458.92Z" fill="#16292E"/>
<path d="M1374.27 622.424C1374.49 623.499 1374.77 624.51 1375.04 625.481C1375.74 627.89 1376.54 630.053 1376.93 631.517C1377.35 633.149 1377.73 636.076 1377.99 638.498C1378.23 640.7 1378.38 642.488 1378.38 642.488C1378.38 642.488 1377.85 643.252 1380.36 643.861C1382.85 644.47 1383.74 642.695 1384.55 642.255C1385.35 641.814 1384.83 639.263 1384.83 639.263V631.685C1384.83 629.626 1384.83 626.893 1385.84 622.45C1386.85 618.02 1387.25 613.422 1387.29 611.44C1387.33 609.471 1389.71 605.353 1391.12 599.265C1392.53 593.177 1392.28 566.637 1392.28 566.637L1379.99 558.321C1379.99 558.321 1377.5 560.42 1376.53 562.764C1375.56 565.096 1374.71 570.549 1374.47 575.794C1374.22 581.04 1377.9 598.021 1377.46 601.48C1377.02 604.951 1374.35 612.127 1373.87 617.127C1373.71 618.81 1373.91 620.637 1374.29 622.437L1374.27 622.424Z" fill="#FF622C"/>
<path d="M1384.61 531.548C1384.61 531.548 1389.27 524.359 1386.18 523.155C1383.08 521.95 1379.22 522.999 1378.09 525.978C1376.97 528.958 1373.87 534.67 1373.15 535.887C1372.42 537.092 1367.99 552.052 1367.99 552.052C1367.99 552.052 1370.16 555.381 1372.84 557.259C1375.35 559.021 1377.11 563.204 1377.11 563.204V567.453L1380.29 571.404L1382.57 573.191L1384.61 573.411C1384.61 573.411 1385.61 573.308 1385.19 572.945C1384.78 572.582 1384.53 572.621 1384.53 572.621L1386.01 572.44C1386.01 572.44 1386.45 571.831 1385.36 571.507C1384.27 571.196 1383.28 571.067 1383.1 571.132C1382.92 571.196 1381.45 568.606 1381.33 567.971C1381.21 567.336 1381.34 565.834 1381.43 564.914C1381.52 563.995 1380.81 562.57 1380.81 562.57L1381.65 563.58C1381.65 563.58 1382.52 565.212 1383.15 565.381C1383.77 565.549 1383.9 565.989 1384.42 565.212C1384.93 564.435 1384.29 563.528 1384.18 563.347C1384.09 563.166 1383.1 562.155 1383.1 562.155C1383.1 562.155 1382.46 560.536 1381.95 559.927C1381.43 559.306 1380.67 558.762 1380.47 558.503C1380.26 558.257 1379.49 555.316 1378.72 553.412C1377.97 551.508 1375.3 548.024 1375.3 548.024L1379.63 539.695L1384.62 531.522L1384.61 531.548Z" fill="#FFCBAD"/>
<path d="M1392.3 569.862C1392.3 577.155 1392.19 594.472 1391.11 599.239C1389.7 605.327 1387.33 609.446 1387.29 611.414C1387.25 613.383 1386.85 617.981 1385.83 622.424C1384.84 626.854 1384.84 629.613 1384.84 631.659V636.089C1384.84 636.089 1384.88 636.387 1384.84 636.789C1384.74 637.462 1384.3 638.486 1382.66 638.991C1382.62 639.017 1382.58 639.017 1382.53 639.03C1379.79 639.846 1379.59 639.729 1379.05 639.405C1378.75 639.237 1378.34 638.822 1378 638.46C1377.69 638.149 1377.46 637.877 1377.46 637.877C1377.46 637.877 1376.71 632.566 1375.97 629.302C1375.67 627.994 1375.34 626.634 1375.05 625.455C1374.69 623.94 1374.38 622.748 1374.3 622.45C1373.93 620.598 1373.72 618.772 1373.89 617.101C1374.36 612.101 1377.03 604.925 1377.47 601.454C1377.91 597.97 1374.24 581.001 1374.49 575.743C1374.73 570.51 1375.58 565.057 1376.55 562.725C1377.52 560.394 1380.02 558.295 1380.02 558.295L1392.31 566.585C1392.31 566.585 1392.33 567.829 1392.33 569.836L1392.3 569.862Z" fill="#3B3C4A"/>
<path d="M1392.3 569.862C1392.3 577.154 1392.19 594.472 1391.11 599.239C1389.7 605.327 1387.33 609.445 1387.29 611.414C1387.25 613.383 1386.85 617.981 1385.83 622.424C1384.84 626.854 1384.84 629.613 1384.84 631.659V636.089C1384.84 636.089 1384.88 636.387 1384.84 636.789C1384.74 637.462 1384.3 638.485 1382.66 638.991C1380.98 625.597 1383.9 613.215 1385.13 610.171C1390.01 598.19 1389.85 590.392 1390.11 585.146C1390.34 579.9 1388.6 575.963 1389.55 573.631C1390.19 572.077 1391.48 570.652 1392.3 569.849V569.862Z" fill="#282936"/>
<path d="M1384.82 639.094C1384.82 639.094 1385.47 638.978 1385.91 638.887C1386.35 638.809 1387.52 636.102 1389.66 635.986C1391.79 635.869 1393.85 636.867 1393.28 638.771C1392.71 640.662 1390.89 642.838 1389.2 643.446C1387.52 644.055 1386.64 644.198 1386.22 644.807C1385.79 645.428 1383.37 649.897 1380.68 649.858C1378.78 649.832 1377.64 648.459 1377.12 647.643C1376.91 647.319 1376.84 646.918 1376.91 646.542L1377.7 642.618C1377.73 642.41 1377.99 642.333 1378.13 642.475C1378.75 643.11 1380.11 644.327 1381.25 644.327C1382.77 644.327 1384.99 642.384 1384.99 642.384L1384.88 640.701L1384.84 639.081L1384.82 639.094Z" fill="#D6EAF7"/>
<path d="M1384.82 637.877C1384.82 637.877 1385.47 637.76 1385.91 637.67C1386.35 637.592 1387.52 636.102 1389.66 635.973C1391.79 635.856 1393.41 636.659 1392.84 638.551C1392.27 640.442 1390.89 641.607 1389.2 642.216C1387.52 642.825 1386.64 642.967 1386.22 643.576C1385.79 644.198 1383.37 648.667 1380.68 648.628C1378.78 648.602 1377.64 647.229 1377.12 646.413C1376.91 646.089 1376.84 645.687 1376.91 645.312L1377.7 641.387C1377.73 641.18 1377.99 641.102 1378.13 641.245C1378.75 641.879 1380.11 643.097 1381.25 643.097C1382.77 643.097 1384.99 641.154 1384.99 641.154L1384.88 639.457L1384.84 637.851L1384.82 637.877Z" fill="#FF622C"/>
<path d="M1385.91 580.574C1387.2 584.369 1388.32 583.32 1389.28 585.975C1390.24 588.63 1391.62 611.466 1391.07 614.29C1390.54 616.932 1389.58 620.08 1389.33 623.318C1389.31 623.551 1389.31 623.758 1389.29 623.965C1389.29 624.095 1389.29 624.224 1389.29 624.367C1389.29 625.028 1389.33 625.714 1389.42 626.439C1389.79 629.496 1390.83 632.98 1391.4 635.973C1391.77 637.877 1391.77 640.273 1391.68 642.229C1391.58 644.236 1391.4 645.752 1391.4 645.752C1391.4 645.752 1392.37 647.526 1392.31 647.526C1392.31 647.526 1395.45 647.436 1397.29 646.801C1398.86 646.257 1399.35 643.913 1399.04 642.591C1398.97 642.345 1398.14 641.205 1398.11 641.063C1397.85 640.299 1400.76 631.102 1401.86 626.737C1402.02 626.064 1402.15 625.533 1402.22 625.183C1402.7 622.515 1403.75 617.761 1403.19 615.015C1402.62 612.269 1411 590.003 1409.88 578.553C1408.75 567.103 1404.72 562.751 1404.72 562.751H1404.15L1387.13 563.127C1387.13 563.127 1384.65 576.779 1385.93 580.574H1385.91Z" fill="#FF622C"/>
<path d="M1398.31 642.164C1398.31 642.164 1400.3 642.553 1401.7 642.41C1403.1 642.268 1404.51 641.84 1405.91 641.387C1407.3 640.933 1410.02 641.05 1410.89 642.047C1411.77 643.045 1409.86 647.643 1407.32 649.068C1404.78 650.493 1400.58 650.506 1399.94 650.829C1399.31 651.153 1396.07 653.446 1393.37 653.031C1390.67 652.604 1390.03 651.425 1390.01 650.674C1389.98 649.923 1390.01 647.656 1390.25 647.591C1390.5 647.526 1391 644.638 1391.34 644.949C1391.67 645.26 1392.96 649.314 1397.63 646.218C1399.76 644.806 1398.31 642.177 1398.31 642.177V642.164Z" fill="#D6EAF7"/>
<path d="M1398.31 641.193C1398.31 641.193 1400.3 641.581 1401.7 641.439C1403.1 641.296 1404.51 640.869 1405.91 640.416C1407.3 639.962 1410.02 640.079 1410.89 641.076C1411.77 642.074 1409.86 646.672 1407.32 648.097C1404.78 649.521 1400.58 649.534 1399.94 649.858C1399.31 650.182 1396.07 652.475 1393.37 652.06C1390.67 651.633 1390.03 650.454 1390.01 649.703C1389.98 648.951 1390.01 646.672 1390.25 646.62C1390.5 646.555 1391 643.667 1391.34 643.978C1391.67 644.288 1392.96 648.343 1397.63 645.247C1399.76 643.835 1398.31 641.206 1398.31 641.206V641.193Z" fill="#FF622C"/>
<path d="M1385.9 580.574C1387.2 584.369 1388.32 583.32 1389.28 585.975C1390.24 588.63 1391.62 611.466 1391.07 614.29C1390.54 616.932 1389.58 620.08 1389.33 623.318C1389.32 623.642 1389.31 623.849 1389.29 623.965C1389.29 624.069 1389.29 624.199 1389.29 624.367C1389.29 624.833 1389.35 625.559 1389.42 626.439C1389.86 631.543 1391.27 642.021 1391.27 642.021C1391.27 642.021 1391.42 642.099 1391.67 642.216C1392.36 642.514 1393.91 643.032 1396.09 642.915C1396.99 642.863 1397.68 642.656 1398.2 642.384C1399.4 641.762 1399.7 640.83 1399.7 640.83L1400.74 632.579L1401.83 626.737C1402 626.064 1402.13 625.533 1402.19 625.183C1402.67 622.515 1403.72 617.761 1403.16 615.015C1402.59 612.269 1410.98 590.003 1409.85 578.553C1408.73 567.103 1404.69 562.751 1404.69 562.751H1404.12L1387.11 563.127C1387.11 563.127 1384.62 576.779 1385.9 580.574Z" fill="#3B3C4A"/>
<path d="M1406.13 554.28C1405.72 556.042 1405.32 558.632 1405.32 560.16C1405.32 561.689 1407.61 568.243 1407.61 568.243C1407.61 568.243 1406.03 570.95 1401.27 572.064C1399.68 572.44 1397.73 572.647 1395.34 572.504C1385.85 571.922 1377.04 561.715 1377.04 561.715C1377.04 561.715 1377.79 559.85 1379.37 556.301C1383.21 547.648 1378.23 541.133 1378.23 537.027C1378.23 532.921 1379.54 527.183 1382.35 524.851C1385.18 522.52 1387.55 523.88 1387.55 523.88C1387.55 523.88 1388.47 523.712 1388.73 521.95L1388.96 520.163L1397.73 522.909C1397.73 522.909 1396.93 527.74 1398.48 528.957C1398.75 529.165 1399.15 529.359 1399.62 529.54C1400.67 529.955 1402.02 530.356 1403.33 530.991C1404.69 531.665 1405.97 532.571 1406.64 533.996C1408.22 537.416 1410.72 542.014 1409.27 544.268C1407.82 546.534 1406.86 547.674 1406.69 549.604C1406.55 551.534 1406.55 552.505 1406.13 554.293V554.28Z" fill="#FF622C"/>
<path d="M1406.13 554.28C1405.72 556.042 1405.32 558.632 1405.32 560.161C1405.32 561.689 1407.61 568.243 1407.61 568.243C1407.61 568.243 1406.03 570.95 1401.27 572.064C1398.88 570.005 1397.98 566.352 1399.75 562.881C1401.53 559.409 1402.72 556.184 1402.81 553.684C1402.89 551.184 1398.62 547.726 1398.62 543.607C1398.62 539.488 1399.93 533.776 1402.74 531.432C1402.94 531.263 1403.14 531.121 1403.34 530.991C1404.7 531.665 1405.98 532.571 1406.66 533.996C1408.23 537.416 1410.73 542.014 1409.28 544.268C1407.83 546.534 1406.88 547.674 1406.71 549.604C1406.57 551.534 1406.57 552.506 1406.14 554.293L1406.13 554.28Z" fill="#FF4521"/>
<path d="M1424.35 535.602C1424.35 535.602 1419.88 533.724 1417.95 533.426C1416.02 533.128 1412.52 533.128 1410.71 532.584C1408.89 532.04 1403.15 529.139 1400.8 530.59C1398.44 532.04 1398.56 538.672 1399.83 541.276C1401.09 543.879 1407.68 541.664 1411.25 542.208C1414.82 542.752 1427.92 542.454 1428.89 541.237C1429.86 540.032 1431.73 533.012 1432.15 529.502C1432.58 525.991 1432.88 520.927 1433.24 520.163C1433.6 519.399 1433.72 518.064 1433.78 517.274C1433.85 516.484 1435.71 513.22 1435.8 512.948C1435.89 512.676 1435.32 513.518 1435.89 512.521C1436.46 511.523 1437.59 509.852 1437.59 509.852L1438.34 508.065V506.588C1438.34 506.588 1437.41 505.526 1437.37 505.228C1437.34 504.93 1437.34 503.143 1437.34 503.143C1437.34 503.143 1436.86 501.265 1436.5 501.394C1436.14 501.511 1436.14 501.64 1436.14 502.12C1436.14 502.599 1436.29 503.544 1436.29 503.544L1436.02 505.151L1434.75 506.899L1435.6 504.296L1435.53 501.692C1435.53 501.692 1434.9 499.879 1434.47 499.905C1434.04 499.931 1433.56 500.241 1433.81 500.902C1434.06 501.563 1434.26 502.171 1434.26 502.171L1434.02 504.529L1432.72 506.64L1433.27 503.376L1432.9 501.226C1432.9 501.226 1431.91 499.931 1431.82 499.685C1431.73 499.438 1430.82 499.62 1430.82 500.164C1430.82 500.708 1431.43 501.679 1431.43 501.679V503.946C1431.43 503.946 1429.83 508.661 1429.01 508.726C1428.2 508.79 1427.81 507.456 1427.81 507.456V505.708C1427.81 505.708 1428.23 504.956 1428.01 504.192C1427.81 503.441 1427.55 503.285 1427.55 503.285C1427.55 503.285 1426.94 503.104 1426.81 503.713C1426.68 504.322 1426.75 505.682 1426.36 505.954C1425.97 506.226 1426.51 509.801 1426.51 509.801C1426.51 509.801 1427.08 511.497 1427.08 511.614C1427.08 511.731 1428.65 514.438 1428.83 515.228C1429.57 518.285 1426.44 525.629 1426.04 527.403C1425.63 529.178 1424.37 535.589 1424.37 535.589L1424.35 535.602Z" fill="#FFCBAD"/>
<path d="M1386.29 525.745C1386.59 526.717 1388.04 528.893 1393.18 529.618C1398.31 530.344 1399.4 529.618 1399.4 529.618L1399.62 529.554C1399.15 529.359 1398.75 529.165 1398.48 528.945C1396.95 527.74 1397.74 522.896 1397.74 522.896L1388.97 520.15L1388.72 521.924C1388.48 523.699 1387.55 523.854 1387.55 523.854C1387.55 523.854 1385.98 524.761 1386.28 525.733L1386.29 525.745Z" fill="#FF622C"/>
<path d="M1399.54 507.974C1399.64 507.948 1402.88 508.868 1402.88 508.868C1402.88 508.868 1403.53 510.94 1403.42 511.575C1403.32 512.197 1402.91 512.65 1402.91 513.026C1402.91 513.401 1403.33 514.178 1403.27 515.37C1403.2 516.562 1402.69 518.712 1401.66 519.891C1400.67 521.043 1400.05 521.834 1399.97 522.067C1399.89 522.3 1395.18 523.479 1392.85 522.403C1390.51 521.328 1391.04 513.557 1391.04 513.557L1399.54 507.987V507.974Z" fill="#FFCBAD"/>
<path d="M1401.39 505.423C1401.39 505.423 1401.49 505.552 1401.65 505.785C1402.23 506.64 1403.98 508.959 1402.44 510.409C1399.86 512.831 1400.55 517.469 1400.55 517.469C1400.55 517.469 1400.19 516.484 1399.26 516.419C1398.32 516.355 1397.81 518.569 1398.01 519.398C1398.49 521.315 1398.92 521.277 1398.92 521.277C1398.92 521.277 1404.47 524.1 1404.15 524.308C1401.46 526.108 1392.28 533.789 1384.91 526.406C1382.11 523.608 1383.58 516.044 1383.76 510.953C1383.94 505.876 1390.46 503.48 1394.42 503.065C1398.36 502.638 1401.39 505.423 1401.39 505.423Z" fill="#282936"/>
</g>
<defs>
<linearGradient id="paint0_linear_326_24937" x1="1632.7" y1="380.196" x2="1667.25" y2="380.196" gradientUnits="userSpaceOnUse">
<stop stop-color="#FDFDFD"/>
<stop offset="1" stop-color="#BAC6EB"/>
</linearGradient>
<linearGradient id="paint1_linear_326_24937" x1="1667.25" y1="380.261" x2="1701.57" y2="380.261" gradientUnits="userSpaceOnUse">
<stop stop-color="#BAC6EB"/>
</linearGradient>
<linearGradient id="paint2_linear_326_24937" x1="1368" y1="364.42" x2="1369.29" y2="364.42" gradientUnits="userSpaceOnUse">
<stop stop-color="#FDFDFD"/>
<stop offset="1" stop-color="#BAC6EB"/>
</linearGradient>
<linearGradient id="paint3_linear_326_24937" x1="1368" y1="364.484" x2="1369.29" y2="364.484" gradientUnits="userSpaceOnUse">
<stop stop-color="#BAC6EB"/>
</linearGradient>
<linearGradient id="paint4_linear_326_24937" x1="1639.87" y1="342.439" x2="1667.22" y2="342.439" gradientUnits="userSpaceOnUse">
<stop stop-color="#FDFDFD"/>
<stop offset="1" stop-color="#BAC6EB"/>
</linearGradient>
<linearGradient id="paint5_linear_326_24937" x1="1667.22" y1="342.491" x2="1694.41" y2="342.491" gradientUnits="userSpaceOnUse">
<stop stop-color="#BAC6EB"/>
</linearGradient>
<linearGradient id="paint6_linear_326_24937" x1="1639.87" y1="327.763" x2="1694.41" y2="327.763" gradientUnits="userSpaceOnUse">
<stop stop-color="#FDFDFD"/>
<stop offset="1" stop-color="#BAC6EB"/>
</linearGradient>
<linearGradient id="paint7_linear_326_24937" x1="1621.42" y1="487.185" x2="1639.82" y2="487.185" gradientUnits="userSpaceOnUse">
<stop stop-color="#BAC6EB"/>
</linearGradient>
<linearGradient id="paint8_linear_326_24937" x1="1621.2" y1="395.908" x2="1639.61" y2="395.908" gradientUnits="userSpaceOnUse">
<stop stop-color="#BAC6EB"/>
</linearGradient>
<linearGradient id="paint9_linear_326_24937" x1="1699.95" y1="392.825" x2="1718.45" y2="392.825" gradientUnits="userSpaceOnUse">
<stop stop-color="#BAC6EB"/>
</linearGradient>
<linearGradient id="paint10_linear_326_24937" x1="1779" y1="438.522" x2="1797.5" y2="438.522" gradientUnits="userSpaceOnUse">
<stop stop-color="#BAC6EB"/>
</linearGradient>
<linearGradient id="paint11_linear_326_24937" x1="1784.6" y1="484.245" x2="1803.01" y2="484.245" gradientUnits="userSpaceOnUse">
<stop stop-color="#BAC6EB"/>
</linearGradient>
<linearGradient id="paint12_linear_326_24937" x1="1705.76" y1="529.825" x2="1724.17" y2="529.825" gradientUnits="userSpaceOnUse">
<stop stop-color="#BAC6EB"/>
</linearGradient>
<linearGradient id="paint13_linear_326_24937" x1="1542.37" y1="441.488" x2="1560.77" y2="441.488" gradientUnits="userSpaceOnUse">
<stop stop-color="#BAC6EB"/>
</linearGradient>
<linearGradient id="paint14_linear_326_24937" x1="1559.21" y1="420.272" x2="1593.74" y2="420.272" gradientUnits="userSpaceOnUse">
<stop stop-color="#FDFDFD"/>
<stop offset="1" stop-color="#BAC6EB"/>
</linearGradient>
<linearGradient id="paint15_linear_326_24937" x1="1593.74" y1="420.336" x2="1628.06" y2="420.336" gradientUnits="userSpaceOnUse">
<stop stop-color="#BAC6EB"/>
</linearGradient>
<linearGradient id="paint16_linear_326_24937" x1="1480.37" y1="465.839" x2="1514.9" y2="465.839" gradientUnits="userSpaceOnUse">
<stop stop-color="#FDFDFD"/>
<stop offset="1" stop-color="#BAC6EB"/>
</linearGradient>
<linearGradient id="paint17_linear_326_24937" x1="1514.9" y1="465.904" x2="1549.23" y2="465.904" gradientUnits="userSpaceOnUse">
<stop stop-color="#BAC6EB"/>
</linearGradient>
<linearGradient id="paint18_linear_326_24937" x1="1751.63" y1="420.453" x2="1785.96" y2="420.453" gradientUnits="userSpaceOnUse">
<stop stop-color="#BAC6EB"/>
</linearGradient>
<linearGradient id="paint19_linear_326_24937" x1="1717.09" y1="420.401" x2="1751.63" y2="420.401" gradientUnits="userSpaceOnUse">
<stop stop-color="#FDFDFD"/>
<stop offset="1" stop-color="#BAC6EB"/>
</linearGradient>
<linearGradient id="paint20_linear_326_24937" x1="1751.84" y1="511.73" x2="1786.16" y2="511.73" gradientUnits="userSpaceOnUse">
<stop stop-color="#BAC6EB"/>
</linearGradient>
<linearGradient id="paint21_linear_326_24937" x1="1717.31" y1="511.666" x2="1751.84" y2="511.666" gradientUnits="userSpaceOnUse">
<stop stop-color="#FDFDFD"/>
<stop offset="1" stop-color="#BAC6EB"/>
</linearGradient>
<linearGradient id="paint22_linear_326_24937" x1="1593.96" y1="511.601" x2="1628.28" y2="511.601" gradientUnits="userSpaceOnUse">
<stop stop-color="#BAC6EB"/>
</linearGradient>
<linearGradient id="paint23_linear_326_24937" x1="1559.42" y1="511.536" x2="1593.96" y2="511.536" gradientUnits="userSpaceOnUse">
<stop stop-color="#FDFDFD"/>
<stop offset="1" stop-color="#BAC6EB"/>
</linearGradient>
<linearGradient id="paint24_linear_326_24937" x1="1559.21" y1="404.495" x2="1593.74" y2="404.495" gradientUnits="userSpaceOnUse">
<stop stop-color="#FDFDFD"/>
<stop offset="1" stop-color="#BAC6EB"/>
</linearGradient>
<linearGradient id="paint25_linear_326_24937" x1="1593.74" y1="404.56" x2="1628.06" y2="404.56" gradientUnits="userSpaceOnUse">
<stop stop-color="#BAC6EB"/>
</linearGradient>
<linearGradient id="paint26_linear_326_24937" x1="1559.21" y1="387.76" x2="1628.06" y2="387.76" gradientUnits="userSpaceOnUse">
<stop stop-color="#FDFDFD"/>
<stop offset="1" stop-color="#BAC6EB"/>
</linearGradient>
<linearGradient id="paint27_linear_326_24937" x1="1480.37" y1="450.063" x2="1514.9" y2="450.063" gradientUnits="userSpaceOnUse">
<stop stop-color="#FDFDFD"/>
<stop offset="1" stop-color="#BAC6EB"/>
</linearGradient>
<linearGradient id="paint28_linear_326_24937" x1="1514.9" y1="450.127" x2="1549.23" y2="450.127" gradientUnits="userSpaceOnUse">
<stop stop-color="#BAC6EB"/>
</linearGradient>
<linearGradient id="paint29_linear_326_24937" x1="1751.63" y1="404.676" x2="1785.96" y2="404.676" gradientUnits="userSpaceOnUse">
<stop stop-color="#BAC6EB"/>
</linearGradient>
<linearGradient id="paint30_linear_326_24937" x1="1717.09" y1="404.625" x2="1751.63" y2="404.625" gradientUnits="userSpaceOnUse">
<stop stop-color="#FDFDFD"/>
<stop offset="1" stop-color="#BAC6EB"/>
</linearGradient>
<linearGradient id="paint31_linear_326_24937" x1="1717.09" y1="387.877" x2="1785.96" y2="387.877" gradientUnits="userSpaceOnUse">
<stop stop-color="#FDFDFD"/>
<stop offset="1" stop-color="#BAC6EB"/>
</linearGradient>
<linearGradient id="paint32_linear_326_24937" x1="1751.84" y1="495.954" x2="1786.16" y2="495.954" gradientUnits="userSpaceOnUse">
<stop stop-color="#BAC6EB"/>
</linearGradient>
<linearGradient id="paint33_linear_326_24937" x1="1717.31" y1="495.889" x2="1751.84" y2="495.889" gradientUnits="userSpaceOnUse">
<stop stop-color="#FDFDFD"/>
<stop offset="1" stop-color="#BAC6EB"/>
</linearGradient>
<linearGradient id="paint34_linear_326_24937" x1="1717.31" y1="479.141" x2="1786.16" y2="479.141" gradientUnits="userSpaceOnUse">
<stop stop-color="#FDFDFD"/>
<stop offset="1" stop-color="#BAC6EB"/>
</linearGradient>
<linearGradient id="paint35_linear_326_24937" x1="1796.14" y1="466.098" x2="1830.68" y2="466.098" gradientUnits="userSpaceOnUse">
<stop stop-color="#FDFDFD"/>
<stop offset="1" stop-color="#BAC6EB"/>
</linearGradient>
<linearGradient id="paint36_linear_326_24937" x1="1830.68" y1="466.15" x2="1865" y2="466.15" gradientUnits="userSpaceOnUse">
<stop stop-color="#BAC6EB"/>
</linearGradient>
<linearGradient id="paint37_linear_326_24937" x1="1796.14" y1="450.322" x2="1830.68" y2="450.322" gradientUnits="userSpaceOnUse">
<stop stop-color="#FDFDFD"/>
<stop offset="1" stop-color="#BAC6EB"/>
</linearGradient>
<linearGradient id="paint38_linear_326_24937" x1="1830.68" y1="450.374" x2="1865" y2="450.374" gradientUnits="userSpaceOnUse">
<stop stop-color="#BAC6EB"/>
</linearGradient>
<linearGradient id="paint39_linear_326_24937" x1="1803.3" y1="428.341" x2="1830.67" y2="428.341" gradientUnits="userSpaceOnUse">
<stop stop-color="#FDFDFD"/>
<stop offset="1" stop-color="#BAC6EB"/>
</linearGradient>
<linearGradient id="paint40_linear_326_24937" x1="1830.67" y1="428.393" x2="1857.85" y2="428.393" gradientUnits="userSpaceOnUse">
<stop stop-color="#BAC6EB"/>
</linearGradient>
<linearGradient id="paint41_linear_326_24937" x1="1803.3" y1="413.666" x2="1857.85" y2="413.666" gradientUnits="userSpaceOnUse">
<stop stop-color="#FDFDFD"/>
<stop offset="1" stop-color="#BAC6EB"/>
</linearGradient>
<linearGradient id="paint42_linear_326_24937" x1="1638.47" y1="557.234" x2="1673.02" y2="557.234" gradientUnits="userSpaceOnUse">
<stop stop-color="#FDFDFD"/>
<stop offset="1" stop-color="#BAC6EB"/>
</linearGradient>
<linearGradient id="paint43_linear_326_24937" x1="1673.02" y1="557.298" x2="1707.34" y2="557.298" gradientUnits="userSpaceOnUse">
<stop stop-color="#BAC6EB"/>
</linearGradient>
<linearGradient id="paint44_linear_326_24937" x1="1638.47" y1="541.457" x2="1673.02" y2="541.457" gradientUnits="userSpaceOnUse">
<stop stop-color="#FDFDFD"/>
<stop offset="1" stop-color="#BAC6EB"/>
</linearGradient>
<linearGradient id="paint45_linear_326_24937" x1="1673.02" y1="541.522" x2="1707.34" y2="541.522" gradientUnits="userSpaceOnUse">
<stop stop-color="#BAC6EB"/>
</linearGradient>
<linearGradient id="paint46_linear_326_24937" x1="1645.63" y1="519.476" x2="1672.99" y2="519.476" gradientUnits="userSpaceOnUse">
<stop stop-color="#FDFDFD"/>
<stop offset="1" stop-color="#BAC6EB"/>
</linearGradient>
<linearGradient id="paint47_linear_326_24937" x1="1672.99" y1="519.528" x2="1700.17" y2="519.528" gradientUnits="userSpaceOnUse">
<stop stop-color="#BAC6EB"/>
</linearGradient>
<linearGradient id="paint48_linear_326_24937" x1="1645.63" y1="504.801" x2="1700.17" y2="504.801" gradientUnits="userSpaceOnUse">
<stop stop-color="#FDFDFD"/>
<stop offset="1" stop-color="#BAC6EB"/>
</linearGradient>
<linearGradient id="paint49_linear_326_24937" x1="1593.96" y1="495.825" x2="1628.28" y2="495.825" gradientUnits="userSpaceOnUse">
<stop stop-color="#BAC6EB"/>
</linearGradient>
<linearGradient id="paint50_linear_326_24937" x1="1559.42" y1="495.76" x2="1593.96" y2="495.76" gradientUnits="userSpaceOnUse">
<stop stop-color="#FDFDFD"/>
<stop offset="1" stop-color="#BAC6EB"/>
</linearGradient>
<linearGradient id="paint51_linear_326_24937" x1="1559.42" y1="479.025" x2="1628.28" y2="479.025" gradientUnits="userSpaceOnUse">
<stop stop-color="#FDFDFD"/>
<stop offset="1" stop-color="#BAC6EB"/>
</linearGradient>
<linearGradient id="paint52_linear_326_24937" x1="1487.53" y1="428.095" x2="1514.89" y2="428.095" gradientUnits="userSpaceOnUse">
<stop stop-color="#FDFDFD"/>
<stop offset="1" stop-color="#BAC6EB"/>
</linearGradient>
<linearGradient id="paint53_linear_326_24937" x1="1514.89" y1="428.134" x2="1542.07" y2="428.134" gradientUnits="userSpaceOnUse">
<stop stop-color="#BAC6EB"/>
</linearGradient>
<linearGradient id="paint54_linear_326_24937" x1="1487.53" y1="413.406" x2="1542.07" y2="413.406" gradientUnits="userSpaceOnUse">
<stop stop-color="#FDFDFD"/>
<stop offset="1" stop-color="#BAC6EB"/>
</linearGradient>
<linearGradient id="paint55_linear_326_24937" x1="1612.16" y1="420.388" x2="1644.83" y2="420.388" gradientUnits="userSpaceOnUse">
<stop stop-color="#BAC6EB"/>
</linearGradient>
<linearGradient id="paint56_linear_326_24937" x1="1542.27" y1="483.973" x2="1560.77" y2="483.973" gradientUnits="userSpaceOnUse">
<stop stop-color="#BAC6EB"/>
</linearGradient>
<linearGradient id="paint57_linear_326_24937" x1="1700.26" y1="441.605" x2="1718.66" y2="441.605" gradientUnits="userSpaceOnUse">
<stop stop-color="#BAC6EB"/>
</linearGradient>
<linearGradient id="paint58_linear_326_24937" x1="1700.16" y1="484.09" x2="1718.66" y2="484.09" gradientUnits="userSpaceOnUse">
<stop stop-color="#BAC6EB"/>
</linearGradient>
<linearGradient id="paint59_linear_326_24937" x1="1621.32" y1="529.67" x2="1639.82" y2="529.67" gradientUnits="userSpaceOnUse">
<stop stop-color="#BAC6EB"/>
</linearGradient>
<linearGradient id="paint60_linear_326_24937" x1="1642.19" y1="467.769" x2="1647.9" y2="457.866" gradientUnits="userSpaceOnUse">
<stop offset="0.13" stop-color="#B3C0D9"/>
<stop offset="0.67" stop-color="#EFEFEF"/>
</linearGradient>
<linearGradient id="paint61_linear_326_24937" x1="1684.05" y1="345.742" x2="1689.57" y2="336.188" gradientUnits="userSpaceOnUse">
<stop stop-color="#B3C0D9"/>
<stop offset="0.56" stop-color="#899CC3"/>
</linearGradient>
<linearGradient id="paint62_linear_326_24937" x1="1681.06" y1="341.83" x2="1686.29" y2="332.821" gradientUnits="userSpaceOnUse">
<stop offset="0.11" stop-color="#8F6EF7"/>
<stop offset="0.49" stop-color="#BDDCC9"/>
<stop offset="0.8" stop-color="#8F6EF7"/>
</linearGradient>
<linearGradient id="paint63_linear_326_24937" x1="1417.9" y1="518.388" x2="1690.43" y2="518.388" gradientUnits="userSpaceOnUse">
<stop stop-color="#FDFDFD"/>
<stop offset="1" stop-color="#BAC6EB"/>
</linearGradient>
<linearGradient id="paint64_linear_326_24937" x1="1372.1" y1="647.526" x2="1415.28" y2="647.526" gradientUnits="userSpaceOnUse">
<stop stop-color="#FDFDFD"/>
<stop offset="1" stop-color="#BAC6EB"/>
</linearGradient>
<linearGradient id="paint65_linear_326_24937" x1="1407.95" y1="529.437" x2="1498.43" y2="529.437" gradientUnits="userSpaceOnUse">
<stop offset="0.59" stop-color="#FDFDFD"/>
<stop offset="1" stop-color="#BAC6EB"/>
</linearGradient>
<linearGradient id="paint66_linear_326_24937" x1="1443.58" y1="395.104" x2="1453.69" y2="662.693" gradientUnits="userSpaceOnUse">
<stop stop-color="#FDFDFD"/>
<stop offset="1" stop-color="#BAC6EB"/>
</linearGradient>
<linearGradient id="paint67_linear_326_24937" x1="1394.07" y1="447.695" x2="1374.55" y2="652.623" gradientUnits="userSpaceOnUse">
<stop stop-color="#7EDDDE"/>
<stop offset="0.15" stop-color="#7BD9DA"/>
<stop offset="0.28" stop-color="#75CECF"/>
<stop offset="0.41" stop-color="#6BBBBC"/>
<stop offset="0.54" stop-color="#5CA2A2"/>
<stop offset="0.67" stop-color="#498081"/>
<stop offset="0.79" stop-color="#315757"/>
<stop offset="0.91" stop-color="#162728"/>
<stop offset="0.99"/>
</linearGradient>
<clipPath id="clip0_326_24937">
<rect width="497" height="348" fill="white" transform="translate(1368 312)"/>
</clipPath>
</defs>
</svg>
