<svg width="1920" height="727" viewBox="0 0 1920 727" fill="none" xmlns="http://www.w3.org/2000/svg">
<g clip-path="url(#clip0_326_26802)">
<path d="M1423.25 359.996L1388.7 340.036V326.396L1423.25 346.357V359.996Z" fill="url(#paint0_linear_326_26802)"/>
<path d="M1423.25 359.995L1457.57 340.152V326.513L1423.25 346.356V359.995Z" fill="url(#paint1_linear_326_26802)"/>
<path d="M1423.25 346.356L1388.7 326.396L1423.03 306.553L1457.57 326.513L1423.25 346.356Z" fill="#ABB8D6"/>
<path d="M1423.25 344.219L1388.7 324.259V310.62L1423.25 330.58V344.219Z" fill="url(#paint2_linear_326_26802)"/>
<path d="M1423.25 344.219L1457.57 324.376V310.736L1423.25 330.58V344.219Z" fill="url(#paint3_linear_326_26802)"/>
<path d="M1423.25 330.58L1388.7 310.62L1423.03 290.776L1457.57 310.736L1423.25 330.58Z" fill="#C5DBEE"/>
<path d="M1423.22 326.448L1395.87 310.646L1423.05 294.921L1450.41 310.737L1423.22 326.448Z" fill="#ABB8D6"/>
<path d="M1423.22 320.166L1395.87 304.351V290.711L1423.22 306.527V320.166Z" fill="url(#paint4_linear_326_26802)"/>
<path d="M1423.22 320.166L1450.41 304.455V290.815L1423.22 306.527V320.166Z" fill="url(#paint5_linear_326_26802)"/>
<path d="M1423.22 306.527L1395.87 290.712L1423.05 275L1450.41 290.815L1423.22 306.527Z" fill="url(#paint6_linear_326_26802)"/>
<path d="M1434.32 290.828L1423.17 297.279L1411.95 290.79L1423.1 284.352L1434.32 290.828Z" fill="#3ADCC9"/>
<path d="M1379.64 455.936C1384.8 452.957 1389.96 449.965 1395.11 446.986C1396.75 446.04 1395.26 443.476 1393.62 444.434C1388.46 447.413 1383.3 450.405 1378.15 453.384C1376.5 454.33 1377.99 456.895 1379.64 455.936Z" fill="url(#paint7_linear_326_26802)"/>
<path d="M1379.42 364.659C1384.58 361.68 1389.74 358.688 1394.89 355.708C1396.53 354.763 1395.04 352.198 1393.4 353.157C1388.24 356.136 1383.08 359.128 1377.93 362.107C1376.28 363.053 1377.77 365.617 1379.42 364.659Z" fill="url(#paint8_linear_326_26802)"/>
<path d="M1456.66 352.6C1461.85 355.605 1467.05 358.597 1472.24 361.602C1473.88 362.56 1475.38 359.996 1473.73 359.05C1468.54 356.045 1463.34 353.053 1458.15 350.048C1456.51 349.089 1455.01 351.654 1456.66 352.6Z" fill="url(#paint9_linear_326_26802)"/>
<path d="M1535.72 398.297C1540.91 401.302 1546.11 404.294 1551.3 407.299C1552.94 408.257 1554.44 405.693 1552.78 404.747C1547.6 401.742 1542.4 398.75 1537.21 395.745C1535.56 394.787 1534.06 397.351 1535.72 398.297Z" fill="url(#paint10_linear_326_26802)"/>
<path d="M1542.81 452.996C1547.97 450.017 1553.13 447.025 1558.28 444.046C1559.92 443.1 1558.44 440.536 1556.79 441.494C1551.63 444.473 1546.47 447.465 1541.32 450.444C1539.68 451.39 1541.17 453.955 1542.81 452.996Z" fill="url(#paint11_linear_326_26802)"/>
<path d="M1463.97 498.576C1469.13 495.597 1474.3 492.605 1479.44 489.626C1481.09 488.68 1479.6 486.116 1477.96 487.074C1472.79 490.053 1467.63 493.045 1462.48 496.025C1460.84 496.97 1462.33 499.535 1463.97 498.576Z" fill="url(#paint12_linear_326_26802)"/>
<path d="M1300.58 410.239C1305.74 407.26 1310.9 404.268 1316.05 401.289C1317.69 400.343 1316.21 397.778 1314.56 398.737C1309.4 401.716 1304.24 404.708 1299.09 407.687C1297.45 408.633 1298.93 411.197 1300.58 410.239Z" fill="url(#paint13_linear_326_26802)"/>
<path d="M1349.74 400.071L1315.21 380.111V366.472L1349.74 386.432V400.071Z" fill="url(#paint14_linear_326_26802)"/>
<path d="M1349.74 400.071L1384.06 380.228V366.588L1349.74 386.432V400.071Z" fill="#5A97CC"/>
<path d="M1349.74 400.071L1384.06 380.228V366.588L1349.74 386.432V400.071Z" fill="url(#paint15_linear_326_26802)"/>
<path d="M1349.74 386.432L1315.21 366.472L1349.53 346.628L1384.06 366.589L1349.74 386.432Z" fill="#ABB8D6"/>
<path d="M1270.9 445.639L1236.37 425.679V412.04L1270.9 432V445.639Z" fill="url(#paint16_linear_326_26802)"/>
<path d="M1270.9 445.639L1305.23 425.808V412.169L1270.9 432V445.639Z" fill="url(#paint17_linear_326_26802)"/>
<path d="M1270.9 431.999L1236.37 412.039L1270.69 392.196L1305.23 412.169L1270.9 431.999Z" fill="#ABB8D6"/>
<path d="M1507.63 400.2L1541.96 380.357V366.718L1507.63 386.561V400.2Z" fill="url(#paint18_linear_326_26802)"/>
<path d="M1507.63 386.561V400.201L1473.09 380.228V366.588L1507.63 386.561Z" fill="url(#paint19_linear_326_26802)"/>
<path d="M1541.96 366.718L1507.63 386.561L1473.09 366.588L1507.41 346.758L1541.96 366.718Z" fill="#ABB8D6"/>
<path d="M1507.84 491.465L1542.16 471.622V457.982L1507.84 477.826V491.465Z" fill="url(#paint20_linear_326_26802)"/>
<path d="M1507.84 477.826V491.465L1473.31 471.505V457.866L1507.84 477.826Z" fill="url(#paint21_linear_326_26802)"/>
<path d="M1542.16 457.983L1507.84 477.826L1473.31 457.866L1507.63 438.022L1542.16 457.983Z" fill="#ABB8D6"/>
<path d="M1349.96 491.336L1384.28 471.505V457.866L1349.96 477.697V491.336Z" fill="#5A97CC"/>
<path d="M1349.96 491.336L1384.28 471.505V457.866L1349.96 477.697V491.336Z" fill="url(#paint22_linear_326_26802)"/>
<path d="M1349.96 477.697V491.336L1315.42 471.376V457.737L1349.96 477.697Z" fill="url(#paint23_linear_326_26802)"/>
<path d="M1384.28 457.866L1349.96 477.697L1315.42 457.737L1349.74 437.893L1384.28 457.866Z" fill="#ABB8D6"/>
<path d="M1349.74 384.295L1315.21 364.335V350.696L1349.74 370.656V384.295Z" fill="url(#paint24_linear_326_26802)"/>
<path d="M1349.74 384.295L1384.06 364.451V350.812L1349.74 370.656V384.295Z" fill="#5A97CC"/>
<path d="M1349.74 384.295L1384.06 364.451V350.812L1349.74 370.656V384.295Z" fill="url(#paint25_linear_326_26802)"/>
<path d="M1349.74 370.656L1315.21 350.696L1349.53 330.852L1384.06 350.812L1349.74 370.656Z" fill="url(#paint26_linear_326_26802)"/>
<path d="M1270.9 429.875L1236.37 409.902V396.263L1270.9 416.223V429.875Z" fill="url(#paint27_linear_326_26802)"/>
<path d="M1270.9 429.875L1305.23 410.032V396.393L1270.9 416.223V429.875Z" fill="url(#paint28_linear_326_26802)"/>
<path d="M1270.9 416.223L1236.37 396.263L1270.69 376.419L1305.23 396.392L1270.9 416.223Z" fill="#C5DBEE"/>
<path d="M1270.89 412.104L1243.53 396.289L1270.72 380.577L1298.07 396.392L1270.89 412.104Z" fill="#ABB8D6"/>
<path d="M1507.63 384.424L1541.96 364.581V350.941L1507.63 370.785V384.424Z" fill="url(#paint29_linear_326_26802)"/>
<path d="M1507.63 370.785V384.424L1473.09 364.451V350.812L1507.63 370.785Z" fill="url(#paint30_linear_326_26802)"/>
<path d="M1541.96 350.942L1507.63 370.785L1473.09 350.812L1507.41 330.981L1541.96 350.942Z" fill="url(#paint31_linear_326_26802)"/>
<path d="M1507.84 475.689L1542.16 455.845V442.206L1507.84 462.05V475.689Z" fill="url(#paint32_linear_326_26802)"/>
<path d="M1507.84 462.05V475.689L1473.31 455.729V442.09L1507.84 462.05Z" fill="url(#paint33_linear_326_26802)"/>
<path d="M1542.16 442.206L1507.84 462.05L1473.31 442.09L1507.63 422.246L1542.16 442.206Z" fill="url(#paint34_linear_326_26802)"/>
<path d="M1586.68 445.898L1552.14 425.925V412.286L1586.68 432.259V445.898Z" fill="url(#paint35_linear_326_26802)"/>
<path d="M1586.68 445.898L1621 426.054V412.415L1586.68 432.259V445.898Z" fill="url(#paint36_linear_326_26802)"/>
<path d="M1586.68 432.259L1552.14 412.286L1586.47 392.455L1621 412.415L1586.68 432.259Z" fill="#ABB8D6"/>
<path d="M1586.68 430.122L1552.14 410.148V396.509L1586.68 416.482V430.122Z" fill="url(#paint37_linear_326_26802)"/>
<path d="M1586.68 430.121L1621 410.278V396.639L1586.68 416.482V430.121Z" fill="url(#paint38_linear_326_26802)"/>
<path d="M1586.68 416.482L1552.14 396.509L1586.47 376.679L1621 396.639L1586.68 416.482Z" fill="#C5DBEE"/>
<path d="M1586.67 412.351L1559.3 396.535L1586.48 380.824L1613.85 396.639L1586.67 412.351Z" fill="#ABB8D6"/>
<path d="M1586.67 406.068L1559.3 390.253V376.614L1586.67 392.429V406.068Z" fill="url(#paint39_linear_326_26802)"/>
<path d="M1586.67 406.068L1613.85 390.344V376.705L1586.67 392.429V406.068Z" fill="url(#paint40_linear_326_26802)"/>
<path d="M1586.67 392.429L1559.3 376.614L1586.48 360.902L1613.85 376.705L1586.67 392.429Z" fill="url(#paint41_linear_326_26802)"/>
<path d="M1597.77 376.731L1586.61 383.181L1575.38 376.692L1586.54 370.241L1597.77 376.731Z" fill="#3ADCC9"/>
<path d="M1429.02 537.033L1394.47 517.073V503.434L1429.02 523.394V537.033Z" fill="url(#paint42_linear_326_26802)"/>
<path d="M1429.02 537.033L1463.34 517.203V503.563L1429.02 523.394V537.033Z" fill="url(#paint43_linear_326_26802)"/>
<path d="M1429.02 523.394L1394.47 503.434L1428.8 483.59L1463.34 503.563L1429.02 523.394Z" fill="#ABB8D6"/>
<path d="M1429.02 521.257L1394.47 501.297V487.658L1429.02 507.618V521.257Z" fill="url(#paint44_linear_326_26802)"/>
<path d="M1429.02 521.257L1463.34 501.426V487.787L1429.02 507.618V521.257Z" fill="url(#paint45_linear_326_26802)"/>
<path d="M1429.02 507.618L1394.47 487.657L1428.8 467.814L1463.34 487.787L1429.02 507.618Z" fill="#C5DBEE"/>
<path d="M1428.99 503.499L1401.63 487.683L1428.82 471.972L1456.17 487.774L1428.99 503.499Z" fill="#ABB8D6"/>
<path d="M1428.99 497.203L1401.63 481.388V467.749L1428.99 483.564V497.203Z" fill="url(#paint46_linear_326_26802)"/>
<path d="M1428.99 497.204L1456.17 481.492V467.853L1428.99 483.565V497.204Z" fill="url(#paint47_linear_326_26802)"/>
<path d="M1428.99 483.564L1401.63 467.749L1428.82 452.038L1456.17 467.853L1428.99 483.564Z" fill="url(#paint48_linear_326_26802)"/>
<path d="M1440.09 467.879L1428.94 474.316L1417.72 467.827L1428.86 461.39L1440.09 467.879Z" fill="#8F6EF7"/>
<path d="M1349.96 475.56L1384.28 455.729V442.09L1349.96 461.92V475.56Z" fill="#5A97CC"/>
<path d="M1349.96 475.56L1384.28 455.729V442.09L1349.96 461.92V475.56Z" fill="url(#paint49_linear_326_26802)"/>
<path d="M1349.96 461.921V475.56L1315.42 455.6V441.96L1349.96 461.921Z" fill="url(#paint50_linear_326_26802)"/>
<path d="M1384.28 442.09L1349.96 461.92L1315.42 441.96L1349.74 422.117L1384.28 442.09Z" fill="url(#paint51_linear_326_26802)"/>
<path d="M1270.89 405.809L1243.53 390.007V376.368L1270.89 392.17V405.809Z" fill="url(#paint52_linear_326_26802)"/>
<path d="M1270.89 405.809L1298.07 390.098V376.458L1270.89 392.17V405.809Z" fill="url(#paint53_linear_326_26802)"/>
<path d="M1270.89 392.17L1243.53 376.368L1270.72 360.643L1298.07 376.458L1270.89 392.17Z" fill="url(#paint54_linear_326_26802)"/>
<path d="M1521.64 350.902L1507.57 359.037L1493.4 350.851L1507.48 342.716L1521.64 350.902Z" fill="#8F6EF7"/>
<path d="M1363.76 350.786L1349.67 358.92L1335.51 350.734L1349.6 342.587L1363.76 350.786Z" fill="#8F6FF7"/>
<path d="M1521.97 443.203L1507.89 451.337L1493.73 443.151L1507.8 435.017L1521.97 443.203Z" fill="#8F6EF7"/>
<path d="M1363.97 442.051L1349.89 450.185L1335.73 441.999L1349.8 433.865L1363.97 442.051Z" fill="#8F6EF7"/>
<path d="M1281.87 376.445L1270.73 382.883L1259.5 376.407L1270.65 369.956L1281.87 376.445Z" fill="#8F6FF7"/>
<path d="M1368.87 376.07C1378.78 381.795 1388.7 387.533 1398.61 393.258C1400.26 394.216 1401.76 391.652 1400.1 390.706C1390.19 384.981 1380.27 379.243 1370.36 373.518C1368.72 372.56 1367.22 375.124 1368.87 376.07Z" fill="url(#paint55_linear_326_26802)"/>
<path d="M1298.99 443.747C1304.17 446.753 1309.37 449.745 1314.56 452.75C1316.22 453.708 1317.71 451.143 1316.05 450.198C1310.86 447.193 1305.66 444.201 1300.47 441.196C1298.82 440.237 1297.33 442.802 1298.99 443.747Z" fill="url(#paint56_linear_326_26802)"/>
<path d="M1458.46 410.356C1463.62 407.376 1468.78 404.384 1473.93 401.405C1475.58 400.46 1474.09 397.895 1472.45 398.854C1467.28 401.833 1462.12 404.825 1456.97 407.804C1455.33 408.749 1456.82 411.314 1458.46 410.356Z" fill="url(#paint57_linear_326_26802)"/>
<path d="M1456.88 443.877C1462.07 446.882 1467.27 449.874 1472.46 452.879C1474.1 453.838 1475.6 451.273 1473.95 450.328C1468.76 447.323 1463.56 444.331 1458.37 441.326C1456.73 440.367 1455.23 442.932 1456.88 443.877Z" fill="url(#paint58_linear_326_26802)"/>
<path d="M1378.04 489.445C1383.23 492.45 1388.43 495.442 1393.62 498.447C1395.26 499.405 1396.76 496.841 1395.11 495.895C1389.92 492.89 1384.72 489.898 1379.53 486.893C1377.89 485.935 1376.39 488.499 1378.04 489.445Z" fill="url(#paint59_linear_326_26802)"/>
<path d="M1379.55 406.405C1379.27 407.817 1378.16 409.216 1377.06 409.527L1369.07 411.781C1368.69 411.884 1368.38 411.845 1368.12 411.703L1431.62 448.644C1431.86 448.786 1432.19 448.825 1432.56 448.722L1440.56 446.468C1441.66 446.157 1442.76 444.758 1443.04 443.346L1379.55 406.405Z" fill="#7554DF"/>
<path d="M1373.54 403.322L1370.55 404.164C1368.98 404.605 1367.38 406.625 1366.98 408.659L1366.72 410.006C1366.47 411.353 1366.79 412.376 1367.49 412.791L1430.98 449.732C1430.27 449.317 1429.95 448.294 1430.21 446.947L1430.46 445.6C1430.87 443.553 1432.47 441.546 1434.04 441.105L1437.02 440.263L1373.53 403.322H1373.54Z" fill="url(#paint60_linear_326_26802)"/>
<path d="M1472.24 328.611L1408.74 291.657L1408.96 290.53L1472.46 327.471L1472.24 328.611Z" fill="#ACBAD5"/>
<path d="M1475.74 316.863L1412.25 279.922C1412.87 280.285 1413.16 281.178 1412.92 282.37L1412.09 286.58C1411.75 288.367 1410.34 290.142 1408.96 290.53L1472.46 327.471C1473.84 327.083 1475.24 325.308 1475.59 323.521L1476.42 319.311C1476.65 318.132 1476.37 317.226 1475.74 316.863Z" fill="url(#paint61_linear_326_26802)"/>
<path d="M1443.04 443.346L1379.54 406.405L1403.3 285.077L1466.79 322.018L1443.04 443.346Z" fill="#8F6EF7"/>
<path d="M1474.77 315.632C1476.64 315.114 1477.76 316.656 1477.28 319.065L1476.46 323.275C1475.99 325.684 1474.09 328.08 1472.23 328.598L1472.45 327.471C1473.83 327.083 1475.23 325.308 1475.58 323.521L1476.4 319.311C1476.75 317.524 1475.91 316.384 1474.54 316.772L1470.79 317.834C1469.41 318.223 1468.01 319.998 1467.66 321.785L1443.89 443.113C1443.49 445.146 1441.89 447.167 1440.32 447.607L1432.33 449.861C1430.75 450.302 1429.81 449.006 1430.21 446.973L1430.47 445.626C1430.87 443.579 1432.47 441.572 1434.04 441.131L1437.02 440.289L1436.8 441.416L1433.82 442.258C1432.72 442.569 1431.6 443.968 1431.33 445.38L1431.07 446.727C1430.8 448.139 1431.46 449.045 1432.55 448.734L1440.54 446.481C1441.64 446.17 1442.74 444.771 1443.03 443.359L1466.79 322.031C1467.26 319.622 1469.16 317.226 1471.02 316.708L1474.77 315.645V315.632Z" fill="#DFE2E9"/>
<path d="M1412.88 278.821C1412.46 278.575 1411.91 278.51 1411.28 278.692L1407.53 279.754C1405.66 280.272 1403.78 282.668 1403.3 285.077L1466.79 322.018C1467.26 319.609 1469.16 317.213 1471.02 316.695L1474.77 315.633C1475.41 315.451 1475.95 315.516 1476.38 315.762L1412.88 278.821Z" fill="url(#paint62_linear_326_26802)"/>
<path d="M1445.83 334.116L1416.78 317.304C1415.95 316.825 1415.46 315.542 1415.66 314.441C1415.87 313.34 1416.71 312.835 1417.54 313.314L1446.6 330.127C1447.42 330.606 1447.92 331.889 1447.71 332.989C1447.5 334.09 1446.66 334.596 1445.83 334.116Z" fill="#CFE3FC"/>
<path d="M1448.67 354.025L1407.66 330.295C1406.83 329.816 1406.34 328.534 1406.54 327.433C1406.75 326.332 1407.59 325.827 1408.42 326.306L1449.43 350.035C1450.26 350.515 1450.75 351.797 1450.54 352.898C1450.34 353.999 1449.5 354.504 1448.67 354.025Z" fill="#CFE3FC"/>
<path d="M1446.87 363.428L1405.86 339.699C1405.03 339.22 1404.54 337.937 1404.75 336.836C1404.95 335.735 1405.79 335.23 1406.62 335.709L1447.63 359.439C1448.46 359.918 1448.95 361.2 1448.74 362.301C1448.54 363.402 1447.7 363.907 1446.87 363.428Z" fill="#CFE3FC"/>
<path d="M1436.49 367.884L1404.05 349.103C1403.22 348.623 1402.73 347.341 1402.93 346.24C1403.14 345.139 1403.98 344.634 1404.81 345.113L1437.26 363.895C1438.08 364.374 1438.58 365.656 1438.37 366.757C1438.16 367.858 1437.32 368.363 1436.49 367.884Z" fill="#CFE3FC"/>
<path d="M1443.26 382.248L1402.25 358.519C1401.42 358.04 1400.93 356.758 1401.14 355.657C1401.34 354.556 1402.18 354.05 1403.01 354.53L1444.02 378.259C1444.85 378.738 1445.34 380.021 1445.13 381.122C1444.93 382.223 1444.09 382.728 1443.26 382.248Z" fill="#CFE3FC"/>
<path d="M1439.78 416.832L1417.93 404.19C1417.77 404.1 1417.67 403.854 1417.71 403.633C1417.75 403.413 1417.92 403.323 1418.07 403.413L1439.92 416.055C1440.08 416.146 1440.18 416.392 1440.14 416.612C1440.1 416.832 1439.93 416.923 1439.78 416.832Z" fill="#DBDBDB"/>
<path d="M1412.99 375.189L1400.45 367.936C1399.62 367.456 1399.13 366.174 1399.34 365.073C1399.55 363.972 1400.39 363.467 1401.21 363.946L1413.75 371.2C1414.58 371.679 1415.07 372.961 1414.86 374.062C1414.66 375.163 1413.81 375.668 1412.99 375.189Z" fill="#CFE3FC"/>
<path d="M1439.38 411.69C1437.28 411.353 1435.94 410.252 1435.29 408.335C1435.02 408.335 1434.81 408.309 1434.71 408.296C1432.55 408.011 1430.93 407.118 1429.91 405.615C1429.07 404.385 1428.69 402.999 1428.9 401.872C1428.9 401.872 1428.87 401.859 1428.87 401.846C1428.59 402.442 1428.06 402.882 1427.3 403.18C1425.42 403.892 1423.17 403.439 1421.41 401.975C1420.54 401.25 1419.8 400.279 1419.25 399.165C1418.65 397.973 1418.69 396.561 1419.33 395.642C1419.93 394.761 1421.05 394.8 1421.41 394.787C1423.36 394.813 1424.99 396.082 1426.45 397.442C1426.98 397.934 1427.39 398.439 1427.77 398.97C1427.59 398.543 1427.33 398.077 1427.04 397.571L1426.82 397.222C1426.08 396.043 1425.33 394.826 1425.21 393.465C1425.03 391.432 1426.43 390.188 1427.83 390.046C1428.61 389.955 1429.21 390.188 1429.87 390.551C1430.43 390.862 1431.06 391.238 1431.56 391.872C1432.06 392.494 1432.43 393.465 1432.19 394.256L1431.31 393.984C1431.42 393.595 1431.23 392.934 1430.84 392.442C1430.44 391.937 1429.92 391.639 1429.43 391.354C1428.81 391.004 1428.39 390.901 1427.92 390.953C1426.96 391.056 1426 391.937 1426.13 393.375C1426.22 394.515 1426.92 395.642 1427.59 396.717L1427.81 397.066C1428.71 398.53 1429.15 399.735 1429.11 400.732C1429.16 400.784 1429.2 400.849 1429.25 400.9C1429.46 400.564 1429.73 400.292 1430.08 400.084C1430.46 399.851 1430.9 399.618 1431.4 399.501C1432.33 399.294 1433.62 399.644 1434.54 400.33C1435.2 400.823 1435.63 401.535 1435.7 402.26C1435.77 402.856 1435.6 403.439 1435.21 403.892C1434.46 404.773 1432.65 405.045 1430.01 402.908C1429.92 402.83 1429.83 402.766 1429.74 402.688C1429.78 403.439 1430.1 404.294 1430.65 405.084C1431.53 406.366 1432.88 407.118 1434.8 407.364C1434.84 407.364 1434.91 407.377 1435.03 407.39C1434.85 406.276 1435.02 405.162 1435.51 404.333C1435.77 403.879 1436.74 402.61 1437.86 402.74C1438.27 402.778 1438.8 403.025 1439.12 403.944C1439.44 404.89 1439.2 406.03 1438.8 406.612C1438.08 407.662 1437.08 408.076 1436.22 408.232C1436.62 409.307 1437.42 410.434 1439.51 410.77L1439.37 411.677L1439.38 411.69ZM1437.75 403.659C1437.3 403.659 1436.6 404.333 1436.33 404.812C1435.92 405.486 1435.81 406.418 1435.98 407.351C1436.66 407.234 1437.49 406.923 1438.05 406.107C1438.32 405.719 1438.47 404.864 1438.27 404.255C1438.18 403.996 1438.02 403.685 1437.79 403.659C1437.77 403.659 1437.76 403.659 1437.75 403.659ZM1429.93 401.613C1430.14 401.807 1430.36 402.001 1430.61 402.209C1432.59 403.815 1434.04 403.905 1434.53 403.322C1434.75 403.063 1434.84 402.74 1434.8 402.39C1434.75 401.911 1434.45 401.444 1433.98 401.095C1433.28 400.564 1432.25 400.279 1431.59 400.421C1431.23 400.499 1430.88 400.693 1430.56 400.887C1430.27 401.056 1430.06 401.302 1429.92 401.613H1429.93ZM1421.33 395.706C1420.68 395.706 1420.3 395.849 1420.08 396.173C1419.64 396.807 1419.64 397.869 1420.08 398.75C1420.57 399.735 1421.25 400.628 1422 401.263C1423.5 402.519 1425.41 402.921 1426.97 402.325C1427.63 402.079 1428.01 401.703 1428.15 401.172C1428.15 401.133 1428.17 401.082 1428.17 401.043C1427.88 400.667 1427.62 400.317 1427.37 399.968C1426.91 399.307 1426.45 398.685 1425.83 398.116C1424.5 396.885 1423.04 395.732 1421.4 395.706H1421.33Z" fill="white"/>
<path d="M1377.9 367.456L1381.3 365.487C1387.73 370.383 1391.64 371.368 1394.53 372.145C1397.41 374.697 1401.32 378.246 1407.75 380.771V394.734C1407.75 400.369 1405.52 403.193 1402.91 404.579L1399.52 406.547L1399.71 405.628C1396.96 406.081 1394.54 405.537 1394.54 405.537C1394.54 405.537 1381.32 393.206 1381.32 379.463V371.251L1377.91 367.456H1377.9Z" fill="#94B4FA"/>
<path d="M1407.75 380.784L1404.34 382.753L1397.06 380.759L1391.11 374.114L1394.51 372.145C1397.4 374.697 1401.3 378.246 1407.73 380.772L1407.75 380.784Z" fill="#ACC5FB"/>
<path d="M1378.28 367.236L1381.3 365.487C1387.73 370.383 1391.64 371.368 1394.53 372.145L1391.12 374.114H1383.84L1377.89 367.456L1378.26 367.249L1378.28 367.236Z" fill="#94B4FA"/>
<path d="M1391.12 374.114C1394.01 376.665 1397.91 380.214 1404.34 382.74V396.703C1404.34 410.446 1391.12 407.493 1391.12 407.493C1391.12 407.493 1377.9 395.162 1377.9 381.419V367.456C1384.33 372.352 1388.24 373.337 1391.12 374.114Z" fill="white"/>
<path d="M1391.12 404.579C1392.18 404.708 1394.28 404.851 1396.34 404.216C1400.06 403.089 1401.95 400.097 1401.95 395.317V384.45C1401.07 384.023 1400.22 383.569 1399.38 383.09C1395.81 381.031 1393.13 378.725 1391.12 376.95C1389.12 376.406 1386.44 375.616 1382.87 373.544C1382.03 373.065 1381.17 372.521 1380.29 371.925V382.792C1380.29 387.572 1382.18 392.753 1385.91 398.18C1387.97 401.185 1390.06 403.465 1391.12 404.566V404.579Z" fill="#94B4FA"/>
<path d="M1391.98 404.086C1390.92 402.998 1388.82 400.706 1386.76 397.701C1383.04 392.26 1381.15 387.079 1381.15 382.313V372.495C1381.73 372.87 1382.31 373.22 1382.87 373.557C1386.44 375.629 1389.12 376.419 1391.12 376.963C1393.13 378.738 1395.81 381.043 1399.38 383.103C1400.22 383.582 1401.07 384.048 1401.95 384.463V395.33C1401.95 399.074 1400.79 401.716 1398.5 403.231C1398.08 403.426 1397.66 403.594 1397.19 403.737C1395.13 404.358 1393.04 404.229 1391.98 404.099V404.086Z" fill="#00CA58"/>
<path d="M1392.68 397.454L1391.3 398.258C1391.3 398.258 1391.42 398.18 1391.48 398.141L1392.86 397.338C1392.86 397.338 1392.74 397.429 1392.68 397.454Z" fill="#BEB7C8"/>
<path d="M1383.23 385.486L1384.6 384.683C1385.07 384.411 1385.69 384.489 1386.31 384.852C1386.88 385.188 1387.46 385.745 1387.91 386.484L1386.54 387.287C1386.08 386.548 1385.51 385.978 1384.94 385.655C1384.32 385.292 1383.7 385.214 1383.23 385.486Z" fill="#CBDCF9"/>
<path d="M1386.56 387.3L1387.93 386.497L1390.46 390.59L1389.09 391.393L1386.56 387.3Z" fill="#CBDCF9"/>
<path d="M1398.46 392.442L1399.83 391.639L1392.84 397.338L1391.47 398.141L1398.46 392.442Z" fill="#CBDCF9"/>
<path d="M1394.9 386.665L1396.27 385.862C1396.74 385.59 1397.36 385.668 1397.99 386.03L1396.62 386.833C1396 386.471 1395.37 386.393 1394.9 386.665Z" fill="#CBDCF9"/>
<path d="M1396.62 386.833L1397.99 386.03C1398.54 386.341 1399.07 386.859 1399.52 387.546C1400.54 389.113 1400.68 390.952 1399.83 391.639L1398.46 392.442C1399.31 391.755 1399.17 389.929 1398.15 388.349C1397.69 387.662 1397.16 387.144 1396.62 386.833Z" fill="#CBDCF9"/>
<path d="M1396.62 386.834C1397.16 387.144 1397.69 387.662 1398.15 388.349C1399.17 389.916 1399.31 391.756 1398.46 392.442L1391.47 398.141C1390.9 398.608 1390.09 398.53 1389.27 398.063C1388.6 397.675 1387.93 397.014 1387.38 396.134L1383.32 389.567C1382.34 387.973 1382.26 386.173 1383.15 385.551C1383.63 385.214 1384.29 385.292 1384.95 385.668C1385.52 386.005 1386.1 386.562 1386.56 387.3L1389.09 391.393L1394.76 386.769C1395.24 386.38 1395.92 386.432 1396.62 386.834Z" fill="white"/>
<path opacity="0.2" d="M1410.88 386.276L1374.34 408.49C1389.84 416.223 1390.55 425.07 1373.37 435.302L1177.25 547.939C1159.68 560.671 1217.06 564.998 1215.09 576.5C1215.09 576.5 1433.94 449.408 1434.27 447.426C1471.67 415.226 1410.89 386.276 1410.89 386.276H1410.88Z" fill="url(#paint63_linear_326_26802)"/>
<path opacity="0.2" d="M1165.01 619.373C1156.6 624.23 1142.94 624.205 1134.48 619.321C1126.02 614.438 1125.98 606.524 1134.39 601.667C1142.8 596.81 1156.46 596.836 1164.92 601.719C1173.38 606.602 1173.42 614.516 1165.01 619.373Z" fill="url(#paint64_linear_326_26802)"/>
<path d="M1254.43 443.67V582.834V585.088C1254.43 589.828 1246.84 597.185 1243.28 595.139L1176.71 548.742C1173.15 546.696 1170.28 541.178 1170.28 536.437L1163.95 395.007C1163.95 390.266 1173.16 388.09 1176.71 390.137L1184.34 394.553L1247.99 431.339C1251.53 433.399 1254.42 438.903 1254.42 443.644L1254.43 443.67Z" fill="url(#paint65_linear_326_26802)"/>
<path d="M1246.8 448.074V587.238V589.491C1246.8 594.232 1243.93 596.408 1240.37 594.362L1169.08 553.146C1165.53 551.1 1162.66 545.582 1162.66 540.841V399.411C1162.66 394.67 1165.54 392.494 1169.08 394.54L1176.72 398.957L1240.37 435.743C1243.91 437.802 1246.8 443.307 1246.8 448.048V448.074Z" fill="url(#paint66_linear_326_26802)"/>
<path d="M1164.49 524.43V408.089C1164.49 404.605 1166.6 403.012 1169.21 404.514L1240.24 445.561C1242.85 447.064 1244.96 451.118 1244.96 454.589V570.93C1244.96 574.415 1242.85 576.008 1240.24 574.505L1169.21 533.458C1166.6 531.956 1164.49 527.902 1164.49 524.43Z" fill="#E0E2EA"/>
<path d="M1241.87 572.252C1241.16 572.666 1240.28 572.614 1239.4 572.096L1168.37 531.049C1168.02 530.855 1167.39 530.401 1166.96 529.663C1166.6 529.028 1166.17 527.785 1166.17 526.373V410.032C1166.17 408.491 1166.69 407.312 1167.58 406.794C1168.3 406.379 1169.18 406.431 1170.05 406.949L1241.08 447.996C1241.43 448.191 1242.06 448.644 1242.49 449.382C1242.85 450.017 1243.28 451.26 1243.28 452.672V569.013C1243.28 570.555 1242.76 571.746 1241.87 572.252Z" fill="#0F165A"/>
<path style="mix-blend-mode:lighten" opacity="0.2" d="M1246.8 589.505C1246.8 594.245 1243.93 596.421 1240.37 594.375L1169.08 553.159C1165.53 551.113 1162.66 545.595 1162.66 540.854V399.424C1162.66 394.683 1165.54 392.507 1169.08 394.554L1246.8 589.492V589.505Z" fill="url(#paint67_linear_326_26802)"/>
<path d="M1204.29 421.741L1192.49 414.928C1191.74 414.488 1191.12 413.322 1191.12 412.312C1191.12 411.301 1191.72 410.848 1192.49 411.275L1204.29 418.088C1205.04 418.529 1205.66 419.695 1205.66 420.705C1205.66 421.715 1205.05 422.169 1204.29 421.741Z" fill="#372E36"/>
<path d="M1229.73 434.046C1229.73 435.445 1228.75 436.002 1227.53 435.302C1226.32 434.603 1225.33 432.906 1225.33 431.507C1225.33 430.108 1226.32 429.551 1227.53 430.251C1228.75 430.95 1229.73 432.647 1229.73 434.046Z" fill="#64B2C0"/>
<path d="M1228.52 437.012C1227.97 437.012 1227.39 436.844 1226.82 436.52C1225.17 435.562 1223.92 433.411 1223.92 431.507C1223.92 430.329 1224.42 429.37 1225.27 428.878C1226.12 428.386 1227.2 428.438 1228.23 429.033C1229.89 429.992 1231.13 432.142 1231.13 434.046C1231.13 435.225 1230.64 436.183 1229.79 436.675C1229.4 436.896 1228.97 437.012 1228.52 437.012ZM1226.73 431.417C1226.73 432.401 1227.44 433.632 1228.23 434.085C1228.32 433.152 1227.61 431.922 1226.84 431.468C1226.8 431.443 1226.77 431.43 1226.75 431.417H1226.73Z" fill="#222121"/>
<path d="M1172.68 439.693V515.596L1230.19 548.315V472.308L1172.68 439.693Z" fill="white"/>
<path d="M1228.57 491.75C1228.86 491.75 1229.1 491.517 1229.1 491.219V473.448C1229.1 473.254 1229 473.086 1228.84 472.995L1215.49 465.275C1215.25 465.133 1214.92 465.21 1214.77 465.469C1214.62 465.716 1214.7 466.039 1214.96 466.195L1228.04 473.759V491.232C1228.04 491.517 1228.27 491.763 1228.57 491.763V491.75Z" fill="#3A83C9"/>
<path d="M1228.57 546.799C1228.66 546.799 1228.75 546.773 1228.83 546.734C1229 546.644 1229.09 546.463 1229.09 546.281V528.51C1229.09 528.225 1228.85 527.979 1228.56 527.979C1228.26 527.979 1228.03 528.212 1228.03 528.51V545.374L1215.48 538.121C1215.23 537.978 1214.91 538.056 1214.75 538.315C1214.61 538.561 1214.69 538.885 1214.95 539.041L1228.3 546.747C1228.38 546.799 1228.47 546.812 1228.56 546.812L1228.57 546.799Z" fill="#3A83C9"/>
<path d="M1173.98 460.198C1174.26 460.198 1174.51 459.965 1174.51 459.667V442.802L1187.05 450.056C1187.3 450.198 1187.62 450.121 1187.78 449.862C1187.92 449.615 1187.84 449.292 1187.59 449.136L1174.25 441.429C1174.08 441.339 1173.88 441.339 1173.72 441.429C1173.55 441.52 1173.46 441.701 1173.46 441.883V459.667C1173.46 459.952 1173.69 460.198 1173.99 460.198H1173.98Z" fill="#3A83C9"/>
<path d="M1187.31 522.953C1187.5 522.953 1187.68 522.863 1187.77 522.694C1187.91 522.448 1187.83 522.124 1187.57 521.969L1174.49 514.405V496.931C1174.49 496.646 1174.26 496.4 1173.96 496.4C1173.67 496.4 1173.43 496.634 1173.43 496.931V514.716C1173.43 514.91 1173.54 515.078 1173.69 515.169L1187.03 522.876C1187.11 522.928 1187.2 522.94 1187.29 522.94L1187.31 522.953Z" fill="#3A83C9"/>
<path d="M1207.64 482.023C1207.64 482.023 1207.64 482.023 1207.64 482.01V482.023ZM1182.22 505.597C1182.22 505.934 1182.34 506.175 1182.59 506.322C1183.69 506.97 1184.76 507.553 1185.86 508.239C1185.86 508.991 1185.86 509.716 1185.86 510.415C1185.86 510.48 1185.72 510.532 1185.66 510.493C1183.65 509.496 1184.12 508.913 1184.04 511.594C1184.04 511.892 1184.09 512.034 1184.34 512.177C1185.31 512.721 1186.28 513.291 1187.24 513.848C1187.75 514.159 1187.68 514.042 1187.68 514.716C1187.68 515.298 1187.68 515.868 1187.68 516.49C1188.28 516.84 1188.87 517.177 1189.49 517.539V515.156C1190 515.454 1190.5 515.713 1190.97 516.024C1191.23 516.192 1191.31 516.114 1191.3 515.778C1191.27 515.221 1191.3 514.677 1191.3 514.146C1191.3 513.9 1191.26 513.757 1191.05 513.641C1190.61 513.407 1190.16 513.148 1189.72 512.876C1189.53 512.76 1189.49 512.837 1189.49 513.071C1189.49 513.666 1189.49 514.249 1189.49 514.845C1189.49 515.078 1189.44 515.13 1189.25 515.026C1188.79 514.754 1188.34 514.482 1187.87 514.223C1187.75 514.159 1187.66 514.094 1187.66 513.887C1187.66 512.371 1187.66 510.856 1187.66 509.275C1188.21 509.599 1188.72 509.884 1189.27 510.208C1189.42 510.312 1189.49 510.26 1189.49 510.04C1189.49 509.418 1189.49 508.809 1189.49 508.187C1189.49 507.967 1189.53 507.89 1189.71 508.006C1190.16 508.278 1190.61 508.537 1191.07 508.796C1191.23 508.887 1191.3 509.003 1191.3 509.237C1191.3 509.819 1191.3 510.428 1191.3 511.011C1191.3 511.309 1191.38 511.439 1191.58 511.555C1192 511.775 1192.4 512.047 1192.81 512.255C1193.07 512.384 1193.12 512.552 1193.12 512.863C1193.12 515.13 1193.12 517.397 1193.12 519.676C1194.84 520.726 1196.54 521.645 1198.26 522.681C1198.52 522.824 1198.59 522.798 1198.58 522.435C1198.56 521.878 1198.58 521.347 1198.58 520.79C1198.58 520.544 1198.62 520.454 1198.83 520.57C1199.27 520.842 1199.69 521.088 1200.13 521.321C1200.33 521.425 1200.39 521.568 1200.39 521.827C1200.39 522.409 1200.39 523.018 1200.39 523.601C1200.39 523.808 1200.44 523.925 1200.61 524.016C1201.67 524.624 1202.75 525.233 1203.81 525.868C1203.99 525.971 1204.03 525.894 1204.03 525.674C1204.03 525.078 1204.03 524.495 1204.03 523.899C1204.03 523.653 1204.08 523.588 1204.27 523.705C1204.71 523.977 1205.17 524.236 1205.61 524.469C1205.83 524.586 1205.88 524.728 1205.88 525C1205.88 525.661 1205.88 526.321 1205.88 527.008C1207.09 527.707 1208.28 528.394 1209.5 529.106C1209.5 528.368 1209.5 527.642 1209.5 526.917C1209.5 526.839 1209.36 526.645 1209.28 526.593C1208.84 526.321 1208.39 526.062 1207.95 525.816C1207.75 525.712 1207.68 525.583 1207.69 525.324C1207.7 524.754 1207.7 524.171 1207.69 523.588C1207.69 523.316 1207.75 523.277 1207.95 523.394C1208.39 523.666 1208.81 523.886 1209.25 524.158C1209.45 524.275 1209.51 524.223 1209.51 523.951C1209.51 523.277 1209.51 522.604 1209.51 521.904C1208.4 521.205 1207.3 520.609 1206.19 519.961C1205.94 519.819 1205.88 519.676 1205.88 519.353C1205.88 517.993 1205.88 516.633 1205.88 515.26C1205.88 514.988 1205.93 514.923 1206.15 515.052C1206.67 515.363 1207.18 515.635 1207.72 515.933C1207.72 515.286 1207.69 514.625 1207.72 513.99C1207.72 513.653 1207.66 513.472 1207.38 513.33C1206.98 513.135 1206.58 512.863 1206.19 512.656C1205.98 512.54 1205.89 512.423 1205.89 512.125C1205.9 511.452 1205.89 510.765 1205.89 510.079C1205.37 509.781 1204.84 509.457 1204.33 509.172C1204.12 509.055 1204.05 508.939 1204.05 508.654C1204.08 507.177 1204.02 505.636 1204.09 504.185C1204.62 504.496 1205.14 504.781 1205.66 505.092C1205.84 505.208 1205.9 505.157 1205.9 504.91C1205.9 504.211 1205.9 503.524 1205.9 502.825C1205.31 502.475 1204.71 502.139 1204.09 501.776C1204.05 500.234 1204.09 498.771 1204.08 497.255C1204.08 496.983 1204.02 496.841 1203.81 496.737C1203.39 496.517 1202.99 496.245 1202.58 496.038C1202.31 495.895 1202.24 495.727 1202.26 495.403C1202.27 494.859 1202.26 494.289 1202.26 493.732C1202.26 493.499 1202.2 493.383 1202.02 493.292C1201.58 493.059 1201.16 492.787 1200.72 492.541C1200.52 492.437 1200.43 492.307 1200.43 492.022C1200.44 491.466 1200.44 490.896 1200.43 490.313C1200.43 490.015 1200.51 489.989 1200.72 490.118C1201.74 490.714 1202.76 491.297 1203.78 491.893C1204 492.022 1204.08 491.997 1204.07 491.686C1204.05 491.103 1204.07 490.546 1204.07 489.976C1204.07 489.665 1204.14 489.639 1204.36 489.769C1204.87 490.08 1205.37 490.352 1205.9 490.662C1205.9 489.885 1205.9 489.16 1205.9 488.422C1205.9 488.176 1205.75 488.15 1205.65 488.098C1203.91 487.088 1202.19 486.103 1200.46 485.093C1200.46 484.316 1200.46 483.577 1200.46 482.865C1200.46 482.8 1200.63 482.787 1200.72 482.839C1201.83 483.474 1202.93 484.108 1204.04 484.756C1204.09 483.979 1204.03 483.163 1204.02 482.347C1204.65 482.697 1205.27 483.046 1205.9 483.409C1205.9 482.709 1205.9 482.023 1205.9 481.324C1205.9 481.052 1205.97 481.013 1206.16 481.142C1206.68 481.453 1207.2 481.738 1207.72 482.049C1207.72 481.246 1207.72 480.443 1207.72 479.64C1207.12 479.29 1206.52 478.953 1205.9 478.591V476.181C1206.51 476.531 1207.11 476.868 1207.72 477.218C1207.72 476.518 1207.72 475.819 1207.72 475.132C1207.72 474.86 1207.65 474.718 1207.44 474.614C1206.94 474.342 1206.43 474.031 1205.9 473.733C1205.9 472.956 1205.9 472.231 1205.9 471.505C1205.9 471.441 1206.07 471.428 1206.15 471.48C1207.15 472.036 1208.14 472.619 1209.13 473.189C1209.38 473.336 1209.51 473.245 1209.51 472.917C1209.51 472.386 1209.51 471.842 1209.51 471.324C1209.51 471.078 1209.45 470.948 1209.27 470.858C1208.83 470.612 1208.37 470.34 1207.94 470.094C1207.75 469.99 1207.69 469.873 1207.69 469.627C1207.69 469.031 1207.69 468.423 1207.69 467.814C1207.69 467.723 1207.61 467.503 1207.56 467.477C1207.02 467.14 1206.46 466.829 1205.88 466.493V471.324C1205.3 470.987 1204.75 470.676 1204.2 470.34C1204.14 470.301 1204.05 470.068 1204.05 469.964C1204.04 469.368 1204.04 468.772 1204.05 468.19C1204.05 467.918 1203.99 467.801 1203.8 467.697C1203.37 467.464 1202.94 467.231 1202.51 466.959C1202.28 466.817 1202.23 466.907 1202.23 467.192C1202.23 467.762 1202.23 468.332 1202.23 468.902C1202.23 469.148 1202.17 469.2 1201.98 469.083C1201.57 468.824 1201.14 468.578 1200.73 468.358C1200.48 468.228 1200.41 468.086 1200.41 467.762C1200.42 466.428 1200.41 465.081 1200.41 463.747C1200.41 463.423 1200.33 463.28 1200.1 463.151C1198.48 462.231 1196.86 461.299 1195.26 460.353C1195 460.211 1194.95 460.288 1194.95 460.599C1194.95 461.933 1194.95 463.255 1194.95 464.589C1194.95 464.977 1194.86 464.99 1194.6 464.835C1194.2 464.576 1193.78 464.368 1193.37 464.122C1193.17 463.993 1193.11 464.071 1193.11 464.33C1193.11 465.729 1193.11 467.127 1193.11 468.526C1193.11 468.772 1193.16 468.889 1193.36 468.993C1193.87 469.278 1194.38 469.575 1194.91 469.886V472.308C1194.48 472.062 1194.05 471.816 1193.64 471.57C1193.29 471.372 1193.11 471.501 1193.11 471.959C1193.11 475.754 1193.11 479.562 1193.11 483.357C1192.57 483.046 1192.04 482.735 1191.49 482.437C1191.34 482.347 1191.3 482.23 1191.3 482.049C1191.3 481.453 1191.3 480.831 1191.3 480.236C1191.3 480.002 1191.26 479.873 1191.07 479.769C1190.63 479.536 1190.17 479.277 1189.73 479.005C1189.55 478.888 1189.49 478.927 1189.49 479.186C1189.49 479.782 1189.49 480.365 1189.49 480.974C1189.49 481.22 1189.44 481.285 1189.25 481.168C1188.81 480.896 1188.36 480.663 1187.92 480.391C1187.74 480.287 1187.66 480.287 1187.66 480.559C1187.66 481.259 1187.66 481.958 1187.66 482.697C1188.15 482.982 1188.63 483.254 1189.1 483.526C1189.36 483.672 1189.49 483.91 1189.49 484.238C1189.49 484.769 1189.49 485.3 1189.49 485.844C1189.49 486.103 1189.42 486.142 1189.24 486.025C1188.72 485.702 1188.21 485.43 1187.69 485.119V487.541C1188.17 487.813 1188.63 488.085 1189.11 488.357C1189.36 488.504 1189.49 488.745 1189.49 489.082C1189.49 489.574 1189.49 490.054 1189.49 490.546C1189.49 490.848 1189.37 490.934 1189.14 490.805C1188.65 490.52 1188.18 490.235 1187.68 489.976V492.398C1187.08 492.061 1186.5 491.712 1185.86 491.349C1185.86 491.971 1185.86 492.554 1185.86 493.136C1185.86 493.849 1185.94 493.797 1185.4 493.486C1184.96 493.24 1184.52 492.981 1184.04 492.696V504.781C1183.43 504.431 1182.85 504.094 1182.23 503.732C1182.23 503.019 1182.23 502.32 1182.23 501.62C1182.23 501.413 1182.16 501.297 1182.01 501.206C1181.57 500.96 1181.12 500.688 1180.68 500.442C1180.48 500.338 1180.41 500.222 1180.42 499.95C1180.42 499.38 1180.43 498.797 1180.42 498.214C1180.42 497.916 1180.5 497.903 1180.7 498.02C1181.14 498.292 1181.57 498.525 1182.01 498.784C1182.19 498.887 1182.24 498.836 1182.24 498.615C1182.24 497.204 1182.24 495.792 1182.24 494.38C1182.24 494.211 1182.24 494.069 1182.06 493.978C1180.95 493.344 1179.82 492.696 1178.71 492.048C1178.7 492.048 1178.67 492.048 1178.65 492.048V501.672C1179.84 502.359 1181.01 503.045 1182.23 503.745C1182.27 504.431 1182.24 505.027 1182.26 505.688L1182.22 505.597ZM1204.02 475.093C1203.99 475.793 1204 476.466 1204.02 477.179C1204.02 477.425 1203.95 477.477 1203.77 477.36C1203.33 477.088 1202.88 476.829 1202.44 476.596C1202.27 476.505 1202.2 476.389 1202.2 476.155C1202.2 473.928 1202.2 471.7 1202.2 469.472C1202.2 469.265 1202.26 469.2 1202.42 469.303C1202.89 469.575 1203.34 469.847 1203.81 470.107C1203.98 470.197 1204.03 470.327 1204.02 470.521C1204.02 471.207 1204.04 471.933 1204.05 472.632C1204.66 472.995 1205.23 473.371 1205.84 473.707C1205.84 474.562 1205.84 475.365 1205.84 476.155C1205.24 475.806 1204.64 475.469 1204.03 475.106L1204.02 475.093ZM1202.19 480.935C1202.2 480.365 1202.19 479.782 1202.19 479.199C1202.19 478.966 1202.24 478.888 1202.44 479.005C1202.89 479.277 1203.34 479.536 1203.8 479.782C1203.98 479.886 1204.02 480.002 1204.02 480.223C1204.02 480.831 1204.02 481.453 1204.02 482.062C1204.02 482.153 1203.98 482.23 1203.96 482.321C1203.47 482.036 1202.98 481.725 1202.49 481.453C1202.29 481.337 1202.2 481.22 1202.2 480.935H1202.19ZM1189.5 493.59C1189.5 494.237 1189.5 494.885 1189.5 495.533C1189.5 495.61 1189.42 495.701 1189.38 495.675C1188.83 495.364 1188.27 495.04 1187.7 494.717V492.32C1188.24 492.631 1188.78 492.942 1189.32 493.24C1189.45 493.318 1189.51 493.395 1189.51 493.59H1189.5ZM1193.14 485.818C1193.14 486.492 1193.12 487.152 1193.14 487.826C1193.14 488.059 1193.1 488.15 1192.9 488.033C1192.45 487.761 1192 487.502 1191.54 487.243C1191.39 487.152 1191.32 487.049 1191.32 486.828C1191.32 486.22 1191.32 485.598 1191.32 484.976C1191.32 484.756 1191.39 484.73 1191.54 484.821C1192.01 485.106 1192.49 485.365 1192.95 485.637C1193.02 485.676 1193.08 485.753 1193.15 485.805L1193.14 485.818ZM1193.14 492.709C1193.14 492.929 1193.08 492.968 1192.92 492.877C1192.45 492.605 1192 492.333 1191.53 492.074C1191.39 491.997 1191.31 491.906 1191.32 491.686C1191.32 491.064 1191.32 490.429 1191.32 489.808C1191.32 489.613 1191.38 489.561 1191.53 489.652C1191.76 489.795 1192 489.924 1192.23 490.054C1192.46 490.183 1192.7 490.326 1192.93 490.455C1193.08 490.533 1193.16 490.649 1193.15 490.87C1193.15 491.478 1193.15 492.1 1193.15 492.722L1193.14 492.709ZM1194.95 474.99C1194.95 474.744 1195 474.692 1195.19 474.808C1195.71 475.119 1196.23 475.417 1196.74 475.715C1196.74 476.44 1196.74 477.179 1196.76 477.904C1196.76 478.098 1196.69 478.098 1196.56 478.034C1196.1 477.762 1195.63 477.49 1195.15 477.218C1194.99 477.127 1194.93 477.01 1194.95 476.803C1194.95 476.207 1194.95 475.598 1194.95 474.99ZM1198.59 477.192C1198.59 476.881 1198.54 476.725 1198.28 476.583C1197.77 476.311 1197.26 475.987 1196.74 475.689V473.28C1197.95 473.966 1199.09 474.64 1200.22 475.288C1200.41 475.391 1200.39 475.547 1200.39 475.702C1200.39 477.101 1200.39 478.5 1200.39 479.899C1200.39 480.145 1200.34 480.197 1200.15 480.093C1199.71 479.821 1199.25 479.562 1198.81 479.329C1198.62 479.225 1198.57 479.096 1198.57 478.85C1198.57 478.293 1198.57 477.736 1198.57 477.179L1198.59 477.192ZM1200.41 472.658C1200.41 472.917 1200.33 472.943 1200.15 472.827C1199.71 472.555 1199.25 472.296 1198.81 472.062C1198.65 471.972 1198.57 471.842 1198.58 471.622C1198.58 470.935 1198.56 470.223 1198.54 469.524C1197.42 468.798 1196.3 468.177 1195.18 467.516C1195.1 467.464 1194.95 467.27 1194.95 467.218C1194.93 466.48 1194.95 465.754 1194.95 464.977C1195.55 465.327 1196.14 465.664 1196.76 466.026C1196.76 465.314 1196.77 464.679 1196.76 463.967C1196.76 463.669 1196.84 463.643 1197.03 463.76C1197.47 464.019 1197.9 464.278 1198.34 464.511C1198.53 464.615 1198.61 464.757 1198.59 465.016C1198.59 465.508 1198.59 466.013 1198.59 466.506C1198.59 467.153 1198.54 467.05 1199.01 467.322C1199.38 467.542 1199.77 467.775 1200.15 467.982C1200.33 468.086 1200.39 468.202 1200.39 468.449C1200.39 469.847 1200.39 471.259 1200.39 472.671L1200.41 472.658ZM1204 504.133C1203.43 503.809 1202.89 503.499 1202.35 503.162C1202.29 503.136 1202.22 502.955 1202.22 502.89C1202.22 502.229 1202.22 501.556 1202.22 500.908C1202.22 500.83 1202.29 500.74 1202.33 500.766C1202.89 501.076 1203.43 501.4 1204 501.711V504.12V504.133ZM1202.2 520.363C1202.2 520.156 1202.24 520.078 1202.41 520.182C1202.88 520.467 1203.36 520.713 1203.82 521.011C1203.89 521.049 1204 521.257 1204 521.36C1204.03 521.684 1204 522.008 1204 522.319C1204 522.63 1204 522.928 1204 523.238C1204 523.459 1203.94 523.498 1203.78 523.394C1203.33 523.122 1202.88 522.863 1202.42 522.604C1202.26 522.513 1202.18 522.397 1202.19 522.163C1202.19 521.568 1202.19 520.959 1202.19 520.35L1202.2 520.363ZM1202.15 512.773C1202.58 513.019 1203.02 513.252 1203.45 513.498C1204.02 513.822 1204.02 513.822 1204.02 514.599V516.244C1203.43 515.907 1202.89 515.609 1202.36 515.273C1202.31 515.247 1202.22 515.001 1202.22 514.91C1202.18 514.197 1202.28 513.537 1202.15 512.786V512.773ZM1200.39 511.296C1200.39 508.498 1200.39 505.688 1200.39 502.877C1200.39 502.324 1200.6 502.169 1201.01 502.411C1201.4 502.631 1201.79 502.864 1202.2 503.097C1202.2 504.535 1202.2 505.934 1202.2 507.384C1202.2 508.006 1202.17 507.915 1202.62 508.187C1203.07 508.459 1203.54 508.718 1204.02 508.99C1204.02 509.768 1204.02 510.493 1204.02 511.205C1204.02 511.27 1203.87 511.322 1203.8 511.27C1203.34 511.024 1202.89 510.765 1202.44 510.493C1202.26 510.389 1202.2 510.441 1202.2 510.674C1202.2 511.387 1202.24 512.138 1202.15 512.786C1201.67 512.501 1201.19 512.203 1200.72 511.944C1200.46 511.801 1200.39 511.646 1200.39 511.309V511.296ZM1196.74 516.542C1196.74 515.052 1196.74 513.55 1196.74 512.047C1197.87 512.695 1199 513.356 1200.11 513.99C1200.32 514.107 1200.39 514.236 1200.38 514.508C1200.29 517.112 1200.83 516.775 1198.79 515.674C1198.62 515.57 1198.56 515.609 1198.56 515.842C1198.5 518.524 1198.98 518.096 1196.99 517.06C1196.78 516.943 1196.72 516.814 1196.72 516.529L1196.74 516.542ZM1194.93 506.4C1194.93 506.206 1195.01 506.206 1195.13 506.283C1195.59 506.555 1196.07 506.827 1196.54 507.099C1196.68 507.177 1196.74 507.281 1196.74 507.488C1196.74 509.003 1196.74 510.532 1196.74 512.047C1196.15 511.698 1195.55 511.361 1194.95 511.011C1194.95 509.444 1194.95 507.928 1194.95 506.413L1194.93 506.4ZM1194.93 498.9C1193.81 498.253 1192.72 497.605 1191.6 496.983C1191.35 496.854 1191.3 496.711 1191.3 496.413C1191.31 495.869 1191.31 495.312 1191.3 494.743C1191.3 494.445 1191.36 494.419 1191.57 494.548C1192.7 495.209 1193.79 495.844 1194.93 496.491C1194.93 494.224 1194.93 491.971 1194.93 489.704C1194.93 489.376 1195.06 489.285 1195.31 489.432C1195.77 489.704 1196.24 489.976 1196.72 490.248V487.865C1195.58 487.126 1194.44 486.543 1193.3 485.857C1193.25 485.831 1193.19 485.831 1193.14 485.818C1193.14 484.976 1193.14 484.147 1193.12 483.305C1193.72 483.655 1194.31 483.992 1194.93 484.354C1194.93 482.839 1194.93 481.375 1194.93 479.86C1194.93 479.601 1194.99 479.536 1195.19 479.653C1195.59 479.899 1195.99 480.119 1196.4 480.352C1196.64 480.49 1196.76 480.719 1196.76 481.039C1196.76 481.673 1196.76 482.308 1196.76 482.994C1197.99 483.707 1199.18 484.393 1200.41 485.106C1200.41 485.818 1200.41 486.466 1200.41 487.139C1200.41 487.437 1200.34 487.502 1200.12 487.36C1199.63 487.049 1199.12 486.777 1198.62 486.479C1198.56 489.561 1198.62 492.722 1198.59 495.831C1198.59 496.103 1198.67 496.219 1198.85 496.323C1199.29 496.556 1199.72 496.828 1200.16 497.074C1200.34 497.178 1200.41 497.307 1200.41 497.553C1200.41 498.123 1200.41 498.706 1200.41 499.302C1200.41 499.6 1200.34 499.639 1200.12 499.509C1199 498.861 1197.88 498.175 1196.77 497.592C1196.77 498.33 1196.77 499.03 1196.77 499.729C1196.77 499.937 1196.85 500.027 1196.98 500.105C1197.44 500.364 1197.9 500.649 1198.36 500.895C1198.53 500.986 1198.61 501.089 1198.61 501.335C1198.61 501.931 1198.61 502.54 1198.61 503.149C1198.61 503.408 1198.53 503.434 1198.35 503.33C1197.91 503.058 1197.46 502.825 1197.02 502.553C1196.81 502.423 1196.76 502.488 1196.76 502.76C1196.76 503.343 1196.76 503.913 1196.76 504.509C1196.76 504.794 1196.69 504.807 1196.5 504.69C1196.06 504.418 1195.63 504.172 1195.19 503.939C1194.99 503.835 1194.93 503.706 1194.93 503.447C1194.93 501.944 1194.93 500.455 1194.93 498.952V498.9ZM1187.68 497.514C1187.68 497.204 1187.74 497.152 1187.97 497.281C1189.59 498.227 1191.21 499.159 1192.82 500.079C1193.04 500.209 1193.14 500.325 1193.14 500.649C1193.14 502.812 1193.14 504.975 1193.14 507.151C1193.14 507.449 1193.07 507.488 1192.85 507.358C1191.13 506.348 1189.42 505.377 1187.7 504.366C1187.7 502.074 1187.7 499.794 1187.7 497.501L1187.68 497.514ZM1207.65 477.179C1207.65 477.179 1207.65 477.179 1207.65 477.166V477.179ZM1216.71 511.49C1216.71 512.19 1216.71 512.889 1216.71 513.576C1216.71 513.822 1216.76 513.938 1216.95 514.042C1217.4 514.288 1217.86 514.547 1218.31 514.832C1218.5 514.949 1218.56 514.871 1218.54 514.638C1218.54 513.938 1218.53 513.252 1218.54 512.578C1219.14 512.928 1219.71 513.252 1220.32 513.602C1220.35 514.314 1220.33 515.013 1220.33 515.713C1220.33 515.92 1220.38 516.037 1220.54 516.14C1221 516.399 1221.45 516.658 1221.92 516.943C1222.09 517.047 1222.14 516.982 1222.14 516.775C1222.14 516.166 1222.14 515.57 1222.14 514.962C1222.14 514.716 1222.19 514.664 1222.39 514.78C1222.89 515.091 1223.39 515.363 1223.93 515.674V513.252C1223.34 512.915 1222.76 512.578 1222.15 512.229C1222.15 511.439 1222.15 510.7 1222.15 509.962C1222.15 509.897 1222.28 509.884 1222.36 509.923C1222.89 510.208 1223.39 510.519 1223.93 510.817C1223.98 509.353 1223.93 507.851 1223.95 506.374C1223.95 506.089 1223.89 505.947 1223.67 505.83C1223.24 505.61 1222.81 505.338 1222.39 505.105C1222.22 505.014 1222.13 504.897 1222.13 504.638C1222.13 504.043 1222.13 503.434 1222.13 502.825C1222.13 502.605 1222.19 502.566 1222.35 502.657C1222.79 502.916 1223.24 503.162 1223.68 503.434C1223.87 503.55 1223.95 503.537 1223.95 503.252C1223.93 502.527 1223.98 501.867 1223.93 501.115C1222.73 500.429 1221.56 499.742 1220.34 499.043C1220.29 497.54 1220.33 496.09 1220.33 494.613C1220.33 494.302 1220.28 494.134 1220.02 494.004C1219.53 493.745 1219.05 493.447 1218.52 493.136V494.717C1218.52 495.278 1218.31 495.438 1217.9 495.196C1217.51 494.976 1217.12 494.743 1216.69 494.496C1216.69 493.745 1216.69 493.072 1216.69 492.346C1216.69 492.152 1216.64 492.048 1216.5 491.958C1216.03 491.699 1215.55 491.414 1215.09 491.142C1214.96 491.064 1214.88 491.064 1214.88 491.258C1214.88 492.774 1214.88 494.289 1214.88 495.844C1216.6 496.906 1218.32 497.851 1220.06 498.849C1220.28 498.978 1220.35 499.095 1220.34 499.393C1220.33 499.937 1220.33 500.494 1220.34 501.063C1220.34 501.374 1220.28 501.439 1220.04 501.297C1218.92 500.636 1217.82 500.001 1216.69 499.354C1216.69 500.869 1216.69 502.333 1216.69 503.848C1216.69 504.107 1216.63 504.172 1216.43 504.043C1215.99 503.771 1215.54 503.537 1215.1 503.265C1214.93 503.162 1214.87 503.214 1214.87 503.447C1214.87 504.133 1214.87 504.82 1214.87 505.532C1213.65 504.923 1212.45 504.081 1211.25 503.499C1211.25 504.172 1211.25 504.859 1211.25 505.532C1211.25 505.83 1211.32 505.947 1211.54 506.063C1212.66 506.698 1213.77 507.346 1214.88 507.98C1214.88 507.281 1214.88 506.581 1214.88 505.869C1214.88 505.623 1214.93 505.558 1215.12 505.675C1216.16 506.296 1217.22 506.905 1218.27 507.501C1218.45 507.605 1218.52 507.734 1218.52 507.98C1218.52 509.379 1218.52 510.791 1218.52 512.203C1218.52 512.462 1218.45 512.488 1218.27 512.371C1217.74 512.06 1217.21 511.762 1216.68 511.464L1216.71 511.49ZM1220.35 511.387C1220.35 511.322 1220.46 511.244 1220.51 511.283C1221.04 511.568 1221.57 511.892 1222.15 512.229C1222.15 512.993 1222.15 513.718 1222.15 514.431C1222.15 514.495 1222.06 514.573 1222.02 514.547C1221.48 514.249 1220.92 513.925 1220.35 513.589C1220.35 512.824 1220.35 512.099 1220.35 511.387ZM1218.53 504.936C1218.53 504.353 1218.53 503.758 1218.53 503.162C1218.53 502.903 1218.61 502.877 1218.78 502.98C1219.81 503.589 1220.85 504.185 1221.88 504.781C1222.1 504.91 1222.15 505.053 1222.14 505.312C1222.14 505.985 1222.14 506.659 1222.14 507.333C1222.14 508.045 1222.14 508.744 1222.14 509.47C1222.14 509.69 1222.09 509.755 1221.91 509.651C1221.45 509.379 1221 509.12 1220.55 508.861C1220.38 508.77 1220.32 508.641 1220.32 508.408C1220.32 507.915 1220.32 507.41 1220.32 506.918C1220.32 506.219 1220.37 506.335 1219.84 506.024C1219.47 505.804 1219.11 505.597 1218.75 505.403C1218.57 505.299 1218.49 505.182 1218.5 504.936H1218.53ZM1191.3 474.51C1191.3 469.161 1191.3 463.824 1191.3 458.475C1191.3 458.009 1191.3 458.009 1190.95 457.814C1186.95 455.509 1182.97 453.203 1178.97 450.885C1178.72 450.738 1178.59 450.833 1178.59 451.17C1178.59 456.662 1178.59 462.141 1178.59 467.633C1182.72 470.016 1186.83 472.399 1190.95 474.769C1191.18 474.899 1191.3 474.813 1191.3 474.51ZM1189.49 459.809C1189.49 463.565 1189.49 467.335 1189.49 471.104C1189.49 471.441 1189.41 471.467 1189.16 471.337C1186.36 469.705 1183.54 468.073 1180.73 466.454C1180.48 466.311 1180.39 466.169 1180.39 465.832C1180.39 463.967 1180.39 462.089 1180.39 460.224C1180.39 458.358 1180.39 456.48 1180.39 454.602C1180.39 454.252 1180.44 454.162 1180.73 454.33C1183.54 455.975 1186.36 457.594 1189.16 459.213C1189.41 459.356 1189.49 459.485 1189.47 459.822L1189.49 459.809ZM1223.98 493.434C1223.95 487.916 1224 482.437 1223.95 476.907C1219.84 474.472 1215.72 472.153 1211.61 469.757C1211.38 469.627 1211.26 469.714 1211.26 470.016C1211.26 475.365 1211.26 480.702 1211.26 486.051C1211.26 486.362 1211.38 486.582 1211.61 486.712C1215.62 489.03 1219.63 491.349 1223.64 493.68C1223.9 493.823 1223.96 493.771 1223.96 493.434H1223.98ZM1222.17 490.028C1222.17 490.326 1222.09 490.352 1221.87 490.235C1219.03 488.59 1216.2 486.958 1213.38 485.326C1213.15 485.196 1213.07 485.067 1213.08 484.756C1213.08 482.891 1213.08 481.013 1213.08 479.148C1213.08 477.243 1213.08 475.339 1213.08 473.422C1213.08 473.137 1213.14 473.047 1213.37 473.189C1216.2 474.834 1219.05 476.479 1221.88 478.111C1222.1 478.241 1222.18 478.37 1222.18 478.668C1222.18 482.45 1222.18 486.246 1222.18 490.041L1222.17 490.028ZM1211.26 513.602C1211.26 519.12 1211.26 524.624 1211.26 530.129C1215.39 532.513 1219.51 534.896 1223.64 537.292C1223.9 537.448 1223.96 537.396 1223.96 537.046C1223.94 531.515 1223.99 526.036 1223.94 520.505C1219.81 518.122 1215.7 515.739 1211.57 513.356C1211.31 513.2 1211.25 513.265 1211.25 513.602H1211.26ZM1213.07 528.368C1213.07 524.598 1213.07 520.816 1213.07 517.034C1213.07 516.723 1213.14 516.658 1213.37 516.801C1214.77 517.63 1216.18 518.433 1217.57 519.236C1219 520.052 1220.41 520.881 1221.83 521.684C1222.09 521.827 1222.15 521.982 1222.15 522.319C1222.15 526.075 1222.15 529.818 1222.15 533.588C1222.15 533.911 1222.09 533.976 1221.84 533.834C1219.02 532.189 1216.2 530.557 1213.38 528.938C1213.16 528.808 1213.07 528.692 1213.07 528.368ZM1178.58 476.92C1178.58 477.256 1178.67 477.386 1178.9 477.515C1179.32 477.736 1179.73 477.995 1180.16 478.228C1180.34 478.331 1180.41 478.448 1180.41 478.694C1180.41 479.264 1180.41 479.847 1180.41 480.43C1180.41 480.689 1180.34 480.754 1180.15 480.637C1179.71 480.365 1179.25 480.132 1178.81 479.86C1178.66 479.769 1178.59 479.782 1178.59 480.002C1178.62 482.36 1178.54 484.652 1178.63 487.023C1179.11 487.295 1179.59 487.58 1180.07 487.852C1180.3 487.99 1180.42 488.21 1180.42 488.512C1180.42 489.069 1180.42 489.626 1180.42 490.183C1180.42 490.39 1180.47 490.507 1180.64 490.598C1181.1 490.857 1181.56 491.116 1182.02 491.401C1182.19 491.504 1182.24 491.427 1182.23 491.232C1182.23 490.675 1182.23 490.131 1182.23 489.561C1182.23 489.212 1182.28 489.108 1182.57 489.289C1183.04 489.6 1183.52 489.846 1184.04 490.157C1184.04 489.328 1184.04 488.59 1184.08 487.8C1184.67 488.098 1185.26 488.409 1185.85 488.771C1185.9 487.295 1185.85 485.792 1185.88 484.303C1185.88 484.018 1185.81 483.888 1185.61 483.785C1185.18 483.551 1184.75 483.305 1184.33 483.046C1184.11 482.904 1184.04 482.969 1184.04 483.266C1184.04 484.756 1184.04 486.22 1184.04 487.709C1182.94 487.126 1181.85 486.44 1180.75 485.831C1180.47 485.676 1180.41 485.507 1180.42 485.17C1180.44 484.652 1180.43 484.108 1180.42 483.577C1180.42 483.292 1180.5 483.253 1180.7 483.37C1181.13 483.629 1181.56 483.862 1181.98 484.121C1182.18 484.238 1182.24 484.186 1182.24 483.927C1182.24 482.58 1182.24 481.246 1182.24 479.912C1182.24 479.592 1182.36 479.502 1182.59 479.64C1183.01 479.886 1183.42 480.132 1183.85 480.352C1183.92 480.391 1184.05 480.352 1184.05 480.3C1184.07 479.562 1184.05 478.824 1184.05 478.034C1182.91 477.386 1181.83 476.738 1180.7 476.104C1180.51 476 1180.43 475.883 1180.44 475.611C1180.44 475.042 1180.44 474.459 1180.44 473.876C1180.44 473.617 1180.5 473.552 1180.7 473.669C1181.14 473.941 1181.6 474.174 1182.04 474.446C1182.2 474.549 1182.27 474.51 1182.27 474.277C1182.27 473.669 1182.27 473.06 1182.27 472.464C1182.27 472.244 1182.22 472.114 1182.04 472.011C1181.58 471.764 1181.13 471.505 1180.68 471.22C1180.5 471.117 1180.44 471.169 1180.44 471.402C1180.44 472.088 1180.44 472.775 1180.44 473.5C1179.84 473.15 1179.25 472.814 1178.65 472.464C1178.59 473.941 1178.65 475.443 1178.62 476.92H1178.58ZM1211.26 503.499C1211.26 502.799 1211.26 502.087 1211.26 501.374C1211.26 501.128 1211.31 501.063 1211.51 501.18C1211.95 501.452 1212.4 501.685 1212.84 501.957C1213.02 502.074 1213.08 502.022 1213.08 501.763C1213.08 501.167 1213.08 500.571 1213.08 499.988C1213.08 499.742 1213.02 499.626 1212.84 499.522C1211.79 498.926 1210.74 498.317 1209.69 497.709C1209.5 497.592 1209.45 497.657 1209.45 497.903C1209.45 498.499 1209.45 499.082 1209.45 499.678C1209.45 499.911 1209.4 499.962 1209.22 499.859C1208.75 499.587 1208.3 499.315 1207.83 499.056C1207.69 498.978 1207.62 498.887 1207.62 498.68C1207.62 497.229 1207.62 495.766 1207.62 494.315C1207.62 494.276 1207.64 494.237 1207.65 494.199C1207.62 494.16 1207.59 494.108 1207.56 494.082C1206.99 493.745 1206.41 493.421 1205.83 493.072V497.89C1206.25 498.136 1206.68 498.382 1207.11 498.628C1207.45 498.827 1207.62 499.159 1207.62 499.626C1207.62 500.209 1207.62 500.804 1207.62 501.387C1208.83 502.061 1210.03 502.734 1211.23 503.473L1211.26 503.499ZM1180.41 507.851C1180.39 508.408 1180.41 508.978 1180.41 509.56C1180.41 509.807 1180.34 509.858 1180.16 509.742C1179.72 509.47 1179.27 509.237 1178.83 508.965C1178.66 508.861 1178.58 508.887 1178.59 509.133C1178.59 509.755 1178.59 510.363 1178.59 510.985C1178.59 511.205 1178.66 511.309 1178.81 511.387C1179.34 511.685 1179.87 511.996 1180.41 512.306C1180.92 512.604 1181.44 512.889 1181.94 513.2C1182.14 513.317 1182.22 513.304 1182.22 513.019C1182.22 511.62 1182.22 510.221 1182.22 508.822C1182.22 508.563 1182.14 508.459 1181.97 508.356C1181.53 508.123 1181.1 507.851 1180.66 507.605C1180.47 507.501 1180.39 507.371 1180.41 507.112C1180.41 506.529 1180.41 505.934 1180.41 505.338C1180.41 505.144 1180.38 505.014 1180.2 504.91C1179.73 504.651 1179.25 504.379 1178.79 504.094C1178.63 504.004 1178.58 504.043 1178.58 504.25C1178.58 504.872 1178.58 505.48 1178.58 506.102C1178.58 506.335 1178.63 506.452 1178.81 506.542C1179.25 506.789 1179.68 507.061 1180.12 507.281C1180.34 507.397 1180.41 507.553 1180.41 507.838V507.851ZM1207.64 493.939C1207.64 494.03 1207.66 494.134 1207.66 494.237C1208.15 494.367 1208.67 494.768 1209.18 495.04C1209.36 495.157 1209.45 495.144 1209.45 494.859C1209.45 493.447 1209.45 492.035 1209.45 490.624C1209.45 490.455 1209.45 490.313 1209.27 490.222C1208.74 489.924 1208.21 489.613 1207.66 489.289C1207.65 489.38 1207.62 489.445 1207.62 489.523C1207.62 490.986 1207.62 492.463 1207.62 493.927L1207.64 493.939ZM1205.83 510.053C1205.83 510.053 1205.83 510.053 1205.83 510.066C1205.83 510.066 1205.83 510.066 1205.83 510.053ZM1205.83 507.928C1205.83 508.641 1205.83 509.34 1205.83 510.053C1206.95 510.7 1208.06 511.348 1209.19 512.008C1209.38 512.125 1209.46 512.099 1209.45 511.827C1209.44 511.128 1209.45 510.441 1209.45 509.742C1208.32 509.081 1207.18 508.434 1206.06 507.773C1205.89 507.669 1205.83 507.695 1205.83 507.941V507.928ZM1211.27 494.043C1211.27 494.691 1211.27 495.338 1211.27 495.999C1211.27 496.09 1211.39 496.284 1211.45 496.336C1211.69 496.491 1211.92 496.608 1212.14 496.75C1212.37 496.893 1212.62 497.022 1212.85 497.165C1212.99 497.242 1213.07 497.242 1213.06 497.035C1213.06 496.388 1213.06 495.727 1213.06 495.079C1213.06 494.898 1212.99 494.794 1212.86 494.73C1212.39 494.458 1211.91 494.186 1211.43 493.901C1211.29 493.823 1211.25 493.875 1211.25 494.043H1211.27ZM1222.18 495.507C1222.17 496.141 1222.18 496.802 1222.18 497.45C1222.18 497.527 1222.27 497.709 1222.32 497.748C1222.86 498.071 1223.39 498.382 1223.98 498.719C1223.98 497.942 1223.98 497.229 1223.98 496.504C1223.98 496.426 1223.86 496.232 1223.8 496.193C1223.32 495.895 1222.84 495.623 1222.36 495.364C1222.3 495.325 1222.18 495.416 1222.18 495.507ZM1207.66 501.452C1207.66 501.452 1207.66 501.452 1207.66 501.439C1207.66 501.439 1207.66 501.439 1207.66 501.452ZM1207.65 484.445C1207.06 484.095 1206.45 483.746 1205.85 483.409C1205.85 484.121 1205.85 484.847 1205.85 485.546C1205.85 485.753 1205.9 485.844 1206.06 485.935C1206.52 486.194 1206.99 486.466 1207.47 486.751C1207.64 486.854 1207.68 486.777 1207.68 486.569C1207.68 485.857 1207.68 485.158 1207.68 484.458L1207.65 484.445ZM1211.27 489.212C1211.27 489.536 1211.27 489.846 1211.27 490.17C1211.27 490.494 1211.27 490.805 1211.27 491.129C1211.27 491.31 1211.32 491.414 1211.47 491.491C1211.95 491.763 1212.42 492.035 1212.9 492.32C1213.03 492.398 1213.1 492.385 1213.1 492.191C1213.1 491.556 1213.1 490.909 1213.1 490.274C1213.1 490.08 1213.05 489.963 1212.89 489.885C1212.42 489.626 1211.96 489.354 1211.48 489.069C1211.34 488.979 1211.27 489.017 1211.27 489.212ZM1214.9 510.441C1214.9 510.441 1214.9 510.441 1214.9 510.428V510.441ZM1216.72 511.49C1216.72 511.49 1216.72 511.49 1216.72 511.503V511.49ZM1214.91 508.019C1214.91 508.822 1214.91 509.625 1214.91 510.428L1216.71 511.464V509.055C1216.09 508.693 1215.49 508.356 1214.91 508.019ZM1207.66 479.575C1207.66 479.575 1207.66 479.575 1207.66 479.588C1207.66 479.588 1207.66 479.588 1207.66 479.575ZM1207.66 477.166C1207.66 477.969 1207.66 478.772 1207.66 479.575C1208.18 479.873 1208.7 480.171 1209.22 480.469C1209.38 480.572 1209.47 480.572 1209.47 480.3C1209.47 479.679 1209.47 479.07 1209.47 478.461C1209.47 478.267 1209.42 478.163 1209.28 478.072C1208.75 477.775 1208.21 477.464 1207.68 477.153L1207.66 477.166ZM1207.66 484.406C1207.66 484.406 1207.66 484.406 1207.66 484.419C1207.66 484.419 1207.66 484.419 1207.66 484.406ZM1207.66 481.997C1207.66 482.8 1207.66 483.603 1207.66 484.406C1208.18 484.704 1208.71 485.002 1209.23 485.313C1209.41 485.417 1209.47 485.391 1209.47 485.132C1209.47 484.536 1209.47 483.94 1209.47 483.357C1209.47 483.111 1209.41 482.994 1209.23 482.891C1208.71 482.606 1208.18 482.295 1207.66 481.997ZM1185.88 474.459C1185.88 475.171 1185.88 475.883 1185.88 476.648C1186.46 476.984 1187 477.308 1187.56 477.606C1187.61 477.632 1187.69 477.528 1187.69 477.451C1187.69 476.816 1187.69 476.168 1187.69 475.534C1187.69 475.326 1187.62 475.236 1187.48 475.145C1187.02 474.886 1186.54 474.601 1186.07 474.329C1185.94 474.251 1185.86 474.251 1185.88 474.446V474.459ZM1209.24 516.814C1208.72 516.503 1208.21 516.205 1207.68 515.894V518.329C1208.23 518.653 1208.78 518.977 1209.33 519.275C1209.38 519.301 1209.46 519.223 1209.46 519.158C1209.46 518.498 1209.46 517.837 1209.46 517.177C1209.46 516.943 1209.35 516.892 1209.23 516.814H1209.24ZM1189.51 500.804C1189.5 501.452 1189.5 502.1 1189.51 502.76C1189.51 502.838 1189.62 503.045 1189.68 503.084C1190.17 503.382 1190.65 503.667 1191.14 503.926C1191.21 503.952 1191.31 503.874 1191.31 503.796C1191.32 503.149 1191.31 502.501 1191.31 501.854C1191.31 501.659 1191.23 501.569 1191.12 501.504C1190.87 501.374 1190.64 501.232 1190.39 501.089C1190.15 500.947 1189.91 500.791 1189.68 500.688C1189.62 500.662 1189.51 500.727 1189.51 500.804ZM1209.47 507.281C1209.47 508.084 1209.47 508.887 1209.47 509.69C1211.21 510.7 1212.94 511.698 1214.68 512.708C1214.84 512.799 1214.92 512.786 1214.91 512.552C1214.91 511.84 1214.91 511.141 1214.91 510.428L1209.49 507.281C1209.49 506.581 1209.49 505.882 1209.49 505.195C1209.49 504.936 1209.44 504.807 1209.23 504.703C1208.71 504.418 1208.19 504.107 1207.68 503.809C1207.68 503.006 1207.68 502.203 1207.68 501.4C1207.09 501.063 1206.5 500.727 1205.88 500.364V502.76C1206.47 503.11 1207.08 503.46 1207.68 503.809C1207.68 504.496 1207.68 505.182 1207.68 505.843C1207.68 506.141 1207.75 506.257 1207.96 506.374C1208.47 506.659 1208.98 506.97 1209.49 507.268L1209.47 507.281ZM1187.7 467.62C1187.7 465.327 1187.7 463.06 1187.7 460.768C1185.99 459.706 1184.29 458.799 1182.58 457.763C1182.32 457.62 1182.24 457.659 1182.24 458.009C1182.27 460.314 1182.22 462.555 1182.27 464.874C1183.98 465.858 1185.68 466.842 1187.39 467.84C1187.64 467.982 1187.7 467.943 1187.7 467.607V467.62ZM1220.38 479.976C1220.38 479.717 1220.33 479.588 1220.12 479.471C1218.47 478.526 1216.82 477.567 1215.17 476.609C1214.97 476.492 1214.91 476.544 1214.91 476.816C1214.91 479.005 1214.91 481.207 1214.91 483.383C1214.91 483.694 1214.99 483.798 1215.21 483.914C1216.01 484.367 1216.82 484.847 1217.62 485.313C1218.45 485.792 1219.28 486.259 1220.1 486.751C1220.32 486.88 1220.37 486.816 1220.37 486.543C1220.37 484.354 1220.37 482.153 1220.37 479.976H1220.38ZM1214.92 520.505C1214.92 522.798 1214.92 525.065 1214.92 527.357C1216.64 528.42 1218.34 529.326 1220.06 530.362C1220.32 530.518 1220.38 530.453 1220.38 530.103C1220.35 527.798 1220.41 525.557 1220.35 523.238C1218.65 522.241 1216.94 521.27 1215.22 520.259C1214.97 520.117 1214.91 520.182 1214.91 520.505H1214.92Z" fill="#16292E"/>
<path d="M1130.27 585.424C1130.49 586.499 1130.77 587.51 1131.04 588.481C1131.74 590.89 1132.54 593.053 1132.93 594.517C1133.35 596.149 1133.73 599.076 1133.99 601.498C1134.23 603.7 1134.38 605.488 1134.38 605.488C1134.38 605.488 1133.85 606.252 1136.36 606.861C1138.85 607.47 1139.74 605.695 1140.55 605.255C1141.35 604.814 1140.83 602.263 1140.83 602.263V594.685C1140.83 592.626 1140.83 589.893 1141.84 585.45C1142.85 581.02 1143.25 576.422 1143.29 574.44C1143.33 572.471 1145.71 568.353 1147.12 562.265C1148.53 556.177 1148.28 529.637 1148.28 529.637L1135.99 521.321C1135.99 521.321 1133.5 523.42 1132.53 525.764C1131.56 528.096 1130.71 533.549 1130.47 538.794C1130.22 544.04 1133.9 561.021 1133.46 564.48C1133.02 567.951 1130.35 575.127 1129.87 580.127C1129.71 581.81 1129.91 583.637 1130.29 585.437L1130.27 585.424Z" fill="#FF622C"/>
<path d="M1140.61 494.548C1140.61 494.548 1145.27 487.359 1142.18 486.155C1139.08 484.95 1135.22 485.999 1134.09 488.978C1132.97 491.958 1129.87 497.67 1129.15 498.887C1128.42 500.092 1123.99 515.052 1123.99 515.052C1123.99 515.052 1126.16 518.381 1128.84 520.259C1131.35 522.021 1133.11 526.204 1133.11 526.204V530.453L1136.29 534.404L1138.57 536.191L1140.61 536.411C1140.61 536.411 1141.61 536.308 1141.19 535.945C1140.78 535.582 1140.53 535.621 1140.53 535.621L1142.01 535.44C1142.01 535.44 1142.45 534.831 1141.36 534.507C1140.27 534.196 1139.28 534.067 1139.1 534.132C1138.92 534.196 1137.45 531.606 1137.33 530.971C1137.21 530.336 1137.34 528.834 1137.43 527.914C1137.52 526.995 1136.81 525.57 1136.81 525.57L1137.65 526.58C1137.65 526.58 1138.52 528.212 1139.15 528.381C1139.77 528.549 1139.9 528.989 1140.42 528.212C1140.93 527.435 1140.29 526.528 1140.18 526.347C1140.09 526.166 1139.1 525.155 1139.1 525.155C1139.1 525.155 1138.46 523.536 1137.95 522.927C1137.43 522.306 1136.67 521.762 1136.47 521.503C1136.26 521.257 1135.49 518.316 1134.72 516.412C1133.97 514.508 1131.3 511.024 1131.3 511.024L1135.63 502.695L1140.62 494.522L1140.61 494.548Z" fill="#FFCBAD"/>
<path d="M1148.3 532.862C1148.3 540.155 1148.19 557.472 1147.11 562.239C1145.7 568.327 1143.33 572.446 1143.29 574.414C1143.25 576.383 1142.85 580.981 1141.83 585.424C1140.84 589.854 1140.84 592.613 1140.84 594.659V599.089C1140.84 599.089 1140.88 599.387 1140.84 599.789C1140.74 600.462 1140.3 601.486 1138.66 601.991C1138.62 602.017 1138.58 602.017 1138.53 602.03C1135.79 602.846 1135.59 602.729 1135.05 602.405C1134.75 602.237 1134.34 601.822 1134 601.46C1133.69 601.149 1133.46 600.877 1133.46 600.877C1133.46 600.877 1132.71 595.566 1131.97 592.302C1131.67 590.994 1131.34 589.634 1131.05 588.455C1130.69 586.94 1130.38 585.748 1130.3 585.45C1129.93 583.598 1129.72 581.772 1129.89 580.101C1130.36 575.101 1133.03 567.925 1133.47 564.454C1133.91 560.97 1130.24 544.001 1130.49 538.743C1130.73 533.51 1131.58 528.057 1132.55 525.725C1133.52 523.394 1136.02 521.295 1136.02 521.295L1148.31 529.585C1148.31 529.585 1148.33 530.829 1148.33 532.836L1148.3 532.862Z" fill="#3B3C4A"/>
<path d="M1148.3 532.862C1148.3 540.154 1148.19 557.472 1147.11 562.239C1145.7 568.327 1143.33 572.446 1143.29 574.414C1143.25 576.383 1142.85 580.981 1141.83 585.424C1140.84 589.854 1140.84 592.613 1140.84 594.659V599.089C1140.84 599.089 1140.88 599.387 1140.84 599.789C1140.74 600.462 1140.3 601.485 1138.66 601.991C1136.98 588.598 1139.9 576.215 1141.13 573.171C1146.01 561.19 1145.85 553.392 1146.11 548.146C1146.34 542.9 1144.6 538.963 1145.55 536.631C1146.19 535.077 1147.48 533.652 1148.3 532.849V532.862Z" fill="#282936"/>
<path d="M1140.82 602.094C1140.82 602.094 1141.47 601.978 1141.91 601.887C1142.35 601.809 1143.52 599.102 1145.66 598.986C1147.79 598.869 1149.85 599.867 1149.28 601.771C1148.71 603.662 1146.89 605.838 1145.2 606.446C1143.52 607.055 1142.64 607.198 1142.22 607.807C1141.79 608.428 1139.37 612.897 1136.68 612.858C1134.78 612.832 1133.64 611.459 1133.12 610.643C1132.91 610.319 1132.84 609.918 1132.91 609.542L1133.7 605.618C1133.73 605.41 1133.99 605.333 1134.13 605.475C1134.75 606.11 1136.11 607.327 1137.25 607.327C1138.77 607.327 1140.99 605.384 1140.99 605.384L1140.88 603.701L1140.84 602.081L1140.82 602.094Z" fill="#D6EAF7"/>
<path d="M1140.82 600.877C1140.82 600.877 1141.47 600.76 1141.91 600.67C1142.35 600.592 1143.52 599.102 1145.66 598.973C1147.79 598.856 1149.41 599.659 1148.84 601.551C1148.27 603.442 1146.89 604.607 1145.2 605.216C1143.52 605.825 1142.64 605.967 1142.22 606.576C1141.79 607.198 1139.37 611.667 1136.68 611.628C1134.78 611.602 1133.64 610.229 1133.12 609.413C1132.91 609.089 1132.84 608.687 1132.91 608.312L1133.7 604.387C1133.73 604.18 1133.99 604.102 1134.13 604.245C1134.75 604.879 1136.11 606.097 1137.25 606.097C1138.77 606.097 1140.99 604.154 1140.99 604.154L1140.88 602.457L1140.84 600.851L1140.82 600.877Z" fill="#FF622C"/>
<path d="M1141.91 543.574C1143.2 547.369 1144.32 546.32 1145.28 548.975C1146.24 551.63 1147.62 574.466 1147.07 577.29C1146.54 579.932 1145.58 583.08 1145.33 586.318C1145.31 586.551 1145.31 586.758 1145.29 586.965C1145.29 587.095 1145.29 587.224 1145.29 587.367C1145.29 588.028 1145.33 588.714 1145.42 589.439C1145.79 592.496 1146.83 595.98 1147.4 598.973C1147.77 600.877 1147.77 603.273 1147.68 605.229C1147.58 607.236 1147.4 608.752 1147.4 608.752C1147.4 608.752 1148.37 610.526 1148.31 610.526C1148.31 610.526 1151.45 610.436 1153.29 609.801C1154.86 609.257 1155.35 606.913 1155.04 605.591C1154.97 605.345 1154.14 604.205 1154.11 604.063C1153.85 603.299 1156.76 594.102 1157.86 589.737C1158.02 589.064 1158.15 588.533 1158.22 588.183C1158.7 585.515 1159.75 580.761 1159.19 578.015C1158.62 575.269 1167 553.003 1165.88 541.553C1164.75 530.103 1160.72 525.751 1160.72 525.751H1160.15L1143.13 526.127C1143.13 526.127 1140.65 539.779 1141.93 543.574H1141.91Z" fill="#FF622C"/>
<path d="M1154.31 605.164C1154.31 605.164 1156.3 605.553 1157.7 605.41C1159.1 605.268 1160.51 604.84 1161.91 604.387C1163.3 603.933 1166.02 604.05 1166.89 605.047C1167.77 606.045 1165.86 610.643 1163.32 612.068C1160.78 613.493 1156.58 613.506 1155.94 613.829C1155.31 614.153 1152.07 616.446 1149.37 616.031C1146.67 615.604 1146.03 614.425 1146.01 613.674C1145.98 612.923 1146.01 610.656 1146.25 610.591C1146.5 610.526 1147 607.638 1147.34 607.949C1147.67 608.26 1148.96 612.314 1153.63 609.218C1155.76 607.806 1154.31 605.177 1154.31 605.177V605.164Z" fill="#D6EAF7"/>
<path d="M1154.31 604.193C1154.31 604.193 1156.3 604.581 1157.7 604.439C1159.1 604.296 1160.51 603.869 1161.91 603.416C1163.3 602.962 1166.02 603.079 1166.89 604.076C1167.77 605.074 1165.86 609.672 1163.32 611.097C1160.78 612.521 1156.58 612.534 1155.94 612.858C1155.31 613.182 1152.07 615.475 1149.37 615.06C1146.67 614.633 1146.03 613.454 1146.01 612.703C1145.98 611.951 1146.01 609.672 1146.25 609.62C1146.5 609.555 1147 606.667 1147.34 606.978C1147.67 607.288 1148.96 611.343 1153.63 608.247C1155.76 606.835 1154.31 604.206 1154.31 604.206V604.193Z" fill="#FF622C"/>
<path d="M1141.9 543.574C1143.2 547.369 1144.32 546.32 1145.28 548.975C1146.24 551.63 1147.62 574.466 1147.07 577.29C1146.54 579.932 1145.58 583.08 1145.33 586.318C1145.32 586.642 1145.31 586.849 1145.29 586.965C1145.29 587.069 1145.29 587.199 1145.29 587.367C1145.29 587.833 1145.35 588.559 1145.42 589.439C1145.86 594.543 1147.27 605.021 1147.27 605.021C1147.27 605.021 1147.42 605.099 1147.67 605.216C1148.36 605.514 1149.91 606.032 1152.09 605.915C1152.99 605.863 1153.68 605.656 1154.2 605.384C1155.4 604.762 1155.7 603.83 1155.7 603.83L1156.74 595.579L1157.83 589.737C1158 589.064 1158.13 588.533 1158.19 588.183C1158.67 585.515 1159.72 580.761 1159.16 578.015C1158.59 575.269 1166.98 553.003 1165.85 541.553C1164.73 530.103 1160.69 525.751 1160.69 525.751H1160.12L1143.11 526.127C1143.11 526.127 1140.62 539.779 1141.9 543.574Z" fill="#3B3C4A"/>
<path d="M1162.13 517.28C1161.72 519.042 1161.32 521.632 1161.32 523.16C1161.32 524.689 1163.61 531.243 1163.61 531.243C1163.61 531.243 1162.03 533.95 1157.27 535.064C1155.68 535.44 1153.73 535.647 1151.34 535.504C1141.85 534.922 1133.04 524.715 1133.04 524.715C1133.04 524.715 1133.79 522.85 1135.37 519.301C1139.21 510.648 1134.23 504.133 1134.23 500.027C1134.23 495.921 1135.54 490.183 1138.35 487.851C1141.18 485.52 1143.55 486.88 1143.55 486.88C1143.55 486.88 1144.47 486.712 1144.73 484.95L1144.96 483.163L1153.73 485.909C1153.73 485.909 1152.93 490.74 1154.48 491.957C1154.75 492.165 1155.15 492.359 1155.62 492.54C1156.67 492.955 1158.02 493.356 1159.33 493.991C1160.69 494.665 1161.97 495.571 1162.64 496.996C1164.22 500.416 1166.72 505.014 1165.27 507.268C1163.82 509.534 1162.86 510.674 1162.69 512.604C1162.55 514.534 1162.55 515.505 1162.13 517.293V517.28Z" fill="#FF622C"/>
<path d="M1162.13 517.28C1161.72 519.042 1161.32 521.632 1161.32 523.161C1161.32 524.689 1163.61 531.243 1163.61 531.243C1163.61 531.243 1162.03 533.95 1157.27 535.064C1154.88 533.005 1153.98 529.352 1155.75 525.881C1157.53 522.409 1158.72 519.184 1158.81 516.684C1158.89 514.184 1154.62 510.726 1154.62 506.607C1154.62 502.488 1155.93 496.776 1158.74 494.432C1158.94 494.263 1159.14 494.121 1159.34 493.991C1160.7 494.665 1161.98 495.571 1162.66 496.996C1164.23 500.416 1166.73 505.014 1165.28 507.268C1163.83 509.534 1162.88 510.674 1162.71 512.604C1162.57 514.534 1162.57 515.506 1162.14 517.293L1162.13 517.28Z" fill="#FF4521"/>
<path d="M1180.35 498.602C1180.35 498.602 1175.88 496.724 1173.95 496.426C1172.02 496.128 1168.52 496.128 1166.71 495.584C1164.89 495.04 1159.15 492.139 1156.8 493.59C1154.44 495.04 1154.56 501.672 1155.83 504.276C1157.09 506.879 1163.68 504.664 1167.25 505.208C1170.82 505.752 1183.92 505.454 1184.89 504.237C1185.86 503.032 1187.73 496.012 1188.15 492.502C1188.58 488.991 1188.88 483.927 1189.24 483.163C1189.6 482.399 1189.72 481.064 1189.78 480.274C1189.85 479.484 1191.71 476.22 1191.8 475.948C1191.89 475.676 1191.32 476.518 1191.89 475.521C1192.46 474.523 1193.59 472.852 1193.59 472.852L1194.34 471.065V469.588C1194.34 469.588 1193.41 468.526 1193.37 468.228C1193.34 467.93 1193.34 466.143 1193.34 466.143C1193.34 466.143 1192.86 464.265 1192.5 464.394C1192.14 464.511 1192.14 464.64 1192.14 465.12C1192.14 465.599 1192.29 466.544 1192.29 466.544L1192.02 468.151L1190.75 469.899L1191.6 467.296L1191.53 464.692C1191.53 464.692 1190.9 462.879 1190.47 462.905C1190.04 462.931 1189.56 463.241 1189.81 463.902C1190.06 464.563 1190.26 465.171 1190.26 465.171L1190.02 467.529L1188.72 469.64L1189.27 466.376L1188.9 464.226C1188.9 464.226 1187.91 462.931 1187.82 462.685C1187.73 462.438 1186.82 462.62 1186.82 463.164C1186.82 463.708 1187.43 464.679 1187.43 464.679V466.946C1187.43 466.946 1185.83 471.661 1185.01 471.726C1184.2 471.79 1183.81 470.456 1183.81 470.456V468.708C1183.81 468.708 1184.23 467.956 1184.01 467.192C1183.81 466.441 1183.55 466.285 1183.55 466.285C1183.55 466.285 1182.94 466.104 1182.81 466.713C1182.68 467.322 1182.75 468.682 1182.36 468.954C1181.97 469.226 1182.51 472.801 1182.51 472.801C1182.51 472.801 1183.08 474.497 1183.08 474.614C1183.08 474.731 1184.65 477.438 1184.83 478.228C1185.57 481.285 1182.44 488.629 1182.04 490.403C1181.63 492.178 1180.37 498.589 1180.37 498.589L1180.35 498.602Z" fill="#FFCBAD"/>
<path d="M1142.29 488.745C1142.59 489.717 1144.04 491.893 1149.18 492.618C1154.31 493.344 1155.4 492.618 1155.4 492.618L1155.62 492.554C1155.15 492.359 1154.75 492.165 1154.48 491.945C1152.95 490.74 1153.74 485.896 1153.74 485.896L1144.97 483.15L1144.72 484.924C1144.48 486.699 1143.55 486.854 1143.55 486.854C1143.55 486.854 1141.98 487.761 1142.28 488.733L1142.29 488.745Z" fill="#FF622C"/>
<path d="M1155.54 470.974C1155.64 470.948 1158.88 471.868 1158.88 471.868C1158.88 471.868 1159.53 473.94 1159.42 474.575C1159.32 475.197 1158.91 475.65 1158.91 476.026C1158.91 476.401 1159.33 477.178 1159.27 478.37C1159.2 479.562 1158.69 481.712 1157.66 482.891C1156.67 484.043 1156.05 484.834 1155.97 485.067C1155.89 485.3 1151.18 486.479 1148.85 485.403C1146.51 484.328 1147.04 476.557 1147.04 476.557L1155.54 470.987V470.974Z" fill="#FFCBAD"/>
<path d="M1157.39 468.423C1157.39 468.423 1157.49 468.552 1157.65 468.785C1158.23 469.64 1159.98 471.959 1158.44 473.409C1155.86 475.831 1156.55 480.469 1156.55 480.469C1156.55 480.469 1156.19 479.484 1155.26 479.419C1154.32 479.355 1153.81 481.569 1154.01 482.398C1154.49 484.315 1154.92 484.277 1154.92 484.277C1154.92 484.277 1160.47 487.1 1160.15 487.308C1157.46 489.108 1148.28 496.789 1140.91 489.406C1138.11 486.608 1139.58 479.044 1139.76 473.953C1139.94 468.876 1146.46 466.48 1150.42 466.065C1154.36 465.638 1157.39 468.423 1157.39 468.423Z" fill="#282936"/>
</g>
<defs>
<linearGradient id="paint0_linear_326_26802" x1="1388.7" y1="343.196" x2="1423.25" y2="343.196" gradientUnits="userSpaceOnUse">
<stop stop-color="#FDFDFD"/>
<stop offset="1" stop-color="#BAC6EB"/>
</linearGradient>
<linearGradient id="paint1_linear_326_26802" x1="1423.25" y1="343.261" x2="1457.57" y2="343.261" gradientUnits="userSpaceOnUse">
<stop stop-color="#BAC6EB"/>
</linearGradient>
<linearGradient id="paint2_linear_326_26802" x1="1124" y1="327.42" x2="1125.29" y2="327.42" gradientUnits="userSpaceOnUse">
<stop stop-color="#FDFDFD"/>
<stop offset="1" stop-color="#BAC6EB"/>
</linearGradient>
<linearGradient id="paint3_linear_326_26802" x1="1124" y1="327.484" x2="1125.29" y2="327.484" gradientUnits="userSpaceOnUse">
<stop stop-color="#BAC6EB"/>
</linearGradient>
<linearGradient id="paint4_linear_326_26802" x1="1395.87" y1="305.439" x2="1423.22" y2="305.439" gradientUnits="userSpaceOnUse">
<stop stop-color="#FDFDFD"/>
<stop offset="1" stop-color="#BAC6EB"/>
</linearGradient>
<linearGradient id="paint5_linear_326_26802" x1="1423.22" y1="305.491" x2="1450.41" y2="305.491" gradientUnits="userSpaceOnUse">
<stop stop-color="#BAC6EB"/>
</linearGradient>
<linearGradient id="paint6_linear_326_26802" x1="1395.87" y1="290.763" x2="1450.41" y2="290.763" gradientUnits="userSpaceOnUse">
<stop stop-color="#FDFDFD"/>
<stop offset="1" stop-color="#BAC6EB"/>
</linearGradient>
<linearGradient id="paint7_linear_326_26802" x1="1377.42" y1="450.185" x2="1395.82" y2="450.185" gradientUnits="userSpaceOnUse">
<stop stop-color="#BAC6EB"/>
</linearGradient>
<linearGradient id="paint8_linear_326_26802" x1="1377.2" y1="358.908" x2="1395.61" y2="358.908" gradientUnits="userSpaceOnUse">
<stop stop-color="#BAC6EB"/>
</linearGradient>
<linearGradient id="paint9_linear_326_26802" x1="1455.95" y1="355.825" x2="1474.45" y2="355.825" gradientUnits="userSpaceOnUse">
<stop stop-color="#BAC6EB"/>
</linearGradient>
<linearGradient id="paint10_linear_326_26802" x1="1535" y1="401.522" x2="1553.5" y2="401.522" gradientUnits="userSpaceOnUse">
<stop stop-color="#BAC6EB"/>
</linearGradient>
<linearGradient id="paint11_linear_326_26802" x1="1540.6" y1="447.245" x2="1559.01" y2="447.245" gradientUnits="userSpaceOnUse">
<stop stop-color="#BAC6EB"/>
</linearGradient>
<linearGradient id="paint12_linear_326_26802" x1="1461.76" y1="492.825" x2="1480.17" y2="492.825" gradientUnits="userSpaceOnUse">
<stop stop-color="#BAC6EB"/>
</linearGradient>
<linearGradient id="paint13_linear_326_26802" x1="1298.37" y1="404.488" x2="1316.77" y2="404.488" gradientUnits="userSpaceOnUse">
<stop stop-color="#BAC6EB"/>
</linearGradient>
<linearGradient id="paint14_linear_326_26802" x1="1315.21" y1="383.272" x2="1349.74" y2="383.272" gradientUnits="userSpaceOnUse">
<stop stop-color="#FDFDFD"/>
<stop offset="1" stop-color="#BAC6EB"/>
</linearGradient>
<linearGradient id="paint15_linear_326_26802" x1="1349.74" y1="383.336" x2="1384.06" y2="383.336" gradientUnits="userSpaceOnUse">
<stop stop-color="#BAC6EB"/>
</linearGradient>
<linearGradient id="paint16_linear_326_26802" x1="1236.37" y1="428.839" x2="1270.9" y2="428.839" gradientUnits="userSpaceOnUse">
<stop stop-color="#FDFDFD"/>
<stop offset="1" stop-color="#BAC6EB"/>
</linearGradient>
<linearGradient id="paint17_linear_326_26802" x1="1270.9" y1="428.904" x2="1305.23" y2="428.904" gradientUnits="userSpaceOnUse">
<stop stop-color="#BAC6EB"/>
</linearGradient>
<linearGradient id="paint18_linear_326_26802" x1="1507.63" y1="383.453" x2="1541.96" y2="383.453" gradientUnits="userSpaceOnUse">
<stop stop-color="#BAC6EB"/>
</linearGradient>
<linearGradient id="paint19_linear_326_26802" x1="1473.09" y1="383.401" x2="1507.63" y2="383.401" gradientUnits="userSpaceOnUse">
<stop stop-color="#FDFDFD"/>
<stop offset="1" stop-color="#BAC6EB"/>
</linearGradient>
<linearGradient id="paint20_linear_326_26802" x1="1507.84" y1="474.73" x2="1542.16" y2="474.73" gradientUnits="userSpaceOnUse">
<stop stop-color="#BAC6EB"/>
</linearGradient>
<linearGradient id="paint21_linear_326_26802" x1="1473.31" y1="474.666" x2="1507.84" y2="474.666" gradientUnits="userSpaceOnUse">
<stop stop-color="#FDFDFD"/>
<stop offset="1" stop-color="#BAC6EB"/>
</linearGradient>
<linearGradient id="paint22_linear_326_26802" x1="1349.96" y1="474.601" x2="1384.28" y2="474.601" gradientUnits="userSpaceOnUse">
<stop stop-color="#BAC6EB"/>
</linearGradient>
<linearGradient id="paint23_linear_326_26802" x1="1315.42" y1="474.536" x2="1349.96" y2="474.536" gradientUnits="userSpaceOnUse">
<stop stop-color="#FDFDFD"/>
<stop offset="1" stop-color="#BAC6EB"/>
</linearGradient>
<linearGradient id="paint24_linear_326_26802" x1="1315.21" y1="367.495" x2="1349.74" y2="367.495" gradientUnits="userSpaceOnUse">
<stop stop-color="#FDFDFD"/>
<stop offset="1" stop-color="#BAC6EB"/>
</linearGradient>
<linearGradient id="paint25_linear_326_26802" x1="1349.74" y1="367.56" x2="1384.06" y2="367.56" gradientUnits="userSpaceOnUse">
<stop stop-color="#BAC6EB"/>
</linearGradient>
<linearGradient id="paint26_linear_326_26802" x1="1315.21" y1="350.76" x2="1384.06" y2="350.76" gradientUnits="userSpaceOnUse">
<stop stop-color="#FDFDFD"/>
<stop offset="1" stop-color="#BAC6EB"/>
</linearGradient>
<linearGradient id="paint27_linear_326_26802" x1="1236.37" y1="413.063" x2="1270.9" y2="413.063" gradientUnits="userSpaceOnUse">
<stop stop-color="#FDFDFD"/>
<stop offset="1" stop-color="#BAC6EB"/>
</linearGradient>
<linearGradient id="paint28_linear_326_26802" x1="1270.9" y1="413.127" x2="1305.23" y2="413.127" gradientUnits="userSpaceOnUse">
<stop stop-color="#BAC6EB"/>
</linearGradient>
<linearGradient id="paint29_linear_326_26802" x1="1507.63" y1="367.676" x2="1541.96" y2="367.676" gradientUnits="userSpaceOnUse">
<stop stop-color="#BAC6EB"/>
</linearGradient>
<linearGradient id="paint30_linear_326_26802" x1="1473.09" y1="367.625" x2="1507.63" y2="367.625" gradientUnits="userSpaceOnUse">
<stop stop-color="#FDFDFD"/>
<stop offset="1" stop-color="#BAC6EB"/>
</linearGradient>
<linearGradient id="paint31_linear_326_26802" x1="1473.09" y1="350.877" x2="1541.96" y2="350.877" gradientUnits="userSpaceOnUse">
<stop stop-color="#FDFDFD"/>
<stop offset="1" stop-color="#BAC6EB"/>
</linearGradient>
<linearGradient id="paint32_linear_326_26802" x1="1507.84" y1="458.954" x2="1542.16" y2="458.954" gradientUnits="userSpaceOnUse">
<stop stop-color="#BAC6EB"/>
</linearGradient>
<linearGradient id="paint33_linear_326_26802" x1="1473.31" y1="458.889" x2="1507.84" y2="458.889" gradientUnits="userSpaceOnUse">
<stop stop-color="#FDFDFD"/>
<stop offset="1" stop-color="#BAC6EB"/>
</linearGradient>
<linearGradient id="paint34_linear_326_26802" x1="1473.31" y1="442.141" x2="1542.16" y2="442.141" gradientUnits="userSpaceOnUse">
<stop stop-color="#FDFDFD"/>
<stop offset="1" stop-color="#BAC6EB"/>
</linearGradient>
<linearGradient id="paint35_linear_326_26802" x1="1552.14" y1="429.098" x2="1586.68" y2="429.098" gradientUnits="userSpaceOnUse">
<stop stop-color="#FDFDFD"/>
<stop offset="1" stop-color="#BAC6EB"/>
</linearGradient>
<linearGradient id="paint36_linear_326_26802" x1="1586.68" y1="429.15" x2="1621" y2="429.15" gradientUnits="userSpaceOnUse">
<stop stop-color="#BAC6EB"/>
</linearGradient>
<linearGradient id="paint37_linear_326_26802" x1="1552.14" y1="413.322" x2="1586.68" y2="413.322" gradientUnits="userSpaceOnUse">
<stop stop-color="#FDFDFD"/>
<stop offset="1" stop-color="#BAC6EB"/>
</linearGradient>
<linearGradient id="paint38_linear_326_26802" x1="1586.68" y1="413.374" x2="1621" y2="413.374" gradientUnits="userSpaceOnUse">
<stop stop-color="#BAC6EB"/>
</linearGradient>
<linearGradient id="paint39_linear_326_26802" x1="1559.3" y1="391.341" x2="1586.67" y2="391.341" gradientUnits="userSpaceOnUse">
<stop stop-color="#FDFDFD"/>
<stop offset="1" stop-color="#BAC6EB"/>
</linearGradient>
<linearGradient id="paint40_linear_326_26802" x1="1586.67" y1="391.393" x2="1613.85" y2="391.393" gradientUnits="userSpaceOnUse">
<stop stop-color="#BAC6EB"/>
</linearGradient>
<linearGradient id="paint41_linear_326_26802" x1="1559.3" y1="376.666" x2="1613.85" y2="376.666" gradientUnits="userSpaceOnUse">
<stop stop-color="#FDFDFD"/>
<stop offset="1" stop-color="#BAC6EB"/>
</linearGradient>
<linearGradient id="paint42_linear_326_26802" x1="1394.47" y1="520.234" x2="1429.02" y2="520.234" gradientUnits="userSpaceOnUse">
<stop stop-color="#FDFDFD"/>
<stop offset="1" stop-color="#BAC6EB"/>
</linearGradient>
<linearGradient id="paint43_linear_326_26802" x1="1429.02" y1="520.298" x2="1463.34" y2="520.298" gradientUnits="userSpaceOnUse">
<stop stop-color="#BAC6EB"/>
</linearGradient>
<linearGradient id="paint44_linear_326_26802" x1="1394.47" y1="504.457" x2="1429.02" y2="504.457" gradientUnits="userSpaceOnUse">
<stop stop-color="#FDFDFD"/>
<stop offset="1" stop-color="#BAC6EB"/>
</linearGradient>
<linearGradient id="paint45_linear_326_26802" x1="1429.02" y1="504.522" x2="1463.34" y2="504.522" gradientUnits="userSpaceOnUse">
<stop stop-color="#BAC6EB"/>
</linearGradient>
<linearGradient id="paint46_linear_326_26802" x1="1401.63" y1="482.476" x2="1428.99" y2="482.476" gradientUnits="userSpaceOnUse">
<stop stop-color="#FDFDFD"/>
<stop offset="1" stop-color="#BAC6EB"/>
</linearGradient>
<linearGradient id="paint47_linear_326_26802" x1="1428.99" y1="482.528" x2="1456.17" y2="482.528" gradientUnits="userSpaceOnUse">
<stop stop-color="#BAC6EB"/>
</linearGradient>
<linearGradient id="paint48_linear_326_26802" x1="1401.63" y1="467.801" x2="1456.17" y2="467.801" gradientUnits="userSpaceOnUse">
<stop stop-color="#FDFDFD"/>
<stop offset="1" stop-color="#BAC6EB"/>
</linearGradient>
<linearGradient id="paint49_linear_326_26802" x1="1349.96" y1="458.825" x2="1384.28" y2="458.825" gradientUnits="userSpaceOnUse">
<stop stop-color="#BAC6EB"/>
</linearGradient>
<linearGradient id="paint50_linear_326_26802" x1="1315.42" y1="458.76" x2="1349.96" y2="458.76" gradientUnits="userSpaceOnUse">
<stop stop-color="#FDFDFD"/>
<stop offset="1" stop-color="#BAC6EB"/>
</linearGradient>
<linearGradient id="paint51_linear_326_26802" x1="1315.42" y1="442.025" x2="1384.28" y2="442.025" gradientUnits="userSpaceOnUse">
<stop stop-color="#FDFDFD"/>
<stop offset="1" stop-color="#BAC6EB"/>
</linearGradient>
<linearGradient id="paint52_linear_326_26802" x1="1243.53" y1="391.095" x2="1270.89" y2="391.095" gradientUnits="userSpaceOnUse">
<stop stop-color="#FDFDFD"/>
<stop offset="1" stop-color="#BAC6EB"/>
</linearGradient>
<linearGradient id="paint53_linear_326_26802" x1="1270.89" y1="391.134" x2="1298.07" y2="391.134" gradientUnits="userSpaceOnUse">
<stop stop-color="#BAC6EB"/>
</linearGradient>
<linearGradient id="paint54_linear_326_26802" x1="1243.53" y1="376.406" x2="1298.07" y2="376.406" gradientUnits="userSpaceOnUse">
<stop stop-color="#FDFDFD"/>
<stop offset="1" stop-color="#BAC6EB"/>
</linearGradient>
<linearGradient id="paint55_linear_326_26802" x1="1368.16" y1="383.388" x2="1400.83" y2="383.388" gradientUnits="userSpaceOnUse">
<stop stop-color="#BAC6EB"/>
</linearGradient>
<linearGradient id="paint56_linear_326_26802" x1="1298.27" y1="446.973" x2="1316.77" y2="446.973" gradientUnits="userSpaceOnUse">
<stop stop-color="#BAC6EB"/>
</linearGradient>
<linearGradient id="paint57_linear_326_26802" x1="1456.26" y1="404.605" x2="1474.66" y2="404.605" gradientUnits="userSpaceOnUse">
<stop stop-color="#BAC6EB"/>
</linearGradient>
<linearGradient id="paint58_linear_326_26802" x1="1456.16" y1="447.09" x2="1474.66" y2="447.09" gradientUnits="userSpaceOnUse">
<stop stop-color="#BAC6EB"/>
</linearGradient>
<linearGradient id="paint59_linear_326_26802" x1="1377.32" y1="492.67" x2="1395.82" y2="492.67" gradientUnits="userSpaceOnUse">
<stop stop-color="#BAC6EB"/>
</linearGradient>
<linearGradient id="paint60_linear_326_26802" x1="1398.19" y1="430.769" x2="1403.9" y2="420.866" gradientUnits="userSpaceOnUse">
<stop offset="0.13" stop-color="#B3C0D9"/>
<stop offset="0.67" stop-color="#EFEFEF"/>
</linearGradient>
<linearGradient id="paint61_linear_326_26802" x1="1440.05" y1="308.742" x2="1445.57" y2="299.188" gradientUnits="userSpaceOnUse">
<stop stop-color="#B3C0D9"/>
<stop offset="0.56" stop-color="#899CC3"/>
</linearGradient>
<linearGradient id="paint62_linear_326_26802" x1="1437.06" y1="304.83" x2="1442.29" y2="295.821" gradientUnits="userSpaceOnUse">
<stop offset="0.11" stop-color="#8F6EF7"/>
<stop offset="0.49" stop-color="#BDDCC9"/>
<stop offset="0.8" stop-color="#8F6EF7"/>
</linearGradient>
<linearGradient id="paint63_linear_326_26802" x1="1173.9" y1="481.388" x2="1446.43" y2="481.388" gradientUnits="userSpaceOnUse">
<stop stop-color="#FDFDFD"/>
<stop offset="1" stop-color="#BAC6EB"/>
</linearGradient>
<linearGradient id="paint64_linear_326_26802" x1="1128.1" y1="610.526" x2="1171.28" y2="610.526" gradientUnits="userSpaceOnUse">
<stop stop-color="#FDFDFD"/>
<stop offset="1" stop-color="#BAC6EB"/>
</linearGradient>
<linearGradient id="paint65_linear_326_26802" x1="1163.95" y1="492.437" x2="1254.43" y2="492.437" gradientUnits="userSpaceOnUse">
<stop offset="0.59" stop-color="#FDFDFD"/>
<stop offset="1" stop-color="#BAC6EB"/>
</linearGradient>
<linearGradient id="paint66_linear_326_26802" x1="1199.58" y1="358.104" x2="1209.69" y2="625.693" gradientUnits="userSpaceOnUse">
<stop stop-color="#FDFDFD"/>
<stop offset="1" stop-color="#BAC6EB"/>
</linearGradient>
<linearGradient id="paint67_linear_326_26802" x1="1150.07" y1="410.695" x2="1130.55" y2="615.623" gradientUnits="userSpaceOnUse">
<stop stop-color="#7EDDDE"/>
<stop offset="0.15" stop-color="#7BD9DA"/>
<stop offset="0.28" stop-color="#75CECF"/>
<stop offset="0.41" stop-color="#6BBBBC"/>
<stop offset="0.54" stop-color="#5CA2A2"/>
<stop offset="0.67" stop-color="#498081"/>
<stop offset="0.79" stop-color="#315757"/>
<stop offset="0.91" stop-color="#162728"/>
<stop offset="0.99"/>
</linearGradient>
<clipPath id="clip0_326_26802">
<rect width="497" height="348" fill="white" transform="translate(1124 275)"/>
</clipPath>
</defs>
</svg>
