<svg width="505" height="374" viewBox="0 0 505 374" fill="none" xmlns="http://www.w3.org/2000/svg">
<g clip-path="url(#clip0_326_26994)">
<path d="M287.155 129.549L262.204 115.095V105.218L287.155 119.672V129.549Z" fill="url(#paint0_linear_326_26994)"/>
<path d="M287.154 129.549L311.946 115.179V105.303L287.154 119.672V129.549Z" fill="url(#paint1_linear_326_26994)"/>
<path d="M287.155 119.672L262.204 105.218L286.996 90.8486L311.947 105.302L287.155 119.672Z" fill="#ABB8D6"/>
<path d="M287.155 118.124L262.204 103.671V93.7939L287.155 108.248V118.124Z" fill="url(#paint2_linear_326_26994)"/>
<path d="M287.154 118.125L311.946 103.755V93.8784L287.154 108.248V118.125Z" fill="url(#paint3_linear_326_26994)"/>
<path d="M287.155 108.248L262.204 93.7938L286.996 79.4243L311.947 93.8782L287.155 108.248Z" fill="#C5DBEE"/>
<path d="M287.136 105.256L267.381 93.8125L287.014 82.4258L306.779 93.8782L287.136 105.256Z" fill="#ABB8D6"/>
<path d="M287.136 100.707L267.381 89.2541V79.3774L287.136 90.8299V100.707Z" fill="url(#paint4_linear_326_26994)"/>
<path d="M287.136 100.707L306.779 89.3293V79.4526L287.136 90.83V100.707Z" fill="url(#paint5_linear_326_26994)"/>
<path d="M287.136 90.8298L267.381 79.3774L287.014 68L306.779 79.4524L287.136 90.8298Z" fill="url(#paint6_linear_326_26994)"/>
<path d="M295.154 79.4617L287.099 84.1328L278.997 79.4336L287.052 74.772L295.154 79.4617Z" fill="#3ADCC9"/>
<path d="M255.654 199.023C259.383 196.866 263.111 194.699 266.83 192.542C268.017 191.857 266.942 190 265.756 190.694C262.027 192.851 258.299 195.018 254.579 197.175C253.392 197.86 254.467 199.717 255.654 199.023Z" fill="url(#paint7_linear_326_26994)"/>
<path d="M255.495 132.925C259.223 130.768 262.952 128.601 266.671 126.444C267.858 125.759 266.783 123.902 265.597 124.596C261.868 126.753 258.139 128.92 254.42 131.077C253.233 131.762 254.308 133.619 255.495 132.925Z" fill="url(#paint8_linear_326_26994)"/>
<path d="M311.292 124.193C315.04 126.369 318.796 128.536 322.544 130.712C323.73 131.406 324.814 129.549 323.618 128.864C319.871 126.688 316.114 124.521 312.367 122.345C311.18 121.651 310.096 123.508 311.292 124.193Z" fill="url(#paint9_linear_326_26994)"/>
<path d="M368.399 157.284C372.146 159.46 375.903 161.626 379.65 163.803C380.837 164.497 381.921 162.639 380.725 161.955C376.977 159.779 373.221 157.612 369.473 155.436C368.287 154.742 367.203 156.599 368.399 157.284Z" fill="url(#paint10_linear_326_26994)"/>
<path d="M373.52 196.893C377.249 194.736 380.977 192.569 384.697 190.412C385.883 189.727 384.809 187.87 383.622 188.564C379.893 190.722 376.165 192.888 372.445 195.046C371.259 195.73 372.333 197.587 373.52 196.893Z" fill="url(#paint11_linear_326_26994)"/>
<path d="M316.573 229.9C320.301 227.743 324.03 225.576 327.749 223.419C328.936 222.734 327.861 220.877 326.675 221.571C322.946 223.729 319.217 225.895 315.498 228.052C314.311 228.737 315.386 230.594 316.573 229.9Z" fill="url(#paint12_linear_326_26994)"/>
<path d="M198.547 165.931C202.276 163.774 206.005 161.608 209.724 159.45C210.911 158.766 209.836 156.908 208.649 157.602C204.921 159.76 201.192 161.926 197.473 164.084C196.286 164.768 197.361 166.626 198.547 165.931Z" fill="url(#paint13_linear_326_26994)"/>
<path d="M234.058 158.569L209.116 144.115V134.238L234.058 148.692V158.569Z" fill="url(#paint14_linear_326_26994)"/>
<path d="M234.058 158.569L258.849 144.199V134.323L234.058 148.692V158.569Z" fill="#5A97CC"/>
<path d="M234.058 158.569L258.849 144.199V134.323L234.058 148.692V158.569Z" fill="url(#paint15_linear_326_26994)"/>
<path d="M234.058 148.692L209.116 134.238L233.908 119.869L258.849 134.323L234.058 148.692Z" fill="#ABB8D6"/>
<path d="M177.11 191.566L152.169 177.112V167.236L177.11 181.69V191.566Z" fill="url(#paint16_linear_326_26994)"/>
<path d="M177.11 191.566L201.912 177.206V167.33L177.11 181.69V191.566Z" fill="url(#paint17_linear_326_26994)"/>
<path d="M177.11 181.69L152.169 167.236L176.961 152.866L201.911 167.329L177.11 181.69Z" fill="#ABB8D6"/>
<path d="M348.11 158.663L372.902 144.293V134.417L348.11 148.786V158.663Z" fill="url(#paint18_linear_326_26994)"/>
<path d="M348.111 148.786V158.662L323.16 144.199V134.322L348.111 148.786Z" fill="url(#paint19_linear_326_26994)"/>
<path d="M372.903 134.416L348.111 148.786L323.16 134.322L347.952 119.962L372.903 134.416Z" fill="#ABB8D6"/>
<path d="M348.261 224.751L373.053 210.382V200.505L348.261 214.874V224.751Z" fill="url(#paint20_linear_326_26994)"/>
<path d="M348.261 214.874V224.751L323.319 210.297V200.42L348.261 214.874Z" fill="url(#paint21_linear_326_26994)"/>
<path d="M373.052 200.505L348.261 214.874L323.319 200.42L348.111 186.051L373.052 200.505Z" fill="#ABB8D6"/>
<path d="M234.216 224.657L259.008 210.297V200.42L234.216 214.78V224.657Z" fill="#5A97CC"/>
<path d="M234.216 224.657L259.008 210.297V200.42L234.216 214.78V224.657Z" fill="url(#paint22_linear_326_26994)"/>
<path d="M234.216 214.781V224.657L209.266 210.203V200.327L234.216 214.781Z" fill="url(#paint23_linear_326_26994)"/>
<path d="M259.008 200.42L234.216 214.78L209.266 200.326L234.057 185.957L259.008 200.42Z" fill="#ABB8D6"/>
<path d="M234.058 147.144L209.116 132.691V122.814L234.058 137.268V147.144Z" fill="url(#paint24_linear_326_26994)"/>
<path d="M234.058 147.145L258.849 132.775V122.898L234.058 137.268V147.145Z" fill="#5A97CC"/>
<path d="M234.058 147.145L258.849 132.775V122.898L234.058 137.268V147.145Z" fill="url(#paint25_linear_326_26994)"/>
<path d="M234.058 137.268L209.116 122.814L233.908 108.444L258.849 122.898L234.058 137.268Z" fill="url(#paint26_linear_326_26994)"/>
<path d="M177.11 180.151L152.169 165.688V155.812L177.11 170.265V180.151Z" fill="url(#paint27_linear_326_26994)"/>
<path d="M177.11 180.151L201.912 165.782V155.905L177.11 170.265V180.151Z" fill="url(#paint28_linear_326_26994)"/>
<path d="M177.11 170.265L152.169 155.811L176.961 141.442L201.911 155.905L177.11 170.265Z" fill="#C5DBEE"/>
<path d="M177.101 167.282L157.337 155.83L176.98 144.453L196.735 155.905L177.101 167.282Z" fill="#ABB8D6"/>
<path d="M348.11 147.239L372.902 132.869V122.993L348.11 137.362V147.239Z" fill="url(#paint29_linear_326_26994)"/>
<path d="M348.111 137.362V147.238L323.16 132.775V122.898L348.111 137.362Z" fill="url(#paint30_linear_326_26994)"/>
<path d="M372.903 122.992L348.111 137.362L323.16 122.899L347.952 108.539L372.903 122.992Z" fill="url(#paint31_linear_326_26994)"/>
<path d="M348.261 213.327L373.053 198.957V189.081L348.261 203.45V213.327Z" fill="url(#paint32_linear_326_26994)"/>
<path d="M348.261 203.45V213.327L323.319 198.873V188.996L348.261 203.45Z" fill="url(#paint33_linear_326_26994)"/>
<path d="M373.052 189.08L348.261 203.45L323.319 188.996L348.111 174.626L373.052 189.08Z" fill="url(#paint34_linear_326_26994)"/>
<path d="M405.208 191.753L380.258 177.29V167.414L405.208 181.877V191.753Z" fill="url(#paint35_linear_326_26994)"/>
<path d="M405.208 191.754L430 177.384V167.508L405.208 181.877V191.754Z" fill="url(#paint36_linear_326_26994)"/>
<path d="M405.208 181.877L380.258 167.414L405.059 153.054L430 167.508L405.208 181.877Z" fill="#ABB8D6"/>
<path d="M405.208 180.329L380.258 165.866V155.989L405.208 170.453V180.329Z" fill="url(#paint37_linear_326_26994)"/>
<path d="M405.208 180.33L430 165.96V156.083L405.208 170.453V180.33Z" fill="url(#paint38_linear_326_26994)"/>
<path d="M405.208 170.453L380.258 155.989L405.059 141.629L430 156.083L405.208 170.453Z" fill="#C5DBEE"/>
<path d="M405.199 167.461L385.435 156.008L405.068 144.631L424.832 156.083L405.199 167.461Z" fill="#ABB8D6"/>
<path d="M405.199 162.912L385.435 151.459V141.583L405.199 153.035V162.912Z" fill="url(#paint39_linear_326_26994)"/>
<path d="M405.199 162.911L424.833 151.525V141.648L405.199 153.035V162.911Z" fill="url(#paint40_linear_326_26994)"/>
<path d="M405.199 153.035L385.435 141.582L405.068 130.205L424.832 141.648L405.199 153.035Z" fill="url(#paint41_linear_326_26994)"/>
<path d="M413.217 141.667L405.162 146.338L397.051 141.639L405.106 136.968L413.217 141.667Z" fill="#3ADCC9"/>
<path d="M291.323 257.748L266.372 243.295V233.418L291.323 247.872V257.748Z" fill="url(#paint42_linear_326_26994)"/>
<path d="M291.322 257.748L316.114 243.388V233.512L291.322 247.872V257.748Z" fill="url(#paint43_linear_326_26994)"/>
<path d="M291.323 247.872L266.372 233.418L291.164 219.048L316.115 233.512L291.323 247.872Z" fill="#ABB8D6"/>
<path d="M291.323 246.324L266.372 231.87V221.994L291.323 236.448V246.324Z" fill="url(#paint44_linear_326_26994)"/>
<path d="M291.322 246.324L316.114 231.964V222.087L291.322 236.447V246.324Z" fill="url(#paint45_linear_326_26994)"/>
<path d="M291.323 236.447L266.372 221.993L291.164 207.624L316.115 222.087L291.323 236.447Z" fill="#C5DBEE"/>
<path d="M291.304 233.465L271.54 222.012L291.183 210.635L310.938 222.078L291.304 233.465Z" fill="#ABB8D6"/>
<path d="M291.304 228.906L271.54 217.454V207.577L291.304 219.03V228.906Z" fill="url(#paint46_linear_326_26994)"/>
<path d="M291.305 228.906L310.938 217.529V207.652L291.305 219.03V228.906Z" fill="url(#paint47_linear_326_26994)"/>
<path d="M291.304 219.03L271.54 207.577L291.183 196.2L310.938 207.652L291.304 219.03Z" fill="url(#paint48_linear_326_26994)"/>
<path d="M299.322 207.671L291.267 212.332L283.165 207.633L291.211 202.972L299.322 207.671Z" fill="#8F6EF7"/>
<path d="M234.216 213.233L259.008 198.873V188.996L234.216 203.356V213.233Z" fill="#5A97CC"/>
<path d="M234.216 213.233L259.008 198.873V188.996L234.216 203.356V213.233Z" fill="url(#paint49_linear_326_26994)"/>
<path d="M234.216 203.356V213.233L209.266 198.779V188.902L234.216 203.356Z" fill="url(#paint50_linear_326_26994)"/>
<path d="M259.008 188.996L234.216 203.356L209.266 188.902L234.057 174.533L259.008 188.996Z" fill="url(#paint51_linear_326_26994)"/>
<path d="M177.101 162.724L157.337 151.281V141.404L177.101 152.847V162.724Z" fill="url(#paint52_linear_326_26994)"/>
<path d="M177.102 162.724L196.735 151.347V141.47L177.102 152.848V162.724Z" fill="url(#paint53_linear_326_26994)"/>
<path d="M177.101 152.847L157.337 141.404L176.98 130.018L196.735 141.47L177.101 152.847Z" fill="url(#paint54_linear_326_26994)"/>
<path d="M358.232 122.964L348.065 128.854L337.832 122.926L347.999 117.036L358.232 122.964Z" fill="#8F6EF7"/>
<path d="M244.187 122.88L234.011 128.77L223.778 122.842L233.955 116.942L244.187 122.88Z" fill="#8F6FF7"/>
<path d="M358.466 189.803L348.299 195.693L338.066 189.765L348.234 183.875L358.466 189.803Z" fill="#8F6EF7"/>
<path d="M244.337 188.968L234.17 194.858L223.938 188.93L234.105 183.04L244.337 188.968Z" fill="#8F6EF7"/>
<path d="M185.035 141.46L176.989 146.122L168.878 141.432L176.933 136.761L185.035 141.46Z" fill="#8F6FF7"/>
<path d="M247.878 141.189C255.036 145.334 262.204 149.489 269.362 153.635C270.549 154.329 271.633 152.472 270.437 151.787C263.279 147.642 256.111 143.486 248.953 139.341C247.766 138.647 246.682 140.504 247.878 141.189Z" fill="url(#paint55_linear_326_26994)"/>
<path d="M197.398 190.197C201.145 192.373 204.902 194.54 208.649 196.716C209.845 197.41 210.92 195.553 209.724 194.868C205.976 192.692 202.22 190.525 198.472 188.349C197.276 187.655 196.202 189.512 197.398 190.197Z" fill="url(#paint56_linear_326_26994)"/>
<path d="M312.591 166.016C316.32 163.859 320.049 161.692 323.768 159.535C324.955 158.85 323.88 156.993 322.693 157.687C318.965 159.844 315.236 162.011 311.517 164.168C310.33 164.853 311.405 166.71 312.591 166.016Z" fill="url(#paint57_linear_326_26994)"/>
<path d="M311.452 190.291C315.199 192.467 318.955 194.633 322.703 196.809C323.89 197.503 324.974 195.646 323.777 194.962C320.03 192.786 316.274 190.619 312.526 188.443C311.339 187.749 310.255 189.606 311.452 190.291Z" fill="url(#paint58_linear_326_26994)"/>
<path d="M254.504 223.288C258.252 225.464 262.008 227.63 265.755 229.806C266.942 230.5 268.026 228.643 266.83 227.959C263.083 225.783 259.326 223.616 255.579 221.44C254.392 220.746 253.308 222.603 254.504 223.288Z" fill="url(#paint59_linear_326_26994)"/>
<path d="M255.588 163.155C255.392 164.178 254.588 165.191 253.794 165.416L248.019 167.048C247.748 167.123 247.524 167.095 247.337 166.992L293.201 193.742C293.379 193.845 293.612 193.873 293.883 193.798L299.659 192.166C300.453 191.941 301.247 190.928 301.453 189.906L255.588 163.155Z" fill="#7554DF"/>
<path d="M251.252 160.923L249.094 161.533C247.954 161.852 246.804 163.315 246.515 164.788L246.328 165.763C246.141 166.739 246.374 167.48 246.879 167.78L292.743 194.53C292.229 194.23 291.996 193.489 292.183 192.514L292.37 191.538C292.659 190.056 293.818 188.602 294.949 188.283L297.107 187.674L251.243 160.923H251.252Z" fill="url(#paint60_linear_326_26994)"/>
<path d="M322.544 106.822L276.68 80.0621L276.839 79.2461L322.703 105.997L322.544 106.822Z" fill="#ACBAD5"/>
<path d="M325.077 98.3149L279.212 71.5645C279.661 71.8271 279.867 72.4743 279.698 73.3372L279.1 76.3855C278.848 77.6799 277.829 78.9649 276.839 79.2463L322.703 105.997C323.703 105.715 324.712 104.43 324.965 103.136L325.563 100.088C325.731 99.2341 325.525 98.5775 325.077 98.3149Z" fill="url(#paint61_linear_326_26994)"/>
<path d="M301.453 189.906L255.589 163.155L272.746 75.2974L318.61 102.048L301.453 189.906Z" fill="#8F6EF7"/>
<path d="M324.376 97.4237C325.721 97.0485 326.534 98.1647 326.189 99.9093L325.591 102.958C325.254 104.702 323.88 106.437 322.535 106.813L322.694 105.997C323.694 105.715 324.703 104.43 324.955 103.136L325.553 100.087C325.805 98.7931 325.198 97.9677 324.207 98.2491L321.497 99.0182C320.498 99.2996 319.488 100.585 319.236 101.879L302.07 189.737C301.78 191.21 300.621 192.673 299.49 192.992L293.715 194.624C292.575 194.943 291.893 194.005 292.183 192.532L292.37 191.557C292.659 190.075 293.818 188.621 294.949 188.302L297.108 187.692L296.949 188.508L294.79 189.118C293.996 189.343 293.192 190.356 292.996 191.378L292.809 192.354C292.613 193.376 293.089 194.033 293.874 193.808L299.649 192.176C300.444 191.951 301.238 190.938 301.444 189.915L318.61 102.057C318.946 100.313 320.32 98.5774 321.666 98.2022L324.376 97.4331V97.4237Z" fill="#DFE2E9"/>
<path d="M279.67 70.767C279.361 70.5888 278.969 70.5419 278.511 70.6732L275.801 71.4424C274.455 71.8176 273.091 73.5528 272.745 75.2974L318.61 102.048C318.946 100.303 320.32 98.568 321.665 98.1928L324.375 97.4237C324.833 97.2924 325.226 97.3393 325.534 97.5175L279.67 70.767Z" fill="url(#paint62_linear_326_26994)"/>
<path d="M303.471 110.808L282.482 98.6338C281.884 98.2867 281.529 97.3581 281.679 96.5609C281.828 95.7636 282.436 95.3978 283.034 95.7449L304.022 107.92C304.62 108.267 304.975 109.195 304.826 109.992C304.676 110.79 304.069 111.155 303.471 110.808Z" fill="#CFE3FC"/>
<path d="M305.518 125.225L275.894 108.041C275.296 107.694 274.941 106.766 275.091 105.969C275.24 105.171 275.848 104.806 276.446 105.153L306.069 122.336C306.667 122.683 307.022 123.612 306.873 124.409C306.723 125.206 306.116 125.572 305.518 125.225Z" fill="#CFE3FC"/>
<path d="M304.219 132.034L274.596 114.851C273.998 114.504 273.642 113.575 273.792 112.778C273.941 111.981 274.549 111.615 275.147 111.962L304.77 129.145C305.368 129.493 305.723 130.421 305.574 131.218C305.424 132.016 304.817 132.381 304.219 132.034Z" fill="#CFE3FC"/>
<path d="M296.724 135.261L273.287 121.661C272.689 121.314 272.334 120.385 272.483 119.588C272.633 118.79 273.24 118.425 273.838 118.772L297.275 132.372C297.873 132.719 298.228 133.648 298.079 134.445C297.929 135.242 297.322 135.608 296.724 135.261Z" fill="#CFE3FC"/>
<path d="M301.611 145.663L271.988 128.479C271.39 128.132 271.035 127.204 271.185 126.407C271.334 125.609 271.941 125.244 272.54 125.591L302.163 142.774C302.761 143.121 303.116 144.049 302.966 144.847C302.817 145.644 302.209 146.01 301.611 145.663Z" fill="#CFE3FC"/>
<path d="M299.098 170.706L283.314 161.552C283.202 161.486 283.127 161.308 283.155 161.149C283.183 160.989 283.305 160.923 283.417 160.989L299.2 170.144C299.313 170.209 299.387 170.387 299.359 170.547C299.331 170.706 299.21 170.772 299.098 170.706Z" fill="#DBDBDB"/>
<path d="M279.744 140.551L270.689 135.298C270.091 134.951 269.736 134.023 269.886 133.225C270.035 132.428 270.643 132.062 271.241 132.409L280.296 137.662C280.894 138.009 281.249 138.938 281.099 139.735C280.95 140.532 280.343 140.898 279.744 140.551Z" fill="#CFE3FC"/>
<path d="M298.808 166.982C297.294 166.738 296.322 165.941 295.855 164.553C295.659 164.553 295.509 164.534 295.435 164.525C293.874 164.319 292.706 163.671 291.968 162.583C291.36 161.692 291.089 160.689 291.239 159.873C291.239 159.873 291.22 159.863 291.22 159.854C291.014 160.285 290.631 160.604 290.08 160.82C288.725 161.336 287.099 161.008 285.828 159.948C285.202 159.422 284.669 158.719 284.268 157.912C283.838 157.049 283.866 156.027 284.324 155.361C284.763 154.723 285.566 154.751 285.828 154.742C287.239 154.761 288.417 155.68 289.473 156.665C289.856 157.021 290.145 157.387 290.426 157.772C290.295 157.462 290.108 157.124 289.893 156.759L289.734 156.505C289.202 155.652 288.66 154.77 288.575 153.785C288.445 152.313 289.454 151.412 290.463 151.309C291.033 151.243 291.463 151.412 291.94 151.675C292.341 151.9 292.799 152.172 293.164 152.632C293.519 153.082 293.79 153.785 293.612 154.357L292.977 154.161C293.061 153.879 292.921 153.401 292.64 153.044C292.351 152.679 291.977 152.463 291.622 152.256C291.173 152.003 290.874 151.928 290.529 151.966C289.837 152.041 289.146 152.679 289.239 153.72C289.304 154.545 289.809 155.361 290.295 156.14L290.454 156.393C291.099 157.453 291.416 158.325 291.388 159.047C291.426 159.085 291.454 159.132 291.491 159.169C291.641 158.925 291.837 158.728 292.089 158.578C292.369 158.409 292.687 158.241 293.042 158.156C293.715 158.006 294.65 158.259 295.313 158.756C295.79 159.113 296.098 159.629 296.154 160.154C296.201 160.585 296.079 161.008 295.799 161.336C295.257 161.974 293.949 162.171 292.042 160.623C291.977 160.567 291.912 160.52 291.846 160.464C291.874 161.008 292.108 161.627 292.5 162.199C293.136 163.127 294.117 163.671 295.5 163.85C295.528 163.85 295.584 163.859 295.668 163.868C295.537 163.062 295.659 162.255 296.014 161.655C296.201 161.326 296.902 160.407 297.715 160.501C298.004 160.529 298.388 160.707 298.621 161.373C298.855 162.058 298.677 162.883 298.388 163.306C297.874 164.065 297.145 164.365 296.528 164.478C296.818 165.256 297.397 166.073 298.902 166.316L298.799 166.973L298.808 166.982ZM297.631 161.167C297.304 161.167 296.799 161.655 296.603 162.002C296.313 162.49 296.229 163.165 296.35 163.84C296.846 163.756 297.444 163.531 297.846 162.94C298.042 162.658 298.154 162.039 298.004 161.598C297.939 161.411 297.827 161.186 297.659 161.167C297.649 161.167 297.64 161.167 297.631 161.167ZM291.986 159.685C292.136 159.826 292.295 159.966 292.472 160.117C293.902 161.28 294.949 161.345 295.304 160.923C295.463 160.736 295.528 160.501 295.5 160.248C295.463 159.901 295.248 159.563 294.911 159.31C294.407 158.925 293.659 158.719 293.182 158.822C292.921 158.878 292.669 159.019 292.435 159.16C292.229 159.282 292.08 159.46 291.977 159.685H291.986ZM285.772 155.408C285.305 155.408 285.024 155.511 284.866 155.746C284.548 156.205 284.548 156.974 284.866 157.612C285.221 158.325 285.716 158.972 286.258 159.432C287.342 160.342 288.716 160.632 289.846 160.201C290.323 160.023 290.594 159.751 290.697 159.366C290.697 159.338 290.715 159.3 290.715 159.272C290.501 159 290.314 158.747 290.136 158.494C289.8 158.015 289.473 157.565 289.024 157.153C288.062 156.262 287.006 155.427 285.819 155.408H285.772Z" fill="white"/>
<path d="M254.401 134.951L256.859 133.525C261.503 137.071 264.326 137.784 266.409 138.346C268.493 140.194 271.316 142.764 275.96 144.593V154.704C275.96 158.784 274.353 160.829 272.465 161.833L270.017 163.259L270.157 162.593C268.166 162.921 266.419 162.527 266.419 162.527C266.419 162.527 256.868 153.598 256.868 143.646V137.699L254.411 134.951H254.401Z" fill="#94B4FA"/>
<path d="M275.96 144.603L273.502 146.029L268.241 144.584L263.942 139.772L266.4 138.347C268.484 140.194 271.306 142.764 275.95 144.593L275.96 144.603Z" fill="#ACC5FB"/>
<path d="M254.672 134.792L256.859 133.525C261.503 137.071 264.325 137.784 266.409 138.346L263.951 139.772H258.69L254.392 134.951L254.663 134.801L254.672 134.792Z" fill="#94B4FA"/>
<path d="M263.952 139.772C266.036 141.62 268.858 144.19 273.502 146.019V156.13C273.502 166.082 263.952 163.943 263.952 163.943C263.952 163.943 254.401 155.014 254.401 145.062V134.951C259.046 138.497 261.868 139.209 263.952 139.772Z" fill="white"/>
<path d="M263.951 161.833C264.718 161.927 266.232 162.03 267.717 161.57C270.409 160.754 271.773 158.588 271.773 155.126V147.257C271.138 146.947 270.521 146.619 269.913 146.272C267.334 144.781 265.4 143.111 263.951 141.826C262.503 141.432 260.569 140.86 257.99 139.359C257.382 139.012 256.765 138.618 256.13 138.187V146.056C256.13 149.517 257.494 153.269 260.186 157.199C261.671 159.375 263.185 161.026 263.951 161.823V161.833Z" fill="#94B4FA"/>
<path d="M264.568 161.476C263.801 160.688 262.288 159.028 260.802 156.852C258.11 152.913 256.746 149.161 256.746 145.709V138.6C257.167 138.872 257.587 139.125 257.989 139.369C260.568 140.869 262.502 141.442 263.951 141.836C265.399 143.121 267.334 144.79 269.913 146.281C270.52 146.628 271.137 146.966 271.773 147.266V155.136C271.773 157.846 270.932 159.76 269.277 160.857C268.978 160.998 268.67 161.12 268.334 161.223C266.848 161.673 265.334 161.579 264.568 161.486V161.476Z" fill="#00CA58"/>
<path d="M265.074 156.674L264.083 157.256C264.083 157.256 264.167 157.2 264.214 157.171L265.204 156.59C265.204 156.59 265.12 156.656 265.074 156.674Z" fill="#BEB7C8"/>
<path d="M258.252 148.007L259.243 147.426C259.579 147.229 260.027 147.285 260.476 147.548C260.887 147.792 261.308 148.195 261.635 148.73L260.644 149.311C260.308 148.777 259.897 148.364 259.485 148.129C259.037 147.867 258.588 147.81 258.252 148.007Z" fill="#CBDCF9"/>
<path d="M260.653 149.321L261.644 148.739L263.475 151.703L262.485 152.285L260.653 149.321Z" fill="#CBDCF9"/>
<path d="M269.25 153.044L270.241 152.463L265.195 156.59L264.204 157.171L269.25 153.044Z" fill="#CBDCF9"/>
<path d="M266.681 148.861L267.671 148.279C268.008 148.082 268.456 148.139 268.914 148.401L267.924 148.983C267.475 148.72 267.017 148.664 266.681 148.861Z" fill="#CBDCF9"/>
<path d="M267.924 148.983L268.914 148.401C269.307 148.626 269.69 149.002 270.017 149.499C270.755 150.634 270.858 151.966 270.241 152.463L269.251 153.044C269.868 152.547 269.765 151.225 269.027 150.08C268.699 149.583 268.316 149.208 267.924 148.983Z" fill="#CBDCF9"/>
<path d="M267.924 148.983C268.316 149.208 268.699 149.583 269.026 150.08C269.765 151.215 269.867 152.547 269.251 153.044L264.204 157.171C263.793 157.509 263.204 157.453 262.616 157.115C262.13 156.833 261.644 156.355 261.251 155.717L258.317 150.962C257.607 149.808 257.551 148.504 258.196 148.054C258.541 147.81 259.018 147.867 259.495 148.139C259.906 148.383 260.326 148.786 260.653 149.32L262.485 152.284L266.578 148.936C266.924 148.655 267.419 148.692 267.924 148.983Z" fill="white"/>
<path opacity="0.2" d="M278.221 148.58L251.831 164.665C263.026 170.265 263.54 176.671 251.13 184.081L109.463 265.646C96.7725 274.866 138.217 277.998 136.796 286.327C136.796 286.327 294.883 194.295 295.116 192.86C322.132 169.543 278.23 148.58 278.23 148.58H278.221Z" fill="url(#paint63_linear_326_26994)"/>
<path opacity="0.2" d="M100.623 317.373C94.5488 320.891 84.6807 320.872 78.5692 317.336C72.4577 313.8 72.4296 308.069 78.5038 304.552C84.5779 301.034 94.446 301.053 100.558 304.589C106.669 308.125 106.697 313.856 100.623 317.373Z" fill="url(#paint64_linear_326_26994)"/>
<path d="M165.214 190.14V290.914V292.546C165.214 295.979 159.729 301.306 157.159 299.824L109.07 266.227C106.501 264.745 104.426 260.749 104.426 257.316L99.8564 154.901C99.8564 151.468 106.51 149.893 109.07 151.375L114.584 154.573L160.56 181.211C163.121 182.702 165.205 186.688 165.205 190.121L165.214 190.14Z" fill="url(#paint65_linear_326_26994)"/>
<path d="M159.701 193.329V294.103V295.735C159.701 299.168 157.626 300.744 155.056 299.262L103.566 269.416C100.996 267.934 98.9219 263.938 98.9219 260.505V158.09C98.9219 154.657 101.006 153.082 103.566 154.563L109.08 157.762L155.056 184.4C157.617 185.891 159.701 189.877 159.701 193.31V193.329Z" fill="url(#paint66_linear_326_26994)"/>
<path d="M100.249 248.622V164.375C100.249 161.852 101.772 160.698 103.66 161.786L154.963 191.51C156.851 192.598 158.374 195.534 158.374 198.047V282.294C158.374 284.817 156.851 285.971 154.963 284.883L103.66 255.159C101.772 254.071 100.249 251.135 100.249 248.622Z" fill="#E0E2EA"/>
<path d="M156.14 283.251C155.626 283.551 154.991 283.513 154.356 283.138L103.052 253.414C102.8 253.274 102.342 252.945 102.034 252.411C101.772 251.951 101.464 251.051 101.464 250.028V165.781C101.464 164.665 101.838 163.812 102.482 163.436C102.996 163.136 103.632 163.174 104.267 163.549L155.57 193.273C155.823 193.413 156.281 193.742 156.589 194.276C156.851 194.736 157.159 195.636 157.159 196.659V280.906C157.159 282.022 156.785 282.885 156.14 283.251Z" fill="#0F165A"/>
<path style="mix-blend-mode:lighten" opacity="0.2" d="M159.701 295.744C159.701 299.177 157.626 300.753 155.056 299.271L103.566 269.425C100.996 267.943 98.9219 263.948 98.9219 260.515V158.099C98.9219 154.667 101.006 153.091 103.566 154.573L159.701 295.735V295.744Z" fill="url(#paint67_linear_326_26994)"/>
<path d="M128.993 174.26L120.471 169.327C119.929 169.008 119.48 168.164 119.48 167.432C119.48 166.7 119.92 166.372 120.471 166.682L128.993 171.615C129.535 171.934 129.984 172.778 129.984 173.51C129.984 174.242 129.545 174.57 128.993 174.26Z" fill="#372E36"/>
<path d="M147.375 183.171C147.375 184.184 146.664 184.588 145.786 184.081C144.907 183.575 144.197 182.346 144.197 181.333C144.197 180.32 144.907 179.917 145.786 180.423C146.664 180.93 147.375 182.158 147.375 183.171Z" fill="#64B2C0"/>
<path d="M146.496 185.319C146.104 185.319 145.683 185.197 145.272 184.963C144.076 184.269 143.179 182.712 143.179 181.333C143.179 180.479 143.534 179.785 144.151 179.429C144.767 179.072 145.543 179.11 146.291 179.541C147.487 180.236 148.384 181.793 148.384 183.171C148.384 184.025 148.029 184.719 147.412 185.075C147.132 185.235 146.823 185.319 146.496 185.319ZM145.207 181.267C145.207 181.98 145.721 182.871 146.291 183.199C146.356 182.524 145.842 181.633 145.281 181.305C145.253 181.286 145.235 181.277 145.216 181.267H145.207Z" fill="#222121"/>
<path d="M106.164 187.261V242.225L147.702 265.918V210.878L106.164 187.261Z" fill="white"/>
<path d="M146.534 224.957C146.739 224.957 146.917 224.788 146.917 224.573V211.704C146.917 211.563 146.842 211.441 146.73 211.376L137.086 205.785C136.908 205.682 136.675 205.739 136.563 205.926C136.46 206.104 136.516 206.339 136.703 206.451L146.15 211.929V224.582C146.15 224.788 146.319 224.967 146.534 224.967V224.957Z" fill="#3A83C9"/>
<path d="M146.534 264.82C146.599 264.82 146.665 264.801 146.721 264.773C146.842 264.707 146.908 264.576 146.908 264.445V251.576C146.908 251.37 146.74 251.191 146.525 251.191C146.31 251.191 146.142 251.36 146.142 251.576V263.788L137.077 258.536C136.9 258.432 136.666 258.489 136.554 258.676C136.451 258.854 136.507 259.089 136.694 259.202L146.338 264.782C146.394 264.82 146.459 264.829 146.525 264.829L146.534 264.82Z" fill="#3A83C9"/>
<path d="M107.098 202.108C107.304 202.108 107.482 201.94 107.482 201.724V189.512L116.546 194.764C116.724 194.867 116.957 194.811 117.069 194.624C117.172 194.445 117.116 194.211 116.929 194.098L107.295 188.518C107.173 188.452 107.033 188.452 106.912 188.518C106.79 188.583 106.725 188.714 106.725 188.846V201.724C106.725 201.93 106.893 202.108 107.108 202.108H107.098Z" fill="#3A83C9"/>
<path d="M116.733 247.552C116.864 247.552 116.995 247.487 117.06 247.365C117.163 247.186 117.107 246.952 116.92 246.839L107.472 241.362V228.709C107.472 228.502 107.304 228.324 107.089 228.324C106.874 228.324 106.706 228.493 106.706 228.709V241.587C106.706 241.728 106.781 241.85 106.893 241.915L116.527 247.496C116.584 247.534 116.649 247.543 116.714 247.543L116.733 247.552Z" fill="#3A83C9"/>
<path d="M131.413 217.913C131.413 217.913 131.413 217.913 131.413 217.903V217.913ZM113.051 234.983C113.051 235.227 113.141 235.402 113.322 235.509C114.116 235.978 114.892 236.4 115.686 236.897C115.686 237.441 115.686 237.966 115.686 238.473C115.686 238.52 115.583 238.557 115.536 238.529C114.088 237.807 114.424 237.385 114.368 239.326C114.368 239.542 114.406 239.645 114.583 239.748C115.284 240.142 115.985 240.555 116.676 240.958C117.05 241.183 116.994 241.099 116.994 241.587C116.994 242.009 116.994 242.421 116.994 242.872C117.433 243.125 117.854 243.369 118.302 243.631V241.906C118.676 242.121 119.031 242.309 119.377 242.534C119.564 242.656 119.62 242.6 119.611 242.356C119.592 241.952 119.611 241.559 119.611 241.174C119.611 240.996 119.583 240.893 119.433 240.808C119.115 240.639 118.788 240.452 118.471 240.255C118.331 240.17 118.302 240.227 118.302 240.395C118.302 240.827 118.302 241.249 118.302 241.68C118.302 241.849 118.265 241.887 118.134 241.812C117.798 241.615 117.471 241.418 117.134 241.23C117.05 241.183 116.985 241.136 116.985 240.986C116.985 239.889 116.985 238.792 116.985 237.647C117.377 237.882 117.751 238.088 118.144 238.323C118.256 238.398 118.302 238.36 118.302 238.201C118.302 237.75 118.302 237.31 118.302 236.859C118.302 236.7 118.331 236.644 118.461 236.728C118.788 236.925 119.115 237.113 119.443 237.3C119.564 237.366 119.611 237.45 119.611 237.619C119.611 238.041 119.611 238.482 119.611 238.904C119.611 239.12 119.667 239.214 119.816 239.298C120.115 239.458 120.405 239.654 120.704 239.805C120.891 239.898 120.928 240.02 120.928 240.245C120.928 241.887 120.928 243.528 120.928 245.179C122.171 245.939 123.395 246.605 124.638 247.355C124.825 247.458 124.881 247.44 124.872 247.177C124.853 246.774 124.872 246.389 124.872 245.986C124.872 245.807 124.9 245.742 125.049 245.826C125.367 246.023 125.676 246.201 125.993 246.37C126.133 246.445 126.18 246.548 126.18 246.736C126.18 247.158 126.18 247.599 126.18 248.021C126.18 248.171 126.218 248.256 126.339 248.321C127.105 248.762 127.881 249.203 128.647 249.662C128.778 249.737 128.806 249.681 128.806 249.522C128.806 249.09 128.806 248.668 128.806 248.237C128.806 248.059 128.843 248.012 128.984 248.096C129.301 248.293 129.628 248.481 129.946 248.649C130.105 248.734 130.142 248.837 130.142 249.034C130.142 249.512 130.142 249.991 130.142 250.488C131.021 250.994 131.881 251.491 132.759 252.007C132.759 251.473 132.759 250.947 132.759 250.422C132.759 250.366 132.656 250.225 132.6 250.188C132.282 249.991 131.955 249.803 131.638 249.625C131.497 249.55 131.441 249.456 131.451 249.269C131.46 248.856 131.46 248.434 131.451 248.012C131.451 247.815 131.497 247.787 131.638 247.871C131.955 248.068 132.264 248.227 132.581 248.424C132.722 248.509 132.768 248.471 132.768 248.274C132.768 247.787 132.768 247.299 132.768 246.792C131.965 246.286 131.17 245.854 130.367 245.385C130.189 245.282 130.142 245.179 130.142 244.945C130.142 243.96 130.142 242.975 130.142 241.981C130.142 241.784 130.18 241.737 130.339 241.831C130.712 242.056 131.086 242.253 131.469 242.468C131.469 241.999 131.451 241.521 131.469 241.061C131.469 240.818 131.432 240.686 131.226 240.583C130.937 240.442 130.647 240.245 130.367 240.095C130.217 240.011 130.152 239.927 130.152 239.711C130.161 239.223 130.152 238.726 130.152 238.229C129.778 238.013 129.395 237.779 129.021 237.572C128.871 237.488 128.825 237.403 128.825 237.197C128.843 236.128 128.797 235.012 128.853 233.961C129.236 234.186 129.61 234.393 129.984 234.618C130.114 234.702 130.161 234.665 130.161 234.486C130.161 233.98 130.161 233.483 130.161 232.976C129.731 232.723 129.301 232.479 128.853 232.217C128.825 231.1 128.853 230.04 128.843 228.943C128.843 228.746 128.797 228.643 128.647 228.568C128.348 228.408 128.058 228.211 127.759 228.061C127.563 227.958 127.516 227.836 127.526 227.602C127.535 227.208 127.526 226.795 127.526 226.392C127.526 226.223 127.488 226.139 127.358 226.073C127.04 225.904 126.732 225.707 126.414 225.529C126.274 225.454 126.208 225.36 126.208 225.154C126.218 224.75 126.218 224.338 126.208 223.916C126.208 223.7 126.264 223.681 126.414 223.775C127.152 224.206 127.89 224.628 128.629 225.06C128.787 225.154 128.843 225.135 128.834 224.91C128.825 224.488 128.834 224.084 128.834 223.672C128.834 223.447 128.89 223.428 129.049 223.522C129.413 223.747 129.778 223.944 130.161 224.169C130.161 223.606 130.161 223.081 130.161 222.546C130.161 222.368 130.049 222.349 129.974 222.312C128.722 221.58 127.479 220.867 126.227 220.136C126.227 219.573 126.227 219.038 126.227 218.522C126.227 218.476 126.348 218.466 126.414 218.504C127.217 218.963 128.012 219.423 128.815 219.892C128.853 219.329 128.806 218.738 128.797 218.147C129.255 218.4 129.703 218.654 130.161 218.916C130.161 218.41 130.161 217.913 130.161 217.406C130.161 217.209 130.208 217.181 130.348 217.275C130.722 217.5 131.096 217.706 131.469 217.931C131.469 217.35 131.469 216.768 131.469 216.187C131.039 215.934 130.61 215.69 130.161 215.427V213.683C130.6 213.936 131.03 214.18 131.469 214.433C131.469 213.926 131.469 213.42 131.469 212.923C131.469 212.726 131.423 212.623 131.273 212.548C130.909 212.351 130.544 212.126 130.161 211.91C130.161 211.347 130.161 210.822 130.161 210.297C130.161 210.25 130.283 210.24 130.339 210.278C131.058 210.681 131.778 211.103 132.488 211.516C132.675 211.622 132.768 211.557 132.768 211.319C132.768 210.934 132.768 210.54 132.768 210.165C132.768 209.987 132.722 209.893 132.591 209.828C132.273 209.649 131.946 209.452 131.628 209.274C131.497 209.199 131.451 209.115 131.451 208.937C131.451 208.505 131.451 208.064 131.451 207.623C131.451 207.558 131.395 207.398 131.357 207.38C130.965 207.136 130.563 206.911 130.142 206.667V210.165C129.722 209.921 129.329 209.696 128.928 209.452C128.89 209.424 128.825 209.255 128.825 209.18C128.815 208.749 128.815 208.317 128.825 207.895C128.825 207.698 128.778 207.614 128.638 207.539C128.329 207.37 128.021 207.201 127.713 207.004C127.545 206.901 127.507 206.967 127.507 207.173C127.507 207.586 127.507 207.999 127.507 208.411C127.507 208.589 127.46 208.627 127.33 208.543C127.031 208.355 126.722 208.177 126.423 208.017C126.246 207.924 126.19 207.82 126.19 207.586C126.199 206.62 126.19 205.644 126.19 204.678C126.19 204.444 126.133 204.341 125.965 204.247C124.797 203.581 123.629 202.905 122.47 202.221C122.283 202.118 122.246 202.174 122.246 202.399C122.246 203.365 122.246 204.322 122.246 205.288C122.246 205.569 122.181 205.579 121.994 205.466C121.704 205.278 121.405 205.128 121.106 204.95C120.966 204.856 120.919 204.913 120.919 205.1C120.919 206.113 120.919 207.126 120.919 208.139C120.919 208.317 120.956 208.402 121.097 208.477C121.47 208.683 121.835 208.899 122.218 209.124V210.878C121.91 210.7 121.601 210.522 121.302 210.343C121.047 210.2 120.919 210.293 120.919 210.625C120.919 213.373 120.919 216.131 120.919 218.879C120.527 218.654 120.143 218.429 119.751 218.213C119.639 218.147 119.611 218.063 119.611 217.931C119.611 217.5 119.611 217.05 119.611 216.618C119.611 216.45 119.583 216.356 119.443 216.281C119.125 216.112 118.798 215.924 118.48 215.727C118.349 215.643 118.302 215.671 118.302 215.859C118.302 216.29 118.302 216.712 118.302 217.153C118.302 217.331 118.265 217.378 118.134 217.294C117.817 217.097 117.489 216.928 117.172 216.731C117.041 216.656 116.985 216.656 116.985 216.853C116.985 217.359 116.985 217.866 116.985 218.4C117.34 218.607 117.686 218.804 118.022 219.001C118.209 219.107 118.302 219.279 118.302 219.517C118.302 219.901 118.302 220.286 118.302 220.68C118.302 220.867 118.256 220.895 118.125 220.811C117.751 220.577 117.377 220.38 117.004 220.154V221.908C117.349 222.105 117.686 222.302 118.031 222.499C118.212 222.606 118.302 222.781 118.302 223.025C118.302 223.381 118.302 223.728 118.302 224.084C118.302 224.303 118.218 224.366 118.05 224.272C117.695 224.066 117.359 223.859 116.994 223.672V225.426C116.564 225.182 116.144 224.929 115.686 224.666C115.686 225.116 115.686 225.538 115.686 225.96C115.686 226.476 115.742 226.439 115.35 226.214C115.032 226.035 114.714 225.848 114.368 225.641V234.393C113.929 234.139 113.509 233.895 113.06 233.633C113.06 233.117 113.06 232.61 113.06 232.104C113.06 231.954 113.013 231.869 112.901 231.804C112.583 231.626 112.256 231.429 111.939 231.25C111.798 231.175 111.742 231.091 111.752 230.894C111.752 230.481 111.761 230.059 111.752 229.637C111.752 229.421 111.808 229.412 111.957 229.496C112.275 229.693 112.583 229.862 112.901 230.05C113.032 230.125 113.069 230.087 113.069 229.928C113.069 228.906 113.069 227.883 113.069 226.861C113.069 226.739 113.069 226.636 112.939 226.57C112.135 226.11 111.322 225.641 110.518 225.173C110.509 225.173 110.49 225.173 110.472 225.173V232.141C111.331 232.639 112.182 233.136 113.06 233.642C113.088 234.139 113.069 234.571 113.079 235.049L113.051 234.983ZM128.797 212.895C128.778 213.401 128.787 213.889 128.797 214.405C128.797 214.583 128.75 214.621 128.619 214.536C128.301 214.339 127.974 214.152 127.657 213.983C127.535 213.917 127.488 213.833 127.488 213.664C127.488 212.051 127.488 210.437 127.488 208.824C127.488 208.674 127.526 208.627 127.647 208.702C127.984 208.899 128.311 209.096 128.647 209.284C128.769 209.349 128.806 209.443 128.797 209.584C128.797 210.081 128.815 210.606 128.825 211.113C129.264 211.375 129.675 211.647 130.114 211.891C130.114 212.51 130.114 213.092 130.114 213.664C129.684 213.411 129.245 213.167 128.806 212.904L128.797 212.895ZM127.479 217.125C127.488 216.712 127.479 216.29 127.479 215.868C127.479 215.699 127.516 215.643 127.657 215.727C127.984 215.924 128.311 216.112 128.638 216.29C128.769 216.365 128.797 216.45 128.797 216.609C128.797 217.05 128.797 217.5 128.797 217.941C128.797 218.007 128.769 218.063 128.759 218.128C128.404 217.922 128.049 217.697 127.694 217.5C127.554 217.416 127.488 217.331 127.488 217.125H127.479ZM118.312 226.289C118.312 226.758 118.312 227.227 118.312 227.696C118.312 227.752 118.256 227.818 118.228 227.799C117.826 227.574 117.424 227.339 117.013 227.105V225.369C117.405 225.595 117.789 225.82 118.181 226.035C118.274 226.092 118.321 226.148 118.321 226.289H118.312ZM120.938 220.661C120.938 221.149 120.928 221.627 120.938 222.115C120.938 222.284 120.91 222.349 120.77 222.265C120.442 222.068 120.115 221.88 119.788 221.693C119.676 221.627 119.629 221.552 119.629 221.393C119.629 220.952 119.629 220.501 119.629 220.051C119.629 219.892 119.676 219.873 119.788 219.939C120.125 220.145 120.47 220.333 120.807 220.53C120.854 220.558 120.9 220.614 120.947 220.652L120.938 220.661ZM120.938 225.651C120.938 225.81 120.9 225.838 120.779 225.773C120.442 225.576 120.115 225.379 119.779 225.191C119.676 225.135 119.62 225.069 119.629 224.91C119.629 224.46 119.629 224 119.629 223.55C119.629 223.409 119.667 223.372 119.779 223.437C119.947 223.54 120.115 223.634 120.284 223.728C120.452 223.822 120.62 223.925 120.788 224.019C120.9 224.075 120.956 224.16 120.947 224.319C120.947 224.76 120.947 225.21 120.947 225.66L120.938 225.651ZM122.246 212.82C122.246 212.641 122.283 212.604 122.424 212.688C122.797 212.913 123.171 213.129 123.545 213.345C123.545 213.87 123.545 214.405 123.554 214.93C123.554 215.071 123.508 215.071 123.414 215.024C123.078 214.827 122.741 214.63 122.396 214.433C122.274 214.367 122.237 214.283 122.246 214.133C122.246 213.701 122.246 213.26 122.246 212.82ZM124.881 214.414C124.881 214.189 124.844 214.077 124.657 213.973C124.283 213.776 123.919 213.542 123.545 213.326V211.582C124.414 212.079 125.236 212.566 126.059 213.035C126.19 213.11 126.18 213.223 126.18 213.336C126.18 214.349 126.18 215.362 126.18 216.374C126.18 216.553 126.143 216.59 126.003 216.515C125.685 216.318 125.358 216.131 125.04 215.962C124.9 215.887 124.863 215.793 124.863 215.615C124.863 215.211 124.863 214.808 124.863 214.405L124.881 214.414ZM126.19 211.131C126.19 211.319 126.133 211.338 126.003 211.253C125.685 211.056 125.358 210.869 125.04 210.7C124.919 210.634 124.863 210.54 124.872 210.381C124.872 209.884 124.853 209.368 124.844 208.861C124.031 208.336 123.227 207.886 122.414 207.408C122.358 207.37 122.246 207.229 122.246 207.192C122.237 206.657 122.246 206.132 122.246 205.569C122.685 205.823 123.106 206.066 123.554 206.329C123.554 205.813 123.564 205.354 123.554 204.838C123.554 204.622 123.61 204.603 123.751 204.688C124.068 204.875 124.377 205.063 124.694 205.232C124.835 205.307 124.891 205.41 124.881 205.597C124.881 205.954 124.881 206.32 124.881 206.676C124.881 207.145 124.844 207.07 125.18 207.267C125.451 207.426 125.732 207.595 126.003 207.745C126.133 207.82 126.18 207.905 126.18 208.083C126.18 209.096 126.18 210.118 126.18 211.141L126.19 211.131ZM128.787 233.924C128.376 233.689 127.984 233.464 127.591 233.22C127.554 233.201 127.498 233.07 127.498 233.023C127.498 232.545 127.498 232.057 127.498 231.588C127.498 231.532 127.554 231.466 127.582 231.485C127.984 231.71 128.376 231.945 128.787 232.17V233.914V233.924ZM127.488 245.676C127.488 245.526 127.516 245.47 127.638 245.545C127.974 245.751 128.32 245.929 128.657 246.145C128.703 246.173 128.787 246.323 128.787 246.398C128.806 246.633 128.787 246.867 128.787 247.092C128.787 247.318 128.787 247.533 128.787 247.758C128.787 247.918 128.741 247.946 128.629 247.871C128.301 247.674 127.974 247.486 127.647 247.299C127.526 247.233 127.47 247.149 127.479 246.98C127.479 246.548 127.479 246.108 127.479 245.667L127.488 245.676ZM127.451 240.18C127.759 240.358 128.077 240.527 128.386 240.705C128.797 240.939 128.797 240.939 128.797 241.502V242.693C128.376 242.45 127.984 242.234 127.601 241.99C127.563 241.971 127.498 241.793 127.498 241.727C127.47 241.212 127.545 240.733 127.451 240.189V240.18ZM126.18 239.11C126.18 237.084 126.18 235.049 126.18 233.014C126.18 232.614 126.33 232.501 126.629 232.676C126.909 232.836 127.189 233.004 127.488 233.173C127.488 234.214 127.488 235.227 127.488 236.278C127.488 236.728 127.46 236.662 127.787 236.859C128.115 237.056 128.451 237.244 128.797 237.441C128.797 238.004 128.797 238.529 128.797 239.045C128.797 239.092 128.694 239.129 128.638 239.092C128.311 238.914 127.984 238.726 127.657 238.529C127.526 238.454 127.488 238.491 127.488 238.66C127.488 239.176 127.516 239.72 127.451 240.189C127.105 239.983 126.76 239.767 126.414 239.579C126.227 239.476 126.18 239.364 126.18 239.12V239.11ZM123.545 242.909C123.545 241.831 123.545 240.743 123.545 239.654C124.358 240.123 125.171 240.602 125.975 241.061C126.124 241.146 126.18 241.24 126.171 241.437C126.105 243.322 126.498 243.078 125.021 242.281C124.9 242.206 124.853 242.234 124.853 242.403C124.816 244.344 125.162 244.035 123.722 243.284C123.573 243.2 123.526 243.106 123.526 242.9L123.545 242.909ZM122.237 235.565C122.237 235.424 122.293 235.424 122.377 235.481C122.713 235.678 123.059 235.875 123.395 236.072C123.498 236.128 123.545 236.203 123.545 236.353C123.545 237.45 123.545 238.557 123.545 239.654C123.115 239.401 122.685 239.157 122.246 238.904C122.246 237.769 122.246 236.672 122.246 235.574L122.237 235.565ZM122.237 230.134C121.424 229.665 120.639 229.196 119.826 228.746C119.648 228.652 119.611 228.549 119.611 228.333C119.62 227.939 119.62 227.536 119.611 227.123C119.611 226.908 119.657 226.889 119.807 226.983C120.62 227.461 121.414 227.921 122.237 228.39C122.237 226.748 122.237 225.116 122.237 223.475C122.237 223.237 122.327 223.172 122.508 223.278C122.844 223.475 123.18 223.672 123.526 223.869V222.143C122.704 221.608 121.882 221.186 121.059 220.689C121.022 220.67 120.975 220.67 120.938 220.661C120.938 220.051 120.938 219.451 120.928 218.841C121.358 219.095 121.788 219.338 122.237 219.601C122.237 218.504 122.237 217.444 122.237 216.346C122.237 216.159 122.274 216.112 122.424 216.196C122.713 216.374 123.003 216.534 123.293 216.703C123.467 216.803 123.554 216.969 123.554 217.2C123.554 217.659 123.554 218.119 123.554 218.616C124.442 219.132 125.302 219.629 126.19 220.145C126.19 220.661 126.19 221.13 126.19 221.618C126.19 221.833 126.143 221.88 125.984 221.777C125.629 221.552 125.264 221.355 124.9 221.139C124.853 223.372 124.9 225.66 124.881 227.911C124.881 228.108 124.937 228.193 125.068 228.268C125.386 228.437 125.694 228.634 126.012 228.812C126.143 228.887 126.19 228.981 126.19 229.159C126.19 229.572 126.19 229.994 126.19 230.425C126.19 230.641 126.143 230.669 125.984 230.575C125.171 230.106 124.367 229.609 123.564 229.187C123.564 229.722 123.564 230.228 123.564 230.735C123.564 230.885 123.62 230.95 123.713 231.007C124.05 231.194 124.377 231.4 124.713 231.579C124.835 231.644 124.891 231.719 124.891 231.898C124.891 232.329 124.891 232.77 124.891 233.211C124.891 233.398 124.835 233.417 124.704 233.342C124.386 233.145 124.059 232.976 123.741 232.779C123.592 232.685 123.554 232.732 123.554 232.929C123.554 233.351 123.554 233.764 123.554 234.196C123.554 234.402 123.508 234.411 123.367 234.327C123.05 234.13 122.741 233.952 122.424 233.783C122.274 233.708 122.237 233.614 122.237 233.426C122.237 232.338 122.237 231.26 122.237 230.172V230.134ZM116.994 229.131C116.994 228.906 117.041 228.868 117.209 228.962C118.377 229.647 119.545 230.322 120.713 230.988C120.872 231.082 120.938 231.166 120.938 231.401C120.938 232.967 120.938 234.533 120.938 236.109C120.938 236.325 120.891 236.353 120.732 236.259C119.489 235.527 118.256 234.824 117.013 234.092C117.013 232.432 117.013 230.781 117.013 229.121L116.994 229.131ZM131.423 214.405C131.423 214.405 131.423 214.405 131.423 214.395V214.405ZM137.964 239.251C137.964 239.758 137.964 240.264 137.964 240.761C137.964 240.939 138.001 241.024 138.142 241.099C138.469 241.277 138.796 241.465 139.123 241.671C139.263 241.756 139.3 241.699 139.291 241.53C139.291 241.024 139.282 240.527 139.291 240.039C139.721 240.292 140.132 240.527 140.571 240.78C140.599 241.296 140.581 241.802 140.581 242.309C140.581 242.459 140.618 242.543 140.73 242.618C141.066 242.806 141.394 242.994 141.73 243.2C141.851 243.275 141.889 243.228 141.889 243.078C141.889 242.637 141.889 242.206 141.889 241.765C141.889 241.587 141.926 241.549 142.066 241.634C142.431 241.859 142.795 242.056 143.178 242.281V240.527C142.758 240.283 142.337 240.039 141.898 239.786C141.898 239.214 141.898 238.679 141.898 238.144C141.898 238.097 141.992 238.088 142.048 238.116C142.431 238.323 142.795 238.548 143.178 238.763C143.216 237.704 143.178 236.616 143.197 235.546C143.197 235.34 143.15 235.237 142.992 235.152C142.683 234.993 142.375 234.796 142.066 234.627C141.945 234.561 141.879 234.477 141.879 234.289C141.879 233.858 141.879 233.417 141.879 232.976C141.879 232.817 141.926 232.789 142.038 232.854C142.356 233.042 142.683 233.22 143.001 233.417C143.141 233.502 143.197 233.492 143.197 233.286C143.178 232.761 143.216 232.282 143.178 231.738C142.319 231.241 141.468 230.744 140.59 230.237C140.553 229.149 140.581 228.099 140.581 227.03C140.581 226.805 140.543 226.683 140.356 226.589C140.001 226.401 139.655 226.185 139.272 225.96V227.105C139.272 227.511 139.123 227.627 138.824 227.452C138.543 227.292 138.263 227.123 137.955 226.945C137.955 226.401 137.955 225.913 137.955 225.388C137.955 225.248 137.917 225.172 137.814 225.107C137.478 224.919 137.132 224.713 136.796 224.516C136.702 224.46 136.646 224.46 136.646 224.6C136.646 225.698 136.646 226.795 136.646 227.921C137.889 228.69 139.132 229.375 140.384 230.097C140.543 230.191 140.599 230.275 140.59 230.491C140.581 230.885 140.581 231.288 140.59 231.701C140.59 231.926 140.543 231.973 140.375 231.869C139.562 231.391 138.768 230.932 137.955 230.463C137.955 231.56 137.955 232.62 137.955 233.717C137.955 233.905 137.908 233.952 137.768 233.858C137.45 233.661 137.123 233.492 136.805 233.295C136.684 233.22 136.637 233.258 136.637 233.426C136.637 233.924 136.637 234.421 136.637 234.937C135.759 234.496 134.89 233.886 134.02 233.464C134.02 233.952 134.02 234.449 134.02 234.937C134.02 235.152 134.077 235.237 134.235 235.321C135.039 235.781 135.843 236.25 136.646 236.709C136.646 236.203 136.646 235.696 136.646 235.18C136.646 235.002 136.684 234.955 136.815 235.04C137.572 235.49 138.338 235.931 139.095 236.362C139.226 236.437 139.272 236.531 139.272 236.709C139.272 237.722 139.272 238.745 139.272 239.767C139.272 239.955 139.226 239.973 139.095 239.889C138.712 239.664 138.328 239.448 137.945 239.232L137.964 239.251ZM140.599 239.176C140.599 239.129 140.674 239.073 140.711 239.101C141.095 239.307 141.478 239.542 141.898 239.786C141.898 240.339 141.898 240.864 141.898 241.38C141.898 241.427 141.833 241.484 141.805 241.465C141.412 241.249 141.01 241.015 140.599 240.771C140.599 240.217 140.599 239.692 140.599 239.176ZM139.282 234.505C139.282 234.083 139.282 233.652 139.282 233.22C139.282 233.033 139.338 233.014 139.459 233.089C140.207 233.53 140.954 233.961 141.702 234.393C141.861 234.486 141.898 234.59 141.889 234.777C141.889 235.265 141.889 235.753 141.889 236.24C141.889 236.756 141.889 237.263 141.889 237.788C141.889 237.947 141.851 237.994 141.721 237.919C141.394 237.722 141.066 237.535 140.739 237.347C140.618 237.281 140.571 237.188 140.571 237.019C140.571 236.662 140.571 236.297 140.571 235.94C140.571 235.434 140.609 235.518 140.225 235.293C139.964 235.134 139.702 234.983 139.44 234.843C139.31 234.768 139.254 234.683 139.263 234.505H139.282ZM119.611 212.473C119.611 208.599 119.611 204.734 119.611 200.861C119.611 200.523 119.611 200.523 119.358 200.382C116.471 198.713 113.593 197.043 110.705 195.364C110.524 195.258 110.434 195.327 110.434 195.571C110.434 199.548 110.434 203.515 110.434 207.492C113.415 209.218 116.387 210.944 119.358 212.66C119.527 212.754 119.611 212.691 119.611 212.473ZM118.302 201.827C118.302 204.547 118.302 207.276 118.302 210.006C118.302 210.25 118.246 210.268 118.069 210.175C116.041 208.993 114.004 207.811 111.976 206.639C111.798 206.535 111.733 206.432 111.733 206.188C111.733 204.838 111.733 203.478 111.733 202.127C111.733 200.776 111.733 199.416 111.733 198.056C111.733 197.803 111.77 197.737 111.976 197.859C114.004 199.05 116.041 200.223 118.069 201.395C118.246 201.499 118.302 201.592 118.293 201.836L118.302 201.827ZM143.216 226.176C143.197 222.18 143.234 218.213 143.197 214.208C140.225 212.444 137.254 210.766 134.282 209.03C134.114 208.937 134.03 208.999 134.03 209.218C134.03 213.092 134.03 216.956 134.03 220.83C134.03 221.055 134.114 221.214 134.282 221.308C137.179 222.987 140.076 224.666 142.973 226.354C143.16 226.457 143.206 226.42 143.206 226.176H143.216ZM141.908 223.709C141.908 223.925 141.851 223.944 141.693 223.859C139.646 222.668 137.6 221.486 135.562 220.305C135.394 220.211 135.338 220.117 135.347 219.892C135.347 218.541 135.347 217.181 135.347 215.83C135.347 214.452 135.347 213.073 135.347 211.685C135.347 211.478 135.385 211.413 135.553 211.516C137.6 212.707 139.655 213.898 141.702 215.08C141.861 215.174 141.917 215.268 141.917 215.483C141.917 218.222 141.917 220.97 141.917 223.719L141.908 223.709ZM134.03 240.78C134.03 244.776 134.03 248.762 134.03 252.748C137.011 254.474 139.992 256.2 142.973 257.935C143.16 258.048 143.206 258.01 143.206 257.757C143.188 253.752 143.225 249.784 143.188 245.779C140.207 244.053 137.235 242.328 134.254 240.602C134.067 240.489 134.02 240.536 134.02 240.78H134.03ZM135.338 251.473C135.338 248.743 135.338 246.004 135.338 243.266C135.338 243.041 135.385 242.994 135.553 243.097C136.562 243.697 137.581 244.279 138.59 244.86C139.618 245.451 140.637 246.051 141.665 246.633C141.851 246.736 141.898 246.849 141.898 247.092C141.898 249.813 141.898 252.523 141.898 255.253C141.898 255.487 141.851 255.534 141.674 255.431C139.637 254.24 137.6 253.058 135.562 251.885C135.404 251.792 135.338 251.707 135.338 251.473ZM110.425 214.217C110.425 214.461 110.49 214.555 110.658 214.649C110.957 214.808 111.256 214.996 111.565 215.165C111.696 215.24 111.742 215.324 111.742 215.502C111.742 215.915 111.742 216.337 111.742 216.759C111.742 216.947 111.696 216.994 111.556 216.909C111.238 216.712 110.911 216.543 110.593 216.346C110.481 216.281 110.434 216.29 110.434 216.45C110.453 218.157 110.397 219.817 110.462 221.533C110.808 221.73 111.154 221.937 111.499 222.134C111.668 222.234 111.752 222.393 111.752 222.612C111.752 223.015 111.752 223.419 111.752 223.822C111.752 223.972 111.789 224.056 111.911 224.122C112.247 224.31 112.574 224.497 112.911 224.704C113.032 224.779 113.069 224.722 113.06 224.582C113.06 224.178 113.06 223.784 113.06 223.372C113.06 223.118 113.097 223.043 113.303 223.175C113.649 223.4 113.995 223.578 114.368 223.803C114.368 223.203 114.368 222.668 114.396 222.096C114.826 222.312 115.247 222.537 115.677 222.799C115.714 221.73 115.677 220.642 115.695 219.564C115.695 219.357 115.649 219.263 115.499 219.188C115.191 219.02 114.882 218.841 114.574 218.654C114.415 218.551 114.368 218.597 114.368 218.813C114.368 219.892 114.368 220.952 114.368 222.03C113.574 221.608 112.789 221.111 111.995 220.67C111.789 220.558 111.742 220.436 111.752 220.192C111.77 219.817 111.761 219.423 111.752 219.038C111.752 218.832 111.808 218.804 111.957 218.888C112.266 219.076 112.574 219.245 112.882 219.432C113.023 219.517 113.069 219.479 113.069 219.292C113.069 218.316 113.069 217.35 113.069 216.384C113.069 216.153 113.153 216.087 113.322 216.187C113.621 216.365 113.92 216.543 114.228 216.703C114.284 216.731 114.378 216.703 114.378 216.665C114.387 216.131 114.378 215.596 114.378 215.024C113.555 214.555 112.77 214.086 111.957 213.626C111.817 213.551 111.761 213.467 111.77 213.27C111.77 212.857 111.77 212.435 111.77 212.013C111.77 211.825 111.808 211.779 111.957 211.863C112.275 212.06 112.602 212.229 112.92 212.426C113.041 212.501 113.088 212.473 113.088 212.304C113.088 211.863 113.088 211.422 113.088 210.991C113.088 210.831 113.051 210.737 112.92 210.662C112.593 210.484 112.266 210.297 111.939 210.09C111.808 210.015 111.77 210.053 111.77 210.222C111.77 210.719 111.77 211.216 111.77 211.741C111.331 211.488 110.911 211.244 110.472 210.991C110.434 212.06 110.472 213.148 110.453 214.217H110.425ZM134.03 233.464C134.03 232.958 134.03 232.442 134.03 231.926C134.03 231.748 134.067 231.701 134.207 231.785C134.525 231.982 134.852 232.151 135.17 232.348C135.301 232.432 135.347 232.395 135.347 232.207C135.347 231.776 135.347 231.344 135.347 230.922C135.347 230.744 135.301 230.66 135.17 230.584C134.413 230.153 133.656 229.712 132.899 229.271C132.759 229.187 132.722 229.234 132.722 229.412C132.722 229.843 132.722 230.266 132.722 230.697C132.722 230.866 132.684 230.903 132.553 230.828C132.217 230.631 131.89 230.434 131.553 230.247C131.451 230.191 131.404 230.125 131.404 229.975C131.404 228.924 131.404 227.864 131.404 226.814C131.404 226.786 131.413 226.758 131.423 226.729C131.404 226.701 131.376 226.664 131.357 226.645C130.946 226.401 130.526 226.167 130.105 225.913V229.403C130.413 229.581 130.722 229.759 131.03 229.937C131.279 230.081 131.404 230.322 131.404 230.66C131.404 231.082 131.404 231.513 131.404 231.935C132.273 232.423 133.142 232.911 134.011 233.445L134.03 233.464ZM111.742 236.616C111.733 237.019 111.742 237.432 111.742 237.854C111.742 238.032 111.696 238.069 111.565 237.985C111.247 237.788 110.92 237.619 110.602 237.422C110.481 237.347 110.425 237.366 110.434 237.544C110.434 237.994 110.434 238.435 110.434 238.885C110.434 239.045 110.481 239.12 110.593 239.176C110.976 239.392 111.359 239.617 111.742 239.842C112.116 240.058 112.49 240.264 112.854 240.489C112.995 240.574 113.051 240.564 113.051 240.358C113.051 239.345 113.051 238.332 113.051 237.319C113.051 237.131 112.995 237.056 112.873 236.981C112.555 236.813 112.247 236.616 111.929 236.437C111.789 236.362 111.733 236.268 111.742 236.081C111.742 235.659 111.742 235.227 111.742 234.796C111.742 234.655 111.724 234.561 111.593 234.486C111.256 234.299 110.911 234.102 110.574 233.895C110.462 233.83 110.425 233.858 110.425 234.008C110.425 234.458 110.425 234.899 110.425 235.349C110.425 235.518 110.462 235.603 110.593 235.668C110.911 235.846 111.219 236.043 111.537 236.203C111.696 236.287 111.742 236.4 111.742 236.606V236.616ZM131.413 226.542C131.413 226.608 131.432 226.683 131.432 226.758C131.787 226.851 132.161 227.142 132.525 227.339C132.656 227.424 132.722 227.414 132.722 227.208C132.722 226.185 132.722 225.163 132.722 224.141C132.722 224.019 132.722 223.916 132.591 223.85C132.208 223.634 131.824 223.409 131.432 223.175C131.423 223.24 131.404 223.287 131.404 223.343C131.404 224.403 131.404 225.473 131.404 226.533L131.413 226.542ZM130.105 238.21C130.105 238.21 130.105 238.21 130.105 238.219C130.105 238.219 130.105 238.219 130.105 238.21ZM130.105 236.672C130.105 237.188 130.105 237.694 130.105 238.21C130.918 238.679 131.722 239.148 132.535 239.626C132.675 239.711 132.731 239.692 132.722 239.495C132.712 238.989 132.722 238.491 132.722 237.985C131.909 237.507 131.086 237.038 130.273 236.559C130.152 236.484 130.105 236.503 130.105 236.681V236.672ZM134.039 226.617C134.039 227.086 134.039 227.555 134.039 228.033C134.039 228.099 134.123 228.24 134.17 228.277C134.338 228.39 134.506 228.474 134.665 228.577C134.833 228.68 135.011 228.774 135.179 228.877C135.282 228.934 135.338 228.934 135.329 228.784C135.329 228.315 135.329 227.836 135.329 227.367C135.329 227.236 135.282 227.161 135.189 227.114C134.843 226.917 134.497 226.72 134.151 226.514C134.049 226.457 134.02 226.495 134.02 226.617H134.039ZM141.917 227.677C141.908 228.136 141.917 228.615 141.917 229.084C141.917 229.14 141.982 229.271 142.02 229.299C142.412 229.534 142.795 229.759 143.216 230.003C143.216 229.44 143.216 228.924 143.216 228.399C143.216 228.343 143.132 228.202 143.085 228.174C142.739 227.958 142.393 227.761 142.048 227.574C142.001 227.546 141.917 227.611 141.917 227.677ZM131.432 231.982C131.432 231.982 131.432 231.982 131.432 231.973C131.432 231.973 131.432 231.973 131.432 231.982ZM131.423 219.667C130.993 219.413 130.554 219.16 130.124 218.916C130.124 219.432 130.124 219.957 130.124 220.464C130.124 220.614 130.161 220.68 130.273 220.745C130.61 220.933 130.946 221.13 131.292 221.336C131.413 221.411 131.441 221.355 131.441 221.205C131.441 220.689 131.441 220.183 131.441 219.676L131.423 219.667ZM134.039 223.118C134.039 223.353 134.039 223.578 134.039 223.812C134.039 224.047 134.039 224.272 134.039 224.507C134.039 224.638 134.077 224.713 134.179 224.769C134.525 224.966 134.871 225.163 135.217 225.369C135.31 225.426 135.357 225.416 135.357 225.276C135.357 224.816 135.357 224.347 135.357 223.887C135.357 223.747 135.319 223.662 135.207 223.606C134.871 223.419 134.534 223.222 134.189 223.015C134.086 222.95 134.039 222.978 134.039 223.118ZM136.656 238.491C136.656 238.491 136.656 238.491 136.656 238.482V238.491ZM137.973 239.251C137.973 239.251 137.973 239.251 137.973 239.261V239.251ZM136.665 236.737C136.665 237.319 136.665 237.901 136.665 238.482L137.964 239.232V237.488C137.515 237.225 137.086 236.981 136.665 236.737ZM131.432 216.14C131.432 216.14 131.432 216.14 131.432 216.149C131.432 216.149 131.432 216.149 131.432 216.14ZM131.432 214.395C131.432 214.977 131.432 215.558 131.432 216.14C131.806 216.356 132.18 216.571 132.553 216.787C132.675 216.862 132.74 216.862 132.74 216.665C132.74 216.215 132.74 215.774 132.74 215.333C132.74 215.193 132.703 215.118 132.6 215.052C132.217 214.836 131.824 214.611 131.441 214.386L131.432 214.395ZM131.432 219.639C131.432 219.639 131.432 219.639 131.432 219.648C131.432 219.648 131.432 219.648 131.432 219.639ZM131.432 217.894C131.432 218.476 131.432 219.057 131.432 219.639C131.806 219.854 132.189 220.07 132.563 220.295C132.694 220.37 132.74 220.351 132.74 220.164C132.74 219.732 132.74 219.301 132.74 218.879C132.74 218.701 132.694 218.616 132.563 218.541C132.189 218.335 131.806 218.11 131.432 217.894ZM115.695 212.435C115.695 212.951 115.695 213.467 115.695 214.02C116.116 214.264 116.508 214.499 116.91 214.714C116.947 214.733 117.004 214.658 117.004 214.602C117.004 214.142 117.004 213.673 117.004 213.214C117.004 213.064 116.957 212.998 116.854 212.932C116.518 212.745 116.172 212.538 115.835 212.341C115.742 212.285 115.686 212.285 115.695 212.426V212.435ZM132.572 243.106C132.198 242.881 131.824 242.665 131.441 242.44V244.204C131.843 244.438 132.236 244.673 132.637 244.888C132.675 244.907 132.731 244.851 132.731 244.804C132.731 244.326 132.731 243.847 132.731 243.369C132.731 243.2 132.647 243.162 132.563 243.106H132.572ZM118.321 231.513C118.312 231.982 118.312 232.451 118.321 232.929C118.321 232.986 118.396 233.136 118.443 233.164C118.798 233.38 119.144 233.586 119.499 233.774C119.545 233.792 119.62 233.736 119.62 233.68C119.629 233.211 119.62 232.742 119.62 232.273C119.62 232.132 119.564 232.066 119.48 232.02C119.302 231.926 119.134 231.823 118.957 231.719C118.779 231.616 118.611 231.504 118.443 231.429C118.396 231.41 118.321 231.457 118.321 231.513ZM132.74 236.203C132.74 236.784 132.74 237.366 132.74 237.947C133.992 238.679 135.245 239.401 136.497 240.133C136.618 240.199 136.674 240.189 136.665 240.02C136.665 239.504 136.665 238.998 136.665 238.482L132.75 236.203C132.75 235.696 132.75 235.19 132.75 234.693C132.75 234.505 132.712 234.411 132.563 234.336C132.189 234.13 131.815 233.905 131.441 233.689C131.441 233.108 131.441 232.526 131.441 231.945C131.021 231.701 130.591 231.457 130.142 231.194V232.929C130.572 233.183 131.011 233.436 131.441 233.689C131.441 234.186 131.441 234.683 131.441 235.162C131.441 235.377 131.497 235.462 131.647 235.546C132.011 235.753 132.385 235.978 132.75 236.193L132.74 236.203ZM117.013 207.483C117.013 205.823 117.013 204.181 117.013 202.521C115.779 201.752 114.546 201.095 113.312 200.345C113.125 200.242 113.069 200.27 113.069 200.523C113.088 202.193 113.051 203.815 113.088 205.494C114.322 206.207 115.555 206.92 116.789 207.642C116.966 207.745 117.013 207.717 117.013 207.473V207.483ZM140.618 216.431C140.618 216.243 140.581 216.149 140.431 216.065C139.235 215.38 138.048 214.686 136.852 213.992C136.712 213.908 136.665 213.945 136.665 214.142C136.665 215.727 136.665 217.322 136.665 218.898C136.665 219.123 136.721 219.198 136.88 219.282C137.459 219.61 138.048 219.957 138.627 220.295C139.226 220.642 139.824 220.98 140.412 221.336C140.571 221.43 140.609 221.383 140.609 221.186C140.609 219.601 140.609 218.007 140.609 216.431H140.618ZM136.674 245.779C136.674 247.44 136.674 249.081 136.674 250.741C137.917 251.51 139.141 252.167 140.384 252.917C140.571 253.03 140.618 252.983 140.618 252.73C140.599 251.06 140.637 249.437 140.599 247.758C139.366 247.036 138.132 246.333 136.889 245.601C136.712 245.498 136.665 245.545 136.665 245.779H136.674Z" fill="#16292E"/>
<path d="M75.5316 292.79C75.6905 293.568 75.8867 294.3 76.083 295.004C76.5876 296.748 77.167 298.314 77.4473 299.374C77.7557 300.556 78.0267 302.676 78.2136 304.43C78.3911 306.024 78.4939 307.319 78.4939 307.319C78.4939 307.319 78.1108 307.872 79.9237 308.313C81.7272 308.754 82.372 307.469 82.9514 307.15C83.5308 306.831 83.157 304.983 83.157 304.983V299.496C83.157 298.005 83.157 296.026 83.8859 292.809C84.6148 289.601 84.9045 286.271 84.9325 284.836C84.9605 283.41 86.68 280.428 87.6986 276.019C88.7172 271.611 88.5396 252.392 88.5396 252.392L79.662 246.371C79.662 246.371 77.8585 247.89 77.1576 249.588C76.4568 251.276 75.8493 255.225 75.6718 259.024C75.4942 262.822 78.1482 275.119 77.8304 277.623C77.5127 280.137 75.5877 285.333 75.2419 288.954C75.1204 290.173 75.27 291.496 75.541 292.799L75.5316 292.79Z" fill="#FF622C"/>
<path d="M82.9983 226.983C82.9983 226.983 86.3625 221.778 84.1291 220.906C81.8956 220.033 79.1015 220.793 78.2885 222.95C77.4755 225.108 75.2421 229.244 74.7188 230.126C74.1955 230.998 70.9902 241.831 70.9902 241.831C70.9902 241.831 72.5602 244.242 74.4945 245.602C76.3074 246.877 77.5783 249.907 77.5783 249.907V252.984L79.8772 255.844L81.5218 257.139L82.9983 257.298C82.9983 257.298 83.7179 257.223 83.4188 256.96C83.1198 256.698 82.9423 256.726 82.9423 256.726L84.0076 256.595C84.0076 256.595 84.3253 256.154 83.5403 255.919C82.7554 255.694 82.0358 255.6 81.905 255.647C81.7742 255.694 80.7182 253.818 80.6247 253.359C80.5406 252.899 80.6341 251.811 80.6995 251.145C80.7649 250.479 80.251 249.447 80.251 249.447L80.8584 250.179C80.8584 250.179 81.4845 251.361 81.9424 251.483C82.3909 251.605 82.4844 251.924 82.8582 251.361C83.2319 250.798 82.7647 250.142 82.69 250.01C82.6245 249.879 81.905 249.147 81.905 249.147C81.905 249.147 81.4471 247.975 81.0733 247.534C80.6995 247.084 80.1482 246.69 80.008 246.502C79.8585 246.324 79.2978 244.195 78.7464 242.816C78.2044 241.437 76.2701 238.914 76.2701 238.914L79.4006 232.883L83.0077 226.965L82.9983 226.983Z" fill="#FFCBAD"/>
<path d="M88.5494 254.728C88.5494 260.009 88.4746 272.549 87.6896 276.001C86.6711 280.409 84.961 283.392 84.9329 284.818C84.9049 286.243 84.6152 289.573 83.877 292.79C83.1668 295.998 83.1668 297.996 83.1668 299.478V302.686C83.1668 302.686 83.1948 302.901 83.1668 303.192C83.092 303.68 82.7743 304.421 81.5875 304.787C81.5594 304.805 81.5314 304.805 81.494 304.815C79.5129 305.406 79.3728 305.321 78.9803 305.087C78.7653 304.965 78.4663 304.665 78.2233 304.402C77.9991 304.177 77.8309 303.98 77.8309 303.98C77.8309 303.98 77.2889 300.134 76.7562 297.771C76.5413 296.823 76.2983 295.838 76.0927 294.985C75.8311 293.888 75.6068 293.025 75.5507 292.809C75.2797 291.468 75.1302 290.145 75.2517 288.935C75.5974 285.315 77.5225 280.118 77.8402 277.605C78.1579 275.082 75.504 262.794 75.6909 258.986C75.8591 255.197 76.4759 251.248 77.1767 249.56C77.8776 247.872 79.6811 246.352 79.6811 246.352L88.5587 252.355C88.5587 252.355 88.5774 253.255 88.5774 254.709L88.5494 254.728Z" fill="#3B3C4A"/>
<path d="M88.5491 254.728C88.5491 260.009 88.4743 272.549 87.6894 276.001C86.6708 280.409 84.9607 283.392 84.9326 284.818C84.9046 286.243 84.6149 289.573 83.8767 292.79C83.1665 295.998 83.1665 297.996 83.1665 299.478V302.686C83.1665 302.686 83.1945 302.901 83.1665 303.192C83.0917 303.68 82.774 304.421 81.5872 304.787C80.3724 295.088 82.4843 286.121 83.3721 283.917C86.895 275.241 86.7829 269.595 86.9698 265.796C87.138 261.997 85.8765 259.146 86.568 257.458C87.0259 256.332 87.9604 255.3 88.5491 254.719V254.728Z" fill="#282936"/>
<path d="M83.148 304.862C83.148 304.862 83.6152 304.777 83.933 304.712C84.2507 304.655 85.1011 302.695 86.643 302.611C88.1849 302.526 89.6707 303.248 89.2595 304.627C88.8483 305.997 87.5307 307.572 86.3159 308.013C85.1011 308.454 84.4656 308.557 84.1572 308.998C83.8489 309.448 82.1014 312.684 80.1577 312.656C78.784 312.637 77.9616 311.643 77.5878 311.052C77.4383 310.818 77.3823 310.527 77.4383 310.255L78.0084 307.413C78.027 307.263 78.2139 307.207 78.3167 307.31C78.7653 307.769 79.7465 308.651 80.5688 308.651C81.6715 308.651 83.2695 307.244 83.2695 307.244L83.1947 306.025L83.1667 304.852L83.148 304.862Z" fill="#D6EAF7"/>
<path d="M83.148 303.98C83.148 303.98 83.6152 303.896 83.933 303.83C84.2507 303.774 85.1011 302.695 86.643 302.601C88.1849 302.517 89.353 303.098 88.9418 304.468C88.5306 305.837 87.5307 306.681 86.3159 307.122C85.1011 307.563 84.4656 307.666 84.1572 308.107C83.8489 308.557 82.1014 311.793 80.1577 311.765C78.784 311.746 77.9616 310.752 77.5878 310.161C77.4383 309.927 77.3823 309.636 77.4383 309.364L78.0084 306.522C78.027 306.372 78.2139 306.316 78.3167 306.419C78.7653 306.878 79.7465 307.76 80.5688 307.76C81.6715 307.76 83.2695 306.353 83.2695 306.353L83.1947 305.124L83.1667 303.961L83.148 303.98Z" fill="#FF622C"/>
<path d="M83.9328 262.485C84.8673 265.233 85.6803 264.473 86.3718 266.396C87.0634 268.319 88.0632 284.855 87.6614 286.9C87.2783 288.813 86.5868 291.092 86.4092 293.437C86.3905 293.606 86.3905 293.756 86.3812 293.906C86.3812 294 86.3812 294.094 86.3812 294.197C86.3812 294.675 86.4092 295.173 86.4746 295.698C86.7363 297.911 87.4932 300.434 87.9044 302.601C88.166 303.98 88.166 305.715 88.1006 307.131C88.0352 308.585 87.9044 309.683 87.9044 309.683C87.9044 309.683 88.6052 310.968 88.5585 310.968C88.5585 310.968 90.8293 310.902 92.1563 310.442C93.287 310.049 93.6421 308.351 93.4178 307.394C93.3711 307.216 92.773 306.39 92.745 306.287C92.5581 305.734 94.6607 299.074 95.455 295.914C95.5765 295.426 95.6699 295.041 95.7167 294.788C96.0624 292.856 96.8193 289.414 96.4175 287.425C96.0063 285.437 102.062 269.313 101.249 261.022C100.436 252.73 97.5202 249.579 97.5202 249.579H97.109L84.8206 249.851C84.8206 249.851 83.0264 259.737 83.9515 262.485H83.9328Z" fill="#FF622C"/>
<path d="M92.8948 307.085C92.8948 307.085 94.3339 307.366 95.3431 307.263C96.3524 307.16 97.371 306.85 98.3802 306.522C99.3894 306.194 101.352 306.278 101.978 307C102.613 307.723 101.24 311.052 99.3988 312.084C97.5672 313.116 94.5301 313.125 94.0722 313.36C93.6143 313.594 91.2781 315.254 89.3251 314.954C87.372 314.645 86.9141 313.791 86.8954 313.247C86.8767 312.703 86.8954 311.062 87.073 311.015C87.2505 310.968 87.615 308.876 87.8579 309.101C88.1009 309.326 89.026 312.262 92.3995 310.021C93.9414 308.998 92.8948 307.094 92.8948 307.094V307.085Z" fill="#D6EAF7"/>
<path d="M92.8948 306.381C92.8948 306.381 94.3339 306.663 95.3431 306.559C96.3524 306.456 97.371 306.147 98.3802 305.818C99.3894 305.49 101.352 305.574 101.978 306.297C102.613 307.019 101.24 310.349 99.3988 311.38C97.5672 312.412 94.5301 312.422 94.0722 312.656C93.6143 312.891 91.2781 314.551 89.3251 314.251C87.372 313.941 86.9141 313.087 86.8954 312.543C86.8767 311.999 86.8954 310.349 87.073 310.311C87.2505 310.264 87.615 308.173 87.8579 308.398C88.1009 308.623 89.026 311.559 92.3995 309.317C93.9414 308.295 92.8948 306.391 92.8948 306.391V306.381Z" fill="#FF622C"/>
<path d="M83.933 262.485C84.8675 265.233 85.6805 264.473 86.372 266.396C87.0635 268.319 88.0634 284.855 87.6616 286.9C87.2784 288.813 86.5869 291.092 86.4093 293.437C86.4 293.672 86.3907 293.822 86.3813 293.906C86.3813 293.981 86.3813 294.075 86.3813 294.197C86.3813 294.535 86.4187 295.06 86.4748 295.698C86.7925 299.393 87.8111 306.981 87.8111 306.981C87.8111 306.981 87.9139 307.038 88.1008 307.122C88.596 307.338 89.7174 307.713 91.2873 307.629C91.9415 307.591 92.4368 307.441 92.8106 307.244C93.6796 306.794 93.8945 306.118 93.8945 306.118L94.6515 300.144L95.4364 295.914C95.5579 295.426 95.6514 295.041 95.6981 294.788C96.0439 292.856 96.8008 289.414 96.399 287.425C95.9878 285.437 102.043 269.313 101.23 261.022C100.417 252.73 97.5017 249.579 97.5017 249.579H97.0905L84.802 249.851C84.802 249.851 83.0078 259.737 83.933 262.485Z" fill="#3B3C4A"/>
<path d="M98.5384 243.444C98.2487 244.72 97.959 246.596 97.959 247.703C97.959 248.81 99.6131 253.556 99.6131 253.556C99.6131 253.556 98.473 255.516 95.0341 256.323C93.8847 256.595 92.4736 256.745 90.7448 256.641C83.8951 256.219 77.5312 248.828 77.5312 248.828C77.5312 248.828 78.0732 247.478 79.2133 244.908C81.9887 238.642 78.391 233.924 78.391 230.951C78.391 227.978 79.3348 223.822 81.3626 222.134C83.4091 220.446 85.1192 221.431 85.1192 221.431C85.1192 221.431 85.7827 221.309 85.9696 220.033L86.1378 218.739L92.4736 220.727C92.4736 220.727 91.8942 224.226 93.0156 225.107C93.2119 225.258 93.5015 225.398 93.838 225.53C94.5949 225.83 95.5761 226.12 96.5199 226.58C97.5011 227.068 98.4263 227.724 98.9122 228.756C100.052 231.232 101.856 234.562 100.809 236.194C99.7626 237.836 99.0711 238.661 98.9496 240.058C98.8468 241.456 98.8468 242.159 98.5384 243.454V243.444Z" fill="#FF622C"/>
<path d="M98.5391 243.444C98.2494 244.72 97.9598 246.596 97.9598 247.703C97.9598 248.81 99.6138 253.556 99.6138 253.556C99.6138 253.556 98.4737 255.516 95.0348 256.323C93.306 254.831 92.6519 252.186 93.9321 249.672C95.2217 247.159 96.0814 244.823 96.1469 243.013C96.2029 241.203 93.1191 238.698 93.1191 235.716C93.1191 232.733 94.063 228.597 96.0908 226.899C96.2403 226.777 96.3805 226.674 96.53 226.58C97.5112 227.068 98.4363 227.724 98.9223 228.756C100.062 231.232 101.866 234.562 100.819 236.194C99.7727 237.836 99.0811 238.661 98.9597 240.058C98.8569 241.456 98.8569 242.159 98.5485 243.454L98.5391 243.444Z" fill="#FF4521"/>
<path d="M111.705 229.919C111.705 229.919 108.472 228.559 107.079 228.343C105.687 228.128 103.155 228.128 101.846 227.734C100.538 227.34 96.389 225.239 94.6882 226.289C92.9875 227.34 93.0716 232.142 93.9874 234.027C94.9032 235.913 99.6597 234.309 102.239 234.703C104.818 235.097 114.284 234.881 114.985 233.999C115.686 233.127 117.032 228.043 117.34 225.501C117.648 222.959 117.863 219.292 118.125 218.739C118.387 218.185 118.471 217.219 118.518 216.647C118.564 216.075 119.91 213.711 119.975 213.514C120.041 213.317 119.63 213.927 120.041 213.205C120.452 212.483 121.265 211.273 121.265 211.273L121.807 209.978V208.909C121.807 208.909 121.134 208.14 121.106 207.924C121.087 207.708 121.087 206.414 121.087 206.414C121.087 206.414 120.742 205.054 120.48 205.148C120.218 205.232 120.218 205.326 120.218 205.673C120.218 206.02 120.33 206.705 120.33 206.705L120.134 207.868L119.218 209.134L119.826 207.249L119.779 205.363C119.779 205.363 119.321 204.05 119.013 204.069C118.704 204.088 118.359 204.313 118.536 204.791C118.714 205.27 118.863 205.711 118.863 205.711L118.686 207.418L117.751 208.946L118.144 206.583L117.882 205.026C117.882 205.026 117.163 204.088 117.097 203.91C117.032 203.731 116.378 203.863 116.378 204.257C116.378 204.651 116.817 205.354 116.817 205.354V206.996C116.817 206.996 115.658 210.41 115.069 210.457C114.481 210.503 114.2 209.537 114.2 209.537V208.271C114.2 208.271 114.509 207.727 114.35 207.174C114.2 206.63 114.013 206.517 114.013 206.517C114.013 206.517 113.574 206.386 113.481 206.827C113.387 207.268 113.434 208.252 113.154 208.449C112.873 208.646 113.266 211.235 113.266 211.235C113.266 211.235 113.677 212.464 113.677 212.548C113.677 212.633 114.808 214.593 114.938 215.165C115.471 217.379 113.21 222.697 112.92 223.982C112.63 225.267 111.715 229.91 111.715 229.91L111.705 229.919Z" fill="#FFCBAD"/>
<path d="M84.2133 222.781C84.4282 223.485 85.4748 225.061 89.1847 225.586C92.8946 226.111 93.6796 225.586 93.6796 225.586L93.8384 225.539C93.502 225.398 93.2123 225.258 93.0161 225.098C91.9134 224.226 92.4834 220.718 92.4834 220.718L86.1477 218.729L85.9701 220.014C85.7925 221.299 85.1197 221.412 85.1197 221.412C85.1197 221.412 83.989 222.069 84.2039 222.772L84.2133 222.781Z" fill="#FF622C"/>
<path d="M93.7823 209.912C93.857 209.894 96.1932 210.56 96.1932 210.56C96.1932 210.56 96.6605 212.06 96.5857 212.52C96.5109 212.97 96.2119 213.299 96.2119 213.571C96.2119 213.843 96.5203 214.405 96.4736 215.268C96.4268 216.131 96.0531 217.688 95.3148 218.542C94.5953 219.376 94.1467 219.949 94.0906 220.117C94.0346 220.286 90.6331 221.14 88.951 220.361C87.2596 219.583 87.6427 213.955 87.6427 213.955L93.7823 209.922V209.912Z" fill="#FFCBAD"/>
<path d="M95.1185 208.065C95.1185 208.065 95.1933 208.158 95.3054 208.327C95.7259 208.946 96.9875 210.625 95.8755 211.676C94.0158 213.43 94.5111 216.788 94.5111 216.788C94.5111 216.788 94.2495 216.075 93.5766 216.028C92.9038 215.981 92.53 217.585 92.6795 218.185C93.0253 219.573 93.3337 219.545 93.3337 219.545C93.3337 219.545 97.3426 221.59 97.109 221.74C95.1652 223.044 88.5398 228.606 83.2132 223.259C81.1947 221.233 82.2507 215.756 82.3815 212.07C82.5124 208.393 87.2221 206.658 90.0817 206.358C92.9318 206.048 95.1185 208.065 95.1185 208.065Z" fill="#282936"/>
</g>
<defs>
<linearGradient id="paint0_linear_326_26994" x1="262.204" y1="117.384" x2="287.155" y2="117.384" gradientUnits="userSpaceOnUse">
<stop stop-color="#FDFDFD"/>
<stop offset="1" stop-color="#BAC6EB"/>
</linearGradient>
<linearGradient id="paint1_linear_326_26994" x1="287.154" y1="117.43" x2="311.946" y2="117.43" gradientUnits="userSpaceOnUse">
<stop stop-color="#BAC6EB"/>
</linearGradient>
<linearGradient id="paint2_linear_326_26994" x1="70.9998" y1="105.959" x2="71.9342" y2="105.959" gradientUnits="userSpaceOnUse">
<stop stop-color="#FDFDFD"/>
<stop offset="1" stop-color="#BAC6EB"/>
</linearGradient>
<linearGradient id="paint3_linear_326_26994" x1="70.9993" y1="106.006" x2="71.9337" y2="106.006" gradientUnits="userSpaceOnUse">
<stop stop-color="#BAC6EB"/>
</linearGradient>
<linearGradient id="paint4_linear_326_26994" x1="267.381" y1="90.042" x2="287.136" y2="90.042" gradientUnits="userSpaceOnUse">
<stop stop-color="#FDFDFD"/>
<stop offset="1" stop-color="#BAC6EB"/>
</linearGradient>
<linearGradient id="paint5_linear_326_26994" x1="287.136" y1="90.0797" x2="306.779" y2="90.0797" gradientUnits="userSpaceOnUse">
<stop stop-color="#BAC6EB"/>
</linearGradient>
<linearGradient id="paint6_linear_326_26994" x1="267.381" y1="79.4149" x2="306.779" y2="79.4149" gradientUnits="userSpaceOnUse">
<stop stop-color="#FDFDFD"/>
<stop offset="1" stop-color="#BAC6EB"/>
</linearGradient>
<linearGradient id="paint7_linear_326_26994" x1="254.056" y1="194.858" x2="267.344" y2="194.858" gradientUnits="userSpaceOnUse">
<stop stop-color="#BAC6EB"/>
</linearGradient>
<linearGradient id="paint8_linear_326_26994" x1="253.897" y1="128.761" x2="267.194" y2="128.761" gradientUnits="userSpaceOnUse">
<stop stop-color="#BAC6EB"/>
</linearGradient>
<linearGradient id="paint9_linear_326_26994" x1="310.778" y1="126.528" x2="324.142" y2="126.528" gradientUnits="userSpaceOnUse">
<stop stop-color="#BAC6EB"/>
</linearGradient>
<linearGradient id="paint10_linear_326_26994" x1="367.876" y1="159.619" x2="381.239" y2="159.619" gradientUnits="userSpaceOnUse">
<stop stop-color="#BAC6EB"/>
</linearGradient>
<linearGradient id="paint11_linear_326_26994" x1="371.922" y1="192.729" x2="385.22" y2="192.729" gradientUnits="userSpaceOnUse">
<stop stop-color="#BAC6EB"/>
</linearGradient>
<linearGradient id="paint12_linear_326_26994" x1="314.975" y1="225.736" x2="328.273" y2="225.736" gradientUnits="userSpaceOnUse">
<stop stop-color="#BAC6EB"/>
</linearGradient>
<linearGradient id="paint13_linear_326_26994" x1="196.95" y1="161.767" x2="210.247" y2="161.767" gradientUnits="userSpaceOnUse">
<stop stop-color="#BAC6EB"/>
</linearGradient>
<linearGradient id="paint14_linear_326_26994" x1="209.116" y1="146.404" x2="234.058" y2="146.404" gradientUnits="userSpaceOnUse">
<stop stop-color="#FDFDFD"/>
<stop offset="1" stop-color="#BAC6EB"/>
</linearGradient>
<linearGradient id="paint15_linear_326_26994" x1="234.058" y1="146.45" x2="258.849" y2="146.45" gradientUnits="userSpaceOnUse">
<stop stop-color="#BAC6EB"/>
</linearGradient>
<linearGradient id="paint16_linear_326_26994" x1="152.169" y1="179.401" x2="177.11" y2="179.401" gradientUnits="userSpaceOnUse">
<stop stop-color="#FDFDFD"/>
<stop offset="1" stop-color="#BAC6EB"/>
</linearGradient>
<linearGradient id="paint17_linear_326_26994" x1="177.11" y1="179.448" x2="201.912" y2="179.448" gradientUnits="userSpaceOnUse">
<stop stop-color="#BAC6EB"/>
</linearGradient>
<linearGradient id="paint18_linear_326_26994" x1="348.11" y1="146.535" x2="372.902" y2="146.535" gradientUnits="userSpaceOnUse">
<stop stop-color="#BAC6EB"/>
</linearGradient>
<linearGradient id="paint19_linear_326_26994" x1="323.16" y1="146.497" x2="348.111" y2="146.497" gradientUnits="userSpaceOnUse">
<stop stop-color="#FDFDFD"/>
<stop offset="1" stop-color="#BAC6EB"/>
</linearGradient>
<linearGradient id="paint20_linear_326_26994" x1="348.261" y1="212.633" x2="373.053" y2="212.633" gradientUnits="userSpaceOnUse">
<stop stop-color="#BAC6EB"/>
</linearGradient>
<linearGradient id="paint21_linear_326_26994" x1="323.319" y1="212.586" x2="348.261" y2="212.586" gradientUnits="userSpaceOnUse">
<stop stop-color="#FDFDFD"/>
<stop offset="1" stop-color="#BAC6EB"/>
</linearGradient>
<linearGradient id="paint22_linear_326_26994" x1="234.216" y1="212.539" x2="259.008" y2="212.539" gradientUnits="userSpaceOnUse">
<stop stop-color="#BAC6EB"/>
</linearGradient>
<linearGradient id="paint23_linear_326_26994" x1="209.266" y1="212.492" x2="234.216" y2="212.492" gradientUnits="userSpaceOnUse">
<stop stop-color="#FDFDFD"/>
<stop offset="1" stop-color="#BAC6EB"/>
</linearGradient>
<linearGradient id="paint24_linear_326_26994" x1="209.116" y1="134.979" x2="234.058" y2="134.979" gradientUnits="userSpaceOnUse">
<stop stop-color="#FDFDFD"/>
<stop offset="1" stop-color="#BAC6EB"/>
</linearGradient>
<linearGradient id="paint25_linear_326_26994" x1="234.058" y1="135.026" x2="258.849" y2="135.026" gradientUnits="userSpaceOnUse">
<stop stop-color="#BAC6EB"/>
</linearGradient>
<linearGradient id="paint26_linear_326_26994" x1="209.116" y1="122.861" x2="258.849" y2="122.861" gradientUnits="userSpaceOnUse">
<stop stop-color="#FDFDFD"/>
<stop offset="1" stop-color="#BAC6EB"/>
</linearGradient>
<linearGradient id="paint27_linear_326_26994" x1="152.169" y1="167.977" x2="177.11" y2="167.977" gradientUnits="userSpaceOnUse">
<stop stop-color="#FDFDFD"/>
<stop offset="1" stop-color="#BAC6EB"/>
</linearGradient>
<linearGradient id="paint28_linear_326_26994" x1="177.11" y1="168.024" x2="201.912" y2="168.024" gradientUnits="userSpaceOnUse">
<stop stop-color="#BAC6EB"/>
</linearGradient>
<linearGradient id="paint29_linear_326_26994" x1="348.11" y1="135.111" x2="372.902" y2="135.111" gradientUnits="userSpaceOnUse">
<stop stop-color="#BAC6EB"/>
</linearGradient>
<linearGradient id="paint30_linear_326_26994" x1="323.16" y1="135.073" x2="348.111" y2="135.073" gradientUnits="userSpaceOnUse">
<stop stop-color="#FDFDFD"/>
<stop offset="1" stop-color="#BAC6EB"/>
</linearGradient>
<linearGradient id="paint31_linear_326_26994" x1="323.16" y1="122.946" x2="372.903" y2="122.946" gradientUnits="userSpaceOnUse">
<stop stop-color="#FDFDFD"/>
<stop offset="1" stop-color="#BAC6EB"/>
</linearGradient>
<linearGradient id="paint32_linear_326_26994" x1="348.261" y1="201.208" x2="373.053" y2="201.208" gradientUnits="userSpaceOnUse">
<stop stop-color="#BAC6EB"/>
</linearGradient>
<linearGradient id="paint33_linear_326_26994" x1="323.319" y1="201.161" x2="348.261" y2="201.161" gradientUnits="userSpaceOnUse">
<stop stop-color="#FDFDFD"/>
<stop offset="1" stop-color="#BAC6EB"/>
</linearGradient>
<linearGradient id="paint34_linear_326_26994" x1="323.319" y1="189.033" x2="373.052" y2="189.033" gradientUnits="userSpaceOnUse">
<stop stop-color="#FDFDFD"/>
<stop offset="1" stop-color="#BAC6EB"/>
</linearGradient>
<linearGradient id="paint35_linear_326_26994" x1="380.258" y1="179.588" x2="405.208" y2="179.588" gradientUnits="userSpaceOnUse">
<stop stop-color="#FDFDFD"/>
<stop offset="1" stop-color="#BAC6EB"/>
</linearGradient>
<linearGradient id="paint36_linear_326_26994" x1="405.208" y1="179.626" x2="430" y2="179.626" gradientUnits="userSpaceOnUse">
<stop stop-color="#BAC6EB"/>
</linearGradient>
<linearGradient id="paint37_linear_326_26994" x1="380.258" y1="168.164" x2="405.208" y2="168.164" gradientUnits="userSpaceOnUse">
<stop stop-color="#FDFDFD"/>
<stop offset="1" stop-color="#BAC6EB"/>
</linearGradient>
<linearGradient id="paint38_linear_326_26994" x1="405.208" y1="168.202" x2="430" y2="168.202" gradientUnits="userSpaceOnUse">
<stop stop-color="#BAC6EB"/>
</linearGradient>
<linearGradient id="paint39_linear_326_26994" x1="385.435" y1="152.247" x2="405.199" y2="152.247" gradientUnits="userSpaceOnUse">
<stop stop-color="#FDFDFD"/>
<stop offset="1" stop-color="#BAC6EB"/>
</linearGradient>
<linearGradient id="paint40_linear_326_26994" x1="405.199" y1="152.284" x2="424.833" y2="152.284" gradientUnits="userSpaceOnUse">
<stop stop-color="#BAC6EB"/>
</linearGradient>
<linearGradient id="paint41_linear_326_26994" x1="385.435" y1="141.62" x2="424.832" y2="141.62" gradientUnits="userSpaceOnUse">
<stop stop-color="#FDFDFD"/>
<stop offset="1" stop-color="#BAC6EB"/>
</linearGradient>
<linearGradient id="paint42_linear_326_26994" x1="266.372" y1="245.583" x2="291.323" y2="245.583" gradientUnits="userSpaceOnUse">
<stop stop-color="#FDFDFD"/>
<stop offset="1" stop-color="#BAC6EB"/>
</linearGradient>
<linearGradient id="paint43_linear_326_26994" x1="291.322" y1="245.63" x2="316.114" y2="245.63" gradientUnits="userSpaceOnUse">
<stop stop-color="#BAC6EB"/>
</linearGradient>
<linearGradient id="paint44_linear_326_26994" x1="266.372" y1="234.159" x2="291.323" y2="234.159" gradientUnits="userSpaceOnUse">
<stop stop-color="#FDFDFD"/>
<stop offset="1" stop-color="#BAC6EB"/>
</linearGradient>
<linearGradient id="paint45_linear_326_26994" x1="291.322" y1="234.206" x2="316.114" y2="234.206" gradientUnits="userSpaceOnUse">
<stop stop-color="#BAC6EB"/>
</linearGradient>
<linearGradient id="paint46_linear_326_26994" x1="271.54" y1="218.242" x2="291.304" y2="218.242" gradientUnits="userSpaceOnUse">
<stop stop-color="#FDFDFD"/>
<stop offset="1" stop-color="#BAC6EB"/>
</linearGradient>
<linearGradient id="paint47_linear_326_26994" x1="291.305" y1="218.279" x2="310.938" y2="218.279" gradientUnits="userSpaceOnUse">
<stop stop-color="#BAC6EB"/>
</linearGradient>
<linearGradient id="paint48_linear_326_26994" x1="271.54" y1="207.615" x2="310.938" y2="207.615" gradientUnits="userSpaceOnUse">
<stop stop-color="#FDFDFD"/>
<stop offset="1" stop-color="#BAC6EB"/>
</linearGradient>
<linearGradient id="paint49_linear_326_26994" x1="234.216" y1="201.114" x2="259.008" y2="201.114" gradientUnits="userSpaceOnUse">
<stop stop-color="#BAC6EB"/>
</linearGradient>
<linearGradient id="paint50_linear_326_26994" x1="209.266" y1="201.068" x2="234.216" y2="201.068" gradientUnits="userSpaceOnUse">
<stop stop-color="#FDFDFD"/>
<stop offset="1" stop-color="#BAC6EB"/>
</linearGradient>
<linearGradient id="paint51_linear_326_26994" x1="209.266" y1="188.949" x2="259.008" y2="188.949" gradientUnits="userSpaceOnUse">
<stop stop-color="#FDFDFD"/>
<stop offset="1" stop-color="#BAC6EB"/>
</linearGradient>
<linearGradient id="paint52_linear_326_26994" x1="157.337" y1="152.069" x2="177.101" y2="152.069" gradientUnits="userSpaceOnUse">
<stop stop-color="#FDFDFD"/>
<stop offset="1" stop-color="#BAC6EB"/>
</linearGradient>
<linearGradient id="paint53_linear_326_26994" x1="177.102" y1="152.097" x2="196.735" y2="152.097" gradientUnits="userSpaceOnUse">
<stop stop-color="#BAC6EB"/>
</linearGradient>
<linearGradient id="paint54_linear_326_26994" x1="157.337" y1="141.432" x2="196.735" y2="141.432" gradientUnits="userSpaceOnUse">
<stop stop-color="#FDFDFD"/>
<stop offset="1" stop-color="#BAC6EB"/>
</linearGradient>
<linearGradient id="paint55_linear_326_26994" x1="247.364" y1="146.488" x2="270.96" y2="146.488" gradientUnits="userSpaceOnUse">
<stop stop-color="#BAC6EB"/>
</linearGradient>
<linearGradient id="paint56_linear_326_26994" x1="196.884" y1="192.532" x2="210.247" y2="192.532" gradientUnits="userSpaceOnUse">
<stop stop-color="#BAC6EB"/>
</linearGradient>
<linearGradient id="paint57_linear_326_26994" x1="311.003" y1="161.851" x2="324.291" y2="161.851" gradientUnits="userSpaceOnUse">
<stop stop-color="#BAC6EB"/>
</linearGradient>
<linearGradient id="paint58_linear_326_26994" x1="310.928" y1="192.617" x2="324.291" y2="192.617" gradientUnits="userSpaceOnUse">
<stop stop-color="#BAC6EB"/>
</linearGradient>
<linearGradient id="paint59_linear_326_26994" x1="253.981" y1="225.623" x2="267.344" y2="225.623" gradientUnits="userSpaceOnUse">
<stop stop-color="#BAC6EB"/>
</linearGradient>
<linearGradient id="paint60_linear_326_26994" x1="269.054" y1="180.799" x2="273.198" y2="173.637" gradientUnits="userSpaceOnUse">
<stop offset="0.13" stop-color="#B3C0D9"/>
<stop offset="0.67" stop-color="#EFEFEF"/>
</linearGradient>
<linearGradient id="paint61_linear_326_26994" x1="299.294" y1="92.4339" x2="303.298" y2="85.5247" gradientUnits="userSpaceOnUse">
<stop stop-color="#B3C0D9"/>
<stop offset="0.56" stop-color="#899CC3"/>
</linearGradient>
<linearGradient id="paint62_linear_326_26994" x1="297.135" y1="89.6011" x2="300.922" y2="83.0852" gradientUnits="userSpaceOnUse">
<stop offset="0.11" stop-color="#8F6EF7"/>
<stop offset="0.49" stop-color="#BDDCC9"/>
<stop offset="0.8" stop-color="#8F6EF7"/>
</linearGradient>
<linearGradient id="paint63_linear_326_26994" x1="107.042" y1="217.454" x2="303.901" y2="217.454" gradientUnits="userSpaceOnUse">
<stop stop-color="#FDFDFD"/>
<stop offset="1" stop-color="#BAC6EB"/>
</linearGradient>
<linearGradient id="paint64_linear_326_26994" x1="73.9622" y1="310.967" x2="105.155" y2="310.967" gradientUnits="userSpaceOnUse">
<stop stop-color="#FDFDFD"/>
<stop offset="1" stop-color="#BAC6EB"/>
</linearGradient>
<linearGradient id="paint65_linear_326_26994" x1="99.8564" y1="225.454" x2="165.214" y2="225.454" gradientUnits="userSpaceOnUse">
<stop offset="0.59" stop-color="#FDFDFD"/>
<stop offset="1" stop-color="#BAC6EB"/>
</linearGradient>
<linearGradient id="paint66_linear_326_26994" x1="125.592" y1="128.179" x2="132.935" y2="321.949" gradientUnits="userSpaceOnUse">
<stop stop-color="#FDFDFD"/>
<stop offset="1" stop-color="#BAC6EB"/>
</linearGradient>
<linearGradient id="paint67_linear_326_26994" x1="89.8322" y1="166.262" x2="75.6618" y2="314.651" gradientUnits="userSpaceOnUse">
<stop stop-color="#7EDDDE"/>
<stop offset="0.15" stop-color="#7BD9DA"/>
<stop offset="0.28" stop-color="#75CECF"/>
<stop offset="0.41" stop-color="#6BBBBC"/>
<stop offset="0.54" stop-color="#5CA2A2"/>
<stop offset="0.67" stop-color="#498081"/>
<stop offset="0.79" stop-color="#315757"/>
<stop offset="0.91" stop-color="#162728"/>
<stop offset="0.99"/>
</linearGradient>
<clipPath id="clip0_326_26994">
<rect width="359" height="252" fill="white" transform="translate(71 68)"/>
</clipPath>
</defs>
</svg>
