<svg width="150" height="150" viewBox="0 0 150 150" fill="none" xmlns="http://www.w3.org/2000/svg">
<g clip-path="url(#clip0_270_31671)">
<path d="M21.3 83.0517V93.9818H36.4546C27.5754 93.6936 23.0278 89.6095 21.3 83.0517Z" fill="white"/>
<path d="M36.4546 93.9818C36.4546 93.9818 48.7374 94.0225 48.6982 93.9818C48.659 93.9411 48.6982 89.3835 48.6982 89.3835C45.7353 92.0051 41.5361 93.4225 36.4546 93.9818Z" fill="white"/>
<path d="M31.5288 56.532H48.6972V83.0516C48.6972 86.6418 44.9896 89.5067 39.9133 89.5002C33.7216 89.3642 31.4504 86.9782 31.5288 82.487V56.532Z" fill="white"/>
<path d="M63.8328 82.7892V94H90.6918V70.6291C87.5816 84.8473 72.2671 84.6651 63.8328 82.7902V82.7892Z" fill="white"/>
<path d="M67.9302 56.4709H90.7214V69.6295C89.5678 60.3804 80.589 57.0366 67.9302 56.4709Z" fill="white"/>
<path d="M63.8328 59.8897V75.8017C63.4144 79.2804 65.7364 81.0578 69.8148 80.7321C74.7565 80.7718 79.4609 78.7469 79.3264 70.9612C79.5298 63.3984 74.9408 59.2929 63.8328 59.8897Z" fill="white"/>
<path d="M100.831 59.9197V69.6306H105.018C109.415 69.7066 112.485 68.9749 112.316 64.7751C111.942 61.036 108.65 59.8457 103.911 59.9197H100.831Z" fill="white"/>
<path d="M100.831 72.8875V90.5534H104.011C111.536 90.8459 116.609 88.7942 117.052 82.3145C117.41 75.5842 112.754 72.7772 104.37 72.8875H100.831Z" fill="white"/>
<path d="M127.7 82.3253V93.9014H110.99C120.167 93.2704 126.408 90.0113 127.7 82.3253Z" fill="white"/>
<path d="M127.7 56.4313V81.2367C126.554 74.801 121.255 71.6094 112.864 70.8305C117.218 69.6927 121.567 68.5517 121.997 64.3369C122.001 59.7204 117.154 57.253 108.95 56.2706L127.699 56.4323L127.7 56.4313Z" fill="white"/>
</g>
<defs>
<clipPath id="clip0_270_31671">
<rect width="106.4" height="37.7305" fill="white" transform="translate(21.3 56.2695)"/>
</clipPath>
</defs>
</svg>
