<svg width="181" height="225" viewBox="0 0 181 225" fill="none" xmlns="http://www.w3.org/2000/svg">
<g clip-path="url(#clip0_313_10847)">
<path d="M119.086 118.823H121.721V84.3894H119.086V118.823Z" fill="#313240"/>
<path d="M107.411 110.728H110.045V76.3105H107.411V110.728Z" fill="#313240"/>
<path d="M109.322 113.36L107.049 112.052L50.4014 144.947L52.6739 146.271L109.322 113.36Z" fill="#313240"/>
<path d="M119.366 119.187L117.094 117.88L60.4297 150.774L62.7022 152.098L119.366 119.187Z" fill="#313240"/>
<path d="M57.3672 147.596L52.6411 150.212L52.6905 152.96C52.6575 154.152 53.448 154.681 54.4855 154.152C55.3582 153.705 56.1486 152.629 56.4121 151.536L57.3672 147.579V147.596Z" fill="#585A6B"/>
<path d="M52.5752 158.208L54.6336 159.449L55.9181 157.231C56.6591 156.536 57.3343 155.592 57.7789 154.532C57.9436 154.152 58.0588 153.771 58.1247 153.423L59.2609 151.453L57.3672 150.311C57.1696 150.179 56.9226 150.096 56.6592 150.063C55.0948 149.897 53.0692 151.635 52.1141 153.936C51.3072 155.89 51.5377 157.612 52.5752 158.208Z" fill="#20202C"/>
<path d="M54.1728 155.178C53.2176 157.479 53.7281 159.499 55.276 159.664C56.8404 159.83 58.8659 158.091 59.8211 155.79C60.7762 153.489 60.2657 151.469 58.7178 151.304C57.1534 151.138 55.1279 152.877 54.1728 155.178Z" fill="#171723"/>
<path d="M55.6541 155.344C55.2095 156.436 55.44 157.38 56.1811 157.463C56.9221 157.545 57.8772 156.718 58.3218 155.625C58.7664 154.532 58.536 153.589 57.7949 153.506C57.0539 153.423 56.0987 154.251 55.6541 155.344Z" fill="#585A6B"/>
<path d="M60.462 149.483L55.7358 152.099L55.7852 154.847C55.7523 156.039 56.5427 156.568 57.5802 156.039C58.4529 155.592 59.2434 154.516 59.5068 153.423L60.462 149.466V149.483Z" fill="#444655"/>
<path d="M55.737 152.099L60.4631 149.516L57.3672 147.596L52.6411 150.178L55.737 152.099Z" fill="#6D7082"/>
<path d="M129.214 127.896L124.488 130.511L124.537 133.259C124.504 134.451 125.295 134.981 126.332 134.451C127.205 134.004 127.995 132.928 128.259 131.836L129.214 127.879V127.896Z" fill="#585A6B"/>
<path d="M124.422 138.507L126.48 139.749L127.765 137.531C128.506 136.835 129.181 135.892 129.626 134.832C129.79 134.452 129.905 134.071 129.971 133.723L131.108 131.753L129.214 130.611C129.016 130.478 128.769 130.396 128.506 130.362C126.941 130.197 124.916 131.935 123.961 134.236C123.154 136.19 123.384 137.911 124.422 138.507Z" fill="#20202C"/>
<path d="M126.02 135.494C125.065 137.795 125.575 139.815 127.123 139.98C128.688 140.146 130.713 138.408 131.668 136.107C132.623 133.806 132.113 131.786 130.565 131.62C129 131.455 126.975 133.193 126.02 135.494Z" fill="#171723"/>
<path d="M127.517 135.644C127.073 136.736 127.303 137.68 128.044 137.763C128.785 137.845 129.74 137.018 130.185 135.925C130.63 134.832 130.399 133.889 129.658 133.806C128.917 133.723 127.962 134.551 127.517 135.644Z" fill="#585A6B"/>
<path d="M132.309 129.783L127.583 132.399L127.632 135.147C127.6 136.339 128.39 136.868 129.427 136.339C130.3 135.892 131.091 134.816 131.354 133.723L132.309 129.766V129.783Z" fill="#444655"/>
<path d="M127.6 132.399L132.31 129.816L129.214 127.896L124.488 130.478L127.6 132.399Z" fill="#6D7082"/>
<path d="M95.275 105.282L90.5488 107.897L90.5983 110.645C90.5653 111.837 91.3557 112.367 92.3932 111.837C93.2659 111.39 94.0564 110.314 94.3199 109.222L95.275 105.265V105.282Z" fill="#585A6B"/>
<path d="M90.4825 115.877L92.5409 117.119L93.8253 114.9C94.5663 114.205 95.2415 113.261 95.6861 112.202C95.8508 111.821 95.9661 111.44 96.032 111.093L97.1682 109.123L95.2744 107.98C95.0768 107.848 94.8298 107.765 94.5663 107.732C93.0019 107.567 90.9764 109.305 90.0213 111.606C89.2144 113.559 89.445 115.281 90.4825 115.877Z" fill="#20202C"/>
<path d="M92.0961 112.864C91.141 115.165 91.6515 117.185 93.1995 117.35C94.7639 117.516 96.7893 115.777 97.7444 113.476C98.6995 111.175 98.189 109.155 96.6411 108.99C95.0767 108.824 93.0512 110.563 92.0961 112.864Z" fill="#171723"/>
<path d="M93.5784 113.013C93.1338 114.106 93.3643 115.049 94.1054 115.132C94.8464 115.215 95.8015 114.387 96.2461 113.294C96.6907 112.202 96.4602 111.258 95.7191 111.175C94.9781 111.093 94.023 111.92 93.5784 113.013Z" fill="#585A6B"/>
<path d="M98.3873 107.169L93.6611 109.785L93.7106 112.533C93.6776 113.725 94.468 114.254 95.5055 113.725C96.3782 113.278 97.1686 112.202 97.4321 111.109L98.3873 107.152V107.169Z" fill="#444655"/>
<path d="M93.6603 109.785L98.3865 107.202L95.2741 105.282L90.5645 107.864L93.6603 109.785Z" fill="#6D7082"/>
<path d="M101.681 11.5149L102.521 13.9319L92.2288 22.4246L89.5446 33.8474L81.8872 38.7145L87.2062 21.1664L99.8037 9.71045L100.611 10.6044L101.681 11.5149Z" fill="#626577"/>
<path d="M73.0104 118.592L124.833 88.5117L121.556 86.6079L69.7334 116.688L73.0104 118.592Z" fill="#313240"/>
<path d="M63.1632 112.88L114.986 82.8L111.709 80.8962L59.8862 110.976L63.1632 112.88Z" fill="#313240"/>
<path d="M53.3156 107.152L105.138 77.0886L101.861 75.1848L50.0386 105.265L53.3156 107.152Z" fill="#313240"/>
<path d="M90.8449 109.37L51.4714 141.801C50.5328 142.431 50.0223 143.175 50.0388 143.904C50.0552 144.665 50.6809 145.444 51.7348 146.056L61.3024 151.569C63.8384 153.042 68.1035 153.108 70.8041 151.701L127.04 129.104C128.292 128.458 129.033 127.597 129.049 126.753C129.066 125.975 128.456 125.147 127.353 124.518L100.923 109.172C99.589 108.394 97.8271 108.03 96.0651 108.03C94.1384 108.03 92.1952 108.493 90.8449 109.387V109.37ZM60.2321 153.423L50.6645 147.91C48.919 146.9 47.9474 145.493 47.898 143.954C47.8486 142.447 48.7048 141.04 50.2857 139.997L89.6593 107.566C92.9528 105.381 98.4858 105.248 101.993 107.301L128.423 122.647C130.218 123.69 131.223 125.213 131.19 126.803C131.157 128.458 129.988 129.998 128.012 131.024L71.7757 153.622C70.1455 154.466 68.1364 154.88 66.1438 154.88C64.003 154.88 61.8623 154.4 60.2156 153.439L60.2321 153.423Z" fill="#444655"/>
<path d="M90.8449 108.096L51.4714 140.527C50.5328 141.156 50.0223 141.901 50.0388 142.629C50.0552 143.391 50.6809 144.169 51.7348 144.781L61.3024 150.294C63.8384 151.768 68.1035 151.834 70.8041 150.427L127.04 127.829C128.292 127.184 129.033 126.323 129.049 125.478C129.066 124.7 128.456 123.873 127.353 123.244L100.923 107.897C99.589 107.119 97.8271 106.755 96.0651 106.755C94.1384 106.755 92.1952 107.218 90.8449 108.112V108.096ZM60.2321 152.148L50.6645 146.636C48.919 145.626 47.9474 144.219 47.898 142.679C47.8486 141.172 48.7048 139.765 50.2857 138.722L89.6593 106.291C92.9528 104.106 98.4858 103.974 101.993 106.026L128.423 121.373C130.218 122.416 131.223 123.939 131.19 125.528C131.157 127.184 129.988 128.723 128.012 129.75L71.7757 152.347C70.1455 153.191 68.1364 153.605 66.1438 153.605C64.003 153.605 61.8623 153.125 60.2156 152.165L60.2321 152.148Z" fill="#6D7082"/>
<path d="M98.0743 71.7909C98.8977 71.7909 99.5564 71.1287 99.5564 70.3009V28.4006H96.5923V70.3009C96.5923 71.1287 97.2509 71.7909 98.0743 71.7909Z" fill="#313240"/>
<path d="M109.009 77.9494C109.783 77.9494 110.425 77.3369 110.474 76.5754L113.29 35.6353H110.326L107.56 76.3767C107.494 77.2376 108.169 77.966 109.025 77.966L109.009 77.9494Z" fill="#343544"/>
<path d="M119.926 84.1077C120.651 84.1077 121.277 83.5614 121.375 82.8496L127.007 42.8696H124.043L118.51 82.4357C118.378 83.3131 119.054 84.1077 119.959 84.1077H119.926Z" fill="#383847"/>
<path d="M130.861 90.2829C131.536 90.2829 132.129 89.8028 132.277 89.1406L140.725 50.1208H137.761L129.445 88.5281C129.247 89.4386 129.939 90.2995 130.861 90.2995V90.2829Z" fill="#3B3C4A"/>
<path d="M90.1204 74.5393C90.5486 74.1917 90.7627 73.6288 90.6968 73.0825L86.4812 36.9929L83.27 39.1119L87.4692 73.4964C87.6339 74.7711 89.1324 75.3505 90.104 74.5393H90.1204Z" fill="#313240"/>
<path d="M81.2766 80.3001C81.7706 79.8862 81.9847 79.2406 81.853 78.628L75.1507 44.4919L72.2031 46.4454L78.5265 79.3564C78.8065 80.598 80.2885 81.1113 81.2766 80.3001Z" fill="#313240"/>
<path d="M72.056 87.1705C72.55 86.7566 72.7805 86.0944 72.6323 85.4653L64.7774 51.3789L61.5498 53.5145L69.2895 86.2269C69.5859 87.4685 71.0679 87.9651 72.0395 87.1539L72.056 87.1705Z" fill="#313240"/>
<path d="M62.8993 92.6336C63.3934 92.2197 63.6239 91.5741 63.4757 90.945L54.8962 57.9512L51.6851 60.0867L60.1493 91.7065C60.4293 92.9481 61.9278 93.4613 62.8993 92.6336Z" fill="#313240"/>
<path d="M54.9783 97.2195C55.5547 96.7394 55.7688 95.9614 55.5217 95.266L45.2296 64.3582L42.1831 66.3778L52.1459 96.4249C52.5411 97.6168 54.0067 98.0307 54.9618 97.2195H54.9783Z" fill="#313240"/>
<path d="M91.2569 75.4995L50.6154 102.649C49.7427 103.229 49.2651 103.908 49.2816 104.553C49.2981 105.232 49.8745 105.944 50.8625 106.523L71.4961 118.492C73.9826 119.933 78.1819 119.999 80.8496 118.625L127.502 94.968C128.687 94.3555 129.379 93.5608 129.395 92.7993C129.412 92.104 128.835 91.359 127.798 90.7631L101.17 75.3008C99.8694 74.5393 98.1238 74.1751 96.3947 74.1751C94.501 74.1751 92.5908 74.6221 91.2569 75.4995ZM70.1787 120.794L49.5451 108.824C47.7172 107.765 46.6798 106.275 46.6304 104.636C46.581 103.03 47.4703 101.54 49.1499 100.431L89.7914 73.2811C93.1837 71.0297 98.8813 70.9138 102.488 72.9997L129.116 88.4619C131.009 89.5546 132.063 91.1604 132.03 92.8655C131.981 94.6369 130.779 96.2593 128.704 97.3188L82.0517 120.976C80.3721 121.836 78.3136 122.267 76.2717 122.267C74.065 122.267 71.8748 121.77 70.1622 120.777L70.1787 120.794Z" fill="#313240"/>
<path d="M91.2569 74.2081L50.6154 101.358C49.7427 101.937 49.2651 102.616 49.2816 103.262C49.2981 103.941 49.8745 104.652 50.8625 105.232L71.4961 117.201C73.9826 118.641 78.1819 118.708 80.8496 117.333L127.502 93.6766C128.687 93.0641 129.379 92.2695 129.395 91.5079C129.412 90.8126 128.835 90.0677 127.798 89.4717L101.17 74.0095C99.8694 73.2479 98.1238 72.8837 96.3947 72.8837C94.501 72.8837 92.5908 73.3307 91.2569 74.2081ZM70.1787 119.502L49.5451 107.533C47.7172 106.474 46.6798 104.984 46.6304 103.345C46.581 101.755 47.4703 100.249 49.1499 99.1397L89.7914 71.9898C93.1837 69.7383 98.8813 69.6059 102.488 71.7083L129.116 87.1706C131.009 88.2632 132.063 89.869 132.03 91.5741C131.981 93.3455 130.779 94.9679 128.704 96.044L82.0517 119.701C80.3721 120.562 78.3136 120.992 76.2717 120.992C74.065 120.992 71.8748 120.495 70.1622 119.502H70.1787Z" fill="#6D7082"/>
<path d="M90.7136 60.4179L46.1034 90.1669C45.1318 90.8126 44.012 92.1204 44.0285 92.8323C44.045 93.5938 44.8354 95.8121 45.9223 96.4412L67.758 108.973C70.4587 110.546 75.9094 111.324 78.7912 109.834L131.372 82.9821C132.672 82.3034 133.265 80.7969 133.282 79.936C133.298 79.1414 132.738 77.5687 131.602 76.9065L102.85 59.855C101.434 59.0273 98.9966 58.183 97.1193 58.183C95.0609 58.183 92.1462 59.4577 90.6971 60.4179H90.7136ZM67.3299 110.612L45.1647 97.7491C43.2381 96.6233 42.1348 95.0506 42.0854 93.3289C42.0359 91.6403 42.9746 90.0842 44.7531 88.9088L90.1043 58.6962C93.7107 56.2957 99.7871 56.1633 103.64 58.3982L132.244 75.0027C134.237 76.1615 135.357 77.8501 135.324 79.6381C135.274 81.4922 133.99 83.2139 131.8 84.3396L79.9933 110.811C78.1984 111.738 76.0082 112.201 73.8345 112.201C71.4797 112.201 69.1413 111.672 67.3299 110.612Z" fill="#313240"/>
<path d="M90.7136 59.5407L46.1034 89.2897C45.1318 89.9354 44.012 91.2432 44.0285 91.9551C44.045 92.7166 44.8354 94.9349 45.9223 95.564L67.758 108.096C70.4587 109.669 75.9094 110.447 78.7912 108.957L131.372 82.1049C132.672 81.4262 133.265 79.9197 133.282 79.0588C133.298 78.2642 132.738 76.6915 131.602 76.0293L102.85 58.9778C101.434 58.1501 98.9966 57.3058 97.1193 57.3058C95.0609 57.3058 92.1462 58.5805 90.6971 59.5407H90.7136ZM67.3299 109.735L45.1647 96.8718C43.2381 95.7461 42.1348 94.1734 42.0854 92.4517C42.0359 90.7631 42.9746 89.207 44.7531 88.0316L90.1043 57.819C93.7107 55.4185 99.7871 55.2861 103.64 57.521L132.244 74.1255C134.237 75.2843 135.357 76.9729 135.324 78.7609C135.274 80.615 133.99 82.3367 131.8 83.4624L79.9933 109.934C78.1984 110.861 76.0082 111.324 73.8345 111.324C71.4797 111.324 69.1413 110.794 67.3299 109.735Z" fill="#6D7082"/>
<path d="M89.5606 47.1079L42.2499 78.6449C41.2124 79.3236 40.0267 80.7142 40.0432 81.4757C40.0597 82.2869 40.8994 84.6212 42.0522 85.2999L65.2054 98.5769C68.0707 100.249 73.8507 101.06 76.9137 99.4874L132.656 71.0131C134.039 70.3012 134.665 68.6954 134.681 67.7849C134.698 66.9406 134.105 65.2686 132.903 64.5733L102.422 46.4954C100.923 45.618 98.3377 44.724 96.3452 44.724C94.155 44.724 91.0756 46.0815 89.5441 47.0913L89.5606 47.1079ZM64.7607 100.332L41.2618 86.6905C39.2198 85.4986 38.0507 83.8431 38.0013 82.0055C37.9518 80.2176 38.9563 78.5621 40.8171 77.3205L88.9019 45.2869C92.7388 42.7374 99.1611 42.605 103.245 44.9723L133.578 62.5867C135.702 63.8117 136.888 65.6162 136.839 67.5035C136.789 69.4735 135.422 71.2945 133.1 72.503L78.1816 100.563C76.2879 101.54 73.966 102.037 71.6441 102.037C69.1575 102.037 66.6709 101.474 64.7443 100.348L64.7607 100.332Z" fill="#313240"/>
<path d="M89.5606 46.1643L42.2499 77.7013C41.2124 78.38 40.0267 79.7706 40.0432 80.5321C40.0597 81.3433 40.8994 83.6776 42.0522 84.3563L65.2054 97.6333C68.0707 99.3053 73.8507 100.117 76.9137 98.5438L132.656 70.0695C134.039 69.3576 134.665 67.7518 134.681 66.8413C134.698 65.997 134.105 64.3249 132.903 63.6296L102.422 45.5518C100.923 44.6744 98.3377 43.7804 96.3452 43.7804C94.155 43.7804 91.0756 45.1379 89.5441 46.1477L89.5606 46.1643ZM64.7607 99.3881L41.2618 85.7469C39.2198 84.555 38.0507 82.8995 38.0013 81.0619C37.9518 79.274 38.9563 77.6185 40.8171 76.3769L88.9019 44.3433C92.7388 41.7938 99.1611 41.6614 103.245 44.0287L133.578 61.6431C135.702 62.8681 136.888 64.6726 136.839 66.5599C136.789 68.5299 135.422 70.3509 133.1 71.5594L78.1816 99.6199C76.2879 100.597 73.966 101.093 71.6441 101.093C69.1575 101.093 66.6709 100.53 64.7443 99.4047L64.7607 99.3881Z" fill="#6D7082"/>
<path d="M48.3258 104.321C48.9351 104.057 49.215 103.361 48.968 102.749L36.2717 72.8838H34.1309L46.7449 103.676C46.9919 104.288 47.7001 104.586 48.3093 104.321H48.3258Z" fill="#626577"/>
<path d="M57.1034 109.884C57.8115 109.702 58.2231 108.973 58.009 108.261L48.2439 79.489H45.8232L55.5554 109.023C55.753 109.668 56.4282 110.049 57.0869 109.884H57.1034Z" fill="#626577"/>
<path d="M65.8799 115.446C66.6868 115.347 67.2301 114.585 67.0655 113.791L60.2316 86.1111H57.5474L64.3977 114.387C64.546 115.082 65.2047 115.529 65.8963 115.446H65.8799Z" fill="#626577"/>
<path d="M74.6576 120.992C75.5468 120.992 76.2385 120.197 76.1067 119.303L72.204 92.7329H69.2397L73.2084 119.75C73.3072 120.479 73.933 121.009 74.6576 121.009V120.992Z" fill="#626577"/>
<path d="M125.344 97.4511C125.838 97.2028 126.167 96.7061 126.217 96.1598L129.378 61.4277L125.739 63.2984L122.989 95.8784C122.874 97.1531 124.207 98.047 125.344 97.4676V97.4511Z" fill="#6D7082"/>
<path d="M116.485 102.864C117.045 102.566 117.407 101.987 117.407 101.358L118.296 67.3376L114.657 69.2083L114.015 101.341C114.015 102.616 115.365 103.444 116.485 102.864Z" fill="#6D7082"/>
<path d="M104.957 108.394C105.533 108.096 105.896 107.5 105.896 106.854L105.962 73.4133L102.322 75.284L102.487 106.871C102.487 108.145 103.854 108.957 104.973 108.377L104.957 108.394Z" fill="#6D7082"/>
<path d="M93.9737 113.178C94.55 112.88 94.8958 112.301 94.8958 111.655L93.1833 80.9956L89.5439 82.8663L91.4871 111.672C91.4871 112.946 92.8374 113.774 93.9737 113.195V113.178Z" fill="#6D7082"/>
<path d="M84.1751 119.121C84.8338 118.79 85.2126 118.062 85.1302 117.333L81.952 86.7732L78.6421 88.4783L81.6062 117.731C81.7379 118.972 83.0718 119.701 84.1916 119.121H84.1751Z" fill="#6D7082"/>
<path d="M92.1625 33.2183L37.392 69.5562C36.2228 70.3343 35.597 71.2448 35.6299 72.1388C35.6629 73.0658 36.4204 74.0426 37.7213 74.7875L62.9493 89.422C66.0781 91.2431 71.3312 91.3093 74.6577 89.5876L136.756 57.5043C138.304 56.7097 139.21 55.6501 139.243 54.6072C139.259 53.647 138.502 52.6372 137.151 51.8425L104.595 32.9369C102.965 31.9933 100.775 31.5132 98.6012 31.5132C96.2134 31.5132 93.8257 32.0761 92.1625 33.1852V33.2183ZM61.6319 91.7397L36.4039 77.1052C34.2631 75.8636 33.0445 74.1254 32.9951 72.2215C32.9457 70.3674 33.9832 68.6457 35.9428 67.3379L90.7133 31C94.7808 28.3015 101.598 28.1526 105.913 30.6689L138.469 49.5745C140.692 50.8658 141.927 52.7199 141.878 54.69C141.828 56.7428 140.395 58.63 137.958 59.8882L75.8597 91.9715C73.8507 93.0144 71.3806 93.5276 68.9269 93.5276C66.2922 93.5276 63.6574 92.9316 61.6154 91.7397H61.6319Z" fill="#444655"/>
<path d="M92.1622 31.6458L37.3917 67.9837C36.2225 68.7618 35.5968 69.6723 35.6297 70.5663C35.6626 71.4933 36.4202 72.4701 37.7211 73.215L62.949 87.8495C66.0778 89.6706 71.331 89.7368 74.6574 88.0151L136.756 55.9318C138.304 55.1372 139.209 54.0776 139.242 53.0347C139.259 52.0745 138.501 51.0647 137.151 50.27L104.595 31.3644C102.965 30.4208 100.775 29.9407 98.6009 29.9407C96.2132 29.9407 93.8254 30.5035 92.1622 31.6127V31.6458ZM61.6317 90.1672L36.4036 75.5327C34.2629 74.2911 33.0443 72.5528 32.9949 70.649C32.9454 68.7949 33.983 67.0732 35.9426 65.7654L90.7131 29.4275C94.7805 26.729 101.598 26.58 105.912 29.0964L138.469 48.002C140.692 49.2933 141.927 51.1474 141.877 53.1175C141.828 55.1703 140.395 57.0575 137.958 58.3157L75.8595 90.399C73.8505 91.4419 71.3803 91.9551 68.9267 91.9551C66.2919 91.9551 63.6571 91.3592 61.6152 90.1672H61.6317Z" fill="#6D7082"/>
<path d="M148.218 37.1087L148.679 39.9561L139.243 47.7038L135.588 56.0805C134.715 58.0671 133.249 59.7226 131.372 60.7987L129.906 61.643C129.067 62.123 128.078 61.2787 128.441 60.3682L133.858 46.6608L146.324 35.3042L147.131 36.1982L148.202 37.1087H148.218Z" fill="#626577"/>
<path d="M112.813 1.54904L111.792 0.953065L111.693 0.886846C111.051 0.539194 110.277 0.0756583 108.581 1.16828L99.0298 10.2734L102.389 12.6408L111.644 3.89983C111.99 3.35352 112.187 2.75754 112.237 2.24434L112.829 1.53249L112.813 1.54904Z" fill="#3ADCC9"/>
<path d="M102.52 13.9321L100.214 11.0185L109.733 2.44307C111.429 1.28423 112.351 1.20145 112.977 1.68154C113.635 2.17819 113.553 3.50258 112.812 4.66141L102.503 13.9487L102.52 13.9321Z" fill="#3AB9C9"/>
<path d="M110.755 4.76061C110.755 5.22415 110.919 5.53869 111.166 5.70424L155.381 30.9173L157.489 27.358L113.274 2.14495L113.192 2.09528C112.928 1.96285 112.583 1.99596 112.204 2.22772C111.397 2.69126 110.738 3.83354 110.738 4.76061H110.755Z" fill="#3ADCC9"/>
<path d="M110.755 4.04871C110.821 3.70106 111.068 3.27063 111.315 3.05542L153.916 27.3579L153.34 28.3347L110.755 4.04871Z" fill="#3ADCC9"/>
<path d="M158.97 27.5732L157.949 26.9772L157.85 26.911C157.208 26.5634 156.434 26.0998 154.738 27.1924L145.187 36.2976L148.546 38.665L157.801 29.924C158.147 29.3777 158.344 28.7817 158.394 28.2685L158.987 27.5567L158.97 27.5732Z" fill="#3ADCC9"/>
<path d="M148.678 39.9729L146.373 37.0592L155.891 28.4838C157.587 27.325 158.51 27.2422 159.135 27.7223C159.794 28.219 159.712 29.5433 158.971 30.7022L148.662 39.9895L148.678 39.9729Z" fill="#3AB9C9"/>
<path d="M71.4622 204.016L65.5998 220H61.7068L55.8444 204.016H59.2794L63.6762 216.726L68.0501 204.016H71.4622ZM85.1779 213.382C85.1779 213.84 85.1474 214.252 85.0863 214.619H75.8118C75.8881 215.535 76.2087 216.252 76.7736 216.771C77.3385 217.29 78.0331 217.55 78.8575 217.55C80.0483 217.55 80.8956 217.039 81.3994 216.016H84.8573C84.4909 217.237 83.7886 218.245 82.7505 219.038C81.7124 219.817 80.4376 220.206 78.9262 220.206C77.7049 220.206 76.6057 219.939 75.6286 219.405C74.6668 218.855 73.9111 218.084 73.3615 217.092C72.8272 216.1 72.56 214.955 72.56 213.657C72.56 212.344 72.8272 211.191 73.3615 210.199C73.8958 209.207 74.6439 208.443 75.6057 207.909C76.5675 207.375 77.6743 207.108 78.9262 207.108C80.1323 207.108 81.2086 207.367 82.1551 207.886C83.1169 208.405 83.8573 209.146 84.3764 210.107C84.9107 211.054 85.1779 212.146 85.1779 213.382ZM81.8574 212.466C81.8421 211.642 81.5444 210.985 80.9643 210.497C80.3842 209.993 79.6743 209.741 78.8346 209.741C78.0407 209.741 77.369 209.985 76.8194 210.474C76.2851 210.947 75.9568 211.611 75.8347 212.466H81.8574ZM94.5483 207.13C96.0597 207.13 97.281 207.611 98.2123 208.573C99.1436 209.52 99.6092 210.848 99.6092 212.558V220H96.4032V212.993C96.4032 211.985 96.1513 211.214 95.6475 210.68C95.1437 210.13 94.4567 209.856 93.5865 209.856C92.701 209.856 91.9988 210.13 91.4797 210.68C90.9759 211.214 90.724 211.985 90.724 212.993V220H87.518V207.314H90.724V208.894C91.1515 208.344 91.6934 207.917 92.3499 207.611C93.0216 207.291 93.7544 207.13 94.5483 207.13ZM106.391 209.947V216.084C106.391 216.512 106.49 216.825 106.688 217.023C106.902 217.206 107.253 217.298 107.742 217.298H109.23V220H107.215C104.513 220 103.162 218.687 103.162 216.061V209.947H101.65V207.314H103.162V204.176H106.391V207.314H109.23V209.947H106.391ZM110.712 213.611C110.712 212.329 110.964 211.191 111.467 210.199C111.987 209.207 112.681 208.443 113.551 207.909C114.437 207.375 115.422 207.108 116.505 207.108C117.452 207.108 118.276 207.298 118.979 207.68C119.696 208.062 120.269 208.543 120.696 209.123V207.314H123.925V220H120.696V218.145C120.284 218.741 119.711 219.237 118.979 219.634C118.261 220.016 117.429 220.206 116.483 220.206C115.414 220.206 114.437 219.932 113.551 219.382C112.681 218.832 111.987 218.061 111.467 217.069C110.964 216.061 110.712 214.909 110.712 213.611ZM120.696 213.657C120.696 212.878 120.543 212.214 120.238 211.665C119.933 211.1 119.521 210.672 119.002 210.382C118.482 210.077 117.925 209.924 117.33 209.924C116.734 209.924 116.185 210.069 115.681 210.359C115.177 210.649 114.765 211.077 114.444 211.642C114.139 212.191 113.986 212.848 113.986 213.611C113.986 214.374 114.139 215.046 114.444 215.626C114.765 216.191 115.177 216.626 115.681 216.932C116.2 217.237 116.75 217.39 117.33 217.39C117.925 217.39 118.482 217.245 119.002 216.955C119.521 216.649 119.933 216.222 120.238 215.672C120.543 215.107 120.696 214.436 120.696 213.657Z" fill="white"/>
</g>
<defs>
<clipPath id="clip0_313_10847">
<rect width="181" height="224.515" fill="white" transform="translate(0 0.485352)"/>
</clipPath>
</defs>
</svg>
